G75*
%MOIN*%
%OFA0B0*%
%FSLAX25Y25*%
%IPPOS*%
%LPD*%
%AMOC8*
5,1,8,0,0,1.08239X$1,22.5*
%
%ADD10C,0.05937*%
%ADD11C,0.25400*%
%ADD12C,0.01000*%
D10*
X0023000Y0121031D02*
X0023000Y0126969D01*
X0033000Y0126969D02*
X0033000Y0121031D01*
D11*
X0026000Y0085000D03*
X0026000Y0026000D03*
D12*
X0011000Y0008000D02*
X0011000Y0144000D01*
X0039000Y0144000D01*
X0039000Y0090189D01*
X0038953Y0090365D01*
X0037123Y0093535D01*
X0034535Y0096123D01*
X0031365Y0097953D01*
X0027830Y0098900D01*
X0024170Y0098900D01*
X0020635Y0097953D01*
X0017465Y0096123D01*
X0014877Y0093535D01*
X0013047Y0090365D01*
X0012100Y0086830D01*
X0012100Y0083170D01*
X0013047Y0079635D01*
X0014877Y0076465D01*
X0017465Y0073877D01*
X0020635Y0072047D01*
X0024170Y0071100D01*
X0027830Y0071100D01*
X0031365Y0072047D01*
X0034535Y0073877D01*
X0037123Y0076465D01*
X0038953Y0079635D01*
X0039000Y0079811D01*
X0039000Y0031722D01*
X0038852Y0032079D01*
X0038194Y0033309D01*
X0037419Y0034469D01*
X0036534Y0035548D01*
X0035548Y0036534D01*
X0034469Y0037419D01*
X0033309Y0038194D01*
X0032079Y0038852D01*
X0030790Y0039386D01*
X0029454Y0039791D01*
X0028086Y0040063D01*
X0026698Y0040200D01*
X0026500Y0040200D01*
X0026500Y0027756D01*
X0025500Y0027756D01*
X0025500Y0040200D01*
X0025302Y0040200D01*
X0023914Y0040063D01*
X0022546Y0039791D01*
X0021210Y0039386D01*
X0019921Y0038852D01*
X0018691Y0038194D01*
X0017531Y0037419D01*
X0016452Y0036534D01*
X0015466Y0035548D01*
X0014581Y0034469D01*
X0013806Y0033309D01*
X0013148Y0032079D01*
X0012614Y0030790D01*
X0012209Y0029454D01*
X0011937Y0028086D01*
X0011800Y0026698D01*
X0011800Y0026500D01*
X0024244Y0026500D01*
X0024244Y0025500D01*
X0011800Y0025500D01*
X0011800Y0025302D01*
X0011937Y0023914D01*
X0012209Y0022546D01*
X0012614Y0021210D01*
X0013148Y0019921D01*
X0013806Y0018691D01*
X0014581Y0017531D01*
X0015466Y0016452D01*
X0016452Y0015466D01*
X0017531Y0014581D01*
X0018691Y0013806D01*
X0019921Y0013148D01*
X0021210Y0012614D01*
X0022546Y0012209D01*
X0023914Y0011937D01*
X0025302Y0011800D01*
X0025500Y0011800D01*
X0025500Y0024244D01*
X0026500Y0024244D01*
X0026500Y0011800D01*
X0026698Y0011800D01*
X0028086Y0011937D01*
X0029454Y0012209D01*
X0030790Y0012614D01*
X0032079Y0013148D01*
X0033309Y0013806D01*
X0034469Y0014581D01*
X0035548Y0015466D01*
X0036534Y0016452D01*
X0037419Y0017531D01*
X0038194Y0018691D01*
X0038852Y0019921D01*
X0039000Y0020278D01*
X0039000Y0008000D01*
X0011000Y0008000D01*
X0011000Y0008996D02*
X0039000Y0008996D01*
X0039000Y0009994D02*
X0011000Y0009994D01*
X0011000Y0010993D02*
X0039000Y0010993D01*
X0039000Y0011991D02*
X0028359Y0011991D01*
X0026500Y0011991D02*
X0025500Y0011991D01*
X0025500Y0012990D02*
X0026500Y0012990D01*
X0026500Y0013988D02*
X0025500Y0013988D01*
X0025500Y0014987D02*
X0026500Y0014987D01*
X0026500Y0015985D02*
X0025500Y0015985D01*
X0025500Y0016984D02*
X0026500Y0016984D01*
X0026500Y0017982D02*
X0025500Y0017982D01*
X0025500Y0018981D02*
X0026500Y0018981D01*
X0026500Y0019979D02*
X0025500Y0019979D01*
X0025500Y0020978D02*
X0026500Y0020978D01*
X0026500Y0021976D02*
X0025500Y0021976D01*
X0025500Y0022975D02*
X0026500Y0022975D01*
X0026500Y0023973D02*
X0025500Y0023973D01*
X0024244Y0025970D02*
X0011000Y0025970D01*
X0011000Y0024972D02*
X0011833Y0024972D01*
X0011931Y0023973D02*
X0011000Y0023973D01*
X0011000Y0022975D02*
X0012124Y0022975D01*
X0012382Y0021976D02*
X0011000Y0021976D01*
X0011000Y0020978D02*
X0012710Y0020978D01*
X0013124Y0019979D02*
X0011000Y0019979D01*
X0011000Y0018981D02*
X0013651Y0018981D01*
X0014279Y0017982D02*
X0011000Y0017982D01*
X0011000Y0016984D02*
X0015030Y0016984D01*
X0015933Y0015985D02*
X0011000Y0015985D01*
X0011000Y0014987D02*
X0017036Y0014987D01*
X0018418Y0013988D02*
X0011000Y0013988D01*
X0011000Y0012990D02*
X0020304Y0012990D01*
X0023641Y0011991D02*
X0011000Y0011991D01*
X0011000Y0026969D02*
X0011827Y0026969D01*
X0011925Y0027967D02*
X0011000Y0027967D01*
X0011000Y0028966D02*
X0012112Y0028966D01*
X0012364Y0029964D02*
X0011000Y0029964D01*
X0011000Y0030963D02*
X0012686Y0030963D01*
X0013099Y0031961D02*
X0011000Y0031961D01*
X0011000Y0032960D02*
X0013619Y0032960D01*
X0014239Y0033958D02*
X0011000Y0033958D01*
X0011000Y0034957D02*
X0014981Y0034957D01*
X0015874Y0035955D02*
X0011000Y0035955D01*
X0011000Y0036954D02*
X0016964Y0036954D01*
X0018329Y0037952D02*
X0011000Y0037952D01*
X0011000Y0038951D02*
X0020160Y0038951D01*
X0023342Y0039949D02*
X0011000Y0039949D01*
X0011000Y0040948D02*
X0039000Y0040948D01*
X0039000Y0041946D02*
X0011000Y0041946D01*
X0011000Y0042945D02*
X0039000Y0042945D01*
X0039000Y0043943D02*
X0011000Y0043943D01*
X0011000Y0044942D02*
X0039000Y0044942D01*
X0039000Y0045940D02*
X0011000Y0045940D01*
X0011000Y0046939D02*
X0039000Y0046939D01*
X0039000Y0047937D02*
X0011000Y0047937D01*
X0011000Y0048936D02*
X0039000Y0048936D01*
X0039000Y0049934D02*
X0011000Y0049934D01*
X0011000Y0050933D02*
X0039000Y0050933D01*
X0039000Y0051932D02*
X0011000Y0051932D01*
X0011000Y0052930D02*
X0039000Y0052930D01*
X0039000Y0053929D02*
X0011000Y0053929D01*
X0011000Y0054927D02*
X0039000Y0054927D01*
X0039000Y0055926D02*
X0011000Y0055926D01*
X0011000Y0056924D02*
X0039000Y0056924D01*
X0039000Y0057923D02*
X0011000Y0057923D01*
X0011000Y0058921D02*
X0039000Y0058921D01*
X0039000Y0059920D02*
X0011000Y0059920D01*
X0011000Y0060918D02*
X0039000Y0060918D01*
X0039000Y0061917D02*
X0011000Y0061917D01*
X0011000Y0062915D02*
X0039000Y0062915D01*
X0039000Y0063914D02*
X0011000Y0063914D01*
X0011000Y0064912D02*
X0039000Y0064912D01*
X0039000Y0065911D02*
X0011000Y0065911D01*
X0011000Y0066909D02*
X0039000Y0066909D01*
X0039000Y0067908D02*
X0011000Y0067908D01*
X0011000Y0068906D02*
X0039000Y0068906D01*
X0039000Y0069905D02*
X0011000Y0069905D01*
X0011000Y0070903D02*
X0039000Y0070903D01*
X0039000Y0071902D02*
X0030822Y0071902D01*
X0032843Y0072900D02*
X0039000Y0072900D01*
X0039000Y0073899D02*
X0034556Y0073899D01*
X0035555Y0074897D02*
X0039000Y0074897D01*
X0039000Y0075896D02*
X0036553Y0075896D01*
X0037370Y0076894D02*
X0039000Y0076894D01*
X0039000Y0077893D02*
X0037947Y0077893D01*
X0038523Y0078891D02*
X0039000Y0078891D01*
X0039000Y0090873D02*
X0038659Y0090873D01*
X0039000Y0091872D02*
X0038083Y0091872D01*
X0037506Y0092870D02*
X0039000Y0092870D01*
X0039000Y0093869D02*
X0036789Y0093869D01*
X0035790Y0094868D02*
X0039000Y0094868D01*
X0039000Y0095866D02*
X0034792Y0095866D01*
X0033250Y0096865D02*
X0039000Y0096865D01*
X0039000Y0097863D02*
X0031521Y0097863D01*
X0027973Y0098862D02*
X0039000Y0098862D01*
X0039000Y0099860D02*
X0011000Y0099860D01*
X0011000Y0098862D02*
X0024027Y0098862D01*
X0020479Y0097863D02*
X0011000Y0097863D01*
X0011000Y0096865D02*
X0018750Y0096865D01*
X0017208Y0095866D02*
X0011000Y0095866D01*
X0011000Y0094868D02*
X0016210Y0094868D01*
X0015211Y0093869D02*
X0011000Y0093869D01*
X0011000Y0092870D02*
X0014494Y0092870D01*
X0013917Y0091872D02*
X0011000Y0091872D01*
X0011000Y0090873D02*
X0013341Y0090873D01*
X0012916Y0089875D02*
X0011000Y0089875D01*
X0011000Y0088876D02*
X0012648Y0088876D01*
X0012381Y0087878D02*
X0011000Y0087878D01*
X0011000Y0086879D02*
X0012113Y0086879D01*
X0012100Y0085881D02*
X0011000Y0085881D01*
X0011000Y0084882D02*
X0012100Y0084882D01*
X0012100Y0083884D02*
X0011000Y0083884D01*
X0011000Y0082885D02*
X0012176Y0082885D01*
X0012444Y0081887D02*
X0011000Y0081887D01*
X0011000Y0080888D02*
X0012711Y0080888D01*
X0012979Y0079890D02*
X0011000Y0079890D01*
X0011000Y0078891D02*
X0013476Y0078891D01*
X0014053Y0077893D02*
X0011000Y0077893D01*
X0011000Y0076894D02*
X0014629Y0076894D01*
X0015447Y0075896D02*
X0011000Y0075896D01*
X0011000Y0074897D02*
X0016445Y0074897D01*
X0017444Y0073899D02*
X0011000Y0073899D01*
X0011000Y0072900D02*
X0019157Y0072900D01*
X0021178Y0071902D02*
X0011000Y0071902D01*
X0011000Y0100859D02*
X0039000Y0100859D01*
X0039000Y0101857D02*
X0011000Y0101857D01*
X0011000Y0102856D02*
X0039000Y0102856D01*
X0039000Y0103854D02*
X0011000Y0103854D01*
X0011000Y0104853D02*
X0039000Y0104853D01*
X0039000Y0105851D02*
X0011000Y0105851D01*
X0011000Y0106850D02*
X0039000Y0106850D01*
X0039000Y0107848D02*
X0011000Y0107848D01*
X0011000Y0108847D02*
X0039000Y0108847D01*
X0039000Y0109845D02*
X0011000Y0109845D01*
X0011000Y0110844D02*
X0039000Y0110844D01*
X0039000Y0111842D02*
X0011000Y0111842D01*
X0011000Y0112841D02*
X0039000Y0112841D01*
X0039000Y0113839D02*
X0011000Y0113839D01*
X0011000Y0114838D02*
X0039000Y0114838D01*
X0039000Y0115836D02*
X0011000Y0115836D01*
X0011000Y0116835D02*
X0031456Y0116835D01*
X0031285Y0116890D02*
X0031954Y0116673D01*
X0032516Y0116584D01*
X0032516Y0123516D01*
X0033484Y0123516D01*
X0033484Y0116584D01*
X0034046Y0116673D01*
X0034715Y0116890D01*
X0035342Y0117210D01*
X0035911Y0117623D01*
X0036408Y0118120D01*
X0036822Y0118689D01*
X0037141Y0119316D01*
X0037358Y0119985D01*
X0037468Y0120680D01*
X0037468Y0123516D01*
X0033484Y0123516D01*
X0033484Y0124484D01*
X0037468Y0124484D01*
X0037468Y0127320D01*
X0037358Y0128015D01*
X0037141Y0128684D01*
X0036822Y0129311D01*
X0036408Y0129880D01*
X0035911Y0130377D01*
X0035342Y0130790D01*
X0034715Y0131110D01*
X0034046Y0131327D01*
X0033484Y0131416D01*
X0033484Y0124484D01*
X0032516Y0124484D01*
X0032516Y0123516D01*
X0028531Y0123516D01*
X0028531Y0120680D01*
X0028642Y0119985D01*
X0028859Y0119316D01*
X0029178Y0118689D01*
X0029592Y0118120D01*
X0030089Y0117623D01*
X0030658Y0117210D01*
X0031285Y0116890D01*
X0032516Y0116835D02*
X0033484Y0116835D01*
X0033484Y0117833D02*
X0032516Y0117833D01*
X0032516Y0118832D02*
X0033484Y0118832D01*
X0033484Y0119830D02*
X0032516Y0119830D01*
X0032516Y0120829D02*
X0033484Y0120829D01*
X0033484Y0121827D02*
X0032516Y0121827D01*
X0032516Y0122826D02*
X0033484Y0122826D01*
X0033484Y0123824D02*
X0039000Y0123824D01*
X0039000Y0122826D02*
X0037468Y0122826D01*
X0037468Y0121827D02*
X0039000Y0121827D01*
X0039000Y0120829D02*
X0037468Y0120829D01*
X0037308Y0119830D02*
X0039000Y0119830D01*
X0039000Y0118832D02*
X0036894Y0118832D01*
X0036121Y0117833D02*
X0039000Y0117833D01*
X0039000Y0116835D02*
X0034544Y0116835D01*
X0032516Y0123824D02*
X0027168Y0123824D01*
X0027168Y0122826D02*
X0028531Y0122826D01*
X0028531Y0121827D02*
X0027168Y0121827D01*
X0027168Y0120829D02*
X0028531Y0120829D01*
X0028692Y0119830D02*
X0027014Y0119830D01*
X0027168Y0120202D02*
X0027168Y0127798D01*
X0026534Y0129330D01*
X0025361Y0130502D01*
X0023829Y0131137D01*
X0022171Y0131137D01*
X0020639Y0130502D01*
X0019466Y0129330D01*
X0018831Y0127798D01*
X0018831Y0120202D01*
X0019466Y0118670D01*
X0020639Y0117498D01*
X0022171Y0116863D01*
X0023829Y0116863D01*
X0025361Y0117498D01*
X0026534Y0118670D01*
X0027168Y0120202D01*
X0026601Y0118832D02*
X0029106Y0118832D01*
X0029879Y0117833D02*
X0025697Y0117833D01*
X0027168Y0124823D02*
X0028531Y0124823D01*
X0028531Y0124484D02*
X0032516Y0124484D01*
X0032516Y0131416D01*
X0031954Y0131327D01*
X0031285Y0131110D01*
X0030658Y0130790D01*
X0030089Y0130377D01*
X0029592Y0129880D01*
X0029178Y0129311D01*
X0028859Y0128684D01*
X0028642Y0128015D01*
X0028531Y0127320D01*
X0028531Y0124484D01*
X0028531Y0125821D02*
X0027168Y0125821D01*
X0027168Y0126820D02*
X0028531Y0126820D01*
X0028610Y0127818D02*
X0027160Y0127818D01*
X0026746Y0128817D02*
X0028927Y0128817D01*
X0029545Y0129815D02*
X0026048Y0129815D01*
X0024609Y0130814D02*
X0030704Y0130814D01*
X0032516Y0130814D02*
X0033484Y0130814D01*
X0033484Y0129815D02*
X0032516Y0129815D01*
X0032516Y0128817D02*
X0033484Y0128817D01*
X0033484Y0127818D02*
X0032516Y0127818D01*
X0032516Y0126820D02*
X0033484Y0126820D01*
X0033484Y0125821D02*
X0032516Y0125821D01*
X0032516Y0124823D02*
X0033484Y0124823D01*
X0036455Y0129815D02*
X0039000Y0129815D01*
X0039000Y0128817D02*
X0037073Y0128817D01*
X0037390Y0127818D02*
X0039000Y0127818D01*
X0039000Y0126820D02*
X0037468Y0126820D01*
X0037468Y0125821D02*
X0039000Y0125821D01*
X0039000Y0124823D02*
X0037468Y0124823D01*
X0039000Y0130814D02*
X0035296Y0130814D01*
X0039000Y0131812D02*
X0011000Y0131812D01*
X0011000Y0130814D02*
X0021391Y0130814D01*
X0019952Y0129815D02*
X0011000Y0129815D01*
X0011000Y0128817D02*
X0019254Y0128817D01*
X0018840Y0127818D02*
X0011000Y0127818D01*
X0011000Y0126820D02*
X0018831Y0126820D01*
X0018831Y0125821D02*
X0011000Y0125821D01*
X0011000Y0124823D02*
X0018831Y0124823D01*
X0018831Y0123824D02*
X0011000Y0123824D01*
X0011000Y0122826D02*
X0018831Y0122826D01*
X0018831Y0121827D02*
X0011000Y0121827D01*
X0011000Y0120829D02*
X0018831Y0120829D01*
X0018986Y0119830D02*
X0011000Y0119830D01*
X0011000Y0118832D02*
X0019399Y0118832D01*
X0020303Y0117833D02*
X0011000Y0117833D01*
X0011000Y0132811D02*
X0039000Y0132811D01*
X0039000Y0133809D02*
X0011000Y0133809D01*
X0011000Y0134808D02*
X0039000Y0134808D01*
X0039000Y0135806D02*
X0011000Y0135806D01*
X0011000Y0136805D02*
X0039000Y0136805D01*
X0039000Y0137803D02*
X0011000Y0137803D01*
X0011000Y0138802D02*
X0039000Y0138802D01*
X0039000Y0139801D02*
X0011000Y0139801D01*
X0011000Y0140799D02*
X0039000Y0140799D01*
X0039000Y0141798D02*
X0011000Y0141798D01*
X0011000Y0142796D02*
X0039000Y0142796D01*
X0039000Y0143795D02*
X0011000Y0143795D01*
X0025500Y0039949D02*
X0026500Y0039949D01*
X0026500Y0038951D02*
X0025500Y0038951D01*
X0025500Y0037952D02*
X0026500Y0037952D01*
X0026500Y0036954D02*
X0025500Y0036954D01*
X0025500Y0035955D02*
X0026500Y0035955D01*
X0026500Y0034957D02*
X0025500Y0034957D01*
X0025500Y0033958D02*
X0026500Y0033958D01*
X0026500Y0032960D02*
X0025500Y0032960D01*
X0025500Y0031961D02*
X0026500Y0031961D01*
X0026500Y0030963D02*
X0025500Y0030963D01*
X0025500Y0029964D02*
X0026500Y0029964D01*
X0026500Y0028966D02*
X0025500Y0028966D01*
X0025500Y0027967D02*
X0026500Y0027967D01*
X0031840Y0038951D02*
X0039000Y0038951D01*
X0039000Y0039949D02*
X0028658Y0039949D01*
X0033671Y0037952D02*
X0039000Y0037952D01*
X0039000Y0036954D02*
X0035036Y0036954D01*
X0036126Y0035955D02*
X0039000Y0035955D01*
X0039000Y0034957D02*
X0037019Y0034957D01*
X0037761Y0033958D02*
X0039000Y0033958D01*
X0039000Y0032960D02*
X0038381Y0032960D01*
X0038901Y0031961D02*
X0039000Y0031961D01*
X0038876Y0019979D02*
X0039000Y0019979D01*
X0039000Y0018981D02*
X0038349Y0018981D01*
X0037721Y0017982D02*
X0039000Y0017982D01*
X0039000Y0016984D02*
X0036970Y0016984D01*
X0036067Y0015985D02*
X0039000Y0015985D01*
X0039000Y0014987D02*
X0034964Y0014987D01*
X0033582Y0013988D02*
X0039000Y0013988D01*
X0039000Y0012990D02*
X0031696Y0012990D01*
M02*
