G75*
%MOIN*%
%OFA0B0*%
%FSLAX25Y25*%
%IPPOS*%
%LPD*%
%AMOC8*
5,1,8,0,0,1.08239X$1,22.5*
%
%ADD10C,0.00400*%
%ADD11C,0.00600*%
%ADD12C,0.00500*%
%ADD13C,0.01000*%
%ADD14R,0.00984X0.00984*%
%ADD15C,0.00800*%
D10*
X0014360Y0047300D02*
X0015695Y0047300D01*
X0016570Y0047300D02*
X0016570Y0049302D01*
X0017905Y0049302D01*
X0018780Y0049302D02*
X0018780Y0047300D01*
X0019781Y0047300D01*
X0020115Y0047634D01*
X0020115Y0048968D01*
X0019781Y0049302D01*
X0018780Y0049302D01*
X0017238Y0048301D02*
X0016570Y0048301D01*
X0016570Y0047300D02*
X0017905Y0047300D01*
X0020990Y0047300D02*
X0022325Y0047300D01*
X0021657Y0047300D02*
X0021657Y0049302D01*
X0020990Y0048634D01*
X0014360Y0049302D02*
X0014360Y0047300D01*
X0016700Y0061700D02*
X0016700Y0063702D01*
X0017701Y0063702D01*
X0018034Y0063368D01*
X0018034Y0062701D01*
X0017701Y0062367D01*
X0016700Y0062367D01*
X0017367Y0062367D02*
X0018034Y0061700D01*
X0018910Y0062701D02*
X0020244Y0062701D01*
X0019911Y0061700D02*
X0019911Y0063702D01*
X0018910Y0062701D01*
X0035700Y0061702D02*
X0035700Y0059700D01*
X0036701Y0059700D01*
X0037034Y0060034D01*
X0037034Y0061368D01*
X0036701Y0061702D01*
X0035700Y0061702D01*
X0037910Y0060701D02*
X0039244Y0060701D01*
X0038911Y0061702D02*
X0037910Y0060701D01*
X0038911Y0059700D02*
X0038911Y0061702D01*
X0033201Y0108200D02*
X0032534Y0108200D01*
X0032200Y0108534D01*
X0032534Y0109201D02*
X0033201Y0109201D01*
X0033534Y0108867D01*
X0033534Y0108534D01*
X0033201Y0108200D01*
X0032534Y0109201D02*
X0032200Y0109534D01*
X0032200Y0109868D01*
X0032534Y0110202D01*
X0033201Y0110202D01*
X0033534Y0109868D01*
X0023534Y0109868D02*
X0023201Y0110202D01*
X0022534Y0110202D01*
X0022200Y0109868D01*
X0022200Y0108534D01*
X0022534Y0108200D01*
X0023201Y0108200D01*
X0023534Y0108534D01*
X0023534Y0109201D01*
X0022867Y0109201D01*
X0014244Y0127700D02*
X0012910Y0127700D01*
X0013577Y0127700D02*
X0013577Y0129702D01*
X0012910Y0129034D01*
X0012034Y0128701D02*
X0011701Y0128367D01*
X0010700Y0128367D01*
X0010700Y0127700D02*
X0010700Y0129702D01*
X0011701Y0129702D01*
X0012034Y0129368D01*
X0012034Y0128701D01*
X0011367Y0128367D02*
X0012034Y0127700D01*
X0013700Y0133700D02*
X0015034Y0135702D01*
X0015910Y0135034D02*
X0016577Y0135702D01*
X0016577Y0133700D01*
X0015910Y0133700D02*
X0017244Y0133700D01*
X0015034Y0133700D02*
X0013700Y0135702D01*
X0013673Y0138200D02*
X0015008Y0140202D01*
X0015883Y0140202D02*
X0017218Y0140202D01*
X0018093Y0140202D02*
X0019427Y0138200D01*
X0019427Y0140202D01*
X0020303Y0139201D02*
X0021637Y0139201D01*
X0022513Y0139868D02*
X0022513Y0138534D01*
X0022846Y0138200D01*
X0023514Y0138200D01*
X0023847Y0138534D01*
X0024723Y0138534D02*
X0024723Y0139868D01*
X0025056Y0140202D01*
X0025723Y0140202D01*
X0026057Y0139868D01*
X0026057Y0138534D01*
X0025723Y0138200D01*
X0025056Y0138200D01*
X0024723Y0138534D01*
X0023847Y0139868D02*
X0023514Y0140202D01*
X0022846Y0140202D01*
X0022513Y0139868D01*
X0022040Y0141800D02*
X0021373Y0141800D01*
X0021040Y0142134D01*
X0022374Y0143468D01*
X0022374Y0142134D01*
X0022040Y0141800D01*
X0021040Y0142134D02*
X0021040Y0143468D01*
X0021373Y0143802D01*
X0022040Y0143802D01*
X0022374Y0143468D01*
X0023249Y0143134D02*
X0023917Y0143802D01*
X0023917Y0141800D01*
X0024584Y0141800D02*
X0023249Y0141800D01*
X0025459Y0142134D02*
X0025793Y0141800D01*
X0026460Y0141800D01*
X0026794Y0142134D01*
X0026794Y0143468D01*
X0026460Y0143802D01*
X0025793Y0143802D01*
X0025459Y0143468D01*
X0025459Y0143134D01*
X0025793Y0142801D01*
X0026794Y0142801D01*
X0026933Y0140202D02*
X0028267Y0138200D01*
X0028267Y0140202D01*
X0029142Y0140202D02*
X0030477Y0138200D01*
X0030477Y0140202D01*
X0029142Y0140202D02*
X0029142Y0138200D01*
X0026933Y0138200D02*
X0026933Y0140202D01*
X0020164Y0142134D02*
X0019830Y0141800D01*
X0019163Y0141800D01*
X0018830Y0142134D01*
X0020164Y0143468D01*
X0020164Y0142134D01*
X0020164Y0143468D02*
X0019830Y0143802D01*
X0019163Y0143802D01*
X0018830Y0143468D01*
X0018830Y0142134D01*
X0017954Y0141800D02*
X0017954Y0143802D01*
X0017287Y0143134D01*
X0016620Y0143802D01*
X0016620Y0141800D01*
X0015744Y0142134D02*
X0015411Y0141800D01*
X0014743Y0141800D01*
X0014410Y0142134D01*
X0014410Y0143468D01*
X0014743Y0143802D01*
X0015411Y0143802D01*
X0015744Y0143468D01*
X0015883Y0140202D02*
X0015883Y0138200D01*
X0015008Y0138200D02*
X0013673Y0140202D01*
X0012867Y0140202D02*
X0012200Y0140202D01*
X0012534Y0140202D02*
X0012534Y0138200D01*
X0012867Y0138200D02*
X0012200Y0138200D01*
X0012534Y0141800D02*
X0013201Y0141800D01*
X0013534Y0142134D01*
X0012534Y0141800D02*
X0012200Y0142134D01*
X0012200Y0143468D01*
X0012534Y0143802D01*
X0013201Y0143802D01*
X0013534Y0143468D01*
X0015883Y0139201D02*
X0016550Y0139201D01*
X0018093Y0138200D02*
X0018093Y0140202D01*
D11*
X0008000Y0085000D02*
X0008005Y0085442D01*
X0008022Y0085883D01*
X0008049Y0086324D01*
X0008087Y0086764D01*
X0008135Y0087203D01*
X0008195Y0087641D01*
X0008265Y0088077D01*
X0008346Y0088512D01*
X0008437Y0088944D01*
X0008539Y0089374D01*
X0008652Y0089801D01*
X0008775Y0090225D01*
X0008908Y0090646D01*
X0009052Y0091064D01*
X0009206Y0091478D01*
X0009370Y0091888D01*
X0009544Y0092294D01*
X0009728Y0092696D01*
X0009922Y0093093D01*
X0010125Y0093485D01*
X0010338Y0093872D01*
X0010561Y0094254D01*
X0010793Y0094630D01*
X0011034Y0095000D01*
X0011283Y0095365D01*
X0011542Y0095723D01*
X0011810Y0096074D01*
X0012086Y0096419D01*
X0012370Y0096757D01*
X0012663Y0097088D01*
X0012964Y0097412D01*
X0013272Y0097728D01*
X0013588Y0098036D01*
X0013912Y0098337D01*
X0014243Y0098630D01*
X0014581Y0098914D01*
X0014926Y0099190D01*
X0015277Y0099458D01*
X0015635Y0099717D01*
X0016000Y0099966D01*
X0016370Y0100207D01*
X0016746Y0100439D01*
X0017128Y0100662D01*
X0017515Y0100875D01*
X0017907Y0101078D01*
X0018304Y0101272D01*
X0018706Y0101456D01*
X0019112Y0101630D01*
X0019522Y0101794D01*
X0019936Y0101948D01*
X0020354Y0102092D01*
X0020775Y0102225D01*
X0021199Y0102348D01*
X0021626Y0102461D01*
X0022056Y0102563D01*
X0022488Y0102654D01*
X0022923Y0102735D01*
X0023359Y0102805D01*
X0023797Y0102865D01*
X0024236Y0102913D01*
X0024676Y0102951D01*
X0025117Y0102978D01*
X0025558Y0102995D01*
X0026000Y0103000D01*
X0026442Y0102995D01*
X0026883Y0102978D01*
X0027324Y0102951D01*
X0027764Y0102913D01*
X0028203Y0102865D01*
X0028641Y0102805D01*
X0029077Y0102735D01*
X0029512Y0102654D01*
X0029944Y0102563D01*
X0030374Y0102461D01*
X0030801Y0102348D01*
X0031225Y0102225D01*
X0031646Y0102092D01*
X0032064Y0101948D01*
X0032478Y0101794D01*
X0032888Y0101630D01*
X0033294Y0101456D01*
X0033696Y0101272D01*
X0034093Y0101078D01*
X0034485Y0100875D01*
X0034872Y0100662D01*
X0035254Y0100439D01*
X0035630Y0100207D01*
X0036000Y0099966D01*
X0036365Y0099717D01*
X0036723Y0099458D01*
X0037074Y0099190D01*
X0037419Y0098914D01*
X0037757Y0098630D01*
X0038088Y0098337D01*
X0038412Y0098036D01*
X0038728Y0097728D01*
X0039036Y0097412D01*
X0039337Y0097088D01*
X0039630Y0096757D01*
X0039914Y0096419D01*
X0040190Y0096074D01*
X0040458Y0095723D01*
X0040717Y0095365D01*
X0040966Y0095000D01*
X0041207Y0094630D01*
X0041439Y0094254D01*
X0041662Y0093872D01*
X0041875Y0093485D01*
X0042078Y0093093D01*
X0042272Y0092696D01*
X0042456Y0092294D01*
X0042630Y0091888D01*
X0042794Y0091478D01*
X0042948Y0091064D01*
X0043092Y0090646D01*
X0043225Y0090225D01*
X0043348Y0089801D01*
X0043461Y0089374D01*
X0043563Y0088944D01*
X0043654Y0088512D01*
X0043735Y0088077D01*
X0043805Y0087641D01*
X0043865Y0087203D01*
X0043913Y0086764D01*
X0043951Y0086324D01*
X0043978Y0085883D01*
X0043995Y0085442D01*
X0044000Y0085000D01*
X0043995Y0084558D01*
X0043978Y0084117D01*
X0043951Y0083676D01*
X0043913Y0083236D01*
X0043865Y0082797D01*
X0043805Y0082359D01*
X0043735Y0081923D01*
X0043654Y0081488D01*
X0043563Y0081056D01*
X0043461Y0080626D01*
X0043348Y0080199D01*
X0043225Y0079775D01*
X0043092Y0079354D01*
X0042948Y0078936D01*
X0042794Y0078522D01*
X0042630Y0078112D01*
X0042456Y0077706D01*
X0042272Y0077304D01*
X0042078Y0076907D01*
X0041875Y0076515D01*
X0041662Y0076128D01*
X0041439Y0075746D01*
X0041207Y0075370D01*
X0040966Y0075000D01*
X0040717Y0074635D01*
X0040458Y0074277D01*
X0040190Y0073926D01*
X0039914Y0073581D01*
X0039630Y0073243D01*
X0039337Y0072912D01*
X0039036Y0072588D01*
X0038728Y0072272D01*
X0038412Y0071964D01*
X0038088Y0071663D01*
X0037757Y0071370D01*
X0037419Y0071086D01*
X0037074Y0070810D01*
X0036723Y0070542D01*
X0036365Y0070283D01*
X0036000Y0070034D01*
X0035630Y0069793D01*
X0035254Y0069561D01*
X0034872Y0069338D01*
X0034485Y0069125D01*
X0034093Y0068922D01*
X0033696Y0068728D01*
X0033294Y0068544D01*
X0032888Y0068370D01*
X0032478Y0068206D01*
X0032064Y0068052D01*
X0031646Y0067908D01*
X0031225Y0067775D01*
X0030801Y0067652D01*
X0030374Y0067539D01*
X0029944Y0067437D01*
X0029512Y0067346D01*
X0029077Y0067265D01*
X0028641Y0067195D01*
X0028203Y0067135D01*
X0027764Y0067087D01*
X0027324Y0067049D01*
X0026883Y0067022D01*
X0026442Y0067005D01*
X0026000Y0067000D01*
X0025558Y0067005D01*
X0025117Y0067022D01*
X0024676Y0067049D01*
X0024236Y0067087D01*
X0023797Y0067135D01*
X0023359Y0067195D01*
X0022923Y0067265D01*
X0022488Y0067346D01*
X0022056Y0067437D01*
X0021626Y0067539D01*
X0021199Y0067652D01*
X0020775Y0067775D01*
X0020354Y0067908D01*
X0019936Y0068052D01*
X0019522Y0068206D01*
X0019112Y0068370D01*
X0018706Y0068544D01*
X0018304Y0068728D01*
X0017907Y0068922D01*
X0017515Y0069125D01*
X0017128Y0069338D01*
X0016746Y0069561D01*
X0016370Y0069793D01*
X0016000Y0070034D01*
X0015635Y0070283D01*
X0015277Y0070542D01*
X0014926Y0070810D01*
X0014581Y0071086D01*
X0014243Y0071370D01*
X0013912Y0071663D01*
X0013588Y0071964D01*
X0013272Y0072272D01*
X0012964Y0072588D01*
X0012663Y0072912D01*
X0012370Y0073243D01*
X0012086Y0073581D01*
X0011810Y0073926D01*
X0011542Y0074277D01*
X0011283Y0074635D01*
X0011034Y0075000D01*
X0010793Y0075370D01*
X0010561Y0075746D01*
X0010338Y0076128D01*
X0010125Y0076515D01*
X0009922Y0076907D01*
X0009728Y0077304D01*
X0009544Y0077706D01*
X0009370Y0078112D01*
X0009206Y0078522D01*
X0009052Y0078936D01*
X0008908Y0079354D01*
X0008775Y0079775D01*
X0008652Y0080199D01*
X0008539Y0080626D01*
X0008437Y0081056D01*
X0008346Y0081488D01*
X0008265Y0081923D01*
X0008195Y0082359D01*
X0008135Y0082797D01*
X0008087Y0083236D01*
X0008049Y0083676D01*
X0008022Y0084117D01*
X0008005Y0084558D01*
X0008000Y0085000D01*
X0026400Y0057600D02*
X0026400Y0054400D01*
X0026400Y0057600D02*
X0028600Y0057600D01*
X0035400Y0057600D02*
X0037600Y0057600D01*
X0037600Y0054400D01*
X0008000Y0026000D02*
X0008005Y0026442D01*
X0008022Y0026883D01*
X0008049Y0027324D01*
X0008087Y0027764D01*
X0008135Y0028203D01*
X0008195Y0028641D01*
X0008265Y0029077D01*
X0008346Y0029512D01*
X0008437Y0029944D01*
X0008539Y0030374D01*
X0008652Y0030801D01*
X0008775Y0031225D01*
X0008908Y0031646D01*
X0009052Y0032064D01*
X0009206Y0032478D01*
X0009370Y0032888D01*
X0009544Y0033294D01*
X0009728Y0033696D01*
X0009922Y0034093D01*
X0010125Y0034485D01*
X0010338Y0034872D01*
X0010561Y0035254D01*
X0010793Y0035630D01*
X0011034Y0036000D01*
X0011283Y0036365D01*
X0011542Y0036723D01*
X0011810Y0037074D01*
X0012086Y0037419D01*
X0012370Y0037757D01*
X0012663Y0038088D01*
X0012964Y0038412D01*
X0013272Y0038728D01*
X0013588Y0039036D01*
X0013912Y0039337D01*
X0014243Y0039630D01*
X0014581Y0039914D01*
X0014926Y0040190D01*
X0015277Y0040458D01*
X0015635Y0040717D01*
X0016000Y0040966D01*
X0016370Y0041207D01*
X0016746Y0041439D01*
X0017128Y0041662D01*
X0017515Y0041875D01*
X0017907Y0042078D01*
X0018304Y0042272D01*
X0018706Y0042456D01*
X0019112Y0042630D01*
X0019522Y0042794D01*
X0019936Y0042948D01*
X0020354Y0043092D01*
X0020775Y0043225D01*
X0021199Y0043348D01*
X0021626Y0043461D01*
X0022056Y0043563D01*
X0022488Y0043654D01*
X0022923Y0043735D01*
X0023359Y0043805D01*
X0023797Y0043865D01*
X0024236Y0043913D01*
X0024676Y0043951D01*
X0025117Y0043978D01*
X0025558Y0043995D01*
X0026000Y0044000D01*
X0026442Y0043995D01*
X0026883Y0043978D01*
X0027324Y0043951D01*
X0027764Y0043913D01*
X0028203Y0043865D01*
X0028641Y0043805D01*
X0029077Y0043735D01*
X0029512Y0043654D01*
X0029944Y0043563D01*
X0030374Y0043461D01*
X0030801Y0043348D01*
X0031225Y0043225D01*
X0031646Y0043092D01*
X0032064Y0042948D01*
X0032478Y0042794D01*
X0032888Y0042630D01*
X0033294Y0042456D01*
X0033696Y0042272D01*
X0034093Y0042078D01*
X0034485Y0041875D01*
X0034872Y0041662D01*
X0035254Y0041439D01*
X0035630Y0041207D01*
X0036000Y0040966D01*
X0036365Y0040717D01*
X0036723Y0040458D01*
X0037074Y0040190D01*
X0037419Y0039914D01*
X0037757Y0039630D01*
X0038088Y0039337D01*
X0038412Y0039036D01*
X0038728Y0038728D01*
X0039036Y0038412D01*
X0039337Y0038088D01*
X0039630Y0037757D01*
X0039914Y0037419D01*
X0040190Y0037074D01*
X0040458Y0036723D01*
X0040717Y0036365D01*
X0040966Y0036000D01*
X0041207Y0035630D01*
X0041439Y0035254D01*
X0041662Y0034872D01*
X0041875Y0034485D01*
X0042078Y0034093D01*
X0042272Y0033696D01*
X0042456Y0033294D01*
X0042630Y0032888D01*
X0042794Y0032478D01*
X0042948Y0032064D01*
X0043092Y0031646D01*
X0043225Y0031225D01*
X0043348Y0030801D01*
X0043461Y0030374D01*
X0043563Y0029944D01*
X0043654Y0029512D01*
X0043735Y0029077D01*
X0043805Y0028641D01*
X0043865Y0028203D01*
X0043913Y0027764D01*
X0043951Y0027324D01*
X0043978Y0026883D01*
X0043995Y0026442D01*
X0044000Y0026000D01*
X0043995Y0025558D01*
X0043978Y0025117D01*
X0043951Y0024676D01*
X0043913Y0024236D01*
X0043865Y0023797D01*
X0043805Y0023359D01*
X0043735Y0022923D01*
X0043654Y0022488D01*
X0043563Y0022056D01*
X0043461Y0021626D01*
X0043348Y0021199D01*
X0043225Y0020775D01*
X0043092Y0020354D01*
X0042948Y0019936D01*
X0042794Y0019522D01*
X0042630Y0019112D01*
X0042456Y0018706D01*
X0042272Y0018304D01*
X0042078Y0017907D01*
X0041875Y0017515D01*
X0041662Y0017128D01*
X0041439Y0016746D01*
X0041207Y0016370D01*
X0040966Y0016000D01*
X0040717Y0015635D01*
X0040458Y0015277D01*
X0040190Y0014926D01*
X0039914Y0014581D01*
X0039630Y0014243D01*
X0039337Y0013912D01*
X0039036Y0013588D01*
X0038728Y0013272D01*
X0038412Y0012964D01*
X0038088Y0012663D01*
X0037757Y0012370D01*
X0037419Y0012086D01*
X0037074Y0011810D01*
X0036723Y0011542D01*
X0036365Y0011283D01*
X0036000Y0011034D01*
X0035630Y0010793D01*
X0035254Y0010561D01*
X0034872Y0010338D01*
X0034485Y0010125D01*
X0034093Y0009922D01*
X0033696Y0009728D01*
X0033294Y0009544D01*
X0032888Y0009370D01*
X0032478Y0009206D01*
X0032064Y0009052D01*
X0031646Y0008908D01*
X0031225Y0008775D01*
X0030801Y0008652D01*
X0030374Y0008539D01*
X0029944Y0008437D01*
X0029512Y0008346D01*
X0029077Y0008265D01*
X0028641Y0008195D01*
X0028203Y0008135D01*
X0027764Y0008087D01*
X0027324Y0008049D01*
X0026883Y0008022D01*
X0026442Y0008005D01*
X0026000Y0008000D01*
X0025558Y0008005D01*
X0025117Y0008022D01*
X0024676Y0008049D01*
X0024236Y0008087D01*
X0023797Y0008135D01*
X0023359Y0008195D01*
X0022923Y0008265D01*
X0022488Y0008346D01*
X0022056Y0008437D01*
X0021626Y0008539D01*
X0021199Y0008652D01*
X0020775Y0008775D01*
X0020354Y0008908D01*
X0019936Y0009052D01*
X0019522Y0009206D01*
X0019112Y0009370D01*
X0018706Y0009544D01*
X0018304Y0009728D01*
X0017907Y0009922D01*
X0017515Y0010125D01*
X0017128Y0010338D01*
X0016746Y0010561D01*
X0016370Y0010793D01*
X0016000Y0011034D01*
X0015635Y0011283D01*
X0015277Y0011542D01*
X0014926Y0011810D01*
X0014581Y0012086D01*
X0014243Y0012370D01*
X0013912Y0012663D01*
X0013588Y0012964D01*
X0013272Y0013272D01*
X0012964Y0013588D01*
X0012663Y0013912D01*
X0012370Y0014243D01*
X0012086Y0014581D01*
X0011810Y0014926D01*
X0011542Y0015277D01*
X0011283Y0015635D01*
X0011034Y0016000D01*
X0010793Y0016370D01*
X0010561Y0016746D01*
X0010338Y0017128D01*
X0010125Y0017515D01*
X0009922Y0017907D01*
X0009728Y0018304D01*
X0009544Y0018706D01*
X0009370Y0019112D01*
X0009206Y0019522D01*
X0009052Y0019936D01*
X0008908Y0020354D01*
X0008775Y0020775D01*
X0008652Y0021199D01*
X0008539Y0021626D01*
X0008437Y0022056D01*
X0008346Y0022488D01*
X0008265Y0022923D01*
X0008195Y0023359D01*
X0008135Y0023797D01*
X0008087Y0024236D01*
X0008049Y0024676D01*
X0008022Y0025117D01*
X0008005Y0025558D01*
X0008000Y0026000D01*
D12*
X0013500Y0055000D02*
X0024500Y0055000D01*
X0024500Y0061000D01*
X0013500Y0061000D01*
X0013500Y0055000D01*
X0016000Y0115500D02*
X0010000Y0115500D01*
X0010000Y0126500D01*
X0016000Y0126500D01*
X0016000Y0115500D01*
D13*
X0018000Y0111500D02*
X0018000Y0129000D01*
X0038000Y0129000D01*
X0038000Y0111500D01*
X0018000Y0111500D01*
X0018000Y0129000D02*
X0018000Y0136500D01*
X0038000Y0136500D01*
X0038000Y0129000D01*
D14*
X0019492Y0052000D03*
D15*
X0017535Y0026000D02*
X0017538Y0026208D01*
X0017545Y0026415D01*
X0017558Y0026623D01*
X0017576Y0026830D01*
X0017599Y0027036D01*
X0017627Y0027242D01*
X0017660Y0027447D01*
X0017698Y0027651D01*
X0017741Y0027855D01*
X0017789Y0028057D01*
X0017842Y0028258D01*
X0017900Y0028457D01*
X0017962Y0028655D01*
X0018030Y0028852D01*
X0018102Y0029047D01*
X0018179Y0029239D01*
X0018261Y0029430D01*
X0018348Y0029619D01*
X0018439Y0029806D01*
X0018535Y0029990D01*
X0018635Y0030172D01*
X0018739Y0030352D01*
X0018848Y0030529D01*
X0018962Y0030703D01*
X0019079Y0030874D01*
X0019201Y0031043D01*
X0019327Y0031208D01*
X0019456Y0031370D01*
X0019590Y0031529D01*
X0019728Y0031685D01*
X0019869Y0031837D01*
X0020014Y0031986D01*
X0020163Y0032131D01*
X0020315Y0032272D01*
X0020471Y0032410D01*
X0020630Y0032544D01*
X0020792Y0032673D01*
X0020957Y0032799D01*
X0021126Y0032921D01*
X0021297Y0033038D01*
X0021471Y0033152D01*
X0021648Y0033261D01*
X0021828Y0033365D01*
X0022010Y0033465D01*
X0022194Y0033561D01*
X0022381Y0033652D01*
X0022570Y0033739D01*
X0022761Y0033821D01*
X0022953Y0033898D01*
X0023148Y0033970D01*
X0023345Y0034038D01*
X0023543Y0034100D01*
X0023742Y0034158D01*
X0023943Y0034211D01*
X0024145Y0034259D01*
X0024349Y0034302D01*
X0024553Y0034340D01*
X0024758Y0034373D01*
X0024964Y0034401D01*
X0025170Y0034424D01*
X0025377Y0034442D01*
X0025585Y0034455D01*
X0025792Y0034462D01*
X0026000Y0034465D01*
X0026208Y0034462D01*
X0026415Y0034455D01*
X0026623Y0034442D01*
X0026830Y0034424D01*
X0027036Y0034401D01*
X0027242Y0034373D01*
X0027447Y0034340D01*
X0027651Y0034302D01*
X0027855Y0034259D01*
X0028057Y0034211D01*
X0028258Y0034158D01*
X0028457Y0034100D01*
X0028655Y0034038D01*
X0028852Y0033970D01*
X0029047Y0033898D01*
X0029239Y0033821D01*
X0029430Y0033739D01*
X0029619Y0033652D01*
X0029806Y0033561D01*
X0029990Y0033465D01*
X0030172Y0033365D01*
X0030352Y0033261D01*
X0030529Y0033152D01*
X0030703Y0033038D01*
X0030874Y0032921D01*
X0031043Y0032799D01*
X0031208Y0032673D01*
X0031370Y0032544D01*
X0031529Y0032410D01*
X0031685Y0032272D01*
X0031837Y0032131D01*
X0031986Y0031986D01*
X0032131Y0031837D01*
X0032272Y0031685D01*
X0032410Y0031529D01*
X0032544Y0031370D01*
X0032673Y0031208D01*
X0032799Y0031043D01*
X0032921Y0030874D01*
X0033038Y0030703D01*
X0033152Y0030529D01*
X0033261Y0030352D01*
X0033365Y0030172D01*
X0033465Y0029990D01*
X0033561Y0029806D01*
X0033652Y0029619D01*
X0033739Y0029430D01*
X0033821Y0029239D01*
X0033898Y0029047D01*
X0033970Y0028852D01*
X0034038Y0028655D01*
X0034100Y0028457D01*
X0034158Y0028258D01*
X0034211Y0028057D01*
X0034259Y0027855D01*
X0034302Y0027651D01*
X0034340Y0027447D01*
X0034373Y0027242D01*
X0034401Y0027036D01*
X0034424Y0026830D01*
X0034442Y0026623D01*
X0034455Y0026415D01*
X0034462Y0026208D01*
X0034465Y0026000D01*
X0034462Y0025792D01*
X0034455Y0025585D01*
X0034442Y0025377D01*
X0034424Y0025170D01*
X0034401Y0024964D01*
X0034373Y0024758D01*
X0034340Y0024553D01*
X0034302Y0024349D01*
X0034259Y0024145D01*
X0034211Y0023943D01*
X0034158Y0023742D01*
X0034100Y0023543D01*
X0034038Y0023345D01*
X0033970Y0023148D01*
X0033898Y0022953D01*
X0033821Y0022761D01*
X0033739Y0022570D01*
X0033652Y0022381D01*
X0033561Y0022194D01*
X0033465Y0022010D01*
X0033365Y0021828D01*
X0033261Y0021648D01*
X0033152Y0021471D01*
X0033038Y0021297D01*
X0032921Y0021126D01*
X0032799Y0020957D01*
X0032673Y0020792D01*
X0032544Y0020630D01*
X0032410Y0020471D01*
X0032272Y0020315D01*
X0032131Y0020163D01*
X0031986Y0020014D01*
X0031837Y0019869D01*
X0031685Y0019728D01*
X0031529Y0019590D01*
X0031370Y0019456D01*
X0031208Y0019327D01*
X0031043Y0019201D01*
X0030874Y0019079D01*
X0030703Y0018962D01*
X0030529Y0018848D01*
X0030352Y0018739D01*
X0030172Y0018635D01*
X0029990Y0018535D01*
X0029806Y0018439D01*
X0029619Y0018348D01*
X0029430Y0018261D01*
X0029239Y0018179D01*
X0029047Y0018102D01*
X0028852Y0018030D01*
X0028655Y0017962D01*
X0028457Y0017900D01*
X0028258Y0017842D01*
X0028057Y0017789D01*
X0027855Y0017741D01*
X0027651Y0017698D01*
X0027447Y0017660D01*
X0027242Y0017627D01*
X0027036Y0017599D01*
X0026830Y0017576D01*
X0026623Y0017558D01*
X0026415Y0017545D01*
X0026208Y0017538D01*
X0026000Y0017535D01*
X0025792Y0017538D01*
X0025585Y0017545D01*
X0025377Y0017558D01*
X0025170Y0017576D01*
X0024964Y0017599D01*
X0024758Y0017627D01*
X0024553Y0017660D01*
X0024349Y0017698D01*
X0024145Y0017741D01*
X0023943Y0017789D01*
X0023742Y0017842D01*
X0023543Y0017900D01*
X0023345Y0017962D01*
X0023148Y0018030D01*
X0022953Y0018102D01*
X0022761Y0018179D01*
X0022570Y0018261D01*
X0022381Y0018348D01*
X0022194Y0018439D01*
X0022010Y0018535D01*
X0021828Y0018635D01*
X0021648Y0018739D01*
X0021471Y0018848D01*
X0021297Y0018962D01*
X0021126Y0019079D01*
X0020957Y0019201D01*
X0020792Y0019327D01*
X0020630Y0019456D01*
X0020471Y0019590D01*
X0020315Y0019728D01*
X0020163Y0019869D01*
X0020014Y0020014D01*
X0019869Y0020163D01*
X0019728Y0020315D01*
X0019590Y0020471D01*
X0019456Y0020630D01*
X0019327Y0020792D01*
X0019201Y0020957D01*
X0019079Y0021126D01*
X0018962Y0021297D01*
X0018848Y0021471D01*
X0018739Y0021648D01*
X0018635Y0021828D01*
X0018535Y0022010D01*
X0018439Y0022194D01*
X0018348Y0022381D01*
X0018261Y0022570D01*
X0018179Y0022761D01*
X0018102Y0022953D01*
X0018030Y0023148D01*
X0017962Y0023345D01*
X0017900Y0023543D01*
X0017842Y0023742D01*
X0017789Y0023943D01*
X0017741Y0024145D01*
X0017698Y0024349D01*
X0017660Y0024553D01*
X0017627Y0024758D01*
X0017599Y0024964D01*
X0017576Y0025170D01*
X0017558Y0025377D01*
X0017545Y0025585D01*
X0017538Y0025792D01*
X0017535Y0026000D01*
X0017535Y0085000D02*
X0017538Y0085208D01*
X0017545Y0085415D01*
X0017558Y0085623D01*
X0017576Y0085830D01*
X0017599Y0086036D01*
X0017627Y0086242D01*
X0017660Y0086447D01*
X0017698Y0086651D01*
X0017741Y0086855D01*
X0017789Y0087057D01*
X0017842Y0087258D01*
X0017900Y0087457D01*
X0017962Y0087655D01*
X0018030Y0087852D01*
X0018102Y0088047D01*
X0018179Y0088239D01*
X0018261Y0088430D01*
X0018348Y0088619D01*
X0018439Y0088806D01*
X0018535Y0088990D01*
X0018635Y0089172D01*
X0018739Y0089352D01*
X0018848Y0089529D01*
X0018962Y0089703D01*
X0019079Y0089874D01*
X0019201Y0090043D01*
X0019327Y0090208D01*
X0019456Y0090370D01*
X0019590Y0090529D01*
X0019728Y0090685D01*
X0019869Y0090837D01*
X0020014Y0090986D01*
X0020163Y0091131D01*
X0020315Y0091272D01*
X0020471Y0091410D01*
X0020630Y0091544D01*
X0020792Y0091673D01*
X0020957Y0091799D01*
X0021126Y0091921D01*
X0021297Y0092038D01*
X0021471Y0092152D01*
X0021648Y0092261D01*
X0021828Y0092365D01*
X0022010Y0092465D01*
X0022194Y0092561D01*
X0022381Y0092652D01*
X0022570Y0092739D01*
X0022761Y0092821D01*
X0022953Y0092898D01*
X0023148Y0092970D01*
X0023345Y0093038D01*
X0023543Y0093100D01*
X0023742Y0093158D01*
X0023943Y0093211D01*
X0024145Y0093259D01*
X0024349Y0093302D01*
X0024553Y0093340D01*
X0024758Y0093373D01*
X0024964Y0093401D01*
X0025170Y0093424D01*
X0025377Y0093442D01*
X0025585Y0093455D01*
X0025792Y0093462D01*
X0026000Y0093465D01*
X0026208Y0093462D01*
X0026415Y0093455D01*
X0026623Y0093442D01*
X0026830Y0093424D01*
X0027036Y0093401D01*
X0027242Y0093373D01*
X0027447Y0093340D01*
X0027651Y0093302D01*
X0027855Y0093259D01*
X0028057Y0093211D01*
X0028258Y0093158D01*
X0028457Y0093100D01*
X0028655Y0093038D01*
X0028852Y0092970D01*
X0029047Y0092898D01*
X0029239Y0092821D01*
X0029430Y0092739D01*
X0029619Y0092652D01*
X0029806Y0092561D01*
X0029990Y0092465D01*
X0030172Y0092365D01*
X0030352Y0092261D01*
X0030529Y0092152D01*
X0030703Y0092038D01*
X0030874Y0091921D01*
X0031043Y0091799D01*
X0031208Y0091673D01*
X0031370Y0091544D01*
X0031529Y0091410D01*
X0031685Y0091272D01*
X0031837Y0091131D01*
X0031986Y0090986D01*
X0032131Y0090837D01*
X0032272Y0090685D01*
X0032410Y0090529D01*
X0032544Y0090370D01*
X0032673Y0090208D01*
X0032799Y0090043D01*
X0032921Y0089874D01*
X0033038Y0089703D01*
X0033152Y0089529D01*
X0033261Y0089352D01*
X0033365Y0089172D01*
X0033465Y0088990D01*
X0033561Y0088806D01*
X0033652Y0088619D01*
X0033739Y0088430D01*
X0033821Y0088239D01*
X0033898Y0088047D01*
X0033970Y0087852D01*
X0034038Y0087655D01*
X0034100Y0087457D01*
X0034158Y0087258D01*
X0034211Y0087057D01*
X0034259Y0086855D01*
X0034302Y0086651D01*
X0034340Y0086447D01*
X0034373Y0086242D01*
X0034401Y0086036D01*
X0034424Y0085830D01*
X0034442Y0085623D01*
X0034455Y0085415D01*
X0034462Y0085208D01*
X0034465Y0085000D01*
X0034462Y0084792D01*
X0034455Y0084585D01*
X0034442Y0084377D01*
X0034424Y0084170D01*
X0034401Y0083964D01*
X0034373Y0083758D01*
X0034340Y0083553D01*
X0034302Y0083349D01*
X0034259Y0083145D01*
X0034211Y0082943D01*
X0034158Y0082742D01*
X0034100Y0082543D01*
X0034038Y0082345D01*
X0033970Y0082148D01*
X0033898Y0081953D01*
X0033821Y0081761D01*
X0033739Y0081570D01*
X0033652Y0081381D01*
X0033561Y0081194D01*
X0033465Y0081010D01*
X0033365Y0080828D01*
X0033261Y0080648D01*
X0033152Y0080471D01*
X0033038Y0080297D01*
X0032921Y0080126D01*
X0032799Y0079957D01*
X0032673Y0079792D01*
X0032544Y0079630D01*
X0032410Y0079471D01*
X0032272Y0079315D01*
X0032131Y0079163D01*
X0031986Y0079014D01*
X0031837Y0078869D01*
X0031685Y0078728D01*
X0031529Y0078590D01*
X0031370Y0078456D01*
X0031208Y0078327D01*
X0031043Y0078201D01*
X0030874Y0078079D01*
X0030703Y0077962D01*
X0030529Y0077848D01*
X0030352Y0077739D01*
X0030172Y0077635D01*
X0029990Y0077535D01*
X0029806Y0077439D01*
X0029619Y0077348D01*
X0029430Y0077261D01*
X0029239Y0077179D01*
X0029047Y0077102D01*
X0028852Y0077030D01*
X0028655Y0076962D01*
X0028457Y0076900D01*
X0028258Y0076842D01*
X0028057Y0076789D01*
X0027855Y0076741D01*
X0027651Y0076698D01*
X0027447Y0076660D01*
X0027242Y0076627D01*
X0027036Y0076599D01*
X0026830Y0076576D01*
X0026623Y0076558D01*
X0026415Y0076545D01*
X0026208Y0076538D01*
X0026000Y0076535D01*
X0025792Y0076538D01*
X0025585Y0076545D01*
X0025377Y0076558D01*
X0025170Y0076576D01*
X0024964Y0076599D01*
X0024758Y0076627D01*
X0024553Y0076660D01*
X0024349Y0076698D01*
X0024145Y0076741D01*
X0023943Y0076789D01*
X0023742Y0076842D01*
X0023543Y0076900D01*
X0023345Y0076962D01*
X0023148Y0077030D01*
X0022953Y0077102D01*
X0022761Y0077179D01*
X0022570Y0077261D01*
X0022381Y0077348D01*
X0022194Y0077439D01*
X0022010Y0077535D01*
X0021828Y0077635D01*
X0021648Y0077739D01*
X0021471Y0077848D01*
X0021297Y0077962D01*
X0021126Y0078079D01*
X0020957Y0078201D01*
X0020792Y0078327D01*
X0020630Y0078456D01*
X0020471Y0078590D01*
X0020315Y0078728D01*
X0020163Y0078869D01*
X0020014Y0079014D01*
X0019869Y0079163D01*
X0019728Y0079315D01*
X0019590Y0079471D01*
X0019456Y0079630D01*
X0019327Y0079792D01*
X0019201Y0079957D01*
X0019079Y0080126D01*
X0018962Y0080297D01*
X0018848Y0080471D01*
X0018739Y0080648D01*
X0018635Y0080828D01*
X0018535Y0081010D01*
X0018439Y0081194D01*
X0018348Y0081381D01*
X0018261Y0081570D01*
X0018179Y0081761D01*
X0018102Y0081953D01*
X0018030Y0082148D01*
X0017962Y0082345D01*
X0017900Y0082543D01*
X0017842Y0082742D01*
X0017789Y0082943D01*
X0017741Y0083145D01*
X0017698Y0083349D01*
X0017660Y0083553D01*
X0017627Y0083758D01*
X0017599Y0083964D01*
X0017576Y0084170D01*
X0017558Y0084377D01*
X0017545Y0084585D01*
X0017538Y0084792D01*
X0017535Y0085000D01*
M02*
