G75*
%MOIN*%
%OFA0B0*%
%FSLAX24Y24*%
%IPPOS*%
%LPD*%
%AMOC8*
5,1,8,0,0,1.08239X$1,22.5*
%
%ADD10R,0.0316X0.0946*%
%ADD11OC8,0.0720*%
%ADD12C,0.1261*%
%ADD13R,0.0710X0.0710*%
%ADD14C,0.0710*%
%ADD15C,0.0867*%
%ADD16C,0.0880*%
%ADD17C,0.1180*%
%ADD18R,0.0430X0.0380*%
%ADD19R,0.1143X0.0789*%
%ADD20C,0.0710*%
%ADD21C,0.0716*%
D10*
X007850Y006433D03*
X008350Y006433D03*
X008850Y006433D03*
X009350Y006433D03*
X009850Y006433D03*
X010350Y006433D03*
X010850Y006433D03*
X010850Y008481D03*
X010350Y008481D03*
X009850Y008481D03*
X009350Y008481D03*
X008850Y008481D03*
X008350Y008481D03*
X007850Y008481D03*
D11*
X009350Y004957D03*
X010350Y004957D03*
X011350Y004957D03*
X011350Y003957D03*
X010350Y003957D03*
X009350Y003957D03*
D12*
X002350Y007457D03*
X029100Y007457D03*
D13*
X012850Y008457D03*
D14*
X012850Y007457D03*
X012850Y006457D03*
D15*
X014850Y007457D03*
X025850Y007457D03*
D16*
X005600Y004707D03*
D17*
X004596Y003703D03*
X006604Y003703D03*
X006604Y005711D03*
X004596Y005711D03*
D18*
X007100Y007157D03*
X007100Y007757D03*
X012850Y009657D03*
X012850Y010257D03*
D19*
X005600Y008573D03*
X005600Y006841D03*
D20*
X006285Y009957D02*
X006915Y009957D01*
X006915Y010957D02*
X006285Y010957D01*
D21*
X010850Y009707D03*
X007100Y008457D03*
X005600Y007707D03*
X010350Y007457D03*
M02*
