%
M48
M72
T01C0.0236
T02C0.0394
T03C0.0400
T04C0.0500
T05C0.0700
T06C0.0787
T07C0.1181
%
T01
X10350Y7457
X7100Y8457
X5600Y7707
X10850Y9707
T02
X12850Y8457
X12850Y7457
X12850Y6457
X6600Y9957
X6600Y10957
T03
X9350Y4957
X10350Y4957
X11350Y4957
X11350Y3957
X10350Y3957
X9350Y3957
T04
X5600Y4707
T05
X4596Y3703
X6604Y3703
X6604Y5711
X4596Y5711
T06
X14850Y7457
X25850Y7457
T07
X29100Y7457
X2350Y7457
M30
