G75*
%MOIN*%
%OFA0B0*%
%FSLAX24Y24*%
%IPPOS*%
%LPD*%
%AMOC8*
5,1,8,0,0,1.08239X$1,22.5*
%
%ADD10R,0.0236X0.0866*%
%ADD11OC8,0.0640*%
%ADD12R,0.0630X0.0630*%
%ADD13C,0.0630*%
%ADD14C,0.0800*%
%ADD15C,0.1100*%
%ADD16R,0.0350X0.0300*%
%ADD17R,0.1063X0.0709*%
%ADD18C,0.0630*%
%ADD19C,0.0240*%
%ADD20C,0.0636*%
%ADD21C,0.0160*%
D10*
X007850Y006433D03*
X008350Y006433D03*
X008850Y006433D03*
X009350Y006433D03*
X009850Y006433D03*
X010350Y006433D03*
X010850Y006433D03*
X010850Y008481D03*
X010350Y008481D03*
X009850Y008481D03*
X009350Y008481D03*
X008850Y008481D03*
X008350Y008481D03*
X007850Y008481D03*
D11*
X009350Y004957D03*
X010350Y004957D03*
X011350Y004957D03*
X011350Y003957D03*
X010350Y003957D03*
X009350Y003957D03*
D12*
X012850Y008457D03*
D13*
X012850Y007457D03*
X012850Y006457D03*
D14*
X005600Y004707D03*
D15*
X004596Y005711D03*
X006604Y005711D03*
X006604Y003703D03*
X004596Y003703D03*
D16*
X007100Y007157D03*
X007100Y007757D03*
X012850Y009657D03*
X012850Y010257D03*
D17*
X005600Y008573D03*
X005600Y006841D03*
D18*
X006285Y009957D02*
X006915Y009957D01*
X006915Y010957D02*
X006285Y010957D01*
D19*
X005600Y008573D02*
X005600Y007707D01*
X007100Y007757D02*
X007100Y008457D01*
X007374Y008481D01*
X007850Y008481D01*
X005600Y006841D02*
X005600Y004707D01*
X007975Y004707D01*
X008350Y005082D01*
X008350Y006433D01*
X010850Y006433D02*
X011826Y006433D01*
X012850Y006457D01*
X012850Y008457D02*
X012850Y009657D01*
D20*
X010850Y009707D03*
X007100Y008457D03*
X005600Y007707D03*
X010350Y007457D03*
D21*
X007223Y003290D02*
X007140Y003207D01*
X013350Y003207D01*
X013350Y011707D01*
X004600Y011707D01*
X004600Y006441D01*
X004741Y006441D01*
X004943Y006357D01*
X004889Y006412D01*
X004889Y007270D01*
X004994Y007375D01*
X005227Y007375D01*
X005178Y007425D01*
X005102Y007608D01*
X005102Y007806D01*
X005178Y007989D01*
X005227Y008039D01*
X004994Y008039D01*
X004889Y008144D01*
X004889Y009002D01*
X004994Y009107D01*
X006206Y009107D01*
X006311Y009002D01*
X006311Y008144D01*
X006206Y008039D01*
X005973Y008039D01*
X006022Y007989D01*
X006098Y007806D01*
X006098Y007608D01*
X006022Y007425D01*
X005973Y007375D01*
X006206Y007375D01*
X006311Y007270D01*
X006311Y006412D01*
X006257Y006357D01*
X006459Y006441D01*
X006749Y006441D01*
X007017Y006330D01*
X007223Y006124D01*
X007334Y005856D01*
X007334Y005566D01*
X007223Y005297D01*
X007017Y005092D01*
X006812Y005007D01*
X007851Y005007D01*
X008050Y005206D01*
X008050Y005840D01*
X008038Y005833D01*
X007992Y005820D01*
X007850Y005820D01*
X007850Y006433D01*
X007850Y005820D01*
X007708Y005820D01*
X007662Y005833D01*
X007621Y005856D01*
X007588Y005890D01*
X007564Y005931D01*
X007552Y005977D01*
X007552Y006433D01*
X007850Y006433D01*
X007850Y006433D01*
X007850Y006433D01*
X007552Y006433D01*
X007552Y006890D01*
X007564Y006936D01*
X007588Y006977D01*
X007621Y007010D01*
X007662Y007034D01*
X007708Y007046D01*
X007850Y007046D01*
X007850Y006433D01*
X007850Y006433D01*
X007850Y007046D01*
X007992Y007046D01*
X008038Y007034D01*
X008079Y007010D01*
X008100Y006989D01*
X008157Y007046D01*
X008543Y007046D01*
X008600Y006989D01*
X008657Y007046D01*
X009043Y007046D01*
X009100Y006989D01*
X009157Y007046D01*
X009543Y007046D01*
X009600Y006989D01*
X009657Y007046D01*
X010043Y007046D01*
X010100Y006989D01*
X010123Y007012D01*
X010068Y007035D01*
X009928Y007175D01*
X009852Y007358D01*
X009852Y007556D01*
X009928Y007739D01*
X010068Y007879D01*
X010090Y007888D01*
X010090Y007915D01*
X010043Y007867D01*
X009657Y007867D01*
X009600Y007925D01*
X009543Y007867D01*
X009157Y007867D01*
X009100Y007925D01*
X009043Y007867D01*
X008657Y007867D01*
X008600Y007925D01*
X008543Y007867D01*
X008157Y007867D01*
X008100Y007925D01*
X008043Y007867D01*
X007657Y007867D01*
X007552Y007973D01*
X007552Y008181D01*
X007525Y008181D01*
X007522Y008175D01*
X007400Y008052D01*
X007400Y008036D01*
X007455Y007981D01*
X007455Y007532D01*
X007378Y007455D01*
X007386Y007451D01*
X007419Y007417D01*
X007443Y007376D01*
X007455Y007331D01*
X007455Y007157D01*
X007100Y007157D01*
X007100Y007157D01*
X007100Y007157D01*
X006745Y007157D01*
X006745Y007331D01*
X006757Y007376D01*
X006781Y007417D01*
X006814Y007451D01*
X006822Y007455D01*
X006745Y007532D01*
X006745Y007981D01*
X006800Y008036D01*
X006800Y008052D01*
X006678Y008175D01*
X006602Y008358D01*
X006602Y008556D01*
X006678Y008739D01*
X006818Y008879D01*
X007001Y008955D01*
X007199Y008955D01*
X007382Y008879D01*
X007481Y008781D01*
X007552Y008781D01*
X007552Y008988D01*
X007657Y009094D01*
X008043Y009094D01*
X008100Y009036D01*
X008157Y009094D01*
X008543Y009094D01*
X008600Y009036D01*
X008657Y009094D01*
X009043Y009094D01*
X009100Y009036D01*
X009157Y009094D01*
X009543Y009094D01*
X009600Y009036D01*
X009657Y009094D01*
X010043Y009094D01*
X010100Y009036D01*
X010157Y009094D01*
X010543Y009094D01*
X010590Y009046D01*
X010590Y009275D01*
X010568Y009285D01*
X010428Y009425D01*
X010352Y009608D01*
X010352Y009806D01*
X010428Y009989D01*
X010568Y010129D01*
X010751Y010205D01*
X010949Y010205D01*
X011132Y010129D01*
X011272Y009989D01*
X011348Y009806D01*
X011348Y009608D01*
X011272Y009425D01*
X011132Y009285D01*
X011110Y009275D01*
X011110Y009026D01*
X011148Y008988D01*
X011148Y007973D01*
X011043Y007867D01*
X010657Y007867D01*
X010610Y007915D01*
X010610Y007888D01*
X010632Y007879D01*
X010772Y007739D01*
X010848Y007556D01*
X010848Y007358D01*
X010772Y007175D01*
X010632Y007035D01*
X010577Y007012D01*
X010600Y006989D01*
X010657Y007046D01*
X011043Y007046D01*
X011148Y006941D01*
X011148Y006733D01*
X011823Y006733D01*
X012441Y006748D01*
X012570Y006877D01*
X012752Y006952D01*
X012948Y006952D01*
X013130Y006877D01*
X013270Y006737D01*
X013345Y006555D01*
X013345Y006358D01*
X013270Y006177D01*
X013130Y006037D01*
X012948Y005962D01*
X012752Y005962D01*
X012570Y006037D01*
X012459Y006148D01*
X011889Y006135D01*
X011886Y006133D01*
X011830Y006133D01*
X011774Y006132D01*
X011770Y006133D01*
X011148Y006133D01*
X011148Y005926D01*
X011110Y005888D01*
X011110Y005424D01*
X011143Y005457D01*
X011557Y005457D01*
X011850Y005164D01*
X011850Y004750D01*
X011557Y004457D01*
X011143Y004457D01*
X011110Y004490D01*
X011110Y004424D01*
X011143Y004457D01*
X011330Y004457D01*
X011330Y003977D01*
X011370Y003977D01*
X011370Y004457D01*
X011557Y004457D01*
X011850Y004164D01*
X011850Y003977D01*
X011370Y003977D01*
X011370Y003937D01*
X011850Y003937D01*
X011850Y003750D01*
X011557Y003457D01*
X011370Y003457D01*
X011370Y003937D01*
X011330Y003937D01*
X010850Y003937D01*
X010850Y003750D01*
X011143Y003457D01*
X011330Y003457D01*
X011330Y003937D01*
X011330Y003977D01*
X010850Y003977D01*
X010850Y004089D01*
X010850Y004089D01*
X010850Y003750D01*
X010557Y003457D01*
X010143Y003457D01*
X009850Y003750D01*
X009557Y003457D01*
X009143Y003457D01*
X008850Y003750D01*
X008850Y004164D01*
X009143Y004457D01*
X009557Y004457D01*
X009850Y004750D01*
X010143Y004457D01*
X010482Y004457D01*
X010143Y004457D01*
X009850Y004164D01*
X009557Y004457D01*
X009143Y004457D01*
X008850Y004750D01*
X008850Y005164D01*
X009090Y005404D01*
X009090Y005868D01*
X009043Y005820D01*
X008657Y005820D01*
X008650Y005828D01*
X008650Y005022D01*
X008604Y004912D01*
X008145Y004453D01*
X008035Y004407D01*
X006812Y004407D01*
X007017Y004322D01*
X007223Y004117D01*
X007334Y003848D01*
X007334Y003558D01*
X007223Y003290D01*
X007207Y003274D02*
X013350Y003274D01*
X013350Y003432D02*
X007282Y003432D01*
X007334Y003591D02*
X009009Y003591D01*
X008850Y003749D02*
X007334Y003749D01*
X007309Y003908D02*
X008850Y003908D01*
X008850Y004066D02*
X007244Y004066D01*
X007114Y004225D02*
X008911Y004225D01*
X009069Y004383D02*
X006869Y004383D01*
X006837Y005017D02*
X007861Y005017D01*
X008020Y005176D02*
X007101Y005176D01*
X007238Y005334D02*
X008050Y005334D01*
X008050Y005493D02*
X007304Y005493D01*
X007334Y005651D02*
X008050Y005651D01*
X008050Y005810D02*
X007334Y005810D01*
X007287Y005968D02*
X007554Y005968D01*
X007552Y006127D02*
X007220Y006127D01*
X007062Y006285D02*
X007552Y006285D01*
X007552Y006444D02*
X006311Y006444D01*
X006311Y006602D02*
X007552Y006602D01*
X007850Y006602D02*
X007850Y006602D01*
X007850Y006444D02*
X007850Y006444D01*
X007850Y006285D02*
X007850Y006285D01*
X007850Y006127D02*
X007850Y006127D01*
X007850Y005968D02*
X007850Y005968D01*
X008650Y005810D02*
X009090Y005810D01*
X009090Y005651D02*
X008650Y005651D01*
X008650Y005493D02*
X009090Y005493D01*
X009020Y005334D02*
X008650Y005334D01*
X008650Y005176D02*
X008862Y005176D01*
X008850Y005017D02*
X008648Y005017D01*
X008551Y004859D02*
X008850Y004859D01*
X009350Y004957D02*
X009350Y006433D01*
X009610Y005868D02*
X009657Y005820D01*
X010043Y005820D01*
X010100Y005878D01*
X010157Y005820D01*
X010543Y005820D01*
X010590Y005868D01*
X010590Y005424D01*
X010557Y005457D01*
X010143Y005457D01*
X009850Y005164D01*
X009850Y004750D01*
X009850Y005164D01*
X009610Y005404D01*
X009610Y005868D01*
X009610Y005810D02*
X010590Y005810D01*
X010590Y005651D02*
X009610Y005651D01*
X009610Y005493D02*
X010590Y005493D01*
X011110Y005493D02*
X013350Y005493D01*
X013350Y005651D02*
X011110Y005651D01*
X011110Y005810D02*
X013350Y005810D01*
X013350Y005968D02*
X012964Y005968D01*
X012736Y005968D02*
X011148Y005968D01*
X011148Y006127D02*
X012480Y006127D01*
X013220Y006127D02*
X013350Y006127D01*
X013350Y006285D02*
X013315Y006285D01*
X013345Y006444D02*
X013350Y006444D01*
X013350Y006602D02*
X013325Y006602D01*
X013350Y006761D02*
X013246Y006761D01*
X013350Y006919D02*
X013027Y006919D01*
X013040Y006998D02*
X012966Y006974D01*
X012889Y006962D01*
X012868Y006962D01*
X012868Y007438D01*
X012832Y007438D01*
X012832Y006962D01*
X012811Y006962D01*
X012734Y006974D01*
X012660Y006998D01*
X012591Y007034D01*
X012528Y007079D01*
X012472Y007134D01*
X012427Y007198D01*
X012391Y007267D01*
X012367Y007341D01*
X012355Y007418D01*
X012355Y007439D01*
X012832Y007439D01*
X012832Y007475D01*
X012355Y007475D01*
X012355Y007496D01*
X012367Y007573D01*
X012391Y007647D01*
X012427Y007716D01*
X012472Y007779D01*
X012528Y007834D01*
X012591Y007880D01*
X012660Y007916D01*
X012734Y007940D01*
X012811Y007952D01*
X012832Y007952D01*
X012832Y007475D01*
X012868Y007475D01*
X012868Y007439D01*
X013345Y007439D01*
X013345Y007418D01*
X013333Y007341D01*
X013309Y007267D01*
X013273Y007198D01*
X013228Y007134D01*
X013172Y007079D01*
X013109Y007034D01*
X013040Y006998D01*
X013170Y007078D02*
X013350Y007078D01*
X013350Y007236D02*
X013293Y007236D01*
X013341Y007395D02*
X013350Y007395D01*
X013345Y007475D02*
X013345Y007496D01*
X013333Y007573D01*
X013309Y007647D01*
X013273Y007716D01*
X013228Y007779D01*
X013172Y007834D01*
X013109Y007880D01*
X013040Y007916D01*
X012966Y007940D01*
X012889Y007952D01*
X012868Y007952D01*
X012868Y007475D01*
X013345Y007475D01*
X013336Y007553D02*
X013350Y007553D01*
X013350Y007712D02*
X013276Y007712D01*
X013350Y007870D02*
X013123Y007870D01*
X013240Y007962D02*
X013345Y008067D01*
X013345Y008846D01*
X013240Y008952D01*
X013150Y008952D01*
X013150Y009377D01*
X013205Y009432D01*
X013205Y009881D01*
X013128Y009959D01*
X013136Y009963D01*
X013169Y009996D01*
X013193Y010037D01*
X013205Y010083D01*
X013205Y010257D01*
X013205Y010431D01*
X013193Y010476D01*
X013169Y010517D01*
X013136Y010551D01*
X013094Y010575D01*
X013049Y010587D01*
X012850Y010587D01*
X012651Y010587D01*
X012606Y010575D01*
X012564Y010551D01*
X012531Y010517D01*
X012507Y010476D01*
X012495Y010431D01*
X012495Y010257D01*
X012850Y010257D01*
X012850Y010587D01*
X012850Y010257D01*
X012850Y010257D01*
X013205Y010257D01*
X012850Y010257D01*
X012850Y010257D01*
X012850Y010257D01*
X012495Y010257D01*
X012495Y010083D01*
X012507Y010037D01*
X012531Y009996D01*
X012564Y009963D01*
X012572Y009959D01*
X012495Y009881D01*
X012495Y009432D01*
X012550Y009377D01*
X012550Y008952D01*
X012460Y008952D01*
X012355Y008846D01*
X012355Y008067D01*
X012460Y007962D01*
X013240Y007962D01*
X013306Y008029D02*
X013350Y008029D01*
X013345Y008187D02*
X013350Y008187D01*
X013345Y008346D02*
X013350Y008346D01*
X013345Y008504D02*
X013350Y008504D01*
X013345Y008663D02*
X013350Y008663D01*
X013345Y008821D02*
X013350Y008821D01*
X013350Y008980D02*
X013150Y008980D01*
X013150Y009138D02*
X013350Y009138D01*
X013350Y009297D02*
X013150Y009297D01*
X013205Y009455D02*
X013350Y009455D01*
X013350Y009614D02*
X013205Y009614D01*
X013205Y009772D02*
X013350Y009772D01*
X013350Y009931D02*
X013156Y009931D01*
X013205Y010089D02*
X013350Y010089D01*
X013350Y010248D02*
X013205Y010248D01*
X013205Y010406D02*
X013350Y010406D01*
X013350Y010565D02*
X013111Y010565D01*
X012850Y010565D02*
X012850Y010565D01*
X012850Y010406D02*
X012850Y010406D01*
X012589Y010565D02*
X007218Y010565D01*
X007237Y010579D02*
X007174Y010534D01*
X007105Y010498D01*
X007031Y010474D01*
X006954Y010462D01*
X006618Y010462D01*
X006618Y010938D01*
X006582Y010938D01*
X006582Y010462D01*
X006246Y010462D01*
X006169Y010474D01*
X006095Y010498D01*
X006026Y010534D01*
X005963Y010579D01*
X005908Y010634D01*
X005862Y010698D01*
X005826Y010767D01*
X005802Y010841D01*
X005790Y010918D01*
X005790Y010939D01*
X006582Y010939D01*
X006582Y010975D01*
X005790Y010975D01*
X005790Y010996D01*
X005802Y011073D01*
X005826Y011147D01*
X005862Y011216D01*
X005908Y011279D01*
X005963Y011334D01*
X006026Y011380D01*
X006095Y011416D01*
X006169Y011440D01*
X006246Y011452D01*
X006582Y011452D01*
X006582Y010975D01*
X006618Y010975D01*
X006618Y011452D01*
X006954Y011452D01*
X007031Y011440D01*
X007105Y011416D01*
X007174Y011380D01*
X007237Y011334D01*
X007292Y011279D01*
X007338Y011216D01*
X007374Y011147D01*
X007398Y011073D01*
X007410Y010996D01*
X007410Y010975D01*
X006618Y010975D01*
X006618Y010939D01*
X007410Y010939D01*
X007410Y010918D01*
X007398Y010841D01*
X007374Y010767D01*
X007338Y010698D01*
X007292Y010634D01*
X007237Y010579D01*
X007351Y010723D02*
X013350Y010723D01*
X013350Y010882D02*
X007404Y010882D01*
X007403Y011040D02*
X013350Y011040D01*
X013350Y011199D02*
X007347Y011199D01*
X007206Y011357D02*
X013350Y011357D01*
X013350Y011516D02*
X004600Y011516D01*
X004600Y011674D02*
X013350Y011674D01*
X012495Y010406D02*
X007123Y010406D01*
X007195Y010377D02*
X007013Y010452D01*
X006187Y010452D01*
X006005Y010377D01*
X005865Y010237D01*
X005790Y010055D01*
X005790Y009858D01*
X005865Y009677D01*
X006005Y009537D01*
X006187Y009462D01*
X007013Y009462D01*
X007195Y009537D01*
X007335Y009677D01*
X007410Y009858D01*
X007410Y010055D01*
X007335Y010237D01*
X007195Y010377D01*
X006618Y010565D02*
X006582Y010565D01*
X006582Y010723D02*
X006618Y010723D01*
X006618Y010882D02*
X006582Y010882D01*
X006582Y011040D02*
X006618Y011040D01*
X006618Y011199D02*
X006582Y011199D01*
X006582Y011357D02*
X006618Y011357D01*
X005994Y011357D02*
X004600Y011357D01*
X004600Y011199D02*
X005853Y011199D01*
X005797Y011040D02*
X004600Y011040D01*
X004600Y010882D02*
X005796Y010882D01*
X005848Y010723D02*
X004600Y010723D01*
X004600Y010565D02*
X005982Y010565D01*
X006077Y010406D02*
X004600Y010406D01*
X004600Y010248D02*
X005876Y010248D01*
X005804Y010089D02*
X004600Y010089D01*
X004600Y009931D02*
X005790Y009931D01*
X005826Y009772D02*
X004600Y009772D01*
X004600Y009614D02*
X005928Y009614D01*
X004600Y009455D02*
X010415Y009455D01*
X010352Y009614D02*
X007272Y009614D01*
X007374Y009772D02*
X010352Y009772D01*
X010404Y009931D02*
X007410Y009931D01*
X007396Y010089D02*
X010528Y010089D01*
X011172Y010089D02*
X012495Y010089D01*
X012495Y010248D02*
X007324Y010248D01*
X004600Y009297D02*
X010556Y009297D01*
X010590Y009138D02*
X004600Y009138D01*
X004600Y008980D02*
X004889Y008980D01*
X004889Y008821D02*
X004600Y008821D01*
X004600Y008663D02*
X004889Y008663D01*
X004889Y008504D02*
X004600Y008504D01*
X004600Y008346D02*
X004889Y008346D01*
X004889Y008187D02*
X004600Y008187D01*
X004600Y008029D02*
X005218Y008029D01*
X005129Y007870D02*
X004600Y007870D01*
X004600Y007712D02*
X005102Y007712D01*
X005124Y007553D02*
X004600Y007553D01*
X004600Y007395D02*
X005208Y007395D01*
X004889Y007236D02*
X004600Y007236D01*
X004600Y007078D02*
X004889Y007078D01*
X004889Y006919D02*
X004600Y006919D01*
X004600Y006761D02*
X004889Y006761D01*
X004889Y006602D02*
X004600Y006602D01*
X004600Y006444D02*
X004889Y006444D01*
X006311Y006761D02*
X007552Y006761D01*
X007560Y006919D02*
X007432Y006919D01*
X007443Y006937D02*
X007455Y006983D01*
X007455Y007157D01*
X007100Y007157D01*
X006745Y007157D01*
X006745Y006983D01*
X006757Y006937D01*
X006781Y006896D01*
X006814Y006863D01*
X006856Y006839D01*
X006901Y006827D01*
X007100Y006827D01*
X007299Y006827D01*
X007344Y006839D01*
X007386Y006863D01*
X007419Y006896D01*
X007443Y006937D01*
X007455Y007078D02*
X010025Y007078D01*
X009902Y007236D02*
X007455Y007236D01*
X007432Y007395D02*
X009852Y007395D01*
X009852Y007553D02*
X007455Y007553D01*
X007455Y007712D02*
X009916Y007712D01*
X010046Y007870D02*
X010059Y007870D01*
X009654Y007870D02*
X009546Y007870D01*
X009154Y007870D02*
X009046Y007870D01*
X008654Y007870D02*
X008546Y007870D01*
X008154Y007870D02*
X008046Y007870D01*
X007654Y007870D02*
X007455Y007870D01*
X007408Y008029D02*
X007552Y008029D01*
X006792Y008029D02*
X005982Y008029D01*
X006071Y007870D02*
X006745Y007870D01*
X006745Y007712D02*
X006098Y007712D01*
X006076Y007553D02*
X006745Y007553D01*
X006768Y007395D02*
X005992Y007395D01*
X006311Y007236D02*
X006745Y007236D01*
X007100Y007157D02*
X007100Y007157D01*
X007100Y006827D01*
X007100Y007157D01*
X007100Y007078D02*
X007100Y007078D01*
X007100Y006919D02*
X007100Y006919D01*
X006768Y006919D02*
X006311Y006919D01*
X006311Y007078D02*
X006745Y007078D01*
X007850Y006919D02*
X007850Y006919D01*
X007850Y006761D02*
X007850Y006761D01*
X010350Y007457D02*
X010350Y008481D01*
X010850Y008481D02*
X010850Y009707D01*
X011296Y009931D02*
X012544Y009931D01*
X012495Y009772D02*
X011348Y009772D01*
X011348Y009614D02*
X012495Y009614D01*
X012495Y009455D02*
X011285Y009455D01*
X011144Y009297D02*
X012550Y009297D01*
X012550Y009138D02*
X011110Y009138D01*
X011148Y008980D02*
X012550Y008980D01*
X012355Y008821D02*
X011148Y008821D01*
X011148Y008663D02*
X012355Y008663D01*
X012355Y008504D02*
X011148Y008504D01*
X011148Y008346D02*
X012355Y008346D01*
X012355Y008187D02*
X011148Y008187D01*
X011148Y008029D02*
X012394Y008029D01*
X012577Y007870D02*
X011046Y007870D01*
X010784Y007712D02*
X012424Y007712D01*
X012364Y007553D02*
X010848Y007553D01*
X010848Y007395D02*
X012359Y007395D01*
X012407Y007236D02*
X010798Y007236D01*
X010675Y007078D02*
X012530Y007078D01*
X012673Y006919D02*
X011148Y006919D01*
X011148Y006761D02*
X012454Y006761D01*
X012832Y007078D02*
X012868Y007078D01*
X012868Y007236D02*
X012832Y007236D01*
X012832Y007395D02*
X012868Y007395D01*
X012868Y007553D02*
X012832Y007553D01*
X012832Y007712D02*
X012868Y007712D01*
X012868Y007870D02*
X012832Y007870D01*
X010654Y007870D02*
X010641Y007870D01*
X007552Y008821D02*
X007440Y008821D01*
X007552Y008980D02*
X006311Y008980D01*
X006311Y008821D02*
X006760Y008821D01*
X006646Y008663D02*
X006311Y008663D01*
X006311Y008504D02*
X006602Y008504D01*
X006607Y008346D02*
X006311Y008346D01*
X006311Y008187D02*
X006672Y008187D01*
X010850Y006433D02*
X010850Y004457D01*
X010350Y003957D01*
X009850Y003908D02*
X009850Y003908D01*
X009850Y003750D02*
X009850Y004164D01*
X009850Y003750D01*
X009850Y003749D02*
X009850Y003749D01*
X009691Y003591D02*
X010009Y003591D01*
X010691Y003591D02*
X011009Y003591D01*
X011330Y003591D02*
X011370Y003591D01*
X011691Y003591D02*
X013350Y003591D01*
X013350Y003749D02*
X011850Y003749D01*
X011850Y003908D02*
X013350Y003908D01*
X013350Y004066D02*
X011850Y004066D01*
X011370Y004066D02*
X011330Y004066D01*
X011330Y003908D02*
X011370Y003908D01*
X011370Y003749D02*
X011330Y003749D01*
X010850Y003749D02*
X010850Y003749D01*
X010850Y003908D02*
X010850Y003908D01*
X010850Y004066D02*
X010850Y004066D01*
X011330Y004225D02*
X011370Y004225D01*
X011370Y004383D02*
X011330Y004383D01*
X011631Y004383D02*
X013350Y004383D01*
X013350Y004225D02*
X011789Y004225D01*
X011642Y004542D02*
X013350Y004542D01*
X013350Y004700D02*
X011801Y004700D01*
X011850Y004859D02*
X013350Y004859D01*
X013350Y005017D02*
X011850Y005017D01*
X011838Y005176D02*
X013350Y005176D01*
X013350Y005334D02*
X011680Y005334D01*
X010020Y005334D02*
X009680Y005334D01*
X009838Y005176D02*
X009862Y005176D01*
X009850Y005017D02*
X009850Y005017D01*
X009850Y004859D02*
X009850Y004859D01*
X009801Y004700D02*
X009899Y004700D01*
X010058Y004542D02*
X009642Y004542D01*
X009631Y004383D02*
X010069Y004383D01*
X009911Y004225D02*
X009789Y004225D01*
X009850Y004066D02*
X009850Y004066D01*
X010482Y004457D02*
X010482Y004457D01*
X009058Y004542D02*
X008234Y004542D01*
X008393Y004700D02*
X008899Y004700D01*
M02*
