G75*
%MOIN*%
%OFA0B0*%
%FSLAX24Y24*%
%IPPOS*%
%LPD*%
%AMOC8*
5,1,8,0,0,1.08239X$1,22.5*
%
%ADD10C,0.0160*%
%ADD11C,0.0030*%
%ADD12C,0.0080*%
%ADD13C,0.0050*%
%ADD14C,0.0100*%
%ADD15C,0.0000*%
%ADD16R,0.0150X0.0200*%
%ADD17C,0.0040*%
%ADD18R,0.0300X0.0340*%
%ADD19R,0.0098X0.0098*%
D10*
X000180Y000990D02*
X025180Y000990D01*
X025180Y038490D01*
X000180Y038490D01*
X000180Y000990D01*
D11*
X004495Y005905D02*
X004495Y006275D01*
X004742Y006275D01*
X004863Y006152D02*
X004863Y005905D01*
X004863Y006028D02*
X004987Y006152D01*
X005048Y006152D01*
X005170Y006090D02*
X005232Y006152D01*
X005355Y006152D01*
X005417Y006090D01*
X005417Y006028D01*
X005170Y006028D01*
X005170Y005967D02*
X005170Y006090D01*
X005170Y005967D02*
X005232Y005905D01*
X005355Y005905D01*
X005539Y005967D02*
X005600Y005905D01*
X005785Y005905D01*
X005785Y005782D02*
X005785Y006152D01*
X005600Y006152D01*
X005539Y006090D01*
X005539Y005967D01*
X005907Y005967D02*
X005969Y005905D01*
X006154Y005905D01*
X006154Y006152D01*
X006275Y006090D02*
X006337Y006152D01*
X006460Y006152D01*
X006522Y006090D01*
X006522Y006028D01*
X006275Y006028D01*
X006275Y005967D02*
X006275Y006090D01*
X006275Y005967D02*
X006337Y005905D01*
X006460Y005905D01*
X006644Y005905D02*
X006644Y006152D01*
X006829Y006152D01*
X006890Y006090D01*
X006890Y005905D01*
X007012Y005967D02*
X007074Y005905D01*
X007259Y005905D01*
X007380Y005967D02*
X007442Y005905D01*
X007627Y005905D01*
X007627Y005843D02*
X007565Y005782D01*
X007504Y005782D01*
X007627Y005843D02*
X007627Y006152D01*
X007380Y006152D02*
X007380Y005967D01*
X007259Y006152D02*
X007074Y006152D01*
X007012Y006090D01*
X007012Y005967D01*
X005907Y005967D02*
X005907Y006152D01*
X004618Y006090D02*
X004495Y006090D01*
X008117Y005905D02*
X008117Y006275D01*
X008240Y006152D01*
X008364Y006275D01*
X008364Y005905D01*
X008485Y005967D02*
X008547Y005905D01*
X008670Y005905D01*
X008732Y005967D01*
X008732Y006090D01*
X008670Y006152D01*
X008547Y006152D01*
X008485Y006090D01*
X008485Y005967D01*
X008853Y005967D02*
X008915Y005905D01*
X009100Y005905D01*
X009100Y006275D01*
X009100Y006152D02*
X008915Y006152D01*
X008853Y006090D01*
X008853Y005967D01*
X009222Y005967D02*
X009283Y005905D01*
X009469Y005905D01*
X009469Y006152D01*
X009590Y006275D02*
X009652Y006275D01*
X009652Y005905D01*
X009713Y005905D02*
X009590Y005905D01*
X009836Y005967D02*
X009897Y006028D01*
X010082Y006028D01*
X010082Y006090D02*
X010082Y005905D01*
X009897Y005905D01*
X009836Y005967D01*
X009897Y006152D02*
X010021Y006152D01*
X010082Y006090D01*
X010204Y006152D02*
X010327Y006152D01*
X010266Y006214D02*
X010266Y005967D01*
X010327Y005905D01*
X010449Y005905D02*
X010573Y005905D01*
X010511Y005905D02*
X010511Y006152D01*
X010449Y006152D01*
X010511Y006275D02*
X010511Y006337D01*
X010757Y006152D02*
X010695Y006090D01*
X010695Y005967D01*
X010757Y005905D01*
X010880Y005905D01*
X010942Y005967D01*
X010942Y006090D01*
X010880Y006152D01*
X010757Y006152D01*
X011063Y006152D02*
X011063Y005905D01*
X011063Y006152D02*
X011248Y006152D01*
X011310Y006090D01*
X011310Y005905D01*
X010750Y005375D02*
X010874Y005252D01*
X010874Y005128D01*
X010750Y005005D01*
X010629Y005128D02*
X010629Y005375D01*
X010629Y005128D02*
X010506Y005005D01*
X010382Y005128D01*
X010382Y005375D01*
X010261Y005314D02*
X010199Y005375D01*
X010076Y005375D01*
X010014Y005314D01*
X010261Y005314D02*
X010261Y005252D01*
X010014Y005005D01*
X010261Y005005D01*
X009892Y005005D02*
X009645Y005005D01*
X009523Y005005D02*
X009400Y005128D01*
X009400Y005252D01*
X009523Y005375D01*
X009645Y005252D02*
X009769Y005375D01*
X009769Y005005D01*
X009725Y004537D02*
X009725Y004475D01*
X009725Y004352D02*
X009725Y004105D01*
X009663Y004105D02*
X009787Y004105D01*
X009909Y004105D02*
X010094Y004105D01*
X010156Y004167D01*
X010156Y004290D01*
X010094Y004352D01*
X009909Y004352D01*
X009909Y003982D01*
X009542Y004167D02*
X009542Y004352D01*
X009663Y004352D02*
X009725Y004352D01*
X009542Y004167D02*
X009480Y004105D01*
X009418Y004167D01*
X009357Y004105D01*
X009295Y004167D01*
X009295Y004352D01*
X008848Y005005D02*
X008910Y005067D01*
X008910Y005252D01*
X008787Y005067D02*
X008725Y005005D01*
X008663Y005067D01*
X008663Y005252D01*
X008542Y005252D02*
X008357Y005252D01*
X008295Y005190D01*
X008295Y005067D01*
X008357Y005005D01*
X008542Y005005D01*
X008787Y005067D02*
X008848Y005005D01*
X009222Y005967D02*
X009222Y006152D01*
X010339Y004352D02*
X010462Y004352D01*
X010524Y004290D01*
X010524Y004228D01*
X010277Y004228D01*
X010277Y004167D02*
X010277Y004290D01*
X010339Y004352D01*
X010277Y004167D02*
X010339Y004105D01*
X010462Y004105D01*
X010645Y004105D02*
X010645Y004352D01*
X010645Y004228D02*
X010769Y004352D01*
X010831Y004352D01*
X010693Y003414D02*
X010693Y003167D01*
X010755Y003105D01*
X010510Y003105D02*
X010263Y003352D01*
X010142Y003290D02*
X010142Y003228D01*
X009895Y003228D01*
X009895Y003167D02*
X009895Y003290D01*
X009957Y003352D01*
X010080Y003352D01*
X010142Y003290D01*
X010080Y003105D02*
X009957Y003105D01*
X009895Y003167D01*
X010263Y003105D02*
X010510Y003352D01*
X010632Y003352D02*
X010755Y003352D01*
X010750Y002375D02*
X010874Y002252D01*
X010874Y002128D01*
X010750Y002005D01*
X010629Y002128D02*
X010629Y002375D01*
X010629Y002128D02*
X010506Y002005D01*
X010382Y002128D01*
X010382Y002375D01*
X010261Y002314D02*
X010199Y002375D01*
X010076Y002375D01*
X010014Y002314D01*
X010014Y002067D01*
X010261Y002314D01*
X010261Y002067D01*
X010199Y002005D01*
X010076Y002005D01*
X010014Y002067D01*
X009892Y002005D02*
X009768Y002128D01*
X009768Y002252D01*
X009892Y002375D01*
X009279Y002252D02*
X009279Y002067D01*
X009217Y002005D01*
X009155Y002067D01*
X009093Y002005D01*
X009032Y002067D01*
X009032Y002252D01*
X008910Y002252D02*
X008725Y002252D01*
X008663Y002190D01*
X008663Y002067D01*
X008725Y002005D01*
X008910Y002005D01*
X008542Y002005D02*
X008357Y002005D01*
X008295Y002067D01*
X008295Y002190D01*
X008357Y002252D01*
X008542Y002252D01*
X011520Y007255D02*
X011644Y007255D01*
X011705Y007317D01*
X011827Y007317D02*
X011888Y007255D01*
X012012Y007255D01*
X012074Y007317D01*
X012074Y007378D01*
X012012Y007440D01*
X011950Y007440D01*
X012012Y007440D02*
X012074Y007502D01*
X012074Y007564D01*
X012012Y007625D01*
X011888Y007625D01*
X011827Y007564D01*
X011705Y007564D02*
X011644Y007625D01*
X011520Y007625D01*
X011458Y007564D01*
X011458Y007317D01*
X011520Y007255D01*
X011595Y010905D02*
X011718Y010905D01*
X011657Y010905D02*
X011657Y011275D01*
X011718Y011275D02*
X011595Y011275D01*
X011841Y011214D02*
X011841Y010967D01*
X011902Y010905D01*
X012026Y010905D01*
X012087Y010967D01*
X012209Y011090D02*
X012456Y011090D01*
X012394Y010905D02*
X012394Y011275D01*
X012209Y011090D01*
X012087Y011214D02*
X012026Y011275D01*
X011902Y011275D01*
X011841Y011214D01*
X011744Y012805D02*
X011805Y012867D01*
X011744Y012805D02*
X011620Y012805D01*
X011558Y012867D01*
X011558Y013114D01*
X011620Y013175D01*
X011744Y013175D01*
X011805Y013114D01*
X011927Y012990D02*
X012174Y012990D01*
X012112Y012805D02*
X012112Y013175D01*
X011927Y012990D01*
X014563Y014505D02*
X014686Y014505D01*
X014625Y014505D02*
X014625Y014875D01*
X014686Y014875D02*
X014563Y014875D01*
X014808Y014814D02*
X014808Y014567D01*
X014870Y014505D01*
X014994Y014505D01*
X015055Y014567D01*
X015177Y014567D02*
X015238Y014505D01*
X015362Y014505D01*
X015424Y014567D01*
X015424Y014690D01*
X015362Y014752D01*
X015300Y014752D01*
X015177Y014690D01*
X015177Y014875D01*
X015424Y014875D01*
X015055Y014814D02*
X014994Y014875D01*
X014870Y014875D01*
X014808Y014814D01*
X014822Y011925D02*
X014822Y011555D01*
X015069Y011555D01*
X015190Y011555D02*
X015437Y011555D01*
X015558Y011555D02*
X015744Y011555D01*
X015805Y011617D01*
X015805Y011864D01*
X015744Y011925D01*
X015558Y011925D01*
X015558Y011555D01*
X015313Y011740D02*
X015190Y011740D01*
X015190Y011925D02*
X015190Y011555D01*
X015190Y011925D02*
X015437Y011925D01*
X015927Y011802D02*
X016050Y011925D01*
X016050Y011555D01*
X015927Y011555D02*
X016174Y011555D01*
X016545Y011655D02*
X016545Y012025D01*
X016730Y012025D01*
X016792Y011964D01*
X016792Y011840D01*
X016730Y011778D01*
X016545Y011778D01*
X016668Y011778D02*
X016792Y011655D01*
X016913Y011655D02*
X017160Y011655D01*
X017282Y011655D02*
X017529Y011902D01*
X017529Y011964D01*
X017467Y012025D01*
X017343Y012025D01*
X017282Y011964D01*
X017037Y012025D02*
X017037Y011655D01*
X017282Y011655D02*
X017529Y011655D01*
X017037Y012025D02*
X016913Y011902D01*
X017320Y010625D02*
X017258Y010564D01*
X017258Y010317D01*
X017320Y010255D01*
X017444Y010255D01*
X017505Y010317D01*
X017627Y010255D02*
X017874Y010255D01*
X017750Y010255D02*
X017750Y010625D01*
X017627Y010502D01*
X017505Y010564D02*
X017444Y010625D01*
X017320Y010625D01*
X019863Y013655D02*
X019986Y013655D01*
X019925Y013655D02*
X019925Y014025D01*
X019986Y014025D02*
X019863Y014025D01*
X020108Y013964D02*
X020108Y013717D01*
X020170Y013655D01*
X020294Y013655D01*
X020355Y013717D01*
X020477Y013655D02*
X020724Y013655D01*
X020600Y013655D02*
X020600Y014025D01*
X020477Y013902D01*
X020355Y013964D02*
X020294Y014025D01*
X020170Y014025D01*
X020108Y013964D01*
X020113Y017405D02*
X020113Y017467D01*
X020360Y017714D01*
X020360Y017775D01*
X020113Y017775D01*
X019992Y017714D02*
X019930Y017775D01*
X019807Y017775D01*
X019745Y017714D01*
X019745Y017467D01*
X019807Y017405D01*
X019930Y017405D01*
X019992Y017467D01*
X018160Y017767D02*
X018098Y017705D01*
X017975Y017705D01*
X017913Y017767D01*
X017913Y017828D01*
X017975Y017890D01*
X018098Y017890D01*
X018160Y017828D01*
X018160Y017767D01*
X018098Y017890D02*
X018160Y017952D01*
X018160Y018014D01*
X018098Y018075D01*
X017975Y018075D01*
X017913Y018014D01*
X017913Y017952D01*
X017975Y017890D01*
X017792Y017890D02*
X017730Y017828D01*
X017545Y017828D01*
X017545Y017705D02*
X017545Y018075D01*
X017730Y018075D01*
X017792Y018014D01*
X017792Y017890D01*
X017668Y017828D02*
X017792Y017705D01*
X015690Y018535D02*
X015443Y018535D01*
X015322Y018535D02*
X015075Y018535D01*
X015075Y018905D01*
X015443Y018782D02*
X015567Y018905D01*
X015567Y018535D01*
X015576Y020855D02*
X015637Y020917D01*
X015576Y020855D02*
X015452Y020855D01*
X015391Y020917D01*
X015391Y021164D01*
X015452Y021225D01*
X015576Y021225D01*
X015637Y021164D01*
X015759Y021040D02*
X015944Y021040D01*
X016006Y020978D01*
X016006Y020917D01*
X015944Y020855D01*
X015821Y020855D01*
X015759Y020917D01*
X015759Y021040D01*
X015882Y021164D01*
X016006Y021225D01*
X015268Y021225D02*
X015145Y021225D01*
X015207Y021225D02*
X015207Y020855D01*
X015268Y020855D02*
X015145Y020855D01*
X012224Y019175D02*
X011977Y019175D01*
X011977Y018990D01*
X012100Y019052D01*
X012162Y019052D01*
X012224Y018990D01*
X012224Y018867D01*
X012162Y018805D01*
X012038Y018805D01*
X011977Y018867D01*
X011855Y018867D02*
X011794Y018805D01*
X011670Y018805D01*
X011608Y018867D01*
X011608Y019114D01*
X011670Y019175D01*
X011794Y019175D01*
X011855Y019114D01*
X010124Y020617D02*
X010062Y020555D01*
X009938Y020555D01*
X009877Y020617D01*
X010124Y020864D01*
X010124Y020617D01*
X010124Y020864D02*
X010062Y020925D01*
X009938Y020925D01*
X009877Y020864D01*
X009877Y020617D01*
X009755Y020555D02*
X009508Y020555D01*
X009387Y020555D02*
X009263Y020678D01*
X009325Y020678D02*
X009140Y020678D01*
X009140Y020555D02*
X009140Y020925D01*
X009325Y020925D01*
X009387Y020864D01*
X009387Y020740D01*
X009325Y020678D01*
X009508Y020802D02*
X009632Y020925D01*
X009632Y020555D01*
X008474Y020567D02*
X008474Y020628D01*
X008412Y020690D01*
X008227Y020690D01*
X008227Y020567D01*
X008288Y020505D01*
X008412Y020505D01*
X008474Y020567D01*
X008227Y020690D02*
X008350Y020814D01*
X008474Y020875D01*
X008105Y020814D02*
X008105Y020690D01*
X008044Y020628D01*
X007858Y020628D01*
X007858Y020505D02*
X007858Y020875D01*
X008044Y020875D01*
X008105Y020814D01*
X007982Y020628D02*
X008105Y020505D01*
X009768Y024255D02*
X009768Y024625D01*
X009645Y024625D02*
X009892Y024625D01*
X010013Y024564D02*
X010075Y024625D01*
X010198Y024625D01*
X010260Y024564D01*
X010260Y024502D01*
X010013Y024255D01*
X010260Y024255D01*
X010395Y026355D02*
X010395Y026725D01*
X010580Y026725D01*
X010642Y026664D01*
X010642Y026540D01*
X010580Y026478D01*
X010395Y026478D01*
X010518Y026478D02*
X010642Y026355D01*
X010763Y026355D02*
X010763Y026417D01*
X011010Y026664D01*
X011010Y026725D01*
X010763Y026725D01*
X011302Y027305D02*
X011240Y027367D01*
X011240Y027614D01*
X011302Y027675D01*
X011425Y027675D01*
X011487Y027614D01*
X011608Y027552D02*
X011732Y027675D01*
X011732Y027305D01*
X011855Y027305D02*
X011608Y027305D01*
X011487Y027367D02*
X011425Y027305D01*
X011302Y027305D01*
X011977Y027305D02*
X011977Y027367D01*
X012224Y027614D01*
X012224Y027675D01*
X011977Y027675D01*
X011212Y029255D02*
X011088Y029255D01*
X011027Y029317D01*
X011274Y029564D01*
X011274Y029317D01*
X011212Y029255D01*
X011027Y029317D02*
X011027Y029564D01*
X011088Y029625D01*
X011212Y029625D01*
X011274Y029564D01*
X010905Y029255D02*
X010658Y029255D01*
X010782Y029255D02*
X010782Y029625D01*
X010658Y029502D01*
X010537Y029564D02*
X010475Y029625D01*
X010352Y029625D01*
X010290Y029564D01*
X010290Y029317D01*
X010352Y029255D01*
X010475Y029255D01*
X010537Y029317D01*
X008612Y026625D02*
X008488Y026625D01*
X008427Y026564D01*
X008305Y026564D02*
X008244Y026625D01*
X008120Y026625D01*
X008058Y026564D01*
X008058Y026317D01*
X008120Y026255D01*
X008244Y026255D01*
X008305Y026317D01*
X008427Y026255D02*
X008674Y026502D01*
X008674Y026564D01*
X008612Y026625D01*
X008674Y026255D02*
X008427Y026255D01*
X007203Y027305D02*
X007203Y027490D01*
X007142Y027552D01*
X006956Y027552D01*
X006956Y027305D01*
X006835Y027367D02*
X006835Y027490D01*
X006773Y027552D01*
X006650Y027552D01*
X006588Y027490D01*
X006588Y027367D01*
X006650Y027305D01*
X006773Y027305D01*
X006835Y027367D01*
X006466Y027305D02*
X006342Y027305D01*
X006404Y027305D02*
X006404Y027552D01*
X006342Y027552D01*
X006220Y027552D02*
X006097Y027552D01*
X006159Y027614D02*
X006159Y027367D01*
X006220Y027305D01*
X005976Y027305D02*
X005790Y027305D01*
X005729Y027367D01*
X005790Y027428D01*
X005976Y027428D01*
X005976Y027490D02*
X005976Y027305D01*
X005976Y027490D02*
X005914Y027552D01*
X005790Y027552D01*
X005545Y027675D02*
X005545Y027305D01*
X005483Y027305D02*
X005607Y027305D01*
X005362Y027305D02*
X005362Y027552D01*
X005483Y027675D02*
X005545Y027675D01*
X005362Y027305D02*
X005176Y027305D01*
X005115Y027367D01*
X005115Y027552D01*
X004993Y027552D02*
X004808Y027552D01*
X004746Y027490D01*
X004746Y027367D01*
X004808Y027305D01*
X004993Y027305D01*
X004993Y027675D01*
X004625Y027490D02*
X004563Y027552D01*
X004440Y027552D01*
X004378Y027490D01*
X004378Y027367D01*
X004440Y027305D01*
X004563Y027305D01*
X004625Y027367D01*
X004625Y027490D01*
X004257Y027675D02*
X004257Y027305D01*
X004010Y027305D02*
X004010Y027675D01*
X004133Y027552D01*
X004257Y027675D01*
X003520Y027490D02*
X003520Y027428D01*
X003273Y027428D01*
X003273Y027367D02*
X003273Y027490D01*
X003335Y027552D01*
X003458Y027552D01*
X003520Y027490D01*
X003458Y027305D02*
X003335Y027305D01*
X003273Y027367D01*
X003152Y027305D02*
X003152Y027675D01*
X003152Y027552D02*
X002967Y027552D01*
X002905Y027490D01*
X002905Y027367D01*
X002967Y027305D01*
X003152Y027305D01*
X003129Y026875D02*
X003129Y026628D01*
X003006Y026505D01*
X002882Y026628D01*
X002882Y026875D01*
X002761Y026814D02*
X002699Y026875D01*
X002576Y026875D01*
X002514Y026814D01*
X002761Y026814D02*
X002761Y026752D01*
X002514Y026505D01*
X002761Y026505D01*
X002392Y026505D02*
X002145Y026505D01*
X002023Y026505D02*
X001900Y026628D01*
X001900Y026752D01*
X002023Y026875D01*
X002145Y026752D02*
X002269Y026875D01*
X002269Y026505D01*
X002169Y027305D02*
X002045Y027305D01*
X002107Y027305D02*
X002107Y027552D01*
X002045Y027552D01*
X002107Y027675D02*
X002107Y027737D01*
X001862Y027675D02*
X001862Y027305D01*
X001923Y027305D02*
X001800Y027305D01*
X001679Y027367D02*
X001617Y027305D01*
X001432Y027305D01*
X001310Y027305D02*
X001310Y027490D01*
X001248Y027552D01*
X001187Y027490D01*
X001187Y027305D01*
X001063Y027305D02*
X001063Y027552D01*
X001125Y027552D01*
X001187Y027490D01*
X000942Y027490D02*
X000695Y027490D01*
X000695Y027552D02*
X000818Y027675D01*
X000942Y027552D01*
X000942Y027305D01*
X000695Y027305D02*
X000695Y027552D01*
X000857Y026752D02*
X000795Y026690D01*
X000795Y026567D01*
X000857Y026505D01*
X001042Y026505D01*
X001163Y026567D02*
X001225Y026505D01*
X001287Y026567D01*
X001348Y026505D01*
X001410Y026567D01*
X001410Y026752D01*
X001163Y026752D02*
X001163Y026567D01*
X001042Y026752D02*
X000857Y026752D01*
X001432Y027182D02*
X001432Y027552D01*
X001617Y027552D01*
X001679Y027490D01*
X001679Y027367D01*
X001800Y027675D02*
X001862Y027675D01*
X002291Y027552D02*
X002414Y027552D01*
X002353Y027614D02*
X002353Y027367D01*
X002414Y027305D01*
X002537Y027367D02*
X002598Y027305D01*
X002783Y027305D01*
X002783Y027552D01*
X002537Y027552D02*
X002537Y027367D01*
X003250Y026875D02*
X003374Y026752D01*
X003374Y026628D01*
X003250Y026505D01*
X003395Y025675D02*
X003580Y025675D01*
X003642Y025614D01*
X003642Y025490D01*
X003580Y025428D01*
X003395Y025428D01*
X003395Y025305D02*
X003395Y025675D01*
X003518Y025428D02*
X003642Y025305D01*
X003763Y025305D02*
X004010Y025305D01*
X004132Y025305D02*
X004379Y025305D01*
X004255Y025305D02*
X004255Y025675D01*
X004132Y025552D01*
X003887Y025675D02*
X003887Y025305D01*
X003763Y025552D02*
X003887Y025675D01*
X003150Y023075D02*
X003274Y022952D01*
X003274Y022828D01*
X003150Y022705D01*
X003029Y022828D02*
X003029Y023075D01*
X003029Y022828D02*
X002906Y022705D01*
X002782Y022828D01*
X002782Y023075D01*
X002661Y023014D02*
X002414Y022767D01*
X002476Y022705D01*
X002599Y022705D01*
X002661Y022767D01*
X002661Y023014D01*
X002599Y023075D01*
X002476Y023075D01*
X002414Y023014D01*
X002414Y022767D01*
X002292Y022705D02*
X002168Y022828D01*
X002168Y022952D01*
X002292Y023075D01*
X001679Y022952D02*
X001679Y022767D01*
X001617Y022705D01*
X001555Y022767D01*
X001493Y022705D01*
X001432Y022767D01*
X001432Y022952D01*
X001310Y022952D02*
X001125Y022952D01*
X001063Y022890D01*
X001063Y022767D01*
X001125Y022705D01*
X001310Y022705D01*
X000942Y022705D02*
X000757Y022705D01*
X000695Y022767D01*
X000695Y022890D01*
X000757Y022952D01*
X000942Y022952D01*
X005795Y026155D02*
X005918Y026155D01*
X005857Y026155D02*
X005857Y026525D01*
X005918Y026525D02*
X005795Y026525D01*
X006041Y026464D02*
X006041Y026217D01*
X006102Y026155D01*
X006226Y026155D01*
X006287Y026217D01*
X006409Y026217D02*
X006409Y026278D01*
X006471Y026340D01*
X006594Y026340D01*
X006656Y026278D01*
X006656Y026217D01*
X006594Y026155D01*
X006471Y026155D01*
X006409Y026217D01*
X006471Y026340D02*
X006409Y026402D01*
X006409Y026464D01*
X006471Y026525D01*
X006594Y026525D01*
X006656Y026464D01*
X006656Y026402D01*
X006594Y026340D01*
X006287Y026464D02*
X006226Y026525D01*
X006102Y026525D01*
X006041Y026464D01*
X006404Y027675D02*
X006404Y027737D01*
X003590Y035005D02*
X003590Y035190D01*
X003529Y035252D01*
X003405Y035252D01*
X003344Y035190D01*
X003222Y035252D02*
X003037Y035252D01*
X002975Y035190D01*
X002975Y035067D01*
X003037Y035005D01*
X003222Y035005D01*
X003344Y035005D02*
X003344Y035375D01*
X003222Y035605D02*
X003098Y035605D01*
X003037Y035667D01*
X003037Y035790D02*
X003160Y035852D01*
X003222Y035852D01*
X003283Y035790D01*
X003283Y035667D01*
X003222Y035605D01*
X003037Y035790D02*
X003037Y035975D01*
X003283Y035975D01*
X002915Y035605D02*
X002668Y035605D01*
X002792Y035605D02*
X002792Y035975D01*
X002668Y035852D01*
X002547Y035914D02*
X002300Y035667D01*
X002362Y035605D01*
X002485Y035605D01*
X002547Y035667D01*
X002547Y035914D01*
X002485Y035975D01*
X002362Y035975D01*
X002300Y035914D01*
X002300Y035667D01*
X002179Y035605D02*
X001932Y035605D01*
X002179Y035852D01*
X002179Y035914D01*
X002117Y035975D01*
X001993Y035975D01*
X001932Y035914D01*
X001810Y035975D02*
X001563Y035605D01*
X001380Y035605D02*
X001380Y035975D01*
X001195Y035790D01*
X001442Y035790D01*
X001442Y035375D02*
X001442Y035005D01*
X001195Y035375D01*
X001195Y035005D01*
X001563Y035005D02*
X001625Y035005D01*
X001625Y035067D01*
X001563Y035067D01*
X001563Y035005D01*
X002116Y035005D02*
X002116Y035375D01*
X002363Y035375D01*
X002484Y035252D02*
X002546Y035252D01*
X002546Y035005D01*
X002484Y035005D02*
X002608Y035005D01*
X002791Y035067D02*
X002853Y035005D01*
X002791Y035067D02*
X002791Y035314D01*
X002730Y035252D02*
X002853Y035252D01*
X002546Y035375D02*
X002546Y035437D01*
X002239Y035190D02*
X002116Y035190D01*
X002117Y036205D02*
X002179Y036267D01*
X002179Y036514D01*
X002117Y036575D01*
X001993Y036575D01*
X001932Y036514D01*
X001932Y036267D01*
X001993Y036205D01*
X002117Y036205D01*
X001810Y036267D02*
X001748Y036205D01*
X001625Y036205D01*
X001563Y036267D01*
X001563Y036514D01*
X001625Y036575D01*
X001748Y036575D01*
X001810Y036514D01*
X001748Y036805D02*
X001810Y036867D01*
X001748Y036805D02*
X001625Y036805D01*
X001563Y036867D01*
X001563Y037114D01*
X001625Y037175D01*
X001748Y037175D01*
X001810Y037114D01*
X001932Y037175D02*
X002055Y037052D01*
X002179Y037175D01*
X002179Y036805D01*
X002300Y036867D02*
X002547Y037114D01*
X002547Y036867D01*
X002485Y036805D01*
X002362Y036805D01*
X002300Y036867D01*
X002300Y037114D01*
X002362Y037175D01*
X002485Y037175D01*
X002547Y037114D01*
X002668Y037114D02*
X002730Y037175D01*
X002853Y037175D01*
X002915Y037114D01*
X002668Y036867D01*
X002730Y036805D01*
X002853Y036805D01*
X002915Y036867D01*
X002915Y037114D01*
X003037Y037114D02*
X003098Y037175D01*
X003222Y037175D01*
X003283Y037114D01*
X003037Y036867D01*
X003098Y036805D01*
X003222Y036805D01*
X003283Y036867D01*
X003283Y037114D01*
X003405Y036990D02*
X003652Y036990D01*
X003590Y036805D02*
X003590Y037175D01*
X003405Y036990D01*
X003037Y036867D02*
X003037Y037114D01*
X002668Y037114D02*
X002668Y036867D01*
X001932Y036805D02*
X001932Y037175D01*
X001442Y037114D02*
X001380Y037175D01*
X001257Y037175D01*
X001195Y037114D01*
X001195Y036867D01*
X001257Y036805D01*
X001380Y036805D01*
X001442Y036867D01*
X001442Y036575D02*
X001442Y036328D01*
X001318Y036205D01*
X001195Y036328D01*
X001195Y036575D01*
X004142Y036805D02*
X004142Y037175D01*
X004327Y037175D01*
X004388Y037114D01*
X004388Y036990D01*
X004327Y036928D01*
X004142Y036928D01*
X004265Y036928D02*
X004388Y036805D01*
X004510Y036867D02*
X004510Y036990D01*
X004572Y037052D01*
X004695Y037052D01*
X004757Y036990D01*
X004757Y036928D01*
X004510Y036928D01*
X004510Y036867D02*
X004572Y036805D01*
X004695Y036805D01*
X004878Y037052D02*
X005002Y036805D01*
X005125Y037052D01*
X005246Y036990D02*
X005432Y036990D01*
X005493Y036928D01*
X005493Y036867D01*
X005432Y036805D01*
X005246Y036805D01*
X005246Y037175D01*
X005432Y037175D01*
X005493Y037114D01*
X005493Y037052D01*
X005432Y036990D01*
X013690Y033864D02*
X013690Y033617D01*
X013752Y033555D01*
X013875Y033555D01*
X013937Y033617D01*
X014058Y033555D02*
X014305Y033555D01*
X014182Y033555D02*
X014182Y033925D01*
X014058Y033802D01*
X013937Y033864D02*
X013875Y033925D01*
X013752Y033925D01*
X013690Y033864D01*
X014427Y033864D02*
X014427Y033802D01*
X014488Y033740D01*
X014612Y033740D01*
X014674Y033678D01*
X014674Y033617D01*
X014612Y033555D01*
X014488Y033555D01*
X014427Y033617D01*
X014427Y033678D01*
X014488Y033740D01*
X014612Y033740D02*
X014674Y033802D01*
X014674Y033864D01*
X014612Y033925D01*
X014488Y033925D01*
X014427Y033864D01*
X015245Y033525D02*
X015245Y033155D01*
X015492Y033155D01*
X015613Y033155D02*
X015860Y033402D01*
X015860Y033464D01*
X015798Y033525D01*
X015675Y033525D01*
X015613Y033464D01*
X015613Y033155D02*
X015860Y033155D01*
X017545Y030925D02*
X017545Y030555D01*
X017545Y030678D02*
X017730Y030678D01*
X017792Y030740D01*
X017792Y030864D01*
X017730Y030925D01*
X017545Y030925D01*
X017668Y030678D02*
X017792Y030555D01*
X017913Y030617D02*
X017975Y030555D01*
X018098Y030555D01*
X018160Y030617D01*
X018160Y030864D01*
X018098Y030925D01*
X017975Y030925D01*
X017913Y030864D01*
X017913Y030802D01*
X017975Y030740D01*
X018160Y030740D01*
X019745Y030867D02*
X019807Y030805D01*
X019930Y030805D01*
X019992Y030867D01*
X020113Y030867D02*
X020113Y030928D01*
X020175Y030990D01*
X020298Y030990D01*
X020360Y030928D01*
X020360Y030867D01*
X020298Y030805D01*
X020175Y030805D01*
X020113Y030867D01*
X020175Y030990D02*
X020113Y031052D01*
X020113Y031114D01*
X020175Y031175D01*
X020298Y031175D01*
X020360Y031114D01*
X020360Y031052D01*
X020298Y030990D01*
X019992Y031114D02*
X019930Y031175D01*
X019807Y031175D01*
X019745Y031114D01*
X019745Y030867D01*
X021168Y036055D02*
X021168Y036425D01*
X021045Y036425D02*
X021292Y036425D01*
X021413Y036425D02*
X021598Y036425D01*
X021660Y036364D01*
X021660Y036240D01*
X021598Y036178D01*
X021413Y036178D01*
X021413Y036055D02*
X021413Y036425D01*
X021782Y036364D02*
X021843Y036425D01*
X021967Y036425D01*
X022029Y036364D01*
X022029Y036302D01*
X021782Y036055D01*
X022029Y036055D01*
X015474Y029425D02*
X015474Y029364D01*
X015227Y029117D01*
X015227Y029055D01*
X015105Y029117D02*
X015044Y029055D01*
X014920Y029055D01*
X014858Y029117D01*
X014858Y029364D01*
X014920Y029425D01*
X015044Y029425D01*
X015105Y029364D01*
X015227Y029425D02*
X015474Y029425D01*
X014736Y029425D02*
X014613Y029425D01*
X014675Y029425D02*
X014675Y029055D01*
X014736Y029055D02*
X014613Y029055D01*
X014595Y036305D02*
X014842Y036675D01*
X014963Y036552D02*
X015087Y036675D01*
X015087Y036305D01*
X015210Y036305D02*
X014963Y036305D01*
X014842Y036305D02*
X014595Y036675D01*
X020695Y008375D02*
X020818Y008375D01*
X020757Y008375D02*
X020757Y008005D01*
X020818Y008005D02*
X020695Y008005D01*
X020941Y008067D02*
X021002Y008005D01*
X021126Y008005D01*
X021187Y008067D01*
X021309Y008067D02*
X021371Y008005D01*
X021494Y008005D01*
X021556Y008067D01*
X021556Y008128D01*
X021494Y008190D01*
X021432Y008190D01*
X021494Y008190D02*
X021556Y008252D01*
X021556Y008314D01*
X021494Y008375D01*
X021371Y008375D01*
X021309Y008314D01*
X021187Y008314D02*
X021126Y008375D01*
X021002Y008375D01*
X020941Y008314D01*
X020941Y008067D01*
X020055Y005975D02*
X020055Y005605D01*
X019932Y005605D02*
X020179Y005605D01*
X019932Y005852D02*
X020055Y005975D01*
X019687Y005975D02*
X019687Y005605D01*
X019810Y005605D02*
X019563Y005605D01*
X019442Y005667D02*
X019380Y005605D01*
X019257Y005605D01*
X019195Y005667D01*
X019195Y005914D01*
X019257Y005975D01*
X019380Y005975D01*
X019442Y005914D01*
X019563Y005852D02*
X019687Y005975D01*
X020158Y004325D02*
X020344Y004325D01*
X020405Y004264D01*
X020405Y004140D01*
X020344Y004078D01*
X020158Y004078D01*
X020158Y003955D02*
X020158Y004325D01*
X020282Y004078D02*
X020405Y003955D01*
X020527Y004017D02*
X020588Y003955D01*
X020712Y003955D01*
X020774Y004017D01*
X020774Y004140D01*
X020712Y004202D01*
X020650Y004202D01*
X020527Y004140D01*
X020527Y004325D01*
X020774Y004325D01*
X020698Y003675D02*
X020575Y003675D01*
X020513Y003614D01*
X020513Y003552D01*
X020575Y003490D01*
X020760Y003490D01*
X020760Y003367D02*
X020760Y003614D01*
X020698Y003675D01*
X020760Y003367D02*
X020698Y003305D01*
X020575Y003305D01*
X020513Y003367D01*
X020392Y003367D02*
X020330Y003305D01*
X020207Y003305D01*
X020145Y003367D01*
X020145Y003614D01*
X020207Y003675D01*
X020330Y003675D01*
X020392Y003614D01*
X021345Y003775D02*
X021592Y003775D01*
X021713Y003775D02*
X021898Y003775D01*
X021960Y003714D01*
X021960Y003590D01*
X021898Y003528D01*
X021713Y003528D01*
X021713Y003405D02*
X021713Y003775D01*
X021468Y003775D02*
X021468Y003405D01*
X022082Y003405D02*
X022329Y003405D01*
X022205Y003405D02*
X022205Y003775D01*
X022082Y003652D01*
X017774Y003264D02*
X017712Y003325D01*
X017588Y003325D01*
X017527Y003264D01*
X017405Y003264D02*
X017344Y003325D01*
X017220Y003325D01*
X017158Y003264D01*
X017158Y003017D01*
X017220Y002955D01*
X017344Y002955D01*
X017405Y003017D01*
X017527Y002955D02*
X017774Y003202D01*
X017774Y003264D01*
X017774Y002955D02*
X017527Y002955D01*
X017036Y002955D02*
X016913Y002955D01*
X016975Y002955D02*
X016975Y003325D01*
X017036Y003325D02*
X016913Y003325D01*
X015424Y003014D02*
X015362Y003075D01*
X015238Y003075D01*
X015177Y003014D01*
X015055Y003014D02*
X015055Y002890D01*
X014994Y002828D01*
X014808Y002828D01*
X014808Y002705D02*
X014808Y003075D01*
X014994Y003075D01*
X015055Y003014D01*
X014932Y002828D02*
X015055Y002705D01*
X015177Y002705D02*
X015424Y002952D01*
X015424Y003014D01*
X015424Y002705D02*
X015177Y002705D01*
X015227Y004605D02*
X015474Y004605D01*
X015350Y004605D02*
X015350Y004975D01*
X015227Y004852D01*
X015105Y004914D02*
X015105Y004790D01*
X015044Y004728D01*
X014858Y004728D01*
X014858Y004605D02*
X014858Y004975D01*
X015044Y004975D01*
X015105Y004914D01*
X014982Y004728D02*
X015105Y004605D01*
X015758Y006255D02*
X015758Y006625D01*
X015944Y006625D01*
X016005Y006564D01*
X016005Y006440D01*
X015944Y006378D01*
X015758Y006378D01*
X015882Y006378D02*
X016005Y006255D01*
X016127Y006317D02*
X016188Y006255D01*
X016312Y006255D01*
X016374Y006317D01*
X016374Y006378D01*
X016312Y006440D01*
X016250Y006440D01*
X016312Y006440D02*
X016374Y006502D01*
X016374Y006564D01*
X016312Y006625D01*
X016188Y006625D01*
X016127Y006564D01*
X017095Y006625D02*
X017095Y006255D01*
X017095Y006378D02*
X017280Y006378D01*
X017342Y006440D01*
X017342Y006564D01*
X017280Y006625D01*
X017095Y006625D01*
X017218Y006378D02*
X017342Y006255D01*
X017463Y006440D02*
X017710Y006440D01*
X017648Y006255D02*
X017648Y006625D01*
X017463Y006440D01*
D12*
X020487Y006931D02*
X013073Y006931D01*
X013073Y009849D01*
X020487Y009849D01*
X020487Y006931D01*
X021640Y010800D02*
X019280Y010800D01*
X019280Y013380D01*
X021640Y013380D01*
X013413Y035230D02*
X012547Y035230D01*
X011720Y036057D02*
X011720Y036923D01*
X012547Y037750D02*
X013413Y037750D01*
X014240Y036923D02*
X014240Y036057D01*
X012311Y036490D02*
X012313Y036541D01*
X012319Y036592D01*
X012329Y036642D01*
X012342Y036692D01*
X012360Y036740D01*
X012380Y036787D01*
X012405Y036832D01*
X012433Y036875D01*
X012464Y036916D01*
X012498Y036954D01*
X012535Y036989D01*
X012574Y037022D01*
X012616Y037052D01*
X012660Y037078D01*
X012706Y037100D01*
X012754Y037120D01*
X012803Y037135D01*
X012853Y037147D01*
X012903Y037155D01*
X012954Y037159D01*
X013006Y037159D01*
X013057Y037155D01*
X013107Y037147D01*
X013157Y037135D01*
X013206Y037120D01*
X013254Y037100D01*
X013300Y037078D01*
X013344Y037052D01*
X013386Y037022D01*
X013425Y036989D01*
X013462Y036954D01*
X013496Y036916D01*
X013527Y036875D01*
X013555Y036832D01*
X013580Y036787D01*
X013600Y036740D01*
X013618Y036692D01*
X013631Y036642D01*
X013641Y036592D01*
X013647Y036541D01*
X013649Y036490D01*
X013647Y036439D01*
X013641Y036388D01*
X013631Y036338D01*
X013618Y036288D01*
X013600Y036240D01*
X013580Y036193D01*
X013555Y036148D01*
X013527Y036105D01*
X013496Y036064D01*
X013462Y036026D01*
X013425Y035991D01*
X013386Y035958D01*
X013344Y035928D01*
X013300Y035902D01*
X013254Y035880D01*
X013206Y035860D01*
X013157Y035845D01*
X013107Y035833D01*
X013057Y035825D01*
X013006Y035821D01*
X012954Y035821D01*
X012903Y035825D01*
X012853Y035833D01*
X012803Y035845D01*
X012754Y035860D01*
X012706Y035880D01*
X012660Y035902D01*
X012616Y035928D01*
X012574Y035958D01*
X012535Y035991D01*
X012498Y036026D01*
X012464Y036064D01*
X012433Y036105D01*
X012405Y036148D01*
X012380Y036193D01*
X012360Y036240D01*
X012342Y036288D01*
X012329Y036338D01*
X012319Y036388D01*
X012313Y036439D01*
X012311Y036490D01*
D13*
X015280Y032840D02*
X015880Y032840D01*
X016180Y032440D02*
X016180Y031940D01*
X015880Y031540D02*
X015280Y031540D01*
X014980Y031940D02*
X014980Y032440D01*
X012378Y030540D02*
X012380Y030588D01*
X012386Y030637D01*
X012395Y030684D01*
X012409Y030731D01*
X012426Y030776D01*
X012447Y030820D01*
X012471Y030862D01*
X012499Y030902D01*
X012529Y030939D01*
X012563Y030974D01*
X012599Y031006D01*
X012638Y031035D01*
X012679Y031061D01*
X012722Y031084D01*
X012767Y031103D01*
X012813Y031118D01*
X012860Y031130D01*
X012907Y031138D01*
X012956Y031142D01*
X013004Y031142D01*
X013053Y031138D01*
X013100Y031130D01*
X013147Y031118D01*
X013193Y031103D01*
X013238Y031084D01*
X013281Y031061D01*
X013322Y031035D01*
X013361Y031006D01*
X013397Y030974D01*
X013431Y030939D01*
X013461Y030902D01*
X013489Y030862D01*
X013513Y030820D01*
X013534Y030776D01*
X013551Y030731D01*
X013565Y030684D01*
X013574Y030637D01*
X013580Y030588D01*
X013582Y030540D01*
X013580Y030492D01*
X013574Y030443D01*
X013565Y030396D01*
X013551Y030349D01*
X013534Y030304D01*
X013513Y030260D01*
X013489Y030218D01*
X013461Y030178D01*
X013431Y030141D01*
X013397Y030106D01*
X013361Y030074D01*
X013322Y030045D01*
X013281Y030019D01*
X013238Y029996D01*
X013193Y029977D01*
X013147Y029962D01*
X013100Y029950D01*
X013053Y029942D01*
X013004Y029938D01*
X012956Y029938D01*
X012907Y029942D01*
X012860Y029950D01*
X012813Y029962D01*
X012767Y029977D01*
X012722Y029996D01*
X012679Y030019D01*
X012638Y030045D01*
X012599Y030074D01*
X012563Y030106D01*
X012529Y030141D01*
X012499Y030178D01*
X012471Y030218D01*
X012447Y030260D01*
X012426Y030304D01*
X012409Y030349D01*
X012395Y030396D01*
X012386Y030443D01*
X012380Y030492D01*
X012378Y030540D01*
X012339Y029540D02*
X012341Y029563D01*
X012347Y029586D01*
X012356Y029607D01*
X012369Y029627D01*
X012385Y029644D01*
X012403Y029658D01*
X012423Y029669D01*
X012445Y029677D01*
X012468Y029681D01*
X012492Y029681D01*
X012515Y029677D01*
X012537Y029669D01*
X012557Y029658D01*
X012575Y029644D01*
X012591Y029627D01*
X012604Y029607D01*
X012613Y029586D01*
X012619Y029563D01*
X012621Y029540D01*
X012619Y029517D01*
X012613Y029494D01*
X012604Y029473D01*
X012591Y029453D01*
X012575Y029436D01*
X012557Y029422D01*
X012537Y029411D01*
X012515Y029403D01*
X012492Y029399D01*
X012468Y029399D01*
X012445Y029403D01*
X012423Y029411D01*
X012403Y029422D01*
X012385Y029436D01*
X012369Y029453D01*
X012356Y029473D01*
X012347Y029494D01*
X012341Y029517D01*
X012339Y029540D01*
X012530Y025640D02*
X011380Y025640D01*
X011330Y025640D02*
X011300Y025632D01*
X011272Y025621D01*
X011245Y025606D01*
X011220Y025588D01*
X011197Y025567D01*
X011177Y025544D01*
X011160Y025518D01*
X011146Y025491D01*
X011135Y025462D01*
X011128Y025432D01*
X011125Y025401D01*
X011126Y025370D01*
X011130Y025340D01*
X011130Y024640D02*
X011180Y024640D01*
X011130Y024640D02*
X011130Y023640D01*
X011130Y022840D02*
X011130Y021840D01*
X011130Y021190D02*
X011134Y021156D01*
X011142Y021123D01*
X011154Y021091D01*
X011168Y021060D01*
X011186Y021031D01*
X011207Y021004D01*
X011230Y020979D01*
X011256Y020957D01*
X011284Y020937D01*
X011314Y020921D01*
X011346Y020908D01*
X011378Y020898D01*
X011412Y020892D01*
X011446Y020889D01*
X011480Y020890D01*
X012530Y020890D01*
X013430Y020890D02*
X014530Y020890D01*
X014560Y020886D01*
X014591Y020885D01*
X014622Y020888D01*
X014652Y020895D01*
X014681Y020906D01*
X014708Y020920D01*
X014734Y020937D01*
X014757Y020957D01*
X014778Y020980D01*
X014796Y021005D01*
X014811Y021032D01*
X014822Y021060D01*
X014830Y021090D01*
X014830Y021140D02*
X014830Y022790D01*
X014830Y023690D02*
X014830Y025490D01*
X014832Y025510D01*
X014831Y025530D01*
X014827Y025549D01*
X014820Y025568D01*
X014811Y025585D01*
X014798Y025601D01*
X014784Y025615D01*
X014767Y025626D01*
X014749Y025634D01*
X014730Y025640D01*
X013480Y025640D01*
X008930Y025540D02*
X007830Y025540D01*
X007830Y026140D01*
X008930Y026140D01*
X008930Y025540D01*
X004480Y025140D02*
X004480Y024540D01*
X003380Y024540D01*
X003380Y025140D01*
X004480Y025140D01*
X012339Y014990D02*
X012341Y015013D01*
X012347Y015036D01*
X012356Y015057D01*
X012369Y015077D01*
X012385Y015094D01*
X012403Y015108D01*
X012423Y015119D01*
X012445Y015127D01*
X012468Y015131D01*
X012492Y015131D01*
X012515Y015127D01*
X012537Y015119D01*
X012557Y015108D01*
X012575Y015094D01*
X012591Y015077D01*
X012604Y015057D01*
X012613Y015036D01*
X012619Y015013D01*
X012621Y014990D01*
X012619Y014967D01*
X012613Y014944D01*
X012604Y014923D01*
X012591Y014903D01*
X012575Y014886D01*
X012557Y014872D01*
X012537Y014861D01*
X012515Y014853D01*
X012492Y014849D01*
X012468Y014849D01*
X012445Y014853D01*
X012423Y014861D01*
X012403Y014872D01*
X012385Y014886D01*
X012369Y014903D01*
X012356Y014923D01*
X012347Y014944D01*
X012341Y014967D01*
X012339Y014990D01*
X012378Y015990D02*
X012380Y016038D01*
X012386Y016087D01*
X012395Y016134D01*
X012409Y016181D01*
X012426Y016226D01*
X012447Y016270D01*
X012471Y016312D01*
X012499Y016352D01*
X012529Y016389D01*
X012563Y016424D01*
X012599Y016456D01*
X012638Y016485D01*
X012679Y016511D01*
X012722Y016534D01*
X012767Y016553D01*
X012813Y016568D01*
X012860Y016580D01*
X012907Y016588D01*
X012956Y016592D01*
X013004Y016592D01*
X013053Y016588D01*
X013100Y016580D01*
X013147Y016568D01*
X013193Y016553D01*
X013238Y016534D01*
X013281Y016511D01*
X013322Y016485D01*
X013361Y016456D01*
X013397Y016424D01*
X013431Y016389D01*
X013461Y016352D01*
X013489Y016312D01*
X013513Y016270D01*
X013534Y016226D01*
X013551Y016181D01*
X013565Y016134D01*
X013574Y016087D01*
X013580Y016038D01*
X013582Y015990D01*
X013580Y015942D01*
X013574Y015893D01*
X013565Y015846D01*
X013551Y015799D01*
X013534Y015754D01*
X013513Y015710D01*
X013489Y015668D01*
X013461Y015628D01*
X013431Y015591D01*
X013397Y015556D01*
X013361Y015524D01*
X013322Y015495D01*
X013281Y015469D01*
X013238Y015446D01*
X013193Y015427D01*
X013147Y015412D01*
X013100Y015400D01*
X013053Y015392D01*
X013004Y015388D01*
X012956Y015388D01*
X012907Y015392D01*
X012860Y015400D01*
X012813Y015412D01*
X012767Y015427D01*
X012722Y015446D01*
X012679Y015469D01*
X012638Y015495D01*
X012599Y015524D01*
X012563Y015556D01*
X012529Y015591D01*
X012499Y015628D01*
X012471Y015668D01*
X012447Y015710D01*
X012426Y015754D01*
X012409Y015799D01*
X012395Y015846D01*
X012386Y015893D01*
X012380Y015942D01*
X012378Y015990D01*
X014630Y017340D02*
X014630Y017840D01*
X014930Y018240D02*
X015530Y018240D01*
X015830Y017840D02*
X015830Y017340D01*
X015530Y016940D02*
X014930Y016940D01*
X016430Y011490D02*
X017530Y011490D01*
X017530Y010890D01*
X016430Y010890D01*
X016430Y011490D01*
X017980Y010740D02*
X017980Y010140D01*
X019080Y010140D01*
X019080Y010740D01*
X017980Y010740D01*
X017880Y006140D02*
X016780Y006140D01*
X016780Y005540D01*
X017880Y005540D01*
X017880Y006140D01*
X018930Y005490D02*
X018930Y004890D01*
X020030Y004890D01*
X020030Y005490D01*
X018930Y005490D01*
X018930Y004490D02*
X020030Y004490D01*
X020030Y003890D01*
X018930Y003890D01*
X018930Y004490D01*
X018930Y003740D02*
X018930Y003140D01*
X020030Y003140D01*
X020030Y003740D01*
X018930Y003740D01*
X020930Y003290D02*
X020930Y002290D01*
X022630Y002290D01*
X022630Y003290D01*
X020930Y003290D01*
X024205Y003890D02*
X024280Y003815D01*
X024430Y003815D01*
X024505Y003890D01*
X024505Y003965D01*
X024430Y004040D01*
X024355Y004040D01*
X024430Y004040D02*
X024505Y004115D01*
X024505Y004190D01*
X024430Y004265D01*
X024280Y004265D01*
X024205Y004190D01*
X024665Y004190D02*
X024740Y004265D01*
X024891Y004265D01*
X024966Y004190D01*
X024966Y004115D01*
X024665Y003815D01*
X024966Y003815D01*
X016630Y005540D02*
X016630Y006140D01*
X015530Y006140D01*
X015530Y005540D01*
X016630Y005540D01*
X015680Y004490D02*
X014580Y004490D01*
X014580Y003890D01*
X015680Y003890D01*
X015680Y004490D01*
X015680Y003790D02*
X014580Y003790D01*
X014580Y003190D01*
X015680Y003190D01*
X015680Y003790D01*
X012880Y006940D02*
X012880Y008040D01*
X012280Y008040D01*
X012280Y006940D01*
X012880Y006940D01*
X012730Y010640D02*
X012730Y011140D01*
X014030Y011140D01*
X014030Y010640D01*
X013980Y010640D02*
X012730Y010640D01*
X019430Y016690D02*
X020530Y016690D01*
X020530Y017290D01*
X019430Y017290D01*
X019430Y016690D01*
X026705Y028815D02*
X026705Y029040D01*
X026780Y029115D01*
X027080Y029115D01*
X027155Y029040D01*
X027155Y028815D01*
X026705Y028815D01*
X026705Y029275D02*
X026705Y029426D01*
X026705Y029350D02*
X027155Y029350D01*
X027155Y029275D02*
X027155Y029426D01*
X027155Y029582D02*
X026705Y029582D01*
X027155Y029883D01*
X026705Y029883D01*
X026930Y030503D02*
X026705Y030728D01*
X027155Y030728D01*
X027155Y030963D02*
X027155Y031264D01*
X027155Y031114D02*
X026705Y031114D01*
X026855Y030963D01*
X026930Y030803D02*
X026930Y030503D01*
X026930Y031424D02*
X026780Y031574D01*
X026705Y031724D01*
X026855Y031884D02*
X026705Y032034D01*
X027155Y032034D01*
X027155Y031884D02*
X027155Y032185D01*
X027155Y032345D02*
X026855Y032645D01*
X026780Y032645D01*
X026705Y032570D01*
X026705Y032420D01*
X026780Y032345D01*
X027155Y032345D02*
X027155Y032645D01*
X026930Y033265D02*
X026930Y033566D01*
X026780Y033726D02*
X027080Y033726D01*
X027155Y033801D01*
X027155Y033951D01*
X027080Y034026D01*
X026780Y034026D02*
X026705Y033951D01*
X026705Y033801D01*
X026780Y033726D01*
X027005Y031724D02*
X026930Y031649D01*
X026930Y031424D01*
X027080Y031424D01*
X027155Y031499D01*
X027155Y031649D01*
X027080Y031724D01*
X027005Y031724D01*
X024505Y035315D02*
X024205Y035315D01*
X024355Y035315D02*
X024355Y035765D01*
X024205Y035615D01*
X022330Y035790D02*
X022330Y034790D01*
X020630Y034790D01*
X020630Y035790D01*
X022330Y035790D01*
X020530Y031940D02*
X019430Y031940D01*
X019430Y031340D01*
X020530Y031340D01*
X020530Y031940D01*
D14*
X023680Y032040D02*
X023680Y031540D01*
X023680Y028040D01*
X023680Y027540D01*
X023680Y024040D01*
X023680Y023540D01*
X023680Y020040D01*
X023680Y019540D01*
X023680Y016040D01*
X023680Y015540D01*
X023680Y012040D01*
X023680Y011540D01*
X023680Y008040D01*
X023680Y007540D01*
X023680Y006040D01*
X023680Y005540D01*
X023680Y004540D01*
X023680Y003290D01*
X024680Y003290D01*
X025310Y002660D01*
X025310Y001290D01*
X025930Y001290D01*
X025930Y002290D01*
X028180Y002290D01*
X028180Y037290D01*
X025930Y037290D01*
X025930Y038290D01*
X025310Y038290D01*
X025310Y036790D01*
X024810Y036290D01*
X023680Y036290D01*
X023680Y035040D01*
X023680Y034040D01*
X023680Y033540D01*
X023680Y032040D01*
X025280Y032040D01*
X025280Y033540D01*
X023680Y033540D01*
X023680Y034040D02*
X025280Y034040D01*
X025280Y035040D01*
X023680Y035040D01*
X023680Y036290D02*
X023180Y036290D01*
X023180Y038290D01*
X025310Y038290D01*
X023680Y037290D02*
X023682Y037334D01*
X023688Y037378D01*
X023698Y037421D01*
X023711Y037463D01*
X023728Y037504D01*
X023749Y037543D01*
X023773Y037580D01*
X023800Y037615D01*
X023830Y037647D01*
X023863Y037677D01*
X023899Y037703D01*
X023936Y037727D01*
X023976Y037746D01*
X024017Y037763D01*
X024060Y037775D01*
X024103Y037784D01*
X024147Y037789D01*
X024191Y037790D01*
X024235Y037787D01*
X024279Y037780D01*
X024322Y037769D01*
X024364Y037755D01*
X024404Y037737D01*
X024443Y037715D01*
X024479Y037691D01*
X024513Y037663D01*
X024545Y037632D01*
X024574Y037598D01*
X024600Y037562D01*
X024622Y037524D01*
X024641Y037484D01*
X024656Y037442D01*
X024668Y037400D01*
X024676Y037356D01*
X024680Y037312D01*
X024680Y037268D01*
X024676Y037224D01*
X024668Y037180D01*
X024656Y037138D01*
X024641Y037096D01*
X024622Y037056D01*
X024600Y037018D01*
X024574Y036982D01*
X024545Y036948D01*
X024513Y036917D01*
X024479Y036889D01*
X024443Y036865D01*
X024404Y036843D01*
X024364Y036825D01*
X024322Y036811D01*
X024279Y036800D01*
X024235Y036793D01*
X024191Y036790D01*
X024147Y036791D01*
X024103Y036796D01*
X024060Y036805D01*
X024017Y036817D01*
X023976Y036834D01*
X023936Y036853D01*
X023899Y036877D01*
X023863Y036903D01*
X023830Y036933D01*
X023800Y036965D01*
X023773Y037000D01*
X023749Y037037D01*
X023728Y037076D01*
X023711Y037117D01*
X023698Y037159D01*
X023688Y037202D01*
X023682Y037246D01*
X023680Y037290D01*
X023680Y031540D02*
X025280Y031540D01*
X025280Y028040D01*
X023680Y028040D01*
X023680Y027540D02*
X025280Y027540D01*
X025280Y024040D01*
X023680Y024040D01*
X023680Y023540D02*
X025280Y023540D01*
X025280Y020040D01*
X023680Y020040D01*
X023680Y019540D02*
X025280Y019540D01*
X025280Y016040D01*
X023680Y016040D01*
X023680Y015540D02*
X025280Y015540D01*
X025280Y012040D01*
X023680Y012040D01*
X023680Y011540D02*
X025280Y011540D01*
X025280Y008040D01*
X023680Y008040D01*
X023680Y007540D02*
X025280Y007540D01*
X025280Y006040D01*
X023680Y006040D01*
X023680Y005540D02*
X025280Y005540D01*
X025280Y004540D01*
X023680Y004540D01*
X023680Y003290D02*
X023180Y003290D01*
X023180Y001290D01*
X025310Y001290D01*
X023680Y002290D02*
X023682Y002334D01*
X023688Y002378D01*
X023698Y002421D01*
X023711Y002463D01*
X023728Y002504D01*
X023749Y002543D01*
X023773Y002580D01*
X023800Y002615D01*
X023830Y002647D01*
X023863Y002677D01*
X023899Y002703D01*
X023936Y002727D01*
X023976Y002746D01*
X024017Y002763D01*
X024060Y002775D01*
X024103Y002784D01*
X024147Y002789D01*
X024191Y002790D01*
X024235Y002787D01*
X024279Y002780D01*
X024322Y002769D01*
X024364Y002755D01*
X024404Y002737D01*
X024443Y002715D01*
X024479Y002691D01*
X024513Y002663D01*
X024545Y002632D01*
X024574Y002598D01*
X024600Y002562D01*
X024622Y002524D01*
X024641Y002484D01*
X024656Y002442D01*
X024668Y002400D01*
X024676Y002356D01*
X024680Y002312D01*
X024680Y002268D01*
X024676Y002224D01*
X024668Y002180D01*
X024656Y002138D01*
X024641Y002096D01*
X024622Y002056D01*
X024600Y002018D01*
X024574Y001982D01*
X024545Y001948D01*
X024513Y001917D01*
X024479Y001889D01*
X024443Y001865D01*
X024404Y001843D01*
X024364Y001825D01*
X024322Y001811D01*
X024279Y001800D01*
X024235Y001793D01*
X024191Y001790D01*
X024147Y001791D01*
X024103Y001796D01*
X024060Y001805D01*
X024017Y001817D01*
X023976Y001834D01*
X023936Y001853D01*
X023899Y001877D01*
X023863Y001903D01*
X023830Y001933D01*
X023800Y001965D01*
X023773Y002000D01*
X023749Y002037D01*
X023728Y002076D01*
X023711Y002117D01*
X023698Y002159D01*
X023688Y002202D01*
X023682Y002246D01*
X023680Y002290D01*
X013530Y001690D02*
X012780Y001690D01*
X012780Y005690D01*
X013530Y005690D01*
X013530Y001690D01*
X012780Y001690D02*
X011030Y001690D01*
X011030Y005690D01*
X012780Y005690D01*
X003080Y023340D02*
X002330Y023340D01*
X002330Y026340D01*
X003080Y026340D01*
X003080Y023340D01*
X002330Y023340D02*
X000580Y023340D01*
X000580Y026340D01*
X002330Y026340D01*
D15*
X023630Y037290D02*
X023632Y037337D01*
X023638Y037383D01*
X023648Y037429D01*
X023661Y037473D01*
X023679Y037517D01*
X023700Y037558D01*
X023724Y037598D01*
X023752Y037636D01*
X023783Y037671D01*
X023817Y037703D01*
X023853Y037732D01*
X023892Y037758D01*
X023932Y037781D01*
X023975Y037800D01*
X024019Y037816D01*
X024064Y037828D01*
X024110Y037836D01*
X024157Y037840D01*
X024203Y037840D01*
X024250Y037836D01*
X024296Y037828D01*
X024341Y037816D01*
X024385Y037800D01*
X024428Y037781D01*
X024468Y037758D01*
X024507Y037732D01*
X024543Y037703D01*
X024577Y037671D01*
X024608Y037636D01*
X024636Y037598D01*
X024660Y037558D01*
X024681Y037517D01*
X024699Y037473D01*
X024712Y037429D01*
X024722Y037383D01*
X024728Y037337D01*
X024730Y037290D01*
X024728Y037243D01*
X024722Y037197D01*
X024712Y037151D01*
X024699Y037107D01*
X024681Y037063D01*
X024660Y037022D01*
X024636Y036982D01*
X024608Y036944D01*
X024577Y036909D01*
X024543Y036877D01*
X024507Y036848D01*
X024468Y036822D01*
X024428Y036799D01*
X024385Y036780D01*
X024341Y036764D01*
X024296Y036752D01*
X024250Y036744D01*
X024203Y036740D01*
X024157Y036740D01*
X024110Y036744D01*
X024064Y036752D01*
X024019Y036764D01*
X023975Y036780D01*
X023932Y036799D01*
X023892Y036822D01*
X023853Y036848D01*
X023817Y036877D01*
X023783Y036909D01*
X023752Y036944D01*
X023724Y036982D01*
X023700Y037022D01*
X023679Y037063D01*
X023661Y037107D01*
X023648Y037151D01*
X023638Y037197D01*
X023632Y037243D01*
X023630Y037290D01*
X025280Y039480D02*
X025280Y000100D01*
X023630Y002290D02*
X023632Y002337D01*
X023638Y002383D01*
X023648Y002429D01*
X023661Y002473D01*
X023679Y002517D01*
X023700Y002558D01*
X023724Y002598D01*
X023752Y002636D01*
X023783Y002671D01*
X023817Y002703D01*
X023853Y002732D01*
X023892Y002758D01*
X023932Y002781D01*
X023975Y002800D01*
X024019Y002816D01*
X024064Y002828D01*
X024110Y002836D01*
X024157Y002840D01*
X024203Y002840D01*
X024250Y002836D01*
X024296Y002828D01*
X024341Y002816D01*
X024385Y002800D01*
X024428Y002781D01*
X024468Y002758D01*
X024507Y002732D01*
X024543Y002703D01*
X024577Y002671D01*
X024608Y002636D01*
X024636Y002598D01*
X024660Y002558D01*
X024681Y002517D01*
X024699Y002473D01*
X024712Y002429D01*
X024722Y002383D01*
X024728Y002337D01*
X024730Y002290D01*
X024728Y002243D01*
X024722Y002197D01*
X024712Y002151D01*
X024699Y002107D01*
X024681Y002063D01*
X024660Y002022D01*
X024636Y001982D01*
X024608Y001944D01*
X024577Y001909D01*
X024543Y001877D01*
X024507Y001848D01*
X024468Y001822D01*
X024428Y001799D01*
X024385Y001780D01*
X024341Y001764D01*
X024296Y001752D01*
X024250Y001744D01*
X024203Y001740D01*
X024157Y001740D01*
X024110Y001744D01*
X024064Y001752D01*
X024019Y001764D01*
X023975Y001780D01*
X023932Y001799D01*
X023892Y001822D01*
X023853Y001848D01*
X023817Y001877D01*
X023783Y001909D01*
X023752Y001944D01*
X023724Y001982D01*
X023700Y002022D01*
X023679Y002063D01*
X023661Y002107D01*
X023648Y002151D01*
X023638Y002197D01*
X023632Y002243D01*
X023630Y002290D01*
D16*
X023605Y004290D03*
X023605Y005290D03*
X023605Y006290D03*
X023605Y007290D03*
X023605Y008290D03*
X023605Y009290D03*
X023605Y010290D03*
X023605Y011290D03*
X023605Y012290D03*
X023605Y013290D03*
X023605Y014290D03*
X023605Y015290D03*
X023605Y016290D03*
X023605Y017290D03*
X023605Y018290D03*
X023605Y019290D03*
X023605Y020290D03*
X023605Y021290D03*
X023605Y022290D03*
X023605Y023290D03*
X023605Y024290D03*
X023605Y025290D03*
X023605Y026290D03*
X023605Y027290D03*
X023605Y028290D03*
X023605Y029290D03*
X023605Y030290D03*
X023605Y031290D03*
X023605Y032290D03*
X023605Y033290D03*
X023605Y034290D03*
X023605Y035290D03*
D17*
X003898Y024120D02*
X003718Y023940D01*
X003959Y023940D01*
X003898Y023760D02*
X003898Y024120D01*
X003590Y024120D02*
X003350Y023760D01*
X003590Y023760D02*
X003350Y024120D01*
X012050Y006270D02*
X012290Y005910D01*
X012418Y005970D02*
X012478Y005910D01*
X012598Y005910D01*
X012659Y005970D01*
X012659Y006030D01*
X012598Y006090D01*
X012538Y006090D01*
X012598Y006090D02*
X012659Y006150D01*
X012659Y006210D01*
X012598Y006270D01*
X012478Y006270D01*
X012418Y006210D01*
X012290Y006270D02*
X012050Y005910D01*
X022263Y001670D02*
X022504Y001310D01*
X022632Y001310D02*
X022872Y001550D01*
X022872Y001610D01*
X022812Y001670D01*
X022692Y001670D01*
X022632Y001610D01*
X022504Y001670D02*
X022263Y001310D01*
X022632Y001310D02*
X022872Y001310D01*
D18*
X019090Y012090D03*
D19*
X015831Y011190D03*
M02*
