%
M48
M72
T01C0.0236
T02C0.0354
T03C0.0360
T04C0.0394
T05C0.0500
T06C0.0700
T07C0.1100
%
T01
X11030Y15990
X11230Y20840
X8680Y25290
X11180Y25790
X10980Y30540
X15080Y30540
X16530Y32740
X20980Y31640
X15580Y23240
X16180Y18140
X14730Y15990
X14280Y11240
X15080Y11190
X12580Y8390
X12430Y10540
X15230Y5840
X17030Y3690
X19180Y2840
X20330Y5190
X19480Y10440
X20430Y11340
X20430Y11840
X20930Y11840
X20930Y11340
X21430Y11340
X21430Y11840
X21430Y12340
X21430Y12840
X20930Y12840
X20930Y12340
X20430Y12340
X20430Y12840
X21930Y12840
X21930Y12340
X21930Y11840
X21930Y11340
X20880Y16990
X5180Y23840
T02
X13780Y9390
X13780Y7390
X15780Y7390
X15780Y9390
X17780Y9390
X17780Y7390
X19780Y7390
X19780Y9390
T03
X23180Y9290
X23180Y10290
X23180Y11290
X23180Y12290
X23180Y13290
X23180Y14290
X23180Y15290
X23180Y16290
X23180Y17290
X23180Y18290
X23180Y19290
X23180Y20290
X23180Y21290
X23180Y22290
X23180Y23290
X23180Y24290
X23180Y25290
X23180Y26290
X23180Y27290
X23180Y28290
X23180Y29290
X23180Y30290
X23180Y31290
X23180Y32290
X23180Y33290
X23180Y34290
X23180Y35290
X23180Y8290
X23180Y7290
X23180Y6290
X23180Y5290
X23180Y4290
T04
X12280Y4190
X12280Y3190
X12280Y2190
X12280Y5190
X1830Y23840
X1830Y24840
X1830Y25840
T05
X12980Y36490
T06
X11976Y35486
X11976Y37494
X13984Y37494
X13984Y35486
T07
X24180Y37290
X24180Y2290
M30
