G75*
%MOIN*%
%OFA0B0*%
%FSLAX24Y24*%
%IPPOS*%
%LPD*%
%AMOC8*
5,1,8,0,0,1.08239X$1,22.5*
%
%ADD10C,0.0640*%
%ADD11C,0.0830*%
%ADD12C,0.1130*%
%ADD13OC8,0.0640*%
%ADD14C,0.1180*%
%ADD15C,0.0674*%
%ADD16C,0.0476*%
D10*
X013780Y007390D03*
X013780Y009390D03*
X015780Y009390D03*
X015780Y007390D03*
X017780Y007390D03*
X017780Y009390D03*
X019780Y009390D03*
X019780Y007390D03*
D11*
X012980Y036490D03*
D12*
X011976Y035486D03*
X011976Y037494D03*
X013984Y037494D03*
X013984Y035486D03*
D13*
X023180Y035290D03*
X023180Y034290D03*
X023180Y033290D03*
X023180Y032290D03*
X023180Y031290D03*
X023180Y030290D03*
X023180Y029290D03*
X023180Y028290D03*
X023180Y027290D03*
X023180Y026290D03*
X023180Y025290D03*
X023180Y024290D03*
X023180Y023290D03*
X023180Y022290D03*
X023180Y021290D03*
X023180Y020290D03*
X023180Y019290D03*
X023180Y018290D03*
X023180Y017290D03*
X023180Y016290D03*
X023180Y015290D03*
X023180Y014290D03*
X023180Y013290D03*
X023180Y012290D03*
X023180Y011290D03*
X023180Y010290D03*
X023180Y009290D03*
X023180Y008290D03*
X023180Y007290D03*
X023180Y006290D03*
X023180Y005290D03*
X023180Y004290D03*
D14*
X024180Y002290D03*
X024180Y037290D03*
D15*
X002127Y025840D02*
X001533Y025840D01*
X001533Y024840D02*
X002127Y024840D01*
X002127Y023840D02*
X001533Y023840D01*
X011983Y005190D02*
X012577Y005190D01*
X012577Y004190D02*
X011983Y004190D01*
X011983Y003190D02*
X012577Y003190D01*
X012577Y002190D02*
X011983Y002190D01*
D16*
X011030Y015990D03*
X011230Y020840D03*
X008680Y025290D03*
X011180Y025790D03*
X010980Y030540D03*
X015080Y030540D03*
X016530Y032740D03*
X020980Y031640D03*
X015580Y023240D03*
X016180Y018140D03*
X014730Y015990D03*
X014280Y011240D03*
X015080Y011190D03*
X012580Y008390D03*
X012430Y010540D03*
X015230Y005840D03*
X017030Y003690D03*
X019180Y002840D03*
X020330Y005190D03*
X019480Y010440D03*
X020430Y011340D03*
X020430Y011840D03*
X020930Y011840D03*
X020930Y011340D03*
X021430Y011340D03*
X021430Y011840D03*
X021430Y012340D03*
X021430Y012840D03*
X020930Y012840D03*
X020930Y012340D03*
X020430Y012340D03*
X020430Y012840D03*
X021930Y012840D03*
X021930Y012340D03*
X021930Y011840D03*
X021930Y011340D03*
X020880Y016990D03*
X005180Y023840D03*
M02*
