G75*
%MOIN*%
%OFA0B0*%
%FSLAX24Y24*%
%IPPOS*%
%LPD*%
%AMOC8*
5,1,8,0,0,1.08239X$1,22.5*
%
%ADD10C,0.0560*%
%ADD11C,0.0750*%
%ADD12C,0.1050*%
%ADD13OC8,0.0560*%
%ADD14C,0.0594*%
%ADD15C,0.0100*%
%ADD16C,0.0396*%
D10*
X013780Y007390D03*
X013780Y009390D03*
X015780Y009390D03*
X015780Y007390D03*
X017780Y007390D03*
X017780Y009390D03*
X019780Y009390D03*
X019780Y007390D03*
D11*
X012980Y036490D03*
D12*
X011976Y035486D03*
X011976Y037494D03*
X013984Y037494D03*
X013984Y035486D03*
D13*
X023180Y035290D03*
X023180Y034290D03*
X023180Y033290D03*
X023180Y032290D03*
X023180Y031290D03*
X023180Y030290D03*
X023180Y029290D03*
X023180Y028290D03*
X023180Y027290D03*
X023180Y026290D03*
X023180Y025290D03*
X023180Y024290D03*
X023180Y023290D03*
X023180Y022290D03*
X023180Y021290D03*
X023180Y020290D03*
X023180Y019290D03*
X023180Y018290D03*
X023180Y017290D03*
X023180Y016290D03*
X023180Y015290D03*
X023180Y014290D03*
X023180Y013290D03*
X023180Y012290D03*
X023180Y011290D03*
X023180Y010290D03*
X023180Y009290D03*
X023180Y008290D03*
X023180Y007290D03*
X023180Y006290D03*
X023180Y005290D03*
X023180Y004290D03*
D14*
X012577Y004190D02*
X011983Y004190D01*
X011983Y003190D02*
X012577Y003190D01*
X012577Y002190D02*
X011983Y002190D01*
X011983Y005190D02*
X012577Y005190D01*
X002127Y023840D02*
X001533Y023840D01*
X001533Y024840D02*
X002127Y024840D01*
X002127Y025840D02*
X001533Y025840D01*
D15*
X000680Y038210D02*
X000680Y001290D01*
X024680Y001290D01*
X024680Y001729D01*
X024605Y001654D01*
X024329Y001540D01*
X024031Y001540D01*
X023755Y001654D01*
X023544Y001865D01*
X023430Y002141D01*
X023430Y002439D01*
X023544Y002715D01*
X023755Y002926D01*
X024031Y003040D01*
X024329Y003040D01*
X024605Y002926D01*
X024680Y002851D01*
X024680Y036729D01*
X024605Y036654D01*
X024329Y036540D01*
X024031Y036540D01*
X023755Y036654D01*
X023544Y036865D01*
X023430Y037141D01*
X023430Y037439D01*
X023544Y037715D01*
X023755Y037926D01*
X024031Y038040D01*
X024329Y038040D01*
X024605Y037926D01*
X024680Y037851D01*
X024680Y038210D01*
X000680Y038210D01*
X000680Y038205D02*
X024680Y038205D01*
X024680Y038107D02*
X014269Y038107D01*
X014283Y038101D02*
X014201Y038134D01*
X014116Y038157D01*
X014034Y038168D01*
X014034Y037544D01*
X014658Y037544D01*
X014647Y037626D01*
X014624Y037711D01*
X014591Y037793D01*
X014546Y037870D01*
X014492Y037940D01*
X014430Y038002D01*
X014360Y038056D01*
X014283Y038101D01*
X014423Y038008D02*
X023954Y038008D01*
X023739Y037910D02*
X014516Y037910D01*
X014580Y037811D02*
X023640Y037811D01*
X023543Y037713D02*
X014624Y037713D01*
X014649Y037614D02*
X023502Y037614D01*
X023462Y037516D02*
X014034Y037516D01*
X014034Y037544D02*
X014034Y037444D01*
X014658Y037444D01*
X014647Y037362D01*
X014624Y037276D01*
X014591Y037195D01*
X014546Y037118D01*
X014492Y037048D01*
X014430Y036985D01*
X014360Y036931D01*
X014283Y036887D01*
X014201Y036853D01*
X014116Y036830D01*
X014034Y036820D01*
X014034Y037444D01*
X013934Y037444D01*
X013934Y036820D01*
X013852Y036830D01*
X013766Y036853D01*
X013685Y036887D01*
X013608Y036931D01*
X013538Y036985D01*
X013475Y037048D01*
X013421Y037118D01*
X013377Y037195D01*
X013343Y037276D01*
X013320Y037362D01*
X013310Y037444D01*
X013934Y037444D01*
X013934Y037544D01*
X013934Y038168D01*
X013852Y038157D01*
X013766Y038134D01*
X013685Y038101D01*
X013608Y038056D01*
X013538Y038002D01*
X013475Y037940D01*
X013421Y037870D01*
X013377Y037793D01*
X013343Y037711D01*
X013320Y037626D01*
X013310Y037544D01*
X013934Y037544D01*
X014034Y037544D01*
X014034Y037614D02*
X013934Y037614D01*
X013934Y037516D02*
X012026Y037516D01*
X012026Y037544D02*
X012650Y037544D01*
X012640Y037626D01*
X012617Y037711D01*
X012583Y037793D01*
X012539Y037870D01*
X012485Y037940D01*
X012422Y038002D01*
X012352Y038056D01*
X012275Y038101D01*
X012194Y038134D01*
X012108Y038157D01*
X012026Y038168D01*
X012026Y037544D01*
X011926Y037544D01*
X011926Y038168D01*
X011844Y038157D01*
X011759Y038134D01*
X011677Y038101D01*
X011600Y038056D01*
X011530Y038002D01*
X011468Y037940D01*
X011414Y037870D01*
X011369Y037793D01*
X011336Y037711D01*
X011313Y037626D01*
X011302Y037544D01*
X011926Y037544D01*
X011926Y037444D01*
X011302Y037444D01*
X011313Y037362D01*
X011336Y037276D01*
X011369Y037195D01*
X011414Y037118D01*
X011468Y037048D01*
X011530Y036985D01*
X011600Y036931D01*
X011677Y036887D01*
X011759Y036853D01*
X011844Y036830D01*
X011926Y036820D01*
X011926Y037444D01*
X012026Y037444D01*
X012026Y036820D01*
X012108Y036830D01*
X012194Y036853D01*
X012275Y036887D01*
X012352Y036931D01*
X012422Y036985D01*
X012485Y037048D01*
X012539Y037118D01*
X012583Y037195D01*
X012617Y037276D01*
X012640Y037362D01*
X012650Y037444D01*
X012026Y037444D01*
X012026Y037544D01*
X012026Y037614D02*
X011926Y037614D01*
X011926Y037516D02*
X000680Y037516D01*
X000680Y037614D02*
X011311Y037614D01*
X011336Y037713D02*
X000680Y037713D01*
X000680Y037811D02*
X011380Y037811D01*
X011444Y037910D02*
X000680Y037910D01*
X000680Y038008D02*
X011537Y038008D01*
X011691Y038107D02*
X000680Y038107D01*
X000680Y037417D02*
X011305Y037417D01*
X011324Y037319D02*
X000680Y037319D01*
X000680Y037220D02*
X011359Y037220D01*
X011412Y037122D02*
X000680Y037122D01*
X000680Y037023D02*
X011492Y037023D01*
X011612Y036925D02*
X000680Y036925D01*
X000680Y036826D02*
X011877Y036826D01*
X011926Y036826D02*
X012026Y036826D01*
X012075Y036826D02*
X012574Y036826D01*
X012535Y036787D02*
X012683Y036935D01*
X012876Y037015D01*
X013084Y037015D01*
X013277Y036935D01*
X013425Y036787D01*
X013505Y036594D01*
X013505Y036386D01*
X013425Y036193D01*
X013277Y036045D01*
X013084Y035965D01*
X012876Y035965D01*
X012683Y036045D01*
X012535Y036193D01*
X012455Y036386D01*
X012455Y036594D01*
X012535Y036787D01*
X012510Y036728D02*
X000680Y036728D01*
X000680Y036629D02*
X012469Y036629D01*
X012455Y036531D02*
X000680Y036531D01*
X000680Y036432D02*
X012455Y036432D01*
X012477Y036334D02*
X000680Y036334D01*
X000680Y036235D02*
X012517Y036235D01*
X012591Y036137D02*
X012156Y036137D01*
X012194Y036127D02*
X012108Y036150D01*
X012026Y036160D01*
X012026Y035536D01*
X012650Y035536D01*
X012640Y035618D01*
X012617Y035704D01*
X012583Y035785D01*
X012539Y035862D01*
X012485Y035932D01*
X012422Y035995D01*
X012352Y036049D01*
X012275Y036093D01*
X012194Y036127D01*
X012026Y036137D02*
X011926Y036137D01*
X011926Y036160D02*
X011844Y036150D01*
X011759Y036127D01*
X011677Y036093D01*
X011600Y036049D01*
X011530Y035995D01*
X011468Y035932D01*
X011414Y035862D01*
X011369Y035785D01*
X011336Y035704D01*
X011313Y035618D01*
X011302Y035536D01*
X011926Y035536D01*
X011926Y035436D01*
X012026Y035436D01*
X012026Y034812D01*
X012108Y034823D01*
X012194Y034846D01*
X012275Y034879D01*
X012352Y034924D01*
X012422Y034978D01*
X012485Y035040D01*
X012539Y035110D01*
X012583Y035187D01*
X012617Y035269D01*
X012640Y035354D01*
X012650Y035436D01*
X012026Y035436D01*
X012026Y035536D01*
X011926Y035536D01*
X011926Y036160D01*
X011926Y036038D02*
X012026Y036038D01*
X012026Y035940D02*
X011926Y035940D01*
X011926Y035841D02*
X012026Y035841D01*
X012026Y035743D02*
X011926Y035743D01*
X011926Y035644D02*
X012026Y035644D01*
X012026Y035546D02*
X011926Y035546D01*
X011926Y035447D02*
X000680Y035447D01*
X000680Y035349D02*
X011314Y035349D01*
X011313Y035354D02*
X011336Y035269D01*
X011369Y035187D01*
X011414Y035110D01*
X011468Y035040D01*
X011530Y034978D01*
X011600Y034924D01*
X011677Y034879D01*
X011759Y034846D01*
X011844Y034823D01*
X011926Y034812D01*
X011926Y035436D01*
X011302Y035436D01*
X011313Y035354D01*
X011343Y035250D02*
X000680Y035250D01*
X000680Y035152D02*
X011390Y035152D01*
X011458Y035053D02*
X000680Y035053D01*
X000680Y034955D02*
X011560Y034955D01*
X011733Y034856D02*
X000680Y034856D01*
X000680Y034758D02*
X024680Y034758D01*
X024680Y034856D02*
X014227Y034856D01*
X014201Y034846D02*
X014283Y034879D01*
X014360Y034924D01*
X014430Y034978D01*
X014492Y035040D01*
X014546Y035110D01*
X014591Y035187D01*
X014624Y035269D01*
X014647Y035354D01*
X014658Y035436D01*
X014034Y035436D01*
X014034Y035536D01*
X014658Y035536D01*
X014647Y035618D01*
X014624Y035704D01*
X014591Y035785D01*
X014546Y035862D01*
X014492Y035932D01*
X014430Y035995D01*
X014360Y036049D01*
X014283Y036093D01*
X014201Y036127D01*
X014116Y036150D01*
X014034Y036160D01*
X014034Y035536D01*
X013934Y035536D01*
X013934Y035436D01*
X014034Y035436D01*
X014034Y034812D01*
X014116Y034823D01*
X014201Y034846D01*
X014034Y034856D02*
X013934Y034856D01*
X013934Y034812D02*
X013852Y034823D01*
X013766Y034846D01*
X013685Y034879D01*
X013608Y034924D01*
X013538Y034978D01*
X013475Y035040D01*
X013421Y035110D01*
X013377Y035187D01*
X013343Y035269D01*
X013320Y035354D01*
X013310Y035436D01*
X013934Y035436D01*
X013934Y034812D01*
X013934Y034955D02*
X014034Y034955D01*
X014034Y035053D02*
X013934Y035053D01*
X013934Y035152D02*
X014034Y035152D01*
X014034Y035250D02*
X013934Y035250D01*
X013934Y035349D02*
X014034Y035349D01*
X014034Y035447D02*
X022750Y035447D01*
X022750Y035468D02*
X022750Y035330D01*
X023140Y035330D01*
X023140Y035720D01*
X023002Y035720D01*
X022750Y035468D01*
X022827Y035546D02*
X014657Y035546D01*
X014640Y035644D02*
X022926Y035644D01*
X023140Y035644D02*
X023220Y035644D01*
X023220Y035720D02*
X023358Y035720D01*
X023610Y035468D01*
X023610Y035330D01*
X023220Y035330D01*
X023220Y035250D01*
X023610Y035250D01*
X023610Y035112D01*
X023358Y034860D01*
X023220Y034860D01*
X023220Y035250D01*
X023140Y035250D01*
X023140Y034860D01*
X023002Y034860D01*
X022750Y035112D01*
X022750Y035250D01*
X023140Y035250D01*
X023140Y035330D01*
X023220Y035330D01*
X023220Y035720D01*
X023220Y035546D02*
X023140Y035546D01*
X023140Y035447D02*
X023220Y035447D01*
X023220Y035349D02*
X023140Y035349D01*
X023140Y035250D02*
X014617Y035250D01*
X014646Y035349D02*
X022750Y035349D01*
X022750Y035152D02*
X014570Y035152D01*
X014502Y035053D02*
X022809Y035053D01*
X022907Y034955D02*
X014400Y034955D01*
X013934Y035447D02*
X012026Y035447D01*
X012026Y035349D02*
X011926Y035349D01*
X011926Y035250D02*
X012026Y035250D01*
X012026Y035152D02*
X011926Y035152D01*
X011926Y035053D02*
X012026Y035053D01*
X012026Y034955D02*
X011926Y034955D01*
X011926Y034856D02*
X012026Y034856D01*
X012219Y034856D02*
X013741Y034856D01*
X013568Y034955D02*
X012392Y034955D01*
X012495Y035053D02*
X013465Y035053D01*
X013398Y035152D02*
X012562Y035152D01*
X012609Y035250D02*
X013351Y035250D01*
X013322Y035349D02*
X012638Y035349D01*
X012649Y035546D02*
X013311Y035546D01*
X013310Y035536D02*
X013934Y035536D01*
X013934Y036160D01*
X013852Y036150D01*
X013766Y036127D01*
X013685Y036093D01*
X013608Y036049D01*
X013538Y035995D01*
X013475Y035932D01*
X013421Y035862D01*
X013377Y035785D01*
X013343Y035704D01*
X013320Y035618D01*
X013310Y035536D01*
X013327Y035644D02*
X012633Y035644D01*
X012600Y035743D02*
X013360Y035743D01*
X013409Y035841D02*
X012551Y035841D01*
X012477Y035940D02*
X013483Y035940D01*
X013594Y036038D02*
X013261Y036038D01*
X013369Y036137D02*
X013804Y036137D01*
X013934Y036137D02*
X014034Y036137D01*
X014034Y036038D02*
X013934Y036038D01*
X013934Y035940D02*
X014034Y035940D01*
X014034Y035841D02*
X013934Y035841D01*
X013934Y035743D02*
X014034Y035743D01*
X014034Y035644D02*
X013934Y035644D01*
X013934Y035546D02*
X014034Y035546D01*
X014373Y036038D02*
X024680Y036038D01*
X024680Y035940D02*
X014485Y035940D01*
X014558Y035841D02*
X024680Y035841D01*
X024680Y035743D02*
X014608Y035743D01*
X014164Y036137D02*
X024680Y036137D01*
X024680Y036235D02*
X013443Y036235D01*
X013483Y036334D02*
X024680Y036334D01*
X024680Y036432D02*
X013505Y036432D01*
X013505Y036531D02*
X024680Y036531D01*
X024680Y036629D02*
X024544Y036629D01*
X024678Y036728D02*
X024680Y036728D01*
X024680Y035644D02*
X023434Y035644D01*
X023533Y035546D02*
X024680Y035546D01*
X024680Y035447D02*
X023610Y035447D01*
X023610Y035349D02*
X024680Y035349D01*
X024680Y035250D02*
X023220Y035250D01*
X023220Y035152D02*
X023140Y035152D01*
X023140Y035053D02*
X023220Y035053D01*
X023220Y034955D02*
X023140Y034955D01*
X023002Y034720D02*
X022750Y034468D01*
X022750Y034112D01*
X023002Y033860D01*
X023358Y033860D01*
X023610Y034112D01*
X023610Y034468D01*
X023358Y034720D01*
X023002Y034720D01*
X022941Y034659D02*
X000680Y034659D01*
X000680Y034561D02*
X022842Y034561D01*
X022750Y034462D02*
X000680Y034462D01*
X000680Y034364D02*
X022750Y034364D01*
X022750Y034265D02*
X000680Y034265D01*
X000680Y034167D02*
X022750Y034167D01*
X022794Y034068D02*
X000680Y034068D01*
X000680Y033970D02*
X022892Y033970D01*
X022991Y033871D02*
X000680Y033871D01*
X000680Y033773D02*
X024680Y033773D01*
X024680Y033871D02*
X023369Y033871D01*
X023468Y033970D02*
X024680Y033970D01*
X024680Y034068D02*
X023566Y034068D01*
X023610Y034167D02*
X024680Y034167D01*
X024680Y034265D02*
X023610Y034265D01*
X023610Y034364D02*
X024680Y034364D01*
X024680Y034462D02*
X023610Y034462D01*
X023518Y034561D02*
X024680Y034561D01*
X024680Y034659D02*
X023419Y034659D01*
X023453Y034955D02*
X024680Y034955D01*
X024680Y035053D02*
X023551Y035053D01*
X023610Y035152D02*
X024680Y035152D01*
X024680Y033674D02*
X023404Y033674D01*
X023358Y033720D02*
X023002Y033720D01*
X022750Y033468D01*
X022750Y033112D01*
X023002Y032860D01*
X023358Y032860D01*
X023610Y033112D01*
X023610Y033468D01*
X023358Y033720D01*
X023503Y033576D02*
X024680Y033576D01*
X024680Y033477D02*
X023601Y033477D01*
X023610Y033379D02*
X024680Y033379D01*
X024680Y033280D02*
X023610Y033280D01*
X023610Y033182D02*
X024680Y033182D01*
X024680Y033083D02*
X023581Y033083D01*
X023483Y032985D02*
X024680Y032985D01*
X024680Y032886D02*
X023384Y032886D01*
X023358Y032720D02*
X023002Y032720D01*
X022750Y032468D01*
X022750Y032112D01*
X023002Y031860D01*
X023358Y031860D01*
X023610Y032112D01*
X023610Y032468D01*
X023358Y032720D01*
X023389Y032689D02*
X024680Y032689D01*
X024680Y032591D02*
X023488Y032591D01*
X023586Y032492D02*
X024680Y032492D01*
X024680Y032394D02*
X023610Y032394D01*
X023610Y032295D02*
X024680Y032295D01*
X024680Y032197D02*
X023610Y032197D01*
X023596Y032098D02*
X024680Y032098D01*
X024680Y032000D02*
X023498Y032000D01*
X023399Y031901D02*
X024680Y031901D01*
X024680Y031803D02*
X000680Y031803D01*
X000680Y031901D02*
X022961Y031901D01*
X022862Y032000D02*
X000680Y032000D01*
X000680Y032098D02*
X022764Y032098D01*
X022750Y032197D02*
X000680Y032197D01*
X000680Y032295D02*
X022750Y032295D01*
X022750Y032394D02*
X000680Y032394D01*
X000680Y032492D02*
X022774Y032492D01*
X022872Y032591D02*
X000680Y032591D01*
X000680Y032689D02*
X022971Y032689D01*
X022976Y032886D02*
X000680Y032886D01*
X000680Y032788D02*
X024680Y032788D01*
X024680Y031704D02*
X023374Y031704D01*
X023358Y031720D02*
X023002Y031720D01*
X022750Y031468D01*
X022750Y031112D01*
X023002Y030860D01*
X023358Y030860D01*
X023610Y031112D01*
X023610Y031468D01*
X023358Y031720D01*
X023473Y031606D02*
X024680Y031606D01*
X024680Y031507D02*
X023571Y031507D01*
X023610Y031409D02*
X024680Y031409D01*
X024680Y031310D02*
X023610Y031310D01*
X023610Y031212D02*
X024680Y031212D01*
X024680Y031113D02*
X023610Y031113D01*
X023513Y031015D02*
X024680Y031015D01*
X024680Y030916D02*
X023414Y030916D01*
X023358Y030720D02*
X023002Y030720D01*
X022750Y030468D01*
X022750Y030112D01*
X023002Y029860D01*
X023358Y029860D01*
X023610Y030112D01*
X023610Y030468D01*
X023358Y030720D01*
X023359Y030719D02*
X024680Y030719D01*
X024680Y030621D02*
X023458Y030621D01*
X023556Y030522D02*
X024680Y030522D01*
X024680Y030424D02*
X023610Y030424D01*
X023610Y030325D02*
X024680Y030325D01*
X024680Y030227D02*
X023610Y030227D01*
X023610Y030128D02*
X024680Y030128D01*
X024680Y030030D02*
X023528Y030030D01*
X023429Y029931D02*
X024680Y029931D01*
X024680Y029833D02*
X000680Y029833D01*
X000680Y029931D02*
X022931Y029931D01*
X022832Y030030D02*
X000680Y030030D01*
X000680Y030128D02*
X022750Y030128D01*
X022750Y030227D02*
X000680Y030227D01*
X000680Y030325D02*
X022750Y030325D01*
X022750Y030424D02*
X000680Y030424D01*
X000680Y030522D02*
X022804Y030522D01*
X022902Y030621D02*
X000680Y030621D01*
X000680Y030719D02*
X023001Y030719D01*
X022946Y030916D02*
X000680Y030916D01*
X000680Y030818D02*
X024680Y030818D01*
X024680Y029734D02*
X000680Y029734D01*
X000680Y029636D02*
X022917Y029636D01*
X023002Y029720D02*
X022750Y029468D01*
X022750Y029112D01*
X023002Y028860D01*
X023358Y028860D01*
X023610Y029112D01*
X023610Y029468D01*
X023358Y029720D01*
X023002Y029720D01*
X022819Y029537D02*
X000680Y029537D01*
X000680Y029439D02*
X022750Y029439D01*
X022750Y029340D02*
X000680Y029340D01*
X000680Y029242D02*
X022750Y029242D01*
X022750Y029143D02*
X000680Y029143D01*
X000680Y029045D02*
X022817Y029045D01*
X022916Y028946D02*
X000680Y028946D01*
X000680Y028848D02*
X024680Y028848D01*
X024680Y028946D02*
X023444Y028946D01*
X023543Y029045D02*
X024680Y029045D01*
X024680Y029143D02*
X023610Y029143D01*
X023610Y029242D02*
X024680Y029242D01*
X024680Y029340D02*
X023610Y029340D01*
X023610Y029439D02*
X024680Y029439D01*
X024680Y029537D02*
X023541Y029537D01*
X023443Y029636D02*
X024680Y029636D01*
X024680Y028749D02*
X000680Y028749D01*
X000680Y028651D02*
X022932Y028651D01*
X023002Y028720D02*
X022750Y028468D01*
X022750Y028112D01*
X023002Y027860D01*
X023358Y027860D01*
X023610Y028112D01*
X023610Y028468D01*
X023358Y028720D01*
X023002Y028720D01*
X022834Y028552D02*
X000680Y028552D01*
X000680Y028454D02*
X022750Y028454D01*
X022750Y028355D02*
X000680Y028355D01*
X000680Y028257D02*
X022750Y028257D01*
X022750Y028158D02*
X000680Y028158D01*
X000680Y028060D02*
X022802Y028060D01*
X022901Y027961D02*
X000680Y027961D01*
X000680Y027863D02*
X022999Y027863D01*
X023002Y027720D02*
X022750Y027468D01*
X022750Y027112D01*
X023002Y026860D01*
X023358Y026860D01*
X023610Y027112D01*
X023610Y027468D01*
X023358Y027720D01*
X023002Y027720D01*
X022947Y027666D02*
X000680Y027666D01*
X000680Y027764D02*
X024680Y027764D01*
X024680Y027666D02*
X023413Y027666D01*
X023511Y027567D02*
X024680Y027567D01*
X024680Y027469D02*
X023610Y027469D01*
X023610Y027370D02*
X024680Y027370D01*
X024680Y027272D02*
X023610Y027272D01*
X023610Y027173D02*
X024680Y027173D01*
X024680Y027075D02*
X023573Y027075D01*
X023474Y026976D02*
X024680Y026976D01*
X024680Y026878D02*
X023376Y026878D01*
X023358Y026720D02*
X023002Y026720D01*
X022750Y026468D01*
X022750Y026112D01*
X023002Y025860D01*
X023358Y025860D01*
X023610Y026112D01*
X023610Y026468D01*
X023358Y026720D01*
X023398Y026681D02*
X024680Y026681D01*
X024680Y026779D02*
X000680Y026779D01*
X000680Y026681D02*
X022962Y026681D01*
X022864Y026582D02*
X000680Y026582D01*
X000680Y026484D02*
X022765Y026484D01*
X022750Y026385D02*
X000680Y026385D01*
X000680Y026287D02*
X001444Y026287D01*
X001280Y026219D01*
X001154Y026093D01*
X001086Y025929D01*
X001086Y025751D01*
X001154Y025587D01*
X001280Y025461D01*
X001444Y025393D01*
X002216Y025393D01*
X002380Y025461D01*
X002506Y025587D01*
X002574Y025751D01*
X002574Y025929D01*
X002506Y026093D01*
X002380Y026219D01*
X002216Y026287D01*
X001444Y026287D01*
X001249Y026188D02*
X000680Y026188D01*
X000680Y026090D02*
X001153Y026090D01*
X001112Y025991D02*
X000680Y025991D01*
X000680Y025893D02*
X001086Y025893D01*
X001086Y025794D02*
X000680Y025794D01*
X000680Y025696D02*
X001109Y025696D01*
X001150Y025597D02*
X000680Y025597D01*
X000680Y025499D02*
X001243Y025499D01*
X001428Y025400D02*
X000680Y025400D01*
X000680Y025302D02*
X022750Y025302D01*
X022750Y025400D02*
X002232Y025400D01*
X002216Y025287D02*
X002380Y025219D01*
X002506Y025093D01*
X002574Y024929D01*
X002574Y024751D01*
X002506Y024587D01*
X002380Y024461D01*
X002216Y024393D01*
X001444Y024393D01*
X001280Y024461D01*
X001154Y024587D01*
X001086Y024751D01*
X001086Y024929D01*
X001154Y025093D01*
X001280Y025219D01*
X001444Y025287D01*
X002216Y025287D01*
X002396Y025203D02*
X022750Y025203D01*
X022750Y025112D02*
X023002Y024860D01*
X023358Y024860D01*
X023610Y025112D01*
X023610Y025468D01*
X023358Y025720D01*
X023002Y025720D01*
X022750Y025468D01*
X022750Y025112D01*
X022757Y025105D02*
X002494Y025105D01*
X002542Y025006D02*
X022856Y025006D01*
X022954Y024908D02*
X002574Y024908D01*
X002574Y024809D02*
X024680Y024809D01*
X024680Y024711D02*
X023368Y024711D01*
X023358Y024720D02*
X023002Y024720D01*
X022750Y024468D01*
X022750Y024112D01*
X023002Y023860D01*
X023358Y023860D01*
X023610Y024112D01*
X023610Y024468D01*
X023358Y024720D01*
X023466Y024612D02*
X024680Y024612D01*
X024680Y024514D02*
X023565Y024514D01*
X023610Y024415D02*
X024680Y024415D01*
X024680Y024317D02*
X023610Y024317D01*
X023610Y024218D02*
X024680Y024218D01*
X024680Y024120D02*
X023610Y024120D01*
X023519Y024021D02*
X024680Y024021D01*
X024680Y023923D02*
X023421Y023923D01*
X023358Y023720D02*
X023002Y023720D01*
X022750Y023468D01*
X022750Y023112D01*
X023002Y022860D01*
X023358Y022860D01*
X023610Y023112D01*
X023610Y023468D01*
X023358Y023720D01*
X023451Y023627D02*
X024680Y023627D01*
X024680Y023529D02*
X023550Y023529D01*
X023610Y023430D02*
X024680Y023430D01*
X024680Y023332D02*
X023610Y023332D01*
X023610Y023233D02*
X024680Y023233D01*
X024680Y023135D02*
X023610Y023135D01*
X023534Y023036D02*
X024680Y023036D01*
X024680Y022938D02*
X023436Y022938D01*
X023358Y022720D02*
X023002Y022720D01*
X022750Y022468D01*
X022750Y022112D01*
X023002Y021860D01*
X023358Y021860D01*
X023610Y022112D01*
X023610Y022468D01*
X023358Y022720D01*
X023436Y022642D02*
X024680Y022642D01*
X024680Y022544D02*
X023535Y022544D01*
X023610Y022445D02*
X024680Y022445D01*
X024680Y022347D02*
X023610Y022347D01*
X023610Y022248D02*
X024680Y022248D01*
X024680Y022150D02*
X023610Y022150D01*
X023549Y022051D02*
X024680Y022051D01*
X024680Y021953D02*
X023451Y021953D01*
X023358Y021720D02*
X023002Y021720D01*
X022750Y021468D01*
X022750Y021112D01*
X023002Y020860D01*
X023358Y020860D01*
X023610Y021112D01*
X023610Y021468D01*
X023358Y021720D01*
X023421Y021657D02*
X024680Y021657D01*
X024680Y021559D02*
X023520Y021559D01*
X023610Y021460D02*
X024680Y021460D01*
X024680Y021362D02*
X023610Y021362D01*
X023610Y021263D02*
X024680Y021263D01*
X024680Y021165D02*
X023610Y021165D01*
X023564Y021066D02*
X024680Y021066D01*
X024680Y020968D02*
X023466Y020968D01*
X023367Y020869D02*
X024680Y020869D01*
X024680Y020771D02*
X000680Y020771D01*
X000680Y020869D02*
X022993Y020869D01*
X022894Y020968D02*
X000680Y020968D01*
X000680Y021066D02*
X022796Y021066D01*
X022750Y021165D02*
X000680Y021165D01*
X000680Y021263D02*
X022750Y021263D01*
X022750Y021362D02*
X000680Y021362D01*
X000680Y021460D02*
X022750Y021460D01*
X022840Y021559D02*
X000680Y021559D01*
X000680Y021657D02*
X022939Y021657D01*
X022909Y021953D02*
X000680Y021953D01*
X000680Y022051D02*
X022811Y022051D01*
X022750Y022150D02*
X000680Y022150D01*
X000680Y022248D02*
X022750Y022248D01*
X022750Y022347D02*
X000680Y022347D01*
X000680Y022445D02*
X022750Y022445D01*
X022825Y022544D02*
X000680Y022544D01*
X000680Y022642D02*
X022924Y022642D01*
X022924Y022938D02*
X000680Y022938D01*
X000680Y023036D02*
X022826Y023036D01*
X022750Y023135D02*
X000680Y023135D01*
X000680Y023233D02*
X022750Y023233D01*
X022750Y023332D02*
X000680Y023332D01*
X000680Y023430D02*
X001353Y023430D01*
X001362Y023426D02*
X001429Y023404D01*
X001498Y023393D01*
X001782Y023393D01*
X001782Y023792D01*
X001878Y023792D01*
X001878Y023393D01*
X002162Y023393D01*
X002231Y023404D01*
X002298Y023426D01*
X002361Y023458D01*
X002418Y023499D01*
X002468Y023549D01*
X002509Y023606D01*
X002541Y023668D01*
X002563Y023735D01*
X002572Y023792D01*
X001878Y023792D01*
X001878Y023888D01*
X001782Y023888D01*
X001782Y023792D01*
X001088Y023792D01*
X001097Y023735D01*
X001119Y023668D01*
X001151Y023606D01*
X001192Y023549D01*
X001242Y023499D01*
X001299Y023458D01*
X001362Y023426D01*
X001213Y023529D02*
X000680Y023529D01*
X000680Y023627D02*
X001140Y023627D01*
X001100Y023726D02*
X000680Y023726D01*
X000680Y023824D02*
X001782Y023824D01*
X001782Y023888D02*
X001088Y023888D01*
X001097Y023945D01*
X001119Y024012D01*
X001151Y024074D01*
X001192Y024131D01*
X001242Y024181D01*
X001299Y024222D01*
X001362Y024254D01*
X001429Y024276D01*
X001498Y024287D01*
X001782Y024287D01*
X001782Y023888D01*
X001782Y023923D02*
X001878Y023923D01*
X001878Y023888D02*
X001878Y024287D01*
X002162Y024287D01*
X002231Y024276D01*
X002298Y024254D01*
X002361Y024222D01*
X002418Y024181D01*
X002468Y024131D01*
X002509Y024074D01*
X002541Y024012D01*
X002563Y023945D01*
X002572Y023888D01*
X001878Y023888D01*
X001878Y023824D02*
X024680Y023824D01*
X024680Y023726D02*
X002560Y023726D01*
X002520Y023627D02*
X022909Y023627D01*
X022810Y023529D02*
X002447Y023529D01*
X002307Y023430D02*
X022750Y023430D01*
X022939Y023923D02*
X002566Y023923D01*
X002536Y024021D02*
X022841Y024021D01*
X022750Y024120D02*
X002476Y024120D01*
X002367Y024218D02*
X022750Y024218D01*
X022750Y024317D02*
X000680Y024317D01*
X000680Y024415D02*
X001391Y024415D01*
X001228Y024514D02*
X000680Y024514D01*
X000680Y024612D02*
X001144Y024612D01*
X001103Y024711D02*
X000680Y024711D01*
X000680Y024809D02*
X001086Y024809D01*
X001086Y024908D02*
X000680Y024908D01*
X000680Y025006D02*
X001118Y025006D01*
X001166Y025105D02*
X000680Y025105D01*
X000680Y025203D02*
X001264Y025203D01*
X001293Y024218D02*
X000680Y024218D01*
X000680Y024120D02*
X001184Y024120D01*
X001124Y024021D02*
X000680Y024021D01*
X000680Y023923D02*
X001094Y023923D01*
X001782Y024021D02*
X001878Y024021D01*
X001878Y024120D02*
X001782Y024120D01*
X001782Y024218D02*
X001878Y024218D01*
X002269Y024415D02*
X022750Y024415D01*
X022795Y024514D02*
X002432Y024514D01*
X002516Y024612D02*
X022894Y024612D01*
X022992Y024711D02*
X002557Y024711D01*
X002417Y025499D02*
X022780Y025499D01*
X022879Y025597D02*
X002510Y025597D01*
X002551Y025696D02*
X022977Y025696D01*
X022969Y025893D02*
X002574Y025893D01*
X002574Y025794D02*
X024680Y025794D01*
X024680Y025696D02*
X023383Y025696D01*
X023481Y025597D02*
X024680Y025597D01*
X024680Y025499D02*
X023580Y025499D01*
X023610Y025400D02*
X024680Y025400D01*
X024680Y025302D02*
X023610Y025302D01*
X023610Y025203D02*
X024680Y025203D01*
X024680Y025105D02*
X023603Y025105D01*
X023504Y025006D02*
X024680Y025006D01*
X024680Y024908D02*
X023406Y024908D01*
X023391Y025893D02*
X024680Y025893D01*
X024680Y025991D02*
X023489Y025991D01*
X023588Y026090D02*
X024680Y026090D01*
X024680Y026188D02*
X023610Y026188D01*
X023610Y026287D02*
X024680Y026287D01*
X024680Y026385D02*
X023610Y026385D01*
X023595Y026484D02*
X024680Y026484D01*
X024680Y026582D02*
X023496Y026582D01*
X022984Y026878D02*
X000680Y026878D01*
X000680Y026976D02*
X022886Y026976D01*
X022787Y027075D02*
X000680Y027075D01*
X000680Y027173D02*
X022750Y027173D01*
X022750Y027272D02*
X000680Y027272D01*
X000680Y027370D02*
X022750Y027370D01*
X022750Y027469D02*
X000680Y027469D01*
X000680Y027567D02*
X022849Y027567D01*
X023361Y027863D02*
X024680Y027863D01*
X024680Y027961D02*
X023459Y027961D01*
X023558Y028060D02*
X024680Y028060D01*
X024680Y028158D02*
X023610Y028158D01*
X023610Y028257D02*
X024680Y028257D01*
X024680Y028355D02*
X023610Y028355D01*
X023610Y028454D02*
X024680Y028454D01*
X024680Y028552D02*
X023526Y028552D01*
X023428Y028651D02*
X024680Y028651D01*
X022847Y031015D02*
X000680Y031015D01*
X000680Y031113D02*
X022750Y031113D01*
X022750Y031212D02*
X000680Y031212D01*
X000680Y031310D02*
X022750Y031310D01*
X022750Y031409D02*
X000680Y031409D01*
X000680Y031507D02*
X022789Y031507D01*
X022887Y031606D02*
X000680Y031606D01*
X000680Y031704D02*
X022986Y031704D01*
X022877Y032985D02*
X000680Y032985D01*
X000680Y033083D02*
X022779Y033083D01*
X022750Y033182D02*
X000680Y033182D01*
X000680Y033280D02*
X022750Y033280D01*
X022750Y033379D02*
X000680Y033379D01*
X000680Y033477D02*
X022759Y033477D01*
X022857Y033576D02*
X000680Y033576D01*
X000680Y033674D02*
X022956Y033674D01*
X023816Y036629D02*
X013491Y036629D01*
X013450Y036728D02*
X023682Y036728D01*
X023583Y036826D02*
X014083Y036826D01*
X014034Y036826D02*
X013934Y036826D01*
X013885Y036826D02*
X013386Y036826D01*
X013288Y036925D02*
X013620Y036925D01*
X013500Y037023D02*
X012460Y037023D01*
X012541Y037122D02*
X013419Y037122D01*
X013367Y037220D02*
X012593Y037220D01*
X012628Y037319D02*
X013332Y037319D01*
X013313Y037417D02*
X012647Y037417D01*
X012641Y037614D02*
X013319Y037614D01*
X013344Y037713D02*
X012616Y037713D01*
X012572Y037811D02*
X013388Y037811D01*
X013452Y037910D02*
X012508Y037910D01*
X012415Y038008D02*
X013545Y038008D01*
X013699Y038107D02*
X012261Y038107D01*
X012026Y038107D02*
X011926Y038107D01*
X011926Y038008D02*
X012026Y038008D01*
X012026Y037910D02*
X011926Y037910D01*
X011926Y037811D02*
X012026Y037811D01*
X012026Y037713D02*
X011926Y037713D01*
X011926Y037417D02*
X012026Y037417D01*
X012026Y037319D02*
X011926Y037319D01*
X011926Y037220D02*
X012026Y037220D01*
X012026Y037122D02*
X011926Y037122D01*
X011926Y037023D02*
X012026Y037023D01*
X012026Y036925D02*
X011926Y036925D01*
X012340Y036925D02*
X012672Y036925D01*
X012699Y036038D02*
X012366Y036038D01*
X011796Y036137D02*
X000680Y036137D01*
X000680Y036038D02*
X011587Y036038D01*
X011475Y035940D02*
X000680Y035940D01*
X000680Y035841D02*
X011402Y035841D01*
X011352Y035743D02*
X000680Y035743D01*
X000680Y035644D02*
X011320Y035644D01*
X011303Y035546D02*
X000680Y035546D01*
X002216Y026287D02*
X022750Y026287D01*
X022750Y026188D02*
X002411Y026188D01*
X002507Y026090D02*
X022772Y026090D01*
X022871Y025991D02*
X002548Y025991D01*
X001878Y023726D02*
X001782Y023726D01*
X001782Y023627D02*
X001878Y023627D01*
X001878Y023529D02*
X001782Y023529D01*
X001782Y023430D02*
X001878Y023430D01*
X000680Y022839D02*
X024680Y022839D01*
X024680Y022741D02*
X000680Y022741D01*
X000680Y021854D02*
X024680Y021854D01*
X024680Y021756D02*
X000680Y021756D01*
X000680Y020672D02*
X022954Y020672D01*
X023002Y020720D02*
X022750Y020468D01*
X022750Y020112D01*
X023002Y019860D01*
X023358Y019860D01*
X023610Y020112D01*
X023610Y020468D01*
X023358Y020720D01*
X023002Y020720D01*
X022855Y020574D02*
X000680Y020574D01*
X000680Y020475D02*
X022757Y020475D01*
X022750Y020377D02*
X000680Y020377D01*
X000680Y020278D02*
X022750Y020278D01*
X022750Y020180D02*
X000680Y020180D01*
X000680Y020081D02*
X022781Y020081D01*
X022879Y019983D02*
X000680Y019983D01*
X000680Y019884D02*
X022978Y019884D01*
X023002Y019720D02*
X022750Y019468D01*
X022750Y019112D01*
X023002Y018860D01*
X023358Y018860D01*
X023610Y019112D01*
X023610Y019468D01*
X023358Y019720D01*
X023002Y019720D01*
X022969Y019687D02*
X000680Y019687D01*
X000680Y019589D02*
X022870Y019589D01*
X022772Y019490D02*
X000680Y019490D01*
X000680Y019392D02*
X022750Y019392D01*
X022750Y019293D02*
X000680Y019293D01*
X000680Y019195D02*
X022750Y019195D01*
X022766Y019096D02*
X000680Y019096D01*
X000680Y018998D02*
X022864Y018998D01*
X022963Y018899D02*
X000680Y018899D01*
X000680Y018801D02*
X024680Y018801D01*
X024680Y018899D02*
X023397Y018899D01*
X023496Y018998D02*
X024680Y018998D01*
X024680Y019096D02*
X023594Y019096D01*
X023610Y019195D02*
X024680Y019195D01*
X024680Y019293D02*
X023610Y019293D01*
X023610Y019392D02*
X024680Y019392D01*
X024680Y019490D02*
X023588Y019490D01*
X023490Y019589D02*
X024680Y019589D01*
X024680Y019687D02*
X023391Y019687D01*
X023382Y019884D02*
X024680Y019884D01*
X024680Y019786D02*
X000680Y019786D01*
X000680Y018702D02*
X022984Y018702D01*
X023002Y018720D02*
X022750Y018468D01*
X022750Y018112D01*
X023002Y017860D01*
X023358Y017860D01*
X023610Y018112D01*
X023610Y018468D01*
X023358Y018720D01*
X023002Y018720D01*
X022885Y018604D02*
X000680Y018604D01*
X000680Y018505D02*
X022787Y018505D01*
X022750Y018407D02*
X000680Y018407D01*
X000680Y018308D02*
X022750Y018308D01*
X022750Y018210D02*
X000680Y018210D01*
X000680Y018111D02*
X022751Y018111D01*
X022849Y018013D02*
X000680Y018013D01*
X000680Y017914D02*
X022948Y017914D01*
X023002Y017720D02*
X022750Y017468D01*
X022750Y017112D01*
X023002Y016860D01*
X023358Y016860D01*
X023610Y017112D01*
X023610Y017468D01*
X023358Y017720D01*
X023002Y017720D01*
X022999Y017717D02*
X000680Y017717D01*
X000680Y017619D02*
X022900Y017619D01*
X022802Y017520D02*
X000680Y017520D01*
X000680Y017422D02*
X022750Y017422D01*
X022750Y017323D02*
X000680Y017323D01*
X000680Y017225D02*
X022750Y017225D01*
X022750Y017126D02*
X000680Y017126D01*
X000680Y017028D02*
X022834Y017028D01*
X022933Y016929D02*
X000680Y016929D01*
X000680Y016831D02*
X024680Y016831D01*
X024680Y016929D02*
X023427Y016929D01*
X023526Y017028D02*
X024680Y017028D01*
X024680Y017126D02*
X023610Y017126D01*
X023610Y017225D02*
X024680Y017225D01*
X024680Y017323D02*
X023610Y017323D01*
X023610Y017422D02*
X024680Y017422D01*
X024680Y017520D02*
X023558Y017520D01*
X023460Y017619D02*
X024680Y017619D01*
X024680Y017717D02*
X023361Y017717D01*
X023412Y017914D02*
X024680Y017914D01*
X024680Y017816D02*
X000680Y017816D01*
X000680Y016732D02*
X024680Y016732D01*
X024680Y016634D02*
X023445Y016634D01*
X023358Y016720D02*
X023002Y016720D01*
X022750Y016468D01*
X022750Y016112D01*
X023002Y015860D01*
X023358Y015860D01*
X023610Y016112D01*
X023610Y016468D01*
X023358Y016720D01*
X023543Y016535D02*
X024680Y016535D01*
X024680Y016437D02*
X023610Y016437D01*
X023610Y016338D02*
X024680Y016338D01*
X024680Y016240D02*
X023610Y016240D01*
X023610Y016141D02*
X024680Y016141D01*
X024680Y016043D02*
X023541Y016043D01*
X023442Y015944D02*
X024680Y015944D01*
X024680Y015846D02*
X000680Y015846D01*
X000680Y015944D02*
X022918Y015944D01*
X022819Y016043D02*
X000680Y016043D01*
X000680Y016141D02*
X022750Y016141D01*
X022750Y016240D02*
X000680Y016240D01*
X000680Y016338D02*
X022750Y016338D01*
X022750Y016437D02*
X000680Y016437D01*
X000680Y016535D02*
X022817Y016535D01*
X022915Y016634D02*
X000680Y016634D01*
X000680Y015747D02*
X024680Y015747D01*
X024680Y015649D02*
X023430Y015649D01*
X023358Y015720D02*
X023002Y015720D01*
X022750Y015468D01*
X022750Y015112D01*
X023002Y014860D01*
X023358Y014860D01*
X023610Y015112D01*
X023610Y015468D01*
X023358Y015720D01*
X023528Y015550D02*
X024680Y015550D01*
X024680Y015452D02*
X023610Y015452D01*
X023610Y015353D02*
X024680Y015353D01*
X024680Y015255D02*
X023610Y015255D01*
X023610Y015156D02*
X024680Y015156D01*
X024680Y015058D02*
X023556Y015058D01*
X023457Y014959D02*
X024680Y014959D01*
X024680Y014861D02*
X023359Y014861D01*
X023358Y014720D02*
X023002Y014720D01*
X022750Y014468D01*
X022750Y014112D01*
X023002Y013860D01*
X023358Y013860D01*
X023610Y014112D01*
X023610Y014468D01*
X023358Y014720D01*
X023415Y014664D02*
X024680Y014664D01*
X024680Y014762D02*
X000680Y014762D01*
X000680Y014664D02*
X022945Y014664D01*
X022847Y014565D02*
X000680Y014565D01*
X000680Y014467D02*
X022750Y014467D01*
X022750Y014368D02*
X000680Y014368D01*
X000680Y014270D02*
X022750Y014270D01*
X022750Y014171D02*
X000680Y014171D01*
X000680Y014073D02*
X022789Y014073D01*
X022888Y013974D02*
X000680Y013974D01*
X000680Y013876D02*
X022986Y013876D01*
X023002Y013720D02*
X022750Y013468D01*
X022750Y013112D01*
X023002Y012860D01*
X023358Y012860D01*
X023610Y013112D01*
X023610Y013468D01*
X023358Y013720D01*
X023002Y013720D01*
X022960Y013679D02*
X000680Y013679D01*
X000680Y013777D02*
X024680Y013777D01*
X024680Y013679D02*
X023400Y013679D01*
X023498Y013580D02*
X024680Y013580D01*
X024680Y013482D02*
X023597Y013482D01*
X023610Y013383D02*
X024680Y013383D01*
X024680Y013285D02*
X023610Y013285D01*
X023610Y013186D02*
X024680Y013186D01*
X024680Y013088D02*
X023586Y013088D01*
X023487Y012989D02*
X024680Y012989D01*
X024680Y012891D02*
X023389Y012891D01*
X023358Y012720D02*
X023002Y012720D01*
X022750Y012468D01*
X022750Y012112D01*
X023002Y011860D01*
X023358Y011860D01*
X023610Y012112D01*
X023610Y012468D01*
X023358Y012720D01*
X023385Y012694D02*
X024680Y012694D01*
X024680Y012792D02*
X000680Y012792D01*
X000680Y012694D02*
X022975Y012694D01*
X022877Y012595D02*
X000680Y012595D01*
X000680Y012497D02*
X022778Y012497D01*
X022750Y012398D02*
X000680Y012398D01*
X000680Y012300D02*
X022750Y012300D01*
X022750Y012201D02*
X000680Y012201D01*
X000680Y012103D02*
X022759Y012103D01*
X022858Y012004D02*
X000680Y012004D01*
X000680Y011906D02*
X022956Y011906D01*
X023002Y011720D02*
X022750Y011468D01*
X022750Y011112D01*
X023002Y010860D01*
X023358Y010860D01*
X023610Y011112D01*
X023610Y011468D01*
X023358Y011720D01*
X023002Y011720D01*
X022990Y011709D02*
X000680Y011709D01*
X000680Y011807D02*
X024680Y011807D01*
X024680Y011709D02*
X023370Y011709D01*
X023468Y011610D02*
X024680Y011610D01*
X024680Y011512D02*
X023567Y011512D01*
X023610Y011413D02*
X024680Y011413D01*
X024680Y011315D02*
X023610Y011315D01*
X023610Y011216D02*
X024680Y011216D01*
X024680Y011118D02*
X023610Y011118D01*
X023517Y011019D02*
X024680Y011019D01*
X024680Y010921D02*
X023419Y010921D01*
X023358Y010720D02*
X023002Y010720D01*
X022750Y010468D01*
X022750Y010112D01*
X023002Y009860D01*
X023358Y009860D01*
X023610Y010112D01*
X023610Y010468D01*
X023358Y010720D01*
X023453Y010625D02*
X024680Y010625D01*
X024680Y010527D02*
X023552Y010527D01*
X023610Y010428D02*
X024680Y010428D01*
X024680Y010330D02*
X023610Y010330D01*
X023610Y010231D02*
X024680Y010231D01*
X024680Y010133D02*
X023610Y010133D01*
X023532Y010034D02*
X024680Y010034D01*
X024680Y009936D02*
X023434Y009936D01*
X023358Y009720D02*
X023002Y009720D01*
X022750Y009468D01*
X022750Y009112D01*
X023002Y008860D01*
X023358Y008860D01*
X023610Y009112D01*
X023610Y009468D01*
X023358Y009720D01*
X023438Y009640D02*
X024680Y009640D01*
X024680Y009542D02*
X023537Y009542D01*
X023610Y009443D02*
X024680Y009443D01*
X024680Y009345D02*
X023610Y009345D01*
X023610Y009246D02*
X024680Y009246D01*
X024680Y009148D02*
X023610Y009148D01*
X023547Y009049D02*
X024680Y009049D01*
X024680Y008951D02*
X023449Y008951D01*
X023358Y008720D02*
X023002Y008720D01*
X022750Y008468D01*
X022750Y008112D01*
X023002Y007860D01*
X023358Y007860D01*
X023610Y008112D01*
X023610Y008468D01*
X023358Y008720D01*
X023423Y008655D02*
X024680Y008655D01*
X024680Y008557D02*
X023522Y008557D01*
X023610Y008458D02*
X024680Y008458D01*
X024680Y008360D02*
X023610Y008360D01*
X023610Y008261D02*
X024680Y008261D01*
X024680Y008163D02*
X023610Y008163D01*
X023562Y008064D02*
X024680Y008064D01*
X024680Y007966D02*
X023464Y007966D01*
X023365Y007867D02*
X024680Y007867D01*
X024680Y007769D02*
X019984Y007769D01*
X020005Y007758D02*
X019945Y007788D01*
X019881Y007809D01*
X019819Y007819D01*
X019819Y007429D01*
X020209Y007429D01*
X020199Y007491D01*
X020178Y007555D01*
X020148Y007615D01*
X020108Y007670D01*
X022952Y007670D01*
X023002Y007720D02*
X022750Y007468D01*
X022750Y007112D01*
X023002Y006860D01*
X023358Y006860D01*
X023610Y007112D01*
X023610Y007468D01*
X023358Y007720D01*
X023002Y007720D01*
X022995Y007867D02*
X000680Y007867D01*
X000680Y007769D02*
X013570Y007769D01*
X013536Y007755D02*
X013415Y007634D01*
X013350Y007476D01*
X013350Y007304D01*
X013415Y007146D01*
X013536Y007025D01*
X013694Y006960D01*
X013866Y006960D01*
X014024Y007025D01*
X014145Y007146D01*
X014210Y007304D01*
X014210Y007476D01*
X014145Y007634D01*
X014024Y007755D01*
X013866Y007820D01*
X013694Y007820D01*
X013536Y007755D01*
X013452Y007670D02*
X000680Y007670D01*
X000680Y007572D02*
X013390Y007572D01*
X013350Y007473D02*
X000680Y007473D01*
X000680Y007375D02*
X013350Y007375D01*
X013362Y007276D02*
X000680Y007276D01*
X000680Y007178D02*
X013403Y007178D01*
X013483Y007079D02*
X000680Y007079D01*
X000680Y006981D02*
X013645Y006981D01*
X013915Y006981D02*
X015649Y006981D01*
X015679Y006971D02*
X015741Y006961D01*
X015741Y007351D01*
X015819Y007351D01*
X015819Y007429D01*
X016209Y007429D01*
X016199Y007491D01*
X016178Y007555D01*
X016148Y007615D01*
X016108Y007670D01*
X017452Y007670D01*
X017412Y007615D01*
X017382Y007555D01*
X017361Y007491D01*
X017351Y007429D01*
X017741Y007429D01*
X017741Y007819D01*
X017679Y007809D01*
X017615Y007788D01*
X017555Y007758D01*
X017500Y007718D01*
X017452Y007670D01*
X017390Y007572D02*
X016170Y007572D01*
X016202Y007473D02*
X017358Y007473D01*
X017351Y007351D02*
X017361Y007289D01*
X017382Y007225D01*
X017412Y007165D01*
X017452Y007110D01*
X017500Y007062D01*
X017555Y007022D01*
X017615Y006992D01*
X017679Y006971D01*
X017741Y006961D01*
X017741Y007351D01*
X017819Y007351D01*
X017819Y007429D01*
X018209Y007429D01*
X018199Y007491D01*
X018178Y007555D01*
X018148Y007615D01*
X018108Y007670D01*
X019452Y007670D01*
X019412Y007615D01*
X019382Y007555D01*
X019361Y007491D01*
X019351Y007429D01*
X019741Y007429D01*
X019741Y007819D01*
X019679Y007809D01*
X019615Y007788D01*
X019555Y007758D01*
X019500Y007718D01*
X019452Y007670D01*
X019390Y007572D02*
X018170Y007572D01*
X018202Y007473D02*
X019358Y007473D01*
X019351Y007351D02*
X019361Y007289D01*
X019382Y007225D01*
X019412Y007165D01*
X019452Y007110D01*
X019500Y007062D01*
X019555Y007022D01*
X019615Y006992D01*
X019679Y006971D01*
X019741Y006961D01*
X019741Y007351D01*
X019819Y007351D01*
X019819Y007429D01*
X019741Y007429D01*
X019741Y007351D01*
X019351Y007351D01*
X019365Y007276D02*
X018195Y007276D01*
X018199Y007289D02*
X018209Y007351D01*
X017819Y007351D01*
X017819Y006961D01*
X017881Y006971D01*
X017945Y006992D01*
X018005Y007022D01*
X018060Y007062D01*
X018108Y007110D01*
X018148Y007165D01*
X018178Y007225D01*
X018199Y007289D01*
X018154Y007178D02*
X019406Y007178D01*
X019483Y007079D02*
X018077Y007079D01*
X017911Y006981D02*
X019649Y006981D01*
X019741Y006981D02*
X019819Y006981D01*
X019819Y006961D02*
X019881Y006971D01*
X019945Y006992D01*
X020005Y007022D01*
X020060Y007062D01*
X020108Y007110D01*
X020148Y007165D01*
X020178Y007225D01*
X020199Y007289D01*
X020209Y007351D01*
X019819Y007351D01*
X019819Y006961D01*
X019911Y006981D02*
X022881Y006981D01*
X022783Y007079D02*
X020077Y007079D01*
X020154Y007178D02*
X022750Y007178D01*
X022750Y007276D02*
X020195Y007276D01*
X020202Y007473D02*
X022755Y007473D01*
X022750Y007375D02*
X019819Y007375D01*
X019741Y007375D02*
X017819Y007375D01*
X017819Y007429D02*
X017741Y007429D01*
X017741Y007351D01*
X017351Y007351D01*
X017365Y007276D02*
X016195Y007276D01*
X016199Y007289D02*
X016209Y007351D01*
X015819Y007351D01*
X015819Y006961D01*
X015881Y006971D01*
X015945Y006992D01*
X016005Y007022D01*
X016060Y007062D01*
X016108Y007110D01*
X016148Y007165D01*
X016178Y007225D01*
X016199Y007289D01*
X016154Y007178D02*
X017406Y007178D01*
X017483Y007079D02*
X016077Y007079D01*
X015911Y006981D02*
X017649Y006981D01*
X017741Y006981D02*
X017819Y006981D01*
X017819Y007079D02*
X017741Y007079D01*
X017741Y007178D02*
X017819Y007178D01*
X017819Y007276D02*
X017741Y007276D01*
X017741Y007375D02*
X015819Y007375D01*
X015819Y007429D02*
X015741Y007429D01*
X015741Y007819D01*
X015679Y007809D01*
X015615Y007788D01*
X015555Y007758D01*
X015500Y007718D01*
X015452Y007670D01*
X014108Y007670D01*
X014170Y007572D02*
X015390Y007572D01*
X015382Y007555D02*
X015361Y007491D01*
X015351Y007429D01*
X015741Y007429D01*
X015741Y007351D01*
X015351Y007351D01*
X015361Y007289D01*
X015382Y007225D01*
X015412Y007165D01*
X015452Y007110D01*
X015500Y007062D01*
X015555Y007022D01*
X015615Y006992D01*
X015679Y006971D01*
X015741Y006981D02*
X015819Y006981D01*
X015819Y007079D02*
X015741Y007079D01*
X015741Y007178D02*
X015819Y007178D01*
X015819Y007276D02*
X015741Y007276D01*
X015741Y007375D02*
X014210Y007375D01*
X014210Y007473D02*
X015358Y007473D01*
X015382Y007555D02*
X015412Y007615D01*
X015452Y007670D01*
X015576Y007769D02*
X013990Y007769D01*
X014198Y007276D02*
X015365Y007276D01*
X015406Y007178D02*
X014157Y007178D01*
X014077Y007079D02*
X015483Y007079D01*
X015741Y007473D02*
X015819Y007473D01*
X015819Y007429D02*
X015819Y007819D01*
X015881Y007809D01*
X015945Y007788D01*
X016005Y007758D01*
X016060Y007718D01*
X016108Y007670D01*
X015984Y007769D02*
X017576Y007769D01*
X017741Y007769D02*
X017819Y007769D01*
X017819Y007819D02*
X017881Y007809D01*
X017945Y007788D01*
X018005Y007758D01*
X018060Y007718D01*
X018108Y007670D01*
X017984Y007769D02*
X019576Y007769D01*
X019741Y007769D02*
X019819Y007769D01*
X019819Y007670D02*
X019741Y007670D01*
X019741Y007572D02*
X019819Y007572D01*
X019819Y007473D02*
X019741Y007473D01*
X019741Y007276D02*
X019819Y007276D01*
X019819Y007178D02*
X019741Y007178D01*
X019741Y007079D02*
X019819Y007079D01*
X020170Y007572D02*
X022853Y007572D01*
X022896Y007966D02*
X000680Y007966D01*
X000680Y008064D02*
X022798Y008064D01*
X022750Y008163D02*
X000680Y008163D01*
X000680Y008261D02*
X022750Y008261D01*
X022750Y008360D02*
X000680Y008360D01*
X000680Y008458D02*
X022750Y008458D01*
X022838Y008557D02*
X000680Y008557D01*
X000680Y008655D02*
X022937Y008655D01*
X022911Y008951D02*
X000680Y008951D01*
X000680Y009049D02*
X013513Y009049D01*
X013536Y009025D02*
X013694Y008960D01*
X013866Y008960D01*
X014024Y009025D01*
X014145Y009146D01*
X014210Y009304D01*
X014210Y009476D01*
X014145Y009634D01*
X014024Y009755D01*
X013866Y009820D01*
X013694Y009820D01*
X013536Y009755D01*
X013415Y009634D01*
X013350Y009476D01*
X013350Y009304D01*
X013415Y009146D01*
X013536Y009025D01*
X013415Y009148D02*
X000680Y009148D01*
X000680Y009246D02*
X013374Y009246D01*
X013350Y009345D02*
X000680Y009345D01*
X000680Y009443D02*
X013350Y009443D01*
X013377Y009542D02*
X000680Y009542D01*
X000680Y009640D02*
X013422Y009640D01*
X013520Y009739D02*
X000680Y009739D01*
X000680Y009837D02*
X024680Y009837D01*
X024680Y009739D02*
X020040Y009739D01*
X020024Y009755D02*
X019866Y009820D01*
X019694Y009820D01*
X019536Y009755D01*
X019415Y009634D01*
X019350Y009476D01*
X019350Y009304D01*
X019415Y009146D01*
X019536Y009025D01*
X019694Y008960D01*
X019866Y008960D01*
X020024Y009025D01*
X020145Y009146D01*
X020210Y009304D01*
X020210Y009476D01*
X020145Y009634D01*
X020024Y009755D01*
X020138Y009640D02*
X022922Y009640D01*
X022823Y009542D02*
X020183Y009542D01*
X020210Y009443D02*
X022750Y009443D01*
X022750Y009345D02*
X020210Y009345D01*
X020186Y009246D02*
X022750Y009246D01*
X022750Y009148D02*
X020145Y009148D01*
X020047Y009049D02*
X022813Y009049D01*
X022926Y009936D02*
X000680Y009936D01*
X000680Y010034D02*
X022828Y010034D01*
X022750Y010133D02*
X000680Y010133D01*
X000680Y010231D02*
X022750Y010231D01*
X022750Y010330D02*
X000680Y010330D01*
X000680Y010428D02*
X022750Y010428D01*
X022808Y010527D02*
X000680Y010527D01*
X000680Y010625D02*
X022907Y010625D01*
X022941Y010921D02*
X000680Y010921D01*
X000680Y011019D02*
X022843Y011019D01*
X022750Y011118D02*
X000680Y011118D01*
X000680Y011216D02*
X022750Y011216D01*
X022750Y011315D02*
X000680Y011315D01*
X000680Y011413D02*
X022750Y011413D01*
X022793Y011512D02*
X000680Y011512D01*
X000680Y011610D02*
X022892Y011610D01*
X023404Y011906D02*
X024680Y011906D01*
X024680Y012004D02*
X023502Y012004D01*
X023601Y012103D02*
X024680Y012103D01*
X024680Y012201D02*
X023610Y012201D01*
X023610Y012300D02*
X024680Y012300D01*
X024680Y012398D02*
X023610Y012398D01*
X023582Y012497D02*
X024680Y012497D01*
X024680Y012595D02*
X023483Y012595D01*
X022971Y012891D02*
X000680Y012891D01*
X000680Y012989D02*
X022873Y012989D01*
X022774Y013088D02*
X000680Y013088D01*
X000680Y013186D02*
X022750Y013186D01*
X022750Y013285D02*
X000680Y013285D01*
X000680Y013383D02*
X022750Y013383D01*
X022763Y013482D02*
X000680Y013482D01*
X000680Y013580D02*
X022862Y013580D01*
X023374Y013876D02*
X024680Y013876D01*
X024680Y013974D02*
X023472Y013974D01*
X023571Y014073D02*
X024680Y014073D01*
X024680Y014171D02*
X023610Y014171D01*
X023610Y014270D02*
X024680Y014270D01*
X024680Y014368D02*
X023610Y014368D01*
X023610Y014467D02*
X024680Y014467D01*
X024680Y014565D02*
X023513Y014565D01*
X023001Y014861D02*
X000680Y014861D01*
X000680Y014959D02*
X022903Y014959D01*
X022804Y015058D02*
X000680Y015058D01*
X000680Y015156D02*
X022750Y015156D01*
X022750Y015255D02*
X000680Y015255D01*
X000680Y015353D02*
X022750Y015353D01*
X022750Y015452D02*
X000680Y015452D01*
X000680Y015550D02*
X022832Y015550D01*
X022930Y015649D02*
X000680Y015649D01*
X000680Y010822D02*
X024680Y010822D01*
X024680Y010724D02*
X000680Y010724D01*
X000680Y008852D02*
X024680Y008852D01*
X024680Y008754D02*
X000680Y008754D01*
X000680Y006882D02*
X022980Y006882D01*
X023002Y006720D02*
X022750Y006468D01*
X022750Y006112D01*
X023002Y005860D01*
X023358Y005860D01*
X023610Y006112D01*
X023610Y006468D01*
X023358Y006720D01*
X023002Y006720D01*
X022967Y006685D02*
X000680Y006685D01*
X000680Y006587D02*
X022868Y006587D01*
X022770Y006488D02*
X000680Y006488D01*
X000680Y006390D02*
X022750Y006390D01*
X022750Y006291D02*
X000680Y006291D01*
X000680Y006193D02*
X022750Y006193D01*
X022768Y006094D02*
X000680Y006094D01*
X000680Y005996D02*
X022866Y005996D01*
X022965Y005897D02*
X000680Y005897D01*
X000680Y005799D02*
X024680Y005799D01*
X024680Y005897D02*
X023395Y005897D01*
X023494Y005996D02*
X024680Y005996D01*
X024680Y006094D02*
X023592Y006094D01*
X023610Y006193D02*
X024680Y006193D01*
X024680Y006291D02*
X023610Y006291D01*
X023610Y006390D02*
X024680Y006390D01*
X024680Y006488D02*
X023590Y006488D01*
X023492Y006587D02*
X024680Y006587D01*
X024680Y006685D02*
X023393Y006685D01*
X023380Y006882D02*
X024680Y006882D01*
X024680Y006784D02*
X000680Y006784D01*
X000680Y005700D02*
X022982Y005700D01*
X023002Y005720D02*
X022750Y005468D01*
X022750Y005112D01*
X023002Y004860D01*
X023358Y004860D01*
X023610Y005112D01*
X023610Y005468D01*
X023358Y005720D01*
X023002Y005720D01*
X022883Y005602D02*
X012751Y005602D01*
X012830Y005569D02*
X012666Y005637D01*
X011894Y005637D01*
X011730Y005569D01*
X011604Y005443D01*
X011536Y005279D01*
X011536Y005101D01*
X011604Y004937D01*
X011730Y004811D01*
X011894Y004743D01*
X012666Y004743D01*
X012830Y004811D01*
X012956Y004937D01*
X013024Y005101D01*
X013024Y005279D01*
X012956Y005443D01*
X012830Y005569D01*
X012896Y005503D02*
X022785Y005503D01*
X022750Y005405D02*
X012972Y005405D01*
X013012Y005306D02*
X022750Y005306D01*
X022750Y005208D02*
X013024Y005208D01*
X013024Y005109D02*
X022753Y005109D01*
X022851Y005011D02*
X012986Y005011D01*
X012931Y004912D02*
X022950Y004912D01*
X023002Y004720D02*
X022750Y004468D01*
X022750Y004330D01*
X023140Y004330D01*
X023140Y004720D01*
X023002Y004720D01*
X022997Y004715D02*
X000680Y004715D01*
X000680Y004617D02*
X011845Y004617D01*
X011894Y004637D02*
X011730Y004569D01*
X011604Y004443D01*
X011536Y004279D01*
X011536Y004101D01*
X011604Y003937D01*
X011730Y003811D01*
X011894Y003743D01*
X012666Y003743D01*
X012830Y003811D01*
X012956Y003937D01*
X013024Y004101D01*
X013024Y004279D01*
X012956Y004443D01*
X012830Y004569D01*
X012666Y004637D01*
X011894Y004637D01*
X011728Y004814D02*
X000680Y004814D01*
X000680Y004912D02*
X011629Y004912D01*
X011574Y005011D02*
X000680Y005011D01*
X000680Y005109D02*
X011536Y005109D01*
X011536Y005208D02*
X000680Y005208D01*
X000680Y005306D02*
X011548Y005306D01*
X011588Y005405D02*
X000680Y005405D01*
X000680Y005503D02*
X011664Y005503D01*
X011809Y005602D02*
X000680Y005602D01*
X000680Y004518D02*
X011679Y004518D01*
X011595Y004420D02*
X000680Y004420D01*
X000680Y004321D02*
X011554Y004321D01*
X011536Y004223D02*
X000680Y004223D01*
X000680Y004124D02*
X011536Y004124D01*
X011568Y004026D02*
X000680Y004026D01*
X000680Y003927D02*
X011614Y003927D01*
X011713Y003829D02*
X000680Y003829D01*
X000680Y003730D02*
X024680Y003730D01*
X024680Y003632D02*
X012679Y003632D01*
X012666Y003637D02*
X012830Y003569D01*
X012956Y003443D01*
X013024Y003279D01*
X013024Y003101D01*
X012956Y002937D01*
X012830Y002811D01*
X012666Y002743D01*
X011894Y002743D01*
X011730Y002811D01*
X011604Y002937D01*
X011536Y003101D01*
X011536Y003279D01*
X011604Y003443D01*
X011730Y003569D01*
X011894Y003637D01*
X012666Y003637D01*
X012866Y003533D02*
X024680Y003533D01*
X024680Y003435D02*
X012959Y003435D01*
X013000Y003336D02*
X024680Y003336D01*
X024680Y003238D02*
X013024Y003238D01*
X013024Y003139D02*
X024680Y003139D01*
X024680Y003041D02*
X012999Y003041D01*
X012958Y002942D02*
X023794Y002942D01*
X023673Y002844D02*
X012862Y002844D01*
X012670Y002745D02*
X023574Y002745D01*
X023516Y002647D02*
X000680Y002647D01*
X000680Y002745D02*
X011890Y002745D01*
X011879Y002626D02*
X011812Y002604D01*
X011749Y002572D01*
X011692Y002531D01*
X011642Y002481D01*
X011601Y002424D01*
X011569Y002362D01*
X011547Y002295D01*
X011538Y002238D01*
X012232Y002238D01*
X012232Y002142D01*
X012328Y002142D01*
X012328Y001743D01*
X012612Y001743D01*
X012681Y001754D01*
X012748Y001776D01*
X012811Y001808D01*
X012868Y001849D01*
X012918Y001899D01*
X012959Y001956D01*
X012991Y002018D01*
X013013Y002085D01*
X013022Y002142D01*
X012328Y002142D01*
X012328Y002238D01*
X012232Y002238D01*
X012232Y002637D01*
X011948Y002637D01*
X011879Y002626D01*
X011716Y002548D02*
X000680Y002548D01*
X000680Y002450D02*
X011619Y002450D01*
X011566Y002351D02*
X000680Y002351D01*
X000680Y002253D02*
X011541Y002253D01*
X011538Y002142D02*
X011547Y002085D01*
X011569Y002018D01*
X011601Y001956D01*
X011642Y001899D01*
X011692Y001849D01*
X011749Y001808D01*
X011812Y001776D01*
X011879Y001754D01*
X011948Y001743D01*
X012232Y001743D01*
X012232Y002142D01*
X011538Y002142D01*
X011557Y002056D02*
X000680Y002056D01*
X000680Y002154D02*
X012232Y002154D01*
X012328Y002154D02*
X023430Y002154D01*
X023430Y002253D02*
X013019Y002253D01*
X013022Y002238D02*
X013013Y002295D01*
X012991Y002362D01*
X012959Y002424D01*
X012918Y002481D01*
X012868Y002531D01*
X012811Y002572D01*
X012748Y002604D01*
X012681Y002626D01*
X012612Y002637D01*
X012328Y002637D01*
X012328Y002238D01*
X013022Y002238D01*
X012994Y002351D02*
X023430Y002351D01*
X023434Y002450D02*
X012941Y002450D01*
X012844Y002548D02*
X023475Y002548D01*
X023465Y002056D02*
X013003Y002056D01*
X012960Y001957D02*
X023506Y001957D01*
X023551Y001859D02*
X012877Y001859D01*
X012699Y001760D02*
X023649Y001760D01*
X023748Y001662D02*
X000680Y001662D01*
X000680Y001760D02*
X011860Y001760D01*
X011683Y001859D02*
X000680Y001859D01*
X000680Y001957D02*
X011600Y001957D01*
X012232Y001957D02*
X012328Y001957D01*
X012328Y001859D02*
X012232Y001859D01*
X012232Y001760D02*
X012328Y001760D01*
X012328Y002056D02*
X012232Y002056D01*
X012232Y002253D02*
X012328Y002253D01*
X012328Y002351D02*
X012232Y002351D01*
X012232Y002450D02*
X012328Y002450D01*
X012328Y002548D02*
X012232Y002548D01*
X011698Y002844D02*
X000680Y002844D01*
X000680Y002942D02*
X011602Y002942D01*
X011561Y003041D02*
X000680Y003041D01*
X000680Y003139D02*
X011536Y003139D01*
X011536Y003238D02*
X000680Y003238D01*
X000680Y003336D02*
X011560Y003336D01*
X011601Y003435D02*
X000680Y003435D01*
X000680Y003533D02*
X011694Y003533D01*
X011881Y003632D02*
X000680Y003632D01*
X000680Y001563D02*
X023975Y001563D01*
X024385Y001563D02*
X024680Y001563D01*
X024680Y001465D02*
X000680Y001465D01*
X000680Y001366D02*
X024680Y001366D01*
X024680Y001662D02*
X024612Y001662D01*
X024566Y002942D02*
X024680Y002942D01*
X024680Y003829D02*
X012847Y003829D01*
X012946Y003927D02*
X022935Y003927D01*
X023002Y003860D02*
X022750Y004112D01*
X022750Y004250D01*
X023140Y004250D01*
X023220Y004250D01*
X023220Y004330D01*
X023610Y004330D01*
X023610Y004468D01*
X023358Y004720D01*
X023220Y004720D01*
X023220Y004330D01*
X023140Y004330D01*
X023140Y004250D01*
X023140Y003860D01*
X023002Y003860D01*
X023140Y003927D02*
X023220Y003927D01*
X023220Y003860D02*
X023358Y003860D01*
X023610Y004112D01*
X023610Y004250D01*
X023220Y004250D01*
X023220Y003860D01*
X023220Y004026D02*
X023140Y004026D01*
X023140Y004124D02*
X023220Y004124D01*
X023220Y004223D02*
X023140Y004223D01*
X023140Y004321D02*
X013006Y004321D01*
X013024Y004223D02*
X022750Y004223D01*
X022750Y004124D02*
X013024Y004124D01*
X012992Y004026D02*
X022836Y004026D01*
X022750Y004420D02*
X012965Y004420D01*
X012881Y004518D02*
X022800Y004518D01*
X022898Y004617D02*
X012715Y004617D01*
X012832Y004814D02*
X024680Y004814D01*
X024680Y004912D02*
X023410Y004912D01*
X023509Y005011D02*
X024680Y005011D01*
X024680Y005109D02*
X023607Y005109D01*
X023610Y005208D02*
X024680Y005208D01*
X024680Y005306D02*
X023610Y005306D01*
X023610Y005405D02*
X024680Y005405D01*
X024680Y005503D02*
X023575Y005503D01*
X023477Y005602D02*
X024680Y005602D01*
X024680Y005700D02*
X023378Y005700D01*
X023363Y004715D02*
X024680Y004715D01*
X024680Y004617D02*
X023462Y004617D01*
X023560Y004518D02*
X024680Y004518D01*
X024680Y004420D02*
X023610Y004420D01*
X023610Y004223D02*
X024680Y004223D01*
X024680Y004321D02*
X023220Y004321D01*
X023220Y004420D02*
X023140Y004420D01*
X023140Y004518D02*
X023220Y004518D01*
X023220Y004617D02*
X023140Y004617D01*
X023140Y004715D02*
X023220Y004715D01*
X023610Y004124D02*
X024680Y004124D01*
X024680Y004026D02*
X023524Y004026D01*
X023425Y003927D02*
X024680Y003927D01*
X024680Y006981D02*
X023479Y006981D01*
X023577Y007079D02*
X024680Y007079D01*
X024680Y007178D02*
X023610Y007178D01*
X023610Y007276D02*
X024680Y007276D01*
X024680Y007375D02*
X023610Y007375D01*
X023605Y007473D02*
X024680Y007473D01*
X024680Y007572D02*
X023507Y007572D01*
X023408Y007670D02*
X024680Y007670D01*
X020108Y007670D02*
X020060Y007718D01*
X020005Y007758D01*
X019513Y009049D02*
X018042Y009049D01*
X018060Y009062D02*
X018108Y009110D01*
X018148Y009165D01*
X018178Y009225D01*
X018199Y009289D01*
X018209Y009351D01*
X017819Y009351D01*
X017819Y009429D01*
X018209Y009429D01*
X018199Y009491D01*
X018178Y009555D01*
X018148Y009615D01*
X018108Y009670D01*
X018060Y009718D01*
X018005Y009758D01*
X017945Y009788D01*
X017881Y009809D01*
X017819Y009819D01*
X017819Y009429D01*
X017741Y009429D01*
X017741Y009819D01*
X017679Y009809D01*
X017615Y009788D01*
X017555Y009758D01*
X017500Y009718D01*
X017452Y009670D01*
X017412Y009615D01*
X017382Y009555D01*
X017361Y009491D01*
X017351Y009429D01*
X017741Y009429D01*
X017741Y009351D01*
X017819Y009351D01*
X017819Y008961D01*
X017881Y008971D01*
X017945Y008992D01*
X018005Y009022D01*
X018060Y009062D01*
X018135Y009148D02*
X019415Y009148D01*
X019374Y009246D02*
X018185Y009246D01*
X018208Y009345D02*
X019350Y009345D01*
X019350Y009443D02*
X018207Y009443D01*
X018183Y009542D02*
X019377Y009542D01*
X019422Y009640D02*
X018130Y009640D01*
X018032Y009739D02*
X019520Y009739D01*
X017819Y009739D02*
X017741Y009739D01*
X017741Y009640D02*
X017819Y009640D01*
X017819Y009542D02*
X017741Y009542D01*
X017741Y009443D02*
X017819Y009443D01*
X017819Y009345D02*
X017741Y009345D01*
X017741Y009351D02*
X017741Y008961D01*
X017679Y008971D01*
X017615Y008992D01*
X017555Y009022D01*
X017500Y009062D01*
X017452Y009110D01*
X017412Y009165D01*
X017382Y009225D01*
X017361Y009289D01*
X017351Y009351D01*
X017741Y009351D01*
X017741Y009246D02*
X017819Y009246D01*
X017819Y009148D02*
X017741Y009148D01*
X017741Y009049D02*
X017819Y009049D01*
X017518Y009049D02*
X016042Y009049D01*
X016060Y009062D02*
X016108Y009110D01*
X016148Y009165D01*
X016178Y009225D01*
X016199Y009289D01*
X016209Y009351D01*
X015819Y009351D01*
X015819Y009429D01*
X016209Y009429D01*
X016199Y009491D01*
X016178Y009555D01*
X016148Y009615D01*
X016108Y009670D01*
X016060Y009718D01*
X016005Y009758D01*
X015945Y009788D01*
X015881Y009809D01*
X015819Y009819D01*
X015819Y009429D01*
X015741Y009429D01*
X015741Y009819D01*
X015679Y009809D01*
X015615Y009788D01*
X015555Y009758D01*
X015500Y009718D01*
X015452Y009670D01*
X015412Y009615D01*
X015382Y009555D01*
X015361Y009491D01*
X015351Y009429D01*
X015741Y009429D01*
X015741Y009351D01*
X015819Y009351D01*
X015819Y008961D01*
X015881Y008971D01*
X015945Y008992D01*
X016005Y009022D01*
X016060Y009062D01*
X016135Y009148D02*
X017425Y009148D01*
X017375Y009246D02*
X016185Y009246D01*
X016208Y009345D02*
X017352Y009345D01*
X017353Y009443D02*
X016207Y009443D01*
X016183Y009542D02*
X017377Y009542D01*
X017430Y009640D02*
X016130Y009640D01*
X016032Y009739D02*
X017528Y009739D01*
X017819Y007819D02*
X017819Y007429D01*
X017819Y007473D02*
X017741Y007473D01*
X017741Y007572D02*
X017819Y007572D01*
X017819Y007670D02*
X017741Y007670D01*
X015819Y007670D02*
X015741Y007670D01*
X015741Y007572D02*
X015819Y007572D01*
X015819Y007769D02*
X015741Y007769D01*
X015741Y008961D02*
X015741Y009351D01*
X015351Y009351D01*
X015361Y009289D01*
X015382Y009225D01*
X015412Y009165D01*
X015452Y009110D01*
X015500Y009062D01*
X015555Y009022D01*
X015615Y008992D01*
X015679Y008971D01*
X015741Y008961D01*
X015741Y009049D02*
X015819Y009049D01*
X015819Y009148D02*
X015741Y009148D01*
X015741Y009246D02*
X015819Y009246D01*
X015819Y009345D02*
X015741Y009345D01*
X015741Y009443D02*
X015819Y009443D01*
X015819Y009542D02*
X015741Y009542D01*
X015741Y009640D02*
X015819Y009640D01*
X015819Y009739D02*
X015741Y009739D01*
X015528Y009739D02*
X014040Y009739D01*
X014138Y009640D02*
X015430Y009640D01*
X015377Y009542D02*
X014183Y009542D01*
X014210Y009443D02*
X015353Y009443D01*
X015352Y009345D02*
X014210Y009345D01*
X014186Y009246D02*
X015375Y009246D01*
X015425Y009148D02*
X014145Y009148D01*
X014047Y009049D02*
X015518Y009049D01*
X023511Y018013D02*
X024680Y018013D01*
X024680Y018111D02*
X023609Y018111D01*
X023610Y018210D02*
X024680Y018210D01*
X024680Y018308D02*
X023610Y018308D01*
X023610Y018407D02*
X024680Y018407D01*
X024680Y018505D02*
X023573Y018505D01*
X023475Y018604D02*
X024680Y018604D01*
X024680Y018702D02*
X023376Y018702D01*
X023481Y019983D02*
X024680Y019983D01*
X024680Y020081D02*
X023579Y020081D01*
X023610Y020180D02*
X024680Y020180D01*
X024680Y020278D02*
X023610Y020278D01*
X023610Y020377D02*
X024680Y020377D01*
X024680Y020475D02*
X023603Y020475D01*
X023505Y020574D02*
X024680Y020574D01*
X024680Y020672D02*
X023406Y020672D01*
X023520Y036925D02*
X014348Y036925D01*
X014468Y037023D02*
X023479Y037023D01*
X023438Y037122D02*
X014548Y037122D01*
X014601Y037220D02*
X023430Y037220D01*
X023430Y037319D02*
X014636Y037319D01*
X014655Y037417D02*
X023430Y037417D01*
X024406Y038008D02*
X024680Y038008D01*
X024680Y037910D02*
X024621Y037910D01*
X014034Y037910D02*
X013934Y037910D01*
X013934Y038008D02*
X014034Y038008D01*
X014034Y038107D02*
X013934Y038107D01*
X013934Y037811D02*
X014034Y037811D01*
X014034Y037713D02*
X013934Y037713D01*
X013934Y037417D02*
X014034Y037417D01*
X014034Y037319D02*
X013934Y037319D01*
X013934Y037220D02*
X014034Y037220D01*
X014034Y037122D02*
X013934Y037122D01*
X013934Y037023D02*
X014034Y037023D01*
X014034Y036925D02*
X013934Y036925D01*
D16*
X016530Y032740D03*
X015080Y030540D03*
X011180Y025790D03*
X008680Y025290D03*
X011230Y020840D03*
X011030Y015990D03*
X014280Y011240D03*
X015080Y011190D03*
X012580Y008390D03*
X012430Y010540D03*
X015230Y005840D03*
X017030Y003690D03*
X019180Y002840D03*
X020330Y005190D03*
X019480Y010440D03*
X020430Y011340D03*
X020430Y011840D03*
X020930Y011840D03*
X020930Y011340D03*
X021430Y011340D03*
X021430Y011840D03*
X021430Y012340D03*
X021430Y012840D03*
X020930Y012840D03*
X020930Y012340D03*
X020430Y012340D03*
X020430Y012840D03*
X021930Y012840D03*
X021930Y012340D03*
X021930Y011840D03*
X021930Y011340D03*
X020880Y016990D03*
X016180Y018140D03*
X014730Y015990D03*
X015580Y023240D03*
X010980Y030540D03*
X005180Y023840D03*
X020980Y031640D03*
M02*
