G75*
%MOIN*%
%OFA0B0*%
%FSLAX24Y24*%
%IPPOS*%
%LPD*%
%AMOC8*
5,1,8,0,0,1.08239X$1,22.5*
%
%ADD10C,0.0560*%
%ADD11R,0.0300X0.0350*%
%ADD12R,0.0350X0.0300*%
%ADD13R,0.1063X0.0709*%
%ADD14R,0.0866X0.0236*%
%ADD15R,0.0400X0.0700*%
%ADD16R,0.0700X0.0400*%
%ADD17R,0.0700X0.0600*%
%ADD18R,0.0600X0.0700*%
%ADD19R,0.0709X0.1063*%
%ADD20C,0.0750*%
%ADD21C,0.1050*%
%ADD22R,0.0300X0.0500*%
%ADD23OC8,0.0560*%
%ADD24R,0.0500X0.0500*%
%ADD25R,0.0350X0.0500*%
%ADD26R,0.2441X0.2126*%
%ADD27R,0.0630X0.0394*%
%ADD28R,0.0551X0.0394*%
%ADD29C,0.0594*%
%ADD30R,0.1500X0.0800*%
%ADD31R,0.0315X0.0315*%
%ADD32C,0.0240*%
%ADD33C,0.0396*%
%ADD34C,0.0400*%
%ADD35C,0.0700*%
D10*
X013780Y007390D03*
X013780Y009390D03*
X015780Y009390D03*
X015780Y007390D03*
X017780Y007390D03*
X017780Y009390D03*
X019780Y009390D03*
X019780Y007390D03*
D11*
X019780Y005190D03*
X019180Y005190D03*
X019180Y004190D03*
X019780Y004190D03*
X019780Y003440D03*
X019180Y003440D03*
X017630Y005840D03*
X017030Y005840D03*
X016380Y005840D03*
X015780Y005840D03*
X015430Y004190D03*
X014830Y004190D03*
X014830Y003490D03*
X015430Y003490D03*
X018230Y010440D03*
X018830Y010440D03*
X017280Y011190D03*
X016680Y011190D03*
X019680Y016990D03*
X020280Y016990D03*
X020280Y031640D03*
X019680Y031640D03*
X008680Y025840D03*
X008080Y025840D03*
X004230Y024840D03*
X003630Y024840D03*
D12*
X012580Y007790D03*
X012580Y007190D03*
D13*
X012980Y012124D03*
X012980Y013856D03*
X012980Y018124D03*
X012980Y019856D03*
X009630Y021524D03*
X009630Y023256D03*
X008180Y023256D03*
X008180Y021524D03*
X009630Y025624D03*
X009630Y027356D03*
X009630Y028524D03*
X009630Y030256D03*
X012980Y028406D03*
X012980Y026674D03*
X012980Y032724D03*
X012980Y034456D03*
D14*
X007204Y025840D03*
X007204Y025340D03*
X007204Y024840D03*
X007204Y024340D03*
X005156Y024340D03*
X005156Y024840D03*
X005156Y025340D03*
X005156Y025840D03*
X016256Y005190D03*
X016256Y004690D03*
X016256Y004190D03*
X016256Y003690D03*
X018304Y003690D03*
X018304Y004190D03*
X018304Y004690D03*
X018304Y005190D03*
D15*
X012980Y014940D03*
X012980Y017040D03*
X012980Y029490D03*
X012980Y031590D03*
D16*
X011930Y030540D03*
X014030Y030540D03*
X014030Y015990D03*
X011930Y015990D03*
D17*
X011230Y021490D03*
X011230Y023240D03*
X011230Y024990D03*
X014730Y023240D03*
D18*
X012980Y020890D03*
X012980Y025590D03*
D19*
X017014Y031640D03*
X018746Y031640D03*
X018746Y017040D03*
X017014Y017040D03*
D20*
X012980Y036490D03*
D21*
X011976Y035486D03*
X011976Y037494D03*
X013984Y037494D03*
X013984Y035486D03*
D22*
X015080Y032740D03*
X016080Y032740D03*
X016080Y031640D03*
X015080Y031640D03*
X014730Y018140D03*
X014730Y017040D03*
X015730Y017040D03*
X015730Y018140D03*
D23*
X023180Y018290D03*
X023180Y019290D03*
X023180Y020290D03*
X023180Y021290D03*
X023180Y022290D03*
X023180Y023290D03*
X023180Y024290D03*
X023180Y025290D03*
X023180Y026290D03*
X023180Y027290D03*
X023180Y028290D03*
X023180Y029290D03*
X023180Y030290D03*
X023180Y031290D03*
X023180Y032290D03*
X023180Y033290D03*
X023180Y034290D03*
X023180Y035290D03*
X023180Y017290D03*
X023180Y016290D03*
X023180Y015290D03*
X023180Y014290D03*
X023180Y013290D03*
X023180Y012290D03*
X023180Y011290D03*
X023180Y010290D03*
X023180Y009290D03*
X023180Y008290D03*
X023180Y007290D03*
X023180Y006290D03*
X023180Y005290D03*
X023180Y004290D03*
D24*
X013680Y011240D03*
D25*
X013780Y010540D03*
X012980Y010540D03*
X012980Y011240D03*
D26*
X021114Y012090D03*
D27*
X018240Y011192D03*
X018240Y012988D03*
D28*
X009063Y024490D03*
X008197Y024116D03*
X008197Y024864D03*
D29*
X002127Y024840D02*
X001533Y024840D01*
X001533Y023840D02*
X002127Y023840D01*
X002127Y025840D02*
X001533Y025840D01*
X011983Y005190D02*
X012577Y005190D01*
X012577Y004190D02*
X011983Y004190D01*
X011983Y003190D02*
X012577Y003190D01*
X012577Y002190D02*
X011983Y002190D01*
D30*
X021780Y002790D03*
X021480Y035290D03*
D31*
X016175Y011190D03*
X015585Y011190D03*
D32*
X000680Y001430D02*
X000680Y026790D01*
X008801Y026790D01*
X008895Y026697D01*
X009027Y026642D01*
X010180Y026642D01*
X010180Y026338D01*
X009027Y026338D01*
X009009Y026331D01*
X008902Y026375D01*
X008458Y026375D01*
X008326Y026320D01*
X008241Y026235D01*
X008080Y026235D01*
X008080Y025840D01*
X008080Y025340D01*
X007204Y025340D01*
X007204Y024840D02*
X008080Y024840D01*
X008080Y024864D01*
X008197Y024864D01*
X008680Y025290D02*
X008680Y025840D01*
X008269Y026264D02*
X007840Y026264D01*
X007841Y026263D02*
X007708Y026318D01*
X006699Y026318D01*
X006567Y026263D01*
X006465Y026162D01*
X006411Y026030D01*
X006411Y025650D01*
X006419Y025630D01*
X006302Y025747D01*
X006125Y025820D01*
X005949Y025820D01*
X005949Y026030D01*
X005895Y026162D01*
X005793Y026263D01*
X005661Y026318D01*
X004652Y026318D01*
X004519Y026263D01*
X004418Y026162D01*
X004363Y026030D01*
X004363Y025650D01*
X004388Y025590D01*
X004363Y025530D01*
X004363Y025375D01*
X004008Y025375D01*
X003930Y025343D01*
X003852Y025375D01*
X003408Y025375D01*
X003276Y025320D01*
X002576Y025320D01*
X002499Y025397D01*
X002434Y025424D01*
X002464Y025446D01*
X002521Y025503D01*
X002569Y025569D01*
X002606Y025642D01*
X002631Y025719D01*
X002644Y025799D01*
X002644Y025840D01*
X002644Y025881D01*
X002631Y025961D01*
X002606Y026038D01*
X002569Y026111D01*
X002521Y026177D01*
X002464Y026234D01*
X002398Y026282D01*
X002325Y026319D01*
X002248Y026344D01*
X002168Y026357D01*
X001830Y026357D01*
X001492Y026357D01*
X001412Y026344D01*
X001335Y026319D01*
X001262Y026282D01*
X001196Y026234D01*
X001139Y026177D01*
X001091Y026111D01*
X001054Y026038D01*
X001029Y025961D01*
X001016Y025881D01*
X001016Y025840D01*
X001016Y025799D01*
X001029Y025719D01*
X001054Y025642D01*
X001091Y025569D01*
X001139Y025503D01*
X001196Y025446D01*
X001226Y025424D01*
X001161Y025397D01*
X000976Y025212D01*
X000876Y024971D01*
X000876Y024709D01*
X000976Y024468D01*
X001104Y024340D01*
X000976Y024212D01*
X000876Y023971D01*
X000876Y023709D01*
X000976Y023468D01*
X001161Y023283D01*
X001402Y023183D01*
X002258Y023183D01*
X002499Y023283D01*
X002684Y023468D01*
X002784Y023709D01*
X002784Y023971D01*
X002684Y024212D01*
X002556Y024340D01*
X002576Y024360D01*
X003276Y024360D01*
X003276Y024360D01*
X003408Y024305D01*
X003852Y024305D01*
X003930Y024337D01*
X004008Y024305D01*
X004363Y024305D01*
X004363Y024150D01*
X004418Y024018D01*
X004519Y023917D01*
X004622Y023874D01*
X004622Y023729D01*
X004707Y023524D01*
X004864Y023367D01*
X005069Y023282D01*
X005291Y023282D01*
X005496Y023367D01*
X005550Y023421D01*
X005550Y023195D01*
X005623Y023018D01*
X005758Y022883D01*
X005935Y022810D01*
X007297Y022810D01*
X007343Y022698D01*
X007445Y022597D01*
X007577Y022542D01*
X008783Y022542D01*
X008905Y022592D01*
X009027Y022542D01*
X010180Y022542D01*
X010180Y022098D01*
X009687Y022098D01*
X009687Y021581D01*
X009573Y021581D01*
X009573Y022098D01*
X009070Y022098D01*
X009014Y022083D01*
X008963Y022054D01*
X008922Y022013D01*
X008905Y021983D01*
X008888Y022013D01*
X008847Y022054D01*
X008796Y022083D01*
X008740Y022098D01*
X008237Y022098D01*
X008237Y021581D01*
X008123Y021581D01*
X008123Y022098D01*
X007620Y022098D01*
X007564Y022083D01*
X007513Y022054D01*
X007472Y022013D01*
X007443Y021963D01*
X007429Y021907D01*
X007429Y021581D01*
X008123Y021581D01*
X008123Y021467D01*
X007429Y021467D01*
X007429Y021141D01*
X007443Y021085D01*
X007472Y021034D01*
X007513Y020993D01*
X007564Y020965D01*
X007620Y020950D01*
X008123Y020950D01*
X008123Y021467D01*
X008237Y021467D01*
X008237Y021581D01*
X009573Y021581D01*
X009573Y021467D01*
X008879Y021467D01*
X008237Y021467D01*
X008237Y020950D01*
X008740Y020950D01*
X008796Y020965D01*
X008847Y020993D01*
X008888Y021034D01*
X008905Y021065D01*
X008922Y021034D01*
X008963Y020993D01*
X009014Y020965D01*
X009070Y020950D01*
X009573Y020950D01*
X009573Y021467D01*
X009687Y021467D01*
X009687Y020950D01*
X010180Y020950D01*
X010180Y011790D01*
X012089Y011790D01*
X012089Y011698D01*
X012143Y011566D01*
X012245Y011464D01*
X012270Y011454D01*
X012270Y011099D01*
X012277Y011083D01*
X012113Y011015D01*
X011955Y010857D01*
X011870Y010651D01*
X011870Y010429D01*
X011955Y010223D01*
X012113Y010065D01*
X012319Y009980D01*
X012613Y009980D01*
X012733Y009930D01*
X013070Y009930D01*
X013070Y009249D01*
X013178Y008988D01*
X013378Y008788D01*
X013639Y008680D01*
X013921Y008680D01*
X014182Y008788D01*
X014382Y008988D01*
X014490Y009249D01*
X014490Y010681D01*
X014476Y010715D01*
X014597Y010765D01*
X014656Y010824D01*
X014764Y010717D01*
X014969Y010632D01*
X015191Y010632D01*
X015322Y010686D01*
X015356Y010673D01*
X015814Y010673D01*
X015880Y010700D01*
X015946Y010673D01*
X016404Y010673D01*
X016410Y010675D01*
X016458Y010655D01*
X016902Y010655D01*
X017034Y010710D01*
X017119Y010795D01*
X017280Y010795D01*
X017459Y010795D01*
X017515Y010810D01*
X017565Y010839D01*
X017606Y010880D01*
X017635Y010930D01*
X017650Y010986D01*
X017650Y011190D01*
X017650Y011394D01*
X017635Y011450D01*
X017606Y011500D01*
X017565Y011541D01*
X017515Y011570D01*
X017459Y011585D01*
X017280Y011585D01*
X017280Y011190D01*
X017280Y011190D01*
X017650Y011190D01*
X017280Y011190D01*
X017280Y011190D01*
X017280Y011585D01*
X017119Y011585D01*
X017034Y011670D01*
X016902Y011725D01*
X016458Y011725D01*
X016410Y011705D01*
X016404Y011707D01*
X015946Y011707D01*
X015880Y011680D01*
X015814Y011707D01*
X015356Y011707D01*
X015322Y011694D01*
X015191Y011748D01*
X014969Y011748D01*
X014764Y011663D01*
X014706Y011606D01*
X014597Y011715D01*
X014416Y011790D01*
X019534Y011790D01*
X019534Y010998D01*
X019369Y010998D01*
X019182Y010921D01*
X019052Y010975D01*
X018775Y010975D01*
X018775Y011192D01*
X018240Y011192D01*
X017705Y011192D01*
X017705Y010967D01*
X017720Y010911D01*
X017749Y010860D01*
X017790Y010819D01*
X017840Y010791D01*
X017896Y010776D01*
X017929Y010776D01*
X017904Y010750D01*
X017875Y010700D01*
X017860Y010644D01*
X017860Y010440D01*
X018230Y010440D01*
X018230Y011192D01*
X018240Y011192D01*
X018240Y011192D01*
X017705Y011192D01*
X017705Y011418D01*
X017720Y011474D01*
X017749Y011524D01*
X017790Y011565D01*
X017840Y011594D01*
X017896Y011609D01*
X018240Y011609D01*
X018240Y011192D01*
X018240Y011192D01*
X018240Y011192D01*
X018775Y011192D01*
X018775Y011418D01*
X018760Y011474D01*
X018731Y011524D01*
X018690Y011565D01*
X018640Y011594D01*
X018584Y011609D01*
X018240Y011609D01*
X018240Y011192D01*
X018240Y011238D02*
X018240Y011238D01*
X018240Y011477D02*
X018240Y011477D01*
X017915Y010761D02*
X017085Y010761D01*
X017280Y010795D02*
X017280Y011190D01*
X017280Y010795D01*
X017280Y011000D02*
X017280Y011000D01*
X017280Y011190D02*
X017280Y011190D01*
X017280Y011238D02*
X017280Y011238D01*
X017280Y011477D02*
X017280Y011477D01*
X016926Y011715D02*
X019534Y011715D01*
X019534Y011477D02*
X018759Y011477D01*
X018775Y011238D02*
X019534Y011238D01*
X019534Y011000D02*
X018775Y011000D01*
X018830Y010440D02*
X019480Y010440D01*
X019182Y009959D02*
X019367Y009883D01*
X019237Y009753D01*
X019140Y009517D01*
X019140Y009263D01*
X019237Y009027D01*
X019417Y008847D01*
X019653Y008750D01*
X019907Y008750D01*
X020143Y008847D01*
X020205Y008910D01*
X020381Y008910D01*
X020700Y008591D01*
X020700Y005609D01*
X020646Y005663D01*
X020441Y005748D01*
X020219Y005748D01*
X020082Y005692D01*
X020002Y005725D01*
X019558Y005725D01*
X019426Y005670D01*
X019341Y005585D01*
X019180Y005585D01*
X019180Y005190D01*
X019180Y004690D01*
X018304Y004690D01*
X018304Y004190D02*
X019180Y004190D01*
X019780Y004190D02*
X019780Y003440D01*
X019738Y002905D02*
X020002Y002905D01*
X020134Y002960D01*
X020235Y003061D01*
X020290Y003193D01*
X020290Y003687D01*
X020280Y003710D01*
X020575Y003710D01*
X020752Y003783D01*
X021452Y004483D01*
X021587Y004618D01*
X021660Y004795D01*
X021660Y008885D01*
X021587Y009062D01*
X020987Y009662D01*
X020852Y009797D01*
X020675Y009870D01*
X020205Y009870D01*
X020143Y009933D01*
X019907Y010030D01*
X019859Y010030D01*
X019953Y010124D01*
X020038Y010329D01*
X020038Y010551D01*
X019990Y010667D01*
X022406Y010667D01*
X022539Y010722D01*
X022640Y010823D01*
X022670Y010895D01*
X022775Y010790D01*
X022540Y010555D01*
X022540Y010025D01*
X022775Y009790D01*
X022540Y009555D01*
X022540Y009025D01*
X022775Y008790D01*
X022540Y008555D01*
X022540Y008025D01*
X022775Y007790D01*
X022540Y007555D01*
X022540Y007025D01*
X022775Y006790D01*
X022540Y006555D01*
X022540Y006025D01*
X022775Y005790D01*
X022540Y005555D01*
X022540Y005025D01*
X022715Y004850D01*
X022469Y004850D01*
X022263Y004765D01*
X022105Y004607D01*
X021305Y003807D01*
X021220Y003601D01*
X021220Y003550D01*
X020958Y003550D01*
X020826Y003495D01*
X020725Y003394D01*
X020670Y003262D01*
X020670Y002318D01*
X020725Y002186D01*
X020826Y002085D01*
X020958Y002030D01*
X022602Y002030D01*
X022734Y002085D01*
X022835Y002186D01*
X022890Y002318D01*
X022890Y003262D01*
X022835Y003394D01*
X022734Y003495D01*
X022623Y003541D01*
X022812Y003730D01*
X022835Y003730D01*
X022915Y003650D01*
X023445Y003650D01*
X023820Y004025D01*
X023820Y004555D01*
X023585Y004790D01*
X023820Y005025D01*
X023820Y005555D01*
X023585Y005790D01*
X023820Y006025D01*
X023820Y006555D01*
X023585Y006790D01*
X023820Y007025D01*
X023820Y007555D01*
X023585Y007790D01*
X023820Y008025D01*
X023820Y008555D01*
X023585Y008790D01*
X023820Y009025D01*
X023820Y009555D01*
X023585Y009790D01*
X023820Y010025D01*
X023820Y010555D01*
X023585Y010790D01*
X023820Y011025D01*
X023820Y011555D01*
X023585Y011790D01*
X024680Y011790D01*
X024680Y003068D01*
X024361Y003200D01*
X023999Y003200D01*
X023665Y003061D01*
X023409Y002805D01*
X023270Y002471D01*
X023270Y002109D01*
X023409Y001775D01*
X023665Y001519D01*
X023878Y001430D01*
X000680Y001430D01*
X000680Y001460D02*
X023807Y001460D01*
X023485Y001698D02*
X013014Y001698D01*
X012949Y001633D02*
X013134Y001818D01*
X013234Y002059D01*
X013234Y002321D01*
X013134Y002562D01*
X013006Y002690D01*
X013026Y002710D01*
X013375Y002710D01*
X013552Y002783D01*
X013687Y002918D01*
X013725Y003010D01*
X014476Y003010D01*
X014476Y003010D01*
X014608Y002955D01*
X015052Y002955D01*
X015130Y002987D01*
X015208Y002955D01*
X015652Y002955D01*
X015784Y003010D01*
X015885Y003111D01*
X015927Y003212D01*
X016156Y003212D01*
X016161Y003210D01*
X016730Y003210D01*
X016919Y003132D01*
X017141Y003132D01*
X017346Y003217D01*
X017503Y003374D01*
X017533Y003446D01*
X017565Y003368D01*
X017667Y003267D01*
X017799Y003212D01*
X018670Y003212D01*
X018670Y003193D01*
X018696Y003130D01*
X018622Y002951D01*
X018622Y002729D01*
X018707Y002524D01*
X018864Y002367D01*
X019069Y002282D01*
X019291Y002282D01*
X019496Y002367D01*
X019653Y002524D01*
X019738Y002729D01*
X019738Y002905D01*
X019738Y002891D02*
X020670Y002891D01*
X020670Y003129D02*
X020263Y003129D01*
X020290Y003368D02*
X020714Y003368D01*
X020290Y003606D02*
X021222Y003606D01*
X021343Y003845D02*
X020813Y003845D01*
X021052Y004083D02*
X021581Y004083D01*
X021820Y004322D02*
X021290Y004322D01*
X021529Y004560D02*
X022058Y004560D01*
X022344Y004799D02*
X021660Y004799D01*
X021660Y005037D02*
X022540Y005037D01*
X022540Y005276D02*
X021660Y005276D01*
X021660Y005514D02*
X022540Y005514D01*
X022737Y005753D02*
X021660Y005753D01*
X021660Y005991D02*
X022574Y005991D01*
X022540Y006230D02*
X021660Y006230D01*
X021660Y006468D02*
X022540Y006468D01*
X022691Y006707D02*
X021660Y006707D01*
X021660Y006945D02*
X022620Y006945D01*
X022540Y007184D02*
X021660Y007184D01*
X021660Y007422D02*
X022540Y007422D01*
X022645Y007661D02*
X021660Y007661D01*
X021660Y007899D02*
X022666Y007899D01*
X022540Y008138D02*
X021660Y008138D01*
X021660Y008376D02*
X022540Y008376D01*
X022599Y008615D02*
X021660Y008615D01*
X021660Y008853D02*
X022712Y008853D01*
X022540Y009092D02*
X021557Y009092D01*
X021319Y009330D02*
X022540Y009330D01*
X022553Y009569D02*
X021080Y009569D01*
X020828Y009807D02*
X022758Y009807D01*
X022540Y010046D02*
X019875Y010046D01*
X020019Y010284D02*
X022540Y010284D01*
X022540Y010523D02*
X020038Y010523D01*
X019292Y009807D02*
X018268Y009807D01*
X018323Y009753D02*
X018143Y009933D01*
X017907Y010030D01*
X017653Y010030D01*
X017417Y009933D01*
X017237Y009753D01*
X017140Y009517D01*
X017140Y009263D01*
X017237Y009027D01*
X017417Y008847D01*
X017653Y008750D01*
X017907Y008750D01*
X018143Y008847D01*
X018323Y009027D01*
X018420Y009263D01*
X018420Y009517D01*
X018323Y009753D01*
X018399Y009569D02*
X019161Y009569D01*
X019140Y009330D02*
X018420Y009330D01*
X018349Y009092D02*
X019211Y009092D01*
X019412Y008853D02*
X018148Y008853D01*
X017907Y008030D02*
X017653Y008030D01*
X017417Y007933D01*
X017237Y007753D01*
X017140Y007517D01*
X017140Y007263D01*
X017237Y007027D01*
X017417Y006847D01*
X017653Y006750D01*
X017907Y006750D01*
X018143Y006847D01*
X018323Y007027D01*
X018420Y007263D01*
X018420Y007517D01*
X018323Y007753D01*
X018143Y007933D01*
X017907Y008030D01*
X018176Y007899D02*
X019384Y007899D01*
X019417Y007933D02*
X019237Y007753D01*
X019140Y007517D01*
X019140Y007263D01*
X019237Y007027D01*
X019417Y006847D01*
X019653Y006750D01*
X019907Y006750D01*
X020143Y006847D01*
X020323Y007027D01*
X020420Y007263D01*
X020420Y007517D01*
X020323Y007753D01*
X020143Y007933D01*
X019907Y008030D01*
X019653Y008030D01*
X019417Y007933D01*
X019199Y007661D02*
X018361Y007661D01*
X018420Y007422D02*
X019140Y007422D01*
X019173Y007184D02*
X018387Y007184D01*
X018240Y006945D02*
X019320Y006945D01*
X020240Y006945D02*
X020700Y006945D01*
X020700Y006707D02*
X000680Y006707D01*
X000680Y006945D02*
X012206Y006945D01*
X012200Y006955D02*
X012229Y006905D01*
X012270Y006864D01*
X012320Y006835D01*
X012376Y006820D01*
X012580Y006820D01*
X012784Y006820D01*
X012840Y006835D01*
X012890Y006864D01*
X012931Y006905D01*
X012960Y006955D01*
X012975Y007011D01*
X012975Y007190D01*
X012975Y007351D01*
X013060Y007436D01*
X013115Y007568D01*
X013115Y008012D01*
X013071Y008117D01*
X013138Y008279D01*
X013138Y008501D01*
X013053Y008706D01*
X012896Y008863D01*
X012691Y008948D01*
X012469Y008948D01*
X012264Y008863D01*
X012107Y008706D01*
X012022Y008501D01*
X012022Y008279D01*
X012089Y008117D01*
X012045Y008012D01*
X012045Y007568D01*
X012100Y007436D01*
X012185Y007351D01*
X012185Y007190D01*
X012580Y007190D01*
X012975Y007190D01*
X012580Y007190D01*
X012580Y007190D01*
X012580Y006820D01*
X012580Y007190D01*
X012580Y007190D01*
X012580Y007190D01*
X012185Y007190D01*
X012185Y007011D01*
X012200Y006955D01*
X012185Y007184D02*
X000680Y007184D01*
X000680Y007422D02*
X012114Y007422D01*
X012045Y007661D02*
X000680Y007661D01*
X000680Y007899D02*
X012045Y007899D01*
X012080Y008138D02*
X000680Y008138D01*
X000680Y008376D02*
X012022Y008376D01*
X012069Y008615D02*
X000680Y008615D01*
X000680Y008853D02*
X012254Y008853D01*
X012580Y008390D02*
X012580Y007790D01*
X012580Y007184D02*
X012580Y007184D01*
X012580Y006945D02*
X012580Y006945D01*
X012954Y006945D02*
X013552Y006945D01*
X013518Y006962D02*
X013588Y006927D01*
X013663Y006902D01*
X013741Y006890D01*
X013780Y006890D01*
X013819Y006890D01*
X013897Y006902D01*
X013972Y006927D01*
X014042Y006962D01*
X014106Y007009D01*
X014161Y007064D01*
X014208Y007128D01*
X014243Y007198D01*
X014268Y007273D01*
X014280Y007351D01*
X014280Y007390D01*
X014280Y007429D01*
X014268Y007507D01*
X014243Y007582D01*
X014208Y007652D01*
X014161Y007716D01*
X014106Y007771D01*
X014042Y007818D01*
X013972Y007853D01*
X013897Y007878D01*
X013819Y007890D01*
X013780Y007890D01*
X013780Y007390D01*
X014280Y007390D01*
X013780Y007390D01*
X013780Y007390D01*
X013780Y007390D01*
X013780Y006890D01*
X013780Y007390D01*
X013780Y007390D01*
X013780Y007390D01*
X013280Y007390D01*
X013280Y007429D01*
X013292Y007507D01*
X013317Y007582D01*
X013352Y007652D01*
X013399Y007716D01*
X013454Y007771D01*
X013518Y007818D01*
X013588Y007853D01*
X013663Y007878D01*
X013741Y007890D01*
X013780Y007890D01*
X013780Y007390D01*
X013280Y007390D01*
X013280Y007351D01*
X013292Y007273D01*
X013317Y007198D01*
X013352Y007128D01*
X013399Y007064D01*
X013454Y007009D01*
X013518Y006962D01*
X013780Y006945D02*
X013780Y006945D01*
X014008Y006945D02*
X015320Y006945D01*
X015237Y007027D02*
X015417Y006847D01*
X015653Y006750D01*
X015907Y006750D01*
X016143Y006847D01*
X016323Y007027D01*
X016420Y007263D01*
X016420Y007517D01*
X016323Y007753D01*
X016143Y007933D01*
X015907Y008030D01*
X015653Y008030D01*
X015417Y007933D01*
X015237Y007753D01*
X015140Y007517D01*
X015140Y007263D01*
X015237Y007027D01*
X015173Y007184D02*
X014236Y007184D01*
X014280Y007422D02*
X015140Y007422D01*
X015199Y007661D02*
X014201Y007661D01*
X013780Y007661D02*
X013780Y007661D01*
X013780Y007422D02*
X013780Y007422D01*
X013780Y007184D02*
X013780Y007184D01*
X013324Y007184D02*
X012975Y007184D01*
X013046Y007422D02*
X013280Y007422D01*
X013359Y007661D02*
X013115Y007661D01*
X013115Y007899D02*
X015384Y007899D01*
X016176Y007899D02*
X017384Y007899D01*
X017199Y007661D02*
X016361Y007661D01*
X016420Y007422D02*
X017140Y007422D01*
X017173Y007184D02*
X016387Y007184D01*
X016240Y006945D02*
X017320Y006945D01*
X017252Y006375D02*
X016808Y006375D01*
X016705Y006332D01*
X016602Y006375D01*
X016158Y006375D01*
X016080Y006343D01*
X016002Y006375D01*
X015558Y006375D01*
X015478Y006342D01*
X015341Y006398D01*
X015119Y006398D01*
X014914Y006313D01*
X014757Y006156D01*
X014672Y005951D01*
X014672Y005729D01*
X014757Y005524D01*
X014914Y005367D01*
X015119Y005282D01*
X015341Y005282D01*
X015463Y005333D01*
X015463Y005000D01*
X015488Y004940D01*
X015463Y004880D01*
X015463Y004725D01*
X015208Y004725D01*
X015130Y004693D01*
X015052Y004725D01*
X014608Y004725D01*
X014476Y004670D01*
X013026Y004670D01*
X012949Y004747D01*
X012884Y004774D01*
X012914Y004796D01*
X012971Y004853D01*
X013019Y004919D01*
X013056Y004992D01*
X013081Y005069D01*
X013094Y005149D01*
X013094Y005190D01*
X013094Y005231D01*
X013081Y005311D01*
X013056Y005388D01*
X013019Y005461D01*
X012971Y005527D01*
X012914Y005584D01*
X012848Y005632D01*
X012775Y005669D01*
X012698Y005694D01*
X012618Y005707D01*
X012280Y005707D01*
X011942Y005707D01*
X011862Y005694D01*
X011785Y005669D01*
X011712Y005632D01*
X011646Y005584D01*
X011589Y005527D01*
X011541Y005461D01*
X011504Y005388D01*
X011479Y005311D01*
X011466Y005231D01*
X011466Y005190D01*
X011466Y005149D01*
X011479Y005069D01*
X011504Y004992D01*
X011541Y004919D01*
X011589Y004853D01*
X011646Y004796D01*
X011676Y004774D01*
X011611Y004747D01*
X011426Y004562D01*
X011326Y004321D01*
X011326Y004059D01*
X011426Y003818D01*
X011554Y003690D01*
X011426Y003562D01*
X011326Y003321D01*
X011326Y003059D01*
X011426Y002818D01*
X011554Y002690D01*
X011426Y002562D01*
X011326Y002321D01*
X011326Y002059D01*
X011426Y001818D01*
X011611Y001633D01*
X011852Y001533D01*
X012708Y001533D01*
X012949Y001633D01*
X013183Y001937D02*
X023341Y001937D01*
X023270Y002175D02*
X022824Y002175D01*
X022890Y002414D02*
X023270Y002414D01*
X023345Y002652D02*
X022890Y002652D01*
X022890Y002891D02*
X023494Y002891D01*
X023828Y003129D02*
X022890Y003129D01*
X022846Y003368D02*
X024680Y003368D01*
X024680Y003606D02*
X022688Y003606D01*
X023640Y003845D02*
X024680Y003845D01*
X024680Y004083D02*
X023820Y004083D01*
X023820Y004322D02*
X024680Y004322D01*
X024680Y004560D02*
X023815Y004560D01*
X023594Y004799D02*
X024680Y004799D01*
X024680Y005037D02*
X023820Y005037D01*
X023820Y005276D02*
X024680Y005276D01*
X024680Y005514D02*
X023820Y005514D01*
X023623Y005753D02*
X024680Y005753D01*
X024680Y005991D02*
X023786Y005991D01*
X023820Y006230D02*
X024680Y006230D01*
X024680Y006468D02*
X023820Y006468D01*
X023669Y006707D02*
X024680Y006707D01*
X024680Y006945D02*
X023740Y006945D01*
X023820Y007184D02*
X024680Y007184D01*
X024680Y007422D02*
X023820Y007422D01*
X023715Y007661D02*
X024680Y007661D01*
X024680Y007899D02*
X023694Y007899D01*
X023820Y008138D02*
X024680Y008138D01*
X024680Y008376D02*
X023820Y008376D01*
X023761Y008615D02*
X024680Y008615D01*
X024680Y008853D02*
X023648Y008853D01*
X023820Y009092D02*
X024680Y009092D01*
X024680Y009330D02*
X023820Y009330D01*
X023807Y009569D02*
X024680Y009569D01*
X024680Y009807D02*
X023602Y009807D01*
X023820Y010046D02*
X024680Y010046D01*
X024680Y010284D02*
X023820Y010284D01*
X023820Y010523D02*
X024680Y010523D01*
X024680Y010761D02*
X023614Y010761D01*
X023795Y011000D02*
X024680Y011000D01*
X024680Y011238D02*
X023820Y011238D01*
X023820Y011477D02*
X024680Y011477D01*
X024680Y011715D02*
X023660Y011715D01*
X023585Y012790D02*
X023820Y013025D01*
X023820Y013555D01*
X023585Y013790D01*
X023820Y014025D01*
X023820Y014555D01*
X023585Y014790D01*
X023820Y015025D01*
X023820Y015555D01*
X023585Y015790D01*
X023820Y016025D01*
X023820Y016555D01*
X023585Y016790D01*
X023820Y017025D01*
X023820Y017555D01*
X023585Y017790D01*
X023820Y018025D01*
X023820Y018555D01*
X023486Y018889D01*
X023680Y019083D01*
X023680Y019290D01*
X023680Y019497D01*
X023486Y019691D01*
X023820Y020025D01*
X023820Y020555D01*
X023585Y020790D01*
X023820Y021025D01*
X023820Y021555D01*
X023585Y021790D01*
X023820Y022025D01*
X023820Y022555D01*
X023585Y022790D01*
X023820Y023025D01*
X023820Y023555D01*
X023585Y023790D01*
X023820Y024025D01*
X023820Y024555D01*
X023585Y024790D01*
X023820Y025025D01*
X023820Y025555D01*
X023585Y025790D01*
X023820Y026025D01*
X024680Y026025D01*
X024680Y025787D02*
X023589Y025787D01*
X023820Y026025D02*
X023820Y026555D01*
X023585Y026790D01*
X023820Y027025D01*
X023820Y027555D01*
X023585Y027790D01*
X023820Y028025D01*
X023820Y028555D01*
X023585Y028790D01*
X023820Y029025D01*
X023820Y029555D01*
X023585Y029790D01*
X023820Y030025D01*
X023820Y030555D01*
X023585Y030790D01*
X023820Y031025D01*
X023820Y031555D01*
X023585Y031790D01*
X023820Y032025D01*
X023820Y032555D01*
X023585Y032790D01*
X023820Y033025D01*
X023820Y033555D01*
X023585Y033790D01*
X023820Y034025D01*
X023820Y034555D01*
X023585Y034790D01*
X023820Y035025D01*
X023820Y035555D01*
X023445Y035930D01*
X022915Y035930D01*
X022755Y035770D01*
X022587Y035770D01*
X022535Y035894D01*
X022434Y035995D01*
X022302Y036050D01*
X020658Y036050D01*
X020526Y035995D01*
X020425Y035894D01*
X020370Y035762D01*
X020370Y034818D01*
X020425Y034686D01*
X020526Y034585D01*
X020658Y034530D01*
X022302Y034530D01*
X022434Y034585D01*
X022535Y034686D01*
X022587Y034810D01*
X022755Y034810D01*
X022775Y034790D01*
X022540Y034555D01*
X022540Y034025D01*
X022775Y033790D01*
X022540Y033555D01*
X022540Y033025D01*
X022775Y032790D01*
X022540Y032555D01*
X022540Y032025D01*
X022775Y031790D01*
X022540Y031555D01*
X022540Y031025D01*
X022775Y030790D01*
X022540Y030555D01*
X022540Y030025D01*
X022775Y029790D01*
X022540Y029555D01*
X022540Y029025D01*
X022775Y028790D01*
X022540Y028555D01*
X022540Y028025D01*
X022775Y027790D01*
X022540Y027555D01*
X022540Y027025D01*
X022775Y026790D01*
X022540Y026555D01*
X022540Y026025D01*
X017680Y026025D01*
X017680Y025787D02*
X022771Y025787D01*
X022775Y025790D02*
X022540Y025555D01*
X022540Y025025D01*
X022775Y024790D01*
X022540Y024555D01*
X022540Y024025D01*
X022775Y023790D01*
X022540Y023555D01*
X022540Y023025D01*
X022775Y022790D01*
X022540Y022555D01*
X022540Y022025D01*
X022775Y021790D01*
X022540Y021555D01*
X022540Y021025D01*
X022775Y020790D01*
X022540Y020555D01*
X022540Y020025D01*
X022874Y019691D01*
X022680Y019497D01*
X022680Y019290D01*
X023180Y019290D01*
X023680Y019290D01*
X023180Y019290D01*
X023180Y019290D01*
X023180Y019290D01*
X022680Y019290D01*
X022680Y019083D01*
X022874Y018889D01*
X022540Y018555D01*
X022540Y018025D01*
X022775Y017790D01*
X022540Y017555D01*
X022540Y017025D01*
X022775Y016790D01*
X022540Y016555D01*
X022540Y016025D01*
X022775Y015790D01*
X022540Y015555D01*
X022540Y015025D01*
X022775Y014790D01*
X022540Y014555D01*
X022540Y014025D01*
X022775Y013790D01*
X022540Y013555D01*
X022540Y013457D01*
X022539Y013458D01*
X022406Y013513D01*
X019822Y013513D01*
X019690Y013458D01*
X019589Y013357D01*
X019534Y013225D01*
X019534Y012790D01*
X018775Y012790D01*
X018775Y012988D01*
X018775Y013213D01*
X018760Y013269D01*
X018731Y013320D01*
X018690Y013361D01*
X018640Y013389D01*
X018584Y013404D01*
X018240Y013404D01*
X017896Y013404D01*
X017840Y013389D01*
X017790Y013361D01*
X017749Y013320D01*
X017720Y013269D01*
X017705Y013213D01*
X017705Y012988D01*
X018240Y012988D01*
X018240Y013404D01*
X018240Y012988D01*
X018240Y012988D01*
X018240Y012988D01*
X017705Y012988D01*
X017705Y012790D01*
X017680Y012790D01*
X017680Y016321D01*
X017728Y016437D01*
X017728Y017643D01*
X017680Y017759D01*
X017680Y030921D01*
X017728Y031037D01*
X017728Y032243D01*
X017680Y032359D01*
X017680Y038050D01*
X023653Y038050D01*
X023409Y037805D01*
X023270Y037471D01*
X023270Y037109D01*
X023409Y036775D01*
X023665Y036519D01*
X023999Y036380D01*
X024361Y036380D01*
X024680Y036512D01*
X024680Y012790D01*
X023585Y012790D01*
X023703Y012908D02*
X024680Y012908D01*
X024680Y013146D02*
X023820Y013146D01*
X023820Y013385D02*
X024680Y013385D01*
X024680Y013623D02*
X023752Y013623D01*
X023657Y013862D02*
X024680Y013862D01*
X024680Y014100D02*
X023820Y014100D01*
X023820Y014339D02*
X024680Y014339D01*
X024680Y014577D02*
X023798Y014577D01*
X023611Y014816D02*
X024680Y014816D01*
X024680Y015054D02*
X023820Y015054D01*
X023820Y015293D02*
X024680Y015293D01*
X024680Y015531D02*
X023820Y015531D01*
X023606Y015770D02*
X024680Y015770D01*
X024680Y016008D02*
X023803Y016008D01*
X023820Y016247D02*
X024680Y016247D01*
X024680Y016485D02*
X023820Y016485D01*
X023652Y016724D02*
X024680Y016724D01*
X024680Y016962D02*
X023757Y016962D01*
X023820Y017201D02*
X024680Y017201D01*
X024680Y017439D02*
X023820Y017439D01*
X023698Y017678D02*
X024680Y017678D01*
X024680Y017916D02*
X023711Y017916D01*
X023820Y018155D02*
X024680Y018155D01*
X024680Y018393D02*
X023820Y018393D01*
X023744Y018632D02*
X024680Y018632D01*
X024680Y018870D02*
X023505Y018870D01*
X023680Y019109D02*
X024680Y019109D01*
X024680Y019347D02*
X023680Y019347D01*
X023592Y019586D02*
X024680Y019586D01*
X024680Y019824D02*
X023619Y019824D01*
X023820Y020063D02*
X024680Y020063D01*
X024680Y020301D02*
X023820Y020301D01*
X023820Y020540D02*
X024680Y020540D01*
X024680Y020778D02*
X023597Y020778D01*
X023812Y021017D02*
X024680Y021017D01*
X024680Y021255D02*
X023820Y021255D01*
X023820Y021494D02*
X024680Y021494D01*
X024680Y021732D02*
X023643Y021732D01*
X023766Y021971D02*
X024680Y021971D01*
X024680Y022209D02*
X023820Y022209D01*
X023820Y022448D02*
X024680Y022448D01*
X024680Y022686D02*
X023689Y022686D01*
X023720Y022925D02*
X024680Y022925D01*
X024680Y023163D02*
X023820Y023163D01*
X023820Y023402D02*
X024680Y023402D01*
X024680Y023640D02*
X023735Y023640D01*
X023674Y023879D02*
X024680Y023879D01*
X024680Y024117D02*
X023820Y024117D01*
X023820Y024356D02*
X024680Y024356D01*
X024680Y024594D02*
X023781Y024594D01*
X023628Y024833D02*
X024680Y024833D01*
X024680Y025071D02*
X023820Y025071D01*
X023820Y025310D02*
X024680Y025310D01*
X024680Y025548D02*
X023820Y025548D01*
X023820Y026264D02*
X024680Y026264D01*
X024680Y026502D02*
X023820Y026502D01*
X023635Y026741D02*
X024680Y026741D01*
X024680Y026979D02*
X023774Y026979D01*
X023820Y027218D02*
X024680Y027218D01*
X024680Y027456D02*
X023820Y027456D01*
X023681Y027695D02*
X024680Y027695D01*
X024680Y027933D02*
X023728Y027933D01*
X023820Y028172D02*
X024680Y028172D01*
X024680Y028410D02*
X023820Y028410D01*
X023727Y028649D02*
X024680Y028649D01*
X024680Y028887D02*
X023682Y028887D01*
X023820Y029126D02*
X024680Y029126D01*
X024680Y029364D02*
X023820Y029364D01*
X023773Y029603D02*
X024680Y029603D01*
X024680Y029841D02*
X023636Y029841D01*
X023820Y030080D02*
X024680Y030080D01*
X024680Y030318D02*
X023820Y030318D01*
X023819Y030557D02*
X024680Y030557D01*
X024680Y030795D02*
X023590Y030795D01*
X023820Y031034D02*
X024680Y031034D01*
X024680Y031272D02*
X023820Y031272D01*
X023820Y031511D02*
X024680Y031511D01*
X024680Y031749D02*
X023626Y031749D01*
X023783Y031988D02*
X024680Y031988D01*
X024680Y032226D02*
X023820Y032226D01*
X023820Y032465D02*
X024680Y032465D01*
X024680Y032703D02*
X023672Y032703D01*
X023737Y032942D02*
X024680Y032942D01*
X024680Y033180D02*
X023820Y033180D01*
X023820Y033419D02*
X024680Y033419D01*
X024680Y033657D02*
X023718Y033657D01*
X023691Y033896D02*
X024680Y033896D01*
X024680Y034134D02*
X023820Y034134D01*
X023820Y034373D02*
X024680Y034373D01*
X024680Y034611D02*
X023764Y034611D01*
X023645Y034850D02*
X024680Y034850D01*
X024680Y035088D02*
X023820Y035088D01*
X023820Y035327D02*
X024680Y035327D01*
X024680Y035565D02*
X023810Y035565D01*
X023572Y035804D02*
X024680Y035804D01*
X024680Y036042D02*
X022321Y036042D01*
X022573Y035804D02*
X022788Y035804D01*
X023180Y035290D02*
X021480Y035290D01*
X020639Y036042D02*
X017680Y036042D01*
X017680Y035804D02*
X020387Y035804D01*
X020370Y035565D02*
X017680Y035565D01*
X017680Y035327D02*
X020370Y035327D01*
X020370Y035088D02*
X017680Y035088D01*
X017680Y034850D02*
X020370Y034850D01*
X020500Y034611D02*
X017680Y034611D01*
X017680Y034373D02*
X022540Y034373D01*
X022540Y034134D02*
X017680Y034134D01*
X017680Y033896D02*
X022669Y033896D01*
X022642Y033657D02*
X017680Y033657D01*
X017680Y033419D02*
X022540Y033419D01*
X022540Y033180D02*
X017680Y033180D01*
X017680Y032942D02*
X022623Y032942D01*
X022688Y032703D02*
X017680Y032703D01*
X017680Y032465D02*
X022540Y032465D01*
X022540Y032226D02*
X019314Y032226D01*
X019320Y032200D02*
X019305Y032256D01*
X019277Y032307D01*
X019236Y032348D01*
X019185Y032377D01*
X019129Y032391D01*
X018803Y032391D01*
X018803Y031697D01*
X018689Y031697D01*
X018689Y031583D01*
X018172Y031583D01*
X018172Y031080D01*
X018187Y031024D01*
X018216Y030973D01*
X018257Y030932D01*
X018307Y030903D01*
X018363Y030889D01*
X018689Y030889D01*
X018689Y031583D01*
X018803Y031583D01*
X018803Y030889D01*
X019129Y030889D01*
X019185Y030903D01*
X019236Y030932D01*
X019277Y030973D01*
X019305Y031024D01*
X019320Y031080D01*
X019320Y031397D01*
X019325Y031380D01*
X019354Y031330D01*
X019395Y031289D01*
X019445Y031260D01*
X019501Y031245D01*
X019680Y031245D01*
X019841Y031245D01*
X019926Y031160D01*
X020058Y031105D01*
X020502Y031105D01*
X020634Y031160D01*
X020680Y031160D01*
X020869Y031082D01*
X021091Y031082D01*
X021296Y031167D01*
X021453Y031324D01*
X021538Y031529D01*
X021538Y031751D01*
X021453Y031956D01*
X021296Y032113D01*
X021091Y032198D01*
X020869Y032198D01*
X020680Y032120D01*
X020634Y032120D01*
X020634Y032120D01*
X020502Y032175D01*
X020058Y032175D01*
X019926Y032120D01*
X019841Y032035D01*
X019680Y032035D01*
X019680Y031640D01*
X019680Y031640D01*
X019680Y032035D01*
X019501Y032035D01*
X019445Y032020D01*
X019395Y031991D01*
X019354Y031950D01*
X019325Y031900D01*
X019320Y031883D01*
X019320Y032200D01*
X019320Y031988D02*
X019391Y031988D01*
X019680Y031988D02*
X019680Y031988D01*
X019680Y031749D02*
X019680Y031749D01*
X019680Y031640D02*
X019310Y031640D01*
X019310Y031697D01*
X018803Y031697D01*
X018803Y031583D01*
X019310Y031583D01*
X019310Y031640D01*
X019680Y031640D01*
X019680Y031245D01*
X019680Y031640D01*
X019680Y031640D01*
X019680Y031640D01*
X019680Y031511D02*
X019680Y031511D01*
X019680Y031272D02*
X019680Y031272D01*
X019424Y031272D02*
X019320Y031272D01*
X019308Y031034D02*
X022540Y031034D01*
X022540Y031272D02*
X021401Y031272D01*
X021530Y031511D02*
X022540Y031511D01*
X022734Y031749D02*
X021538Y031749D01*
X021422Y031988D02*
X022577Y031988D01*
X022770Y030795D02*
X017680Y030795D01*
X017680Y030557D02*
X022541Y030557D01*
X022540Y030318D02*
X017680Y030318D01*
X017680Y030080D02*
X022540Y030080D01*
X022724Y029841D02*
X017680Y029841D01*
X017680Y029603D02*
X022587Y029603D01*
X022540Y029364D02*
X017680Y029364D01*
X017680Y029126D02*
X022540Y029126D01*
X022678Y028887D02*
X017680Y028887D01*
X017680Y028649D02*
X022633Y028649D01*
X022540Y028410D02*
X017680Y028410D01*
X017680Y028172D02*
X022540Y028172D01*
X022632Y027933D02*
X017680Y027933D01*
X017680Y027695D02*
X022679Y027695D01*
X022540Y027456D02*
X017680Y027456D01*
X017680Y027218D02*
X022540Y027218D01*
X022586Y026979D02*
X017680Y026979D01*
X017680Y026741D02*
X022725Y026741D01*
X022540Y026502D02*
X017680Y026502D01*
X017680Y026264D02*
X022540Y026264D01*
X022540Y026025D02*
X022775Y025790D01*
X022540Y025548D02*
X017680Y025548D01*
X017680Y025310D02*
X022540Y025310D01*
X022540Y025071D02*
X017680Y025071D01*
X017680Y024833D02*
X022732Y024833D01*
X022579Y024594D02*
X017680Y024594D01*
X017680Y024356D02*
X022540Y024356D01*
X022540Y024117D02*
X017680Y024117D01*
X017680Y023879D02*
X022686Y023879D01*
X022625Y023640D02*
X017680Y023640D01*
X017680Y023402D02*
X022540Y023402D01*
X022540Y023163D02*
X017680Y023163D01*
X017680Y022925D02*
X022640Y022925D01*
X022671Y022686D02*
X017680Y022686D01*
X017680Y022448D02*
X022540Y022448D01*
X022540Y022209D02*
X017680Y022209D01*
X017680Y021971D02*
X022594Y021971D01*
X022717Y021732D02*
X017680Y021732D01*
X017680Y021494D02*
X022540Y021494D01*
X022540Y021255D02*
X017680Y021255D01*
X017680Y021017D02*
X022548Y021017D01*
X022763Y020778D02*
X017680Y020778D01*
X017680Y020540D02*
X022540Y020540D01*
X022540Y020301D02*
X017680Y020301D01*
X017680Y020063D02*
X022540Y020063D01*
X022741Y019824D02*
X017680Y019824D01*
X017680Y019586D02*
X022768Y019586D01*
X022680Y019347D02*
X017680Y019347D01*
X017680Y019109D02*
X022680Y019109D01*
X022855Y018870D02*
X017680Y018870D01*
X017680Y018632D02*
X022616Y018632D01*
X022540Y018393D02*
X017680Y018393D01*
X017680Y018155D02*
X022540Y018155D01*
X022649Y017916D02*
X017680Y017916D01*
X017714Y017678D02*
X018199Y017678D01*
X018187Y017656D02*
X018172Y017600D01*
X018172Y017097D01*
X018689Y017097D01*
X018689Y016983D01*
X018172Y016983D01*
X018172Y016480D01*
X018187Y016424D01*
X018216Y016373D01*
X018257Y016332D01*
X018307Y016303D01*
X018363Y016289D01*
X018689Y016289D01*
X018689Y016983D01*
X018803Y016983D01*
X018803Y016289D01*
X019129Y016289D01*
X019185Y016303D01*
X019236Y016332D01*
X019277Y016373D01*
X019305Y016424D01*
X019320Y016480D01*
X019320Y016747D01*
X019325Y016730D01*
X019354Y016680D01*
X019395Y016639D01*
X019445Y016610D01*
X019501Y016595D01*
X019680Y016595D01*
X019841Y016595D01*
X019926Y016510D01*
X020058Y016455D01*
X020502Y016455D01*
X020607Y016499D01*
X020769Y016432D01*
X020991Y016432D01*
X021196Y016517D01*
X021353Y016674D01*
X021438Y016879D01*
X021438Y017101D01*
X021353Y017306D01*
X021196Y017463D01*
X020991Y017548D01*
X020769Y017548D01*
X020607Y017481D01*
X020502Y017525D01*
X020058Y017525D01*
X019926Y017470D01*
X019841Y017385D01*
X019680Y017385D01*
X019680Y016990D01*
X019680Y016990D01*
X019680Y016595D01*
X019680Y016990D01*
X019680Y016990D01*
X019680Y017385D01*
X019501Y017385D01*
X019445Y017370D01*
X019395Y017341D01*
X019354Y017300D01*
X019325Y017250D01*
X019320Y017233D01*
X019320Y017600D01*
X019305Y017656D01*
X019277Y017707D01*
X019236Y017748D01*
X019185Y017777D01*
X019129Y017791D01*
X018803Y017791D01*
X018803Y017097D01*
X018689Y017097D01*
X018689Y017791D01*
X018363Y017791D01*
X018307Y017777D01*
X018257Y017748D01*
X018216Y017707D01*
X018187Y017656D01*
X018172Y017439D02*
X017728Y017439D01*
X017728Y017201D02*
X018172Y017201D01*
X018172Y016962D02*
X017728Y016962D01*
X017728Y016724D02*
X018172Y016724D01*
X018172Y016485D02*
X017728Y016485D01*
X017680Y016247D02*
X022540Y016247D01*
X022540Y016485D02*
X021119Y016485D01*
X021374Y016724D02*
X022708Y016724D01*
X022603Y016962D02*
X021438Y016962D01*
X021397Y017201D02*
X022540Y017201D01*
X022540Y017439D02*
X021220Y017439D01*
X020880Y016990D02*
X020280Y016990D01*
X020574Y016485D02*
X020641Y016485D01*
X019986Y016485D02*
X019320Y016485D01*
X019320Y016724D02*
X019329Y016724D01*
X019310Y016983D02*
X018803Y016983D01*
X018803Y017097D01*
X019310Y017097D01*
X019310Y016990D01*
X019680Y016990D01*
X019680Y016990D01*
X019310Y016990D01*
X019310Y016983D01*
X019680Y016962D02*
X019680Y016962D01*
X019680Y016724D02*
X019680Y016724D01*
X019680Y017201D02*
X019680Y017201D01*
X019895Y017439D02*
X019320Y017439D01*
X019293Y017678D02*
X022662Y017678D01*
X022557Y016008D02*
X017680Y016008D01*
X017680Y015770D02*
X022754Y015770D01*
X022540Y015531D02*
X017680Y015531D01*
X017680Y015293D02*
X022540Y015293D01*
X022540Y015054D02*
X017680Y015054D01*
X017680Y014816D02*
X022749Y014816D01*
X022562Y014577D02*
X017680Y014577D01*
X017680Y014339D02*
X022540Y014339D01*
X022540Y014100D02*
X017680Y014100D01*
X017680Y013862D02*
X022703Y013862D01*
X022608Y013623D02*
X017680Y013623D01*
X017680Y013385D02*
X017832Y013385D01*
X017705Y013146D02*
X017680Y013146D01*
X017680Y012908D02*
X017705Y012908D01*
X018240Y012988D02*
X018240Y012988D01*
X018775Y012988D01*
X018240Y012988D01*
X018240Y013146D02*
X018240Y013146D01*
X018240Y013385D02*
X018240Y013385D01*
X018649Y013385D02*
X019616Y013385D01*
X019534Y013146D02*
X018775Y013146D01*
X018775Y012908D02*
X019534Y012908D01*
X020930Y012340D02*
X021114Y012340D01*
X021114Y012090D01*
X022578Y010761D02*
X022746Y010761D01*
X021180Y008790D02*
X020580Y009390D01*
X019780Y009390D01*
X020148Y008853D02*
X020438Y008853D01*
X020677Y008615D02*
X013091Y008615D01*
X013138Y008376D02*
X020700Y008376D01*
X020700Y008138D02*
X013080Y008138D01*
X012906Y008853D02*
X013313Y008853D01*
X013135Y009092D02*
X000680Y009092D01*
X000680Y009330D02*
X013070Y009330D01*
X013070Y009569D02*
X000680Y009569D01*
X000680Y009807D02*
X013070Y009807D01*
X012160Y010046D02*
X000680Y010046D01*
X000680Y010284D02*
X011930Y010284D01*
X011870Y010523D02*
X000680Y010523D01*
X000680Y010761D02*
X011915Y010761D01*
X012098Y011000D02*
X000680Y011000D01*
X000680Y011238D02*
X012270Y011238D01*
X012232Y011477D02*
X000680Y011477D01*
X000680Y011715D02*
X012089Y011715D01*
X010180Y011954D02*
X000680Y011954D01*
X000680Y012192D02*
X010180Y012192D01*
X010180Y012431D02*
X000680Y012431D01*
X000680Y012669D02*
X010180Y012669D01*
X010180Y012908D02*
X000680Y012908D01*
X000680Y013146D02*
X010180Y013146D01*
X010180Y013385D02*
X000680Y013385D01*
X000680Y013623D02*
X010180Y013623D01*
X010180Y013862D02*
X000680Y013862D01*
X000680Y014100D02*
X010180Y014100D01*
X010180Y014339D02*
X000680Y014339D01*
X000680Y014577D02*
X010180Y014577D01*
X010180Y014816D02*
X000680Y014816D01*
X000680Y015054D02*
X010180Y015054D01*
X010180Y015293D02*
X000680Y015293D01*
X000680Y015531D02*
X010180Y015531D01*
X010180Y015770D02*
X000680Y015770D01*
X000680Y016008D02*
X010180Y016008D01*
X010180Y016247D02*
X000680Y016247D01*
X000680Y016485D02*
X010180Y016485D01*
X010180Y016724D02*
X000680Y016724D01*
X000680Y016962D02*
X010180Y016962D01*
X010180Y017201D02*
X000680Y017201D01*
X000680Y017439D02*
X010180Y017439D01*
X010180Y017678D02*
X000680Y017678D01*
X000680Y017916D02*
X010180Y017916D01*
X010180Y018155D02*
X000680Y018155D01*
X000680Y018393D02*
X010180Y018393D01*
X010180Y018632D02*
X000680Y018632D01*
X000680Y018870D02*
X010180Y018870D01*
X010180Y019109D02*
X000680Y019109D01*
X000680Y019347D02*
X010180Y019347D01*
X010180Y019586D02*
X000680Y019586D01*
X000680Y019824D02*
X010180Y019824D01*
X010180Y020063D02*
X000680Y020063D01*
X000680Y020301D02*
X010180Y020301D01*
X010180Y020540D02*
X000680Y020540D01*
X000680Y020778D02*
X010180Y020778D01*
X009687Y021017D02*
X009573Y021017D01*
X009573Y021255D02*
X009687Y021255D01*
X009573Y021494D02*
X008237Y021494D01*
X008123Y021494D02*
X000680Y021494D01*
X000680Y021732D02*
X007429Y021732D01*
X007448Y021971D02*
X000680Y021971D01*
X000680Y022209D02*
X010180Y022209D01*
X010180Y022448D02*
X000680Y022448D01*
X000680Y022686D02*
X007355Y022686D01*
X008180Y023256D02*
X008180Y023290D01*
X006030Y023290D01*
X006030Y025340D01*
X005156Y025340D01*
X005156Y024840D02*
X004230Y024840D01*
X003630Y024840D02*
X001830Y024840D01*
X002571Y024356D02*
X003286Y024356D01*
X002723Y024117D02*
X004377Y024117D01*
X004612Y023879D02*
X002784Y023879D01*
X002755Y023640D02*
X004659Y023640D01*
X004829Y023402D02*
X002617Y023402D01*
X003276Y025320D02*
X003276Y025320D01*
X002554Y025548D02*
X004371Y025548D01*
X004363Y025787D02*
X002642Y025787D01*
X002644Y025840D02*
X001830Y025840D01*
X001830Y025840D01*
X001830Y026357D01*
X001830Y025840D01*
X002644Y025840D01*
X002610Y026025D02*
X004363Y026025D01*
X004520Y026264D02*
X002423Y026264D01*
X001830Y026264D02*
X001830Y026264D01*
X001830Y026025D02*
X001830Y026025D01*
X001830Y025840D02*
X001830Y025840D01*
X001830Y025840D01*
X001016Y025840D01*
X001830Y025840D01*
X001237Y026264D02*
X000680Y026264D01*
X000680Y026502D02*
X010180Y026502D01*
X008851Y026741D02*
X000680Y026741D01*
X000680Y026025D02*
X001050Y026025D01*
X001018Y025787D02*
X000680Y025787D01*
X000680Y025548D02*
X001106Y025548D01*
X001074Y025310D02*
X000680Y025310D01*
X000680Y025071D02*
X000918Y025071D01*
X000876Y024833D02*
X000680Y024833D01*
X000680Y024594D02*
X000924Y024594D01*
X001089Y024356D02*
X000680Y024356D01*
X000680Y024117D02*
X000937Y024117D01*
X000876Y023879D02*
X000680Y023879D01*
X000680Y023640D02*
X000905Y023640D01*
X001043Y023402D02*
X000680Y023402D01*
X000680Y023163D02*
X005563Y023163D01*
X005550Y023402D02*
X005531Y023402D01*
X005180Y023840D02*
X005180Y024340D01*
X005156Y024340D01*
X005717Y022925D02*
X000680Y022925D01*
X000680Y021255D02*
X007429Y021255D01*
X007490Y021017D02*
X000680Y021017D01*
X005793Y026264D02*
X006567Y026264D01*
X006411Y026025D02*
X005949Y026025D01*
X006206Y025787D02*
X006411Y025787D01*
X007841Y026263D02*
X007876Y026228D01*
X007901Y026235D01*
X008080Y026235D01*
X008080Y025840D01*
X008080Y025840D01*
X008080Y026025D02*
X008080Y026025D01*
X008123Y021971D02*
X008237Y021971D01*
X008237Y021732D02*
X008123Y021732D01*
X008123Y021255D02*
X008237Y021255D01*
X008237Y021017D02*
X008123Y021017D01*
X008870Y021017D02*
X008940Y021017D01*
X009573Y021732D02*
X009687Y021732D01*
X009687Y021971D02*
X009573Y021971D01*
X011030Y015990D02*
X011930Y015990D01*
X014030Y015990D02*
X014730Y015990D01*
X014730Y017040D01*
X015730Y018140D02*
X016180Y018140D01*
X018689Y017678D02*
X018803Y017678D01*
X018803Y017439D02*
X018689Y017439D01*
X018689Y017201D02*
X018803Y017201D01*
X018803Y016962D02*
X018689Y016962D01*
X018689Y016724D02*
X018803Y016724D01*
X018803Y016485D02*
X018689Y016485D01*
X016434Y011715D02*
X015271Y011715D01*
X014889Y011715D02*
X014597Y011715D01*
X015080Y011190D02*
X015585Y011190D01*
X016175Y011190D02*
X016680Y011190D01*
X016143Y009933D02*
X015907Y010030D01*
X015653Y010030D01*
X015417Y009933D01*
X015237Y009753D01*
X015140Y009517D01*
X015140Y009263D01*
X015237Y009027D01*
X015417Y008847D01*
X015653Y008750D01*
X015907Y008750D01*
X016143Y008847D01*
X016323Y009027D01*
X016420Y009263D01*
X016420Y009517D01*
X016323Y009753D01*
X016143Y009933D01*
X016268Y009807D02*
X017292Y009807D01*
X017161Y009569D02*
X016399Y009569D01*
X016420Y009330D02*
X017140Y009330D01*
X017211Y009092D02*
X016349Y009092D01*
X016148Y008853D02*
X017412Y008853D01*
X017995Y010060D02*
X018051Y010045D01*
X018230Y010045D01*
X018391Y010045D01*
X018476Y009960D01*
X018608Y009905D01*
X019052Y009905D01*
X019182Y009959D01*
X018230Y010045D02*
X018230Y010440D01*
X018230Y010440D01*
X018230Y010440D01*
X018230Y010045D01*
X018230Y010046D02*
X018230Y010046D01*
X018049Y010046D02*
X014490Y010046D01*
X014490Y010284D02*
X017860Y010284D01*
X017860Y010236D02*
X017875Y010180D01*
X017904Y010130D01*
X017945Y010089D01*
X017995Y010060D01*
X017860Y010236D02*
X017860Y010440D01*
X018230Y010440D01*
X018230Y010284D02*
X018230Y010284D01*
X017860Y010523D02*
X014490Y010523D01*
X014587Y010761D02*
X014720Y010761D01*
X014490Y009807D02*
X015292Y009807D01*
X015161Y009569D02*
X014490Y009569D01*
X014490Y009330D02*
X015140Y009330D01*
X015211Y009092D02*
X014425Y009092D01*
X014247Y008853D02*
X015412Y008853D01*
X017252Y006375D02*
X017330Y006343D01*
X017408Y006375D01*
X017852Y006375D01*
X017984Y006320D01*
X018085Y006219D01*
X018140Y006087D01*
X018140Y005668D01*
X018808Y005668D01*
X018941Y005613D01*
X018976Y005578D01*
X019001Y005585D01*
X019180Y005585D01*
X019180Y005190D01*
X019180Y005190D01*
X019180Y005276D02*
X019180Y005276D01*
X019180Y005514D02*
X019180Y005514D01*
X019780Y005190D02*
X020330Y005190D01*
X020700Y005753D02*
X018140Y005753D01*
X018140Y005991D02*
X020700Y005991D01*
X020700Y006230D02*
X018075Y006230D01*
X017630Y005840D02*
X017630Y004190D01*
X018304Y004190D01*
X017566Y003368D02*
X017497Y003368D01*
X017030Y003690D02*
X016256Y003690D01*
X016256Y004190D02*
X015430Y004190D01*
X015430Y003490D01*
X015893Y003129D02*
X018696Y003129D01*
X018622Y002891D02*
X013659Y002891D01*
X013280Y003190D02*
X012280Y003190D01*
X012280Y004190D02*
X014830Y004190D01*
X014476Y004670D02*
X014476Y004670D01*
X014767Y005514D02*
X012980Y005514D01*
X013087Y005276D02*
X015463Y005276D01*
X015463Y005037D02*
X013071Y005037D01*
X013094Y005190D02*
X012280Y005190D01*
X012280Y005190D01*
X012280Y005707D01*
X012280Y005190D01*
X013094Y005190D01*
X012916Y004799D02*
X015463Y004799D01*
X015230Y005840D02*
X015780Y005840D01*
X016380Y005840D02*
X017030Y005840D01*
X017030Y004690D01*
X016256Y004690D01*
X014830Y003490D02*
X013280Y003490D01*
X013280Y003190D01*
X013044Y002652D02*
X018654Y002652D01*
X018817Y002414D02*
X013195Y002414D01*
X013234Y002175D02*
X020736Y002175D01*
X020670Y002414D02*
X019543Y002414D01*
X019706Y002652D02*
X020670Y002652D01*
X020480Y004190D02*
X019780Y004190D01*
X019180Y003440D02*
X019180Y002840D01*
X020480Y004190D02*
X021180Y004890D01*
X021180Y008790D01*
X020700Y007899D02*
X020176Y007899D01*
X020361Y007661D02*
X020700Y007661D01*
X020700Y007422D02*
X020420Y007422D01*
X020387Y007184D02*
X020700Y007184D01*
X020700Y006468D02*
X000680Y006468D01*
X000680Y006230D02*
X014830Y006230D01*
X014688Y005991D02*
X000680Y005991D01*
X000680Y005753D02*
X014672Y005753D01*
X012280Y005514D02*
X012280Y005514D01*
X012280Y005276D02*
X012280Y005276D01*
X012280Y005190D02*
X012280Y005190D01*
X012280Y005190D01*
X011466Y005190D01*
X012280Y005190D01*
X011644Y004799D02*
X000680Y004799D01*
X000680Y005037D02*
X011489Y005037D01*
X011473Y005276D02*
X000680Y005276D01*
X000680Y005514D02*
X011580Y005514D01*
X011425Y004560D02*
X000680Y004560D01*
X000680Y004322D02*
X011327Y004322D01*
X011326Y004083D02*
X000680Y004083D01*
X000680Y003845D02*
X011415Y003845D01*
X011470Y003606D02*
X000680Y003606D01*
X000680Y003368D02*
X011346Y003368D01*
X011326Y003129D02*
X000680Y003129D01*
X000680Y002891D02*
X011396Y002891D01*
X011516Y002652D02*
X000680Y002652D01*
X000680Y002414D02*
X011365Y002414D01*
X011326Y002175D02*
X000680Y002175D01*
X000680Y001937D02*
X011377Y001937D01*
X011546Y001698D02*
X000680Y001698D01*
X017650Y011000D02*
X017705Y011000D01*
X017705Y011238D02*
X017650Y011238D01*
X017620Y011477D02*
X017722Y011477D01*
X024532Y003129D02*
X024680Y003129D01*
X010696Y030256D02*
X009630Y030256D01*
X010696Y030256D02*
X010980Y030540D01*
X011930Y030540D01*
X014030Y030540D02*
X015080Y030540D01*
X015080Y031640D01*
X016080Y032740D02*
X016530Y032740D01*
X017728Y032226D02*
X018179Y032226D01*
X018172Y032200D02*
X018187Y032256D01*
X018216Y032307D01*
X018257Y032348D01*
X018307Y032377D01*
X018363Y032391D01*
X018689Y032391D01*
X018689Y031697D01*
X018172Y031697D01*
X018172Y032200D01*
X018172Y031988D02*
X017728Y031988D01*
X017728Y031749D02*
X018172Y031749D01*
X018172Y031511D02*
X017728Y031511D01*
X017728Y031272D02*
X018172Y031272D01*
X018184Y031034D02*
X017727Y031034D01*
X018689Y031034D02*
X018803Y031034D01*
X018803Y031272D02*
X018689Y031272D01*
X018689Y031511D02*
X018803Y031511D01*
X018803Y031749D02*
X018689Y031749D01*
X018689Y031988D02*
X018803Y031988D01*
X018803Y032226D02*
X018689Y032226D01*
X020280Y031640D02*
X020980Y031640D01*
X020634Y031160D02*
X020634Y031160D01*
X022460Y034611D02*
X022596Y034611D01*
X023664Y036519D02*
X017680Y036519D01*
X017680Y036281D02*
X024680Y036281D01*
X023553Y037950D02*
X017680Y037950D01*
X017680Y037712D02*
X023370Y037712D01*
X023271Y037473D02*
X017680Y037473D01*
X017680Y037235D02*
X023270Y037235D01*
X023317Y036996D02*
X017680Y036996D01*
X017680Y036758D02*
X023426Y036758D01*
D33*
X020980Y031640D03*
X016530Y032740D03*
X015080Y030540D03*
X011180Y025790D03*
X008680Y025290D03*
X011230Y020840D03*
X011030Y015990D03*
X014280Y011240D03*
X015080Y011190D03*
X012580Y008390D03*
X012430Y010540D03*
X015230Y005840D03*
X017030Y003690D03*
X019180Y002840D03*
X020330Y005190D03*
X019480Y010440D03*
X020430Y011340D03*
X020430Y011840D03*
X020930Y011840D03*
X020930Y011340D03*
X021430Y011340D03*
X021430Y011840D03*
X021430Y012340D03*
X021430Y012840D03*
X020930Y012840D03*
X020930Y012340D03*
X020430Y012340D03*
X020430Y012840D03*
X021930Y012840D03*
X021930Y012340D03*
X021930Y011840D03*
X021930Y011340D03*
X020880Y016990D03*
X016180Y018140D03*
X014730Y015990D03*
X015580Y023240D03*
X010980Y030540D03*
X005180Y023840D03*
D34*
X008180Y024116D02*
X008180Y023256D01*
X008197Y024116D02*
X008180Y024116D01*
X009063Y024490D02*
X009630Y024490D01*
X009630Y025624D01*
X009630Y024490D02*
X009630Y023256D01*
X009630Y023240D01*
X011230Y023240D01*
X011230Y021490D02*
X011230Y020840D01*
X009630Y021524D02*
X008180Y021524D01*
X011180Y024990D02*
X011180Y025790D01*
X011180Y024990D02*
X011230Y024990D01*
X009630Y027356D02*
X009630Y028524D01*
X014730Y023240D02*
X015580Y023240D01*
X014730Y018140D02*
X014714Y018124D01*
X014280Y011240D02*
X013680Y011240D01*
X012980Y010540D02*
X012430Y010540D01*
X021780Y003490D02*
X021780Y002790D01*
X021780Y003490D02*
X022580Y004290D01*
X023180Y004290D01*
D35*
X013780Y009390D02*
X013780Y010540D01*
X012980Y011240D02*
X012980Y012124D01*
X012980Y013856D02*
X012980Y014940D01*
X012980Y017040D02*
X012980Y018124D01*
X014714Y018124D01*
X015730Y017040D02*
X017014Y017040D01*
X012980Y019856D02*
X012980Y020890D01*
X012980Y025590D02*
X012980Y026674D01*
X012980Y028406D02*
X012980Y029490D01*
X012980Y031590D02*
X012980Y032724D01*
X012996Y032740D01*
X015080Y032740D01*
X016080Y031640D02*
X017014Y031640D01*
X012980Y034456D02*
X012980Y036490D01*
M02*
