G75*
%MOIN*%
%OFA0B0*%
%FSLAX25Y25*%
%IPPOS*%
%LPD*%
%AMOC8*
5,1,8,0,0,1.08239X$1,22.5*
%
%ADD10C,0.05543*%
%ADD11R,0.15000X0.08000*%
%ADD12R,0.02362X0.08661*%
%ADD13R,0.04000X0.04000*%
%ADD14R,0.05512X0.05512*%
%ADD15R,0.06300X0.04600*%
%ADD16C,0.05937*%
%ADD17C,0.06000*%
%ADD18C,0.05937*%
%ADD19R,0.12598X0.07087*%
%ADD20C,0.02800*%
%ADD21C,0.01600*%
%ADD22C,0.03200*%
%ADD23C,0.01200*%
%ADD24C,0.05000*%
D10*
X0061500Y0136006D03*
X0071500Y0136006D03*
X0161500Y0136006D03*
X0171500Y0136006D03*
X0261500Y0133506D03*
X0271500Y0133506D03*
D11*
X0239000Y0235256D03*
X0139000Y0237756D03*
X0139000Y0186006D03*
X0039000Y0237756D03*
D12*
X0039000Y0253270D03*
X0034000Y0253270D03*
X0044000Y0253270D03*
X0049000Y0253270D03*
X0049000Y0273743D03*
X0044000Y0273743D03*
X0039000Y0273743D03*
X0034000Y0273743D03*
X0076500Y0273743D03*
X0081500Y0273743D03*
X0086500Y0273743D03*
X0091500Y0273743D03*
X0091500Y0253270D03*
X0086500Y0253270D03*
X0081500Y0253270D03*
X0076500Y0253270D03*
X0076500Y0236243D03*
X0081500Y0236243D03*
X0086500Y0236243D03*
X0091500Y0236243D03*
X0091500Y0215770D03*
X0086500Y0215770D03*
X0081500Y0215770D03*
X0076500Y0215770D03*
X0080250Y0192493D03*
X0085250Y0192493D03*
X0090250Y0192493D03*
X0095250Y0192493D03*
X0095250Y0172020D03*
X0090250Y0172020D03*
X0085250Y0172020D03*
X0080250Y0172020D03*
X0134000Y0253270D03*
X0139000Y0253270D03*
X0144000Y0253270D03*
X0149000Y0253270D03*
X0149000Y0273743D03*
X0144000Y0273743D03*
X0139000Y0273743D03*
X0134000Y0273743D03*
X0176500Y0273743D03*
X0181500Y0273743D03*
X0186500Y0273743D03*
X0191500Y0273743D03*
X0191500Y0253270D03*
X0186500Y0253270D03*
X0181500Y0253270D03*
X0176500Y0253270D03*
X0176500Y0236243D03*
X0181500Y0236243D03*
X0186500Y0236243D03*
X0191500Y0236243D03*
X0191500Y0215770D03*
X0186500Y0215770D03*
X0181500Y0215770D03*
X0176500Y0215770D03*
X0180250Y0192493D03*
X0185250Y0192493D03*
X0190250Y0192493D03*
X0195250Y0192493D03*
X0195250Y0172020D03*
X0190250Y0172020D03*
X0185250Y0172020D03*
X0180250Y0172020D03*
X0234000Y0250770D03*
X0239000Y0250770D03*
X0244000Y0250770D03*
X0249000Y0250770D03*
X0249000Y0271243D03*
X0244000Y0271243D03*
X0239000Y0271243D03*
X0234000Y0271243D03*
X0276500Y0271243D03*
X0281500Y0271243D03*
X0286500Y0271243D03*
X0291500Y0271243D03*
X0291500Y0250770D03*
X0286500Y0250770D03*
X0281500Y0250770D03*
X0276500Y0250770D03*
X0276500Y0233743D03*
X0281500Y0233743D03*
X0286500Y0233743D03*
X0291500Y0233743D03*
X0291500Y0213270D03*
X0286500Y0213270D03*
X0281500Y0213270D03*
X0276500Y0213270D03*
X0280250Y0189993D03*
X0285250Y0189993D03*
X0290250Y0189993D03*
X0295250Y0189993D03*
X0295250Y0169520D03*
X0290250Y0169520D03*
X0285250Y0169520D03*
X0280250Y0169520D03*
D13*
X0274000Y0176256D03*
X0274000Y0183256D03*
X0275000Y0190006D03*
X0268000Y0190006D03*
X0266500Y0183256D03*
X0266500Y0176256D03*
X0284250Y0159756D03*
X0284250Y0153506D03*
X0278750Y0153506D03*
X0271750Y0153506D03*
X0278000Y0146006D03*
X0285000Y0146006D03*
X0290750Y0146006D03*
X0297750Y0146006D03*
X0296750Y0153506D03*
X0291250Y0153506D03*
X0291250Y0159756D03*
X0300500Y0169756D03*
X0302750Y0176256D03*
X0302750Y0183256D03*
X0307500Y0169756D03*
X0303750Y0153506D03*
X0293750Y0198506D03*
X0293750Y0204756D03*
X0286750Y0204756D03*
X0286750Y0198506D03*
X0298000Y0213256D03*
X0297750Y0220006D03*
X0297750Y0227006D03*
X0305000Y0213256D03*
X0290000Y0242256D03*
X0283000Y0242256D03*
X0271250Y0233506D03*
X0264250Y0233506D03*
X0256000Y0257256D03*
X0256000Y0264256D03*
X0264000Y0264506D03*
X0264000Y0257506D03*
X0270250Y0257506D03*
X0270250Y0264506D03*
X0297750Y0264506D03*
X0297750Y0257506D03*
X0304000Y0257506D03*
X0304000Y0264506D03*
X0227500Y0271256D03*
X0226500Y0264506D03*
X0226500Y0257506D03*
X0220250Y0257506D03*
X0220250Y0264506D03*
X0220500Y0271256D03*
X0204000Y0267006D03*
X0197750Y0267006D03*
X0197750Y0260006D03*
X0204000Y0260006D03*
X0190000Y0244756D03*
X0183000Y0244756D03*
X0171250Y0236006D03*
X0164250Y0236006D03*
X0164000Y0260006D03*
X0170250Y0260006D03*
X0170250Y0267006D03*
X0164000Y0267006D03*
X0156000Y0266756D03*
X0156000Y0259756D03*
X0126500Y0260006D03*
X0120250Y0260006D03*
X0120250Y0267006D03*
X0126500Y0267006D03*
X0127500Y0273756D03*
X0120500Y0273756D03*
X0104000Y0267006D03*
X0097750Y0267006D03*
X0097750Y0260006D03*
X0104000Y0260006D03*
X0090000Y0244756D03*
X0083000Y0244756D03*
X0071250Y0236006D03*
X0064250Y0236006D03*
X0064000Y0260006D03*
X0070250Y0260006D03*
X0070250Y0267006D03*
X0064000Y0267006D03*
X0056000Y0266756D03*
X0056000Y0259756D03*
X0026500Y0260006D03*
X0020250Y0260006D03*
X0020250Y0267006D03*
X0026500Y0267006D03*
X0027500Y0273756D03*
X0020500Y0273756D03*
X0086750Y0207256D03*
X0086750Y0201006D03*
X0093750Y0201006D03*
X0093750Y0207256D03*
X0098000Y0215756D03*
X0097750Y0222506D03*
X0097750Y0229506D03*
X0105000Y0215756D03*
X0102750Y0185756D03*
X0102750Y0178756D03*
X0100500Y0172256D03*
X0107500Y0172256D03*
X0103750Y0156006D03*
X0096750Y0156006D03*
X0091250Y0156006D03*
X0091250Y0162256D03*
X0084250Y0162256D03*
X0084250Y0156006D03*
X0078750Y0156006D03*
X0078000Y0148506D03*
X0085000Y0148506D03*
X0090750Y0148506D03*
X0097750Y0148506D03*
X0074000Y0178756D03*
X0074000Y0185756D03*
X0075000Y0192506D03*
X0068000Y0192506D03*
X0066500Y0185756D03*
X0066500Y0178756D03*
X0071750Y0156006D03*
X0166500Y0178756D03*
X0166500Y0185756D03*
X0168000Y0192506D03*
X0175000Y0192506D03*
X0174000Y0185756D03*
X0174000Y0178756D03*
X0184250Y0162256D03*
X0184250Y0156006D03*
X0178750Y0156006D03*
X0171750Y0156006D03*
X0178000Y0148506D03*
X0185000Y0148506D03*
X0190750Y0148506D03*
X0197750Y0148506D03*
X0196750Y0156006D03*
X0191250Y0156006D03*
X0191250Y0162256D03*
X0200500Y0172256D03*
X0202750Y0178756D03*
X0202750Y0185756D03*
X0207500Y0172256D03*
X0203750Y0156006D03*
X0193750Y0201006D03*
X0193750Y0207256D03*
X0198000Y0215756D03*
X0197750Y0222506D03*
X0197750Y0229506D03*
X0205000Y0215756D03*
X0186750Y0207256D03*
X0186750Y0201006D03*
X0121250Y0336256D03*
X0114250Y0336256D03*
X0108250Y0336256D03*
X0108250Y0343756D03*
X0114250Y0343756D03*
X0121250Y0343756D03*
X0101250Y0343756D03*
X0101250Y0336256D03*
D14*
X0078980Y0337256D03*
X0064020Y0337256D03*
X0056480Y0337256D03*
X0041520Y0337256D03*
X0141520Y0337256D03*
X0156480Y0337256D03*
X0164020Y0337256D03*
X0178980Y0337256D03*
X0241520Y0334756D03*
X0256480Y0334756D03*
X0264020Y0334756D03*
X0278980Y0334756D03*
D15*
X0261500Y0291506D03*
X0261500Y0285506D03*
X0161500Y0288006D03*
X0161500Y0294006D03*
X0061500Y0294006D03*
X0061500Y0288006D03*
D16*
X0040250Y0314288D02*
X0040250Y0320225D01*
X0030250Y0320225D02*
X0030250Y0314288D01*
X0020250Y0314288D02*
X0020250Y0320225D01*
X0056500Y0361538D02*
X0056500Y0367475D01*
X0066500Y0367475D02*
X0066500Y0361538D01*
X0101500Y0363975D02*
X0101500Y0358038D01*
X0111500Y0358038D02*
X0111500Y0363975D01*
X0121500Y0363975D02*
X0121500Y0358038D01*
X0120250Y0320225D02*
X0120250Y0314288D01*
X0130250Y0314288D02*
X0130250Y0320225D01*
X0140250Y0320225D02*
X0140250Y0314288D01*
X0102750Y0314288D02*
X0102750Y0320225D01*
X0092750Y0320225D02*
X0092750Y0314288D01*
X0082750Y0314288D02*
X0082750Y0320225D01*
X0156500Y0361538D02*
X0156500Y0367475D01*
X0166500Y0367475D02*
X0166500Y0361538D01*
X0182750Y0320225D02*
X0182750Y0314288D01*
X0192750Y0314288D02*
X0192750Y0320225D01*
X0202750Y0320225D02*
X0202750Y0314288D01*
X0220250Y0311788D02*
X0220250Y0317725D01*
X0230250Y0317725D02*
X0230250Y0311788D01*
X0240250Y0311788D02*
X0240250Y0317725D01*
X0221500Y0355538D02*
X0221500Y0361475D01*
X0211500Y0361475D02*
X0211500Y0355538D01*
X0201500Y0355538D02*
X0201500Y0361475D01*
X0256500Y0359038D02*
X0256500Y0364975D01*
X0266500Y0364975D02*
X0266500Y0359038D01*
X0282750Y0317725D02*
X0282750Y0311788D01*
X0292750Y0311788D02*
X0292750Y0317725D01*
X0302750Y0317725D02*
X0302750Y0311788D01*
D17*
X0297750Y0291506D02*
X0297750Y0285506D01*
X0287750Y0285506D02*
X0287750Y0291506D01*
X0277750Y0291506D02*
X0277750Y0285506D01*
X0245250Y0288006D02*
X0245250Y0294006D01*
X0235250Y0294006D02*
X0235250Y0288006D01*
X0225250Y0288006D02*
X0225250Y0294006D01*
X0197750Y0294006D02*
X0197750Y0288006D01*
X0187750Y0288006D02*
X0187750Y0294006D01*
X0177750Y0294006D02*
X0177750Y0288006D01*
X0145250Y0290506D02*
X0145250Y0296506D01*
X0135250Y0296506D02*
X0135250Y0290506D01*
X0125250Y0290506D02*
X0125250Y0296506D01*
X0097750Y0294006D02*
X0097750Y0288006D01*
X0087750Y0288006D02*
X0087750Y0294006D01*
X0077750Y0294006D02*
X0077750Y0288006D01*
X0045250Y0290506D02*
X0045250Y0296506D01*
X0035250Y0296506D02*
X0035250Y0290506D01*
X0025250Y0290506D02*
X0025250Y0296506D01*
D18*
X0052750Y0307256D03*
X0052750Y0327256D03*
X0152750Y0327256D03*
X0152750Y0307256D03*
X0252750Y0304756D03*
X0252750Y0324756D03*
D19*
X0267750Y0325780D03*
X0267750Y0303733D03*
X0167750Y0306233D03*
X0167750Y0328280D03*
X0067750Y0328280D03*
X0067750Y0306233D03*
D20*
X0052750Y0284756D03*
X0056000Y0272256D03*
X0064000Y0272256D03*
X0056000Y0255756D03*
X0070250Y0254756D03*
X0059000Y0236006D03*
X0072750Y0224756D03*
X0074000Y0202256D03*
X0080250Y0201006D03*
X0090250Y0184756D03*
X0074000Y0173506D03*
X0079000Y0162256D03*
X0071750Y0149756D03*
X0100500Y0166006D03*
X0112750Y0172256D03*
X0126500Y0186006D03*
X0139000Y0177256D03*
X0151500Y0186006D03*
X0162750Y0192506D03*
X0174000Y0202256D03*
X0180250Y0201006D03*
X0190250Y0184756D03*
X0174000Y0173506D03*
X0179000Y0162256D03*
X0171750Y0149756D03*
X0200500Y0166006D03*
X0212750Y0172256D03*
X0203750Y0149756D03*
X0200250Y0209756D03*
X0210250Y0215756D03*
X0220250Y0252256D03*
X0215250Y0271256D03*
X0227500Y0276256D03*
X0252750Y0282256D03*
X0256000Y0269756D03*
X0264000Y0269756D03*
X0256000Y0253256D03*
X0270250Y0252256D03*
X0259000Y0233506D03*
X0272750Y0222256D03*
X0274000Y0199756D03*
X0280250Y0198506D03*
X0290250Y0182256D03*
X0274000Y0171006D03*
X0279000Y0159756D03*
X0271750Y0147256D03*
X0300500Y0163506D03*
X0312750Y0169756D03*
X0303750Y0147256D03*
X0262750Y0190006D03*
X0300250Y0207256D03*
X0310250Y0213256D03*
X0297750Y0252256D03*
X0297750Y0269756D03*
X0285250Y0334756D03*
X0235250Y0334756D03*
X0185250Y0337256D03*
X0152750Y0284756D03*
X0156000Y0272256D03*
X0164000Y0272256D03*
X0156000Y0255756D03*
X0170250Y0254756D03*
X0159000Y0236006D03*
X0172750Y0224756D03*
X0197750Y0254756D03*
X0197750Y0272256D03*
X0135250Y0337256D03*
X0127500Y0278756D03*
X0115250Y0273756D03*
X0120250Y0254756D03*
X0097750Y0254756D03*
X0097750Y0272256D03*
X0110250Y0215756D03*
X0100250Y0209756D03*
X0062750Y0192506D03*
X0103750Y0149756D03*
X0139000Y0194756D03*
X0027500Y0278756D03*
X0015250Y0273756D03*
X0020250Y0254756D03*
X0035250Y0337256D03*
X0085250Y0337256D03*
D21*
X0101250Y0336256D02*
X0101250Y0343756D01*
X0101500Y0361006D01*
X0111500Y0361006D02*
X0111500Y0350756D01*
X0114250Y0348006D01*
X0114250Y0343756D01*
X0114250Y0336256D01*
X0108250Y0336256D01*
X0108250Y0343756D02*
X0114250Y0343756D01*
X0121250Y0343756D02*
X0121250Y0336256D01*
X0121250Y0343756D02*
X0121500Y0361006D01*
X0122750Y0327256D02*
X0120250Y0324756D01*
X0120250Y0317256D01*
X0122750Y0327256D02*
X0142750Y0327256D01*
X0152750Y0317256D01*
X0182750Y0317256D01*
X0177750Y0291006D02*
X0177265Y0291006D01*
X0177750Y0290522D01*
X0177750Y0284756D01*
X0180250Y0282256D01*
X0185250Y0282256D01*
X0186500Y0281006D01*
X0186500Y0273743D01*
X0181500Y0273743D02*
X0181500Y0268256D01*
X0180250Y0267006D01*
X0170250Y0267006D01*
X0164000Y0267006D01*
X0164000Y0260006D02*
X0170250Y0260006D01*
X0170250Y0254756D01*
X0176500Y0253270D02*
X0176500Y0246256D01*
X0178000Y0244756D01*
X0183000Y0244756D01*
X0190000Y0244756D02*
X0190000Y0247006D01*
X0191500Y0248506D01*
X0191500Y0253270D01*
X0191500Y0258756D01*
X0192750Y0260006D01*
X0197750Y0260006D02*
X0204000Y0260006D01*
X0204000Y0267006D02*
X0197750Y0267006D01*
X0197750Y0272256D01*
X0209000Y0273506D02*
X0209000Y0241006D01*
X0204250Y0236256D01*
X0191550Y0236256D01*
X0191500Y0236243D01*
X0186500Y0236243D02*
X0186500Y0231506D01*
X0188500Y0229506D01*
X0197750Y0229506D01*
X0197750Y0222506D02*
X0183250Y0222506D01*
X0181500Y0220756D01*
X0181500Y0215770D01*
X0181500Y0209756D01*
X0174000Y0202256D01*
X0180250Y0201006D02*
X0180250Y0192493D01*
X0175014Y0192493D01*
X0175000Y0192506D01*
X0174000Y0185756D02*
X0180500Y0185756D01*
X0185250Y0181006D01*
X0185250Y0178256D01*
X0185250Y0172020D01*
X0185750Y0178756D02*
X0202750Y0178756D01*
X0197000Y0172256D02*
X0195486Y0172256D01*
X0195250Y0172020D01*
X0190250Y0172020D02*
X0190250Y0166006D01*
X0191250Y0165006D01*
X0191250Y0162256D01*
X0191250Y0156006D01*
X0191250Y0152256D01*
X0190750Y0151756D01*
X0190750Y0148506D01*
X0185000Y0148506D02*
X0185000Y0151506D01*
X0184250Y0152256D01*
X0184250Y0156006D01*
X0184250Y0162256D01*
X0179000Y0162256D01*
X0171750Y0156006D02*
X0171750Y0149756D01*
X0178000Y0148506D02*
X0178000Y0145006D01*
X0176500Y0143506D01*
X0169000Y0143506D01*
X0161500Y0136006D01*
X0171500Y0136006D02*
X0190250Y0136006D01*
X0197750Y0143506D01*
X0197750Y0148506D01*
X0203750Y0149756D02*
X0203750Y0156006D01*
X0207500Y0172256D02*
X0212750Y0172256D01*
X0202750Y0185756D02*
X0196000Y0185756D01*
X0195250Y0186506D01*
X0195250Y0192493D01*
X0195250Y0197256D01*
X0193750Y0198756D01*
X0193750Y0201006D01*
X0193750Y0207256D01*
X0198000Y0212006D02*
X0200250Y0209756D01*
X0198000Y0212006D02*
X0198000Y0215756D01*
X0197950Y0215706D02*
X0191500Y0215770D01*
X0186500Y0215770D02*
X0186500Y0207506D01*
X0186750Y0207256D01*
X0186750Y0201006D01*
X0186750Y0198756D01*
X0185250Y0197256D01*
X0185250Y0192493D01*
X0190250Y0192493D02*
X0190250Y0184756D01*
X0180250Y0177506D02*
X0180250Y0172020D01*
X0180250Y0177506D02*
X0179000Y0178756D01*
X0174000Y0178756D01*
X0166500Y0178756D01*
X0166500Y0185756D02*
X0174000Y0185756D01*
X0168000Y0192506D02*
X0162750Y0192506D01*
X0154050Y0215706D02*
X0139000Y0230756D01*
X0139000Y0237756D01*
X0139000Y0253270D01*
X0139000Y0258506D01*
X0137500Y0260006D01*
X0126500Y0260006D01*
X0120250Y0260006D02*
X0120250Y0254756D01*
X0120250Y0267006D02*
X0126500Y0267006D01*
X0144067Y0267006D01*
X0144000Y0267073D01*
X0144000Y0273743D01*
X0139000Y0273743D02*
X0139000Y0283506D01*
X0140250Y0284756D01*
X0152750Y0284756D01*
X0155750Y0288006D02*
X0150250Y0293506D01*
X0145250Y0293506D01*
X0155750Y0288006D02*
X0161500Y0288006D01*
X0167250Y0288006D01*
X0170250Y0291006D01*
X0177265Y0291006D01*
X0197750Y0291006D02*
X0197750Y0287256D01*
X0209000Y0273506D01*
X0215250Y0271256D02*
X0220500Y0271256D01*
X0220250Y0264506D02*
X0226500Y0264506D01*
X0244067Y0264506D01*
X0244000Y0264573D01*
X0244000Y0271243D01*
X0239000Y0271243D02*
X0239000Y0281006D01*
X0240250Y0282256D01*
X0252750Y0282256D01*
X0255750Y0285506D02*
X0250250Y0291006D01*
X0245250Y0291006D01*
X0255750Y0285506D02*
X0261500Y0285506D01*
X0267250Y0285506D01*
X0270250Y0288506D01*
X0277265Y0288506D01*
X0277750Y0288022D01*
X0277750Y0282256D01*
X0280250Y0279756D01*
X0285250Y0279756D01*
X0286500Y0278506D01*
X0286500Y0271243D01*
X0281500Y0271243D02*
X0281500Y0265756D01*
X0280250Y0264506D01*
X0270250Y0264506D01*
X0264000Y0264506D01*
X0264000Y0257506D02*
X0270250Y0257506D01*
X0270250Y0252256D01*
X0276500Y0250770D02*
X0276500Y0243756D01*
X0278000Y0242256D01*
X0283000Y0242256D01*
X0290000Y0242256D02*
X0290000Y0244506D01*
X0291500Y0246006D01*
X0291500Y0250770D01*
X0291500Y0256256D01*
X0292750Y0257506D01*
X0297750Y0257506D02*
X0304000Y0257506D01*
X0304000Y0264506D02*
X0297750Y0264506D01*
X0297750Y0269756D01*
X0297750Y0284756D02*
X0312750Y0269756D01*
X0312750Y0238506D01*
X0308000Y0233756D01*
X0291550Y0233756D01*
X0291500Y0233743D01*
X0286500Y0233743D02*
X0286500Y0229006D01*
X0288500Y0227006D01*
X0297750Y0227006D01*
X0297750Y0220006D02*
X0283250Y0220006D01*
X0281500Y0218256D01*
X0281500Y0213270D01*
X0281500Y0207256D01*
X0274000Y0199756D01*
X0280250Y0198506D02*
X0280250Y0189993D01*
X0275014Y0189993D01*
X0275000Y0190006D01*
X0274000Y0183256D02*
X0266500Y0183256D01*
X0266500Y0176256D02*
X0274000Y0176256D01*
X0279000Y0176256D01*
X0280250Y0175006D01*
X0280250Y0169520D01*
X0285250Y0169520D02*
X0285250Y0175756D01*
X0285250Y0178506D01*
X0280500Y0183256D01*
X0274000Y0183256D01*
X0268000Y0190006D02*
X0262750Y0190006D01*
X0285250Y0189993D02*
X0285250Y0194756D01*
X0286750Y0196256D01*
X0286750Y0198506D01*
X0286750Y0204756D01*
X0286500Y0205006D01*
X0286500Y0213270D01*
X0291500Y0213270D02*
X0297950Y0213206D01*
X0298000Y0213256D02*
X0298000Y0209506D01*
X0300250Y0207256D01*
X0305000Y0213256D02*
X0310250Y0213256D01*
X0293750Y0204756D02*
X0293750Y0198506D01*
X0293750Y0196256D01*
X0295250Y0194756D01*
X0295250Y0189993D01*
X0295250Y0184006D01*
X0296000Y0183256D01*
X0302750Y0183256D01*
X0302750Y0176256D02*
X0285750Y0176256D01*
X0290250Y0182256D02*
X0290250Y0189993D01*
X0290250Y0169520D02*
X0290250Y0163506D01*
X0291250Y0162506D01*
X0291250Y0159756D01*
X0291250Y0153506D01*
X0291250Y0149756D01*
X0290750Y0149256D01*
X0290750Y0146006D01*
X0285000Y0146006D02*
X0285000Y0149006D01*
X0284250Y0149756D01*
X0284250Y0153506D01*
X0284250Y0159756D01*
X0279000Y0159756D01*
X0271750Y0153506D02*
X0271750Y0147256D01*
X0269000Y0141006D02*
X0261500Y0133506D01*
X0271500Y0133506D02*
X0290250Y0133506D01*
X0297750Y0141006D01*
X0297750Y0146006D01*
X0303750Y0147256D02*
X0303750Y0153506D01*
X0307500Y0169756D02*
X0312750Y0169756D01*
X0297000Y0169756D02*
X0295486Y0169756D01*
X0295250Y0169520D01*
X0278000Y0146006D02*
X0278000Y0142506D01*
X0276500Y0141006D01*
X0269000Y0141006D01*
X0276500Y0213270D02*
X0254050Y0213206D01*
X0239000Y0228256D01*
X0239000Y0235256D01*
X0239000Y0250770D01*
X0239000Y0256006D01*
X0237500Y0257506D01*
X0226500Y0257506D01*
X0220250Y0257506D02*
X0220250Y0252256D01*
X0227500Y0271256D02*
X0233986Y0271256D01*
X0234000Y0271243D01*
X0245250Y0257256D02*
X0244000Y0256006D01*
X0244000Y0250770D01*
X0245250Y0257256D02*
X0256000Y0257256D01*
X0256000Y0264256D02*
X0256000Y0269756D01*
X0277265Y0288506D02*
X0277750Y0288506D01*
X0297750Y0288506D02*
X0297750Y0284756D01*
X0282750Y0314756D02*
X0252750Y0314756D01*
X0242750Y0324756D01*
X0222750Y0324756D01*
X0220250Y0322256D01*
X0220250Y0314756D01*
X0156000Y0272256D02*
X0156000Y0266756D01*
X0156000Y0259756D02*
X0145250Y0259756D01*
X0144000Y0258506D01*
X0144000Y0253270D01*
X0159000Y0236006D02*
X0164250Y0236006D01*
X0171250Y0231854D02*
X0171250Y0231256D01*
X0172750Y0229756D01*
X0179750Y0229756D01*
X0181500Y0231506D01*
X0181500Y0236243D01*
X0176500Y0215770D02*
X0154050Y0215706D01*
X0112750Y0172256D02*
X0107500Y0172256D01*
X0102750Y0178756D02*
X0085750Y0178756D01*
X0085250Y0178256D02*
X0085250Y0172020D01*
X0080250Y0172020D02*
X0080250Y0177506D01*
X0079000Y0178756D01*
X0074000Y0178756D01*
X0066500Y0178756D01*
X0066500Y0185756D02*
X0074000Y0185756D01*
X0080500Y0185756D01*
X0085250Y0181006D01*
X0085250Y0178256D01*
X0090250Y0172020D02*
X0090250Y0166006D01*
X0091250Y0165006D01*
X0091250Y0162256D01*
X0091250Y0156006D01*
X0091250Y0152256D01*
X0090750Y0151756D01*
X0090750Y0148506D01*
X0085000Y0148506D02*
X0085000Y0151506D01*
X0084250Y0152256D01*
X0084250Y0156006D01*
X0084250Y0162256D01*
X0079000Y0162256D01*
X0071750Y0156006D02*
X0071750Y0149756D01*
X0078000Y0148506D02*
X0078000Y0145006D01*
X0076500Y0143506D01*
X0069000Y0143506D01*
X0061500Y0136006D01*
X0071500Y0136006D02*
X0090250Y0136006D01*
X0097750Y0143506D01*
X0097750Y0148506D01*
X0103750Y0149756D02*
X0103750Y0156006D01*
X0097000Y0172256D02*
X0095486Y0172256D01*
X0095250Y0172020D01*
X0090250Y0184756D02*
X0090250Y0192493D01*
X0085250Y0197256D02*
X0086750Y0198756D01*
X0086750Y0201006D01*
X0086750Y0207256D01*
X0086500Y0207506D01*
X0086500Y0215770D01*
X0091500Y0215770D02*
X0097950Y0215706D01*
X0098000Y0215756D02*
X0098000Y0212006D01*
X0100250Y0209756D01*
X0093750Y0207256D02*
X0093750Y0201006D01*
X0093750Y0198756D01*
X0095250Y0197256D01*
X0095250Y0192493D01*
X0095250Y0186506D01*
X0096000Y0185756D01*
X0102750Y0185756D01*
X0085250Y0192493D02*
X0085250Y0197256D01*
X0080250Y0201006D02*
X0080250Y0192493D01*
X0075014Y0192493D01*
X0075000Y0192506D01*
X0068000Y0192506D02*
X0062750Y0192506D01*
X0074000Y0202256D02*
X0081500Y0209756D01*
X0081500Y0215770D01*
X0081500Y0220756D01*
X0083250Y0222506D01*
X0097750Y0222506D01*
X0097750Y0229506D02*
X0088500Y0229506D01*
X0086500Y0231506D01*
X0086500Y0236243D01*
X0091500Y0236243D02*
X0091550Y0236256D01*
X0104250Y0236256D01*
X0109000Y0241006D01*
X0109000Y0276006D01*
X0097750Y0287256D01*
X0097750Y0291006D01*
X0086500Y0281006D02*
X0085250Y0282256D01*
X0080250Y0282256D01*
X0077750Y0284756D01*
X0077750Y0290522D01*
X0077265Y0291006D01*
X0077750Y0291006D01*
X0077265Y0291006D02*
X0070250Y0291006D01*
X0067250Y0288006D01*
X0061500Y0288006D01*
X0050750Y0288006D01*
X0045250Y0293506D01*
X0040250Y0284756D02*
X0052750Y0284756D01*
X0044000Y0273743D02*
X0044000Y0267073D01*
X0044067Y0267006D01*
X0026500Y0267006D01*
X0020250Y0267006D01*
X0020500Y0273756D02*
X0015250Y0273756D01*
X0027500Y0273756D02*
X0033986Y0273756D01*
X0034000Y0273743D01*
X0039000Y0273743D02*
X0039000Y0283506D01*
X0040250Y0284756D01*
X0056000Y0272256D02*
X0056000Y0266756D01*
X0056000Y0259756D02*
X0056000Y0255756D01*
X0056000Y0259756D02*
X0045250Y0259756D01*
X0044000Y0258506D01*
X0044000Y0253270D01*
X0039000Y0253270D02*
X0039000Y0258506D01*
X0037500Y0260006D01*
X0026500Y0260006D01*
X0020250Y0260006D02*
X0020250Y0254756D01*
X0039000Y0253270D02*
X0039000Y0237756D01*
X0039000Y0230756D01*
X0054050Y0215706D01*
X0076500Y0215770D01*
X0079750Y0229756D02*
X0072750Y0229756D01*
X0071250Y0231256D01*
X0071250Y0231854D01*
X0064250Y0236006D02*
X0059000Y0236006D01*
X0070250Y0254756D02*
X0070250Y0260006D01*
X0064000Y0260006D01*
X0064000Y0267006D02*
X0064000Y0272256D01*
X0064000Y0267006D02*
X0070250Y0267006D01*
X0080250Y0267006D01*
X0081500Y0268256D01*
X0081500Y0273743D01*
X0086500Y0273743D02*
X0086500Y0281006D01*
X0097750Y0272256D02*
X0097750Y0267006D01*
X0104000Y0267006D01*
X0104000Y0260006D02*
X0097750Y0260006D01*
X0092750Y0260006D02*
X0091500Y0258756D01*
X0091500Y0253270D01*
X0091500Y0248506D01*
X0090000Y0247006D01*
X0090000Y0244756D01*
X0083000Y0244756D02*
X0078000Y0244756D01*
X0076500Y0246256D01*
X0076500Y0253270D01*
X0081500Y0236243D02*
X0081500Y0231506D01*
X0079750Y0229756D01*
X0105000Y0215756D02*
X0110250Y0215756D01*
X0115250Y0273756D02*
X0120500Y0273756D01*
X0127500Y0273756D02*
X0133986Y0273756D01*
X0134000Y0273743D01*
X0082750Y0317256D02*
X0052750Y0317256D01*
X0042750Y0327256D01*
X0022750Y0327256D01*
X0020250Y0324756D01*
X0020250Y0317256D01*
X0205000Y0215756D02*
X0210250Y0215756D01*
X0259000Y0233506D02*
X0264250Y0233506D01*
X0271250Y0229354D02*
X0271250Y0228756D01*
X0272750Y0227256D01*
X0279750Y0227256D01*
X0281500Y0229006D01*
X0281500Y0233743D01*
D22*
X0272750Y0227854D02*
X0271250Y0229354D01*
X0271250Y0233506D01*
X0271250Y0238006D01*
X0256000Y0253256D01*
X0256000Y0257256D01*
X0264000Y0264506D02*
X0264000Y0269756D01*
X0292750Y0257506D02*
X0297750Y0257506D01*
X0297750Y0252256D01*
X0272750Y0227854D02*
X0272750Y0222256D01*
X0297000Y0169756D02*
X0300500Y0169756D01*
X0300500Y0163506D01*
X0227500Y0271256D02*
X0227500Y0276256D01*
X0197750Y0260006D02*
X0197750Y0254756D01*
X0197750Y0260006D02*
X0192750Y0260006D01*
X0171250Y0240506D02*
X0171250Y0236006D01*
X0171250Y0231854D01*
X0172750Y0230354D01*
X0172750Y0224756D01*
X0171250Y0240506D02*
X0156000Y0255756D01*
X0156000Y0259756D01*
X0164000Y0267006D02*
X0164000Y0272256D01*
X0127500Y0273756D02*
X0127500Y0278756D01*
X0097750Y0260006D02*
X0097750Y0254756D01*
X0097750Y0260006D02*
X0092750Y0260006D01*
X0071250Y0240506D02*
X0071250Y0236006D01*
X0071250Y0231854D01*
X0072750Y0230354D01*
X0072750Y0224756D01*
X0071250Y0240506D02*
X0056000Y0255756D01*
X0027500Y0273756D02*
X0027500Y0278756D01*
X0085250Y0337256D02*
X0085250Y0367006D01*
X0096500Y0378256D01*
X0121884Y0378256D01*
X0121500Y0377872D01*
X0121500Y0361006D01*
X0121884Y0378256D02*
X0179201Y0378256D01*
X0220383Y0378256D01*
X0221500Y0377639D01*
X0221500Y0358506D01*
X0220383Y0378256D02*
X0276500Y0378256D01*
X0285250Y0368506D01*
X0285250Y0334756D01*
X0179000Y0337276D02*
X0179000Y0378055D01*
X0179201Y0378256D01*
X0179000Y0337276D02*
X0178980Y0337256D01*
X0139000Y0194756D02*
X0139000Y0186006D01*
X0139000Y0177256D01*
X0139000Y0186006D02*
X0151500Y0186006D01*
X0139000Y0186006D02*
X0126500Y0186006D01*
X0100500Y0172256D02*
X0100500Y0166006D01*
X0100500Y0172256D02*
X0097000Y0172256D01*
X0197000Y0172256D02*
X0200500Y0172256D01*
X0200500Y0166006D01*
D23*
X0196750Y0156006D02*
X0191250Y0156006D01*
X0184250Y0156006D02*
X0178750Y0156006D01*
X0174000Y0173506D02*
X0174000Y0178756D01*
X0185250Y0178256D02*
X0185750Y0178756D01*
X0197950Y0215706D02*
X0198000Y0215756D01*
X0186500Y0236243D02*
X0186500Y0253270D01*
X0098000Y0215756D02*
X0097950Y0215706D01*
X0086500Y0236243D02*
X0086500Y0253270D01*
X0085750Y0178756D02*
X0085250Y0178256D01*
X0074000Y0178756D02*
X0074000Y0173506D01*
X0078750Y0156006D02*
X0084250Y0156006D01*
X0091250Y0156006D02*
X0096750Y0156006D01*
X0274000Y0171006D02*
X0274000Y0176256D01*
X0285250Y0175756D02*
X0285750Y0176256D01*
X0284250Y0153506D02*
X0278750Y0153506D01*
X0291250Y0153506D02*
X0296750Y0153506D01*
X0297950Y0213206D02*
X0298000Y0213256D01*
X0286500Y0233743D02*
X0286500Y0250770D01*
D24*
X0297750Y0288506D02*
X0297750Y0299756D01*
X0293774Y0303733D01*
X0267750Y0303733D01*
X0260769Y0303733D01*
X0261500Y0303002D01*
X0261500Y0291506D01*
X0260769Y0303733D02*
X0253774Y0303733D01*
X0252750Y0304756D01*
X0240153Y0304756D01*
X0240250Y0304854D01*
X0240250Y0314756D01*
X0240153Y0304756D02*
X0230250Y0304756D01*
X0225250Y0299756D01*
X0225250Y0291006D01*
X0197750Y0291006D02*
X0197750Y0302256D01*
X0193774Y0306233D01*
X0167750Y0306233D01*
X0160769Y0306233D01*
X0161500Y0305502D01*
X0161500Y0294006D01*
X0160769Y0306233D02*
X0153774Y0306233D01*
X0152750Y0307256D01*
X0140153Y0307256D01*
X0140250Y0307354D01*
X0140250Y0317256D01*
X0140153Y0307256D02*
X0130250Y0307256D01*
X0125250Y0302256D01*
X0125250Y0293506D01*
X0152750Y0327256D02*
X0153774Y0328280D01*
X0156480Y0328280D01*
X0156480Y0328281D01*
X0156480Y0337256D01*
X0156480Y0364487D01*
X0156500Y0364506D01*
X0156480Y0337256D02*
X0164020Y0337256D01*
X0167750Y0328280D02*
X0156480Y0328280D01*
X0141520Y0337256D02*
X0135250Y0337256D01*
X0097750Y0302256D02*
X0097750Y0291006D01*
X0097750Y0302256D02*
X0093774Y0306233D01*
X0067750Y0306233D01*
X0060769Y0306233D01*
X0061500Y0305502D01*
X0061500Y0294006D01*
X0060769Y0306233D02*
X0053774Y0306233D01*
X0052750Y0307256D01*
X0040153Y0307256D01*
X0040250Y0307354D01*
X0040250Y0317256D01*
X0040153Y0307256D02*
X0030250Y0307256D01*
X0025250Y0302256D01*
X0025250Y0293506D01*
X0052750Y0327256D02*
X0053774Y0328280D01*
X0056480Y0328280D01*
X0056480Y0328281D01*
X0056480Y0337256D01*
X0056480Y0364487D01*
X0056500Y0364506D01*
X0056480Y0337256D02*
X0064020Y0337256D01*
X0067750Y0328280D02*
X0056480Y0328280D01*
X0041520Y0337256D02*
X0035250Y0337256D01*
X0078980Y0337256D02*
X0085250Y0337256D01*
X0178980Y0337256D02*
X0185250Y0337256D01*
X0235250Y0334756D02*
X0241520Y0334756D01*
X0252750Y0324756D02*
X0253774Y0325780D01*
X0256480Y0325780D01*
X0256480Y0325781D01*
X0256480Y0334756D01*
X0256480Y0361987D01*
X0256500Y0362006D01*
X0256480Y0334756D02*
X0264020Y0334756D01*
X0267750Y0325780D02*
X0256480Y0325780D01*
X0278980Y0334756D02*
X0285250Y0334756D01*
M02*
