G75*
%MOIN*%
%OFA0B0*%
%FSLAX24Y24*%
%IPPOS*%
%LPD*%
%AMOC8*
5,1,8,0,0,1.08239X$1,22.5*
%
%ADD10C,0.1340*%
%ADD11R,0.0474X0.0513*%
%ADD12R,0.2206X0.2521*%
%ADD13R,0.0474X0.0710*%
%ADD14R,0.0395X0.0395*%
%ADD15R,0.0440X0.0240*%
%ADD16R,0.0710X0.0631*%
%ADD17R,0.0513X0.0474*%
%ADD18C,0.0674*%
%ADD19C,0.0634*%
%ADD20C,0.0867*%
%ADD21R,0.1340X0.0789*%
%ADD22R,0.1930X0.0828*%
%ADD23R,0.0631X0.0710*%
%ADD24R,0.0946X0.0316*%
%ADD25R,0.0880X0.0340*%
%ADD26R,0.0395X0.0434*%
%ADD27C,0.0640*%
%ADD28OC8,0.0640*%
%ADD29R,0.0946X0.0789*%
%ADD30R,0.0470X0.0352*%
%ADD31R,0.0960X0.0560*%
%ADD32R,0.0946X0.1497*%
%ADD33R,0.0474X0.0631*%
%ADD34R,0.0789X0.1340*%
%ADD35R,0.0379X0.0789*%
%ADD36R,0.0789X0.0379*%
%ADD37C,0.1080*%
%ADD38OC8,0.1080*%
%ADD39R,0.1580X0.0880*%
%ADD40R,0.0880X0.1580*%
%ADD41C,0.0600*%
%ADD42R,0.0352X0.0470*%
%ADD43R,0.0316X0.0434*%
%ADD44R,0.0316X0.0946*%
%ADD45R,0.0660X0.0280*%
%ADD46R,0.0280X0.0660*%
%ADD47C,0.0437*%
%ADD48C,0.0480*%
%ADD49C,0.0476*%
D10*
X014210Y005568D03*
X062210Y005568D03*
X062210Y033568D03*
X014210Y033568D03*
D11*
X018565Y028678D03*
X019190Y028678D03*
X020015Y028678D03*
X020615Y028678D03*
X020615Y028009D03*
X020015Y028009D03*
X019190Y028009D03*
X018565Y028009D03*
X021615Y028009D03*
X022240Y028009D03*
X022240Y028678D03*
X021615Y028678D03*
X030145Y025718D03*
X030145Y025049D03*
X030145Y024508D03*
X030145Y023839D03*
X031605Y024004D03*
X031605Y023473D03*
X031605Y022804D03*
X031605Y024673D03*
X036600Y024394D03*
X036600Y025063D03*
X040040Y028309D03*
X040040Y028978D03*
X046885Y029584D03*
X046885Y030253D03*
X048960Y022403D03*
X048960Y021734D03*
X049160Y019903D03*
X049160Y019234D03*
X055160Y016253D03*
X055160Y015584D03*
X048985Y015428D03*
X048985Y014759D03*
X049010Y011528D03*
X049010Y010859D03*
X047160Y008603D03*
X047160Y007934D03*
X043910Y007103D03*
X043910Y006434D03*
X043910Y005878D03*
X043910Y005209D03*
X055360Y005984D03*
X055360Y006653D03*
X038710Y015959D03*
X038160Y015959D03*
X038160Y016628D03*
X038710Y016628D03*
X038160Y017184D03*
X038160Y017853D03*
X023250Y016958D03*
X022325Y017233D03*
X022325Y017764D03*
X022325Y018433D03*
X022325Y016564D03*
X022325Y016008D03*
X023250Y016289D03*
X022325Y015339D03*
D12*
X049910Y028584D03*
D13*
X050807Y031458D03*
X049012Y031458D03*
D14*
X046885Y031564D03*
X046885Y030973D03*
X054789Y029143D03*
X055380Y029143D03*
X053855Y023043D03*
X053264Y023043D03*
X053214Y019193D03*
X053805Y019193D03*
X045280Y013868D03*
X044689Y013868D03*
X053264Y013493D03*
X053855Y013493D03*
X053855Y009593D03*
X053264Y009593D03*
X028235Y029018D03*
X027644Y029018D03*
D15*
X022160Y027468D03*
X022160Y027218D03*
X022160Y026968D03*
X022160Y026718D03*
X022160Y026468D03*
X022160Y026218D03*
X022160Y025968D03*
X022160Y025718D03*
X020020Y025718D03*
X020020Y025968D03*
X020020Y026218D03*
X020020Y026468D03*
X020020Y026718D03*
X020020Y026968D03*
X020020Y027218D03*
X020020Y027468D03*
D16*
X047885Y029992D03*
X047885Y031094D03*
X052010Y031094D03*
X052010Y029992D03*
D17*
X056100Y029143D03*
X056769Y029143D03*
X052769Y023043D03*
X052100Y023043D03*
X051469Y023043D03*
X050800Y023043D03*
X050800Y019193D03*
X051469Y019193D03*
X052075Y019193D03*
X052744Y019193D03*
X053925Y015593D03*
X054594Y015593D03*
X052769Y013493D03*
X052100Y013493D03*
X051494Y013493D03*
X050825Y013493D03*
X046569Y015468D03*
X045900Y015468D03*
X040394Y016468D03*
X040394Y016958D03*
X039725Y016958D03*
X039725Y016468D03*
X036604Y017113D03*
X035935Y017113D03*
X035925Y018468D03*
X036594Y018468D03*
X036594Y019788D03*
X035925Y019788D03*
X035925Y021058D03*
X036594Y021058D03*
X033589Y021623D03*
X032920Y021623D03*
X032920Y022643D03*
X033589Y022643D03*
X037380Y026093D03*
X037380Y026593D03*
X038049Y026593D03*
X038049Y026093D03*
X033124Y028493D03*
X032455Y028493D03*
X028974Y026143D03*
X028305Y026143D03*
X027149Y029018D03*
X026480Y029018D03*
X021424Y025318D03*
X020755Y025318D03*
X019499Y026693D03*
X018830Y026693D03*
X016709Y026078D03*
X016040Y026078D03*
X016065Y025078D03*
X016734Y025078D03*
X017590Y024803D03*
X018259Y024803D03*
X016734Y022953D03*
X016065Y022953D03*
X016040Y021953D03*
X016709Y021953D03*
X017465Y021653D03*
X018134Y021653D03*
X020685Y018448D03*
X021354Y018448D03*
X022655Y011888D03*
X023324Y011888D03*
X021434Y011048D03*
X020765Y011048D03*
X026575Y011528D03*
X027244Y011528D03*
X027324Y009828D03*
X026655Y009828D03*
X040050Y018468D03*
X040719Y018468D03*
X050800Y009593D03*
X051469Y009593D03*
X052100Y009593D03*
X052769Y009593D03*
X054175Y005968D03*
X054844Y005968D03*
D18*
X045810Y005921D02*
X045810Y006515D01*
X044810Y006515D02*
X044810Y005921D01*
X061163Y014093D02*
X061756Y014093D01*
X061756Y015093D02*
X061163Y015093D01*
X061163Y016093D02*
X061756Y016093D01*
X061756Y017093D02*
X061163Y017093D01*
X061163Y018093D02*
X061756Y018093D01*
X061756Y019093D02*
X061163Y019093D01*
X056485Y030771D02*
X056485Y031365D01*
X055485Y031365D02*
X055485Y030771D01*
X037015Y030615D02*
X037015Y030021D01*
X036015Y030021D02*
X036015Y030615D01*
X035015Y030615D02*
X035015Y030021D01*
X034015Y030021D02*
X034015Y030615D01*
X028515Y030521D02*
X028515Y031115D01*
X027515Y031115D02*
X027515Y030521D01*
X026515Y030521D02*
X026515Y031115D01*
X025515Y031115D02*
X025515Y030521D01*
X024515Y030521D02*
X024515Y031115D01*
X022215Y031115D02*
X022215Y030521D01*
X021215Y030521D02*
X021215Y031115D01*
X020215Y031115D02*
X020215Y030521D01*
X019215Y030521D02*
X019215Y031115D01*
X018215Y031115D02*
X018215Y030521D01*
X014746Y026078D02*
X014153Y026078D01*
X014153Y025078D02*
X014746Y025078D01*
X014746Y024078D02*
X014153Y024078D01*
X014153Y022953D02*
X014746Y022953D01*
X014746Y021953D02*
X014153Y021953D01*
X014153Y020953D02*
X014746Y020953D01*
X026140Y016365D02*
X026140Y015771D01*
X027140Y015771D02*
X027140Y016365D01*
X028140Y016365D02*
X028140Y015771D01*
X029140Y015771D02*
X029140Y016365D01*
X030140Y016365D02*
X030140Y015771D01*
X031140Y015771D02*
X031140Y016365D01*
D19*
X018070Y016348D03*
X018070Y017348D03*
X018025Y009873D03*
X018025Y008873D03*
D20*
X016025Y007873D03*
X016025Y011873D03*
X016070Y015348D03*
X016070Y019348D03*
D21*
X019585Y018451D03*
X019585Y016246D03*
X019700Y011026D03*
X019700Y008821D03*
D22*
X057988Y022718D03*
X061531Y022718D03*
D23*
X060361Y025468D03*
X059258Y025468D03*
D24*
X045096Y018968D03*
X045096Y018468D03*
X045096Y017968D03*
X045096Y017468D03*
X045096Y016968D03*
X045096Y016468D03*
X045096Y015968D03*
X045096Y015468D03*
X045096Y014968D03*
X045096Y014468D03*
X041473Y014468D03*
X041473Y014968D03*
X041473Y015468D03*
X041473Y015968D03*
X041473Y016468D03*
X041473Y016968D03*
X041473Y017468D03*
X041473Y017968D03*
X041473Y018468D03*
X041473Y018968D03*
D25*
X036600Y025593D03*
X036600Y026093D03*
X036600Y026593D03*
X036600Y027093D03*
X034180Y027093D03*
X034180Y026593D03*
X034180Y026093D03*
X034180Y025593D03*
D26*
X031615Y028485D03*
X031989Y029312D03*
X031240Y029312D03*
D27*
X033115Y026593D03*
D28*
X031015Y026593D03*
D29*
X056160Y015747D03*
X057260Y015114D03*
X057260Y014297D03*
X056160Y013739D03*
X056160Y012922D03*
X057260Y012289D03*
X058335Y013664D03*
X059435Y015064D03*
X058335Y015672D03*
X058335Y016489D03*
X059435Y017072D03*
X059435Y017889D03*
X058335Y018497D03*
X057260Y017122D03*
X059435Y019897D03*
X056160Y010914D03*
D30*
X049021Y010342D03*
X049021Y009594D03*
X048002Y009594D03*
X048002Y009968D03*
X048002Y010342D03*
X047952Y013494D03*
X047952Y013868D03*
X047952Y014242D03*
X048971Y014242D03*
X048971Y013494D03*
X049121Y018019D03*
X048102Y018019D03*
X048102Y018393D03*
X048102Y018767D03*
X049121Y018767D03*
X048971Y020494D03*
X048971Y021242D03*
X047952Y021242D03*
X047952Y020868D03*
X047952Y020494D03*
X035246Y020309D03*
X035246Y019787D03*
X034227Y019787D03*
X034227Y020309D03*
X034227Y020683D03*
X034227Y021057D03*
X035246Y021057D03*
X034227Y019413D03*
X034227Y019039D03*
X034227Y018467D03*
X034227Y018093D03*
X034227Y017719D03*
X035246Y017719D03*
X035256Y017137D03*
X034237Y017137D03*
X034237Y016763D03*
X034237Y016389D03*
X035256Y016389D03*
X035246Y018467D03*
X035246Y019039D03*
X026016Y011527D03*
X026016Y010779D03*
X024997Y010779D03*
X024997Y011153D03*
X024997Y011527D03*
X023496Y011417D03*
X023496Y010669D03*
X022477Y010669D03*
X022477Y011043D03*
X022477Y011417D03*
X025007Y009837D03*
X025007Y009463D03*
X025007Y009089D03*
X026026Y009089D03*
X026026Y009837D03*
X018332Y022204D03*
X017313Y022204D03*
X018332Y022578D03*
X018332Y022952D03*
X017313Y022952D03*
X017463Y025329D03*
X017463Y026077D03*
X018482Y026077D03*
X018482Y025703D03*
X018482Y025329D03*
D31*
X052090Y022353D03*
X052090Y021443D03*
X052090Y020533D03*
X052090Y018503D03*
X052090Y017593D03*
X052090Y016683D03*
X052115Y012803D03*
X052115Y011893D03*
X052115Y010983D03*
X052115Y008878D03*
X052115Y007968D03*
X052115Y007058D03*
D32*
X054555Y007968D03*
X054555Y011893D03*
X054530Y017593D03*
X054530Y021443D03*
D33*
X051334Y020535D03*
X050585Y020535D03*
X050960Y021401D03*
X050860Y017551D03*
X051234Y016685D03*
X050485Y016685D03*
X050985Y011826D03*
X051359Y010960D03*
X050610Y010960D03*
X050960Y007926D03*
X051334Y007060D03*
X050585Y007060D03*
D34*
X051182Y005518D03*
X053387Y005518D03*
X053212Y015143D03*
X051007Y015143D03*
D35*
X026965Y025049D03*
X026465Y025049D03*
X025965Y025049D03*
X025465Y025049D03*
X024965Y025049D03*
X024965Y028238D03*
X025465Y028238D03*
X025965Y028238D03*
X026465Y028238D03*
X026965Y028238D03*
D36*
X027559Y027643D03*
X027559Y027143D03*
X027559Y026643D03*
X027559Y026143D03*
X027559Y025643D03*
X024370Y025643D03*
X024370Y026143D03*
X024370Y026643D03*
X024370Y027143D03*
X024370Y027643D03*
D37*
X057935Y008218D03*
D38*
X059935Y008218D03*
D39*
X047285Y027768D03*
D40*
X054135Y031018D03*
X057810Y030968D03*
D41*
X032245Y022623D03*
X032245Y021623D03*
D42*
X045835Y008851D03*
X046210Y008851D03*
X046584Y008851D03*
X046584Y007831D03*
X045835Y007831D03*
D43*
X023624Y017521D03*
X023250Y017521D03*
X022875Y017521D03*
X022875Y018426D03*
X023250Y018426D03*
X023624Y018426D03*
D44*
X040040Y025295D03*
X040540Y025295D03*
X041040Y025295D03*
X041540Y025295D03*
X041540Y027342D03*
X041040Y027342D03*
X040540Y027342D03*
X040040Y027342D03*
D45*
X031000Y022563D03*
X031000Y022253D03*
X031000Y021933D03*
X031000Y021623D03*
X031000Y021303D03*
X031000Y020993D03*
X031000Y020683D03*
X031000Y020363D03*
X031000Y020053D03*
X031000Y019733D03*
X031000Y019423D03*
X026580Y019423D03*
X026580Y019733D03*
X026580Y020053D03*
X026580Y020363D03*
X026580Y020683D03*
X026580Y020993D03*
X026580Y021303D03*
X026580Y021623D03*
X026580Y021933D03*
X026580Y022253D03*
X026580Y022563D03*
D46*
X027220Y023203D03*
X027530Y023203D03*
X027850Y023203D03*
X028160Y023203D03*
X028480Y023203D03*
X028790Y023203D03*
X029100Y023203D03*
X029420Y023203D03*
X029730Y023203D03*
X030050Y023203D03*
X030360Y023203D03*
X030360Y018783D03*
X030050Y018783D03*
X029730Y018783D03*
X029420Y018783D03*
X029100Y018783D03*
X028790Y018783D03*
X028480Y018783D03*
X028160Y018783D03*
X027850Y018783D03*
X027530Y018783D03*
X027220Y018783D03*
D47*
X017825Y022953D03*
X018750Y024803D03*
X019190Y025968D03*
X017975Y026078D03*
X019190Y027418D03*
X020615Y027518D03*
X021490Y027043D03*
X020690Y026093D03*
X022890Y027993D03*
X018565Y029268D03*
X028715Y029018D03*
X034190Y027593D03*
X038585Y026093D03*
X046885Y029093D03*
X049110Y029068D03*
X049610Y029068D03*
X050110Y029068D03*
X050610Y029068D03*
X050610Y028568D03*
X050110Y028568D03*
X049610Y028568D03*
X049110Y028568D03*
X049110Y028068D03*
X049610Y028068D03*
X050110Y028068D03*
X050610Y028068D03*
X050610Y027568D03*
X050110Y027568D03*
X049610Y027568D03*
X049110Y027568D03*
X049110Y029568D03*
X049610Y029568D03*
X050110Y029568D03*
X050610Y029568D03*
X057410Y029143D03*
X058585Y025468D03*
X054310Y023043D03*
X053135Y020518D03*
X054260Y019193D03*
X049635Y019918D03*
X047085Y020868D03*
X045985Y021243D03*
X046585Y018767D03*
X047085Y018393D03*
X048610Y018018D03*
X047535Y017468D03*
X046585Y016968D03*
X047085Y016468D03*
X045985Y015968D03*
X047385Y014968D03*
X047935Y014643D03*
X046810Y013868D03*
X047385Y013493D03*
X048435Y013493D03*
X049010Y012068D03*
X045810Y013868D03*
X044285Y013243D03*
X048985Y015918D03*
X051785Y015143D03*
X053135Y016643D03*
X054610Y016243D03*
X058585Y014943D03*
X059110Y013668D03*
X058110Y012293D03*
X056985Y010918D03*
X053235Y010993D03*
X048510Y009593D03*
X046810Y009968D03*
X043835Y010343D03*
X051960Y005518D03*
X054860Y005093D03*
X054860Y006643D03*
X053235Y006993D03*
X039185Y016468D03*
X042210Y017968D03*
X043835Y018468D03*
X044285Y017968D03*
X039560Y018468D03*
X059635Y022718D03*
D48*
X048960Y022993D03*
X048460Y020493D03*
X054335Y013493D03*
X054310Y009593D03*
D49*
X047685Y008618D03*
X045285Y008843D03*
X043410Y009743D03*
X043410Y013358D03*
X040520Y014608D03*
X039560Y015958D03*
X037100Y016388D03*
X037120Y017113D03*
X036100Y017718D03*
X037110Y018468D03*
X035880Y019038D03*
X037110Y019788D03*
X037660Y020298D03*
X037110Y021058D03*
X033735Y020308D03*
X033640Y021058D03*
X033580Y022143D03*
X030350Y021518D03*
X029860Y021008D03*
X030290Y020588D03*
X030220Y019608D03*
X031540Y018928D03*
X032040Y019728D03*
X033735Y019038D03*
X033735Y017718D03*
X033745Y016388D03*
X034760Y015478D03*
X036100Y015468D03*
X038710Y017578D03*
X039860Y017578D03*
X040520Y018978D03*
X042610Y020293D03*
X043410Y018968D03*
X045410Y020293D03*
X048410Y019368D03*
X049960Y018068D03*
X039340Y025318D03*
X037315Y025078D03*
X035840Y026593D03*
X040040Y029518D03*
X041565Y031793D03*
X029490Y026143D03*
X028830Y027108D03*
X028215Y027143D03*
X026060Y027448D03*
X025065Y027143D03*
X025470Y026338D03*
X026610Y025768D03*
X026060Y024148D03*
X025470Y023718D03*
X025410Y023198D03*
X025430Y022638D03*
X027360Y021398D03*
X027450Y020638D03*
X025760Y018918D03*
X024990Y018278D03*
X024250Y017528D03*
X022980Y019018D03*
X021300Y020308D03*
X018650Y021653D03*
X017825Y022203D03*
X016709Y020308D03*
X022160Y022638D03*
X022870Y023208D03*
X017975Y025328D03*
X018290Y026693D03*
X029100Y022448D03*
X029730Y022418D03*
X029420Y024078D03*
X023250Y015358D03*
X026600Y013448D03*
X024990Y012598D03*
X024230Y013088D03*
X022050Y011888D03*
X021440Y012598D03*
X021960Y010668D03*
X024010Y010278D03*
X024990Y010288D03*
X025500Y010768D03*
X026590Y010778D03*
X027830Y011518D03*
X027910Y009838D03*
X025520Y009098D03*
X032040Y009088D03*
X034760Y012578D03*
X044580Y005248D03*
X058635Y030968D03*
M02*
