G75*
%MOIN*%
%OFA0B0*%
%FSLAX24Y24*%
%IPPOS*%
%LPD*%
%AMOC8*
5,1,8,0,0,1.08239X$1,22.5*
%
%ADD10C,0.1340*%
%ADD11C,0.0674*%
%ADD12C,0.0634*%
%ADD13C,0.0867*%
%ADD14R,0.0631X0.0710*%
%ADD15C,0.0640*%
%ADD16OC8,0.0640*%
%ADD17C,0.1080*%
%ADD18OC8,0.1080*%
%ADD19C,0.0600*%
%ADD20R,0.0513X0.0474*%
%ADD21R,0.0474X0.0513*%
%ADD22C,0.0437*%
%ADD23C,0.0480*%
%ADD24C,0.0476*%
D10*
X014210Y005568D03*
X062210Y005568D03*
X062210Y033568D03*
X014210Y033568D03*
D11*
X018215Y031115D02*
X018215Y030521D01*
X019215Y030521D02*
X019215Y031115D01*
X020215Y031115D02*
X020215Y030521D01*
X021215Y030521D02*
X021215Y031115D01*
X022215Y031115D02*
X022215Y030521D01*
X024515Y030521D02*
X024515Y031115D01*
X025515Y031115D02*
X025515Y030521D01*
X026515Y030521D02*
X026515Y031115D01*
X027515Y031115D02*
X027515Y030521D01*
X028515Y030521D02*
X028515Y031115D01*
X034015Y030615D02*
X034015Y030021D01*
X035015Y030021D02*
X035015Y030615D01*
X036015Y030615D02*
X036015Y030021D01*
X037015Y030021D02*
X037015Y030615D01*
X055485Y030771D02*
X055485Y031365D01*
X056485Y031365D02*
X056485Y030771D01*
X061163Y019093D02*
X061756Y019093D01*
X061756Y018093D02*
X061163Y018093D01*
X061163Y017093D02*
X061756Y017093D01*
X061756Y016093D02*
X061163Y016093D01*
X061163Y015093D02*
X061756Y015093D01*
X061756Y014093D02*
X061163Y014093D01*
X045810Y006515D02*
X045810Y005921D01*
X044810Y005921D02*
X044810Y006515D01*
X031140Y015771D02*
X031140Y016365D01*
X030140Y016365D02*
X030140Y015771D01*
X029140Y015771D02*
X029140Y016365D01*
X028140Y016365D02*
X028140Y015771D01*
X027140Y015771D02*
X027140Y016365D01*
X026140Y016365D02*
X026140Y015771D01*
X014746Y020953D02*
X014153Y020953D01*
X014153Y021953D02*
X014746Y021953D01*
X014746Y022953D02*
X014153Y022953D01*
X014153Y024078D02*
X014746Y024078D01*
X014746Y025078D02*
X014153Y025078D01*
X014153Y026078D02*
X014746Y026078D01*
D12*
X018070Y017348D03*
X018070Y016348D03*
X018025Y009873D03*
X018025Y008873D03*
D13*
X016025Y007873D03*
X016025Y011873D03*
X016070Y015348D03*
X016070Y019348D03*
D14*
X028238Y019638D03*
X029341Y019638D03*
D15*
X033115Y026593D03*
D16*
X031015Y026593D03*
D17*
X057935Y008218D03*
D18*
X059935Y008218D03*
D19*
X032245Y021623D03*
X032245Y022623D03*
D20*
X029344Y021008D03*
X028675Y021008D03*
D21*
X027450Y020113D03*
X027450Y019444D03*
D22*
X018750Y024803D03*
X019190Y025968D03*
X017975Y026078D03*
X019190Y027418D03*
X020615Y027518D03*
X021490Y027043D03*
X020690Y026093D03*
X022890Y027993D03*
X018565Y029268D03*
X028715Y029018D03*
X034190Y027593D03*
X038585Y026093D03*
X046885Y029093D03*
X049110Y029068D03*
X049610Y029068D03*
X050110Y029068D03*
X050610Y029068D03*
X050610Y028568D03*
X050110Y028568D03*
X049610Y028568D03*
X049110Y028568D03*
X049110Y028068D03*
X049610Y028068D03*
X050110Y028068D03*
X050610Y028068D03*
X050610Y027568D03*
X050110Y027568D03*
X049610Y027568D03*
X049110Y027568D03*
X049110Y029568D03*
X049610Y029568D03*
X050110Y029568D03*
X050610Y029568D03*
X057410Y029143D03*
X058585Y025468D03*
X054310Y023043D03*
X053135Y020518D03*
X054260Y019193D03*
X049635Y019918D03*
X047085Y020868D03*
X045985Y021243D03*
X046585Y018767D03*
X047085Y018393D03*
X048610Y018018D03*
X047535Y017468D03*
X046585Y016968D03*
X047085Y016468D03*
X045985Y015968D03*
X047385Y014968D03*
X047935Y014643D03*
X046810Y013868D03*
X047385Y013493D03*
X048435Y013493D03*
X049010Y012068D03*
X045810Y013868D03*
X044285Y013243D03*
X048985Y015918D03*
X051785Y015143D03*
X053135Y016643D03*
X054610Y016243D03*
X058585Y014943D03*
X059110Y013668D03*
X058110Y012293D03*
X056985Y010918D03*
X053235Y010993D03*
X048510Y009593D03*
X046810Y009968D03*
X043835Y010343D03*
X051960Y005518D03*
X054860Y005093D03*
X054860Y006643D03*
X053235Y006993D03*
X039185Y016468D03*
X042210Y017968D03*
X043835Y018468D03*
X044285Y017968D03*
X039560Y018468D03*
X059635Y022718D03*
X017825Y022953D03*
D23*
X048460Y020493D03*
X048960Y022993D03*
X054335Y013493D03*
X054310Y009593D03*
D24*
X047685Y008618D03*
X045285Y008843D03*
X043410Y009743D03*
X043410Y013358D03*
X040520Y014608D03*
X039560Y015958D03*
X037100Y016388D03*
X037120Y017113D03*
X036100Y017718D03*
X037110Y018468D03*
X035880Y019038D03*
X037110Y019788D03*
X037660Y020298D03*
X037110Y021058D03*
X033735Y020308D03*
X033640Y021058D03*
X033580Y022143D03*
X030350Y021518D03*
X029860Y021008D03*
X030290Y020588D03*
X030220Y019608D03*
X031540Y018928D03*
X032040Y019728D03*
X033735Y019038D03*
X033735Y017718D03*
X033745Y016388D03*
X034760Y015478D03*
X036100Y015468D03*
X038710Y017578D03*
X039860Y017578D03*
X040520Y018978D03*
X042610Y020293D03*
X043410Y018968D03*
X045410Y020293D03*
X048410Y019368D03*
X049960Y018068D03*
X039340Y025318D03*
X037315Y025078D03*
X035840Y026593D03*
X040040Y029518D03*
X041565Y031793D03*
X029490Y026143D03*
X028830Y027108D03*
X028215Y027143D03*
X026060Y027448D03*
X025065Y027143D03*
X025470Y026338D03*
X026610Y025768D03*
X026060Y024148D03*
X025470Y023718D03*
X025410Y023198D03*
X025430Y022638D03*
X027360Y021398D03*
X027450Y020638D03*
X025760Y018918D03*
X024990Y018278D03*
X024250Y017528D03*
X022980Y019018D03*
X021300Y020308D03*
X018650Y021653D03*
X017825Y022203D03*
X016709Y020308D03*
X022160Y022638D03*
X022870Y023208D03*
X017975Y025328D03*
X018290Y026693D03*
X029100Y022448D03*
X029730Y022418D03*
X029420Y024078D03*
X023250Y015358D03*
X026600Y013448D03*
X024990Y012598D03*
X024230Y013088D03*
X022050Y011888D03*
X021440Y012598D03*
X021960Y010668D03*
X024010Y010278D03*
X024990Y010288D03*
X025500Y010768D03*
X026590Y010778D03*
X027830Y011518D03*
X027910Y009838D03*
X025520Y009098D03*
X032040Y009088D03*
X034760Y012578D03*
X044580Y005248D03*
X058635Y030968D03*
M02*
