G75*
%MOIN*%
%OFA0B0*%
%FSLAX24Y24*%
%IPPOS*%
%LPD*%
%AMOC8*
5,1,8,0,0,1.08239X$1,22.5*
%
%ADD10C,0.0080*%
%ADD11C,0.0020*%
%ADD12C,0.0220*%
%ADD13C,0.0010*%
D10*
X027805Y019166D02*
X028396Y019166D01*
X027805Y019166D02*
X027805Y020111D01*
X028396Y020111D01*
X029183Y020111D02*
X029616Y020111D01*
X029774Y019953D01*
X029774Y019323D01*
X029616Y019166D01*
X029183Y019166D01*
D11*
X029044Y020257D02*
X028984Y020257D01*
X028954Y020287D01*
X028890Y020257D02*
X028770Y020377D01*
X028770Y020407D01*
X028800Y020437D01*
X028860Y020437D01*
X028890Y020407D01*
X028954Y020407D02*
X028984Y020437D01*
X029044Y020437D01*
X029075Y020407D01*
X029075Y020287D01*
X029044Y020257D01*
X028890Y020257D02*
X028770Y020257D01*
X028706Y020347D02*
X028586Y020347D01*
X028616Y020257D02*
X028616Y020437D01*
X028706Y020347D01*
D12*
X029010Y020996D02*
X029010Y021020D01*
X027462Y019778D02*
X027438Y019778D01*
D13*
X027145Y019766D02*
X027145Y019716D01*
X027120Y019691D01*
X027020Y019691D01*
X026995Y019716D01*
X026995Y019766D01*
X027020Y019791D01*
X027020Y019839D02*
X026995Y019864D01*
X026995Y019914D01*
X027020Y019939D01*
X027045Y019939D01*
X027070Y019914D01*
X027070Y019889D01*
X027070Y019914D02*
X027095Y019939D01*
X027120Y019939D01*
X027145Y019914D01*
X027145Y019864D01*
X027120Y019839D01*
X027120Y019791D02*
X027145Y019766D01*
X027120Y019986D02*
X027095Y019986D01*
X027070Y020011D01*
X027070Y020061D01*
X027045Y020086D01*
X027020Y020086D01*
X026995Y020061D01*
X026995Y020011D01*
X027020Y019986D01*
X027045Y019986D01*
X027070Y020011D01*
X027070Y020061D02*
X027095Y020086D01*
X027120Y020086D01*
X027145Y020061D01*
X027145Y020011D01*
X027120Y019986D01*
X028960Y021338D02*
X028960Y021363D01*
X028985Y021388D01*
X029060Y021388D01*
X029060Y021338D01*
X029035Y021313D01*
X028985Y021313D01*
X028960Y021338D01*
X029010Y021438D02*
X029060Y021388D01*
X029107Y021363D02*
X029107Y021338D01*
X029132Y021313D01*
X029182Y021313D01*
X029207Y021338D01*
X029254Y021338D02*
X029279Y021313D01*
X029329Y021313D01*
X029355Y021338D01*
X029355Y021438D01*
X029329Y021463D01*
X029279Y021463D01*
X029254Y021438D01*
X029207Y021438D02*
X029182Y021463D01*
X029132Y021463D01*
X029107Y021438D01*
X029107Y021413D01*
X029132Y021388D01*
X029107Y021363D01*
X029132Y021388D02*
X029157Y021388D01*
X029010Y021438D02*
X028960Y021463D01*
M02*
