%
M48
M72
T01C0.0197
T02C0.0236
T03C0.0320
T04C0.0354
T05C0.0360
T06C0.0394
T07C0.0400
T08C0.0787
T09C0.1260
%
T01
X39185Y16468
X42210Y17968
X43835Y18468
X44285Y17968
X46585Y18767
X47085Y18393
X48610Y18018
X47535Y17468
X46585Y16968
X47085Y16468
X45985Y15968
X47385Y14968
X47935Y14643
X46810Y13868
X47385Y13493
X48435Y13493
X49010Y12068
X45810Y13868
X44285Y13243
X48985Y15918
X51785Y15143
X53135Y16643
X54610Y16243
X58585Y14943
X59110Y13668
X58110Y12293
X56985Y10918
X54310Y9593
X53235Y10993
X54335Y13493
X48510Y9593
X46810Y9968
X43835Y10343
X51960Y5518
X54860Y5093
X54860Y6643
X53235Y6993
X39560Y18468
X45985Y21243
X47085Y20868
X48460Y20493
X49635Y19918
X53135Y20518
X54260Y19193
X59635Y22718
X58585Y25468
X54310Y23043
X48960Y22993
X49110Y27568
X49610Y27568
X50110Y27568
X50610Y27568
X50610Y28068
X50110Y28068
X49610Y28068
X49110Y28068
X49110Y28568
X49610Y28568
X50110Y28568
X50610Y28568
X50610Y29068
X50110Y29068
X49610Y29068
X49110Y29068
X49110Y29568
X49610Y29568
X50110Y29568
X50610Y29568
X46885Y29093
X38585Y26093
X34190Y27593
X28715Y29018
X22890Y27993
X21490Y27043
X20615Y27518
X19190Y27418
X17975Y26078
X19190Y25968
X20690Y26093
X18750Y24803
X17825Y22953
X18565Y29268
X57410Y29143
T02
X58635Y30968
X41565Y31793
X40040Y29518
X35840Y26593
X37315Y25078
X39340Y25318
X33580Y22143
X33640Y21058
X33735Y20308
X32040Y19728
X31540Y18928
X30220Y19608
X30290Y20588
X29860Y21008
X30350Y21518
X29730Y22418
X29100Y22448
X27360Y21398
X27450Y20638
X25760Y18918
X24990Y18278
X24250Y17528
X22980Y19018
X21300Y20308
X18650Y21653
X17825Y22203
X16709Y20308
X22160Y22638
X22870Y23208
X25410Y23198
X25430Y22638
X25470Y23718
X26060Y24148
X26610Y25768
X25470Y26338
X25065Y27143
X26060Y27448
X28215Y27143
X28830Y27108
X29490Y26143
X29420Y24078
X37110Y21058
X37660Y20298
X37110Y19788
X35880Y19038
X37110Y18468
X36100Y17718
X37120Y17113
X37100Y16388
X36100Y15468
X34760Y15478
X33745Y16388
X33735Y17718
X33735Y19038
X38710Y17578
X39860Y17578
X40520Y18978
X42610Y20293
X43410Y18968
X45410Y20293
X48410Y19368
X49960Y18068
X43410Y13358
X40520Y14608
X39560Y15958
X34760Y12578
X32040Y9088
X27910Y9838
X26590Y10778
X25500Y10768
X24990Y10288
X24010Y10278
X25520Y9098
X21960Y10668
X22050Y11888
X21440Y12598
X24230Y13088
X24990Y12598
X26600Y13448
X27830Y11518
X23250Y15358
X17975Y25328
X18290Y26693
X43410Y9743
X45285Y8843
X47685Y8618
X44580Y5248
T03
X32245Y21623
X32245Y22623
T04
X18070Y17348
X18070Y16348
X18025Y9873
X18025Y8873
T05
X31015Y26593
X33115Y26593
T06
X34015Y30318
X35015Y30318
X36015Y30318
X37015Y30318
X28515Y30818
X27515Y30818
X26515Y30818
X25515Y30818
X24515Y30818
X22215Y30818
X21215Y30818
X20215Y30818
X19215Y30818
X18215Y30818
X14450Y26078
X14450Y25078
X14450Y24078
X14450Y22953
X14450Y21953
X14450Y20953
X26140Y16068
X27140Y16068
X28140Y16068
X29140Y16068
X30140Y16068
X31140Y16068
X44810Y6218
X45810Y6218
X61460Y14093
X61460Y15093
X61460Y16093
X61460Y17093
X61460Y18093
X61460Y19093
X56485Y31068
X55485Y31068
T07
X57935Y8218
X59935Y8218
T08
X16025Y7873
X16025Y11873
X16070Y15348
X16070Y19348
T09
X14210Y5568
X62210Y5568
X62210Y33568
X14210Y33568
M30
