G75*
%MOIN*%
%OFA0B0*%
%FSLAX24Y24*%
%IPPOS*%
%LPD*%
%AMOC8*
5,1,8,0,0,1.08239X$1,22.5*
%
%ADD10C,0.0000*%
%ADD11C,0.0020*%
%ADD12C,0.0030*%
%ADD13R,0.0300X0.0180*%
%ADD14C,0.0080*%
%ADD15R,0.0340X0.0300*%
%ADD16R,0.0098X0.0098*%
%ADD17C,0.0220*%
%ADD18R,0.0180X0.0300*%
%ADD19C,0.0100*%
%ADD20C,0.0992*%
%ADD21C,0.0060*%
%ADD22R,0.0200X0.1000*%
%ADD23R,0.0827X0.0118*%
%ADD24C,0.0004*%
%ADD25C,0.0050*%
%ADD26C,0.0030*%
%ADD27C,0.0040*%
%ADD28R,0.0250X0.1000*%
%ADD29C,0.0010*%
%ADD30C,0.0079*%
D10*
X013210Y004568D02*
X013210Y034568D01*
X063210Y034568D01*
X063210Y004568D01*
X013210Y004568D01*
X013580Y005568D02*
X013582Y005618D01*
X013588Y005668D01*
X013598Y005717D01*
X013612Y005765D01*
X013629Y005812D01*
X013650Y005857D01*
X013675Y005901D01*
X013703Y005942D01*
X013735Y005981D01*
X013769Y006018D01*
X013806Y006052D01*
X013846Y006082D01*
X013888Y006109D01*
X013932Y006133D01*
X013978Y006154D01*
X014025Y006170D01*
X014073Y006183D01*
X014123Y006192D01*
X014172Y006197D01*
X014223Y006198D01*
X014273Y006195D01*
X014322Y006188D01*
X014371Y006177D01*
X014419Y006162D01*
X014465Y006144D01*
X014510Y006122D01*
X014553Y006096D01*
X014594Y006067D01*
X014633Y006035D01*
X014669Y006000D01*
X014701Y005962D01*
X014731Y005922D01*
X014758Y005879D01*
X014781Y005835D01*
X014800Y005789D01*
X014816Y005741D01*
X014828Y005692D01*
X014836Y005643D01*
X014840Y005593D01*
X014840Y005543D01*
X014836Y005493D01*
X014828Y005444D01*
X014816Y005395D01*
X014800Y005347D01*
X014781Y005301D01*
X014758Y005257D01*
X014731Y005214D01*
X014701Y005174D01*
X014669Y005136D01*
X014633Y005101D01*
X014594Y005069D01*
X014553Y005040D01*
X014510Y005014D01*
X014465Y004992D01*
X014419Y004974D01*
X014371Y004959D01*
X014322Y004948D01*
X014273Y004941D01*
X014223Y004938D01*
X014172Y004939D01*
X014123Y004944D01*
X014073Y004953D01*
X014025Y004966D01*
X013978Y004982D01*
X013932Y005003D01*
X013888Y005027D01*
X013846Y005054D01*
X013806Y005084D01*
X013769Y005118D01*
X013735Y005155D01*
X013703Y005194D01*
X013675Y005235D01*
X013650Y005279D01*
X013629Y005324D01*
X013612Y005371D01*
X013598Y005419D01*
X013588Y005468D01*
X013582Y005518D01*
X013580Y005568D01*
X015631Y007873D02*
X015633Y007912D01*
X015639Y007951D01*
X015649Y007989D01*
X015662Y008026D01*
X015679Y008061D01*
X015699Y008095D01*
X015723Y008126D01*
X015750Y008155D01*
X015779Y008181D01*
X015811Y008204D01*
X015845Y008224D01*
X015881Y008240D01*
X015918Y008252D01*
X015957Y008261D01*
X015996Y008266D01*
X016035Y008267D01*
X016074Y008264D01*
X016113Y008257D01*
X016150Y008246D01*
X016187Y008232D01*
X016222Y008214D01*
X016255Y008193D01*
X016286Y008168D01*
X016314Y008141D01*
X016339Y008111D01*
X016361Y008078D01*
X016380Y008044D01*
X016395Y008008D01*
X016407Y007970D01*
X016415Y007932D01*
X016419Y007893D01*
X016419Y007853D01*
X016415Y007814D01*
X016407Y007776D01*
X016395Y007738D01*
X016380Y007702D01*
X016361Y007668D01*
X016339Y007635D01*
X016314Y007605D01*
X016286Y007578D01*
X016255Y007553D01*
X016222Y007532D01*
X016187Y007514D01*
X016150Y007500D01*
X016113Y007489D01*
X016074Y007482D01*
X016035Y007479D01*
X015996Y007480D01*
X015957Y007485D01*
X015918Y007494D01*
X015881Y007506D01*
X015845Y007522D01*
X015811Y007542D01*
X015779Y007565D01*
X015750Y007591D01*
X015723Y007620D01*
X015699Y007651D01*
X015679Y007685D01*
X015662Y007720D01*
X015649Y007757D01*
X015639Y007795D01*
X015633Y007834D01*
X015631Y007873D01*
X015631Y011873D02*
X015633Y011912D01*
X015639Y011951D01*
X015649Y011989D01*
X015662Y012026D01*
X015679Y012061D01*
X015699Y012095D01*
X015723Y012126D01*
X015750Y012155D01*
X015779Y012181D01*
X015811Y012204D01*
X015845Y012224D01*
X015881Y012240D01*
X015918Y012252D01*
X015957Y012261D01*
X015996Y012266D01*
X016035Y012267D01*
X016074Y012264D01*
X016113Y012257D01*
X016150Y012246D01*
X016187Y012232D01*
X016222Y012214D01*
X016255Y012193D01*
X016286Y012168D01*
X016314Y012141D01*
X016339Y012111D01*
X016361Y012078D01*
X016380Y012044D01*
X016395Y012008D01*
X016407Y011970D01*
X016415Y011932D01*
X016419Y011893D01*
X016419Y011853D01*
X016415Y011814D01*
X016407Y011776D01*
X016395Y011738D01*
X016380Y011702D01*
X016361Y011668D01*
X016339Y011635D01*
X016314Y011605D01*
X016286Y011578D01*
X016255Y011553D01*
X016222Y011532D01*
X016187Y011514D01*
X016150Y011500D01*
X016113Y011489D01*
X016074Y011482D01*
X016035Y011479D01*
X015996Y011480D01*
X015957Y011485D01*
X015918Y011494D01*
X015881Y011506D01*
X015845Y011522D01*
X015811Y011542D01*
X015779Y011565D01*
X015750Y011591D01*
X015723Y011620D01*
X015699Y011651D01*
X015679Y011685D01*
X015662Y011720D01*
X015649Y011757D01*
X015639Y011795D01*
X015633Y011834D01*
X015631Y011873D01*
X015676Y015348D02*
X015678Y015387D01*
X015684Y015426D01*
X015694Y015464D01*
X015707Y015501D01*
X015724Y015536D01*
X015744Y015570D01*
X015768Y015601D01*
X015795Y015630D01*
X015824Y015656D01*
X015856Y015679D01*
X015890Y015699D01*
X015926Y015715D01*
X015963Y015727D01*
X016002Y015736D01*
X016041Y015741D01*
X016080Y015742D01*
X016119Y015739D01*
X016158Y015732D01*
X016195Y015721D01*
X016232Y015707D01*
X016267Y015689D01*
X016300Y015668D01*
X016331Y015643D01*
X016359Y015616D01*
X016384Y015586D01*
X016406Y015553D01*
X016425Y015519D01*
X016440Y015483D01*
X016452Y015445D01*
X016460Y015407D01*
X016464Y015368D01*
X016464Y015328D01*
X016460Y015289D01*
X016452Y015251D01*
X016440Y015213D01*
X016425Y015177D01*
X016406Y015143D01*
X016384Y015110D01*
X016359Y015080D01*
X016331Y015053D01*
X016300Y015028D01*
X016267Y015007D01*
X016232Y014989D01*
X016195Y014975D01*
X016158Y014964D01*
X016119Y014957D01*
X016080Y014954D01*
X016041Y014955D01*
X016002Y014960D01*
X015963Y014969D01*
X015926Y014981D01*
X015890Y014997D01*
X015856Y015017D01*
X015824Y015040D01*
X015795Y015066D01*
X015768Y015095D01*
X015744Y015126D01*
X015724Y015160D01*
X015707Y015195D01*
X015694Y015232D01*
X015684Y015270D01*
X015678Y015309D01*
X015676Y015348D01*
X015676Y019348D02*
X015678Y019387D01*
X015684Y019426D01*
X015694Y019464D01*
X015707Y019501D01*
X015724Y019536D01*
X015744Y019570D01*
X015768Y019601D01*
X015795Y019630D01*
X015824Y019656D01*
X015856Y019679D01*
X015890Y019699D01*
X015926Y019715D01*
X015963Y019727D01*
X016002Y019736D01*
X016041Y019741D01*
X016080Y019742D01*
X016119Y019739D01*
X016158Y019732D01*
X016195Y019721D01*
X016232Y019707D01*
X016267Y019689D01*
X016300Y019668D01*
X016331Y019643D01*
X016359Y019616D01*
X016384Y019586D01*
X016406Y019553D01*
X016425Y019519D01*
X016440Y019483D01*
X016452Y019445D01*
X016460Y019407D01*
X016464Y019368D01*
X016464Y019328D01*
X016460Y019289D01*
X016452Y019251D01*
X016440Y019213D01*
X016425Y019177D01*
X016406Y019143D01*
X016384Y019110D01*
X016359Y019080D01*
X016331Y019053D01*
X016300Y019028D01*
X016267Y019007D01*
X016232Y018989D01*
X016195Y018975D01*
X016158Y018964D01*
X016119Y018957D01*
X016080Y018954D01*
X016041Y018955D01*
X016002Y018960D01*
X015963Y018969D01*
X015926Y018981D01*
X015890Y018997D01*
X015856Y019017D01*
X015824Y019040D01*
X015795Y019066D01*
X015768Y019095D01*
X015744Y019126D01*
X015724Y019160D01*
X015707Y019195D01*
X015694Y019232D01*
X015684Y019270D01*
X015678Y019309D01*
X015676Y019348D01*
X026430Y019333D02*
X026820Y019333D01*
X026820Y019513D01*
X026430Y019513D01*
X026430Y019333D01*
X026430Y019643D02*
X026820Y019643D01*
X026820Y019823D01*
X026430Y019823D01*
X026430Y019643D01*
X026430Y019963D02*
X026820Y019963D01*
X026820Y020143D01*
X026430Y020143D01*
X026430Y019963D01*
X026430Y020273D02*
X026820Y020273D01*
X026820Y020453D01*
X026430Y020453D01*
X026430Y020273D01*
X026430Y020593D02*
X026820Y020593D01*
X026820Y020773D01*
X026430Y020773D01*
X026430Y020593D01*
X026430Y020903D02*
X026820Y020903D01*
X026820Y021083D01*
X026430Y021083D01*
X026430Y020903D01*
X026430Y021213D02*
X026820Y021213D01*
X026820Y021393D01*
X026430Y021393D01*
X026430Y021213D01*
X026430Y021533D02*
X026820Y021533D01*
X026820Y021713D01*
X026430Y021713D01*
X026430Y021533D01*
X026430Y021843D02*
X026820Y021843D01*
X026820Y022023D01*
X026430Y022023D01*
X026430Y021843D01*
X026430Y022163D02*
X026820Y022163D01*
X026820Y022343D01*
X026430Y022343D01*
X026430Y022163D01*
X026430Y022473D02*
X026820Y022473D01*
X026820Y022653D01*
X026430Y022653D01*
X026430Y022473D01*
X026820Y022463D02*
X027320Y022963D01*
X027310Y022963D02*
X027310Y023353D01*
X027130Y023353D01*
X027130Y022963D01*
X027310Y022963D01*
X027440Y022963D02*
X027440Y023353D01*
X027620Y023353D01*
X027620Y022963D01*
X027440Y022963D01*
X027760Y022963D02*
X027760Y023353D01*
X027940Y023353D01*
X027940Y022963D01*
X027760Y022963D01*
X028070Y022963D02*
X028070Y023353D01*
X028250Y023353D01*
X028250Y022963D01*
X028070Y022963D01*
X028390Y022963D02*
X028390Y023353D01*
X028570Y023353D01*
X028570Y022963D01*
X028390Y022963D01*
X028700Y022963D02*
X028700Y023353D01*
X028880Y023353D01*
X028880Y022963D01*
X028700Y022963D01*
X029010Y022963D02*
X029010Y023353D01*
X029190Y023353D01*
X029190Y022963D01*
X029010Y022963D01*
X029330Y022963D02*
X029330Y023353D01*
X029510Y023353D01*
X029510Y022963D01*
X029330Y022963D01*
X029640Y022963D02*
X029640Y023353D01*
X029820Y023353D01*
X029820Y022963D01*
X029640Y022963D01*
X029960Y022963D02*
X029960Y023353D01*
X030140Y023353D01*
X030140Y022963D01*
X029960Y022963D01*
X030270Y022963D02*
X030270Y023353D01*
X030450Y023353D01*
X030450Y022963D01*
X030270Y022963D01*
X030760Y022963D02*
X026820Y022963D01*
X026820Y019023D01*
X030760Y019023D01*
X030760Y022963D01*
X030760Y022653D02*
X031150Y022653D01*
X031150Y022473D01*
X030760Y022473D01*
X030760Y022653D01*
X030760Y022343D02*
X031150Y022343D01*
X031150Y022163D01*
X030760Y022163D01*
X030760Y022343D01*
X030760Y022023D02*
X031150Y022023D01*
X031150Y021843D01*
X030760Y021843D01*
X030760Y022023D01*
X030760Y021713D02*
X031150Y021713D01*
X031150Y021533D01*
X030760Y021533D01*
X030760Y021713D01*
X030760Y021393D02*
X031150Y021393D01*
X031150Y021213D01*
X030760Y021213D01*
X030760Y021393D01*
X030760Y021083D02*
X031150Y021083D01*
X031150Y020903D01*
X030760Y020903D01*
X030760Y021083D01*
X030760Y020773D02*
X031150Y020773D01*
X031150Y020593D01*
X030760Y020593D01*
X030760Y020773D01*
X030760Y020453D02*
X031150Y020453D01*
X031150Y020273D01*
X030760Y020273D01*
X030760Y020453D01*
X030760Y020143D02*
X031150Y020143D01*
X031150Y019963D01*
X030760Y019963D01*
X030760Y020143D01*
X030760Y019823D02*
X031150Y019823D01*
X031150Y019643D01*
X030760Y019643D01*
X030760Y019823D01*
X030760Y019513D02*
X031150Y019513D01*
X031150Y019333D01*
X030760Y019333D01*
X030760Y019513D01*
X030450Y019023D02*
X030270Y019023D01*
X030270Y018633D01*
X030450Y018633D01*
X030450Y019023D01*
X030140Y019023D02*
X030140Y018633D01*
X029960Y018633D01*
X029960Y019023D01*
X030140Y019023D01*
X029820Y019023D02*
X029820Y018633D01*
X029640Y018633D01*
X029640Y019023D01*
X029820Y019023D01*
X029510Y019023D02*
X029510Y018633D01*
X029330Y018633D01*
X029330Y019023D01*
X029510Y019023D01*
X029190Y019023D02*
X029190Y018633D01*
X029010Y018633D01*
X029010Y019023D01*
X029190Y019023D01*
X028880Y019023D02*
X028880Y018633D01*
X028700Y018633D01*
X028700Y019023D01*
X028880Y019023D01*
X028570Y019023D02*
X028570Y018633D01*
X028390Y018633D01*
X028390Y019023D01*
X028570Y019023D01*
X028250Y019023D02*
X028250Y018633D01*
X028070Y018633D01*
X028070Y019023D01*
X028250Y019023D01*
X027940Y019023D02*
X027940Y018633D01*
X027760Y018633D01*
X027760Y019023D01*
X027940Y019023D01*
X027620Y019023D02*
X027620Y018633D01*
X027440Y018633D01*
X027440Y019023D01*
X027620Y019023D01*
X027310Y019023D02*
X027310Y018633D01*
X027130Y018633D01*
X027130Y019023D01*
X027310Y019023D01*
X013580Y033568D02*
X013582Y033618D01*
X013588Y033668D01*
X013598Y033717D01*
X013612Y033765D01*
X013629Y033812D01*
X013650Y033857D01*
X013675Y033901D01*
X013703Y033942D01*
X013735Y033981D01*
X013769Y034018D01*
X013806Y034052D01*
X013846Y034082D01*
X013888Y034109D01*
X013932Y034133D01*
X013978Y034154D01*
X014025Y034170D01*
X014073Y034183D01*
X014123Y034192D01*
X014172Y034197D01*
X014223Y034198D01*
X014273Y034195D01*
X014322Y034188D01*
X014371Y034177D01*
X014419Y034162D01*
X014465Y034144D01*
X014510Y034122D01*
X014553Y034096D01*
X014594Y034067D01*
X014633Y034035D01*
X014669Y034000D01*
X014701Y033962D01*
X014731Y033922D01*
X014758Y033879D01*
X014781Y033835D01*
X014800Y033789D01*
X014816Y033741D01*
X014828Y033692D01*
X014836Y033643D01*
X014840Y033593D01*
X014840Y033543D01*
X014836Y033493D01*
X014828Y033444D01*
X014816Y033395D01*
X014800Y033347D01*
X014781Y033301D01*
X014758Y033257D01*
X014731Y033214D01*
X014701Y033174D01*
X014669Y033136D01*
X014633Y033101D01*
X014594Y033069D01*
X014553Y033040D01*
X014510Y033014D01*
X014465Y032992D01*
X014419Y032974D01*
X014371Y032959D01*
X014322Y032948D01*
X014273Y032941D01*
X014223Y032938D01*
X014172Y032939D01*
X014123Y032944D01*
X014073Y032953D01*
X014025Y032966D01*
X013978Y032982D01*
X013932Y033003D01*
X013888Y033027D01*
X013846Y033054D01*
X013806Y033084D01*
X013769Y033118D01*
X013735Y033155D01*
X013703Y033194D01*
X013675Y033235D01*
X013650Y033279D01*
X013629Y033324D01*
X013612Y033371D01*
X013598Y033419D01*
X013588Y033468D01*
X013582Y033518D01*
X013580Y033568D01*
X061580Y033568D02*
X061582Y033618D01*
X061588Y033668D01*
X061598Y033717D01*
X061612Y033765D01*
X061629Y033812D01*
X061650Y033857D01*
X061675Y033901D01*
X061703Y033942D01*
X061735Y033981D01*
X061769Y034018D01*
X061806Y034052D01*
X061846Y034082D01*
X061888Y034109D01*
X061932Y034133D01*
X061978Y034154D01*
X062025Y034170D01*
X062073Y034183D01*
X062123Y034192D01*
X062172Y034197D01*
X062223Y034198D01*
X062273Y034195D01*
X062322Y034188D01*
X062371Y034177D01*
X062419Y034162D01*
X062465Y034144D01*
X062510Y034122D01*
X062553Y034096D01*
X062594Y034067D01*
X062633Y034035D01*
X062669Y034000D01*
X062701Y033962D01*
X062731Y033922D01*
X062758Y033879D01*
X062781Y033835D01*
X062800Y033789D01*
X062816Y033741D01*
X062828Y033692D01*
X062836Y033643D01*
X062840Y033593D01*
X062840Y033543D01*
X062836Y033493D01*
X062828Y033444D01*
X062816Y033395D01*
X062800Y033347D01*
X062781Y033301D01*
X062758Y033257D01*
X062731Y033214D01*
X062701Y033174D01*
X062669Y033136D01*
X062633Y033101D01*
X062594Y033069D01*
X062553Y033040D01*
X062510Y033014D01*
X062465Y032992D01*
X062419Y032974D01*
X062371Y032959D01*
X062322Y032948D01*
X062273Y032941D01*
X062223Y032938D01*
X062172Y032939D01*
X062123Y032944D01*
X062073Y032953D01*
X062025Y032966D01*
X061978Y032982D01*
X061932Y033003D01*
X061888Y033027D01*
X061846Y033054D01*
X061806Y033084D01*
X061769Y033118D01*
X061735Y033155D01*
X061703Y033194D01*
X061675Y033235D01*
X061650Y033279D01*
X061629Y033324D01*
X061612Y033371D01*
X061598Y033419D01*
X061588Y033468D01*
X061582Y033518D01*
X061580Y033568D01*
X061580Y005568D02*
X061582Y005618D01*
X061588Y005668D01*
X061598Y005717D01*
X061612Y005765D01*
X061629Y005812D01*
X061650Y005857D01*
X061675Y005901D01*
X061703Y005942D01*
X061735Y005981D01*
X061769Y006018D01*
X061806Y006052D01*
X061846Y006082D01*
X061888Y006109D01*
X061932Y006133D01*
X061978Y006154D01*
X062025Y006170D01*
X062073Y006183D01*
X062123Y006192D01*
X062172Y006197D01*
X062223Y006198D01*
X062273Y006195D01*
X062322Y006188D01*
X062371Y006177D01*
X062419Y006162D01*
X062465Y006144D01*
X062510Y006122D01*
X062553Y006096D01*
X062594Y006067D01*
X062633Y006035D01*
X062669Y006000D01*
X062701Y005962D01*
X062731Y005922D01*
X062758Y005879D01*
X062781Y005835D01*
X062800Y005789D01*
X062816Y005741D01*
X062828Y005692D01*
X062836Y005643D01*
X062840Y005593D01*
X062840Y005543D01*
X062836Y005493D01*
X062828Y005444D01*
X062816Y005395D01*
X062800Y005347D01*
X062781Y005301D01*
X062758Y005257D01*
X062731Y005214D01*
X062701Y005174D01*
X062669Y005136D01*
X062633Y005101D01*
X062594Y005069D01*
X062553Y005040D01*
X062510Y005014D01*
X062465Y004992D01*
X062419Y004974D01*
X062371Y004959D01*
X062322Y004948D01*
X062273Y004941D01*
X062223Y004938D01*
X062172Y004939D01*
X062123Y004944D01*
X062073Y004953D01*
X062025Y004966D01*
X061978Y004982D01*
X061932Y005003D01*
X061888Y005027D01*
X061846Y005054D01*
X061806Y005084D01*
X061769Y005118D01*
X061735Y005155D01*
X061703Y005194D01*
X061675Y005235D01*
X061650Y005279D01*
X061629Y005324D01*
X061612Y005371D01*
X061598Y005419D01*
X061588Y005468D01*
X061582Y005518D01*
X061580Y005568D01*
D11*
X055800Y006083D02*
X055800Y006143D01*
X055769Y006173D01*
X055800Y006237D02*
X055800Y006358D01*
X055800Y006298D02*
X055619Y006298D01*
X055679Y006237D01*
X055649Y006173D02*
X055619Y006143D01*
X055619Y006083D01*
X055649Y006053D01*
X055769Y006053D01*
X055800Y006083D01*
X055800Y006422D02*
X055679Y006542D01*
X055649Y006542D01*
X055619Y006512D01*
X055619Y006452D01*
X055649Y006422D01*
X055800Y006422D02*
X055800Y006542D01*
X054633Y006408D02*
X054573Y006378D01*
X054513Y006318D01*
X054603Y006318D01*
X054633Y006288D01*
X054633Y006258D01*
X054603Y006228D01*
X054543Y006228D01*
X054513Y006258D01*
X054513Y006318D01*
X054449Y006348D02*
X054329Y006228D01*
X054449Y006228D01*
X054449Y006348D02*
X054449Y006378D01*
X054419Y006408D01*
X054359Y006408D01*
X054329Y006378D01*
X054265Y006378D02*
X054265Y006318D01*
X054235Y006288D01*
X054145Y006288D01*
X054205Y006288D02*
X054265Y006228D01*
X054145Y006228D02*
X054145Y006408D01*
X054235Y006408D01*
X054265Y006378D01*
X052558Y006343D02*
X052438Y006343D01*
X052528Y006433D01*
X052528Y006253D01*
X052374Y006253D02*
X052254Y006253D01*
X052374Y006373D01*
X052374Y006403D01*
X052344Y006433D01*
X052284Y006433D01*
X052254Y006403D01*
X052190Y006403D02*
X052190Y006343D01*
X052160Y006313D01*
X052070Y006313D01*
X052130Y006313D02*
X052190Y006253D01*
X052070Y006253D02*
X052070Y006433D01*
X052160Y006433D01*
X052190Y006403D01*
X051233Y006558D02*
X051203Y006528D01*
X051143Y006528D01*
X051113Y006558D01*
X051233Y006678D01*
X051233Y006558D01*
X051113Y006558D02*
X051113Y006678D01*
X051143Y006708D01*
X051203Y006708D01*
X051233Y006678D01*
X051049Y006678D02*
X051019Y006708D01*
X050959Y006708D01*
X050929Y006678D01*
X050865Y006678D02*
X050835Y006708D01*
X050745Y006708D01*
X050745Y006528D01*
X050835Y006528D01*
X050865Y006558D01*
X050865Y006678D01*
X050929Y006528D02*
X051049Y006648D01*
X051049Y006678D01*
X051049Y006528D02*
X050929Y006528D01*
X047675Y007858D02*
X047675Y007918D01*
X047644Y007948D01*
X047644Y008012D02*
X047675Y008042D01*
X047675Y008103D01*
X047644Y008133D01*
X047614Y008133D01*
X047584Y008103D01*
X047584Y008073D01*
X047584Y008103D02*
X047554Y008133D01*
X047524Y008133D01*
X047494Y008103D01*
X047494Y008042D01*
X047524Y008012D01*
X047524Y007948D02*
X047494Y007918D01*
X047494Y007858D01*
X047524Y007828D01*
X047644Y007828D01*
X047675Y007858D01*
X047675Y008197D02*
X047675Y008317D01*
X047675Y008257D02*
X047494Y008257D01*
X047554Y008197D01*
X046455Y009183D02*
X046455Y009303D01*
X046425Y009333D01*
X046365Y009333D01*
X046335Y009303D01*
X046335Y009273D01*
X046365Y009243D01*
X046455Y009243D01*
X046455Y009183D02*
X046425Y009153D01*
X046365Y009153D01*
X046335Y009183D01*
X046271Y009153D02*
X046151Y009153D01*
X046211Y009153D02*
X046211Y009333D01*
X046151Y009273D01*
X046087Y009303D02*
X046057Y009333D01*
X045997Y009333D01*
X045967Y009303D01*
X045967Y009183D01*
X045997Y009153D01*
X046057Y009153D01*
X046087Y009183D01*
X045904Y009153D02*
X045844Y009153D01*
X045874Y009153D02*
X045874Y009333D01*
X045844Y009333D02*
X045904Y009333D01*
X044135Y007640D02*
X044135Y007453D01*
X044135Y007593D02*
X043948Y007593D01*
X043948Y007640D02*
X043948Y007453D01*
X043859Y007453D02*
X043765Y007547D01*
X043812Y007547D02*
X043672Y007547D01*
X043672Y007453D02*
X043672Y007734D01*
X043812Y007734D01*
X043859Y007687D01*
X043859Y007593D01*
X043812Y007547D01*
X043948Y007640D02*
X044042Y007734D01*
X044135Y007640D01*
X043525Y006987D02*
X043344Y006987D01*
X043434Y006897D01*
X043434Y007017D01*
X043525Y006833D02*
X043525Y006712D01*
X043525Y006773D02*
X043344Y006773D01*
X043404Y006712D01*
X043374Y006648D02*
X043434Y006648D01*
X043464Y006618D01*
X043464Y006528D01*
X043464Y006588D02*
X043525Y006648D01*
X043525Y006528D02*
X043344Y006528D01*
X043344Y006618D01*
X043374Y006648D01*
X043344Y006042D02*
X043344Y005922D01*
X043434Y005922D01*
X043404Y005982D01*
X043404Y006012D01*
X043434Y006042D01*
X043494Y006042D01*
X043525Y006012D01*
X043525Y005952D01*
X043494Y005922D01*
X043525Y005858D02*
X043525Y005737D01*
X043525Y005798D02*
X043344Y005798D01*
X043404Y005737D01*
X043374Y005673D02*
X043434Y005673D01*
X043464Y005643D01*
X043464Y005553D01*
X043464Y005613D02*
X043525Y005673D01*
X043525Y005553D02*
X043344Y005553D01*
X043344Y005643D01*
X043374Y005673D01*
X048920Y009878D02*
X048980Y009878D01*
X048950Y009878D02*
X048950Y010058D01*
X048920Y010058D02*
X048980Y010058D01*
X049042Y010028D02*
X049042Y009908D01*
X049072Y009878D01*
X049132Y009878D01*
X049162Y009908D01*
X049226Y009908D02*
X049256Y009878D01*
X049317Y009878D01*
X049347Y009908D01*
X049347Y010028D01*
X049317Y010058D01*
X049256Y010058D01*
X049226Y010028D01*
X049226Y009998D01*
X049256Y009968D01*
X049347Y009968D01*
X049162Y010028D02*
X049132Y010058D01*
X049072Y010058D01*
X049042Y010028D01*
X048669Y010928D02*
X048700Y010958D01*
X048700Y011018D01*
X048669Y011048D01*
X048700Y011112D02*
X048579Y011233D01*
X048549Y011233D01*
X048519Y011203D01*
X048519Y011142D01*
X048549Y011112D01*
X048549Y011048D02*
X048519Y011018D01*
X048519Y010958D01*
X048549Y010928D01*
X048669Y010928D01*
X048700Y011112D02*
X048700Y011233D01*
X048700Y011297D02*
X048700Y011417D01*
X048700Y011357D02*
X048519Y011357D01*
X048579Y011297D01*
X050720Y010583D02*
X050720Y010403D01*
X050810Y010403D01*
X050840Y010433D01*
X050840Y010553D01*
X050810Y010583D01*
X050720Y010583D01*
X050904Y010523D02*
X050964Y010583D01*
X050964Y010403D01*
X050904Y010403D02*
X051024Y010403D01*
X051088Y010433D02*
X051118Y010403D01*
X051178Y010403D01*
X051208Y010433D01*
X051208Y010463D01*
X051178Y010493D01*
X051088Y010493D01*
X051088Y010433D01*
X051088Y010493D02*
X051148Y010553D01*
X051208Y010583D01*
X051193Y010083D02*
X051253Y010083D01*
X051283Y010053D01*
X051283Y010023D01*
X051253Y009993D01*
X051283Y009963D01*
X051283Y009933D01*
X051253Y009903D01*
X051193Y009903D01*
X051163Y009933D01*
X051099Y009903D02*
X050979Y009903D01*
X051099Y010023D01*
X051099Y010053D01*
X051069Y010083D01*
X051009Y010083D01*
X050979Y010053D01*
X050915Y010053D02*
X050915Y009993D01*
X050885Y009963D01*
X050795Y009963D01*
X050855Y009963D02*
X050915Y009903D01*
X050795Y009903D02*
X050795Y010083D01*
X050885Y010083D01*
X050915Y010053D01*
X051163Y010053D02*
X051193Y010083D01*
X051223Y009993D02*
X051253Y009993D01*
X052142Y009938D02*
X052232Y009938D01*
X052262Y009968D01*
X052262Y010028D01*
X052232Y010058D01*
X052142Y010058D01*
X052142Y009878D01*
X052202Y009938D02*
X052262Y009878D01*
X052326Y009878D02*
X052446Y009998D01*
X052446Y010028D01*
X052416Y010058D01*
X052356Y010058D01*
X052326Y010028D01*
X052326Y009878D02*
X052446Y009878D01*
X052510Y009878D02*
X052630Y009878D01*
X052570Y009878D02*
X052570Y010058D01*
X052510Y009998D01*
X053220Y010008D02*
X053220Y009828D01*
X053340Y009828D01*
X053404Y009828D02*
X053524Y009828D01*
X053588Y009828D02*
X053678Y009828D01*
X053708Y009858D01*
X053708Y009978D01*
X053678Y010008D01*
X053588Y010008D01*
X053588Y009828D01*
X053464Y009918D02*
X053404Y009918D01*
X053404Y010008D02*
X053404Y009828D01*
X053404Y010008D02*
X053524Y010008D01*
X053772Y010008D02*
X053772Y009918D01*
X053832Y009948D01*
X053862Y009948D01*
X053892Y009918D01*
X053892Y009858D01*
X053862Y009828D01*
X053802Y009828D01*
X053772Y009858D01*
X053772Y010008D02*
X053892Y010008D01*
X054270Y009104D02*
X054456Y009104D01*
X054363Y009104D02*
X054363Y008823D01*
X054546Y008963D02*
X054686Y009104D01*
X054686Y008823D01*
X054733Y008963D02*
X054546Y008963D01*
X055906Y010288D02*
X055996Y010288D01*
X056027Y010318D01*
X056027Y010438D01*
X055996Y010468D01*
X055906Y010468D01*
X055906Y010288D01*
X056091Y010288D02*
X056211Y010408D01*
X056211Y010438D01*
X056181Y010468D01*
X056121Y010468D01*
X056091Y010438D01*
X056091Y010288D02*
X056211Y010288D01*
X056275Y010288D02*
X056395Y010288D01*
X056335Y010288D02*
X056335Y010468D01*
X056275Y010408D01*
X057055Y011694D02*
X057145Y011694D01*
X057175Y011724D01*
X057175Y011844D01*
X057145Y011874D01*
X057055Y011874D01*
X057055Y011694D01*
X057239Y011694D02*
X057359Y011694D01*
X057299Y011694D02*
X057299Y011874D01*
X057239Y011814D01*
X057423Y011874D02*
X057544Y011874D01*
X057544Y011844D01*
X057423Y011724D01*
X057423Y011694D01*
X059205Y011173D02*
X059205Y011053D01*
X059235Y011023D01*
X059295Y011023D01*
X059325Y011053D01*
X059389Y011023D02*
X059509Y011023D01*
X059449Y011023D02*
X059449Y011203D01*
X059389Y011143D01*
X059325Y011173D02*
X059295Y011203D01*
X059235Y011203D01*
X059205Y011173D01*
X059573Y011113D02*
X059693Y011113D01*
X059663Y011023D02*
X059663Y011203D01*
X059573Y011113D01*
X061595Y011100D02*
X061641Y011053D01*
X061735Y011053D01*
X061781Y011100D01*
X061595Y011100D02*
X061595Y011287D01*
X061641Y011334D01*
X061735Y011334D01*
X061781Y011287D01*
X061735Y011553D02*
X061595Y011553D01*
X061595Y011834D01*
X061735Y011834D01*
X061781Y011787D01*
X061781Y011740D01*
X061735Y011693D01*
X061595Y011693D01*
X061735Y011693D02*
X061781Y011647D01*
X061781Y011600D01*
X061735Y011553D01*
X061781Y012053D02*
X061781Y012240D01*
X061688Y012334D01*
X061595Y012240D01*
X061595Y012053D01*
X061595Y012193D02*
X061781Y012193D01*
X061758Y012553D02*
X061571Y012553D01*
X061664Y012553D02*
X061664Y012834D01*
X061571Y012740D01*
X061481Y012693D02*
X061295Y012693D01*
X061388Y012600D02*
X061388Y012787D01*
X061388Y013075D02*
X061388Y013262D01*
X061295Y013168D02*
X061481Y013168D01*
X061571Y013215D02*
X061664Y013309D01*
X061664Y013028D01*
X061571Y013028D02*
X061758Y013028D01*
X061847Y013028D02*
X062034Y013215D01*
X062034Y013262D01*
X061987Y013309D01*
X061894Y013309D01*
X061847Y013262D01*
X061847Y013028D02*
X062034Y013028D01*
X062123Y013122D02*
X062123Y013309D01*
X062310Y013309D02*
X062310Y013122D01*
X062217Y013028D01*
X062123Y013122D01*
X062123Y012834D02*
X062123Y012647D01*
X062217Y012553D01*
X062310Y012647D01*
X062310Y012834D01*
X062034Y012787D02*
X061987Y012834D01*
X061894Y012834D01*
X061847Y012787D01*
X062034Y012787D02*
X062034Y012740D01*
X061847Y012553D01*
X062034Y012553D01*
X061735Y010859D02*
X061595Y010859D01*
X061595Y010578D01*
X061735Y010578D01*
X061781Y010625D01*
X061781Y010812D01*
X061735Y010859D01*
X058564Y013094D02*
X058564Y013274D01*
X058473Y013184D01*
X058594Y013184D01*
X058409Y013094D02*
X058289Y013094D01*
X058349Y013094D02*
X058349Y013274D01*
X058289Y013214D01*
X058225Y013244D02*
X058225Y013124D01*
X058195Y013094D01*
X058105Y013094D01*
X058105Y013274D01*
X058195Y013274D01*
X058225Y013244D01*
X059181Y014463D02*
X059271Y014463D01*
X059302Y014493D01*
X059302Y014613D01*
X059271Y014643D01*
X059181Y014643D01*
X059181Y014463D01*
X059366Y014463D02*
X059486Y014463D01*
X059426Y014463D02*
X059426Y014643D01*
X059366Y014583D01*
X059550Y014613D02*
X059550Y014493D01*
X059670Y014613D01*
X059670Y014493D01*
X059640Y014463D01*
X059580Y014463D01*
X059550Y014493D01*
X059550Y014613D02*
X059580Y014643D01*
X059640Y014643D01*
X059670Y014613D01*
X056370Y016193D02*
X056370Y016313D01*
X056340Y016343D01*
X056280Y016343D01*
X056250Y016313D01*
X056250Y016283D01*
X056280Y016253D01*
X056370Y016253D01*
X056370Y016193D02*
X056340Y016163D01*
X056280Y016163D01*
X056250Y016193D01*
X056186Y016163D02*
X056066Y016163D01*
X056126Y016163D02*
X056126Y016343D01*
X056066Y016283D01*
X056002Y016313D02*
X056002Y016193D01*
X055971Y016163D01*
X055881Y016163D01*
X055881Y016343D01*
X055971Y016343D01*
X056002Y016313D01*
X055275Y015283D02*
X055305Y015253D01*
X055305Y015223D01*
X055275Y015193D01*
X055305Y015163D01*
X055305Y015133D01*
X055275Y015103D01*
X055215Y015103D01*
X055185Y015133D01*
X055121Y015133D02*
X055091Y015103D01*
X055031Y015103D01*
X055001Y015133D01*
X055001Y015253D01*
X055031Y015283D01*
X055091Y015283D01*
X055121Y015253D01*
X055185Y015253D02*
X055215Y015283D01*
X055275Y015283D01*
X055275Y015193D02*
X055245Y015193D01*
X054283Y015908D02*
X054253Y015878D01*
X054193Y015878D01*
X054163Y015908D01*
X054163Y015968D02*
X054223Y015998D01*
X054253Y015998D01*
X054283Y015968D01*
X054283Y015908D01*
X054163Y015968D02*
X054163Y016058D01*
X054283Y016058D01*
X054099Y016028D02*
X054069Y016058D01*
X054009Y016058D01*
X053979Y016028D01*
X053915Y016028D02*
X053915Y015968D01*
X053885Y015938D01*
X053795Y015938D01*
X053855Y015938D02*
X053915Y015878D01*
X053979Y015878D02*
X054099Y015998D01*
X054099Y016028D01*
X054099Y015878D02*
X053979Y015878D01*
X053915Y016028D02*
X053885Y016058D01*
X053795Y016058D01*
X053795Y015878D01*
X052358Y015828D02*
X052238Y015828D01*
X052298Y015828D02*
X052298Y016008D01*
X052238Y015948D01*
X052174Y015828D02*
X052054Y015828D01*
X052114Y015828D02*
X052114Y016008D01*
X052054Y015948D01*
X051990Y015918D02*
X051960Y015888D01*
X051870Y015888D01*
X051930Y015888D02*
X051990Y015828D01*
X051990Y015918D02*
X051990Y015978D01*
X051960Y016008D01*
X051870Y016008D01*
X051870Y015828D01*
X051183Y016153D02*
X051063Y016153D01*
X051183Y016273D01*
X051183Y016303D01*
X051153Y016333D01*
X051093Y016333D01*
X051063Y016303D01*
X050939Y016333D02*
X050939Y016153D01*
X050879Y016153D02*
X050999Y016153D01*
X050879Y016273D02*
X050939Y016333D01*
X050815Y016303D02*
X050785Y016333D01*
X050695Y016333D01*
X050695Y016153D01*
X050785Y016153D01*
X050815Y016183D01*
X050815Y016303D01*
X048675Y015212D02*
X048675Y015152D01*
X048644Y015122D01*
X048675Y015058D02*
X048675Y014937D01*
X048554Y015058D01*
X048524Y015058D01*
X048494Y015028D01*
X048494Y014967D01*
X048524Y014937D01*
X048524Y014873D02*
X048494Y014843D01*
X048494Y014783D01*
X048524Y014753D01*
X048644Y014753D01*
X048675Y014783D01*
X048675Y014843D01*
X048644Y014873D01*
X048524Y015122D02*
X048494Y015152D01*
X048494Y015212D01*
X048524Y015242D01*
X048554Y015242D01*
X048584Y015212D01*
X048614Y015242D01*
X048644Y015242D01*
X048675Y015212D01*
X048584Y015212D02*
X048584Y015182D01*
X048895Y013983D02*
X048955Y013983D01*
X048925Y013983D02*
X048925Y013803D01*
X048895Y013803D02*
X048955Y013803D01*
X049017Y013833D02*
X049047Y013803D01*
X049107Y013803D01*
X049137Y013833D01*
X049201Y013833D02*
X049201Y013863D01*
X049231Y013893D01*
X049292Y013893D01*
X049322Y013863D01*
X049322Y013833D01*
X049292Y013803D01*
X049231Y013803D01*
X049201Y013833D01*
X049231Y013893D02*
X049201Y013923D01*
X049201Y013953D01*
X049231Y013983D01*
X049292Y013983D01*
X049322Y013953D01*
X049322Y013923D01*
X049292Y013893D01*
X049137Y013953D02*
X049107Y013983D01*
X049047Y013983D01*
X049017Y013953D01*
X049017Y013833D01*
X050820Y013803D02*
X050820Y013983D01*
X050910Y013983D01*
X050940Y013953D01*
X050940Y013893D01*
X050910Y013863D01*
X050820Y013863D01*
X050880Y013863D02*
X050940Y013803D01*
X051004Y013803D02*
X051124Y013923D01*
X051124Y013953D01*
X051094Y013983D01*
X051034Y013983D01*
X051004Y013953D01*
X051004Y013803D02*
X051124Y013803D01*
X051188Y013833D02*
X051308Y013953D01*
X051308Y013833D01*
X051278Y013803D01*
X051218Y013803D01*
X051188Y013833D01*
X051188Y013953D01*
X051218Y013983D01*
X051278Y013983D01*
X051308Y013953D01*
X052167Y013958D02*
X052167Y013778D01*
X052167Y013838D02*
X052257Y013838D01*
X052287Y013868D01*
X052287Y013928D01*
X052257Y013958D01*
X052167Y013958D01*
X052227Y013838D02*
X052287Y013778D01*
X052351Y013778D02*
X052471Y013778D01*
X052411Y013778D02*
X052411Y013958D01*
X052351Y013898D01*
X052535Y013958D02*
X052655Y013958D01*
X052655Y013928D01*
X052535Y013808D01*
X052535Y013778D01*
X053255Y013758D02*
X053375Y013758D01*
X053439Y013758D02*
X053559Y013758D01*
X053623Y013758D02*
X053713Y013758D01*
X053743Y013788D01*
X053743Y013908D01*
X053713Y013938D01*
X053623Y013938D01*
X053623Y013758D01*
X053499Y013848D02*
X053439Y013848D01*
X053439Y013938D02*
X053439Y013758D01*
X053439Y013938D02*
X053559Y013938D01*
X053807Y013848D02*
X053927Y013848D01*
X053897Y013758D02*
X053897Y013938D01*
X053807Y013848D01*
X053255Y013938D02*
X053255Y013758D01*
X054270Y013104D02*
X054456Y013104D01*
X054363Y013104D02*
X054363Y012823D01*
X054546Y012870D02*
X054592Y012823D01*
X054686Y012823D01*
X054733Y012870D01*
X054733Y012917D01*
X054686Y012963D01*
X054639Y012963D01*
X054686Y012963D02*
X054733Y013010D01*
X054733Y013057D01*
X054686Y013104D01*
X054592Y013104D01*
X054546Y013057D01*
X056931Y017538D02*
X057021Y017538D01*
X057052Y017568D01*
X057052Y017688D01*
X057021Y017718D01*
X056931Y017718D01*
X056931Y017538D01*
X057116Y017538D02*
X057236Y017538D01*
X057176Y017538D02*
X057176Y017718D01*
X057116Y017658D01*
X057300Y017628D02*
X057360Y017658D01*
X057390Y017658D01*
X057420Y017628D01*
X057420Y017568D01*
X057390Y017538D01*
X057330Y017538D01*
X057300Y017568D01*
X057300Y017628D02*
X057300Y017718D01*
X057420Y017718D01*
X058055Y018919D02*
X058145Y018919D01*
X058175Y018949D01*
X058175Y019069D01*
X058145Y019099D01*
X058055Y019099D01*
X058055Y018919D01*
X058239Y018919D02*
X058359Y018919D01*
X058299Y018919D02*
X058299Y019099D01*
X058239Y019039D01*
X058423Y019039D02*
X058484Y019099D01*
X058484Y018919D01*
X058544Y018919D02*
X058423Y018919D01*
X060445Y019778D02*
X060445Y020059D01*
X060538Y019965D01*
X060631Y020059D01*
X060631Y019778D01*
X060721Y019825D02*
X060767Y019778D01*
X060861Y019778D01*
X060908Y019825D01*
X060908Y020012D01*
X060861Y020059D01*
X060767Y020059D01*
X060721Y020012D01*
X060721Y019825D01*
X060997Y020059D02*
X061184Y020059D01*
X061090Y020059D02*
X061090Y019778D01*
X061273Y019825D02*
X061320Y019778D01*
X061413Y019778D01*
X061460Y019825D01*
X061460Y020012D01*
X061413Y020059D01*
X061320Y020059D01*
X061273Y020012D01*
X061273Y019825D01*
X061549Y019778D02*
X061549Y020059D01*
X061690Y020059D01*
X061736Y020012D01*
X061736Y019918D01*
X061690Y019872D01*
X061549Y019872D01*
X061643Y019872D02*
X061736Y019778D01*
X060858Y020203D02*
X060671Y020203D01*
X060858Y020390D01*
X060858Y020437D01*
X060811Y020484D01*
X060717Y020484D01*
X060671Y020437D01*
X060581Y020484D02*
X060395Y020203D01*
X060581Y020203D02*
X060395Y020484D01*
X059620Y020438D02*
X059620Y020408D01*
X059590Y020378D01*
X059620Y020348D01*
X059620Y020318D01*
X059590Y020288D01*
X059530Y020288D01*
X059500Y020318D01*
X059436Y020288D02*
X059316Y020288D01*
X059376Y020288D02*
X059376Y020468D01*
X059316Y020408D01*
X059252Y020438D02*
X059221Y020468D01*
X059131Y020468D01*
X059131Y020288D01*
X059221Y020288D01*
X059252Y020318D01*
X059252Y020438D01*
X059500Y020438D02*
X059530Y020468D01*
X059590Y020468D01*
X059620Y020438D01*
X059590Y020378D02*
X059560Y020378D01*
X054808Y018682D02*
X054761Y018729D01*
X054667Y018729D01*
X054621Y018682D01*
X054531Y018729D02*
X054345Y018729D01*
X054438Y018729D02*
X054438Y018448D01*
X054621Y018448D02*
X054808Y018635D01*
X054808Y018682D01*
X054808Y018448D02*
X054621Y018448D01*
X053692Y019453D02*
X053572Y019453D01*
X053692Y019573D01*
X053692Y019603D01*
X053662Y019633D01*
X053602Y019633D01*
X053572Y019603D01*
X053508Y019603D02*
X053478Y019633D01*
X053388Y019633D01*
X053388Y019453D01*
X053478Y019453D01*
X053508Y019483D01*
X053508Y019603D01*
X053324Y019633D02*
X053204Y019633D01*
X053204Y019453D01*
X053324Y019453D01*
X053264Y019543D02*
X053204Y019543D01*
X053140Y019453D02*
X053020Y019453D01*
X053020Y019633D01*
X052555Y019603D02*
X052525Y019633D01*
X052465Y019633D01*
X052435Y019603D01*
X052371Y019603D02*
X052371Y019543D01*
X052341Y019513D01*
X052251Y019513D01*
X052251Y019453D02*
X052251Y019633D01*
X052341Y019633D01*
X052371Y019603D01*
X052311Y019513D02*
X052371Y019453D01*
X052435Y019453D02*
X052555Y019573D01*
X052555Y019603D01*
X052555Y019453D02*
X052435Y019453D01*
X051099Y019533D02*
X051069Y019503D01*
X051009Y019503D01*
X050979Y019533D01*
X050915Y019503D02*
X050855Y019563D01*
X050885Y019563D02*
X050795Y019563D01*
X050795Y019503D02*
X050795Y019683D01*
X050885Y019683D01*
X050915Y019653D01*
X050915Y019593D01*
X050885Y019563D01*
X050979Y019653D02*
X051009Y019683D01*
X051069Y019683D01*
X051099Y019653D01*
X051099Y019623D01*
X051069Y019593D01*
X051099Y019563D01*
X051099Y019533D01*
X051069Y019593D02*
X051039Y019593D01*
X051068Y020003D02*
X051038Y020033D01*
X051038Y020063D01*
X051068Y020093D01*
X051128Y020093D01*
X051158Y020063D01*
X051158Y020033D01*
X051128Y020003D01*
X051068Y020003D01*
X051068Y020093D02*
X051038Y020123D01*
X051038Y020153D01*
X051068Y020183D01*
X051128Y020183D01*
X051158Y020153D01*
X051158Y020123D01*
X051128Y020093D01*
X050974Y020003D02*
X050854Y020003D01*
X050914Y020003D02*
X050914Y020183D01*
X050854Y020123D01*
X050790Y020153D02*
X050760Y020183D01*
X050670Y020183D01*
X050670Y020003D01*
X050760Y020003D01*
X050790Y020033D01*
X050790Y020153D01*
X049297Y020928D02*
X049176Y020808D01*
X049176Y020778D01*
X049112Y020808D02*
X049082Y020778D01*
X049022Y020778D01*
X048992Y020808D01*
X048992Y020928D01*
X049022Y020958D01*
X049082Y020958D01*
X049112Y020928D01*
X049176Y020958D02*
X049297Y020958D01*
X049297Y020928D01*
X048930Y020958D02*
X048870Y020958D01*
X048900Y020958D02*
X048900Y020778D01*
X048870Y020778D02*
X048930Y020778D01*
X048619Y021728D02*
X048650Y021758D01*
X048650Y021818D01*
X048619Y021848D01*
X048650Y021912D02*
X048650Y022033D01*
X048650Y021973D02*
X048469Y021973D01*
X048529Y021912D01*
X048499Y021848D02*
X048469Y021818D01*
X048469Y021758D01*
X048499Y021728D01*
X048619Y021728D01*
X048619Y022097D02*
X048650Y022127D01*
X048650Y022187D01*
X048619Y022217D01*
X048499Y022217D01*
X048469Y022187D01*
X048469Y022127D01*
X048499Y022097D01*
X048529Y022097D01*
X048559Y022127D01*
X048559Y022217D01*
X050795Y023353D02*
X050795Y023533D01*
X050885Y023533D01*
X050915Y023503D01*
X050915Y023443D01*
X050885Y023413D01*
X050795Y023413D01*
X050855Y023413D02*
X050915Y023353D01*
X050979Y023353D02*
X051099Y023353D01*
X051039Y023353D02*
X051039Y023533D01*
X050979Y023473D01*
X051163Y023443D02*
X051253Y023443D01*
X051283Y023413D01*
X051283Y023383D01*
X051253Y023353D01*
X051193Y023353D01*
X051163Y023383D01*
X051163Y023443D01*
X051223Y023503D01*
X051283Y023533D01*
X052295Y023483D02*
X052385Y023483D01*
X052415Y023453D01*
X052415Y023393D01*
X052385Y023363D01*
X052295Y023363D01*
X052355Y023363D02*
X052415Y023303D01*
X052479Y023303D02*
X052599Y023303D01*
X052539Y023303D02*
X052539Y023483D01*
X052479Y023423D01*
X052295Y023483D02*
X052295Y023303D01*
X053070Y023303D02*
X053190Y023303D01*
X053254Y023303D02*
X053374Y023303D01*
X053438Y023303D02*
X053528Y023303D01*
X053558Y023333D01*
X053558Y023453D01*
X053528Y023483D01*
X053438Y023483D01*
X053438Y023303D01*
X053314Y023393D02*
X053254Y023393D01*
X053254Y023483D02*
X053254Y023303D01*
X053254Y023483D02*
X053374Y023483D01*
X053622Y023453D02*
X053652Y023483D01*
X053712Y023483D01*
X053742Y023453D01*
X053742Y023423D01*
X053712Y023393D01*
X053742Y023363D01*
X053742Y023333D01*
X053712Y023303D01*
X053652Y023303D01*
X053622Y023333D01*
X053682Y023393D02*
X053712Y023393D01*
X053070Y023483D02*
X053070Y023303D01*
X054345Y022554D02*
X054531Y022554D01*
X054438Y022554D02*
X054438Y022273D01*
X054621Y022273D02*
X054808Y022273D01*
X054714Y022273D02*
X054714Y022554D01*
X054621Y022460D01*
X057870Y024833D02*
X057900Y024803D01*
X057960Y024803D01*
X057990Y024833D01*
X058054Y024893D02*
X058174Y024893D01*
X058144Y024803D02*
X058144Y024983D01*
X058054Y024893D01*
X057990Y024953D02*
X057960Y024983D01*
X057900Y024983D01*
X057870Y024953D01*
X057870Y024833D01*
X058850Y026022D02*
X058910Y026022D01*
X058940Y026052D01*
X059004Y026052D02*
X059004Y026022D01*
X059004Y026052D02*
X059124Y026172D01*
X059124Y026202D01*
X059004Y026202D01*
X058940Y026172D02*
X058910Y026202D01*
X058850Y026202D01*
X058820Y026172D01*
X058820Y026052D01*
X058850Y026022D01*
X056680Y028628D02*
X056560Y028628D01*
X056680Y028748D01*
X056680Y028778D01*
X056650Y028808D01*
X056590Y028808D01*
X056560Y028778D01*
X056496Y028778D02*
X056496Y028748D01*
X056466Y028718D01*
X056496Y028688D01*
X056496Y028658D01*
X056466Y028628D01*
X056406Y028628D01*
X056376Y028658D01*
X056312Y028628D02*
X056252Y028688D01*
X056282Y028688D02*
X056192Y028688D01*
X056192Y028628D02*
X056192Y028808D01*
X056282Y028808D01*
X056312Y028778D01*
X056312Y028718D01*
X056282Y028688D01*
X056376Y028778D02*
X056406Y028808D01*
X056466Y028808D01*
X056496Y028778D01*
X056466Y028718D02*
X056436Y028718D01*
X055576Y028658D02*
X055546Y028628D01*
X055486Y028628D01*
X055456Y028658D01*
X055576Y028778D01*
X055576Y028658D01*
X055456Y028658D02*
X055456Y028778D01*
X055486Y028808D01*
X055546Y028808D01*
X055576Y028778D01*
X055392Y028628D02*
X055272Y028628D01*
X055332Y028628D02*
X055332Y028808D01*
X055272Y028748D01*
X055208Y028778D02*
X055178Y028808D01*
X055088Y028808D01*
X055088Y028628D01*
X055178Y028628D01*
X055208Y028658D01*
X055208Y028778D01*
X055024Y028808D02*
X054904Y028808D01*
X054904Y028628D01*
X055024Y028628D01*
X054964Y028718D02*
X054904Y028718D01*
X054840Y028628D02*
X054720Y028628D01*
X054720Y028808D01*
X054458Y029778D02*
X054365Y029778D01*
X054318Y029825D01*
X054229Y029918D02*
X054182Y029872D01*
X054042Y029872D01*
X054042Y029778D02*
X054042Y030059D01*
X054182Y030059D01*
X054229Y030012D01*
X054229Y029918D01*
X054318Y030012D02*
X054365Y030059D01*
X054458Y030059D01*
X054505Y030012D01*
X054505Y029965D01*
X054458Y029918D01*
X054505Y029872D01*
X054505Y029825D01*
X054458Y029778D01*
X054458Y029918D02*
X054412Y029918D01*
X053953Y030059D02*
X053766Y030059D01*
X053859Y030059D02*
X053859Y029778D01*
X057520Y030034D02*
X057706Y030034D01*
X057796Y030034D02*
X057936Y030034D01*
X057983Y029987D01*
X057983Y029893D01*
X057936Y029847D01*
X057796Y029847D01*
X057796Y029753D02*
X057796Y030034D01*
X057613Y030034D02*
X057613Y029753D01*
X058072Y029753D02*
X058259Y029940D01*
X058259Y029987D01*
X058212Y030034D01*
X058119Y030034D01*
X058072Y029987D01*
X058072Y029753D02*
X058259Y029753D01*
X058112Y031953D02*
X058159Y032000D01*
X058159Y032187D01*
X058112Y032234D01*
X057972Y032234D01*
X057972Y031953D01*
X058112Y031953D01*
X057883Y031953D02*
X057883Y032234D01*
X057696Y032234D02*
X057883Y031953D01*
X057696Y031953D02*
X057696Y032234D01*
X057606Y032187D02*
X057560Y032234D01*
X057466Y032234D01*
X057420Y032187D01*
X057420Y032000D01*
X057466Y031953D01*
X057560Y031953D01*
X057606Y032000D01*
X057606Y032093D01*
X057513Y032093D01*
X056636Y032478D02*
X056543Y032572D01*
X056590Y032572D02*
X056449Y032572D01*
X056449Y032478D02*
X056449Y032759D01*
X056590Y032759D01*
X056636Y032712D01*
X056636Y032618D01*
X056590Y032572D01*
X056360Y032478D02*
X056173Y032478D01*
X056173Y032759D01*
X056360Y032759D01*
X056267Y032618D02*
X056173Y032618D01*
X056084Y032478D02*
X056084Y032759D01*
X056042Y032928D02*
X056136Y032928D01*
X056183Y032975D01*
X056183Y033022D01*
X056136Y033068D01*
X055996Y033068D01*
X055996Y032975D01*
X056042Y032928D01*
X055906Y032928D02*
X055720Y033209D01*
X055906Y033209D02*
X055720Y032928D01*
X055761Y032759D02*
X055667Y032759D01*
X055621Y032712D01*
X055621Y032525D01*
X055667Y032478D01*
X055761Y032478D01*
X055808Y032525D01*
X055808Y032712D01*
X055761Y032759D01*
X055897Y032759D02*
X055897Y032478D01*
X055990Y032572D01*
X056084Y032478D01*
X055531Y032618D02*
X055485Y032572D01*
X055345Y032572D01*
X055345Y032478D02*
X055345Y032759D01*
X055485Y032759D01*
X055531Y032712D01*
X055531Y032618D01*
X055996Y033068D02*
X056089Y033162D01*
X056183Y033209D01*
X054505Y032309D02*
X054505Y032122D01*
X054412Y032028D01*
X054318Y032122D01*
X054318Y032309D01*
X054229Y032262D02*
X054182Y032309D01*
X054089Y032309D01*
X054042Y032262D01*
X054229Y032262D02*
X054229Y032215D01*
X054042Y032028D01*
X054229Y032028D01*
X053953Y032028D02*
X053766Y032028D01*
X053859Y032028D02*
X053859Y032309D01*
X053766Y032215D01*
X052255Y031785D02*
X052135Y031665D01*
X052165Y031635D01*
X052225Y031635D01*
X052255Y031665D01*
X052255Y031785D01*
X052225Y031815D01*
X052165Y031815D01*
X052135Y031785D01*
X052135Y031665D01*
X052071Y031635D02*
X051951Y031635D01*
X052011Y031635D02*
X052011Y031815D01*
X051951Y031755D01*
X051887Y031785D02*
X051857Y031815D01*
X051797Y031815D01*
X051767Y031785D01*
X051767Y031665D01*
X051797Y031635D01*
X051857Y031635D01*
X051887Y031665D01*
X050095Y031113D02*
X050095Y030933D01*
X050035Y030933D02*
X050155Y030933D01*
X050035Y031053D02*
X050095Y031113D01*
X049971Y031083D02*
X049941Y031113D01*
X049881Y031113D01*
X049851Y031083D01*
X049851Y030963D01*
X049881Y030933D01*
X049941Y030933D01*
X049971Y030963D01*
X049788Y030933D02*
X049728Y030933D01*
X049758Y030933D02*
X049758Y031113D01*
X049728Y031113D02*
X049788Y031113D01*
X048105Y031635D02*
X047985Y031635D01*
X048045Y031635D02*
X048045Y031815D01*
X047985Y031755D01*
X047921Y031635D02*
X047801Y031635D01*
X047861Y031635D02*
X047861Y031815D01*
X047801Y031755D01*
X047737Y031785D02*
X047707Y031815D01*
X047647Y031815D01*
X047617Y031785D01*
X047617Y031665D01*
X047647Y031635D01*
X047707Y031635D01*
X047737Y031665D01*
X046525Y031564D02*
X046525Y031444D01*
X046525Y031504D02*
X046344Y031504D01*
X046404Y031444D01*
X046374Y031380D02*
X046344Y031350D01*
X046344Y031260D01*
X046525Y031260D01*
X046525Y031350D01*
X046494Y031380D01*
X046374Y031380D01*
X046344Y031196D02*
X046344Y031076D01*
X046525Y031076D01*
X046525Y031196D01*
X046434Y031136D02*
X046434Y031076D01*
X046525Y031012D02*
X046525Y030892D01*
X046344Y030892D01*
X046374Y030192D02*
X046344Y030162D01*
X046344Y030102D01*
X046374Y030072D01*
X046374Y030008D02*
X046344Y029978D01*
X046344Y029917D01*
X046374Y029887D01*
X046374Y029823D02*
X046434Y029823D01*
X046464Y029793D01*
X046464Y029703D01*
X046464Y029763D02*
X046525Y029823D01*
X046525Y029887D02*
X046404Y030008D01*
X046374Y030008D01*
X046525Y030008D02*
X046525Y029887D01*
X046374Y029823D02*
X046344Y029793D01*
X046344Y029703D01*
X046525Y029703D01*
X046525Y030072D02*
X046404Y030192D01*
X046374Y030192D01*
X046525Y030192D02*
X046525Y030072D01*
X047067Y028634D02*
X047067Y028493D01*
X047160Y028540D01*
X047207Y028540D01*
X047254Y028493D01*
X047254Y028400D01*
X047207Y028353D01*
X047114Y028353D01*
X047067Y028400D01*
X047067Y028634D02*
X047254Y028634D01*
X047343Y028634D02*
X047343Y028447D01*
X047437Y028353D01*
X047530Y028447D01*
X047530Y028634D01*
X047590Y027184D02*
X047497Y027090D01*
X047408Y027137D02*
X047408Y027043D01*
X047361Y026997D01*
X047221Y026997D01*
X047221Y026903D02*
X047221Y027184D01*
X047361Y027184D01*
X047408Y027137D01*
X047590Y027184D02*
X047590Y026903D01*
X047497Y026903D02*
X047684Y026903D01*
X047131Y027184D02*
X046945Y027184D01*
X047038Y027184D02*
X047038Y026903D01*
X041185Y024418D02*
X040998Y024418D01*
X041138Y024559D01*
X041138Y024278D01*
X040909Y024325D02*
X040862Y024278D01*
X040769Y024278D01*
X040722Y024325D01*
X040722Y024512D01*
X040769Y024559D01*
X040862Y024559D01*
X040909Y024512D01*
X040631Y024559D02*
X040538Y024559D01*
X040585Y024559D02*
X040585Y024278D01*
X040631Y024278D02*
X040538Y024278D01*
X037988Y025778D02*
X037868Y025658D01*
X037868Y025628D01*
X037804Y025628D02*
X037684Y025628D01*
X037804Y025748D01*
X037804Y025778D01*
X037774Y025808D01*
X037714Y025808D01*
X037684Y025778D01*
X037620Y025778D02*
X037590Y025808D01*
X037530Y025808D01*
X037500Y025778D01*
X037500Y025658D01*
X037530Y025628D01*
X037590Y025628D01*
X037620Y025658D01*
X037868Y025808D02*
X037988Y025808D01*
X037988Y025778D01*
X036315Y024972D02*
X036284Y025002D01*
X036164Y025002D01*
X036134Y024972D01*
X036134Y024912D01*
X036164Y024882D01*
X036194Y024882D01*
X036224Y024912D01*
X036224Y025002D01*
X036315Y024972D02*
X036315Y024912D01*
X036284Y024882D01*
X036315Y024818D02*
X036315Y024697D01*
X036194Y024818D01*
X036164Y024818D01*
X036134Y024788D01*
X036134Y024727D01*
X036164Y024697D01*
X036164Y024633D02*
X036224Y024633D01*
X036254Y024603D01*
X036254Y024513D01*
X036254Y024573D02*
X036315Y024633D01*
X036315Y024513D02*
X036134Y024513D01*
X036134Y024603D01*
X036164Y024633D01*
X035685Y024975D02*
X035685Y025022D01*
X035638Y025068D01*
X035498Y025068D01*
X035498Y024975D01*
X035545Y024928D01*
X035638Y024928D01*
X035685Y024975D01*
X035592Y025162D02*
X035498Y025068D01*
X035409Y024975D02*
X035362Y024928D01*
X035269Y024928D01*
X035222Y024975D01*
X035222Y025162D01*
X035269Y025209D01*
X035362Y025209D01*
X035409Y025162D01*
X035592Y025162D02*
X035685Y025209D01*
X036020Y025343D02*
X036020Y027343D01*
X037522Y027033D02*
X037612Y027033D01*
X037642Y027003D01*
X037642Y026943D01*
X037612Y026913D01*
X037522Y026913D01*
X037522Y026853D02*
X037522Y027033D01*
X037582Y026913D02*
X037642Y026853D01*
X037706Y026883D02*
X037736Y026853D01*
X037796Y026853D01*
X037826Y026883D01*
X037826Y026913D01*
X037796Y026943D01*
X037766Y026943D01*
X037796Y026943D02*
X037826Y026973D01*
X037826Y027003D01*
X037796Y027033D01*
X037736Y027033D01*
X037706Y027003D01*
X037890Y027003D02*
X037920Y027033D01*
X037980Y027033D01*
X038010Y027003D01*
X037890Y026883D01*
X037920Y026853D01*
X037980Y026853D01*
X038010Y026883D01*
X038010Y027003D01*
X037890Y027003D02*
X037890Y026883D01*
X039549Y028433D02*
X039579Y028403D01*
X039699Y028403D01*
X039730Y028433D01*
X039730Y028493D01*
X039699Y028523D01*
X039699Y028587D02*
X039730Y028617D01*
X039730Y028678D01*
X039699Y028708D01*
X039669Y028708D01*
X039639Y028678D01*
X039639Y028648D01*
X039639Y028678D02*
X039609Y028708D01*
X039579Y028708D01*
X039549Y028678D01*
X039549Y028617D01*
X039579Y028587D01*
X039579Y028523D02*
X039549Y028493D01*
X039549Y028433D01*
X039549Y028772D02*
X039549Y028892D01*
X039579Y028892D01*
X039699Y028772D01*
X039730Y028772D01*
X038385Y031253D02*
X038198Y031253D01*
X038385Y031440D01*
X038385Y031487D01*
X038338Y031534D01*
X038245Y031534D01*
X038198Y031487D01*
X038015Y031534D02*
X038015Y031253D01*
X037922Y031253D02*
X038109Y031253D01*
X037922Y031440D02*
X038015Y031534D01*
X037833Y031534D02*
X037646Y031253D01*
X037833Y031253D02*
X037646Y031534D01*
X037158Y031768D02*
X036971Y031768D01*
X037064Y031675D02*
X037064Y031861D01*
X037064Y031951D02*
X037018Y032044D01*
X037018Y032091D01*
X037064Y032138D01*
X037158Y032138D01*
X037205Y032091D01*
X037205Y031998D01*
X037158Y031951D01*
X037064Y031951D02*
X036924Y031951D01*
X036924Y032138D01*
X036924Y032227D02*
X037111Y032227D01*
X037205Y032320D01*
X037111Y032414D01*
X036924Y032414D01*
X036180Y032442D02*
X036133Y032489D01*
X035946Y032489D01*
X035899Y032442D01*
X035899Y032302D01*
X036180Y032302D01*
X036180Y032442D01*
X036180Y032213D02*
X035899Y032213D01*
X035899Y032026D02*
X036180Y032213D01*
X036180Y032026D02*
X035899Y032026D01*
X035946Y031936D02*
X035899Y031890D01*
X035899Y031796D01*
X035946Y031750D01*
X036133Y031750D01*
X036180Y031796D01*
X036180Y031890D01*
X036133Y031936D01*
X036039Y031936D01*
X036039Y031843D01*
X035155Y031863D02*
X035108Y031910D01*
X034921Y031910D01*
X034874Y031863D01*
X034874Y031723D01*
X035155Y031723D01*
X035155Y031863D01*
X035155Y032000D02*
X034968Y032000D01*
X034874Y032093D01*
X034968Y032186D01*
X035155Y032186D01*
X035014Y032186D02*
X035014Y032000D01*
X034874Y032276D02*
X034874Y032463D01*
X034874Y032369D02*
X035155Y032369D01*
X035155Y032552D02*
X034968Y032552D01*
X034874Y032645D01*
X034968Y032739D01*
X035155Y032739D01*
X035014Y032739D02*
X035014Y032552D01*
X035021Y033103D02*
X035208Y033103D01*
X035297Y033150D02*
X035344Y033103D01*
X035437Y033103D01*
X035484Y033150D01*
X035573Y033103D02*
X035713Y033103D01*
X035760Y033150D01*
X035760Y033337D01*
X035713Y033384D01*
X035573Y033384D01*
X035573Y033103D01*
X035484Y033337D02*
X035437Y033384D01*
X035344Y033384D01*
X035297Y033337D01*
X035297Y033150D01*
X035021Y033103D02*
X035021Y033384D01*
X034180Y032439D02*
X034039Y032299D01*
X034086Y032252D02*
X033899Y032439D01*
X033899Y032252D02*
X034180Y032252D01*
X034180Y032163D02*
X034180Y031976D01*
X033899Y031976D01*
X033946Y031886D02*
X033899Y031840D01*
X033899Y031746D01*
X033946Y031700D01*
X034133Y031700D01*
X034180Y031746D01*
X034180Y031840D01*
X034133Y031886D01*
X031750Y029808D02*
X031750Y029628D01*
X031690Y029628D02*
X031810Y029628D01*
X031690Y029748D02*
X031750Y029808D01*
X031626Y029778D02*
X031596Y029808D01*
X031506Y029808D01*
X031506Y029628D01*
X031596Y029628D01*
X031626Y029658D01*
X031626Y029778D01*
X032550Y028958D02*
X032640Y028958D01*
X032670Y028928D01*
X032670Y028868D01*
X032640Y028838D01*
X032550Y028838D01*
X032610Y028838D02*
X032670Y028778D01*
X032734Y028808D02*
X032764Y028778D01*
X032824Y028778D01*
X032854Y028808D01*
X032854Y028838D01*
X032824Y028868D01*
X032794Y028868D01*
X032824Y028868D02*
X032854Y028898D01*
X032854Y028928D01*
X032824Y028958D01*
X032764Y028958D01*
X032734Y028928D01*
X032918Y028928D02*
X032918Y028898D01*
X032948Y028868D01*
X033038Y028868D01*
X033038Y028808D02*
X033038Y028928D01*
X033008Y028958D01*
X032948Y028958D01*
X032918Y028928D01*
X032918Y028808D02*
X032948Y028778D01*
X033008Y028778D01*
X033038Y028808D01*
X032550Y028778D02*
X032550Y028958D01*
X028585Y028443D02*
X028398Y028443D01*
X028538Y028584D01*
X028538Y028303D01*
X028309Y028303D02*
X028122Y028303D01*
X028215Y028303D02*
X028215Y028584D01*
X028122Y028490D01*
X028033Y028537D02*
X027986Y028584D01*
X027893Y028584D01*
X027846Y028537D01*
X027846Y028350D01*
X027893Y028303D01*
X027986Y028303D01*
X028033Y028350D01*
X027755Y028303D02*
X027662Y028303D01*
X027708Y028303D02*
X027708Y028584D01*
X027662Y028584D02*
X027755Y028584D01*
X027421Y028490D02*
X027421Y028297D01*
X027421Y027821D01*
X027421Y027466D02*
X027421Y027321D01*
X027421Y026966D02*
X027421Y026821D01*
X027421Y026466D02*
X027421Y026321D01*
X027421Y025966D02*
X027421Y025821D01*
X027421Y025466D02*
X027421Y024990D01*
X027815Y024793D01*
X027421Y024990D02*
X027142Y024990D01*
X026787Y024990D02*
X026642Y024990D01*
X026287Y024990D02*
X026142Y024990D01*
X025787Y024990D02*
X025642Y024990D01*
X025287Y024990D02*
X025142Y024990D01*
X024787Y024990D02*
X024390Y024990D01*
X024272Y024793D01*
X024114Y024950D02*
X024311Y025069D01*
X024311Y025466D01*
X024311Y025821D02*
X024311Y025966D01*
X024311Y026321D02*
X024311Y026466D01*
X024311Y026821D02*
X024311Y026966D01*
X024311Y027321D02*
X024311Y027466D01*
X024311Y027821D02*
X024311Y028218D01*
X024114Y028336D01*
X024272Y028494D02*
X024390Y028297D01*
X024787Y028297D01*
X025142Y028297D02*
X025287Y028297D01*
X025642Y028297D02*
X025787Y028297D01*
X026142Y028297D02*
X026287Y028297D01*
X026642Y028297D02*
X026787Y028297D01*
X027142Y028297D02*
X027421Y028297D01*
X027811Y027907D01*
X027784Y029278D02*
X027904Y029278D01*
X027968Y029278D02*
X028058Y029278D01*
X028088Y029308D01*
X028088Y029428D01*
X028058Y029458D01*
X027968Y029458D01*
X027968Y029278D01*
X027844Y029368D02*
X027784Y029368D01*
X027784Y029458D02*
X027784Y029278D01*
X027720Y029278D02*
X027600Y029278D01*
X027600Y029458D01*
X027784Y029458D02*
X027904Y029458D01*
X028152Y029428D02*
X028152Y029398D01*
X028182Y029368D01*
X028242Y029368D01*
X028272Y029338D01*
X028272Y029308D01*
X028242Y029278D01*
X028182Y029278D01*
X028152Y029308D01*
X028152Y029338D01*
X028182Y029368D01*
X028242Y029368D02*
X028272Y029398D01*
X028272Y029428D01*
X028242Y029458D01*
X028182Y029458D01*
X028152Y029428D01*
X027035Y029433D02*
X026915Y029433D01*
X026915Y029343D01*
X026975Y029373D01*
X027005Y029373D01*
X027035Y029343D01*
X027035Y029283D01*
X027005Y029253D01*
X026945Y029253D01*
X026915Y029283D01*
X026851Y029343D02*
X026731Y029343D01*
X026821Y029433D01*
X026821Y029253D01*
X026667Y029253D02*
X026607Y029313D01*
X026637Y029313D02*
X026547Y029313D01*
X026547Y029253D02*
X026547Y029433D01*
X026637Y029433D01*
X026667Y029403D01*
X026667Y029343D01*
X026637Y029313D01*
X024390Y028297D02*
X024311Y028218D01*
X022360Y028983D02*
X022360Y029013D01*
X022330Y029043D01*
X022240Y029043D01*
X022240Y028983D01*
X022270Y028953D01*
X022330Y028953D01*
X022360Y028983D01*
X022300Y029103D02*
X022240Y029043D01*
X022300Y029103D02*
X022360Y029133D01*
X022176Y029103D02*
X022146Y029133D01*
X022086Y029133D01*
X022056Y029103D01*
X022056Y028983D01*
X022086Y028953D01*
X022146Y028953D01*
X022176Y028983D01*
X021729Y028983D02*
X021699Y028953D01*
X021639Y028953D01*
X021609Y028983D01*
X021609Y029013D01*
X021639Y029043D01*
X021699Y029043D01*
X021729Y029013D01*
X021729Y028983D01*
X021699Y029043D02*
X021729Y029073D01*
X021729Y029103D01*
X021699Y029133D01*
X021639Y029133D01*
X021609Y029103D01*
X021609Y029073D01*
X021639Y029043D01*
X021545Y029043D02*
X021515Y029013D01*
X021425Y029013D01*
X021485Y029013D02*
X021545Y028953D01*
X021545Y029043D02*
X021545Y029103D01*
X021515Y029133D01*
X021425Y029133D01*
X021425Y028953D01*
X020735Y028983D02*
X020705Y028953D01*
X020645Y028953D01*
X020615Y028983D01*
X020615Y029043D02*
X020675Y029073D01*
X020705Y029073D01*
X020735Y029043D01*
X020735Y028983D01*
X020615Y029043D02*
X020615Y029133D01*
X020735Y029133D01*
X020551Y029103D02*
X020521Y029133D01*
X020461Y029133D01*
X020431Y029103D01*
X020431Y028983D01*
X020461Y028953D01*
X020521Y028953D01*
X020551Y028983D01*
X020129Y029008D02*
X020129Y029128D01*
X020099Y029158D01*
X020039Y029158D01*
X020009Y029128D01*
X020009Y029098D01*
X020039Y029068D01*
X020129Y029068D01*
X020129Y029008D02*
X020099Y028978D01*
X020039Y028978D01*
X020009Y029008D01*
X019945Y028978D02*
X019885Y029038D01*
X019915Y029038D02*
X019825Y029038D01*
X019825Y028978D02*
X019825Y029158D01*
X019915Y029158D01*
X019945Y029128D01*
X019945Y029068D01*
X019915Y029038D01*
X019388Y028983D02*
X019358Y028953D01*
X019298Y028953D01*
X019268Y028983D01*
X019388Y029103D01*
X019388Y028983D01*
X019268Y028983D02*
X019268Y029103D01*
X019298Y029133D01*
X019358Y029133D01*
X019388Y029103D01*
X019204Y028953D02*
X019084Y028953D01*
X019144Y028953D02*
X019144Y029133D01*
X019084Y029073D01*
X019020Y029043D02*
X018990Y029013D01*
X018900Y029013D01*
X018960Y029013D02*
X019020Y028953D01*
X019020Y029043D02*
X019020Y029103D01*
X018990Y029133D01*
X018900Y029133D01*
X018900Y028953D01*
X018010Y029103D02*
X017823Y029103D01*
X017734Y029103D02*
X017547Y029384D01*
X017734Y029384D02*
X017547Y029103D01*
X017823Y029290D02*
X017917Y029384D01*
X017917Y029103D01*
X018247Y027733D02*
X018337Y027733D01*
X018367Y027703D01*
X018367Y027643D01*
X018337Y027613D01*
X018247Y027613D01*
X018247Y027553D02*
X018247Y027733D01*
X018307Y027613D02*
X018367Y027553D01*
X018431Y027553D02*
X018551Y027553D01*
X018491Y027553D02*
X018491Y027733D01*
X018431Y027673D01*
X018615Y027703D02*
X018645Y027733D01*
X018705Y027733D01*
X018735Y027703D01*
X018735Y027673D01*
X018705Y027643D01*
X018735Y027613D01*
X018735Y027583D01*
X018705Y027553D01*
X018645Y027553D01*
X018615Y027583D01*
X018675Y027643D02*
X018705Y027643D01*
X018902Y026433D02*
X018872Y026403D01*
X018872Y026283D01*
X018902Y026253D01*
X018962Y026253D01*
X018992Y026283D01*
X019056Y026253D02*
X019176Y026253D01*
X019116Y026253D02*
X019116Y026433D01*
X019056Y026373D01*
X018992Y026403D02*
X018962Y026433D01*
X018902Y026433D01*
X019240Y026403D02*
X019240Y026373D01*
X019270Y026343D01*
X019330Y026343D01*
X019360Y026313D01*
X019360Y026283D01*
X019330Y026253D01*
X019270Y026253D01*
X019240Y026283D01*
X019240Y026313D01*
X019270Y026343D01*
X019330Y026343D02*
X019360Y026373D01*
X019360Y026403D01*
X019330Y026433D01*
X019270Y026433D01*
X019240Y026403D01*
X017925Y026413D02*
X017738Y026413D01*
X017649Y026413D02*
X017462Y026413D01*
X017555Y026413D02*
X017555Y026694D01*
X017462Y026600D01*
X017373Y026647D02*
X017326Y026694D01*
X017233Y026694D01*
X017186Y026647D01*
X017186Y026460D01*
X017233Y026413D01*
X017326Y026413D01*
X017373Y026460D01*
X017095Y026413D02*
X017002Y026413D01*
X017048Y026413D02*
X017048Y026694D01*
X017002Y026694D02*
X017095Y026694D01*
X016573Y026503D02*
X016453Y026503D01*
X016543Y026593D01*
X016543Y026413D01*
X016389Y026443D02*
X016359Y026413D01*
X016299Y026413D01*
X016269Y026443D01*
X016205Y026413D02*
X016145Y026473D01*
X016175Y026473D02*
X016085Y026473D01*
X016085Y026413D02*
X016085Y026593D01*
X016175Y026593D01*
X016205Y026563D01*
X016205Y026503D01*
X016175Y026473D01*
X016269Y026563D02*
X016299Y026593D01*
X016359Y026593D01*
X016389Y026563D01*
X016389Y026533D01*
X016359Y026503D01*
X016389Y026473D01*
X016389Y026443D01*
X016359Y026503D02*
X016329Y026503D01*
X014759Y026870D02*
X014759Y027057D01*
X014712Y027104D01*
X014572Y027104D01*
X014572Y026823D01*
X014712Y026823D01*
X014759Y026870D01*
X014483Y026823D02*
X014483Y027104D01*
X014399Y027233D02*
X014399Y027514D01*
X014306Y027514D02*
X014493Y027514D01*
X014582Y027514D02*
X014769Y027233D01*
X014769Y027514D01*
X014772Y027633D02*
X014819Y027680D01*
X014819Y027867D01*
X014772Y027914D01*
X014632Y027914D01*
X014632Y027633D01*
X014772Y027633D01*
X014582Y027514D02*
X014582Y027233D01*
X014296Y027104D02*
X014483Y026823D01*
X014296Y026823D02*
X014296Y027104D01*
X014206Y027057D02*
X014160Y027104D01*
X014066Y027104D01*
X014020Y027057D01*
X014020Y026870D01*
X014066Y026823D01*
X014160Y026823D01*
X014206Y026870D01*
X014206Y026963D01*
X014113Y026963D01*
X014030Y027233D02*
X014030Y027514D01*
X014170Y027514D01*
X014216Y027467D01*
X014216Y027373D01*
X014170Y027327D01*
X014030Y027327D01*
X014123Y027327D02*
X014216Y027233D01*
X014266Y027633D02*
X014080Y027633D01*
X014080Y027914D01*
X014356Y027914D02*
X014356Y027633D01*
X014543Y027633D01*
X014449Y027773D02*
X014356Y027773D01*
X014356Y027914D02*
X014543Y027914D01*
X017738Y026600D02*
X017832Y026694D01*
X017832Y026413D01*
X016598Y025593D02*
X016478Y025593D01*
X016478Y025503D01*
X016538Y025533D01*
X016568Y025533D01*
X016598Y025503D01*
X016598Y025443D01*
X016568Y025413D01*
X016508Y025413D01*
X016478Y025443D01*
X016414Y025443D02*
X016384Y025413D01*
X016324Y025413D01*
X016294Y025443D01*
X016230Y025413D02*
X016170Y025473D01*
X016200Y025473D02*
X016110Y025473D01*
X016110Y025413D02*
X016110Y025593D01*
X016200Y025593D01*
X016230Y025563D01*
X016230Y025503D01*
X016200Y025473D01*
X016294Y025563D02*
X016324Y025593D01*
X016384Y025593D01*
X016414Y025563D01*
X016414Y025533D01*
X016384Y025503D01*
X016414Y025473D01*
X016414Y025443D01*
X016384Y025503D02*
X016354Y025503D01*
X016281Y024419D02*
X016328Y024372D01*
X016328Y024325D01*
X016281Y024278D01*
X016187Y024278D01*
X016141Y024325D01*
X016141Y024372D01*
X016187Y024419D01*
X016281Y024419D01*
X016281Y024278D02*
X016328Y024232D01*
X016328Y024185D01*
X016281Y024138D01*
X016187Y024138D01*
X016141Y024185D01*
X016141Y024232D01*
X016187Y024278D01*
X016051Y024138D02*
X015865Y024419D01*
X016051Y024419D02*
X015865Y024138D01*
X015855Y024009D02*
X015996Y024009D01*
X016042Y023962D01*
X016042Y023868D01*
X015996Y023822D01*
X015855Y023822D01*
X015855Y023728D02*
X015855Y024009D01*
X015949Y023822D02*
X016042Y023728D01*
X016132Y023728D02*
X016225Y023728D01*
X016178Y023728D02*
X016178Y024009D01*
X016132Y024009D02*
X016225Y024009D01*
X016316Y023962D02*
X016316Y023775D01*
X016363Y023728D01*
X016456Y023728D01*
X016503Y023775D01*
X016503Y023868D01*
X016409Y023868D01*
X016316Y023962D02*
X016363Y024009D01*
X016456Y024009D01*
X016503Y023962D01*
X016592Y024009D02*
X016592Y023728D01*
X016592Y023868D02*
X016779Y023868D01*
X016779Y023728D02*
X016779Y024009D01*
X016868Y024009D02*
X017055Y024009D01*
X016962Y024009D02*
X016962Y023728D01*
X017297Y023544D02*
X017390Y023544D01*
X017343Y023544D02*
X017343Y023263D01*
X017297Y023263D02*
X017390Y023263D01*
X017481Y023310D02*
X017528Y023263D01*
X017621Y023263D01*
X017668Y023310D01*
X017757Y023263D02*
X017944Y023263D01*
X017850Y023263D02*
X017850Y023544D01*
X017757Y023450D01*
X017668Y023497D02*
X017621Y023544D01*
X017528Y023544D01*
X017481Y023497D01*
X017481Y023310D01*
X018033Y023310D02*
X018080Y023263D01*
X018173Y023263D01*
X018220Y023310D01*
X018220Y023357D01*
X018173Y023403D01*
X018127Y023403D01*
X018173Y023403D02*
X018220Y023450D01*
X018220Y023497D01*
X018173Y023544D01*
X018080Y023544D01*
X018033Y023497D01*
X016598Y023468D02*
X016538Y023438D01*
X016478Y023378D01*
X016568Y023378D01*
X016598Y023348D01*
X016598Y023318D01*
X016568Y023288D01*
X016508Y023288D01*
X016478Y023318D01*
X016478Y023378D01*
X016414Y023348D02*
X016414Y023318D01*
X016384Y023288D01*
X016324Y023288D01*
X016294Y023318D01*
X016230Y023288D02*
X016170Y023348D01*
X016200Y023348D02*
X016110Y023348D01*
X016110Y023288D02*
X016110Y023468D01*
X016200Y023468D01*
X016230Y023438D01*
X016230Y023378D01*
X016200Y023348D01*
X016294Y023438D02*
X016324Y023468D01*
X016384Y023468D01*
X016414Y023438D01*
X016414Y023408D01*
X016384Y023378D01*
X016414Y023348D01*
X016384Y023378D02*
X016354Y023378D01*
X016359Y022468D02*
X016269Y022378D01*
X016389Y022378D01*
X016453Y022408D02*
X016513Y022468D01*
X016513Y022288D01*
X016453Y022288D02*
X016573Y022288D01*
X016359Y022288D02*
X016359Y022468D01*
X016205Y022438D02*
X016205Y022378D01*
X016175Y022348D01*
X016085Y022348D01*
X016145Y022348D02*
X016205Y022288D01*
X016085Y022288D02*
X016085Y022468D01*
X016175Y022468D01*
X016205Y022438D01*
X016215Y021429D02*
X016215Y021148D01*
X016122Y021148D02*
X016309Y021148D01*
X016398Y021195D02*
X016445Y021148D01*
X016538Y021148D01*
X016585Y021195D01*
X016585Y021382D01*
X016398Y021195D01*
X016398Y021382D01*
X016445Y021429D01*
X016538Y021429D01*
X016585Y021382D01*
X016215Y021429D02*
X016122Y021335D01*
X016033Y021429D02*
X015846Y021148D01*
X016033Y021148D02*
X015846Y021429D01*
X015860Y020949D02*
X015860Y020668D01*
X016046Y020668D01*
X016136Y020668D02*
X016323Y020668D01*
X016412Y020668D02*
X016412Y020949D01*
X016599Y020949D01*
X016688Y020949D02*
X016875Y020949D01*
X016782Y020949D02*
X016782Y020668D01*
X016505Y020808D02*
X016412Y020808D01*
X016323Y020949D02*
X016136Y020949D01*
X016136Y020668D01*
X016136Y020808D02*
X016229Y020808D01*
X017585Y021243D02*
X017615Y021213D01*
X017675Y021213D01*
X017705Y021243D01*
X017769Y021213D02*
X017889Y021213D01*
X017829Y021213D02*
X017829Y021393D01*
X017769Y021333D01*
X017705Y021363D02*
X017675Y021393D01*
X017615Y021393D01*
X017585Y021363D01*
X017585Y021243D01*
X017953Y021243D02*
X017953Y021213D01*
X017953Y021243D02*
X018073Y021363D01*
X018073Y021393D01*
X017953Y021393D01*
X019376Y019088D02*
X019466Y019088D01*
X019496Y019058D01*
X019496Y018998D01*
X019466Y018968D01*
X019376Y018968D01*
X019376Y018908D02*
X019376Y019088D01*
X019436Y018968D02*
X019496Y018908D01*
X019560Y018938D02*
X019590Y018908D01*
X019650Y018908D01*
X019680Y018938D01*
X019680Y018998D01*
X019650Y019028D01*
X019620Y019028D01*
X019560Y018998D01*
X019560Y019088D01*
X019680Y019088D01*
X020880Y018088D02*
X020970Y018088D01*
X021000Y018058D01*
X021000Y017998D01*
X020970Y017968D01*
X020880Y017968D01*
X020940Y017968D02*
X021000Y017908D01*
X021064Y017908D02*
X021064Y017938D01*
X021184Y018058D01*
X021184Y018088D01*
X021064Y018088D01*
X020880Y018088D02*
X020880Y017908D01*
X021809Y017898D02*
X021839Y017928D01*
X021899Y017928D01*
X021929Y017898D01*
X021929Y017808D01*
X021929Y017868D02*
X021990Y017928D01*
X021899Y017992D02*
X021899Y018113D01*
X021899Y018177D02*
X021899Y018297D01*
X021809Y018267D02*
X021899Y018177D01*
X021990Y018267D02*
X021809Y018267D01*
X021809Y018083D02*
X021899Y017992D01*
X021809Y018083D02*
X021990Y018083D01*
X021809Y017898D02*
X021809Y017808D01*
X021990Y017808D01*
X021864Y017172D02*
X021984Y017052D01*
X022015Y017052D01*
X021984Y016988D02*
X022015Y016958D01*
X022015Y016897D01*
X021984Y016867D01*
X022015Y016803D02*
X021954Y016743D01*
X021954Y016773D02*
X021954Y016683D01*
X022015Y016683D02*
X021834Y016683D01*
X021834Y016773D01*
X021864Y016803D01*
X021924Y016803D01*
X021954Y016773D01*
X021864Y016867D02*
X021834Y016897D01*
X021834Y016958D01*
X021864Y016988D01*
X021894Y016988D01*
X021924Y016958D01*
X021954Y016988D01*
X021984Y016988D01*
X021924Y016958D02*
X021924Y016928D01*
X021834Y017052D02*
X021834Y017172D01*
X021864Y017172D01*
X022834Y016744D02*
X022834Y016624D01*
X022924Y016624D01*
X022894Y016684D01*
X022894Y016714D01*
X022924Y016744D01*
X022984Y016744D01*
X023015Y016714D01*
X023015Y016654D01*
X022984Y016624D01*
X023015Y016560D02*
X023015Y016440D01*
X022894Y016560D01*
X022864Y016560D01*
X022834Y016530D01*
X022834Y016470D01*
X022864Y016440D01*
X022864Y016376D02*
X022834Y016346D01*
X022834Y016286D01*
X022864Y016256D01*
X022984Y016256D01*
X023015Y016286D01*
X023015Y016346D01*
X022984Y016376D01*
X021990Y015842D02*
X021990Y015782D01*
X021959Y015752D01*
X021929Y015752D01*
X021899Y015782D01*
X021899Y015842D01*
X021929Y015872D01*
X021959Y015872D01*
X021990Y015842D01*
X021899Y015842D02*
X021869Y015872D01*
X021839Y015872D01*
X021809Y015842D01*
X021809Y015782D01*
X021839Y015752D01*
X021869Y015752D01*
X021899Y015782D01*
X021869Y015688D02*
X021899Y015658D01*
X021929Y015688D01*
X021959Y015688D01*
X021990Y015658D01*
X021990Y015597D01*
X021959Y015567D01*
X021990Y015503D02*
X021929Y015443D01*
X021929Y015473D02*
X021929Y015383D01*
X021990Y015383D02*
X021809Y015383D01*
X021809Y015473D01*
X021839Y015503D01*
X021899Y015503D01*
X021929Y015473D01*
X021839Y015567D02*
X021809Y015597D01*
X021809Y015658D01*
X021839Y015688D01*
X021869Y015688D01*
X021899Y015658D02*
X021899Y015628D01*
X023879Y017558D02*
X023879Y017618D01*
X023879Y017588D02*
X024060Y017588D01*
X024060Y017558D02*
X024060Y017618D01*
X024030Y017681D02*
X024060Y017711D01*
X024060Y017771D01*
X024030Y017801D01*
X024060Y017865D02*
X023939Y017985D01*
X023909Y017985D01*
X023879Y017955D01*
X023879Y017895D01*
X023909Y017865D01*
X023909Y017801D02*
X023879Y017771D01*
X023879Y017711D01*
X023909Y017681D01*
X024030Y017681D01*
X024060Y017865D02*
X024060Y017985D01*
X024030Y018049D02*
X024060Y018079D01*
X024060Y018139D01*
X024030Y018169D01*
X023970Y018169D01*
X023939Y018139D01*
X023939Y018109D01*
X023970Y018049D01*
X023879Y018049D01*
X023879Y018169D01*
X024945Y015854D02*
X025131Y015573D01*
X025221Y015620D02*
X025267Y015573D01*
X025361Y015573D01*
X025408Y015620D01*
X025408Y015713D01*
X025361Y015760D01*
X025314Y015760D01*
X025221Y015713D01*
X025221Y015854D01*
X025408Y015854D01*
X025131Y015854D02*
X024945Y015573D01*
X026009Y014596D02*
X026056Y014643D01*
X026149Y014643D01*
X026196Y014596D01*
X026196Y014456D01*
X026196Y014366D02*
X026009Y014366D01*
X026009Y014456D02*
X026009Y014596D01*
X026009Y014456D02*
X026290Y014456D01*
X026196Y014366D02*
X026290Y014273D01*
X026196Y014180D01*
X026009Y014180D01*
X026009Y013903D02*
X026290Y013903D01*
X026290Y014090D01*
X027009Y014083D02*
X027009Y013990D01*
X027056Y013943D01*
X027243Y013943D01*
X027290Y013990D01*
X027290Y014083D01*
X027243Y014130D01*
X027290Y014220D02*
X027290Y014406D01*
X027290Y014496D02*
X027009Y014496D01*
X027149Y014542D02*
X027290Y014683D01*
X027196Y014496D02*
X027009Y014683D01*
X027009Y014220D02*
X027290Y014220D01*
X027056Y014130D02*
X027009Y014083D01*
X028014Y013998D02*
X028108Y014091D01*
X028295Y014091D01*
X028154Y014091D02*
X028154Y013905D01*
X028108Y013905D02*
X028014Y013998D01*
X028108Y013905D02*
X028295Y013905D01*
X028248Y013815D02*
X028061Y013815D01*
X028014Y013768D01*
X028014Y013628D01*
X028295Y013628D01*
X028295Y013768D01*
X028248Y013815D01*
X028014Y014181D02*
X028014Y014368D01*
X028014Y014274D02*
X028295Y014274D01*
X028295Y014457D02*
X028108Y014457D01*
X028014Y014550D01*
X028108Y014644D01*
X028295Y014644D01*
X028154Y014644D02*
X028154Y014457D01*
X029014Y014496D02*
X029014Y014636D01*
X029061Y014683D01*
X029248Y014683D01*
X029295Y014636D01*
X029295Y014496D01*
X029014Y014496D01*
X029014Y014406D02*
X029295Y014406D01*
X029014Y014220D01*
X029295Y014220D01*
X029248Y014130D02*
X029154Y014130D01*
X029154Y014037D01*
X029061Y014130D02*
X029014Y014083D01*
X029014Y013990D01*
X029061Y013943D01*
X029248Y013943D01*
X029295Y013990D01*
X029295Y014083D01*
X029248Y014130D01*
X030029Y014185D02*
X030029Y014371D01*
X030029Y014461D02*
X030216Y014461D01*
X030310Y014554D01*
X030216Y014648D01*
X030029Y014648D01*
X030169Y014371D02*
X030263Y014371D01*
X030310Y014325D01*
X030310Y014231D01*
X030263Y014185D01*
X030169Y014185D02*
X030123Y014278D01*
X030123Y014325D01*
X030169Y014371D01*
X030169Y014185D02*
X030029Y014185D01*
X030169Y014095D02*
X030169Y013908D01*
X030076Y014002D02*
X030263Y014002D01*
X031109Y014000D02*
X031109Y013906D01*
X031156Y013860D01*
X031343Y013860D01*
X031390Y013906D01*
X031390Y014000D01*
X031343Y014046D01*
X031390Y014136D02*
X031390Y014323D01*
X031390Y014412D02*
X031109Y014412D01*
X031109Y014552D01*
X031156Y014599D01*
X031249Y014599D01*
X031296Y014552D01*
X031296Y014412D01*
X031296Y014505D02*
X031390Y014599D01*
X031070Y014678D02*
X031070Y013573D01*
X031109Y013583D02*
X031203Y013677D01*
X031109Y013770D01*
X031390Y013770D01*
X031390Y013583D02*
X031109Y013583D01*
X031109Y014000D02*
X031156Y014046D01*
X031109Y014136D02*
X031390Y014136D01*
X027133Y011938D02*
X027103Y011968D01*
X027043Y011968D01*
X027013Y011938D01*
X027013Y011908D01*
X027043Y011878D01*
X027133Y011878D01*
X027133Y011818D02*
X027133Y011938D01*
X027133Y011818D02*
X027103Y011788D01*
X027043Y011788D01*
X027013Y011818D01*
X026949Y011788D02*
X026829Y011788D01*
X026949Y011908D01*
X026949Y011938D01*
X026919Y011968D01*
X026859Y011968D01*
X026829Y011938D01*
X026765Y011938D02*
X026735Y011968D01*
X026675Y011968D01*
X026645Y011938D01*
X026645Y011818D01*
X026675Y011788D01*
X026735Y011788D01*
X026765Y011818D01*
X025851Y011843D02*
X025821Y011813D01*
X025761Y011813D01*
X025731Y011843D01*
X025667Y011813D02*
X025546Y011813D01*
X025667Y011933D01*
X025667Y011963D01*
X025637Y011993D01*
X025576Y011993D01*
X025546Y011963D01*
X025482Y011963D02*
X025452Y011993D01*
X025392Y011993D01*
X025362Y011963D01*
X025362Y011843D01*
X025392Y011813D01*
X025452Y011813D01*
X025482Y011843D01*
X025300Y011813D02*
X025240Y011813D01*
X025270Y011813D02*
X025270Y011993D01*
X025240Y011993D02*
X025300Y011993D01*
X025731Y011963D02*
X025761Y011993D01*
X025821Y011993D01*
X025851Y011963D01*
X025851Y011933D01*
X025821Y011903D01*
X025851Y011873D01*
X025851Y011843D01*
X025821Y011903D02*
X025791Y011903D01*
X023245Y012208D02*
X023245Y012238D01*
X023215Y012268D01*
X023125Y012268D01*
X023125Y012208D01*
X023155Y012178D01*
X023215Y012178D01*
X023245Y012208D01*
X023185Y012328D02*
X023125Y012268D01*
X023185Y012328D02*
X023245Y012358D01*
X023001Y012358D02*
X023001Y012178D01*
X022941Y012178D02*
X023061Y012178D01*
X022941Y012298D02*
X023001Y012358D01*
X022877Y012328D02*
X022847Y012358D01*
X022787Y012358D01*
X022757Y012328D01*
X022757Y012208D01*
X022787Y012178D01*
X022847Y012178D01*
X022877Y012208D01*
X021239Y011588D02*
X021179Y011558D01*
X021119Y011498D01*
X021209Y011498D01*
X021239Y011468D01*
X021239Y011438D01*
X021209Y011408D01*
X021149Y011408D01*
X021119Y011438D01*
X021119Y011498D01*
X021055Y011498D02*
X021025Y011468D01*
X020935Y011468D01*
X020995Y011468D02*
X021055Y011408D01*
X021055Y011498D02*
X021055Y011558D01*
X021025Y011588D01*
X020935Y011588D01*
X020935Y011408D01*
X019920Y011598D02*
X019800Y011598D01*
X019890Y011688D01*
X019890Y011508D01*
X019736Y011508D02*
X019676Y011568D01*
X019706Y011568D02*
X019616Y011568D01*
X019616Y011508D02*
X019616Y011688D01*
X019706Y011688D01*
X019736Y011658D01*
X019736Y011598D01*
X019706Y011568D01*
X019031Y012943D02*
X019125Y013037D01*
X019125Y013130D01*
X019031Y013224D01*
X019021Y013263D02*
X018192Y013263D01*
X018249Y013224D02*
X018202Y013177D01*
X018202Y012990D01*
X018249Y012943D01*
X018343Y012943D01*
X018389Y012990D01*
X018479Y012990D02*
X018525Y012943D01*
X018619Y012943D01*
X018666Y012990D01*
X018755Y012943D02*
X018848Y013037D01*
X018942Y012943D01*
X018942Y013224D01*
X018755Y013224D02*
X018755Y012943D01*
X018666Y013177D02*
X018619Y013224D01*
X018525Y013224D01*
X018479Y013177D01*
X018479Y012990D01*
X018389Y013177D02*
X018343Y013224D01*
X018249Y013224D01*
X018113Y013224D02*
X017926Y012943D01*
X017837Y012943D02*
X017837Y013224D01*
X017650Y013224D02*
X017650Y012943D01*
X017743Y013037D01*
X017837Y012943D01*
X017561Y012990D02*
X017514Y012943D01*
X017420Y012943D01*
X017374Y012990D01*
X017374Y013177D01*
X017420Y013224D01*
X017514Y013224D01*
X017561Y013177D01*
X017283Y013224D02*
X017190Y013130D01*
X017190Y013037D01*
X017283Y012943D01*
X016824Y012943D02*
X016824Y013083D01*
X016777Y013130D01*
X016637Y013130D01*
X016637Y012943D01*
X016548Y012990D02*
X016548Y013083D01*
X016501Y013130D01*
X016408Y013130D01*
X016361Y013083D01*
X016361Y012990D01*
X016408Y012943D01*
X016501Y012943D01*
X016548Y012990D01*
X016270Y012943D02*
X016177Y012943D01*
X016223Y012943D02*
X016223Y013130D01*
X016177Y013130D01*
X016086Y013130D02*
X015993Y013130D01*
X016039Y013177D02*
X016039Y012990D01*
X016086Y012943D01*
X015903Y012943D02*
X015763Y012943D01*
X015716Y012990D01*
X015716Y013083D01*
X015763Y013130D01*
X015903Y013130D01*
X015627Y013083D02*
X015627Y013037D01*
X015440Y013037D01*
X015440Y013083D02*
X015487Y013130D01*
X015580Y013130D01*
X015627Y013083D01*
X015580Y012943D02*
X015487Y012943D01*
X015440Y012990D01*
X015440Y013083D01*
X015350Y013130D02*
X015303Y013130D01*
X015210Y013037D01*
X015210Y013130D02*
X015210Y012943D01*
X015119Y012943D02*
X015026Y012943D01*
X015072Y012943D02*
X015072Y013130D01*
X015026Y013130D01*
X014936Y013177D02*
X014890Y013224D01*
X014750Y013224D01*
X014750Y012943D01*
X014890Y012943D01*
X014936Y012990D01*
X014936Y013177D01*
X015072Y013224D02*
X015072Y013270D01*
X014180Y013092D02*
X014180Y013045D01*
X014133Y012998D01*
X014180Y012952D01*
X014180Y012905D01*
X014133Y012858D01*
X014040Y012858D01*
X013993Y012905D01*
X013904Y012858D02*
X013717Y013139D01*
X013904Y013139D02*
X013717Y012858D01*
X013993Y013092D02*
X014040Y013139D01*
X014133Y013139D01*
X014180Y013092D01*
X014133Y012998D02*
X014087Y012998D01*
X013898Y014018D02*
X013898Y014299D01*
X013758Y014158D01*
X013945Y014158D01*
X013669Y014018D02*
X013482Y014299D01*
X013669Y014299D02*
X013482Y014018D01*
X015240Y014339D02*
X015426Y014339D01*
X015333Y014339D02*
X015333Y014058D01*
X015516Y014058D02*
X015516Y014245D01*
X015609Y014245D02*
X015656Y014245D01*
X015609Y014245D02*
X015516Y014152D01*
X015746Y014245D02*
X015793Y014245D01*
X015793Y014058D01*
X015839Y014058D02*
X015746Y014058D01*
X015930Y014105D02*
X015977Y014058D01*
X016117Y014058D01*
X016117Y014012D02*
X016117Y014245D01*
X015977Y014245D01*
X015930Y014198D01*
X015930Y014105D01*
X016024Y013965D02*
X016070Y013965D01*
X016117Y014012D01*
X016206Y014105D02*
X016253Y014058D01*
X016393Y014058D01*
X016393Y014012D02*
X016393Y014245D01*
X016253Y014245D01*
X016206Y014198D01*
X016206Y014105D01*
X016300Y013965D02*
X016346Y013965D01*
X016393Y014012D01*
X016483Y014105D02*
X016483Y014198D01*
X016529Y014245D01*
X016623Y014245D01*
X016669Y014198D01*
X016669Y014152D01*
X016483Y014152D01*
X016483Y014105D02*
X016529Y014058D01*
X016623Y014058D01*
X016759Y014058D02*
X016759Y014245D01*
X016852Y014245D02*
X016899Y014245D01*
X016852Y014245D02*
X016759Y014152D01*
X015793Y014339D02*
X015793Y014385D01*
X016223Y013270D02*
X016223Y013224D01*
X022670Y010383D02*
X022730Y010383D01*
X022700Y010383D02*
X022700Y010203D01*
X022670Y010203D02*
X022730Y010203D01*
X022792Y010233D02*
X022822Y010203D01*
X022882Y010203D01*
X022912Y010233D01*
X022976Y010203D02*
X023097Y010203D01*
X023036Y010203D02*
X023036Y010383D01*
X022976Y010323D01*
X022912Y010353D02*
X022882Y010383D01*
X022822Y010383D01*
X022792Y010353D01*
X022792Y010233D01*
X023161Y010203D02*
X023281Y010323D01*
X023281Y010353D01*
X023251Y010383D01*
X023191Y010383D01*
X023161Y010353D01*
X023161Y010203D02*
X023281Y010203D01*
X025225Y008803D02*
X025285Y008803D01*
X025255Y008803D02*
X025255Y008623D01*
X025225Y008623D02*
X025285Y008623D01*
X025347Y008653D02*
X025347Y008773D01*
X025377Y008803D01*
X025437Y008803D01*
X025467Y008773D01*
X025531Y008773D02*
X025561Y008803D01*
X025622Y008803D01*
X025652Y008773D01*
X025652Y008743D01*
X025531Y008623D01*
X025652Y008623D01*
X025716Y008623D02*
X025836Y008743D01*
X025836Y008773D01*
X025806Y008803D01*
X025746Y008803D01*
X025716Y008773D01*
X025716Y008623D02*
X025836Y008623D01*
X025467Y008653D02*
X025437Y008623D01*
X025377Y008623D01*
X025347Y008653D01*
X038020Y015483D02*
X038050Y015453D01*
X038110Y015453D01*
X038140Y015483D01*
X038204Y015483D02*
X038204Y015513D01*
X038234Y015543D01*
X038294Y015543D01*
X038324Y015513D01*
X038324Y015483D01*
X038294Y015453D01*
X038234Y015453D01*
X038204Y015483D01*
X038234Y015543D02*
X038204Y015573D01*
X038204Y015603D01*
X038234Y015633D01*
X038294Y015633D01*
X038324Y015603D01*
X038324Y015573D01*
X038294Y015543D01*
X038140Y015603D02*
X038110Y015633D01*
X038050Y015633D01*
X038020Y015603D01*
X038020Y015483D01*
X038467Y015478D02*
X038467Y015658D01*
X038557Y015658D01*
X038587Y015628D01*
X038587Y015568D01*
X038557Y015538D01*
X038467Y015538D01*
X038527Y015538D02*
X038587Y015478D01*
X038651Y015478D02*
X038771Y015478D01*
X038711Y015478D02*
X038711Y015658D01*
X038651Y015598D01*
X038835Y015598D02*
X038865Y015568D01*
X038955Y015568D01*
X038955Y015508D02*
X038955Y015628D01*
X038925Y015658D01*
X038865Y015658D01*
X038835Y015628D01*
X038835Y015598D01*
X038835Y015508D02*
X038865Y015478D01*
X038925Y015478D01*
X038955Y015508D01*
X040151Y016073D02*
X040181Y016043D01*
X040241Y016043D01*
X040271Y016073D01*
X040335Y016043D02*
X040455Y016043D01*
X040395Y016043D02*
X040395Y016223D01*
X040335Y016163D01*
X040271Y016193D02*
X040241Y016223D01*
X040181Y016223D01*
X040151Y016193D01*
X040151Y016073D01*
X040102Y017208D02*
X040102Y017388D01*
X040192Y017388D01*
X040222Y017358D01*
X040222Y017298D01*
X040192Y017268D01*
X040102Y017268D01*
X040162Y017268D02*
X040222Y017208D01*
X040286Y017208D02*
X040406Y017208D01*
X040346Y017208D02*
X040346Y017388D01*
X040286Y017328D01*
X040470Y017358D02*
X040500Y017388D01*
X040560Y017388D01*
X040590Y017358D01*
X040590Y017328D01*
X040470Y017208D01*
X040590Y017208D01*
X040575Y018003D02*
X040515Y018003D01*
X040485Y018033D01*
X040485Y018093D01*
X040575Y018093D01*
X040605Y018063D01*
X040605Y018033D01*
X040575Y018003D01*
X040485Y018093D02*
X040545Y018153D01*
X040605Y018183D01*
X040421Y018153D02*
X040391Y018183D01*
X040331Y018183D01*
X040301Y018153D01*
X040237Y018153D02*
X040207Y018183D01*
X040147Y018183D01*
X040117Y018153D01*
X040117Y018033D01*
X040147Y018003D01*
X040207Y018003D01*
X040237Y018033D01*
X040301Y018003D02*
X040421Y018123D01*
X040421Y018153D01*
X040421Y018003D02*
X040301Y018003D01*
X037850Y017812D02*
X037850Y017752D01*
X037819Y017722D01*
X037789Y017722D01*
X037759Y017752D01*
X037759Y017812D01*
X037789Y017842D01*
X037819Y017842D01*
X037850Y017812D01*
X037759Y017812D02*
X037729Y017842D01*
X037699Y017842D01*
X037669Y017812D01*
X037669Y017752D01*
X037699Y017722D01*
X037729Y017722D01*
X037759Y017752D01*
X037850Y017658D02*
X037850Y017537D01*
X037850Y017598D02*
X037669Y017598D01*
X037729Y017537D01*
X037699Y017473D02*
X037759Y017473D01*
X037789Y017443D01*
X037789Y017353D01*
X037789Y017413D02*
X037850Y017473D01*
X037850Y017353D02*
X037669Y017353D01*
X037669Y017443D01*
X037699Y017473D01*
X035791Y016853D02*
X035731Y016823D01*
X035671Y016763D01*
X035761Y016763D01*
X035791Y016733D01*
X035791Y016703D01*
X035761Y016673D01*
X035701Y016673D01*
X035671Y016703D01*
X035671Y016763D01*
X035607Y016673D02*
X035486Y016673D01*
X035546Y016673D02*
X035546Y016853D01*
X035486Y016793D01*
X035422Y016823D02*
X035392Y016853D01*
X035332Y016853D01*
X035302Y016823D01*
X035302Y016703D01*
X035332Y016673D01*
X035392Y016673D01*
X035422Y016703D01*
X035240Y016673D02*
X035180Y016673D01*
X035210Y016673D02*
X035210Y016853D01*
X035180Y016853D02*
X035240Y016853D01*
X035272Y018028D02*
X035332Y018028D01*
X035362Y018058D01*
X035426Y018028D02*
X035547Y018028D01*
X035486Y018028D02*
X035486Y018208D01*
X035426Y018148D01*
X035362Y018178D02*
X035332Y018208D01*
X035272Y018208D01*
X035242Y018178D01*
X035242Y018058D01*
X035272Y018028D01*
X035180Y018028D02*
X035120Y018028D01*
X035150Y018028D02*
X035150Y018208D01*
X035120Y018208D02*
X035180Y018208D01*
X035611Y018178D02*
X035641Y018208D01*
X035701Y018208D01*
X035731Y018178D01*
X035611Y018058D01*
X035641Y018028D01*
X035701Y018028D01*
X035731Y018058D01*
X035731Y018178D01*
X035611Y018178D02*
X035611Y018058D01*
X035641Y019373D02*
X035611Y019403D01*
X035641Y019373D02*
X035701Y019373D01*
X035731Y019403D01*
X035731Y019463D01*
X035701Y019493D01*
X035671Y019493D01*
X035611Y019463D01*
X035611Y019553D01*
X035731Y019553D01*
X035486Y019553D02*
X035486Y019373D01*
X035426Y019373D02*
X035547Y019373D01*
X035426Y019493D02*
X035486Y019553D01*
X035362Y019523D02*
X035332Y019553D01*
X035272Y019553D01*
X035242Y019523D01*
X035242Y019403D01*
X035272Y019373D01*
X035332Y019373D01*
X035362Y019403D01*
X035180Y019373D02*
X035120Y019373D01*
X035150Y019373D02*
X035150Y019553D01*
X035120Y019553D02*
X035180Y019553D01*
X035175Y020593D02*
X035175Y020773D01*
X035145Y020773D02*
X035205Y020773D01*
X035267Y020743D02*
X035267Y020623D01*
X035297Y020593D01*
X035357Y020593D01*
X035387Y020623D01*
X035451Y020593D02*
X035572Y020593D01*
X035511Y020593D02*
X035511Y020773D01*
X035451Y020713D01*
X035387Y020743D02*
X035357Y020773D01*
X035297Y020773D01*
X035267Y020743D01*
X035205Y020593D02*
X035145Y020593D01*
X035636Y020623D02*
X035636Y020593D01*
X035636Y020623D02*
X035756Y020743D01*
X035756Y020773D01*
X035636Y020773D01*
X033475Y021213D02*
X033445Y021183D01*
X033385Y021183D01*
X033355Y021213D01*
X033355Y021273D02*
X033415Y021303D01*
X033445Y021303D01*
X033475Y021273D01*
X033475Y021213D01*
X033355Y021273D02*
X033355Y021363D01*
X033475Y021363D01*
X033231Y021363D02*
X033231Y021183D01*
X033171Y021183D02*
X033291Y021183D01*
X033171Y021303D02*
X033231Y021363D01*
X033107Y021333D02*
X033077Y021363D01*
X033017Y021363D01*
X032987Y021333D01*
X032987Y021213D01*
X033017Y021183D01*
X033077Y021183D01*
X033107Y021213D01*
X032990Y022083D02*
X032870Y022083D01*
X032930Y022083D02*
X032930Y022263D01*
X032870Y022203D01*
X032806Y022233D02*
X032806Y022113D01*
X032776Y022083D01*
X032716Y022083D01*
X032686Y022113D01*
X032686Y022233D01*
X032716Y022263D01*
X032776Y022263D01*
X032806Y022233D01*
X032746Y022143D02*
X032806Y022083D01*
X033067Y022903D02*
X033127Y022903D01*
X033157Y022933D01*
X033221Y022903D02*
X033341Y023023D01*
X033341Y023053D01*
X033311Y023083D01*
X033251Y023083D01*
X033221Y023053D01*
X033157Y023053D02*
X033127Y023083D01*
X033067Y023083D01*
X033037Y023053D01*
X033037Y022933D01*
X033067Y022903D01*
X033221Y022903D02*
X033341Y022903D01*
X033405Y022903D02*
X033525Y023023D01*
X033525Y023053D01*
X033495Y023083D01*
X033435Y023083D01*
X033405Y023053D01*
X033405Y022903D02*
X033525Y022903D01*
X031335Y022918D02*
X031154Y022918D01*
X031154Y023008D01*
X031184Y023038D01*
X031244Y023038D01*
X031274Y023008D01*
X031274Y022918D01*
X031274Y022978D02*
X031335Y023038D01*
X031244Y023102D02*
X031244Y023223D01*
X031184Y023287D02*
X031154Y023317D01*
X031154Y023377D01*
X031184Y023407D01*
X031304Y023287D01*
X031335Y023317D01*
X031335Y023377D01*
X031304Y023407D01*
X031184Y023407D01*
X031184Y023287D02*
X031304Y023287D01*
X031335Y023193D02*
X031154Y023193D01*
X031244Y023102D01*
X031224Y024061D02*
X031224Y024151D01*
X031194Y024181D01*
X031134Y024181D01*
X031104Y024151D01*
X031104Y024061D01*
X031285Y024061D01*
X031224Y024121D02*
X031285Y024181D01*
X031285Y024245D02*
X031164Y024365D01*
X031134Y024365D01*
X031104Y024335D01*
X031104Y024275D01*
X031134Y024245D01*
X031285Y024245D02*
X031285Y024365D01*
X031285Y024429D02*
X031254Y024429D01*
X031134Y024549D01*
X031104Y024549D01*
X031104Y024429D01*
X030635Y024439D02*
X030635Y024379D01*
X030604Y024349D01*
X030604Y024285D02*
X030635Y024255D01*
X030635Y024195D01*
X030604Y024165D01*
X030635Y024101D02*
X030574Y024041D01*
X030574Y024071D02*
X030574Y023981D01*
X030635Y023981D02*
X030454Y023981D01*
X030454Y024071D01*
X030484Y024101D01*
X030544Y024101D01*
X030574Y024071D01*
X030484Y024165D02*
X030454Y024195D01*
X030454Y024255D01*
X030484Y024285D01*
X030514Y024285D01*
X030544Y024255D01*
X030574Y024285D01*
X030604Y024285D01*
X030544Y024255D02*
X030544Y024225D01*
X030484Y024349D02*
X030454Y024379D01*
X030454Y024439D01*
X030484Y024469D01*
X030514Y024469D01*
X030544Y024439D01*
X030574Y024469D01*
X030604Y024469D01*
X030635Y024439D01*
X030544Y024439D02*
X030544Y024409D01*
X030524Y025193D02*
X030524Y025283D01*
X030494Y025313D01*
X030434Y025313D01*
X030404Y025283D01*
X030404Y025193D01*
X030585Y025193D01*
X030524Y025253D02*
X030585Y025313D01*
X030554Y025377D02*
X030585Y025407D01*
X030585Y025468D01*
X030554Y025498D01*
X030524Y025498D01*
X030494Y025468D01*
X030494Y025438D01*
X030494Y025468D02*
X030464Y025498D01*
X030434Y025498D01*
X030404Y025468D01*
X030404Y025407D01*
X030434Y025377D01*
X030464Y025562D02*
X030404Y025622D01*
X030585Y025622D01*
X030585Y025562D02*
X030585Y025682D01*
X032222Y024878D02*
X032222Y024758D01*
X032252Y024728D01*
X032312Y024728D01*
X032342Y024758D01*
X032406Y024758D02*
X032436Y024728D01*
X032496Y024728D01*
X032526Y024758D01*
X032526Y024788D01*
X032496Y024818D01*
X032466Y024818D01*
X032496Y024818D02*
X032526Y024848D01*
X032526Y024878D01*
X032496Y024908D01*
X032436Y024908D01*
X032406Y024878D01*
X032342Y024878D02*
X032312Y024908D01*
X032252Y024908D01*
X032222Y024878D01*
X032590Y024878D02*
X032620Y024908D01*
X032680Y024908D01*
X032710Y024878D01*
X032590Y024758D01*
X032620Y024728D01*
X032680Y024728D01*
X032710Y024758D01*
X032710Y024878D01*
X032590Y024878D02*
X032590Y024758D01*
X035038Y024928D02*
X035131Y024928D01*
X035085Y024928D02*
X035085Y025209D01*
X035131Y025209D02*
X035038Y025209D01*
X028888Y026433D02*
X028858Y026403D01*
X028798Y026403D01*
X028768Y026433D01*
X028704Y026403D02*
X028584Y026403D01*
X028644Y026403D02*
X028644Y026583D01*
X028584Y026523D01*
X028520Y026553D02*
X028490Y026583D01*
X028430Y026583D01*
X028400Y026553D01*
X028400Y026433D01*
X028430Y026403D01*
X028490Y026403D01*
X028520Y026433D01*
X028768Y026553D02*
X028798Y026583D01*
X028858Y026583D01*
X028888Y026553D01*
X028888Y026523D01*
X028858Y026493D01*
X028888Y026463D01*
X028888Y026433D01*
X028858Y026493D02*
X028828Y026493D01*
X024390Y024990D02*
X024311Y025069D01*
X022210Y025225D02*
X022163Y025178D01*
X022070Y025178D01*
X022023Y025225D01*
X021934Y025225D02*
X021887Y025178D01*
X021794Y025178D01*
X021747Y025225D01*
X021747Y025412D01*
X021794Y025459D01*
X021887Y025459D01*
X021934Y025412D01*
X022023Y025412D02*
X022070Y025459D01*
X022163Y025459D01*
X022210Y025412D01*
X022210Y025365D01*
X022163Y025318D01*
X022210Y025272D01*
X022210Y025225D01*
X022163Y025318D02*
X022117Y025318D01*
X021656Y025178D02*
X021563Y025178D01*
X021610Y025178D02*
X021610Y025459D01*
X021656Y025459D02*
X021563Y025459D01*
X021174Y025058D02*
X021114Y025058D01*
X021084Y025028D01*
X021020Y025028D02*
X020990Y025058D01*
X020930Y025058D01*
X020900Y025028D01*
X020900Y024908D01*
X020930Y024878D01*
X020990Y024878D01*
X021020Y024908D01*
X021084Y024878D02*
X021204Y024998D01*
X021204Y025028D01*
X021174Y025058D01*
X021204Y024878D02*
X021084Y024878D01*
X018114Y024513D02*
X018084Y024543D01*
X018024Y024543D01*
X017994Y024513D01*
X017994Y024483D01*
X018024Y024453D01*
X018114Y024453D01*
X018114Y024393D02*
X018114Y024513D01*
X018114Y024393D02*
X018084Y024363D01*
X018024Y024363D01*
X017994Y024393D01*
X017930Y024393D02*
X017900Y024363D01*
X017840Y024363D01*
X017810Y024393D01*
X017810Y024513D01*
X017840Y024543D01*
X017900Y024543D01*
X017930Y024513D01*
X026830Y023884D02*
X026923Y023884D01*
X026876Y023884D02*
X026876Y023603D01*
X026830Y023603D02*
X026923Y023603D01*
X027014Y023650D02*
X027060Y023603D01*
X027154Y023603D01*
X027200Y023650D01*
X027290Y023603D02*
X027477Y023603D01*
X027383Y023603D02*
X027383Y023884D01*
X027290Y023790D01*
X027200Y023837D02*
X027154Y023884D01*
X027060Y023884D01*
X027014Y023837D01*
X027014Y023650D01*
X027566Y023650D02*
X027566Y023697D01*
X027613Y023743D01*
X027706Y023743D01*
X027753Y023697D01*
X027753Y023650D01*
X027706Y023603D01*
X027613Y023603D01*
X027566Y023650D01*
X027613Y023743D02*
X027566Y023790D01*
X027566Y023837D01*
X027613Y023884D01*
X027706Y023884D01*
X027753Y023837D01*
X027753Y023790D01*
X027706Y023743D01*
X029175Y031778D02*
X029361Y032059D01*
X029451Y032059D02*
X029638Y032059D01*
X029638Y032012D01*
X029451Y031825D01*
X029451Y031778D01*
X029361Y031778D02*
X029175Y032059D01*
X028680Y032248D02*
X028680Y032341D01*
X028633Y032388D01*
X028446Y032388D01*
X028399Y032341D01*
X028399Y032248D01*
X028446Y032201D01*
X028633Y032201D01*
X028680Y032248D01*
X028586Y032294D02*
X028680Y032388D01*
X028680Y032477D02*
X028680Y032617D01*
X028633Y032664D01*
X028586Y032664D01*
X028539Y032617D01*
X028539Y032477D01*
X028399Y032477D02*
X028680Y032477D01*
X028539Y032617D02*
X028493Y032664D01*
X028446Y032664D01*
X028399Y032617D01*
X028399Y032477D01*
X027680Y032498D02*
X027633Y032451D01*
X027680Y032498D02*
X027680Y032591D01*
X027633Y032638D01*
X027539Y032638D01*
X027493Y032591D01*
X027493Y032544D01*
X027539Y032451D01*
X027399Y032451D01*
X027399Y032638D01*
X027399Y032727D02*
X027586Y032727D01*
X027680Y032820D01*
X027586Y032914D01*
X027399Y032914D01*
X027539Y032361D02*
X027539Y032175D01*
X027446Y032268D02*
X027633Y032268D01*
X026680Y032248D02*
X026633Y032201D01*
X026446Y032201D01*
X026399Y032248D01*
X026399Y032341D01*
X026446Y032388D01*
X026633Y032388D01*
X026680Y032341D01*
X026680Y032248D01*
X026586Y032294D02*
X026680Y032388D01*
X026680Y032477D02*
X026493Y032477D01*
X026399Y032570D01*
X026493Y032664D01*
X026680Y032664D01*
X026539Y032664D02*
X026539Y032477D01*
X025655Y032423D02*
X025374Y032423D01*
X025655Y032610D01*
X025374Y032610D01*
X025374Y032700D02*
X025374Y032840D01*
X025421Y032886D01*
X025608Y032886D01*
X025655Y032840D01*
X025655Y032700D01*
X025374Y032700D01*
X025374Y032976D02*
X025655Y032976D01*
X025655Y033163D01*
X025655Y033252D02*
X025374Y033439D01*
X025374Y033252D02*
X025655Y033439D01*
X025374Y033163D02*
X025374Y032976D01*
X025514Y032976D02*
X025514Y033069D01*
X025374Y032333D02*
X025374Y032239D01*
X025374Y032286D02*
X025655Y032286D01*
X025655Y032239D02*
X025655Y032333D01*
X024630Y032340D02*
X024630Y032246D01*
X024583Y032200D01*
X024396Y032200D01*
X024349Y032246D01*
X024349Y032340D01*
X024396Y032386D01*
X024489Y032386D02*
X024489Y032293D01*
X024489Y032386D02*
X024583Y032386D01*
X024630Y032340D01*
X024630Y032476D02*
X024349Y032476D01*
X024630Y032663D01*
X024349Y032663D01*
X024349Y032752D02*
X024349Y032892D01*
X024396Y032939D01*
X024583Y032939D01*
X024630Y032892D01*
X024630Y032752D01*
X024349Y032752D01*
X021473Y032290D02*
X021473Y032243D01*
X021473Y032290D02*
X021426Y032336D01*
X021193Y032336D01*
X021193Y032196D01*
X021239Y032150D01*
X021333Y032150D01*
X021380Y032196D01*
X021380Y032336D01*
X021380Y032426D02*
X021193Y032426D01*
X021193Y032566D01*
X021239Y032613D01*
X021380Y032613D01*
X021333Y032702D02*
X021239Y032702D01*
X021193Y032749D01*
X021193Y032889D01*
X021099Y032889D02*
X021380Y032889D01*
X021380Y032749D01*
X021333Y032702D01*
X020305Y032291D02*
X020258Y032338D01*
X020071Y032338D01*
X020024Y032291D01*
X020024Y032151D01*
X020305Y032151D01*
X020305Y032291D01*
X020164Y032427D02*
X020164Y032614D01*
X020071Y032520D02*
X020258Y032520D01*
X019330Y032316D02*
X019330Y032176D01*
X019049Y032176D01*
X019049Y032316D01*
X019096Y032363D01*
X019283Y032363D01*
X019330Y032316D01*
X019189Y032452D02*
X019189Y032639D01*
X019418Y033178D02*
X019511Y033178D01*
X019558Y033225D01*
X019558Y033459D01*
X019647Y033412D02*
X019647Y033365D01*
X019694Y033318D01*
X019787Y033318D01*
X019834Y033272D01*
X019834Y033225D01*
X019787Y033178D01*
X019694Y033178D01*
X019647Y033225D01*
X019647Y033412D02*
X019694Y033459D01*
X019787Y033459D01*
X019834Y033412D01*
X019923Y033459D02*
X020063Y033459D01*
X020110Y033412D01*
X020110Y033365D01*
X020063Y033318D01*
X019923Y033318D01*
X019923Y033178D02*
X019923Y033459D01*
X020063Y033318D02*
X020110Y033272D01*
X020110Y033225D01*
X020063Y033178D01*
X019923Y033178D01*
X019418Y033178D02*
X019371Y033225D01*
X019371Y033459D01*
X018305Y033117D02*
X018258Y033164D01*
X018211Y033117D01*
X018211Y033024D01*
X018164Y032977D01*
X018118Y033024D01*
X018118Y033164D01*
X018305Y033117D02*
X018305Y032977D01*
X018305Y032888D02*
X018118Y032888D01*
X018305Y032888D02*
X018305Y032748D01*
X018258Y032701D01*
X018118Y032701D01*
X018164Y032611D02*
X018118Y032565D01*
X018118Y032425D01*
X018118Y032335D02*
X018305Y032242D01*
X018118Y032148D01*
X018024Y032425D02*
X018305Y032425D01*
X018305Y032565D01*
X018258Y032611D01*
X018164Y032611D01*
X048719Y019737D02*
X048749Y019767D01*
X048869Y019647D01*
X048900Y019677D01*
X048900Y019737D01*
X048869Y019767D01*
X048749Y019767D01*
X048719Y019737D02*
X048719Y019677D01*
X048749Y019647D01*
X048869Y019647D01*
X048900Y019583D02*
X048900Y019462D01*
X048779Y019583D01*
X048749Y019583D01*
X048719Y019553D01*
X048719Y019492D01*
X048749Y019462D01*
X048749Y019398D02*
X048719Y019368D01*
X048719Y019308D01*
X048749Y019278D01*
X048869Y019278D01*
X048900Y019308D01*
X048900Y019368D01*
X048869Y019398D01*
X049095Y018508D02*
X049155Y018508D01*
X049125Y018508D02*
X049125Y018328D01*
X049095Y018328D02*
X049155Y018328D01*
X049217Y018358D02*
X049247Y018328D01*
X049307Y018328D01*
X049337Y018358D01*
X049401Y018328D02*
X049522Y018448D01*
X049522Y018478D01*
X049492Y018508D01*
X049431Y018508D01*
X049401Y018478D01*
X049337Y018478D02*
X049307Y018508D01*
X049247Y018508D01*
X049217Y018478D01*
X049217Y018358D01*
X049401Y018328D02*
X049522Y018328D01*
X046408Y015203D02*
X046408Y015173D01*
X046378Y015143D01*
X046318Y015143D01*
X046288Y015173D01*
X046288Y015203D01*
X046318Y015233D01*
X046378Y015233D01*
X046408Y015203D01*
X046378Y015143D02*
X046408Y015113D01*
X046408Y015083D01*
X046378Y015053D01*
X046318Y015053D01*
X046288Y015083D01*
X046288Y015113D01*
X046318Y015143D01*
X046224Y015173D02*
X046224Y015203D01*
X046194Y015233D01*
X046134Y015233D01*
X046104Y015203D01*
X046040Y015203D02*
X046040Y015143D01*
X046010Y015113D01*
X045920Y015113D01*
X045980Y015113D02*
X046040Y015053D01*
X046104Y015053D02*
X046224Y015173D01*
X046224Y015053D02*
X046104Y015053D01*
X046040Y015203D02*
X046010Y015233D01*
X045920Y015233D01*
X045920Y015053D01*
X045392Y013608D02*
X045332Y013578D01*
X045272Y013518D01*
X045362Y013518D01*
X045392Y013488D01*
X045392Y013458D01*
X045362Y013428D01*
X045302Y013428D01*
X045272Y013458D01*
X045272Y013518D01*
X045208Y013458D02*
X045208Y013578D01*
X045178Y013608D01*
X045088Y013608D01*
X045088Y013428D01*
X045178Y013428D01*
X045208Y013458D01*
X045024Y013428D02*
X044904Y013428D01*
X044904Y013608D01*
X045024Y013608D01*
X044964Y013518D02*
X044904Y013518D01*
X044840Y013428D02*
X044720Y013428D01*
X044720Y013608D01*
X043605Y013725D02*
X043558Y013678D01*
X043465Y013678D01*
X043418Y013725D01*
X043329Y013725D02*
X043282Y013678D01*
X043189Y013678D01*
X043142Y013725D01*
X043142Y013912D01*
X043189Y013959D01*
X043282Y013959D01*
X043329Y013912D01*
X043418Y013959D02*
X043418Y013818D01*
X043512Y013865D01*
X043558Y013865D01*
X043605Y013818D01*
X043605Y013725D01*
X043605Y013959D02*
X043418Y013959D01*
X043051Y013959D02*
X042958Y013959D01*
X043005Y013959D02*
X043005Y013678D01*
X043051Y013678D02*
X042958Y013678D01*
D12*
X046625Y006254D02*
X046625Y005983D01*
X046805Y005983D01*
X046901Y005983D02*
X046901Y006254D01*
X047081Y006254D01*
X047177Y006254D02*
X047312Y006254D01*
X047357Y006208D01*
X047357Y006028D01*
X047312Y005983D01*
X047177Y005983D01*
X047177Y006254D01*
X046991Y006118D02*
X046901Y006118D01*
X046901Y005983D02*
X047081Y005983D01*
X047453Y005983D02*
X047453Y006028D01*
X047633Y006208D01*
X047633Y006254D01*
X047453Y006254D01*
X026138Y022717D02*
X025825Y023030D01*
X025981Y023030D02*
X025981Y022717D01*
X025825Y022717D02*
X026138Y023030D01*
X026138Y022874D02*
X025825Y022874D01*
X051511Y024833D02*
X051511Y025204D01*
X051758Y024833D01*
X051758Y025204D01*
X051697Y025433D02*
X051758Y025495D01*
X051758Y025742D01*
X051697Y025804D01*
X051511Y025804D01*
X051511Y025433D01*
X051697Y025433D01*
X051880Y025495D02*
X051880Y025618D01*
X051941Y025680D01*
X052065Y025680D01*
X052127Y025618D01*
X052127Y025557D01*
X051880Y025557D01*
X051880Y025495D02*
X051941Y025433D01*
X052065Y025433D01*
X052248Y025495D02*
X052310Y025433D01*
X052495Y025433D01*
X052432Y025204D02*
X052679Y025204D01*
X052801Y025080D02*
X052862Y025080D01*
X052862Y024833D01*
X052801Y024833D02*
X052924Y024833D01*
X053108Y024895D02*
X053170Y024833D01*
X053108Y024895D02*
X053108Y025142D01*
X053046Y025080D02*
X053170Y025080D01*
X053292Y025018D02*
X053292Y024895D01*
X053353Y024833D01*
X053539Y024833D01*
X053660Y024833D02*
X053660Y025204D01*
X053722Y025080D02*
X053845Y025080D01*
X053907Y025018D01*
X053907Y024833D01*
X053660Y025018D02*
X053722Y025080D01*
X053539Y025080D02*
X053353Y025080D01*
X053292Y025018D01*
X053232Y025433D02*
X052985Y025433D01*
X053232Y025680D01*
X053232Y025742D01*
X053170Y025804D01*
X053046Y025804D01*
X052985Y025742D01*
X052985Y026033D02*
X052985Y026280D01*
X053108Y026404D01*
X053232Y026280D01*
X053232Y026033D01*
X053232Y026218D02*
X052985Y026218D01*
X052924Y026633D02*
X052862Y026695D01*
X052862Y026818D01*
X052924Y026880D01*
X053047Y026880D01*
X053109Y026818D01*
X053109Y026695D01*
X053047Y026633D01*
X052924Y026633D01*
X052741Y026695D02*
X052679Y026633D01*
X052494Y026633D01*
X052372Y026633D02*
X052248Y026633D01*
X052310Y026633D02*
X052310Y026880D01*
X052248Y026880D01*
X052127Y026818D02*
X052127Y026633D01*
X052127Y026818D02*
X052065Y026880D01*
X051880Y026880D01*
X051880Y026633D01*
X051758Y026695D02*
X051758Y027004D01*
X051697Y027233D02*
X051758Y027295D01*
X051697Y027233D02*
X051573Y027233D01*
X051511Y027295D01*
X051511Y027542D01*
X051573Y027604D01*
X051697Y027604D01*
X051758Y027542D01*
X051880Y027542D02*
X051880Y027295D01*
X051941Y027233D01*
X052065Y027233D01*
X052127Y027295D01*
X052248Y027233D02*
X052248Y027604D01*
X052372Y027480D01*
X052495Y027604D01*
X052495Y027233D01*
X052616Y027172D02*
X052863Y027172D01*
X052985Y027295D02*
X053232Y027542D01*
X053232Y027295D01*
X053170Y027233D01*
X053046Y027233D01*
X052985Y027295D01*
X052985Y027542D01*
X053046Y027604D01*
X053170Y027604D01*
X053232Y027542D01*
X053353Y027542D02*
X053415Y027604D01*
X053538Y027604D01*
X053600Y027542D01*
X053353Y027295D01*
X053415Y027233D01*
X053538Y027233D01*
X053600Y027295D01*
X053600Y027542D01*
X053721Y027542D02*
X053783Y027604D01*
X053907Y027604D01*
X053968Y027542D01*
X053721Y027295D01*
X053783Y027233D01*
X053907Y027233D01*
X053968Y027295D01*
X053968Y027542D01*
X054090Y027480D02*
X054213Y027604D01*
X054213Y027233D01*
X054090Y027233D02*
X054337Y027233D01*
X054581Y027004D02*
X054519Y026942D01*
X054519Y026880D01*
X054581Y026818D01*
X054705Y026818D01*
X054766Y026757D01*
X054766Y026695D01*
X054705Y026633D01*
X054581Y026633D01*
X054519Y026695D01*
X054581Y027004D02*
X054705Y027004D01*
X054766Y026942D01*
X054888Y026880D02*
X055011Y026880D01*
X054949Y026942D02*
X054949Y026695D01*
X055011Y026633D01*
X055133Y026695D02*
X055133Y026818D01*
X055195Y026880D01*
X055318Y026880D01*
X055380Y026818D01*
X055380Y026757D01*
X055133Y026757D01*
X055133Y026695D02*
X055195Y026633D01*
X055318Y026633D01*
X055502Y026633D02*
X055687Y026633D01*
X055748Y026695D01*
X055748Y026818D01*
X055687Y026880D01*
X055502Y026880D01*
X055502Y026510D01*
X055870Y026510D02*
X055870Y026880D01*
X056055Y026880D01*
X056117Y026818D01*
X056117Y026695D01*
X056055Y026633D01*
X055870Y026633D01*
X056238Y026695D02*
X056238Y026818D01*
X056300Y026880D01*
X056423Y026880D01*
X056485Y026818D01*
X056485Y026757D01*
X056238Y026757D01*
X056238Y026695D02*
X056300Y026633D01*
X056423Y026633D01*
X056606Y026633D02*
X056606Y026880D01*
X056606Y026757D02*
X056730Y026880D01*
X056792Y026880D01*
X057282Y027004D02*
X057282Y026633D01*
X057529Y026633D02*
X057529Y027004D01*
X057405Y026880D01*
X057282Y027004D01*
X057650Y026818D02*
X057650Y026695D01*
X057712Y026633D01*
X057835Y026633D01*
X057897Y026695D01*
X057897Y026818D01*
X057835Y026880D01*
X057712Y026880D01*
X057650Y026818D01*
X058018Y026880D02*
X058142Y026880D01*
X058080Y026942D02*
X058080Y026695D01*
X058142Y026633D01*
X058264Y026695D02*
X058326Y026633D01*
X058449Y026633D01*
X058511Y026695D01*
X058511Y026818D01*
X058449Y026880D01*
X058326Y026880D01*
X058264Y026818D01*
X058264Y026695D01*
X058632Y026633D02*
X058632Y026880D01*
X058632Y026757D02*
X058756Y026880D01*
X058817Y026880D01*
X059307Y026942D02*
X059307Y026695D01*
X059369Y026633D01*
X059493Y026633D01*
X059554Y026695D01*
X059676Y026695D02*
X059737Y026633D01*
X059861Y026633D01*
X059923Y026695D01*
X059923Y026818D01*
X059861Y026880D01*
X059737Y026880D01*
X059676Y026818D01*
X059676Y026695D01*
X059554Y026942D02*
X059493Y027004D01*
X059369Y027004D01*
X059307Y026942D01*
X060044Y026880D02*
X060044Y026633D01*
X060291Y026633D02*
X060291Y026818D01*
X060229Y026880D01*
X060044Y026880D01*
X060412Y026880D02*
X060536Y026880D01*
X060474Y026942D02*
X060474Y026695D01*
X060536Y026633D01*
X060658Y026633D02*
X060658Y026880D01*
X060658Y026757D02*
X060781Y026880D01*
X060843Y026880D01*
X060965Y026818D02*
X060965Y026695D01*
X061027Y026633D01*
X061150Y026633D01*
X061212Y026695D01*
X061212Y026818D01*
X061150Y026880D01*
X061027Y026880D01*
X060965Y026818D01*
X061333Y026633D02*
X061457Y026633D01*
X061395Y026633D02*
X061395Y027004D01*
X061333Y027004D01*
X061579Y027004D02*
X061640Y027004D01*
X061640Y026633D01*
X061579Y026633D02*
X061702Y026633D01*
X061824Y026695D02*
X061824Y026818D01*
X061886Y026880D01*
X062009Y026880D01*
X062071Y026818D01*
X062071Y026757D01*
X061824Y026757D01*
X061824Y026695D02*
X061886Y026633D01*
X062009Y026633D01*
X062193Y026633D02*
X062193Y026880D01*
X062316Y026880D02*
X062378Y026880D01*
X062316Y026880D02*
X062193Y026757D01*
X054337Y025618D02*
X054090Y025618D01*
X054275Y025804D01*
X054275Y025433D01*
X053968Y025433D02*
X053721Y025433D01*
X053845Y025433D02*
X053845Y025804D01*
X053721Y025680D01*
X053600Y025742D02*
X053353Y025495D01*
X053415Y025433D01*
X053538Y025433D01*
X053600Y025495D01*
X053600Y025742D01*
X053538Y025804D01*
X053415Y025804D01*
X053353Y025742D01*
X053353Y025495D01*
X052862Y025265D02*
X052862Y025204D01*
X052556Y025018D02*
X052432Y025018D01*
X052432Y024833D02*
X052432Y025204D01*
X052248Y025495D02*
X052248Y025618D01*
X052310Y025680D01*
X052495Y025680D01*
X052372Y026033D02*
X052495Y026280D01*
X052494Y026510D02*
X052494Y026880D01*
X052679Y026880D01*
X052741Y026818D01*
X052741Y026695D01*
X053230Y026633D02*
X053354Y026633D01*
X053292Y026633D02*
X053292Y027004D01*
X053230Y027004D01*
X053353Y027295D02*
X053353Y027542D01*
X053721Y027542D02*
X053721Y027295D01*
X053661Y026880D02*
X053723Y026818D01*
X053723Y026633D01*
X053538Y026633D01*
X053476Y026695D01*
X053538Y026757D01*
X053723Y026757D01*
X053844Y026757D02*
X053968Y026880D01*
X054029Y026880D01*
X053844Y026880D02*
X053844Y026633D01*
X053661Y026880D02*
X053538Y026880D01*
X052310Y027004D02*
X052310Y027065D01*
X052127Y027542D02*
X052065Y027604D01*
X051941Y027604D01*
X051880Y027542D01*
X051511Y027004D02*
X051511Y026695D01*
X051573Y026633D01*
X051697Y026633D01*
X051758Y026695D01*
X051697Y026404D02*
X051758Y026342D01*
X051758Y026218D01*
X051697Y026157D01*
X051511Y026157D01*
X051511Y026033D02*
X051511Y026404D01*
X051697Y026404D01*
X051635Y026157D02*
X051758Y026033D01*
X051880Y026095D02*
X051880Y026218D01*
X051941Y026280D01*
X052065Y026280D01*
X052127Y026218D01*
X052127Y026157D01*
X051880Y026157D01*
X051880Y026095D02*
X051941Y026033D01*
X052065Y026033D01*
X052248Y026280D02*
X052372Y026033D01*
X051941Y024895D02*
X051880Y024895D01*
X051880Y024833D01*
X051941Y024833D01*
X051941Y024895D01*
D13*
X046885Y029918D03*
X036600Y024728D03*
X031605Y024338D03*
X030145Y024173D03*
X031605Y023138D03*
X030145Y025383D03*
X021615Y028343D03*
X020015Y028343D03*
X019190Y028343D03*
X018565Y028343D03*
X022325Y018098D03*
X022325Y016898D03*
X022325Y015673D03*
X038160Y017518D03*
X038710Y016293D03*
X043910Y006768D03*
X043910Y005543D03*
D14*
X052635Y006678D02*
X052635Y009258D01*
X054035Y009258D01*
X054035Y006678D01*
X052635Y006678D01*
X052635Y010603D02*
X052635Y013183D01*
X054035Y013183D01*
X054035Y010603D01*
X052635Y010603D01*
X052610Y016303D02*
X052610Y018883D01*
X054010Y018883D01*
X054010Y016303D01*
X052610Y016303D01*
X052610Y020153D02*
X052610Y022733D01*
X054010Y022733D01*
X054010Y020153D01*
X052610Y020153D01*
X057771Y020730D02*
X061315Y020730D01*
X061748Y021163D01*
X061748Y024273D02*
X061315Y024706D01*
X057771Y024706D01*
X058825Y024996D02*
X058825Y025941D01*
X059416Y025941D01*
X060203Y025941D02*
X060636Y025941D01*
X060794Y025783D01*
X060794Y025153D01*
X060636Y024996D01*
X060203Y024996D01*
X059416Y024996D02*
X058825Y024996D01*
X051200Y028058D02*
X051200Y030418D01*
X048619Y030418D01*
X048620Y028058D01*
X048357Y029559D02*
X047412Y029559D01*
X047412Y030150D01*
X048357Y030150D02*
X048357Y029559D01*
X048357Y030937D02*
X048357Y031370D01*
X048199Y031528D01*
X047570Y031528D01*
X047412Y031370D01*
X047412Y030937D01*
X051537Y030937D02*
X051537Y031370D01*
X051695Y031528D01*
X052324Y031528D01*
X052482Y031370D01*
X052482Y030937D01*
X052482Y030150D02*
X052482Y029559D01*
X051537Y029559D01*
X051537Y030150D01*
X032166Y028958D02*
X032166Y028643D01*
X031929Y028643D01*
X031300Y028643D02*
X031063Y028643D01*
X031063Y028958D01*
X021873Y027577D02*
X021873Y025609D01*
X020306Y025609D01*
X020306Y027577D01*
X021873Y027577D01*
X021290Y025609D02*
X021288Y025636D01*
X021283Y025663D01*
X021273Y025689D01*
X021261Y025713D01*
X021245Y025735D01*
X021227Y025755D01*
X021205Y025772D01*
X021182Y025787D01*
X021157Y025797D01*
X021131Y025805D01*
X021104Y025809D01*
X021076Y025809D01*
X021049Y025805D01*
X021023Y025797D01*
X020998Y025787D01*
X020975Y025772D01*
X020953Y025755D01*
X020935Y025735D01*
X020919Y025713D01*
X020907Y025689D01*
X020897Y025663D01*
X020892Y025636D01*
X020890Y025609D01*
X018776Y020212D02*
X013205Y020212D01*
X013205Y014484D01*
X018776Y014484D01*
X018776Y020212D01*
X013176Y019868D02*
X009760Y019868D01*
X009760Y014829D01*
X013166Y014829D01*
X009711Y015419D02*
X004859Y015419D01*
X004859Y019277D01*
X009721Y019277D01*
X013160Y012737D02*
X013160Y007009D01*
X018731Y007009D01*
X018731Y012737D01*
X013160Y012737D01*
X013131Y012393D02*
X009715Y012393D01*
X009715Y007354D01*
X013121Y007354D01*
X009666Y007944D02*
X004814Y007944D01*
X004814Y011802D01*
X009676Y011802D01*
D15*
X049910Y030608D03*
D16*
X046885Y031219D03*
X055134Y029143D03*
X053609Y023043D03*
X053559Y019193D03*
X045034Y013868D03*
X053609Y013493D03*
X053609Y009593D03*
X027989Y029018D03*
D17*
X028640Y026155D02*
X028640Y026131D01*
X033255Y022655D02*
X033255Y022631D01*
X033255Y021635D02*
X033255Y021611D01*
X036260Y021070D02*
X036260Y021046D01*
X036260Y019800D02*
X036260Y019776D01*
X036260Y018480D02*
X036260Y018456D01*
X036270Y017125D02*
X036270Y017101D01*
X038148Y016293D02*
X038172Y016293D01*
X040060Y016456D02*
X040060Y016480D01*
X040385Y018456D02*
X040385Y018480D01*
X049148Y019568D02*
X049172Y019568D01*
X048972Y022068D02*
X048948Y022068D01*
X055148Y015918D02*
X055172Y015918D01*
X048997Y015093D02*
X048973Y015093D01*
X048998Y011193D02*
X049022Y011193D01*
X047172Y008268D02*
X047148Y008268D01*
X055348Y006318D02*
X055372Y006318D01*
X026990Y009816D02*
X026990Y009840D01*
X026910Y011516D02*
X026910Y011540D01*
X022990Y011876D02*
X022990Y011900D01*
X023238Y016623D02*
X023262Y016623D01*
X017800Y021641D02*
X017800Y021665D01*
X017925Y024791D02*
X017925Y024815D01*
X019165Y026681D02*
X019165Y026705D01*
X021090Y025330D02*
X021090Y025306D01*
X020627Y028343D02*
X020603Y028343D01*
X022228Y028343D02*
X022252Y028343D01*
X037715Y026105D02*
X037715Y026081D01*
X040028Y028643D02*
X040052Y028643D01*
D18*
X037715Y026593D03*
X032790Y028493D03*
X026815Y029018D03*
X016375Y026078D03*
X016400Y025078D03*
X016400Y022953D03*
X016375Y021953D03*
X021020Y018448D03*
X021100Y011048D03*
X040060Y016958D03*
X046235Y015468D03*
X051160Y013493D03*
X052435Y013493D03*
X054260Y015593D03*
X052410Y019193D03*
X051135Y019193D03*
X051135Y023043D03*
X052435Y023043D03*
X056435Y029143D03*
X052435Y009593D03*
X051135Y009593D03*
X054510Y005968D03*
D19*
X046310Y006718D02*
X046310Y004968D01*
X044310Y004968D01*
X044310Y006718D01*
X046310Y006718D01*
X046310Y007468D01*
X044310Y007468D01*
X044310Y006718D01*
X055884Y011899D02*
X056160Y012391D01*
X056435Y011899D01*
X055884Y011899D01*
X056984Y013274D02*
X057260Y013766D01*
X057535Y013274D01*
X056984Y013274D01*
X056435Y014724D02*
X055884Y014724D01*
X056160Y015216D01*
X056435Y014724D01*
X058059Y014649D02*
X058335Y015141D01*
X058610Y014649D01*
X058059Y014649D01*
X057535Y016099D02*
X056984Y016099D01*
X057260Y016591D01*
X057535Y016099D01*
X059159Y016049D02*
X059435Y016541D01*
X059710Y016049D01*
X059159Y016049D01*
X058610Y017474D02*
X058059Y017474D01*
X058335Y017966D01*
X058610Y017474D01*
X059159Y018874D02*
X059435Y019366D01*
X059710Y018874D01*
X059159Y018874D01*
X060210Y019593D02*
X061960Y019593D01*
X061960Y013593D01*
X060210Y013593D01*
X060210Y019593D01*
X061960Y019593D02*
X062710Y019593D01*
X062710Y013593D01*
X061960Y013593D01*
X037515Y029068D02*
X037515Y029818D01*
X033515Y029818D01*
X033515Y031568D01*
X037515Y031568D01*
X037515Y029818D01*
X037515Y029068D02*
X033515Y029068D01*
X033515Y029818D01*
X029015Y029568D02*
X029015Y030318D01*
X024015Y030318D01*
X024015Y032068D01*
X029015Y032068D01*
X029015Y030318D01*
X029015Y029568D02*
X024015Y029568D01*
X024015Y030318D01*
X022715Y029568D02*
X017715Y029568D01*
X017715Y031318D01*
X022715Y031318D01*
X022715Y029568D01*
X022715Y031318D02*
X022715Y032068D01*
X017715Y032068D01*
X017715Y031318D01*
X015700Y026578D02*
X014950Y026578D01*
X014950Y023578D01*
X013200Y023578D01*
X013200Y026578D01*
X014950Y026578D01*
X015700Y026578D02*
X015700Y023578D01*
X014950Y023578D01*
X014950Y023453D02*
X014950Y020453D01*
X013200Y020453D01*
X013200Y023453D01*
X014950Y023453D01*
X015700Y023453D01*
X015700Y020453D01*
X014950Y020453D01*
X025640Y017318D02*
X025640Y015568D01*
X031640Y015568D01*
X031640Y014818D01*
X025640Y014818D01*
X025640Y015568D01*
X025640Y017318D02*
X031640Y017318D01*
X031640Y015568D01*
X054985Y029818D02*
X054985Y031568D01*
X056985Y031568D01*
X056985Y029818D01*
X054985Y029818D01*
X054985Y031568D02*
X054985Y032318D01*
X056985Y032318D01*
X056985Y031568D01*
D20*
X006644Y017348D03*
X006599Y009873D03*
D21*
X022690Y017666D02*
X022690Y018281D01*
X023810Y018281D02*
X023810Y017666D01*
X032645Y022123D02*
X032643Y022162D01*
X032637Y022201D01*
X032628Y022239D01*
X032615Y022276D01*
X032598Y022312D01*
X032578Y022345D01*
X032554Y022377D01*
X032528Y022406D01*
X031845Y022123D02*
X031847Y022084D01*
X031853Y022045D01*
X031862Y022007D01*
X031875Y021970D01*
X031892Y021934D01*
X031912Y021901D01*
X031936Y021869D01*
X031962Y021840D01*
X031845Y022123D02*
X031847Y022162D01*
X031853Y022201D01*
X031862Y022239D01*
X031875Y022276D01*
X031892Y022312D01*
X031912Y022345D01*
X031936Y022377D01*
X031962Y022406D01*
X032645Y022123D02*
X032643Y022084D01*
X032637Y022045D01*
X032628Y022007D01*
X032615Y021970D01*
X032598Y021934D01*
X032578Y021901D01*
X032554Y021869D01*
X032528Y021840D01*
X027815Y024793D02*
X027158Y024793D01*
X026771Y024793D02*
X026658Y024793D01*
X026271Y024793D02*
X026158Y024793D01*
X025771Y024793D02*
X025658Y024793D01*
X025271Y024793D02*
X025158Y024793D01*
X024771Y024793D02*
X024272Y024793D01*
X024114Y024950D01*
X024114Y025450D01*
X024114Y025837D02*
X024114Y025950D01*
X024114Y026337D02*
X024114Y026450D01*
X024114Y026837D02*
X024114Y026950D01*
X024114Y027337D02*
X024114Y027450D01*
X024114Y027837D02*
X024114Y028336D01*
X024272Y028494D01*
X024771Y028494D01*
X025158Y028494D02*
X025271Y028494D01*
X025658Y028494D02*
X025771Y028494D01*
X026158Y028494D02*
X026271Y028494D01*
X026658Y028494D02*
X026771Y028494D01*
X027158Y028494D02*
X027421Y028494D01*
X027815Y027907D01*
X027815Y027837D01*
X027815Y027450D02*
X027815Y027337D01*
X027815Y026950D02*
X027815Y026837D01*
X027815Y026450D02*
X027815Y026337D01*
X027815Y025950D02*
X027815Y025837D01*
X027815Y025450D02*
X027815Y024793D01*
X030865Y025393D02*
X030865Y026143D01*
X031515Y026593D02*
X031815Y026593D01*
X032315Y026593D02*
X032315Y026113D01*
X032165Y026113D01*
X032165Y027073D01*
X032315Y027073D01*
X032315Y026593D01*
X032615Y026593D01*
X032565Y026383D02*
X032565Y026133D01*
X032435Y026253D02*
X032695Y026253D01*
X033265Y026143D02*
X033265Y025393D01*
X033263Y025354D01*
X033257Y025315D01*
X033248Y025277D01*
X033235Y025240D01*
X033218Y025204D01*
X033198Y025171D01*
X033174Y025139D01*
X033148Y025110D01*
X033119Y025084D01*
X033087Y025060D01*
X033054Y025040D01*
X033018Y025023D01*
X032981Y025010D01*
X032943Y025001D01*
X032904Y024995D01*
X032865Y024993D01*
X031265Y024993D01*
X031226Y024995D01*
X031187Y025001D01*
X031149Y025010D01*
X031112Y025023D01*
X031076Y025040D01*
X031043Y025060D01*
X031011Y025084D01*
X030982Y025110D01*
X030956Y025139D01*
X030932Y025171D01*
X030912Y025204D01*
X030895Y025240D01*
X030882Y025277D01*
X030873Y025315D01*
X030867Y025354D01*
X030865Y025393D01*
X030865Y027043D02*
X030865Y027793D01*
X030867Y027832D01*
X030873Y027871D01*
X030882Y027909D01*
X030895Y027946D01*
X030912Y027982D01*
X030932Y028015D01*
X030956Y028047D01*
X030982Y028076D01*
X031011Y028102D01*
X031043Y028126D01*
X031076Y028146D01*
X031112Y028163D01*
X031149Y028176D01*
X031187Y028185D01*
X031226Y028191D01*
X031265Y028193D01*
X032865Y028193D01*
X032904Y028191D01*
X032943Y028185D01*
X032981Y028176D01*
X033018Y028163D01*
X033054Y028146D01*
X033087Y028126D01*
X033119Y028102D01*
X033148Y028076D01*
X033174Y028047D01*
X033198Y028015D01*
X033218Y027982D01*
X033235Y027946D01*
X033248Y027909D01*
X033257Y027871D01*
X033263Y027832D01*
X033265Y027793D01*
X033265Y027043D01*
X034620Y027193D02*
X034622Y027216D01*
X034627Y027239D01*
X034636Y027261D01*
X034649Y027281D01*
X034664Y027299D01*
X034682Y027314D01*
X034702Y027327D01*
X034724Y027336D01*
X034747Y027341D01*
X034770Y027343D01*
X036010Y027343D01*
X036033Y027341D01*
X036056Y027336D01*
X036078Y027327D01*
X036098Y027314D01*
X036116Y027299D01*
X036131Y027281D01*
X036144Y027261D01*
X036153Y027239D01*
X036158Y027216D01*
X036160Y027193D01*
X036160Y025493D02*
X036158Y025470D01*
X036153Y025447D01*
X036144Y025425D01*
X036131Y025405D01*
X036116Y025387D01*
X036098Y025372D01*
X036078Y025359D01*
X036056Y025350D01*
X036033Y025345D01*
X036010Y025343D01*
X035590Y025343D01*
X035190Y025343D01*
X034770Y025343D01*
X034747Y025345D01*
X034724Y025350D01*
X034702Y025359D01*
X034682Y025372D01*
X034664Y025387D01*
X034649Y025405D01*
X034636Y025425D01*
X034627Y025447D01*
X034622Y025470D01*
X034620Y025493D01*
X035190Y025343D02*
X035192Y025370D01*
X035197Y025397D01*
X035207Y025423D01*
X035219Y025447D01*
X035235Y025469D01*
X035253Y025489D01*
X035275Y025506D01*
X035298Y025521D01*
X035323Y025531D01*
X035349Y025539D01*
X035376Y025543D01*
X035404Y025543D01*
X035431Y025539D01*
X035457Y025531D01*
X035482Y025521D01*
X035505Y025506D01*
X035527Y025489D01*
X035545Y025469D01*
X035561Y025447D01*
X035573Y025423D01*
X035583Y025397D01*
X035588Y025370D01*
X035590Y025343D01*
X050400Y021228D02*
X050400Y020908D01*
X050400Y021228D02*
X050620Y021228D01*
X051300Y021228D02*
X051520Y021228D01*
X051520Y020908D01*
X051420Y017378D02*
X051200Y017378D01*
X051420Y017378D02*
X051420Y017058D01*
X050520Y017378D02*
X050300Y017378D01*
X050300Y017058D01*
X051530Y015723D02*
X052699Y015723D01*
X052699Y014563D02*
X051530Y014563D01*
X051545Y011653D02*
X051325Y011653D01*
X051545Y011653D02*
X051545Y011333D01*
X050645Y011653D02*
X050425Y011653D01*
X050425Y011333D01*
X050400Y007753D02*
X050620Y007753D01*
X050400Y007753D02*
X050400Y007433D01*
X051300Y007753D02*
X051520Y007753D01*
X051520Y007433D01*
X051705Y006098D02*
X052874Y006098D01*
X052874Y004938D02*
X051705Y004938D01*
X056935Y007968D02*
X056935Y008468D01*
X056685Y008218D02*
X057185Y008218D01*
X058485Y008218D02*
X058585Y008218D01*
X058585Y008718D01*
X058835Y008718D01*
X058835Y007718D01*
X058585Y007718D01*
X058585Y008218D01*
X056185Y008218D02*
X056187Y008323D01*
X056193Y008427D01*
X056203Y008531D01*
X056217Y008635D01*
X056235Y008738D01*
X056256Y008841D01*
X056282Y008942D01*
X056312Y009043D01*
X056345Y009142D01*
X056382Y009240D01*
X056423Y009337D01*
X056467Y009431D01*
X056515Y009524D01*
X056567Y009616D01*
X056622Y009705D01*
X056680Y009792D01*
X056741Y009876D01*
X056806Y009959D01*
X056874Y010039D01*
X056945Y010116D01*
X057018Y010190D01*
X057095Y010262D01*
X057174Y010330D01*
X057256Y010396D01*
X057340Y010458D01*
X057426Y010517D01*
X057515Y010573D01*
X057606Y010625D01*
X057698Y010674D01*
X057793Y010719D01*
X057889Y010761D01*
X057986Y010799D01*
X058085Y010833D01*
X058185Y010864D01*
X058287Y010890D01*
X058389Y010913D01*
X058492Y010932D01*
X058596Y010947D01*
X058700Y010958D01*
X058804Y010965D01*
X058909Y010968D01*
X059014Y010967D01*
X059118Y010962D01*
X059222Y010953D01*
X059326Y010940D01*
X059430Y010923D01*
X059532Y010902D01*
X059634Y010878D01*
X059735Y010849D01*
X059834Y010817D01*
X059933Y010781D01*
X060030Y010741D01*
X060125Y010697D01*
X060218Y010650D01*
X060310Y010600D01*
X060400Y010545D01*
X060487Y010488D01*
X060573Y010427D01*
X060655Y010363D01*
X060736Y010296D01*
X060814Y010226D01*
X060889Y010153D01*
X060961Y010077D01*
X061030Y009999D01*
X061097Y009918D01*
X061160Y009834D01*
X061220Y009749D01*
X061276Y009660D01*
X061330Y009570D01*
X061379Y009478D01*
X061425Y009384D01*
X061468Y009288D01*
X061507Y009191D01*
X061542Y009093D01*
X061574Y008993D01*
X061601Y008892D01*
X061625Y008790D01*
X061645Y008687D01*
X061661Y008583D01*
X061673Y008479D01*
X061681Y008375D01*
X061685Y008270D01*
X061685Y008166D01*
X061681Y008061D01*
X061673Y007957D01*
X061661Y007853D01*
X061645Y007749D01*
X061625Y007646D01*
X061601Y007544D01*
X061574Y007443D01*
X061542Y007343D01*
X061507Y007245D01*
X061468Y007148D01*
X061425Y007052D01*
X061379Y006958D01*
X061330Y006866D01*
X061276Y006776D01*
X061220Y006687D01*
X061160Y006602D01*
X061097Y006518D01*
X061030Y006437D01*
X060961Y006359D01*
X060889Y006283D01*
X060814Y006210D01*
X060736Y006140D01*
X060655Y006073D01*
X060573Y006009D01*
X060487Y005948D01*
X060400Y005891D01*
X060310Y005836D01*
X060218Y005786D01*
X060125Y005739D01*
X060030Y005695D01*
X059933Y005655D01*
X059834Y005619D01*
X059735Y005587D01*
X059634Y005558D01*
X059532Y005534D01*
X059430Y005513D01*
X059326Y005496D01*
X059222Y005483D01*
X059118Y005474D01*
X059014Y005469D01*
X058909Y005468D01*
X058804Y005471D01*
X058700Y005478D01*
X058596Y005489D01*
X058492Y005504D01*
X058389Y005523D01*
X058287Y005546D01*
X058185Y005572D01*
X058085Y005603D01*
X057986Y005637D01*
X057889Y005675D01*
X057793Y005717D01*
X057698Y005762D01*
X057606Y005811D01*
X057515Y005863D01*
X057426Y005919D01*
X057340Y005978D01*
X057256Y006040D01*
X057174Y006106D01*
X057095Y006174D01*
X057018Y006246D01*
X056945Y006320D01*
X056874Y006397D01*
X056806Y006477D01*
X056741Y006560D01*
X056680Y006644D01*
X056622Y006731D01*
X056567Y006820D01*
X056515Y006912D01*
X056467Y007005D01*
X056423Y007099D01*
X056382Y007196D01*
X056345Y007294D01*
X056312Y007393D01*
X056282Y007494D01*
X056256Y007595D01*
X056235Y007698D01*
X056217Y007801D01*
X056203Y007905D01*
X056193Y008009D01*
X056187Y008113D01*
X056185Y008218D01*
X059185Y008218D02*
X059385Y008218D01*
D22*
X031865Y026593D03*
D23*
X056160Y015235D03*
X057260Y016610D03*
X059435Y016560D03*
X058335Y015160D03*
X057260Y013785D03*
X056160Y012410D03*
X058335Y017985D03*
X059435Y019385D03*
D24*
X048102Y018393D02*
X048098Y018393D01*
X047952Y020868D02*
X047948Y020868D01*
X047952Y013868D02*
X047948Y013868D01*
X048002Y009968D02*
X047998Y009968D01*
X046210Y008855D02*
X046210Y008851D01*
X034237Y016763D02*
X034233Y016763D01*
X034227Y018093D02*
X034223Y018093D01*
X034227Y019413D02*
X034223Y019413D01*
X034227Y020683D02*
X034223Y020683D01*
X018486Y025703D02*
X018482Y025703D01*
X018332Y022578D02*
X018336Y022578D01*
X024993Y011153D02*
X024997Y011153D01*
X022477Y011043D02*
X022473Y011043D01*
X025003Y009463D02*
X025007Y009463D01*
D25*
X025200Y010022D02*
X025829Y010022D01*
X025819Y010594D02*
X025190Y010594D01*
X025190Y011712D02*
X025819Y011712D01*
X023299Y011602D02*
X022670Y011602D01*
X022670Y010484D02*
X023299Y010484D01*
X025200Y008904D02*
X025829Y008904D01*
X034430Y016204D02*
X035059Y016204D01*
X035059Y017322D02*
X034430Y017322D01*
X034420Y017534D02*
X035049Y017534D01*
X035049Y018652D02*
X034420Y018652D01*
X034420Y018854D02*
X035049Y018854D01*
X035049Y019972D02*
X034420Y019972D01*
X034420Y020124D02*
X035049Y020124D01*
X035049Y021242D02*
X034420Y021242D01*
X039690Y024918D02*
X039690Y027918D01*
X041890Y027918D01*
X041890Y024718D01*
X039890Y024718D01*
X039690Y024918D01*
X046435Y027268D02*
X046435Y028268D01*
X048135Y028268D01*
X048135Y027268D01*
X046435Y027268D01*
X053635Y030168D02*
X054635Y030168D01*
X054635Y031868D01*
X053635Y031868D01*
X053635Y030168D01*
X057310Y030118D02*
X057310Y031818D01*
X058310Y031818D01*
X058310Y030118D01*
X057310Y030118D01*
X048774Y021427D02*
X048145Y021427D01*
X048145Y020309D02*
X048774Y020309D01*
X048924Y018952D02*
X048295Y018952D01*
X048295Y017834D02*
X048924Y017834D01*
X048774Y014427D02*
X048145Y014427D01*
X048145Y013309D02*
X048774Y013309D01*
X048824Y010527D02*
X048195Y010527D01*
X048195Y009409D02*
X048824Y009409D01*
X046769Y008658D02*
X046769Y008028D01*
X045650Y008028D02*
X045650Y008658D01*
X018139Y022019D02*
X017510Y022019D01*
X017510Y023137D02*
X018139Y023137D01*
X018289Y025144D02*
X017660Y025144D01*
X017660Y026262D02*
X018289Y026262D01*
D26*
X018234Y026207D02*
X018234Y025203D01*
X017719Y025203D01*
X017719Y026207D01*
X018234Y026207D01*
X018084Y023082D02*
X017569Y023082D01*
X017569Y022078D01*
X018084Y022078D01*
X018084Y023082D01*
X034475Y021183D02*
X034475Y020179D01*
X034990Y020179D01*
X034990Y021183D01*
X034475Y021183D01*
X034475Y019913D02*
X034990Y019913D01*
X034990Y018909D01*
X034475Y018909D01*
X034475Y019913D01*
X034475Y018593D02*
X034990Y018593D01*
X034990Y017589D01*
X034475Y017589D01*
X034475Y018593D01*
X034485Y017263D02*
X035000Y017263D01*
X035000Y016259D01*
X034485Y016259D01*
X034485Y017263D01*
X025760Y011653D02*
X025245Y011653D01*
X025245Y010649D01*
X025760Y010649D01*
X025760Y011653D01*
X023240Y011543D02*
X023240Y010539D01*
X022725Y010539D01*
X022725Y011543D01*
X023240Y011543D01*
X025255Y009963D02*
X025770Y009963D01*
X025770Y008959D01*
X025255Y008959D01*
X025255Y009963D01*
X045706Y008603D02*
X045706Y008087D01*
X046710Y008087D01*
X046710Y008603D01*
X045706Y008603D01*
X048250Y009464D02*
X048250Y010468D01*
X048765Y010468D01*
X048765Y009464D01*
X048250Y009464D01*
X048200Y013364D02*
X048200Y014368D01*
X048715Y014368D01*
X048715Y013364D01*
X048200Y013364D01*
X048350Y017889D02*
X048350Y018893D01*
X048865Y018893D01*
X048865Y017889D01*
X048350Y017889D01*
X048200Y020364D02*
X048200Y021368D01*
X048715Y021368D01*
X048715Y020364D01*
X048200Y020364D01*
D27*
X051629Y020813D02*
X051629Y020907D01*
X051676Y020954D01*
X051723Y020954D01*
X051769Y020907D01*
X051816Y020954D01*
X051863Y020954D01*
X051910Y020907D01*
X051910Y020813D01*
X051863Y020767D01*
X051769Y020860D02*
X051769Y020907D01*
X051676Y020767D02*
X051629Y020813D01*
X051672Y021677D02*
X051626Y021723D01*
X051626Y021817D01*
X051672Y021864D01*
X051719Y021864D01*
X051906Y021677D01*
X051906Y021864D01*
X051910Y022528D02*
X051910Y022715D01*
X051910Y022621D02*
X051629Y022621D01*
X051723Y022528D01*
X054329Y020559D02*
X054469Y020419D01*
X054469Y020605D01*
X054329Y020559D02*
X054610Y020559D01*
X051910Y018865D02*
X051910Y018678D01*
X051910Y018771D02*
X051629Y018771D01*
X051723Y018678D01*
X051719Y018014D02*
X051672Y018014D01*
X051626Y017967D01*
X051626Y017873D01*
X051672Y017827D01*
X051719Y018014D02*
X051906Y017827D01*
X051906Y018014D01*
X051863Y017104D02*
X051910Y017057D01*
X051910Y016963D01*
X051863Y016917D01*
X051769Y017010D02*
X051769Y017057D01*
X051816Y017104D01*
X051863Y017104D01*
X051769Y017057D02*
X051723Y017104D01*
X051676Y017104D01*
X051629Y017057D01*
X051629Y016963D01*
X051676Y016917D01*
X054329Y016709D02*
X054469Y016569D01*
X054469Y016755D01*
X054329Y016709D02*
X054610Y016709D01*
X051935Y013165D02*
X051935Y012978D01*
X051935Y013071D02*
X051654Y013071D01*
X051748Y012978D01*
X051744Y012314D02*
X051697Y012314D01*
X051651Y012267D01*
X051651Y012173D01*
X051697Y012127D01*
X051744Y012314D02*
X051931Y012127D01*
X051931Y012314D01*
X051888Y011404D02*
X051935Y011357D01*
X051935Y011263D01*
X051888Y011217D01*
X051794Y011310D02*
X051794Y011357D01*
X051841Y011404D01*
X051888Y011404D01*
X051794Y011357D02*
X051748Y011404D01*
X051701Y011404D01*
X051654Y011357D01*
X051654Y011263D01*
X051701Y011217D01*
X054354Y011009D02*
X054494Y010869D01*
X054494Y011055D01*
X054354Y011009D02*
X054635Y011009D01*
X051935Y009240D02*
X051935Y009053D01*
X051935Y009146D02*
X051654Y009146D01*
X051748Y009053D01*
X051744Y008389D02*
X051697Y008389D01*
X051651Y008342D01*
X051651Y008248D01*
X051697Y008202D01*
X051744Y008389D02*
X051931Y008202D01*
X051931Y008389D01*
X051888Y007479D02*
X051935Y007432D01*
X051935Y007338D01*
X051888Y007292D01*
X051794Y007385D02*
X051794Y007432D01*
X051841Y007479D01*
X051888Y007479D01*
X051794Y007432D02*
X051748Y007479D01*
X051701Y007479D01*
X051654Y007432D01*
X051654Y007338D01*
X051701Y007292D01*
X054354Y007084D02*
X054494Y006944D01*
X054494Y007130D01*
X054354Y007084D02*
X054635Y007084D01*
D28*
X059160Y008218D03*
D29*
X036469Y017318D02*
X036469Y017468D01*
X036394Y017393D01*
X036494Y017393D01*
X036347Y017368D02*
X036347Y017343D01*
X036322Y017318D01*
X036272Y017318D01*
X036247Y017343D01*
X036200Y017343D02*
X036175Y017318D01*
X036125Y017318D01*
X036100Y017343D01*
X036100Y017443D01*
X036125Y017468D01*
X036175Y017468D01*
X036200Y017443D01*
X036247Y017443D02*
X036272Y017468D01*
X036322Y017468D01*
X036347Y017443D01*
X036347Y017418D01*
X036322Y017393D01*
X036347Y017368D01*
X036322Y017393D02*
X036297Y017393D01*
X036312Y018698D02*
X036262Y018698D01*
X036237Y018723D01*
X036190Y018723D02*
X036165Y018698D01*
X036115Y018698D01*
X036090Y018723D01*
X036090Y018823D01*
X036115Y018848D01*
X036165Y018848D01*
X036190Y018823D01*
X036237Y018823D02*
X036262Y018848D01*
X036312Y018848D01*
X036337Y018823D01*
X036337Y018798D01*
X036312Y018773D01*
X036337Y018748D01*
X036337Y018723D01*
X036312Y018698D01*
X036384Y018698D02*
X036484Y018798D01*
X036484Y018823D01*
X036459Y018848D01*
X036409Y018848D01*
X036384Y018823D01*
X036312Y018773D02*
X036287Y018773D01*
X036384Y018698D02*
X036484Y018698D01*
X036434Y020043D02*
X036384Y020043D01*
X036359Y020068D01*
X036312Y020068D02*
X036287Y020043D01*
X036237Y020043D01*
X036212Y020068D01*
X036165Y020068D02*
X036140Y020043D01*
X036090Y020043D01*
X036065Y020068D01*
X036065Y020168D01*
X036090Y020193D01*
X036140Y020193D01*
X036165Y020168D01*
X036212Y020168D02*
X036237Y020193D01*
X036287Y020193D01*
X036312Y020168D01*
X036312Y020143D01*
X036287Y020118D01*
X036312Y020093D01*
X036312Y020068D01*
X036287Y020118D02*
X036262Y020118D01*
X036359Y020168D02*
X036384Y020193D01*
X036434Y020193D01*
X036459Y020168D01*
X036459Y020143D01*
X036434Y020118D01*
X036459Y020093D01*
X036459Y020068D01*
X036434Y020043D01*
X036434Y020118D02*
X036409Y020118D01*
X036409Y021288D02*
X036359Y021288D01*
X036334Y021313D01*
X036287Y021313D02*
X036262Y021288D01*
X036212Y021288D01*
X036187Y021313D01*
X036140Y021313D02*
X036115Y021288D01*
X036065Y021288D01*
X036040Y021313D01*
X036040Y021413D01*
X036065Y021438D01*
X036115Y021438D01*
X036140Y021413D01*
X036187Y021413D02*
X036212Y021438D01*
X036262Y021438D01*
X036287Y021413D01*
X036287Y021388D01*
X036262Y021363D01*
X036287Y021338D01*
X036287Y021313D01*
X036262Y021363D02*
X036237Y021363D01*
X036334Y021363D02*
X036384Y021388D01*
X036409Y021388D01*
X036434Y021363D01*
X036434Y021313D01*
X036409Y021288D01*
X036334Y021363D02*
X036334Y021438D01*
X036434Y021438D01*
X027014Y010283D02*
X027039Y010258D01*
X027039Y010233D01*
X027014Y010208D01*
X026964Y010208D01*
X026939Y010233D01*
X026939Y010258D01*
X026964Y010283D01*
X027014Y010283D01*
X027014Y010208D02*
X027039Y010183D01*
X027039Y010158D01*
X027014Y010133D01*
X026964Y010133D01*
X026939Y010158D01*
X026939Y010183D01*
X026964Y010208D01*
X026892Y010233D02*
X026892Y010258D01*
X026867Y010283D01*
X026817Y010283D01*
X026792Y010258D01*
X026745Y010258D02*
X026720Y010283D01*
X026670Y010283D01*
X026645Y010258D01*
X026645Y010158D01*
X026670Y010133D01*
X026720Y010133D01*
X026745Y010158D01*
X026792Y010133D02*
X026892Y010233D01*
X026892Y010133D02*
X026792Y010133D01*
D30*
X023702Y018170D03*
M02*
