G75*
%MOIN*%
%OFA0B0*%
%FSLAX25Y25*%
%IPPOS*%
%LPD*%
%AMOC8*
5,1,8,0,0,1.08239X$1,22.5*
%
%ADD10R,0.04000X0.04000*%
%ADD11C,0.05937*%
%ADD12R,0.02362X0.08661*%
%ADD13R,0.03150X0.03543*%
%ADD14C,0.05543*%
%ADD15R,0.03937X0.05906*%
%ADD16R,0.03937X0.07874*%
%ADD17C,0.08661*%
%ADD18R,0.05512X0.03937*%
%ADD19C,0.01600*%
%ADD20C,0.02800*%
%ADD21C,0.04000*%
%ADD22C,0.01200*%
D10*
X0026250Y0096506D03*
X0026250Y0104006D03*
X0033250Y0104006D03*
X0033250Y0096506D03*
X0039250Y0096506D03*
X0039250Y0104006D03*
X0046250Y0104006D03*
X0046250Y0096506D03*
X0073000Y0158506D03*
X0073000Y0164756D03*
X0080000Y0164756D03*
X0080000Y0158506D03*
X0091500Y0152006D03*
X0091500Y0145006D03*
X0096500Y0158506D03*
X0096500Y0164756D03*
X0101500Y0152006D03*
X0103500Y0158506D03*
X0103500Y0164756D03*
X0101500Y0145006D03*
X0111500Y0201756D03*
X0111500Y0208756D03*
X0111500Y0215506D03*
X0111500Y0222506D03*
X0114000Y0232506D03*
X0114000Y0239506D03*
X0107750Y0239506D03*
X0107750Y0232506D03*
X0101500Y0232506D03*
X0101500Y0239506D03*
X0092750Y0239506D03*
X0092750Y0232506D03*
X0077500Y0227256D03*
X0077500Y0221006D03*
X0070500Y0221006D03*
X0070500Y0227256D03*
X0062250Y0242756D03*
X0062250Y0249756D03*
X0061500Y0257506D03*
X0061500Y0264506D03*
X0061500Y0270006D03*
X0061500Y0277006D03*
X0055250Y0264506D03*
X0055250Y0257506D03*
X0040250Y0232006D03*
X0040250Y0225006D03*
X0034000Y0225006D03*
X0034000Y0232006D03*
X0025250Y0166006D03*
X0025250Y0159006D03*
X0019000Y0159006D03*
X0019000Y0166006D03*
X0052750Y0166006D03*
X0052750Y0159006D03*
X0059000Y0159006D03*
X0059000Y0166006D03*
X0086750Y0296006D03*
X0086750Y0302256D03*
X0089000Y0312506D03*
X0089000Y0319506D03*
X0089500Y0326006D03*
X0082500Y0326006D03*
X0082750Y0319506D03*
X0082750Y0312506D03*
X0073000Y0326006D03*
X0072750Y0319506D03*
X0072750Y0312506D03*
X0066500Y0312506D03*
X0066500Y0319506D03*
X0066000Y0326006D03*
X0093750Y0302256D03*
X0093750Y0296006D03*
X0101500Y0312506D03*
X0101500Y0319506D03*
X0101000Y0326006D03*
X0108000Y0326006D03*
X0107750Y0319506D03*
X0107750Y0312506D03*
X0117250Y0326006D03*
X0117750Y0319506D03*
X0117750Y0312506D03*
X0124000Y0312506D03*
X0124000Y0319506D03*
X0124250Y0326006D03*
X0127750Y0249506D03*
X0127750Y0242506D03*
D11*
X0121500Y0343038D02*
X0121500Y0348975D01*
X0111500Y0348975D02*
X0111500Y0343038D01*
X0099000Y0343038D02*
X0099000Y0348975D01*
X0089000Y0348975D02*
X0089000Y0343038D01*
X0076500Y0343038D02*
X0076500Y0348975D01*
X0066500Y0348975D02*
X0066500Y0343038D01*
X0134000Y0343038D02*
X0134000Y0348975D01*
X0144000Y0348975D02*
X0144000Y0343038D01*
X0046500Y0124225D02*
X0046500Y0118288D01*
X0036500Y0118288D02*
X0036500Y0124225D01*
X0026500Y0124225D02*
X0026500Y0118288D01*
X0136500Y0115788D02*
X0136500Y0121725D01*
X0146500Y0121725D02*
X0146500Y0115788D01*
X0156500Y0115788D02*
X0156500Y0121725D01*
D12*
X0101500Y0175396D03*
X0096500Y0175396D03*
X0091500Y0175396D03*
X0086500Y0175396D03*
X0081500Y0175396D03*
X0076500Y0175396D03*
X0071500Y0175396D03*
X0066500Y0175396D03*
X0066500Y0211617D03*
X0071500Y0211617D03*
X0076500Y0211617D03*
X0081500Y0211617D03*
X0086500Y0211617D03*
X0091500Y0211617D03*
X0096500Y0211617D03*
X0101500Y0211617D03*
X0102750Y0249146D03*
X0097750Y0249146D03*
X0092750Y0249146D03*
X0087750Y0249146D03*
X0082750Y0249146D03*
X0077750Y0249146D03*
X0072750Y0249146D03*
X0072750Y0285367D03*
X0077750Y0285367D03*
X0082750Y0285367D03*
X0087750Y0285367D03*
X0092750Y0285367D03*
X0097750Y0285367D03*
X0102750Y0285367D03*
X0107750Y0285367D03*
X0112750Y0285367D03*
X0117750Y0285367D03*
X0117750Y0249146D03*
X0112750Y0249146D03*
X0107750Y0249146D03*
D13*
X0135260Y0242069D03*
X0139000Y0250337D03*
X0142740Y0242069D03*
X0055240Y0243069D03*
X0051500Y0251337D03*
X0047760Y0243069D03*
D14*
X0091500Y0133506D03*
X0101500Y0133506D03*
D15*
X0059902Y0220957D03*
X0048098Y0220957D03*
X0044902Y0158806D03*
X0033098Y0158806D03*
D16*
X0039000Y0157806D03*
X0054000Y0221957D03*
D17*
X0054000Y0229504D02*
X0054000Y0229504D01*
X0054000Y0235410D01*
X0054000Y0235410D01*
X0054000Y0229504D01*
X0039000Y0150259D02*
X0039000Y0150259D01*
X0039000Y0144353D01*
X0039000Y0144353D01*
X0039000Y0150259D01*
D18*
X0075831Y0362266D03*
X0075831Y0369746D03*
X0067169Y0366006D03*
X0089669Y0366006D03*
X0098331Y0362266D03*
X0098331Y0369746D03*
X0112169Y0366006D03*
X0120831Y0362266D03*
X0120831Y0369746D03*
X0134669Y0366006D03*
X0143331Y0362266D03*
X0143331Y0369746D03*
D19*
X0143331Y0362266D02*
X0143331Y0346676D01*
X0144000Y0346006D01*
X0144000Y0321006D01*
X0135500Y0312506D01*
X0124000Y0312506D01*
X0124000Y0281006D01*
X0121500Y0278506D01*
X0117878Y0278506D01*
X0118000Y0278384D01*
X0118000Y0274756D01*
X0117878Y0278506D02*
X0115250Y0278506D01*
X0112750Y0281006D01*
X0112750Y0285367D01*
X0107750Y0285367D02*
X0107750Y0312506D01*
X0107750Y0319506D02*
X0107750Y0325756D01*
X0108000Y0326006D01*
X0108000Y0331006D01*
X0111500Y0334506D01*
X0111500Y0346006D01*
X0112169Y0346676D01*
X0112169Y0366006D01*
X0120831Y0362266D02*
X0120831Y0346676D01*
X0121500Y0346006D01*
X0121500Y0336006D02*
X0131500Y0336006D01*
X0134000Y0338506D01*
X0134000Y0346006D01*
X0134669Y0346676D01*
X0134669Y0366006D01*
X0121500Y0336006D02*
X0117250Y0331756D01*
X0117250Y0326006D01*
X0117750Y0325506D01*
X0117750Y0319506D01*
X0117750Y0312506D02*
X0117750Y0285367D01*
X0102750Y0285367D02*
X0102750Y0277256D01*
X0092750Y0285367D02*
X0092750Y0292506D01*
X0093750Y0293506D01*
X0093750Y0296006D01*
X0093750Y0302256D01*
X0095250Y0312506D02*
X0089000Y0312506D01*
X0089000Y0319506D02*
X0089000Y0325506D01*
X0089500Y0326006D01*
X0082500Y0331006D02*
X0089000Y0337506D01*
X0089000Y0346006D01*
X0089669Y0346676D01*
X0089669Y0366006D01*
X0098331Y0362266D02*
X0098331Y0346676D01*
X0099000Y0346006D01*
X0101000Y0326006D02*
X0101500Y0325506D01*
X0101500Y0319506D01*
X0101500Y0312506D02*
X0095250Y0312506D01*
X0086750Y0302256D02*
X0086750Y0296006D01*
X0086750Y0293506D01*
X0087750Y0292506D01*
X0087750Y0285367D01*
X0087750Y0277256D01*
X0082750Y0285367D02*
X0082750Y0312506D01*
X0082750Y0319506D02*
X0082750Y0325756D01*
X0082500Y0326006D01*
X0082500Y0331006D01*
X0076500Y0346006D02*
X0075831Y0346676D01*
X0075831Y0362266D01*
X0067169Y0366006D02*
X0067169Y0346676D01*
X0066500Y0346006D01*
X0066500Y0337506D01*
X0073000Y0331006D01*
X0073000Y0326006D01*
X0072750Y0325756D01*
X0072750Y0319506D01*
X0072750Y0312506D02*
X0072750Y0285367D01*
X0073008Y0278506D02*
X0069000Y0278506D01*
X0066500Y0281006D01*
X0066500Y0312506D01*
X0060250Y0312506D01*
X0066500Y0319506D02*
X0066500Y0325506D01*
X0066000Y0326006D01*
X0077750Y0285367D02*
X0077750Y0280006D01*
X0076250Y0278506D01*
X0073008Y0278506D01*
X0072750Y0278248D01*
X0072750Y0274756D01*
X0061500Y0270006D02*
X0061500Y0264506D01*
X0091750Y0264506D01*
X0097750Y0258506D01*
X0097750Y0249146D01*
X0097750Y0233506D01*
X0096750Y0232506D01*
X0092750Y0232506D01*
X0092750Y0239506D02*
X0092750Y0249146D01*
X0087750Y0249146D02*
X0082750Y0249146D01*
X0082750Y0257256D01*
X0072750Y0249146D02*
X0067110Y0249146D01*
X0066500Y0249756D01*
X0062250Y0249756D01*
X0058250Y0249756D01*
X0056669Y0251337D01*
X0051500Y0251337D01*
X0050250Y0257506D02*
X0055250Y0257506D01*
X0061500Y0257506D01*
X0061500Y0264506D02*
X0055250Y0264506D01*
X0062250Y0242756D02*
X0062250Y0237756D01*
X0064000Y0236006D01*
X0059902Y0220957D02*
X0070451Y0220957D01*
X0070500Y0221006D01*
X0070500Y0218506D01*
X0071500Y0217506D01*
X0071500Y0211617D01*
X0076500Y0211617D02*
X0076500Y0203506D01*
X0076500Y0211617D02*
X0076500Y0217506D01*
X0077500Y0218506D01*
X0077500Y0221006D01*
X0077500Y0227256D01*
X0070500Y0227256D02*
X0070500Y0221006D01*
X0054000Y0221957D02*
X0054000Y0216006D01*
X0054000Y0221957D02*
X0054000Y0232457D01*
X0040701Y0232457D01*
X0040250Y0232006D01*
X0034000Y0232006D01*
X0034000Y0225006D02*
X0040250Y0225006D01*
X0066500Y0182256D02*
X0066500Y0175396D01*
X0071500Y0175396D02*
X0071500Y0170256D01*
X0073000Y0168756D01*
X0073000Y0164756D01*
X0073000Y0158506D01*
X0080000Y0158506D02*
X0080000Y0164756D01*
X0080000Y0169256D01*
X0081500Y0170756D01*
X0081500Y0175396D01*
X0086500Y0175396D01*
X0086500Y0182256D01*
X0091500Y0175396D02*
X0091500Y0152006D01*
X0091500Y0146238D02*
X0091500Y0145006D01*
X0095500Y0145006D01*
X0096500Y0146006D01*
X0096500Y0151006D01*
X0097500Y0152006D01*
X0101500Y0152006D01*
X0103500Y0158506D02*
X0103500Y0164756D01*
X0103500Y0167756D01*
X0101500Y0169756D01*
X0101500Y0175396D01*
X0101500Y0182256D01*
X0096500Y0175396D02*
X0096500Y0164756D01*
X0096500Y0158506D01*
X0091500Y0145006D02*
X0091500Y0133506D01*
X0101500Y0133506D02*
X0101500Y0145006D01*
X0111500Y0201756D02*
X0117750Y0201756D01*
X0111500Y0208756D02*
X0111500Y0215506D01*
X0111500Y0222506D02*
X0101818Y0222506D01*
X0101500Y0222188D01*
X0101500Y0232506D01*
X0101500Y0239506D02*
X0101500Y0242256D01*
X0102750Y0243506D01*
X0102750Y0249146D01*
X0107750Y0249146D02*
X0107750Y0239506D01*
X0107750Y0232506D02*
X0114000Y0232506D01*
X0120000Y0232506D01*
X0120250Y0232256D01*
X0114000Y0239506D02*
X0114000Y0242256D01*
X0112750Y0243506D01*
X0112750Y0249146D01*
X0117750Y0249146D02*
X0123640Y0249146D01*
X0124000Y0249506D01*
X0127750Y0249506D01*
X0131500Y0249506D01*
X0132331Y0250337D01*
X0139000Y0250337D01*
X0127750Y0242506D02*
X0127750Y0237256D01*
X0126500Y0236006D01*
X0101500Y0222188D02*
X0101500Y0211617D01*
X0091500Y0211617D02*
X0091500Y0203506D01*
X0059000Y0166006D02*
X0052750Y0166006D01*
X0039000Y0166006D01*
X0025250Y0166006D01*
X0019000Y0166006D01*
X0019000Y0159006D02*
X0025250Y0159006D01*
X0025451Y0158806D01*
X0033098Y0158806D01*
X0033049Y0158756D01*
X0039000Y0157806D02*
X0039000Y0147306D01*
X0039000Y0157806D02*
X0039000Y0166006D01*
X0036500Y0121256D02*
X0036500Y0111006D01*
X0039250Y0108256D01*
X0039250Y0104006D01*
X0039250Y0096506D01*
X0033250Y0096506D01*
X0033250Y0104006D02*
X0039250Y0104006D01*
X0046250Y0104006D02*
X0046250Y0096506D01*
X0046250Y0104006D02*
X0046499Y0121200D01*
X0046500Y0121256D01*
X0026500Y0121256D02*
X0026250Y0104006D01*
X0026250Y0096506D01*
X0124000Y0319506D02*
X0124000Y0325756D01*
X0124250Y0326006D01*
D20*
X0102750Y0277256D03*
X0087750Y0277256D03*
X0082750Y0257256D03*
X0072750Y0274756D03*
X0064000Y0236006D03*
X0054000Y0216006D03*
X0066500Y0182256D03*
X0076500Y0203506D03*
X0086500Y0182256D03*
X0091500Y0203506D03*
X0101500Y0182256D03*
X0117750Y0201756D03*
X0120250Y0232256D03*
X0126500Y0236006D03*
X0118000Y0274756D03*
X0095250Y0312506D03*
X0060250Y0312506D03*
X0050250Y0257506D03*
X0039000Y0166006D03*
D21*
X0033098Y0158806D02*
X0033000Y0158707D01*
X0033000Y0154506D01*
X0026500Y0148006D01*
X0026500Y0136247D01*
X0026740Y0136006D01*
X0056500Y0136006D01*
X0069000Y0123506D01*
X0126500Y0123506D01*
X0131250Y0118756D01*
X0136500Y0118756D01*
X0151500Y0103506D02*
X0069000Y0103506D01*
X0051500Y0121006D01*
X0046693Y0121006D01*
X0046499Y0121200D01*
X0026500Y0121256D02*
X0026500Y0136247D01*
X0151500Y0103506D02*
X0156500Y0108506D01*
X0156500Y0118756D01*
D22*
X0006500Y0091006D02*
X0006500Y0186006D01*
X0171500Y0186006D01*
X0171500Y0091006D01*
X0006500Y0091006D01*
X0006500Y0091999D02*
X0171500Y0091999D01*
X0171500Y0093197D02*
X0006500Y0093197D01*
X0006500Y0094396D02*
X0022950Y0094396D01*
X0022950Y0093968D02*
X0023712Y0093206D01*
X0028788Y0093206D01*
X0029550Y0093968D01*
X0029550Y0099045D01*
X0028788Y0099806D01*
X0028350Y0099806D01*
X0028350Y0100706D01*
X0028788Y0100706D01*
X0029550Y0101468D01*
X0029550Y0106545D01*
X0028788Y0107306D01*
X0028398Y0107306D01*
X0028502Y0114497D01*
X0028918Y0114669D01*
X0030119Y0115870D01*
X0030768Y0117439D01*
X0030768Y0125074D01*
X0030119Y0126643D01*
X0029800Y0126961D01*
X0029800Y0132706D01*
X0055133Y0132706D01*
X0067131Y0120709D01*
X0068344Y0120206D01*
X0125133Y0120206D01*
X0129381Y0115959D01*
X0130594Y0115456D01*
X0132231Y0115456D01*
X0132231Y0114939D01*
X0132881Y0113370D01*
X0134082Y0112169D01*
X0135651Y0111519D01*
X0137349Y0111519D01*
X0138918Y0112169D01*
X0140119Y0113370D01*
X0140768Y0114939D01*
X0140768Y0122574D01*
X0140119Y0124143D01*
X0138918Y0125343D01*
X0137349Y0125993D01*
X0135651Y0125993D01*
X0134082Y0125343D01*
X0132881Y0124143D01*
X0132231Y0122574D01*
X0132231Y0122442D01*
X0129298Y0125376D01*
X0128369Y0126304D01*
X0127156Y0126806D01*
X0070367Y0126806D01*
X0059298Y0137876D01*
X0058369Y0138804D01*
X0057156Y0139306D01*
X0041530Y0139306D01*
X0042190Y0139579D01*
X0043773Y0141163D01*
X0044631Y0143233D01*
X0044631Y0151378D01*
X0043773Y0153448D01*
X0042969Y0154253D01*
X0044517Y0154253D01*
X0044517Y0158421D01*
X0045286Y0158421D01*
X0045286Y0154253D01*
X0047081Y0154253D01*
X0047488Y0154362D01*
X0047852Y0154572D01*
X0048150Y0154870D01*
X0048361Y0155235D01*
X0048470Y0155642D01*
X0048470Y0158421D01*
X0045286Y0158421D01*
X0045286Y0159190D01*
X0044517Y0159190D01*
X0044517Y0163358D01*
X0042722Y0163358D01*
X0042315Y0163249D01*
X0041951Y0163039D01*
X0041731Y0162819D01*
X0041507Y0163043D01*
X0041100Y0163043D01*
X0041100Y0163906D01*
X0049450Y0163906D01*
X0049450Y0163468D01*
X0050212Y0162706D01*
X0055288Y0162706D01*
X0055875Y0163293D01*
X0056462Y0162706D01*
X0061538Y0162706D01*
X0062300Y0163468D01*
X0062300Y0168545D01*
X0061538Y0169306D01*
X0056462Y0169306D01*
X0055875Y0168720D01*
X0055288Y0169306D01*
X0050212Y0169306D01*
X0049450Y0168545D01*
X0049450Y0168106D01*
X0040718Y0168106D01*
X0040529Y0168295D01*
X0039537Y0168706D01*
X0038463Y0168706D01*
X0037471Y0168295D01*
X0037282Y0168106D01*
X0028550Y0168106D01*
X0028550Y0168545D01*
X0027788Y0169306D01*
X0022712Y0169306D01*
X0022125Y0168720D01*
X0021538Y0169306D01*
X0016462Y0169306D01*
X0015700Y0168545D01*
X0015700Y0163468D01*
X0016462Y0162706D01*
X0021538Y0162706D01*
X0022125Y0163293D01*
X0022712Y0162706D01*
X0027788Y0162706D01*
X0028550Y0163468D01*
X0028550Y0163906D01*
X0036900Y0163906D01*
X0036900Y0163043D01*
X0036493Y0163043D01*
X0036057Y0162607D01*
X0035605Y0163058D01*
X0030591Y0163058D01*
X0029830Y0162297D01*
X0029830Y0160905D01*
X0028550Y0160905D01*
X0028550Y0161545D01*
X0027788Y0162306D01*
X0022712Y0162306D01*
X0022125Y0161720D01*
X0021538Y0162306D01*
X0016462Y0162306D01*
X0015700Y0161545D01*
X0015700Y0156468D01*
X0016462Y0155706D01*
X0021538Y0155706D01*
X0022125Y0156293D01*
X0022712Y0155706D01*
X0027788Y0155706D01*
X0028550Y0156468D01*
X0028550Y0156706D01*
X0029700Y0156706D01*
X0029700Y0155873D01*
X0023702Y0149876D01*
X0023200Y0148663D01*
X0023200Y0126961D01*
X0022881Y0126643D01*
X0022231Y0125074D01*
X0022231Y0117439D01*
X0022881Y0115870D01*
X0024082Y0114669D01*
X0024303Y0114578D01*
X0024198Y0107306D01*
X0023712Y0107306D01*
X0022950Y0106545D01*
X0022950Y0101468D01*
X0023712Y0100706D01*
X0024150Y0100706D01*
X0024150Y0099806D01*
X0023712Y0099806D01*
X0022950Y0099045D01*
X0022950Y0093968D01*
X0022950Y0095594D02*
X0006500Y0095594D01*
X0006500Y0096793D02*
X0022950Y0096793D01*
X0022950Y0097991D02*
X0006500Y0097991D01*
X0006500Y0099190D02*
X0023095Y0099190D01*
X0024150Y0100388D02*
X0006500Y0100388D01*
X0006500Y0101587D02*
X0022950Y0101587D01*
X0022950Y0102785D02*
X0006500Y0102785D01*
X0006500Y0103984D02*
X0022950Y0103984D01*
X0022950Y0105182D02*
X0006500Y0105182D01*
X0006500Y0106381D02*
X0022950Y0106381D01*
X0024202Y0107580D02*
X0006500Y0107580D01*
X0006500Y0108778D02*
X0024219Y0108778D01*
X0024236Y0109977D02*
X0006500Y0109977D01*
X0006500Y0111175D02*
X0024254Y0111175D01*
X0024271Y0112374D02*
X0006500Y0112374D01*
X0006500Y0113572D02*
X0024288Y0113572D01*
X0023981Y0114771D02*
X0006500Y0114771D01*
X0006500Y0115969D02*
X0022840Y0115969D01*
X0022344Y0117168D02*
X0006500Y0117168D01*
X0006500Y0118366D02*
X0022231Y0118366D01*
X0022231Y0119565D02*
X0006500Y0119565D01*
X0006500Y0120763D02*
X0022231Y0120763D01*
X0022231Y0121962D02*
X0006500Y0121962D01*
X0006500Y0123160D02*
X0022231Y0123160D01*
X0022231Y0124359D02*
X0006500Y0124359D01*
X0006500Y0125557D02*
X0022432Y0125557D01*
X0022994Y0126756D02*
X0006500Y0126756D01*
X0006500Y0127954D02*
X0023200Y0127954D01*
X0023200Y0129153D02*
X0006500Y0129153D01*
X0006500Y0130351D02*
X0023200Y0130351D01*
X0023200Y0131550D02*
X0006500Y0131550D01*
X0006500Y0132748D02*
X0023200Y0132748D01*
X0023200Y0133947D02*
X0006500Y0133947D01*
X0006500Y0135145D02*
X0023200Y0135145D01*
X0023200Y0136344D02*
X0006500Y0136344D01*
X0006500Y0137542D02*
X0023200Y0137542D01*
X0023200Y0138741D02*
X0006500Y0138741D01*
X0006500Y0139939D02*
X0023200Y0139939D01*
X0023200Y0141138D02*
X0006500Y0141138D01*
X0006500Y0142336D02*
X0023200Y0142336D01*
X0023200Y0143535D02*
X0006500Y0143535D01*
X0006500Y0144733D02*
X0023200Y0144733D01*
X0023200Y0145932D02*
X0006500Y0145932D01*
X0006500Y0147130D02*
X0023200Y0147130D01*
X0023200Y0148329D02*
X0006500Y0148329D01*
X0006500Y0149527D02*
X0023558Y0149527D01*
X0024553Y0150726D02*
X0006500Y0150726D01*
X0006500Y0151924D02*
X0025751Y0151924D01*
X0026950Y0153123D02*
X0006500Y0153123D01*
X0006500Y0154321D02*
X0028148Y0154321D01*
X0029347Y0155520D02*
X0006500Y0155520D01*
X0006500Y0156718D02*
X0015700Y0156718D01*
X0015700Y0157917D02*
X0006500Y0157917D01*
X0006500Y0159115D02*
X0015700Y0159115D01*
X0015700Y0160314D02*
X0006500Y0160314D01*
X0006500Y0161513D02*
X0015700Y0161513D01*
X0016457Y0162711D02*
X0006500Y0162711D01*
X0006500Y0163910D02*
X0015700Y0163910D01*
X0015700Y0165108D02*
X0006500Y0165108D01*
X0006500Y0166307D02*
X0015700Y0166307D01*
X0015700Y0167505D02*
X0006500Y0167505D01*
X0006500Y0168704D02*
X0015859Y0168704D01*
X0021543Y0162711D02*
X0022707Y0162711D01*
X0027793Y0162711D02*
X0030244Y0162711D01*
X0029830Y0161513D02*
X0028550Y0161513D01*
X0028391Y0168704D02*
X0038456Y0168704D01*
X0039544Y0168704D02*
X0049609Y0168704D01*
X0047488Y0163249D02*
X0047081Y0163358D01*
X0045286Y0163358D01*
X0045286Y0159190D01*
X0048470Y0159190D01*
X0048470Y0161969D01*
X0048361Y0162376D01*
X0048150Y0162741D01*
X0047852Y0163039D01*
X0047488Y0163249D01*
X0048168Y0162711D02*
X0050207Y0162711D01*
X0050132Y0162497D02*
X0049768Y0162287D01*
X0049470Y0161989D01*
X0049259Y0161624D01*
X0049150Y0161217D01*
X0049150Y0159406D01*
X0052350Y0159406D01*
X0052350Y0158606D01*
X0053150Y0158606D01*
X0053150Y0155406D01*
X0054961Y0155406D01*
X0055368Y0155515D01*
X0055732Y0155726D01*
X0055875Y0155869D01*
X0056018Y0155726D01*
X0056382Y0155515D01*
X0056789Y0155406D01*
X0058600Y0155406D01*
X0058600Y0158606D01*
X0059400Y0158606D01*
X0059400Y0155406D01*
X0061211Y0155406D01*
X0061618Y0155515D01*
X0061982Y0155726D01*
X0062280Y0156024D01*
X0062491Y0156389D01*
X0062600Y0156796D01*
X0062600Y0158606D01*
X0059400Y0158606D01*
X0059400Y0159406D01*
X0062600Y0159406D01*
X0062600Y0161217D01*
X0062491Y0161624D01*
X0062280Y0161989D01*
X0061982Y0162287D01*
X0061618Y0162497D01*
X0061211Y0162606D01*
X0059400Y0162606D01*
X0059400Y0159406D01*
X0058600Y0159406D01*
X0058600Y0158606D01*
X0056350Y0158606D01*
X0053150Y0158606D01*
X0053150Y0159406D01*
X0058600Y0159406D01*
X0058600Y0162606D01*
X0056789Y0162606D01*
X0056382Y0162497D01*
X0056018Y0162287D01*
X0055875Y0162144D01*
X0055732Y0162287D01*
X0055368Y0162497D01*
X0054961Y0162606D01*
X0053150Y0162606D01*
X0053150Y0159406D01*
X0052350Y0159406D01*
X0052350Y0162606D01*
X0050539Y0162606D01*
X0050132Y0162497D01*
X0049229Y0161513D02*
X0048470Y0161513D01*
X0048470Y0160314D02*
X0049150Y0160314D01*
X0049150Y0158606D02*
X0049150Y0156796D01*
X0049259Y0156389D01*
X0049470Y0156024D01*
X0049768Y0155726D01*
X0050132Y0155515D01*
X0050539Y0155406D01*
X0052350Y0155406D01*
X0052350Y0158606D01*
X0049150Y0158606D01*
X0049150Y0157917D02*
X0048470Y0157917D01*
X0048470Y0156718D02*
X0049171Y0156718D01*
X0048437Y0155520D02*
X0050124Y0155520D01*
X0052350Y0155520D02*
X0053150Y0155520D01*
X0053150Y0156718D02*
X0052350Y0156718D01*
X0052350Y0157917D02*
X0053150Y0157917D01*
X0053150Y0159115D02*
X0058600Y0159115D01*
X0059400Y0159115D02*
X0069400Y0159115D01*
X0069400Y0158906D02*
X0072600Y0158906D01*
X0072600Y0158106D01*
X0073400Y0158106D01*
X0073400Y0154906D01*
X0075211Y0154906D01*
X0075618Y0155015D01*
X0075982Y0155226D01*
X0076280Y0155524D01*
X0076491Y0155889D01*
X0076600Y0156296D01*
X0076600Y0158106D01*
X0073400Y0158106D01*
X0073400Y0158906D01*
X0076600Y0158906D01*
X0076600Y0160717D01*
X0076491Y0161124D01*
X0076280Y0161489D01*
X0076138Y0161631D01*
X0076280Y0161774D01*
X0076491Y0162139D01*
X0076600Y0162546D01*
X0076600Y0164356D01*
X0073400Y0164356D01*
X0073400Y0158906D01*
X0072600Y0158906D01*
X0072600Y0162106D01*
X0072600Y0164356D01*
X0073400Y0164356D01*
X0073400Y0165156D01*
X0076600Y0165156D01*
X0076600Y0166967D01*
X0076491Y0167374D01*
X0076280Y0167739D01*
X0075982Y0168037D01*
X0075618Y0168247D01*
X0075211Y0168356D01*
X0073400Y0168356D01*
X0073400Y0165156D01*
X0072600Y0165156D01*
X0072600Y0164356D01*
X0069400Y0164356D01*
X0069400Y0162546D01*
X0069509Y0162139D01*
X0069720Y0161774D01*
X0069862Y0161631D01*
X0069720Y0161489D01*
X0069509Y0161124D01*
X0069400Y0160717D01*
X0069400Y0158906D01*
X0069400Y0158106D02*
X0069400Y0156296D01*
X0069509Y0155889D01*
X0069720Y0155524D01*
X0070018Y0155226D01*
X0070382Y0155015D01*
X0070789Y0154906D01*
X0072600Y0154906D01*
X0072600Y0158106D01*
X0069400Y0158106D01*
X0069400Y0157917D02*
X0062600Y0157917D01*
X0062579Y0156718D02*
X0069400Y0156718D01*
X0069724Y0155520D02*
X0061626Y0155520D01*
X0059400Y0155520D02*
X0058600Y0155520D01*
X0058600Y0156718D02*
X0059400Y0156718D01*
X0059400Y0157917D02*
X0058600Y0157917D01*
X0058600Y0160314D02*
X0059400Y0160314D01*
X0059400Y0161513D02*
X0058600Y0161513D01*
X0056457Y0162711D02*
X0055293Y0162711D01*
X0055376Y0155520D02*
X0056374Y0155520D01*
X0052350Y0159115D02*
X0045286Y0159115D01*
X0045286Y0157917D02*
X0044517Y0157917D01*
X0044517Y0156718D02*
X0045286Y0156718D01*
X0045286Y0155520D02*
X0044517Y0155520D01*
X0044517Y0154321D02*
X0045286Y0154321D01*
X0043908Y0153123D02*
X0088200Y0153123D01*
X0088200Y0154321D02*
X0047337Y0154321D01*
X0044631Y0150726D02*
X0088200Y0150726D01*
X0088200Y0151924D02*
X0044404Y0151924D01*
X0044631Y0149527D02*
X0088200Y0149527D01*
X0088200Y0149468D02*
X0088962Y0148706D01*
X0094038Y0148706D01*
X0094400Y0149068D01*
X0094400Y0147945D01*
X0094038Y0148306D01*
X0092402Y0148306D01*
X0092370Y0148338D01*
X0090630Y0148338D01*
X0090598Y0148306D01*
X0088962Y0148306D01*
X0088200Y0147545D01*
X0088200Y0142468D01*
X0088962Y0141706D01*
X0089400Y0141706D01*
X0089400Y0137044D01*
X0089194Y0136958D01*
X0088048Y0135813D01*
X0087428Y0134316D01*
X0087428Y0132696D01*
X0088048Y0131200D01*
X0089194Y0130055D01*
X0090690Y0129435D01*
X0092310Y0129435D01*
X0093806Y0130055D01*
X0094952Y0131200D01*
X0095572Y0132696D01*
X0095572Y0134316D01*
X0094952Y0135813D01*
X0093806Y0136958D01*
X0093600Y0137044D01*
X0093600Y0141706D01*
X0094038Y0141706D01*
X0094800Y0142468D01*
X0094800Y0142906D01*
X0096370Y0142906D01*
X0097370Y0143906D01*
X0098200Y0144736D01*
X0098200Y0142468D01*
X0098962Y0141706D01*
X0099400Y0141706D01*
X0099400Y0137044D01*
X0099194Y0136958D01*
X0098048Y0135813D01*
X0097428Y0134316D01*
X0097428Y0132696D01*
X0098048Y0131200D01*
X0099194Y0130055D01*
X0100690Y0129435D01*
X0102310Y0129435D01*
X0103806Y0130055D01*
X0104952Y0131200D01*
X0105572Y0132696D01*
X0105572Y0134316D01*
X0104952Y0135813D01*
X0103806Y0136958D01*
X0103600Y0137044D01*
X0103600Y0141706D01*
X0104038Y0141706D01*
X0104800Y0142468D01*
X0104800Y0147545D01*
X0104038Y0148306D01*
X0098962Y0148306D01*
X0098600Y0147945D01*
X0098600Y0149068D01*
X0098962Y0148706D01*
X0104038Y0148706D01*
X0104800Y0149468D01*
X0104800Y0154545D01*
X0104138Y0155206D01*
X0106038Y0155206D01*
X0106800Y0155968D01*
X0106800Y0161045D01*
X0106213Y0161631D01*
X0106800Y0162218D01*
X0106800Y0167295D01*
X0106038Y0168056D01*
X0105600Y0168056D01*
X0105600Y0168626D01*
X0104370Y0169856D01*
X0103840Y0170386D01*
X0103981Y0170527D01*
X0103981Y0180265D01*
X0103654Y0180592D01*
X0103789Y0180727D01*
X0104200Y0181719D01*
X0104200Y0182793D01*
X0103789Y0183786D01*
X0103029Y0184545D01*
X0102037Y0184956D01*
X0100963Y0184956D01*
X0099971Y0184545D01*
X0099211Y0183786D01*
X0098800Y0182793D01*
X0098800Y0181719D01*
X0099211Y0180727D01*
X0099346Y0180592D01*
X0099145Y0180391D01*
X0098961Y0180709D01*
X0098664Y0181007D01*
X0098299Y0181218D01*
X0097892Y0181327D01*
X0096500Y0181327D01*
X0095108Y0181327D01*
X0094701Y0181218D01*
X0094336Y0181007D01*
X0094039Y0180709D01*
X0093855Y0180391D01*
X0093220Y0181027D01*
X0089780Y0181027D01*
X0089019Y0180265D01*
X0089019Y0170527D01*
X0089400Y0170146D01*
X0089400Y0155306D01*
X0088962Y0155306D01*
X0088200Y0154545D01*
X0088200Y0149468D01*
X0088200Y0147130D02*
X0044631Y0147130D01*
X0044631Y0145932D02*
X0088200Y0145932D01*
X0088200Y0144733D02*
X0044631Y0144733D01*
X0044631Y0143535D02*
X0088200Y0143535D01*
X0088331Y0142336D02*
X0044259Y0142336D01*
X0043748Y0141138D02*
X0089400Y0141138D01*
X0089400Y0139939D02*
X0042550Y0139939D01*
X0044631Y0148329D02*
X0090621Y0148329D01*
X0092379Y0148329D02*
X0094400Y0148329D01*
X0094800Y0152276D02*
X0094800Y0154545D01*
X0094438Y0154906D01*
X0096100Y0154906D01*
X0096100Y0158106D01*
X0096900Y0158106D01*
X0096900Y0154906D01*
X0098562Y0154906D01*
X0098200Y0154545D01*
X0098200Y0154106D01*
X0096630Y0154106D01*
X0095630Y0153106D01*
X0094800Y0152276D01*
X0094800Y0153123D02*
X0095647Y0153123D01*
X0094800Y0154321D02*
X0098200Y0154321D01*
X0099563Y0155306D02*
X0099780Y0155524D01*
X0099991Y0155889D01*
X0100100Y0156296D01*
X0100100Y0158106D01*
X0096900Y0158106D01*
X0096900Y0158906D01*
X0100100Y0158906D01*
X0100100Y0160717D01*
X0099991Y0161124D01*
X0099780Y0161489D01*
X0099638Y0161631D01*
X0099780Y0161774D01*
X0099991Y0162139D01*
X0100100Y0162546D01*
X0100100Y0164356D01*
X0096900Y0164356D01*
X0096900Y0161156D01*
X0096900Y0158906D01*
X0096100Y0158906D01*
X0096100Y0164356D01*
X0096900Y0164356D01*
X0096900Y0165156D01*
X0100100Y0165156D01*
X0100100Y0166967D01*
X0099991Y0167374D01*
X0099780Y0167739D01*
X0099482Y0168037D01*
X0099118Y0168247D01*
X0098711Y0168356D01*
X0096900Y0168356D01*
X0096900Y0165156D01*
X0096100Y0165156D01*
X0096100Y0168356D01*
X0094289Y0168356D01*
X0093882Y0168247D01*
X0093600Y0168084D01*
X0093600Y0170146D01*
X0093855Y0170401D01*
X0094039Y0170083D01*
X0094336Y0169785D01*
X0094701Y0169574D01*
X0095108Y0169465D01*
X0096500Y0169465D01*
X0097892Y0169465D01*
X0098299Y0169574D01*
X0098664Y0169785D01*
X0098961Y0170083D01*
X0099145Y0170401D01*
X0099400Y0170146D01*
X0099400Y0168886D01*
X0100596Y0167691D01*
X0100200Y0167295D01*
X0100200Y0162218D01*
X0100787Y0161631D01*
X0100200Y0161045D01*
X0100200Y0155968D01*
X0100862Y0155306D01*
X0099563Y0155306D01*
X0099776Y0155520D02*
X0100648Y0155520D01*
X0100200Y0156718D02*
X0100100Y0156718D01*
X0100100Y0157917D02*
X0100200Y0157917D01*
X0100200Y0159115D02*
X0100100Y0159115D01*
X0100100Y0160314D02*
X0100200Y0160314D01*
X0099757Y0161513D02*
X0100668Y0161513D01*
X0100200Y0162711D02*
X0100100Y0162711D01*
X0100100Y0163910D02*
X0100200Y0163910D01*
X0100200Y0165108D02*
X0096900Y0165108D01*
X0096900Y0163910D02*
X0096100Y0163910D01*
X0096100Y0162711D02*
X0096900Y0162711D01*
X0096900Y0161513D02*
X0096100Y0161513D01*
X0096100Y0160314D02*
X0096900Y0160314D01*
X0096900Y0159115D02*
X0096100Y0159115D01*
X0096100Y0157917D02*
X0096900Y0157917D01*
X0096900Y0156718D02*
X0096100Y0156718D01*
X0096100Y0155520D02*
X0096900Y0155520D01*
X0098600Y0148329D02*
X0171500Y0148329D01*
X0171500Y0149527D02*
X0104800Y0149527D01*
X0104800Y0150726D02*
X0171500Y0150726D01*
X0171500Y0151924D02*
X0104800Y0151924D01*
X0104800Y0153123D02*
X0171500Y0153123D01*
X0171500Y0154321D02*
X0104800Y0154321D01*
X0106352Y0155520D02*
X0171500Y0155520D01*
X0171500Y0156718D02*
X0106800Y0156718D01*
X0106800Y0157917D02*
X0171500Y0157917D01*
X0171500Y0159115D02*
X0106800Y0159115D01*
X0106800Y0160314D02*
X0171500Y0160314D01*
X0171500Y0161513D02*
X0106332Y0161513D01*
X0106800Y0162711D02*
X0171500Y0162711D01*
X0171500Y0163910D02*
X0106800Y0163910D01*
X0106800Y0165108D02*
X0171500Y0165108D01*
X0171500Y0166307D02*
X0106800Y0166307D01*
X0106590Y0167505D02*
X0171500Y0167505D01*
X0171500Y0168704D02*
X0105523Y0168704D01*
X0104324Y0169902D02*
X0171500Y0169902D01*
X0171500Y0171101D02*
X0103981Y0171101D01*
X0103981Y0172299D02*
X0171500Y0172299D01*
X0171500Y0173498D02*
X0103981Y0173498D01*
X0103981Y0174696D02*
X0171500Y0174696D01*
X0171500Y0175895D02*
X0103981Y0175895D01*
X0103981Y0177093D02*
X0171500Y0177093D01*
X0171500Y0178292D02*
X0103981Y0178292D01*
X0103981Y0179490D02*
X0171500Y0179490D01*
X0171500Y0180689D02*
X0103751Y0180689D01*
X0104200Y0181887D02*
X0171500Y0181887D01*
X0171500Y0183086D02*
X0104079Y0183086D01*
X0103290Y0184284D02*
X0171500Y0184284D01*
X0171500Y0185483D02*
X0006500Y0185483D01*
X0006500Y0184284D02*
X0064710Y0184284D01*
X0064971Y0184545D02*
X0064211Y0183786D01*
X0063800Y0182793D01*
X0063800Y0181719D01*
X0064211Y0180727D01*
X0064346Y0180592D01*
X0064019Y0180265D01*
X0064019Y0170527D01*
X0064780Y0169765D01*
X0068220Y0169765D01*
X0068855Y0170401D01*
X0069039Y0170083D01*
X0069336Y0169785D01*
X0069701Y0169574D01*
X0070108Y0169465D01*
X0071500Y0169465D01*
X0072892Y0169465D01*
X0073299Y0169574D01*
X0073664Y0169785D01*
X0073961Y0170083D01*
X0074145Y0170401D01*
X0074780Y0169765D01*
X0077900Y0169765D01*
X0077900Y0168056D01*
X0077462Y0168056D01*
X0076700Y0167295D01*
X0076700Y0162218D01*
X0077287Y0161631D01*
X0076700Y0161045D01*
X0076700Y0155968D01*
X0077462Y0155206D01*
X0082538Y0155206D01*
X0083300Y0155968D01*
X0083300Y0161045D01*
X0082713Y0161631D01*
X0083300Y0162218D01*
X0083300Y0167295D01*
X0082538Y0168056D01*
X0082100Y0168056D01*
X0082100Y0168386D01*
X0083600Y0169886D01*
X0083600Y0170146D01*
X0083981Y0170527D01*
X0083981Y0173296D01*
X0084019Y0173296D01*
X0084019Y0170527D01*
X0084780Y0169765D01*
X0088220Y0169765D01*
X0088981Y0170527D01*
X0088981Y0180265D01*
X0088654Y0180592D01*
X0088789Y0180727D01*
X0089200Y0181719D01*
X0089200Y0182793D01*
X0088789Y0183786D01*
X0088029Y0184545D01*
X0087037Y0184956D01*
X0085963Y0184956D01*
X0084971Y0184545D01*
X0084211Y0183786D01*
X0083800Y0182793D01*
X0083800Y0181719D01*
X0084211Y0180727D01*
X0084346Y0180592D01*
X0084019Y0180265D01*
X0084019Y0177496D01*
X0083981Y0177496D01*
X0083981Y0180265D01*
X0083220Y0181027D01*
X0079780Y0181027D01*
X0079019Y0180265D01*
X0079019Y0171245D01*
X0078981Y0171207D01*
X0078981Y0180265D01*
X0078220Y0181027D01*
X0074780Y0181027D01*
X0074145Y0180391D01*
X0073961Y0180709D01*
X0073664Y0181007D01*
X0073299Y0181218D01*
X0072892Y0181327D01*
X0071500Y0181327D01*
X0070108Y0181327D01*
X0069701Y0181218D01*
X0069336Y0181007D01*
X0069039Y0180709D01*
X0068855Y0180391D01*
X0068654Y0180592D01*
X0068789Y0180727D01*
X0069200Y0181719D01*
X0069200Y0182793D01*
X0068789Y0183786D01*
X0068029Y0184545D01*
X0067037Y0184956D01*
X0065963Y0184956D01*
X0064971Y0184545D01*
X0063921Y0183086D02*
X0006500Y0183086D01*
X0006500Y0181887D02*
X0063800Y0181887D01*
X0064249Y0180689D02*
X0006500Y0180689D01*
X0006500Y0179490D02*
X0064019Y0179490D01*
X0064019Y0178292D02*
X0006500Y0178292D01*
X0006500Y0177093D02*
X0064019Y0177093D01*
X0064019Y0175895D02*
X0006500Y0175895D01*
X0006500Y0174696D02*
X0064019Y0174696D01*
X0064019Y0173498D02*
X0006500Y0173498D01*
X0006500Y0172299D02*
X0064019Y0172299D01*
X0064019Y0171101D02*
X0006500Y0171101D01*
X0006500Y0169902D02*
X0064644Y0169902D01*
X0062300Y0167505D02*
X0069585Y0167505D01*
X0069509Y0167374D02*
X0069400Y0166967D01*
X0069400Y0165156D01*
X0072600Y0165156D01*
X0072600Y0168356D01*
X0070789Y0168356D01*
X0070382Y0168247D01*
X0070018Y0168037D01*
X0069720Y0167739D01*
X0069509Y0167374D01*
X0069400Y0166307D02*
X0062300Y0166307D01*
X0062300Y0165108D02*
X0072600Y0165108D01*
X0073400Y0165108D02*
X0076700Y0165108D01*
X0076700Y0163910D02*
X0076600Y0163910D01*
X0076600Y0162711D02*
X0076700Y0162711D01*
X0076257Y0161513D02*
X0077168Y0161513D01*
X0076700Y0160314D02*
X0076600Y0160314D01*
X0076600Y0159115D02*
X0076700Y0159115D01*
X0076700Y0157917D02*
X0076600Y0157917D01*
X0076600Y0156718D02*
X0076700Y0156718D01*
X0076276Y0155520D02*
X0077148Y0155520D01*
X0073400Y0155520D02*
X0072600Y0155520D01*
X0072600Y0156718D02*
X0073400Y0156718D01*
X0073400Y0157917D02*
X0072600Y0157917D01*
X0072600Y0159115D02*
X0073400Y0159115D01*
X0073400Y0160314D02*
X0072600Y0160314D01*
X0072600Y0161513D02*
X0073400Y0161513D01*
X0073400Y0162711D02*
X0072600Y0162711D01*
X0072600Y0163910D02*
X0073400Y0163910D01*
X0073400Y0166307D02*
X0072600Y0166307D01*
X0072600Y0167505D02*
X0073400Y0167505D01*
X0073781Y0169902D02*
X0074644Y0169902D01*
X0076415Y0167505D02*
X0076910Y0167505D01*
X0076700Y0166307D02*
X0076600Y0166307D01*
X0077900Y0168704D02*
X0062141Y0168704D01*
X0062300Y0163910D02*
X0069400Y0163910D01*
X0069400Y0162711D02*
X0061543Y0162711D01*
X0062521Y0161513D02*
X0069743Y0161513D01*
X0069400Y0160314D02*
X0062600Y0160314D01*
X0068356Y0169902D02*
X0069219Y0169902D01*
X0071500Y0169902D02*
X0071500Y0169902D01*
X0071500Y0169465D02*
X0071500Y0175396D01*
X0071500Y0175396D01*
X0071500Y0169465D01*
X0071500Y0171101D02*
X0071500Y0171101D01*
X0071500Y0172299D02*
X0071500Y0172299D01*
X0071500Y0173498D02*
X0071500Y0173498D01*
X0071500Y0174696D02*
X0071500Y0174696D01*
X0071500Y0175396D02*
X0071500Y0181327D01*
X0071500Y0175396D01*
X0071500Y0175396D01*
X0071500Y0175895D02*
X0071500Y0175895D01*
X0071500Y0177093D02*
X0071500Y0177093D01*
X0071500Y0178292D02*
X0071500Y0178292D01*
X0071500Y0179490D02*
X0071500Y0179490D01*
X0071500Y0180689D02*
X0071500Y0180689D01*
X0073973Y0180689D02*
X0074442Y0180689D01*
X0078558Y0180689D02*
X0079442Y0180689D01*
X0079019Y0179490D02*
X0078981Y0179490D01*
X0078981Y0178292D02*
X0079019Y0178292D01*
X0078981Y0177093D02*
X0079019Y0177093D01*
X0078981Y0175895D02*
X0079019Y0175895D01*
X0078981Y0174696D02*
X0079019Y0174696D01*
X0078981Y0173498D02*
X0079019Y0173498D01*
X0078981Y0172299D02*
X0079019Y0172299D01*
X0082417Y0168704D02*
X0089400Y0168704D01*
X0089400Y0169902D02*
X0088356Y0169902D01*
X0088981Y0171101D02*
X0089019Y0171101D01*
X0088981Y0172299D02*
X0089019Y0172299D01*
X0088981Y0173498D02*
X0089019Y0173498D01*
X0088981Y0174696D02*
X0089019Y0174696D01*
X0088981Y0175895D02*
X0089019Y0175895D01*
X0088981Y0177093D02*
X0089019Y0177093D01*
X0088981Y0178292D02*
X0089019Y0178292D01*
X0088981Y0179490D02*
X0089019Y0179490D01*
X0088751Y0180689D02*
X0089442Y0180689D01*
X0089200Y0181887D02*
X0098800Y0181887D01*
X0098921Y0183086D02*
X0089079Y0183086D01*
X0088290Y0184284D02*
X0099710Y0184284D01*
X0099249Y0180689D02*
X0098973Y0180689D01*
X0096500Y0180689D02*
X0096500Y0180689D01*
X0096500Y0181327D02*
X0096500Y0175396D01*
X0096500Y0169465D01*
X0096500Y0175396D01*
X0096500Y0175396D01*
X0096500Y0175396D01*
X0096500Y0181327D01*
X0096500Y0179490D02*
X0096500Y0179490D01*
X0096500Y0178292D02*
X0096500Y0178292D01*
X0096500Y0177093D02*
X0096500Y0177093D01*
X0096500Y0175895D02*
X0096500Y0175895D01*
X0096500Y0174696D02*
X0096500Y0174696D01*
X0096500Y0173498D02*
X0096500Y0173498D01*
X0096500Y0172299D02*
X0096500Y0172299D01*
X0096500Y0171101D02*
X0096500Y0171101D01*
X0096500Y0169902D02*
X0096500Y0169902D01*
X0098781Y0169902D02*
X0099400Y0169902D01*
X0099583Y0168704D02*
X0093600Y0168704D01*
X0093600Y0169902D02*
X0094219Y0169902D01*
X0096100Y0167505D02*
X0096900Y0167505D01*
X0096900Y0166307D02*
X0096100Y0166307D01*
X0099915Y0167505D02*
X0100410Y0167505D01*
X0100200Y0166307D02*
X0100100Y0166307D01*
X0094027Y0180689D02*
X0093558Y0180689D01*
X0089400Y0167505D02*
X0083090Y0167505D01*
X0083300Y0166307D02*
X0089400Y0166307D01*
X0089400Y0165108D02*
X0083300Y0165108D01*
X0083300Y0163910D02*
X0089400Y0163910D01*
X0089400Y0162711D02*
X0083300Y0162711D01*
X0082832Y0161513D02*
X0089400Y0161513D01*
X0089400Y0160314D02*
X0083300Y0160314D01*
X0083300Y0159115D02*
X0089400Y0159115D01*
X0089400Y0157917D02*
X0083300Y0157917D01*
X0083300Y0156718D02*
X0089400Y0156718D01*
X0089400Y0155520D02*
X0082852Y0155520D01*
X0083600Y0169902D02*
X0084644Y0169902D01*
X0084019Y0171101D02*
X0083981Y0171101D01*
X0083981Y0172299D02*
X0084019Y0172299D01*
X0083981Y0178292D02*
X0084019Y0178292D01*
X0083981Y0179490D02*
X0084019Y0179490D01*
X0084249Y0180689D02*
X0083558Y0180689D01*
X0083800Y0181887D02*
X0069200Y0181887D01*
X0069079Y0183086D02*
X0083921Y0183086D01*
X0084710Y0184284D02*
X0068290Y0184284D01*
X0068751Y0180689D02*
X0069027Y0180689D01*
X0075963Y0200806D02*
X0077037Y0200806D01*
X0078029Y0201217D01*
X0078789Y0201977D01*
X0079200Y0202969D01*
X0079200Y0204043D01*
X0078789Y0205036D01*
X0078600Y0205225D01*
X0078600Y0206366D01*
X0078981Y0206747D01*
X0078981Y0216486D01*
X0078715Y0216752D01*
X0079600Y0217636D01*
X0079600Y0217706D01*
X0080038Y0217706D01*
X0080800Y0218468D01*
X0080800Y0223545D01*
X0080213Y0224131D01*
X0080800Y0224718D01*
X0080800Y0229795D01*
X0080038Y0230556D01*
X0074962Y0230556D01*
X0074200Y0229795D01*
X0074200Y0224718D01*
X0074787Y0224131D01*
X0074200Y0223545D01*
X0074200Y0218468D01*
X0074400Y0218268D01*
X0074400Y0216867D01*
X0074019Y0216486D01*
X0074019Y0206747D01*
X0074400Y0206366D01*
X0074400Y0205225D01*
X0074211Y0205036D01*
X0073800Y0204043D01*
X0073800Y0202969D01*
X0074211Y0201977D01*
X0074971Y0201217D01*
X0075963Y0200806D01*
X0075342Y0201063D02*
X0006500Y0201063D01*
X0006500Y0199865D02*
X0108200Y0199865D01*
X0108200Y0199218D02*
X0108962Y0198456D01*
X0114038Y0198456D01*
X0114800Y0199218D01*
X0114800Y0199656D01*
X0116032Y0199656D01*
X0116221Y0199467D01*
X0117213Y0199056D01*
X0118287Y0199056D01*
X0119279Y0199467D01*
X0120039Y0200227D01*
X0120450Y0201219D01*
X0120450Y0202293D01*
X0120039Y0203286D01*
X0119279Y0204045D01*
X0118287Y0204456D01*
X0117213Y0204456D01*
X0116221Y0204045D01*
X0116032Y0203856D01*
X0114800Y0203856D01*
X0114800Y0204295D01*
X0114038Y0205056D01*
X0108962Y0205056D01*
X0108200Y0204295D01*
X0108200Y0199218D01*
X0108751Y0198666D02*
X0006500Y0198666D01*
X0006500Y0197468D02*
X0171500Y0197468D01*
X0171500Y0198666D02*
X0114249Y0198666D01*
X0114436Y0204659D02*
X0171500Y0204659D01*
X0171500Y0205857D02*
X0114440Y0205857D01*
X0114800Y0206218D02*
X0114800Y0211295D01*
X0114038Y0212056D01*
X0113600Y0212056D01*
X0113600Y0212206D01*
X0114038Y0212206D01*
X0114800Y0212968D01*
X0114800Y0218045D01*
X0114038Y0218806D01*
X0108962Y0218806D01*
X0108200Y0218045D01*
X0108200Y0212968D01*
X0108962Y0212206D01*
X0109400Y0212206D01*
X0109400Y0212056D01*
X0108962Y0212056D01*
X0108200Y0211295D01*
X0108200Y0206218D01*
X0108962Y0205456D01*
X0114038Y0205456D01*
X0114800Y0206218D01*
X0114800Y0207056D02*
X0171500Y0207056D01*
X0171500Y0208254D02*
X0114800Y0208254D01*
X0114800Y0209453D02*
X0171500Y0209453D01*
X0171500Y0210651D02*
X0114800Y0210651D01*
X0114245Y0211850D02*
X0171500Y0211850D01*
X0171500Y0213048D02*
X0114800Y0213048D01*
X0114800Y0214247D02*
X0171500Y0214247D01*
X0171500Y0215446D02*
X0114800Y0215446D01*
X0114800Y0216644D02*
X0171500Y0216644D01*
X0171500Y0217843D02*
X0114800Y0217843D01*
X0114038Y0219206D02*
X0114800Y0219968D01*
X0114800Y0225045D01*
X0114038Y0225806D01*
X0108962Y0225806D01*
X0108200Y0225045D01*
X0108200Y0224606D01*
X0103600Y0224606D01*
X0103600Y0229206D01*
X0104038Y0229206D01*
X0104625Y0229793D01*
X0105212Y0229206D01*
X0110288Y0229206D01*
X0110875Y0229793D01*
X0111462Y0229206D01*
X0116538Y0229206D01*
X0117300Y0229968D01*
X0117300Y0230406D01*
X0118282Y0230406D01*
X0118721Y0229967D01*
X0119713Y0229556D01*
X0120787Y0229556D01*
X0121779Y0229967D01*
X0122539Y0230727D01*
X0122950Y0231719D01*
X0122950Y0232793D01*
X0122539Y0233786D01*
X0121779Y0234545D01*
X0120787Y0234956D01*
X0119713Y0234956D01*
X0118868Y0234606D01*
X0117300Y0234606D01*
X0117300Y0235045D01*
X0116538Y0235806D01*
X0111462Y0235806D01*
X0110875Y0235220D01*
X0110288Y0235806D01*
X0105212Y0235806D01*
X0104625Y0235220D01*
X0104038Y0235806D01*
X0099850Y0235806D01*
X0099850Y0236206D01*
X0104038Y0236206D01*
X0104625Y0236793D01*
X0105212Y0236206D01*
X0110288Y0236206D01*
X0110875Y0236793D01*
X0111462Y0236206D01*
X0116538Y0236206D01*
X0117300Y0236968D01*
X0117300Y0242045D01*
X0116538Y0242806D01*
X0116100Y0242806D01*
X0116100Y0243126D01*
X0115090Y0244136D01*
X0115231Y0244277D01*
X0115231Y0254015D01*
X0114470Y0254777D01*
X0111030Y0254777D01*
X0110269Y0254015D01*
X0110269Y0244277D01*
X0110650Y0243896D01*
X0110650Y0242636D01*
X0110971Y0242316D01*
X0110875Y0242220D01*
X0110288Y0242806D01*
X0109850Y0242806D01*
X0109850Y0243896D01*
X0110231Y0244277D01*
X0110231Y0254015D01*
X0109470Y0254777D01*
X0106030Y0254777D01*
X0105269Y0254015D01*
X0105269Y0244277D01*
X0105650Y0243896D01*
X0105650Y0242806D01*
X0105212Y0242806D01*
X0104625Y0242220D01*
X0104529Y0242316D01*
X0104850Y0242636D01*
X0104850Y0243896D01*
X0105231Y0244277D01*
X0105231Y0254015D01*
X0104470Y0254777D01*
X0101030Y0254777D01*
X0100269Y0254015D01*
X0100269Y0244277D01*
X0100410Y0244136D01*
X0099850Y0243576D01*
X0099850Y0243896D01*
X0100231Y0244277D01*
X0100231Y0254015D01*
X0099850Y0254396D01*
X0099850Y0259376D01*
X0098620Y0260606D01*
X0092620Y0266606D01*
X0064800Y0266606D01*
X0064800Y0267045D01*
X0064588Y0267256D01*
X0064800Y0267468D01*
X0064800Y0272545D01*
X0064038Y0273306D01*
X0058962Y0273306D01*
X0058200Y0272545D01*
X0058200Y0267468D01*
X0058412Y0267256D01*
X0058375Y0267220D01*
X0057788Y0267806D01*
X0052712Y0267806D01*
X0051950Y0267045D01*
X0051950Y0261968D01*
X0052712Y0261206D01*
X0057788Y0261206D01*
X0058375Y0261793D01*
X0058962Y0261206D01*
X0064038Y0261206D01*
X0064800Y0261968D01*
X0064800Y0262406D01*
X0090880Y0262406D01*
X0095650Y0257636D01*
X0095650Y0254396D01*
X0095269Y0254015D01*
X0095269Y0244277D01*
X0095650Y0243896D01*
X0095650Y0242445D01*
X0095288Y0242806D01*
X0094850Y0242806D01*
X0094850Y0243896D01*
X0095231Y0244277D01*
X0095231Y0254015D01*
X0094470Y0254777D01*
X0091030Y0254777D01*
X0090269Y0254015D01*
X0090269Y0244277D01*
X0090650Y0243896D01*
X0090650Y0242806D01*
X0090212Y0242806D01*
X0089450Y0242045D01*
X0089450Y0236968D01*
X0090212Y0236206D01*
X0095288Y0236206D01*
X0095650Y0236568D01*
X0095650Y0235445D01*
X0095288Y0235806D01*
X0090212Y0235806D01*
X0089450Y0235045D01*
X0089450Y0229968D01*
X0090212Y0229206D01*
X0095288Y0229206D01*
X0096050Y0229968D01*
X0096050Y0230406D01*
X0097620Y0230406D01*
X0098200Y0230986D01*
X0098200Y0229968D01*
X0098962Y0229206D01*
X0099400Y0229206D01*
X0099400Y0216867D01*
X0099145Y0216612D01*
X0098961Y0216930D01*
X0098664Y0217228D01*
X0098299Y0217438D01*
X0097892Y0217547D01*
X0096500Y0217547D01*
X0095108Y0217547D01*
X0094701Y0217438D01*
X0094336Y0217228D01*
X0094039Y0216930D01*
X0093855Y0216612D01*
X0093220Y0217247D01*
X0089780Y0217247D01*
X0089019Y0216486D01*
X0089019Y0206747D01*
X0089400Y0206366D01*
X0089400Y0205225D01*
X0089211Y0205036D01*
X0088800Y0204043D01*
X0088800Y0202969D01*
X0089211Y0201977D01*
X0089971Y0201217D01*
X0090963Y0200806D01*
X0092037Y0200806D01*
X0093029Y0201217D01*
X0093789Y0201977D01*
X0094200Y0202969D01*
X0094200Y0204043D01*
X0093789Y0205036D01*
X0093600Y0205225D01*
X0093600Y0206366D01*
X0093855Y0206621D01*
X0094039Y0206303D01*
X0094336Y0206006D01*
X0094701Y0205795D01*
X0095108Y0205686D01*
X0096500Y0205686D01*
X0097892Y0205686D01*
X0098299Y0205795D01*
X0098664Y0206006D01*
X0098961Y0206303D01*
X0099145Y0206621D01*
X0099780Y0205986D01*
X0103220Y0205986D01*
X0103981Y0206747D01*
X0103981Y0216486D01*
X0103600Y0216867D01*
X0103600Y0220406D01*
X0108200Y0220406D01*
X0108200Y0219968D01*
X0108962Y0219206D01*
X0114038Y0219206D01*
X0114800Y0220240D02*
X0171500Y0220240D01*
X0171500Y0221438D02*
X0114800Y0221438D01*
X0114800Y0222637D02*
X0171500Y0222637D01*
X0171500Y0223835D02*
X0114800Y0223835D01*
X0114800Y0225034D02*
X0171500Y0225034D01*
X0171500Y0226232D02*
X0103600Y0226232D01*
X0103600Y0225034D02*
X0108200Y0225034D01*
X0108200Y0220240D02*
X0103600Y0220240D01*
X0103600Y0219041D02*
X0171500Y0219041D01*
X0171500Y0227431D02*
X0103600Y0227431D01*
X0103600Y0228629D02*
X0171500Y0228629D01*
X0171500Y0229828D02*
X0121442Y0229828D01*
X0122663Y0231026D02*
X0171500Y0231026D01*
X0171500Y0232225D02*
X0122950Y0232225D01*
X0122689Y0233423D02*
X0125681Y0233423D01*
X0125963Y0233306D02*
X0127037Y0233306D01*
X0128029Y0233717D01*
X0128789Y0234477D01*
X0129200Y0235469D01*
X0129200Y0235736D01*
X0129850Y0236386D01*
X0129850Y0239206D01*
X0130288Y0239206D01*
X0131050Y0239968D01*
X0131050Y0245045D01*
X0130288Y0245806D01*
X0125212Y0245806D01*
X0124450Y0245045D01*
X0124450Y0239968D01*
X0125212Y0239206D01*
X0125650Y0239206D01*
X0125650Y0238577D01*
X0124971Y0238295D01*
X0124211Y0237536D01*
X0123800Y0236543D01*
X0123800Y0235469D01*
X0124211Y0234477D01*
X0124971Y0233717D01*
X0125963Y0233306D01*
X0127319Y0233423D02*
X0171500Y0233423D01*
X0171500Y0234622D02*
X0128849Y0234622D01*
X0129284Y0235820D02*
X0171500Y0235820D01*
X0171500Y0237019D02*
X0129850Y0237019D01*
X0129850Y0238217D02*
X0171500Y0238217D01*
X0171500Y0239416D02*
X0145272Y0239416D01*
X0145615Y0239759D02*
X0144853Y0238998D01*
X0140627Y0238998D01*
X0139865Y0239759D01*
X0139865Y0244379D01*
X0140627Y0245141D01*
X0144853Y0245141D01*
X0145615Y0244379D01*
X0145615Y0239759D01*
X0145615Y0240614D02*
X0171500Y0240614D01*
X0171500Y0241813D02*
X0145615Y0241813D01*
X0145615Y0243011D02*
X0171500Y0243011D01*
X0171500Y0244210D02*
X0145615Y0244210D01*
X0141875Y0248027D02*
X0141875Y0252647D01*
X0141113Y0253409D01*
X0136887Y0253409D01*
X0136125Y0252647D01*
X0136125Y0252437D01*
X0131461Y0252437D01*
X0131050Y0252026D01*
X0131050Y0252045D01*
X0130288Y0252806D01*
X0125212Y0252806D01*
X0124450Y0252045D01*
X0124450Y0251606D01*
X0123130Y0251606D01*
X0122770Y0251246D01*
X0120231Y0251246D01*
X0120231Y0254015D01*
X0119470Y0254777D01*
X0116030Y0254777D01*
X0115269Y0254015D01*
X0115269Y0244277D01*
X0116030Y0243515D01*
X0119470Y0243515D01*
X0120231Y0244277D01*
X0120231Y0247046D01*
X0124450Y0247046D01*
X0124450Y0246968D01*
X0125212Y0246206D01*
X0130288Y0246206D01*
X0131050Y0246968D01*
X0131050Y0247406D01*
X0132370Y0247406D01*
X0133201Y0248237D01*
X0136125Y0248237D01*
X0136125Y0248027D01*
X0136887Y0247265D01*
X0141113Y0247265D01*
X0141875Y0248027D01*
X0141653Y0247805D02*
X0171500Y0247805D01*
X0171500Y0246607D02*
X0130689Y0246607D01*
X0130686Y0245408D02*
X0133353Y0245408D01*
X0133474Y0245441D02*
X0133067Y0245332D01*
X0132703Y0245121D01*
X0132405Y0244823D01*
X0132194Y0244459D01*
X0132085Y0244052D01*
X0132085Y0242257D01*
X0135072Y0242257D01*
X0135072Y0241882D01*
X0132085Y0241882D01*
X0132085Y0240087D01*
X0132194Y0239680D01*
X0132405Y0239315D01*
X0132703Y0239017D01*
X0133067Y0238807D01*
X0133474Y0238698D01*
X0135072Y0238698D01*
X0135072Y0241882D01*
X0135447Y0241882D01*
X0135447Y0238698D01*
X0137045Y0238698D01*
X0137452Y0238807D01*
X0137817Y0239017D01*
X0138115Y0239315D01*
X0138326Y0239680D01*
X0138435Y0240087D01*
X0138435Y0241882D01*
X0135447Y0241882D01*
X0135447Y0242257D01*
X0135072Y0242257D01*
X0135072Y0245441D01*
X0133474Y0245441D01*
X0135072Y0245408D02*
X0135447Y0245408D01*
X0135447Y0245441D02*
X0137045Y0245441D01*
X0137452Y0245332D01*
X0137817Y0245121D01*
X0138115Y0244823D01*
X0138326Y0244459D01*
X0138435Y0244052D01*
X0138435Y0242257D01*
X0135447Y0242257D01*
X0135447Y0245441D01*
X0135447Y0244210D02*
X0135072Y0244210D01*
X0135072Y0243011D02*
X0135447Y0243011D01*
X0135447Y0241813D02*
X0135072Y0241813D01*
X0135072Y0240614D02*
X0135447Y0240614D01*
X0135447Y0239416D02*
X0135072Y0239416D01*
X0132347Y0239416D02*
X0130498Y0239416D01*
X0131050Y0240614D02*
X0132085Y0240614D01*
X0132085Y0241813D02*
X0131050Y0241813D01*
X0131050Y0243011D02*
X0132085Y0243011D01*
X0132127Y0244210D02*
X0131050Y0244210D01*
X0132769Y0247805D02*
X0136347Y0247805D01*
X0137167Y0245408D02*
X0171500Y0245408D01*
X0171500Y0249004D02*
X0141875Y0249004D01*
X0141875Y0250202D02*
X0171500Y0250202D01*
X0171500Y0251401D02*
X0141875Y0251401D01*
X0141875Y0252599D02*
X0171500Y0252599D01*
X0171500Y0253798D02*
X0120231Y0253798D01*
X0120231Y0252599D02*
X0125005Y0252599D01*
X0122925Y0251401D02*
X0120231Y0251401D01*
X0120231Y0246607D02*
X0124811Y0246607D01*
X0124814Y0245408D02*
X0120231Y0245408D01*
X0120164Y0244210D02*
X0124450Y0244210D01*
X0124450Y0243011D02*
X0116100Y0243011D01*
X0115336Y0244210D02*
X0115164Y0244210D01*
X0115231Y0245408D02*
X0115269Y0245408D01*
X0115231Y0246607D02*
X0115269Y0246607D01*
X0115231Y0247805D02*
X0115269Y0247805D01*
X0115231Y0249004D02*
X0115269Y0249004D01*
X0115231Y0250202D02*
X0115269Y0250202D01*
X0115231Y0251401D02*
X0115269Y0251401D01*
X0115231Y0252599D02*
X0115269Y0252599D01*
X0115231Y0253798D02*
X0115269Y0253798D01*
X0110269Y0253798D02*
X0110231Y0253798D01*
X0110231Y0252599D02*
X0110269Y0252599D01*
X0110231Y0251401D02*
X0110269Y0251401D01*
X0110231Y0250202D02*
X0110269Y0250202D01*
X0110231Y0249004D02*
X0110269Y0249004D01*
X0110231Y0247805D02*
X0110269Y0247805D01*
X0110231Y0246607D02*
X0110269Y0246607D01*
X0110231Y0245408D02*
X0110269Y0245408D01*
X0110336Y0244210D02*
X0110164Y0244210D01*
X0109850Y0243011D02*
X0110650Y0243011D01*
X0105650Y0243011D02*
X0104850Y0243011D01*
X0105164Y0244210D02*
X0105336Y0244210D01*
X0105269Y0245408D02*
X0105231Y0245408D01*
X0105231Y0246607D02*
X0105269Y0246607D01*
X0105231Y0247805D02*
X0105269Y0247805D01*
X0105231Y0249004D02*
X0105269Y0249004D01*
X0105231Y0250202D02*
X0105269Y0250202D01*
X0105231Y0251401D02*
X0105269Y0251401D01*
X0105231Y0252599D02*
X0105269Y0252599D01*
X0105231Y0253798D02*
X0105269Y0253798D01*
X0100269Y0253798D02*
X0100231Y0253798D01*
X0100231Y0252599D02*
X0100269Y0252599D01*
X0100231Y0251401D02*
X0100269Y0251401D01*
X0100231Y0250202D02*
X0100269Y0250202D01*
X0100231Y0249004D02*
X0100269Y0249004D01*
X0100231Y0247805D02*
X0100269Y0247805D01*
X0100231Y0246607D02*
X0100269Y0246607D01*
X0100231Y0245408D02*
X0100269Y0245408D01*
X0100336Y0244210D02*
X0100164Y0244210D01*
X0099850Y0254996D02*
X0171500Y0254996D01*
X0171500Y0256195D02*
X0099850Y0256195D01*
X0099850Y0257393D02*
X0171500Y0257393D01*
X0171500Y0258592D02*
X0099850Y0258592D01*
X0099436Y0259790D02*
X0171500Y0259790D01*
X0171500Y0260989D02*
X0098237Y0260989D01*
X0097039Y0262187D02*
X0171500Y0262187D01*
X0171500Y0263386D02*
X0095840Y0263386D01*
X0094642Y0264584D02*
X0171500Y0264584D01*
X0171500Y0265783D02*
X0093443Y0265783D01*
X0091099Y0262187D02*
X0064800Y0262187D01*
X0064038Y0260806D02*
X0064800Y0260045D01*
X0064800Y0254968D01*
X0064038Y0254206D01*
X0058962Y0254206D01*
X0058375Y0254793D01*
X0057788Y0254206D01*
X0053816Y0254206D01*
X0054375Y0253647D01*
X0054375Y0253437D01*
X0057539Y0253437D01*
X0058950Y0252026D01*
X0058950Y0252295D01*
X0059712Y0253056D01*
X0064788Y0253056D01*
X0065550Y0252295D01*
X0065550Y0251856D01*
X0067370Y0251856D01*
X0067980Y0251246D01*
X0070269Y0251246D01*
X0070269Y0254015D01*
X0071030Y0254777D01*
X0074470Y0254777D01*
X0075105Y0254141D01*
X0075289Y0254459D01*
X0075586Y0254757D01*
X0075951Y0254968D01*
X0076358Y0255077D01*
X0077750Y0255077D01*
X0077750Y0249146D01*
X0077750Y0243215D01*
X0079142Y0243215D01*
X0079549Y0243324D01*
X0079914Y0243535D01*
X0080211Y0243833D01*
X0080395Y0244151D01*
X0081030Y0243515D01*
X0084470Y0243515D01*
X0085231Y0244277D01*
X0085231Y0247046D01*
X0085269Y0247046D01*
X0085269Y0244277D01*
X0086030Y0243515D01*
X0089470Y0243515D01*
X0090231Y0244277D01*
X0090231Y0254015D01*
X0089470Y0254777D01*
X0086030Y0254777D01*
X0085269Y0254015D01*
X0085269Y0251246D01*
X0085231Y0251246D01*
X0085231Y0254015D01*
X0084850Y0254396D01*
X0084850Y0255538D01*
X0085039Y0255727D01*
X0085450Y0256719D01*
X0085450Y0257793D01*
X0085039Y0258786D01*
X0084279Y0259545D01*
X0083287Y0259956D01*
X0082213Y0259956D01*
X0081221Y0259545D01*
X0080461Y0258786D01*
X0080050Y0257793D01*
X0080050Y0256719D01*
X0080461Y0255727D01*
X0080650Y0255538D01*
X0080650Y0254396D01*
X0080395Y0254141D01*
X0080211Y0254459D01*
X0079914Y0254757D01*
X0079549Y0254968D01*
X0079142Y0255077D01*
X0077750Y0255077D01*
X0077750Y0249146D01*
X0077750Y0249146D01*
X0077750Y0243215D01*
X0076358Y0243215D01*
X0075951Y0243324D01*
X0075586Y0243535D01*
X0075289Y0243833D01*
X0075105Y0244151D01*
X0074470Y0243515D01*
X0071030Y0243515D01*
X0070269Y0244277D01*
X0070269Y0247046D01*
X0066240Y0247046D01*
X0065630Y0247656D01*
X0065550Y0247656D01*
X0065550Y0247218D01*
X0064788Y0246456D01*
X0059712Y0246456D01*
X0058950Y0247218D01*
X0058950Y0247656D01*
X0057380Y0247656D01*
X0055799Y0249237D01*
X0054375Y0249237D01*
X0054375Y0249027D01*
X0053613Y0248265D01*
X0049387Y0248265D01*
X0048625Y0249027D01*
X0048625Y0253647D01*
X0049387Y0254409D01*
X0052509Y0254409D01*
X0051950Y0254968D01*
X0051950Y0255388D01*
X0051779Y0255217D01*
X0050787Y0254806D01*
X0049713Y0254806D01*
X0048721Y0255217D01*
X0047961Y0255977D01*
X0047550Y0256969D01*
X0047550Y0258043D01*
X0047961Y0259036D01*
X0048721Y0259795D01*
X0049713Y0260206D01*
X0050787Y0260206D01*
X0051779Y0259795D01*
X0051950Y0259625D01*
X0051950Y0260045D01*
X0052712Y0260806D01*
X0057788Y0260806D01*
X0058375Y0260220D01*
X0058962Y0260806D01*
X0064038Y0260806D01*
X0064800Y0259790D02*
X0081813Y0259790D01*
X0080381Y0258592D02*
X0064800Y0258592D01*
X0064800Y0257393D02*
X0080050Y0257393D01*
X0080267Y0256195D02*
X0064800Y0256195D01*
X0064800Y0254996D02*
X0076058Y0254996D01*
X0077750Y0254996D02*
X0077750Y0254996D01*
X0077750Y0253798D02*
X0077750Y0253798D01*
X0077750Y0252599D02*
X0077750Y0252599D01*
X0077750Y0251401D02*
X0077750Y0251401D01*
X0077750Y0250202D02*
X0077750Y0250202D01*
X0077750Y0249146D02*
X0077750Y0249146D01*
X0077750Y0249004D02*
X0077750Y0249004D01*
X0077750Y0247805D02*
X0077750Y0247805D01*
X0077750Y0246607D02*
X0077750Y0246607D01*
X0077750Y0245408D02*
X0077750Y0245408D01*
X0077750Y0244210D02*
X0077750Y0244210D01*
X0079442Y0254996D02*
X0080650Y0254996D01*
X0084850Y0254996D02*
X0095650Y0254996D01*
X0095650Y0256195D02*
X0085233Y0256195D01*
X0085450Y0257393D02*
X0095650Y0257393D01*
X0094695Y0258592D02*
X0085119Y0258592D01*
X0083687Y0259790D02*
X0093496Y0259790D01*
X0092297Y0260989D02*
X0006500Y0260989D01*
X0006500Y0262187D02*
X0051950Y0262187D01*
X0051950Y0263386D02*
X0006500Y0263386D01*
X0006500Y0264584D02*
X0051950Y0264584D01*
X0051950Y0265783D02*
X0006500Y0265783D01*
X0006500Y0266982D02*
X0051950Y0266982D01*
X0051950Y0259790D02*
X0051784Y0259790D01*
X0048716Y0259790D02*
X0006500Y0259790D01*
X0006500Y0258592D02*
X0047777Y0258592D01*
X0047550Y0257393D02*
X0006500Y0257393D01*
X0006500Y0256195D02*
X0047871Y0256195D01*
X0049254Y0254996D02*
X0006500Y0254996D01*
X0006500Y0253798D02*
X0048776Y0253798D01*
X0048625Y0252599D02*
X0006500Y0252599D01*
X0006500Y0251401D02*
X0048625Y0251401D01*
X0048625Y0250202D02*
X0006500Y0250202D01*
X0006500Y0249004D02*
X0048648Y0249004D01*
X0047947Y0246441D02*
X0049545Y0246441D01*
X0049952Y0246332D01*
X0050317Y0246121D01*
X0050615Y0245823D01*
X0050826Y0245459D01*
X0050935Y0245052D01*
X0050935Y0243257D01*
X0047947Y0243257D01*
X0047572Y0243257D01*
X0047572Y0242882D01*
X0044585Y0242882D01*
X0044585Y0241087D01*
X0044694Y0240680D01*
X0044905Y0240315D01*
X0045203Y0240017D01*
X0045567Y0239807D01*
X0045974Y0239698D01*
X0047572Y0239698D01*
X0047572Y0242882D01*
X0047947Y0242882D01*
X0047947Y0239698D01*
X0049545Y0239698D01*
X0049952Y0239807D01*
X0050317Y0240017D01*
X0050615Y0240315D01*
X0050826Y0240680D01*
X0050935Y0241087D01*
X0050935Y0242882D01*
X0047947Y0242882D01*
X0047947Y0243257D01*
X0047947Y0246441D01*
X0047572Y0246441D02*
X0045974Y0246441D01*
X0045567Y0246332D01*
X0045203Y0246121D01*
X0044905Y0245823D01*
X0044694Y0245459D01*
X0044585Y0245052D01*
X0044585Y0243257D01*
X0047572Y0243257D01*
X0047572Y0246441D01*
X0047572Y0245408D02*
X0047947Y0245408D01*
X0047947Y0244210D02*
X0047572Y0244210D01*
X0047572Y0243011D02*
X0006500Y0243011D01*
X0006500Y0241813D02*
X0044585Y0241813D01*
X0044732Y0240614D02*
X0006500Y0240614D01*
X0006500Y0239416D02*
X0050043Y0239416D01*
X0050810Y0240183D02*
X0049227Y0238599D01*
X0048369Y0236530D01*
X0048369Y0234557D01*
X0043538Y0234557D01*
X0042788Y0235306D01*
X0037712Y0235306D01*
X0037125Y0234720D01*
X0036538Y0235306D01*
X0031462Y0235306D01*
X0030700Y0234545D01*
X0030700Y0229468D01*
X0031462Y0228706D01*
X0036538Y0228706D01*
X0037125Y0229293D01*
X0037712Y0228706D01*
X0042788Y0228706D01*
X0043550Y0229468D01*
X0043550Y0230357D01*
X0048369Y0230357D01*
X0048369Y0228384D01*
X0049227Y0226315D01*
X0050031Y0225510D01*
X0048483Y0225510D01*
X0048483Y0221341D01*
X0047714Y0221341D01*
X0047714Y0220573D01*
X0044530Y0220573D01*
X0044530Y0217794D01*
X0044639Y0217387D01*
X0044850Y0217022D01*
X0045147Y0216724D01*
X0045512Y0216513D01*
X0045919Y0216404D01*
X0047714Y0216404D01*
X0047714Y0220573D01*
X0048483Y0220573D01*
X0048483Y0216404D01*
X0050278Y0216404D01*
X0050684Y0216513D01*
X0051049Y0216724D01*
X0051269Y0216944D01*
X0051408Y0216805D01*
X0051300Y0216543D01*
X0051300Y0215469D01*
X0051711Y0214477D01*
X0052471Y0213717D01*
X0053463Y0213306D01*
X0054537Y0213306D01*
X0055529Y0213717D01*
X0056289Y0214477D01*
X0056700Y0215469D01*
X0056700Y0216543D01*
X0056592Y0216805D01*
X0056943Y0217156D01*
X0057395Y0216704D01*
X0062409Y0216704D01*
X0063170Y0217466D01*
X0063170Y0218857D01*
X0067200Y0218857D01*
X0067200Y0218468D01*
X0067962Y0217706D01*
X0068400Y0217706D01*
X0068400Y0217636D01*
X0069285Y0216752D01*
X0069019Y0216486D01*
X0069019Y0206747D01*
X0069780Y0205986D01*
X0073220Y0205986D01*
X0073981Y0206747D01*
X0073981Y0216486D01*
X0073600Y0216867D01*
X0073600Y0218268D01*
X0073800Y0218468D01*
X0073800Y0223545D01*
X0073213Y0224131D01*
X0073800Y0224718D01*
X0073800Y0229795D01*
X0073038Y0230556D01*
X0067962Y0230556D01*
X0067200Y0229795D01*
X0067200Y0224718D01*
X0067787Y0224131D01*
X0067200Y0223545D01*
X0067200Y0223057D01*
X0063170Y0223057D01*
X0063170Y0224448D01*
X0062409Y0225210D01*
X0057669Y0225210D01*
X0058773Y0226315D01*
X0059631Y0228384D01*
X0059631Y0236530D01*
X0058773Y0238599D01*
X0057364Y0240009D01*
X0058115Y0240759D01*
X0058115Y0245379D01*
X0057353Y0246141D01*
X0053127Y0246141D01*
X0052365Y0245379D01*
X0052365Y0240827D01*
X0050810Y0240183D01*
X0050788Y0240614D02*
X0051851Y0240614D01*
X0052365Y0241813D02*
X0050935Y0241813D01*
X0052365Y0243011D02*
X0047947Y0243011D01*
X0047947Y0241813D02*
X0047572Y0241813D01*
X0047572Y0240614D02*
X0047947Y0240614D01*
X0049068Y0238217D02*
X0006500Y0238217D01*
X0006500Y0237019D02*
X0048572Y0237019D01*
X0048369Y0235820D02*
X0006500Y0235820D01*
X0006500Y0234622D02*
X0030777Y0234622D01*
X0030700Y0233423D02*
X0006500Y0233423D01*
X0006500Y0232225D02*
X0030700Y0232225D01*
X0030700Y0231026D02*
X0006500Y0231026D01*
X0006500Y0229828D02*
X0030700Y0229828D01*
X0031382Y0228497D02*
X0031018Y0228287D01*
X0030720Y0227989D01*
X0030509Y0227624D01*
X0030400Y0227217D01*
X0030400Y0225406D01*
X0033600Y0225406D01*
X0033600Y0224606D01*
X0034400Y0224606D01*
X0034400Y0221406D01*
X0036211Y0221406D01*
X0036618Y0221515D01*
X0036982Y0221726D01*
X0037125Y0221869D01*
X0037268Y0221726D01*
X0037632Y0221515D01*
X0038039Y0221406D01*
X0039850Y0221406D01*
X0039850Y0224606D01*
X0040650Y0224606D01*
X0040650Y0221406D01*
X0042461Y0221406D01*
X0042868Y0221515D01*
X0043232Y0221726D01*
X0043530Y0222024D01*
X0043741Y0222389D01*
X0043850Y0222796D01*
X0043850Y0224606D01*
X0040650Y0224606D01*
X0040650Y0225406D01*
X0043850Y0225406D01*
X0043850Y0227217D01*
X0043741Y0227624D01*
X0043530Y0227989D01*
X0043232Y0228287D01*
X0042868Y0228497D01*
X0042461Y0228606D01*
X0040650Y0228606D01*
X0040650Y0225406D01*
X0039850Y0225406D01*
X0039850Y0224606D01*
X0034400Y0224606D01*
X0034400Y0225406D01*
X0037600Y0225406D01*
X0039850Y0225406D01*
X0039850Y0228606D01*
X0038039Y0228606D01*
X0037632Y0228497D01*
X0037268Y0228287D01*
X0037125Y0228144D01*
X0036982Y0228287D01*
X0036618Y0228497D01*
X0036211Y0228606D01*
X0034400Y0228606D01*
X0034400Y0225406D01*
X0033600Y0225406D01*
X0033600Y0228606D01*
X0031789Y0228606D01*
X0031382Y0228497D01*
X0030457Y0227431D02*
X0006500Y0227431D01*
X0006500Y0228629D02*
X0048369Y0228629D01*
X0048369Y0229828D02*
X0043550Y0229828D01*
X0043793Y0227431D02*
X0048764Y0227431D01*
X0049309Y0226232D02*
X0043850Y0226232D01*
X0044991Y0225034D02*
X0040650Y0225034D01*
X0039850Y0225034D02*
X0034400Y0225034D01*
X0033600Y0225034D02*
X0006500Y0225034D01*
X0006500Y0226232D02*
X0030400Y0226232D01*
X0030400Y0224606D02*
X0030400Y0222796D01*
X0030509Y0222389D01*
X0030720Y0222024D01*
X0031018Y0221726D01*
X0031382Y0221515D01*
X0031789Y0221406D01*
X0033600Y0221406D01*
X0033600Y0224606D01*
X0030400Y0224606D01*
X0030400Y0223835D02*
X0006500Y0223835D01*
X0006500Y0222637D02*
X0030443Y0222637D01*
X0031671Y0221438D02*
X0006500Y0221438D01*
X0006500Y0220240D02*
X0044530Y0220240D01*
X0044530Y0221341D02*
X0047714Y0221341D01*
X0047714Y0225510D01*
X0045919Y0225510D01*
X0045512Y0225401D01*
X0045147Y0225190D01*
X0044850Y0224892D01*
X0044639Y0224527D01*
X0044530Y0224120D01*
X0044530Y0221341D01*
X0044530Y0221438D02*
X0042579Y0221438D01*
X0043807Y0222637D02*
X0044530Y0222637D01*
X0044530Y0223835D02*
X0043850Y0223835D01*
X0044530Y0219041D02*
X0006500Y0219041D01*
X0006500Y0217843D02*
X0044530Y0217843D01*
X0045286Y0216644D02*
X0006500Y0216644D01*
X0006500Y0215446D02*
X0051310Y0215446D01*
X0051342Y0216644D02*
X0050911Y0216644D01*
X0048483Y0216644D02*
X0047714Y0216644D01*
X0047714Y0217843D02*
X0048483Y0217843D01*
X0048483Y0219041D02*
X0047714Y0219041D01*
X0047714Y0220240D02*
X0048483Y0220240D01*
X0048483Y0221438D02*
X0047714Y0221438D01*
X0047714Y0222637D02*
X0048483Y0222637D01*
X0048483Y0223835D02*
X0047714Y0223835D01*
X0047714Y0225034D02*
X0048483Y0225034D01*
X0048369Y0234622D02*
X0043473Y0234622D01*
X0040650Y0227431D02*
X0039850Y0227431D01*
X0039850Y0226232D02*
X0040650Y0226232D01*
X0040650Y0223835D02*
X0039850Y0223835D01*
X0039850Y0222637D02*
X0040650Y0222637D01*
X0040650Y0221438D02*
X0039850Y0221438D01*
X0037921Y0221438D02*
X0036329Y0221438D01*
X0034400Y0221438D02*
X0033600Y0221438D01*
X0033600Y0222637D02*
X0034400Y0222637D01*
X0034400Y0223835D02*
X0033600Y0223835D01*
X0033600Y0226232D02*
X0034400Y0226232D01*
X0034400Y0227431D02*
X0033600Y0227431D01*
X0044585Y0244210D02*
X0006500Y0244210D01*
X0006500Y0245408D02*
X0044681Y0245408D01*
X0050839Y0245408D02*
X0052394Y0245408D01*
X0052365Y0244210D02*
X0050935Y0244210D01*
X0054352Y0249004D02*
X0056033Y0249004D01*
X0057231Y0247805D02*
X0006500Y0247805D01*
X0006500Y0246607D02*
X0059561Y0246607D01*
X0059712Y0246056D02*
X0058950Y0245295D01*
X0058950Y0240218D01*
X0059712Y0239456D01*
X0060150Y0239456D01*
X0060150Y0236886D01*
X0061300Y0235736D01*
X0061300Y0235469D01*
X0061711Y0234477D01*
X0062471Y0233717D01*
X0063463Y0233306D01*
X0064537Y0233306D01*
X0065529Y0233717D01*
X0066289Y0234477D01*
X0066700Y0235469D01*
X0066700Y0236543D01*
X0066289Y0237536D01*
X0065529Y0238295D01*
X0064537Y0238706D01*
X0064350Y0238706D01*
X0064350Y0239456D01*
X0064788Y0239456D01*
X0065550Y0240218D01*
X0065550Y0245295D01*
X0064788Y0246056D01*
X0059712Y0246056D01*
X0059064Y0245408D02*
X0058086Y0245408D01*
X0058115Y0244210D02*
X0058950Y0244210D01*
X0058950Y0243011D02*
X0058115Y0243011D01*
X0058115Y0241813D02*
X0058950Y0241813D01*
X0058950Y0240614D02*
X0057970Y0240614D01*
X0057957Y0239416D02*
X0060150Y0239416D01*
X0060150Y0238217D02*
X0058932Y0238217D01*
X0059428Y0237019D02*
X0060150Y0237019D01*
X0059631Y0235820D02*
X0061216Y0235820D01*
X0061651Y0234622D02*
X0059631Y0234622D01*
X0059631Y0233423D02*
X0063181Y0233423D01*
X0064819Y0233423D02*
X0089450Y0233423D01*
X0089450Y0232225D02*
X0059631Y0232225D01*
X0059631Y0231026D02*
X0089450Y0231026D01*
X0089590Y0229828D02*
X0080767Y0229828D01*
X0080800Y0228629D02*
X0099400Y0228629D01*
X0099400Y0227431D02*
X0080800Y0227431D01*
X0080800Y0226232D02*
X0099400Y0226232D01*
X0099400Y0225034D02*
X0080800Y0225034D01*
X0080510Y0223835D02*
X0099400Y0223835D01*
X0099400Y0222637D02*
X0080800Y0222637D01*
X0080800Y0221438D02*
X0099400Y0221438D01*
X0099400Y0220240D02*
X0080800Y0220240D01*
X0080800Y0219041D02*
X0099400Y0219041D01*
X0099400Y0217843D02*
X0080175Y0217843D01*
X0079780Y0217247D02*
X0079019Y0216486D01*
X0079019Y0206747D01*
X0079780Y0205986D01*
X0083220Y0205986D01*
X0083981Y0206747D01*
X0083981Y0216486D01*
X0083220Y0217247D01*
X0079780Y0217247D01*
X0079177Y0216644D02*
X0078823Y0216644D01*
X0078981Y0215446D02*
X0079019Y0215446D01*
X0078981Y0214247D02*
X0079019Y0214247D01*
X0078981Y0213048D02*
X0079019Y0213048D01*
X0078981Y0211850D02*
X0079019Y0211850D01*
X0078981Y0210651D02*
X0079019Y0210651D01*
X0078981Y0209453D02*
X0079019Y0209453D01*
X0078981Y0208254D02*
X0079019Y0208254D01*
X0078981Y0207056D02*
X0079019Y0207056D01*
X0078600Y0205857D02*
X0089400Y0205857D01*
X0088981Y0206747D02*
X0088220Y0205986D01*
X0084780Y0205986D01*
X0084019Y0206747D01*
X0084019Y0216486D01*
X0084780Y0217247D01*
X0088220Y0217247D01*
X0088981Y0216486D01*
X0088981Y0206747D01*
X0088981Y0207056D02*
X0089019Y0207056D01*
X0088981Y0208254D02*
X0089019Y0208254D01*
X0088981Y0209453D02*
X0089019Y0209453D01*
X0088981Y0210651D02*
X0089019Y0210651D01*
X0088981Y0211850D02*
X0089019Y0211850D01*
X0088981Y0213048D02*
X0089019Y0213048D01*
X0088981Y0214247D02*
X0089019Y0214247D01*
X0088981Y0215446D02*
X0089019Y0215446D01*
X0089177Y0216644D02*
X0088823Y0216644D01*
X0084177Y0216644D02*
X0083823Y0216644D01*
X0083981Y0215446D02*
X0084019Y0215446D01*
X0083981Y0214247D02*
X0084019Y0214247D01*
X0083981Y0213048D02*
X0084019Y0213048D01*
X0083981Y0211850D02*
X0084019Y0211850D01*
X0083981Y0210651D02*
X0084019Y0210651D01*
X0083981Y0209453D02*
X0084019Y0209453D01*
X0083981Y0208254D02*
X0084019Y0208254D01*
X0083981Y0207056D02*
X0084019Y0207056D01*
X0088800Y0203460D02*
X0079200Y0203460D01*
X0078945Y0204659D02*
X0089055Y0204659D01*
X0089093Y0202262D02*
X0078907Y0202262D01*
X0077658Y0201063D02*
X0090342Y0201063D01*
X0092658Y0201063D02*
X0108200Y0201063D01*
X0108200Y0202262D02*
X0093907Y0202262D01*
X0094200Y0203460D02*
X0108200Y0203460D01*
X0108564Y0204659D02*
X0093945Y0204659D01*
X0093600Y0205857D02*
X0094593Y0205857D01*
X0096500Y0205857D02*
X0096500Y0205857D01*
X0096500Y0205686D02*
X0096500Y0211616D01*
X0096500Y0211616D01*
X0096500Y0205686D01*
X0096500Y0207056D02*
X0096500Y0207056D01*
X0096500Y0208254D02*
X0096500Y0208254D01*
X0096500Y0209453D02*
X0096500Y0209453D01*
X0096500Y0210651D02*
X0096500Y0210651D01*
X0096500Y0211617D02*
X0096500Y0217547D01*
X0096500Y0211617D01*
X0096500Y0211617D01*
X0096500Y0211850D02*
X0096500Y0211850D01*
X0096500Y0213048D02*
X0096500Y0213048D01*
X0096500Y0214247D02*
X0096500Y0214247D01*
X0096500Y0215446D02*
X0096500Y0215446D01*
X0096500Y0216644D02*
X0096500Y0216644D01*
X0099126Y0216644D02*
X0099177Y0216644D01*
X0098407Y0205857D02*
X0108560Y0205857D01*
X0108200Y0207056D02*
X0103981Y0207056D01*
X0103981Y0208254D02*
X0108200Y0208254D01*
X0108200Y0209453D02*
X0103981Y0209453D01*
X0103981Y0210651D02*
X0108200Y0210651D01*
X0108755Y0211850D02*
X0103981Y0211850D01*
X0103981Y0213048D02*
X0108200Y0213048D01*
X0108200Y0214247D02*
X0103981Y0214247D01*
X0103981Y0215446D02*
X0108200Y0215446D01*
X0108200Y0216644D02*
X0103823Y0216644D01*
X0103600Y0217843D02*
X0108200Y0217843D01*
X0099850Y0235820D02*
X0123800Y0235820D01*
X0123997Y0237019D02*
X0117300Y0237019D01*
X0117300Y0238217D02*
X0124893Y0238217D01*
X0125002Y0239416D02*
X0117300Y0239416D01*
X0117300Y0240614D02*
X0124450Y0240614D01*
X0124450Y0241813D02*
X0117300Y0241813D01*
X0117300Y0234622D02*
X0118905Y0234622D01*
X0119058Y0229828D02*
X0117160Y0229828D01*
X0121595Y0234622D02*
X0124151Y0234622D01*
X0130495Y0252599D02*
X0136125Y0252599D01*
X0138392Y0244210D02*
X0139865Y0244210D01*
X0139865Y0243011D02*
X0138435Y0243011D01*
X0138435Y0241813D02*
X0139865Y0241813D01*
X0139865Y0240614D02*
X0138435Y0240614D01*
X0138173Y0239416D02*
X0140209Y0239416D01*
X0122370Y0276406D02*
X0123600Y0277636D01*
X0126100Y0280136D01*
X0126100Y0309206D01*
X0126538Y0309206D01*
X0127300Y0309968D01*
X0127300Y0310406D01*
X0136370Y0310406D01*
X0136970Y0311006D01*
X0171500Y0311006D01*
X0171500Y0196006D01*
X0006500Y0196006D01*
X0006500Y0311006D01*
X0057949Y0311006D01*
X0057961Y0310977D01*
X0058721Y0310217D01*
X0059713Y0309806D01*
X0060787Y0309806D01*
X0061779Y0310217D01*
X0061968Y0310406D01*
X0063200Y0310406D01*
X0063200Y0309968D01*
X0063962Y0309206D01*
X0064400Y0309206D01*
X0064400Y0280334D01*
X0064118Y0280497D01*
X0063711Y0280606D01*
X0061900Y0280606D01*
X0061900Y0277406D01*
X0065100Y0277406D01*
X0065100Y0279217D01*
X0065020Y0279517D01*
X0066900Y0277636D01*
X0068130Y0276406D01*
X0070582Y0276406D01*
X0070461Y0276286D01*
X0070050Y0275293D01*
X0070050Y0274219D01*
X0070461Y0273227D01*
X0071221Y0272467D01*
X0072213Y0272056D01*
X0073287Y0272056D01*
X0074279Y0272467D01*
X0075039Y0273227D01*
X0075450Y0274219D01*
X0075450Y0275293D01*
X0075039Y0276286D01*
X0074918Y0276406D01*
X0077120Y0276406D01*
X0078620Y0277906D01*
X0079850Y0279136D01*
X0079850Y0280116D01*
X0080231Y0280497D01*
X0080231Y0290236D01*
X0079470Y0290997D01*
X0076030Y0290997D01*
X0075269Y0290236D01*
X0075269Y0280606D01*
X0075231Y0280606D01*
X0075231Y0290236D01*
X0074850Y0290617D01*
X0074850Y0309206D01*
X0075288Y0309206D01*
X0076050Y0309968D01*
X0076050Y0311006D01*
X0079450Y0311006D01*
X0079450Y0309968D01*
X0080212Y0309206D01*
X0080650Y0309206D01*
X0080650Y0290617D01*
X0080269Y0290236D01*
X0080269Y0280497D01*
X0081030Y0279736D01*
X0084470Y0279736D01*
X0085231Y0280497D01*
X0085231Y0290236D01*
X0084850Y0290617D01*
X0084850Y0292436D01*
X0085650Y0291636D01*
X0085650Y0290617D01*
X0085269Y0290236D01*
X0085269Y0280497D01*
X0085650Y0280116D01*
X0085650Y0278975D01*
X0085461Y0278786D01*
X0085050Y0277793D01*
X0085050Y0276719D01*
X0085461Y0275727D01*
X0086221Y0274967D01*
X0087213Y0274556D01*
X0088287Y0274556D01*
X0089279Y0274967D01*
X0090039Y0275727D01*
X0090450Y0276719D01*
X0090450Y0277793D01*
X0090039Y0278786D01*
X0089850Y0278975D01*
X0089850Y0280116D01*
X0090105Y0280371D01*
X0090289Y0280053D01*
X0090586Y0279756D01*
X0090951Y0279545D01*
X0091358Y0279436D01*
X0092750Y0279436D01*
X0094142Y0279436D01*
X0094549Y0279545D01*
X0094914Y0279756D01*
X0095211Y0280053D01*
X0095250Y0280120D01*
X0095289Y0280053D01*
X0095586Y0279756D01*
X0095951Y0279545D01*
X0096358Y0279436D01*
X0097750Y0279436D01*
X0099142Y0279436D01*
X0099549Y0279545D01*
X0099914Y0279756D01*
X0100211Y0280053D01*
X0100395Y0280371D01*
X0100650Y0280116D01*
X0100650Y0278975D01*
X0100461Y0278786D01*
X0100050Y0277793D01*
X0100050Y0276719D01*
X0100461Y0275727D01*
X0101221Y0274967D01*
X0102213Y0274556D01*
X0103287Y0274556D01*
X0104279Y0274967D01*
X0105039Y0275727D01*
X0105450Y0276719D01*
X0105450Y0277793D01*
X0105039Y0278786D01*
X0104850Y0278975D01*
X0104850Y0280116D01*
X0105231Y0280497D01*
X0105231Y0290236D01*
X0104470Y0290997D01*
X0101030Y0290997D01*
X0100395Y0290362D01*
X0100211Y0290680D01*
X0099914Y0290978D01*
X0099549Y0291188D01*
X0099142Y0291297D01*
X0097750Y0291297D01*
X0096358Y0291297D01*
X0095951Y0291188D01*
X0095586Y0290978D01*
X0095289Y0290680D01*
X0095250Y0290613D01*
X0095211Y0290680D01*
X0094914Y0290978D01*
X0094549Y0291188D01*
X0094142Y0291297D01*
X0092750Y0291297D01*
X0091358Y0291297D01*
X0090951Y0291188D01*
X0090586Y0290978D01*
X0090289Y0290680D01*
X0090105Y0290362D01*
X0089850Y0290617D01*
X0089850Y0293268D01*
X0090050Y0293468D01*
X0090050Y0298545D01*
X0089463Y0299131D01*
X0090050Y0299718D01*
X0090050Y0304795D01*
X0089288Y0305556D01*
X0084850Y0305556D01*
X0084850Y0309206D01*
X0085288Y0309206D01*
X0085875Y0309793D01*
X0086462Y0309206D01*
X0091538Y0309206D01*
X0092300Y0309968D01*
X0092300Y0310406D01*
X0093532Y0310406D01*
X0093721Y0310217D01*
X0094713Y0309806D01*
X0095787Y0309806D01*
X0096779Y0310217D01*
X0096968Y0310406D01*
X0098200Y0310406D01*
X0098200Y0309968D01*
X0098962Y0309206D01*
X0104038Y0309206D01*
X0104625Y0309793D01*
X0105212Y0309206D01*
X0105650Y0309206D01*
X0105650Y0290617D01*
X0105269Y0290236D01*
X0105269Y0280497D01*
X0106030Y0279736D01*
X0109470Y0279736D01*
X0110231Y0280497D01*
X0110231Y0290236D01*
X0109850Y0290617D01*
X0109850Y0309206D01*
X0110288Y0309206D01*
X0111050Y0309968D01*
X0111050Y0311006D01*
X0114450Y0311006D01*
X0114450Y0309968D01*
X0115212Y0309206D01*
X0115650Y0309206D01*
X0115650Y0290617D01*
X0115269Y0290236D01*
X0115269Y0281457D01*
X0115231Y0281495D01*
X0115231Y0290236D01*
X0114470Y0290997D01*
X0111030Y0290997D01*
X0110269Y0290236D01*
X0110269Y0280497D01*
X0111030Y0279736D01*
X0111051Y0279736D01*
X0111880Y0278906D01*
X0114380Y0276406D01*
X0115832Y0276406D01*
X0115711Y0276286D01*
X0115300Y0275293D01*
X0115300Y0274219D01*
X0115711Y0273227D01*
X0116471Y0272467D01*
X0117463Y0272056D01*
X0118537Y0272056D01*
X0119529Y0272467D01*
X0120289Y0273227D01*
X0120700Y0274219D01*
X0120700Y0275293D01*
X0120289Y0276286D01*
X0120168Y0276406D01*
X0122370Y0276406D01*
X0122533Y0276570D02*
X0171500Y0276570D01*
X0171500Y0277768D02*
X0123732Y0277768D01*
X0124930Y0278967D02*
X0171500Y0278967D01*
X0171500Y0280165D02*
X0126100Y0280165D01*
X0126100Y0281364D02*
X0171500Y0281364D01*
X0171500Y0282562D02*
X0126100Y0282562D01*
X0126100Y0283761D02*
X0171500Y0283761D01*
X0171500Y0284959D02*
X0126100Y0284959D01*
X0126100Y0286158D02*
X0171500Y0286158D01*
X0171500Y0287356D02*
X0126100Y0287356D01*
X0126100Y0288555D02*
X0171500Y0288555D01*
X0171500Y0289753D02*
X0126100Y0289753D01*
X0126100Y0290952D02*
X0171500Y0290952D01*
X0171500Y0292150D02*
X0126100Y0292150D01*
X0126100Y0293349D02*
X0171500Y0293349D01*
X0171500Y0294547D02*
X0126100Y0294547D01*
X0126100Y0295746D02*
X0171500Y0295746D01*
X0171500Y0296944D02*
X0126100Y0296944D01*
X0126100Y0298143D02*
X0171500Y0298143D01*
X0171500Y0299341D02*
X0126100Y0299341D01*
X0126100Y0300540D02*
X0171500Y0300540D01*
X0171500Y0301738D02*
X0126100Y0301738D01*
X0126100Y0302937D02*
X0171500Y0302937D01*
X0171500Y0304135D02*
X0126100Y0304135D01*
X0126100Y0305334D02*
X0171500Y0305334D01*
X0171500Y0306532D02*
X0126100Y0306532D01*
X0126100Y0307731D02*
X0171500Y0307731D01*
X0171500Y0308929D02*
X0126100Y0308929D01*
X0127300Y0310128D02*
X0171500Y0310128D01*
X0171500Y0275371D02*
X0120668Y0275371D01*
X0120681Y0274173D02*
X0171500Y0274173D01*
X0171500Y0272974D02*
X0120036Y0272974D01*
X0115964Y0272974D02*
X0074786Y0272974D01*
X0075431Y0274173D02*
X0115319Y0274173D01*
X0115332Y0275371D02*
X0104683Y0275371D01*
X0105388Y0276570D02*
X0114217Y0276570D01*
X0113018Y0277768D02*
X0105450Y0277768D01*
X0104858Y0278967D02*
X0111820Y0278967D01*
X0110601Y0280165D02*
X0109899Y0280165D01*
X0110231Y0281364D02*
X0110269Y0281364D01*
X0110231Y0282562D02*
X0110269Y0282562D01*
X0110231Y0283761D02*
X0110269Y0283761D01*
X0110231Y0284959D02*
X0110269Y0284959D01*
X0110231Y0286158D02*
X0110269Y0286158D01*
X0110231Y0287356D02*
X0110269Y0287356D01*
X0110231Y0288555D02*
X0110269Y0288555D01*
X0110231Y0289753D02*
X0110269Y0289753D01*
X0109850Y0290952D02*
X0110985Y0290952D01*
X0109850Y0292150D02*
X0115650Y0292150D01*
X0115650Y0290952D02*
X0114515Y0290952D01*
X0115231Y0289753D02*
X0115269Y0289753D01*
X0115231Y0288555D02*
X0115269Y0288555D01*
X0115231Y0287356D02*
X0115269Y0287356D01*
X0115231Y0286158D02*
X0115269Y0286158D01*
X0115231Y0284959D02*
X0115269Y0284959D01*
X0115231Y0283761D02*
X0115269Y0283761D01*
X0115231Y0282562D02*
X0115269Y0282562D01*
X0115650Y0293349D02*
X0109850Y0293349D01*
X0109850Y0294547D02*
X0115650Y0294547D01*
X0115650Y0295746D02*
X0109850Y0295746D01*
X0109850Y0296944D02*
X0115650Y0296944D01*
X0115650Y0298143D02*
X0109850Y0298143D01*
X0109850Y0299341D02*
X0115650Y0299341D01*
X0115650Y0300540D02*
X0109850Y0300540D01*
X0109850Y0301738D02*
X0115650Y0301738D01*
X0115650Y0302937D02*
X0109850Y0302937D01*
X0109850Y0304135D02*
X0115650Y0304135D01*
X0115650Y0305334D02*
X0109850Y0305334D01*
X0109850Y0306532D02*
X0115650Y0306532D01*
X0115650Y0307731D02*
X0109850Y0307731D01*
X0109850Y0308929D02*
X0115650Y0308929D01*
X0114450Y0310128D02*
X0111050Y0310128D01*
X0105650Y0308929D02*
X0084850Y0308929D01*
X0084850Y0307731D02*
X0105650Y0307731D01*
X0105650Y0306532D02*
X0084850Y0306532D01*
X0080650Y0306532D02*
X0074850Y0306532D01*
X0074850Y0305334D02*
X0080650Y0305334D01*
X0080650Y0304135D02*
X0074850Y0304135D01*
X0074850Y0302937D02*
X0080650Y0302937D01*
X0080650Y0301738D02*
X0074850Y0301738D01*
X0074850Y0300540D02*
X0080650Y0300540D01*
X0080650Y0299341D02*
X0074850Y0299341D01*
X0074850Y0298143D02*
X0080650Y0298143D01*
X0080650Y0296944D02*
X0074850Y0296944D01*
X0074850Y0295746D02*
X0080650Y0295746D01*
X0080650Y0294547D02*
X0074850Y0294547D01*
X0074850Y0293349D02*
X0080650Y0293349D01*
X0080650Y0292150D02*
X0074850Y0292150D01*
X0074850Y0290952D02*
X0075985Y0290952D01*
X0075269Y0289753D02*
X0075231Y0289753D01*
X0075231Y0288555D02*
X0075269Y0288555D01*
X0075231Y0287356D02*
X0075269Y0287356D01*
X0075231Y0286158D02*
X0075269Y0286158D01*
X0075231Y0284959D02*
X0075269Y0284959D01*
X0075231Y0283761D02*
X0075269Y0283761D01*
X0075231Y0282562D02*
X0075269Y0282562D01*
X0075231Y0281364D02*
X0075269Y0281364D01*
X0077283Y0276570D02*
X0085112Y0276570D01*
X0085050Y0277768D02*
X0078482Y0277768D01*
X0079680Y0278967D02*
X0085642Y0278967D01*
X0085601Y0280165D02*
X0084899Y0280165D01*
X0085231Y0281364D02*
X0085269Y0281364D01*
X0085231Y0282562D02*
X0085269Y0282562D01*
X0085231Y0283761D02*
X0085269Y0283761D01*
X0085231Y0284959D02*
X0085269Y0284959D01*
X0085231Y0286158D02*
X0085269Y0286158D01*
X0085231Y0287356D02*
X0085269Y0287356D01*
X0085231Y0288555D02*
X0085269Y0288555D01*
X0085231Y0289753D02*
X0085269Y0289753D01*
X0085650Y0290952D02*
X0084850Y0290952D01*
X0084850Y0292150D02*
X0085136Y0292150D01*
X0080650Y0290952D02*
X0079515Y0290952D01*
X0080231Y0289753D02*
X0080269Y0289753D01*
X0080231Y0288555D02*
X0080269Y0288555D01*
X0080231Y0287356D02*
X0080269Y0287356D01*
X0080231Y0286158D02*
X0080269Y0286158D01*
X0080231Y0284959D02*
X0080269Y0284959D01*
X0080231Y0283761D02*
X0080269Y0283761D01*
X0080231Y0282562D02*
X0080269Y0282562D01*
X0080231Y0281364D02*
X0080269Y0281364D01*
X0080601Y0280165D02*
X0079899Y0280165D01*
X0075418Y0275371D02*
X0085817Y0275371D01*
X0089683Y0275371D02*
X0100817Y0275371D01*
X0100112Y0276570D02*
X0090388Y0276570D01*
X0090450Y0277768D02*
X0100050Y0277768D01*
X0100642Y0278967D02*
X0089858Y0278967D01*
X0089899Y0280165D02*
X0090224Y0280165D01*
X0092750Y0280165D02*
X0092750Y0280165D01*
X0092750Y0279436D02*
X0092750Y0285366D01*
X0092750Y0285366D01*
X0092750Y0279436D01*
X0092750Y0281364D02*
X0092750Y0281364D01*
X0092750Y0282562D02*
X0092750Y0282562D01*
X0092750Y0283761D02*
X0092750Y0283761D01*
X0092750Y0284959D02*
X0092750Y0284959D01*
X0092750Y0285366D02*
X0092750Y0285367D01*
X0092750Y0291297D01*
X0092750Y0285367D01*
X0092750Y0285367D01*
X0095531Y0285367D01*
X0097750Y0285367D01*
X0097750Y0291297D01*
X0097750Y0285367D01*
X0097750Y0285367D01*
X0097750Y0285366D01*
X0097750Y0279436D01*
X0097750Y0285366D01*
X0097750Y0285366D01*
X0092750Y0285366D01*
X0092750Y0286158D02*
X0092750Y0286158D01*
X0092750Y0287356D02*
X0092750Y0287356D01*
X0092750Y0288555D02*
X0092750Y0288555D01*
X0092750Y0289753D02*
X0092750Y0289753D01*
X0092750Y0290952D02*
X0092750Y0290952D01*
X0093350Y0292406D02*
X0093350Y0295606D01*
X0094150Y0295606D01*
X0094150Y0292406D01*
X0095961Y0292406D01*
X0096368Y0292515D01*
X0096732Y0292726D01*
X0097030Y0293024D01*
X0097241Y0293389D01*
X0097350Y0293796D01*
X0097350Y0295606D01*
X0094150Y0295606D01*
X0094150Y0296406D01*
X0097350Y0296406D01*
X0097350Y0298217D01*
X0097241Y0298624D01*
X0097030Y0298989D01*
X0096888Y0299131D01*
X0097030Y0299274D01*
X0097241Y0299639D01*
X0097350Y0300046D01*
X0097350Y0301856D01*
X0094150Y0301856D01*
X0094150Y0298656D01*
X0094150Y0296406D01*
X0093350Y0296406D01*
X0093350Y0295606D01*
X0090150Y0295606D01*
X0090150Y0293796D01*
X0090259Y0293389D01*
X0090470Y0293024D01*
X0090768Y0292726D01*
X0091132Y0292515D01*
X0091539Y0292406D01*
X0093350Y0292406D01*
X0093350Y0293349D02*
X0094150Y0293349D01*
X0094150Y0294547D02*
X0093350Y0294547D01*
X0093350Y0295746D02*
X0090050Y0295746D01*
X0090150Y0296406D02*
X0093350Y0296406D01*
X0093350Y0301856D01*
X0094150Y0301856D01*
X0094150Y0302656D01*
X0097350Y0302656D01*
X0097350Y0304467D01*
X0097241Y0304874D01*
X0097030Y0305239D01*
X0096732Y0305537D01*
X0096368Y0305747D01*
X0095961Y0305856D01*
X0094150Y0305856D01*
X0094150Y0302656D01*
X0093350Y0302656D01*
X0093350Y0301856D01*
X0090150Y0301856D01*
X0090150Y0300046D01*
X0090259Y0299639D01*
X0090470Y0299274D01*
X0090612Y0299131D01*
X0090470Y0298989D01*
X0090259Y0298624D01*
X0090150Y0298217D01*
X0090150Y0296406D01*
X0090150Y0296944D02*
X0090050Y0296944D01*
X0090050Y0298143D02*
X0090150Y0298143D01*
X0090431Y0299341D02*
X0089673Y0299341D01*
X0090050Y0300540D02*
X0090150Y0300540D01*
X0090150Y0301738D02*
X0090050Y0301738D01*
X0090150Y0302656D02*
X0093350Y0302656D01*
X0093350Y0305856D01*
X0091539Y0305856D01*
X0091132Y0305747D01*
X0090768Y0305537D01*
X0090470Y0305239D01*
X0090259Y0304874D01*
X0090150Y0304467D01*
X0090150Y0302656D01*
X0090150Y0302937D02*
X0090050Y0302937D01*
X0090050Y0304135D02*
X0090150Y0304135D01*
X0090565Y0305334D02*
X0089511Y0305334D01*
X0093350Y0305334D02*
X0094150Y0305334D01*
X0094150Y0304135D02*
X0093350Y0304135D01*
X0093350Y0302937D02*
X0094150Y0302937D01*
X0094150Y0301738D02*
X0093350Y0301738D01*
X0093350Y0300540D02*
X0094150Y0300540D01*
X0094150Y0299341D02*
X0093350Y0299341D01*
X0093350Y0298143D02*
X0094150Y0298143D01*
X0094150Y0296944D02*
X0093350Y0296944D01*
X0094150Y0295746D02*
X0105650Y0295746D01*
X0105650Y0296944D02*
X0097350Y0296944D01*
X0097350Y0298143D02*
X0105650Y0298143D01*
X0105650Y0299341D02*
X0097069Y0299341D01*
X0097350Y0300540D02*
X0105650Y0300540D01*
X0105650Y0301738D02*
X0097350Y0301738D01*
X0097350Y0302937D02*
X0105650Y0302937D01*
X0105650Y0304135D02*
X0097350Y0304135D01*
X0096935Y0305334D02*
X0105650Y0305334D01*
X0105650Y0294547D02*
X0097350Y0294547D01*
X0097218Y0293349D02*
X0105650Y0293349D01*
X0105650Y0292150D02*
X0089850Y0292150D01*
X0089850Y0290952D02*
X0090561Y0290952D01*
X0090282Y0293349D02*
X0089931Y0293349D01*
X0090050Y0294547D02*
X0090150Y0294547D01*
X0094939Y0290952D02*
X0095561Y0290952D01*
X0097750Y0290952D02*
X0097750Y0290952D01*
X0097750Y0289753D02*
X0097750Y0289753D01*
X0097750Y0288555D02*
X0097750Y0288555D01*
X0097750Y0287356D02*
X0097750Y0287356D01*
X0097750Y0286158D02*
X0097750Y0286158D01*
X0097750Y0284959D02*
X0097750Y0284959D01*
X0097750Y0283761D02*
X0097750Y0283761D01*
X0097750Y0282562D02*
X0097750Y0282562D01*
X0097750Y0281364D02*
X0097750Y0281364D01*
X0097750Y0280165D02*
X0097750Y0280165D01*
X0100276Y0280165D02*
X0100601Y0280165D01*
X0104899Y0280165D02*
X0105601Y0280165D01*
X0105269Y0281364D02*
X0105231Y0281364D01*
X0105231Y0282562D02*
X0105269Y0282562D01*
X0105231Y0283761D02*
X0105269Y0283761D01*
X0105231Y0284959D02*
X0105269Y0284959D01*
X0105231Y0286158D02*
X0105269Y0286158D01*
X0105231Y0287356D02*
X0105269Y0287356D01*
X0105231Y0288555D02*
X0105269Y0288555D01*
X0105231Y0289753D02*
X0105269Y0289753D01*
X0105650Y0290952D02*
X0104515Y0290952D01*
X0100985Y0290952D02*
X0099939Y0290952D01*
X0098200Y0310128D02*
X0096564Y0310128D01*
X0093936Y0310128D02*
X0092300Y0310128D01*
X0080650Y0308929D02*
X0074850Y0308929D01*
X0074850Y0307731D02*
X0080650Y0307731D01*
X0079450Y0310128D02*
X0076050Y0310128D01*
X0064400Y0308929D02*
X0006500Y0308929D01*
X0006500Y0307731D02*
X0064400Y0307731D01*
X0064400Y0306532D02*
X0006500Y0306532D01*
X0006500Y0305334D02*
X0064400Y0305334D01*
X0064400Y0304135D02*
X0006500Y0304135D01*
X0006500Y0302937D02*
X0064400Y0302937D01*
X0064400Y0301738D02*
X0006500Y0301738D01*
X0006500Y0300540D02*
X0064400Y0300540D01*
X0064400Y0299341D02*
X0006500Y0299341D01*
X0006500Y0298143D02*
X0064400Y0298143D01*
X0064400Y0296944D02*
X0006500Y0296944D01*
X0006500Y0295746D02*
X0064400Y0295746D01*
X0064400Y0294547D02*
X0006500Y0294547D01*
X0006500Y0293349D02*
X0064400Y0293349D01*
X0064400Y0292150D02*
X0006500Y0292150D01*
X0006500Y0290952D02*
X0064400Y0290952D01*
X0064400Y0289753D02*
X0006500Y0289753D01*
X0006500Y0288555D02*
X0064400Y0288555D01*
X0064400Y0287356D02*
X0006500Y0287356D01*
X0006500Y0286158D02*
X0064400Y0286158D01*
X0064400Y0284959D02*
X0006500Y0284959D01*
X0006500Y0283761D02*
X0064400Y0283761D01*
X0064400Y0282562D02*
X0006500Y0282562D01*
X0006500Y0281364D02*
X0064400Y0281364D01*
X0065100Y0278967D02*
X0065570Y0278967D01*
X0065100Y0277768D02*
X0066768Y0277768D01*
X0067967Y0276570D02*
X0065100Y0276570D01*
X0065100Y0276606D02*
X0061900Y0276606D01*
X0061900Y0273406D01*
X0063711Y0273406D01*
X0064118Y0273515D01*
X0064482Y0273726D01*
X0064780Y0274024D01*
X0064991Y0274389D01*
X0065100Y0274796D01*
X0065100Y0276606D01*
X0065100Y0275371D02*
X0070082Y0275371D01*
X0070069Y0274173D02*
X0064866Y0274173D01*
X0064371Y0272974D02*
X0070714Y0272974D01*
X0064800Y0271776D02*
X0171500Y0271776D01*
X0171500Y0270577D02*
X0064800Y0270577D01*
X0064800Y0269379D02*
X0171500Y0269379D01*
X0171500Y0268180D02*
X0064800Y0268180D01*
X0064800Y0266982D02*
X0171500Y0266982D01*
X0171500Y0203460D02*
X0119864Y0203460D01*
X0120450Y0202262D02*
X0171500Y0202262D01*
X0171500Y0201063D02*
X0120385Y0201063D01*
X0119677Y0199865D02*
X0171500Y0199865D01*
X0171500Y0196269D02*
X0006500Y0196269D01*
X0006500Y0202262D02*
X0074093Y0202262D01*
X0073800Y0203460D02*
X0006500Y0203460D01*
X0006500Y0204659D02*
X0074055Y0204659D01*
X0074400Y0205857D02*
X0006500Y0205857D01*
X0006500Y0207056D02*
X0064019Y0207056D01*
X0064019Y0206747D02*
X0064780Y0205986D01*
X0068220Y0205986D01*
X0068981Y0206747D01*
X0068981Y0216486D01*
X0068220Y0217247D01*
X0064780Y0217247D01*
X0064019Y0216486D01*
X0064019Y0206747D01*
X0064019Y0208254D02*
X0006500Y0208254D01*
X0006500Y0209453D02*
X0064019Y0209453D01*
X0064019Y0210651D02*
X0006500Y0210651D01*
X0006500Y0211850D02*
X0064019Y0211850D01*
X0064019Y0213048D02*
X0006500Y0213048D01*
X0006500Y0214247D02*
X0051941Y0214247D01*
X0056059Y0214247D02*
X0064019Y0214247D01*
X0064019Y0215446D02*
X0056690Y0215446D01*
X0056658Y0216644D02*
X0064177Y0216644D01*
X0063170Y0217843D02*
X0067825Y0217843D01*
X0068823Y0216644D02*
X0069177Y0216644D01*
X0069019Y0215446D02*
X0068981Y0215446D01*
X0068981Y0214247D02*
X0069019Y0214247D01*
X0068981Y0213048D02*
X0069019Y0213048D01*
X0068981Y0211850D02*
X0069019Y0211850D01*
X0068981Y0210651D02*
X0069019Y0210651D01*
X0068981Y0209453D02*
X0069019Y0209453D01*
X0068981Y0208254D02*
X0069019Y0208254D01*
X0068981Y0207056D02*
X0069019Y0207056D01*
X0073981Y0207056D02*
X0074019Y0207056D01*
X0073981Y0208254D02*
X0074019Y0208254D01*
X0073981Y0209453D02*
X0074019Y0209453D01*
X0073981Y0210651D02*
X0074019Y0210651D01*
X0073981Y0211850D02*
X0074019Y0211850D01*
X0073981Y0213048D02*
X0074019Y0213048D01*
X0073981Y0214247D02*
X0074019Y0214247D01*
X0073981Y0215446D02*
X0074019Y0215446D01*
X0074177Y0216644D02*
X0073823Y0216644D01*
X0073600Y0217843D02*
X0074400Y0217843D01*
X0074200Y0219041D02*
X0073800Y0219041D01*
X0073800Y0220240D02*
X0074200Y0220240D01*
X0074200Y0221438D02*
X0073800Y0221438D01*
X0073800Y0222637D02*
X0074200Y0222637D01*
X0074490Y0223835D02*
X0073510Y0223835D01*
X0073800Y0225034D02*
X0074200Y0225034D01*
X0074200Y0226232D02*
X0073800Y0226232D01*
X0073800Y0227431D02*
X0074200Y0227431D01*
X0074200Y0228629D02*
X0073800Y0228629D01*
X0073767Y0229828D02*
X0074233Y0229828D01*
X0067233Y0229828D02*
X0059631Y0229828D01*
X0059631Y0228629D02*
X0067200Y0228629D01*
X0067200Y0227431D02*
X0059236Y0227431D01*
X0058691Y0226232D02*
X0067200Y0226232D01*
X0067200Y0225034D02*
X0062585Y0225034D01*
X0063170Y0223835D02*
X0067490Y0223835D01*
X0066349Y0234622D02*
X0089450Y0234622D01*
X0089450Y0237019D02*
X0066503Y0237019D01*
X0066700Y0235820D02*
X0095650Y0235820D01*
X0095910Y0229828D02*
X0098340Y0229828D01*
X0095650Y0243011D02*
X0094850Y0243011D01*
X0095164Y0244210D02*
X0095336Y0244210D01*
X0095269Y0245408D02*
X0095231Y0245408D01*
X0095231Y0246607D02*
X0095269Y0246607D01*
X0095231Y0247805D02*
X0095269Y0247805D01*
X0095231Y0249004D02*
X0095269Y0249004D01*
X0095231Y0250202D02*
X0095269Y0250202D01*
X0095231Y0251401D02*
X0095269Y0251401D01*
X0095231Y0252599D02*
X0095269Y0252599D01*
X0095231Y0253798D02*
X0095269Y0253798D01*
X0090269Y0253798D02*
X0090231Y0253798D01*
X0090231Y0252599D02*
X0090269Y0252599D01*
X0090231Y0251401D02*
X0090269Y0251401D01*
X0090231Y0250202D02*
X0090269Y0250202D01*
X0090231Y0249004D02*
X0090269Y0249004D01*
X0090231Y0247805D02*
X0090269Y0247805D01*
X0090231Y0246607D02*
X0090269Y0246607D01*
X0090231Y0245408D02*
X0090269Y0245408D01*
X0090336Y0244210D02*
X0090164Y0244210D01*
X0090650Y0243011D02*
X0065550Y0243011D01*
X0065550Y0241813D02*
X0089450Y0241813D01*
X0089450Y0240614D02*
X0065550Y0240614D01*
X0064350Y0239416D02*
X0089450Y0239416D01*
X0089450Y0238217D02*
X0065607Y0238217D01*
X0065550Y0244210D02*
X0070336Y0244210D01*
X0070269Y0245408D02*
X0065436Y0245408D01*
X0064939Y0246607D02*
X0070269Y0246607D01*
X0070269Y0251401D02*
X0067825Y0251401D01*
X0070269Y0252599D02*
X0065245Y0252599D01*
X0070269Y0253798D02*
X0054224Y0253798D01*
X0051950Y0254996D02*
X0051246Y0254996D01*
X0058377Y0252599D02*
X0059255Y0252599D01*
X0058200Y0268180D02*
X0006500Y0268180D01*
X0006500Y0269379D02*
X0058200Y0269379D01*
X0058200Y0270577D02*
X0006500Y0270577D01*
X0006500Y0271776D02*
X0058200Y0271776D01*
X0058629Y0272974D02*
X0006500Y0272974D01*
X0006500Y0274173D02*
X0058134Y0274173D01*
X0058220Y0274024D02*
X0058518Y0273726D01*
X0058882Y0273515D01*
X0059289Y0273406D01*
X0061100Y0273406D01*
X0061100Y0276606D01*
X0061900Y0276606D01*
X0061900Y0277406D01*
X0061100Y0277406D01*
X0061100Y0276606D01*
X0057900Y0276606D01*
X0057900Y0274796D01*
X0058009Y0274389D01*
X0058220Y0274024D01*
X0057900Y0275371D02*
X0006500Y0275371D01*
X0006500Y0276570D02*
X0057900Y0276570D01*
X0057900Y0277406D02*
X0061100Y0277406D01*
X0061100Y0280606D01*
X0059289Y0280606D01*
X0058882Y0280497D01*
X0058518Y0280287D01*
X0058220Y0279989D01*
X0058009Y0279624D01*
X0057900Y0279217D01*
X0057900Y0277406D01*
X0057900Y0277768D02*
X0006500Y0277768D01*
X0006500Y0278967D02*
X0057900Y0278967D01*
X0058396Y0280165D02*
X0006500Y0280165D01*
X0006500Y0310128D02*
X0058936Y0310128D01*
X0061564Y0310128D02*
X0063200Y0310128D01*
X0061900Y0280165D02*
X0061100Y0280165D01*
X0061100Y0278967D02*
X0061900Y0278967D01*
X0061900Y0277768D02*
X0061100Y0277768D01*
X0061100Y0276570D02*
X0061900Y0276570D01*
X0061900Y0275371D02*
X0061100Y0275371D01*
X0061100Y0274173D02*
X0061900Y0274173D01*
X0085231Y0253798D02*
X0085269Y0253798D01*
X0085231Y0252599D02*
X0085269Y0252599D01*
X0085231Y0251401D02*
X0085269Y0251401D01*
X0085231Y0246607D02*
X0085269Y0246607D01*
X0085231Y0245408D02*
X0085269Y0245408D01*
X0085336Y0244210D02*
X0085164Y0244210D01*
X0093823Y0216644D02*
X0093874Y0216644D01*
X0104800Y0147130D02*
X0171500Y0147130D01*
X0171500Y0145932D02*
X0104800Y0145932D01*
X0104800Y0144733D02*
X0171500Y0144733D01*
X0171500Y0143535D02*
X0104800Y0143535D01*
X0104669Y0142336D02*
X0171500Y0142336D01*
X0171500Y0141138D02*
X0103600Y0141138D01*
X0103600Y0139939D02*
X0171500Y0139939D01*
X0171500Y0138741D02*
X0103600Y0138741D01*
X0103600Y0137542D02*
X0171500Y0137542D01*
X0171500Y0136344D02*
X0104421Y0136344D01*
X0105228Y0135145D02*
X0171500Y0135145D01*
X0171500Y0133947D02*
X0105572Y0133947D01*
X0105572Y0132748D02*
X0171500Y0132748D01*
X0171500Y0131550D02*
X0105097Y0131550D01*
X0104103Y0130351D02*
X0171500Y0130351D01*
X0171500Y0129153D02*
X0068020Y0129153D01*
X0066822Y0130351D02*
X0088897Y0130351D01*
X0087903Y0131550D02*
X0065623Y0131550D01*
X0064425Y0132748D02*
X0087428Y0132748D01*
X0087428Y0133947D02*
X0063226Y0133947D01*
X0062028Y0135145D02*
X0087772Y0135145D01*
X0088579Y0136344D02*
X0060829Y0136344D01*
X0059631Y0137542D02*
X0089400Y0137542D01*
X0089400Y0138741D02*
X0058432Y0138741D01*
X0056290Y0131550D02*
X0029800Y0131550D01*
X0029800Y0130351D02*
X0057488Y0130351D01*
X0058687Y0129153D02*
X0029800Y0129153D01*
X0029800Y0127954D02*
X0034349Y0127954D01*
X0034082Y0127843D02*
X0032881Y0126643D01*
X0032231Y0125074D01*
X0032231Y0117439D01*
X0032881Y0115870D01*
X0034082Y0114669D01*
X0034400Y0114537D01*
X0034400Y0110136D01*
X0037150Y0107386D01*
X0037150Y0107306D01*
X0036712Y0107306D01*
X0036250Y0106845D01*
X0035788Y0107306D01*
X0030712Y0107306D01*
X0029950Y0106545D01*
X0029950Y0101468D01*
X0030712Y0100706D01*
X0035788Y0100706D01*
X0036250Y0101168D01*
X0036712Y0100706D01*
X0037150Y0100706D01*
X0037150Y0099806D01*
X0036712Y0099806D01*
X0036250Y0099345D01*
X0035788Y0099806D01*
X0030712Y0099806D01*
X0029950Y0099045D01*
X0029950Y0093968D01*
X0030712Y0093206D01*
X0035788Y0093206D01*
X0036250Y0093668D01*
X0036712Y0093206D01*
X0041788Y0093206D01*
X0042550Y0093968D01*
X0042550Y0099045D01*
X0041788Y0099806D01*
X0041350Y0099806D01*
X0041350Y0100706D01*
X0041788Y0100706D01*
X0042550Y0101468D01*
X0042550Y0106545D01*
X0041788Y0107306D01*
X0041350Y0107306D01*
X0041350Y0109126D01*
X0040120Y0110356D01*
X0038600Y0111876D01*
X0038600Y0114537D01*
X0038918Y0114669D01*
X0040119Y0115870D01*
X0040768Y0117439D01*
X0040768Y0125074D01*
X0040119Y0126643D01*
X0038918Y0127843D01*
X0037349Y0128493D01*
X0035651Y0128493D01*
X0034082Y0127843D01*
X0032994Y0126756D02*
X0030006Y0126756D01*
X0030568Y0125557D02*
X0032432Y0125557D01*
X0032231Y0124359D02*
X0030768Y0124359D01*
X0030768Y0123160D02*
X0032231Y0123160D01*
X0032231Y0121962D02*
X0030768Y0121962D01*
X0030768Y0120763D02*
X0032231Y0120763D01*
X0032231Y0119565D02*
X0030768Y0119565D01*
X0030768Y0118366D02*
X0032231Y0118366D01*
X0032344Y0117168D02*
X0030656Y0117168D01*
X0030160Y0115969D02*
X0032840Y0115969D01*
X0033981Y0114771D02*
X0029019Y0114771D01*
X0028489Y0113572D02*
X0034400Y0113572D01*
X0034400Y0112374D02*
X0028471Y0112374D01*
X0028454Y0111175D02*
X0034400Y0111175D01*
X0034560Y0109977D02*
X0028437Y0109977D01*
X0028419Y0108778D02*
X0035758Y0108778D01*
X0036957Y0107580D02*
X0028402Y0107580D01*
X0029550Y0106381D02*
X0029950Y0106381D01*
X0029950Y0105182D02*
X0029550Y0105182D01*
X0029550Y0103984D02*
X0029950Y0103984D01*
X0029950Y0102785D02*
X0029550Y0102785D01*
X0029550Y0101587D02*
X0029950Y0101587D01*
X0028350Y0100388D02*
X0037150Y0100388D01*
X0041350Y0100388D02*
X0044150Y0100388D01*
X0044150Y0100706D02*
X0044150Y0099806D01*
X0043712Y0099806D01*
X0042950Y0099045D01*
X0042950Y0093968D01*
X0043712Y0093206D01*
X0048788Y0093206D01*
X0049550Y0093968D01*
X0049550Y0099045D01*
X0048788Y0099806D01*
X0048350Y0099806D01*
X0048350Y0100706D01*
X0048788Y0100706D01*
X0049550Y0101468D01*
X0049550Y0106545D01*
X0048788Y0107306D01*
X0048398Y0107306D01*
X0048502Y0114497D01*
X0048918Y0114669D01*
X0050119Y0115870D01*
X0050661Y0117179D01*
X0067131Y0100709D01*
X0068344Y0100206D01*
X0152156Y0100206D01*
X0153369Y0100709D01*
X0154298Y0101637D01*
X0159298Y0106637D01*
X0159800Y0107850D01*
X0159800Y0113051D01*
X0160119Y0113370D01*
X0160768Y0114939D01*
X0160768Y0122574D01*
X0160119Y0124143D01*
X0158918Y0125343D01*
X0157349Y0125993D01*
X0155651Y0125993D01*
X0154082Y0125343D01*
X0152881Y0124143D01*
X0152231Y0122574D01*
X0152231Y0114939D01*
X0152881Y0113370D01*
X0153200Y0113051D01*
X0153200Y0109873D01*
X0150133Y0106806D01*
X0070367Y0106806D01*
X0054298Y0122876D01*
X0053369Y0123804D01*
X0052156Y0124306D01*
X0050768Y0124306D01*
X0050768Y0125074D01*
X0050119Y0126643D01*
X0048918Y0127843D01*
X0047349Y0128493D01*
X0045651Y0128493D01*
X0044082Y0127843D01*
X0042881Y0126643D01*
X0042231Y0125074D01*
X0042231Y0117439D01*
X0042881Y0115870D01*
X0044082Y0114669D01*
X0044303Y0114578D01*
X0044198Y0107306D01*
X0043712Y0107306D01*
X0042950Y0106545D01*
X0042950Y0101468D01*
X0043712Y0100706D01*
X0044150Y0100706D01*
X0042950Y0101587D02*
X0042550Y0101587D01*
X0042550Y0102785D02*
X0042950Y0102785D01*
X0042950Y0103984D02*
X0042550Y0103984D01*
X0042550Y0105182D02*
X0042950Y0105182D01*
X0042950Y0106381D02*
X0042550Y0106381D01*
X0041350Y0107580D02*
X0044202Y0107580D01*
X0044219Y0108778D02*
X0041350Y0108778D01*
X0040500Y0109977D02*
X0044236Y0109977D01*
X0044254Y0111175D02*
X0039301Y0111175D01*
X0038600Y0112374D02*
X0044271Y0112374D01*
X0044288Y0113572D02*
X0038600Y0113572D01*
X0039019Y0114771D02*
X0043981Y0114771D01*
X0042840Y0115969D02*
X0040160Y0115969D01*
X0040656Y0117168D02*
X0042344Y0117168D01*
X0042231Y0118366D02*
X0040768Y0118366D01*
X0040768Y0119565D02*
X0042231Y0119565D01*
X0042231Y0120763D02*
X0040768Y0120763D01*
X0040768Y0121962D02*
X0042231Y0121962D01*
X0042231Y0123160D02*
X0040768Y0123160D01*
X0040768Y0124359D02*
X0042231Y0124359D01*
X0042432Y0125557D02*
X0040568Y0125557D01*
X0040006Y0126756D02*
X0042994Y0126756D01*
X0044349Y0127954D02*
X0038651Y0127954D01*
X0048651Y0127954D02*
X0059885Y0127954D01*
X0061084Y0126756D02*
X0050006Y0126756D01*
X0050568Y0125557D02*
X0062282Y0125557D01*
X0063481Y0124359D02*
X0050768Y0124359D01*
X0054013Y0123160D02*
X0064679Y0123160D01*
X0065878Y0121962D02*
X0055212Y0121962D01*
X0056410Y0120763D02*
X0067076Y0120763D01*
X0068364Y0118200D02*
X0066806Y0116643D01*
X0065963Y0114608D01*
X0065963Y0112405D01*
X0066806Y0110370D01*
X0068364Y0108812D01*
X0070399Y0107969D01*
X0072601Y0107969D01*
X0074636Y0108812D01*
X0076194Y0110370D01*
X0077037Y0112405D01*
X0077037Y0114608D01*
X0076194Y0116643D01*
X0074636Y0118200D01*
X0072601Y0119043D01*
X0070399Y0119043D01*
X0068364Y0118200D01*
X0068764Y0118366D02*
X0058807Y0118366D01*
X0060006Y0117168D02*
X0067331Y0117168D01*
X0066527Y0115969D02*
X0061204Y0115969D01*
X0062403Y0114771D02*
X0066030Y0114771D01*
X0065963Y0113572D02*
X0063601Y0113572D01*
X0064800Y0112374D02*
X0065976Y0112374D01*
X0065998Y0111175D02*
X0066472Y0111175D01*
X0067197Y0109977D02*
X0067199Y0109977D01*
X0068395Y0108778D02*
X0068446Y0108778D01*
X0069594Y0107580D02*
X0150906Y0107580D01*
X0152105Y0108778D02*
X0114554Y0108778D01*
X0114636Y0108812D02*
X0116194Y0110370D01*
X0117037Y0112405D01*
X0117037Y0114608D01*
X0116194Y0116643D01*
X0114636Y0118200D01*
X0112601Y0119043D01*
X0110399Y0119043D01*
X0108364Y0118200D01*
X0106806Y0116643D01*
X0105963Y0114608D01*
X0105963Y0112405D01*
X0106806Y0110370D01*
X0108364Y0108812D01*
X0110399Y0107969D01*
X0112601Y0107969D01*
X0114636Y0108812D01*
X0115801Y0109977D02*
X0153200Y0109977D01*
X0153200Y0111175D02*
X0116528Y0111175D01*
X0117024Y0112374D02*
X0133878Y0112374D01*
X0132798Y0113572D02*
X0117037Y0113572D01*
X0116970Y0114771D02*
X0132301Y0114771D01*
X0129370Y0115969D02*
X0116473Y0115969D01*
X0115669Y0117168D02*
X0128172Y0117168D01*
X0126973Y0118366D02*
X0114236Y0118366D01*
X0108764Y0118366D02*
X0074236Y0118366D01*
X0075669Y0117168D02*
X0107331Y0117168D01*
X0106527Y0115969D02*
X0076473Y0115969D01*
X0076970Y0114771D02*
X0106030Y0114771D01*
X0105963Y0113572D02*
X0077037Y0113572D01*
X0077024Y0112374D02*
X0105976Y0112374D01*
X0106472Y0111175D02*
X0076528Y0111175D01*
X0075801Y0109977D02*
X0107199Y0109977D01*
X0108446Y0108778D02*
X0074554Y0108778D01*
X0067904Y0100388D02*
X0048350Y0100388D01*
X0049405Y0099190D02*
X0171500Y0099190D01*
X0171500Y0100388D02*
X0152596Y0100388D01*
X0154248Y0101587D02*
X0171500Y0101587D01*
X0171500Y0102785D02*
X0155446Y0102785D01*
X0156645Y0103984D02*
X0171500Y0103984D01*
X0171500Y0105182D02*
X0157843Y0105182D01*
X0159042Y0106381D02*
X0171500Y0106381D01*
X0171500Y0107580D02*
X0159688Y0107580D01*
X0159800Y0108778D02*
X0171500Y0108778D01*
X0171500Y0109977D02*
X0159800Y0109977D01*
X0159800Y0111175D02*
X0171500Y0111175D01*
X0171500Y0112374D02*
X0159800Y0112374D01*
X0160202Y0113572D02*
X0171500Y0113572D01*
X0171500Y0114771D02*
X0160699Y0114771D01*
X0160768Y0115969D02*
X0171500Y0115969D01*
X0171500Y0117168D02*
X0160768Y0117168D01*
X0160768Y0118366D02*
X0171500Y0118366D01*
X0171500Y0119565D02*
X0160768Y0119565D01*
X0160768Y0120763D02*
X0171500Y0120763D01*
X0171500Y0121962D02*
X0160768Y0121962D01*
X0160526Y0123160D02*
X0171500Y0123160D01*
X0171500Y0124359D02*
X0159903Y0124359D01*
X0158402Y0125557D02*
X0171500Y0125557D01*
X0171500Y0126756D02*
X0127279Y0126756D01*
X0129116Y0125557D02*
X0134598Y0125557D01*
X0133097Y0124359D02*
X0130315Y0124359D01*
X0131513Y0123160D02*
X0132474Y0123160D01*
X0138402Y0125557D02*
X0144598Y0125557D01*
X0144082Y0125343D02*
X0145651Y0125993D01*
X0147349Y0125993D01*
X0148918Y0125343D01*
X0150119Y0124143D01*
X0150768Y0122574D01*
X0150768Y0114939D01*
X0150119Y0113370D01*
X0148918Y0112169D01*
X0147349Y0111519D01*
X0145651Y0111519D01*
X0144082Y0112169D01*
X0142881Y0113370D01*
X0142231Y0114939D01*
X0142231Y0122574D01*
X0142881Y0124143D01*
X0144082Y0125343D01*
X0143097Y0124359D02*
X0139903Y0124359D01*
X0140526Y0123160D02*
X0142474Y0123160D01*
X0142231Y0121962D02*
X0140768Y0121962D01*
X0140768Y0120763D02*
X0142231Y0120763D01*
X0142231Y0119565D02*
X0140768Y0119565D01*
X0140768Y0118366D02*
X0142231Y0118366D01*
X0142231Y0117168D02*
X0140768Y0117168D01*
X0140768Y0115969D02*
X0142231Y0115969D01*
X0142301Y0114771D02*
X0140699Y0114771D01*
X0140202Y0113572D02*
X0142798Y0113572D01*
X0143878Y0112374D02*
X0139122Y0112374D01*
X0149122Y0112374D02*
X0153200Y0112374D01*
X0152798Y0113572D02*
X0150202Y0113572D01*
X0150699Y0114771D02*
X0152301Y0114771D01*
X0152231Y0115969D02*
X0150768Y0115969D01*
X0150768Y0117168D02*
X0152231Y0117168D01*
X0152231Y0118366D02*
X0150768Y0118366D01*
X0150768Y0119565D02*
X0152231Y0119565D01*
X0152231Y0120763D02*
X0150768Y0120763D01*
X0150768Y0121962D02*
X0152231Y0121962D01*
X0152474Y0123160D02*
X0150526Y0123160D01*
X0149903Y0124359D02*
X0153097Y0124359D01*
X0154598Y0125557D02*
X0148402Y0125557D01*
X0171500Y0127954D02*
X0069219Y0127954D01*
X0059061Y0108778D02*
X0048419Y0108778D01*
X0048402Y0107580D02*
X0060260Y0107580D01*
X0061458Y0106381D02*
X0049550Y0106381D01*
X0049550Y0105182D02*
X0062657Y0105182D01*
X0063855Y0103984D02*
X0049550Y0103984D01*
X0049550Y0102785D02*
X0065054Y0102785D01*
X0066252Y0101587D02*
X0049550Y0101587D01*
X0049550Y0097991D02*
X0171500Y0097991D01*
X0171500Y0096793D02*
X0049550Y0096793D01*
X0049550Y0095594D02*
X0171500Y0095594D01*
X0171500Y0094396D02*
X0049550Y0094396D01*
X0042950Y0094396D02*
X0042550Y0094396D01*
X0042550Y0095594D02*
X0042950Y0095594D01*
X0042950Y0096793D02*
X0042550Y0096793D01*
X0042550Y0097991D02*
X0042950Y0097991D01*
X0043095Y0099190D02*
X0042405Y0099190D01*
X0048437Y0109977D02*
X0057863Y0109977D01*
X0056664Y0111175D02*
X0048454Y0111175D01*
X0048471Y0112374D02*
X0055466Y0112374D01*
X0054267Y0113572D02*
X0048489Y0113572D01*
X0049019Y0114771D02*
X0053069Y0114771D01*
X0051870Y0115969D02*
X0050160Y0115969D01*
X0050656Y0117168D02*
X0050672Y0117168D01*
X0057609Y0119565D02*
X0125775Y0119565D01*
X0098897Y0130351D02*
X0094103Y0130351D01*
X0095097Y0131550D02*
X0097903Y0131550D01*
X0097428Y0132748D02*
X0095572Y0132748D01*
X0095572Y0133947D02*
X0097428Y0133947D01*
X0097772Y0135145D02*
X0095228Y0135145D01*
X0094421Y0136344D02*
X0098579Y0136344D01*
X0099400Y0137542D02*
X0093600Y0137542D01*
X0093600Y0138741D02*
X0099400Y0138741D01*
X0099400Y0139939D02*
X0093600Y0139939D01*
X0093600Y0141138D02*
X0099400Y0141138D01*
X0098331Y0142336D02*
X0094669Y0142336D01*
X0096998Y0143535D02*
X0098200Y0143535D01*
X0098197Y0144733D02*
X0098200Y0144733D01*
X0053150Y0160314D02*
X0052350Y0160314D01*
X0052350Y0161513D02*
X0053150Y0161513D01*
X0045286Y0161513D02*
X0044517Y0161513D01*
X0044517Y0162711D02*
X0045286Y0162711D01*
X0045286Y0160314D02*
X0044517Y0160314D01*
X0036162Y0162711D02*
X0035953Y0162711D01*
X0030095Y0099190D02*
X0029405Y0099190D01*
X0029550Y0097991D02*
X0029950Y0097991D01*
X0029950Y0096793D02*
X0029550Y0096793D01*
X0029550Y0095594D02*
X0029950Y0095594D01*
X0029950Y0094396D02*
X0029550Y0094396D01*
M02*
