G75*
%MOIN*%
%OFA0B0*%
%FSLAX25Y25*%
%IPPOS*%
%LPD*%
%AMOC8*
5,1,8,0,0,1.08239X$1,22.5*
%
%ADD10R,0.04800X0.04800*%
%ADD11C,0.06737*%
%ADD12R,0.03162X0.09461*%
%ADD13R,0.03950X0.04343*%
%ADD14C,0.06343*%
%ADD15C,0.08674*%
%ADD16C,0.09461*%
%ADD17R,0.04134X0.06201*%
%ADD18R,0.06312X0.04737*%
%ADD19C,0.03600*%
D10*
X0026250Y0096506D03*
X0026250Y0104006D03*
X0033250Y0104006D03*
X0033250Y0096506D03*
X0039250Y0096506D03*
X0039250Y0104006D03*
X0046250Y0104006D03*
X0046250Y0096506D03*
X0073000Y0158506D03*
X0073000Y0164756D03*
X0080000Y0164756D03*
X0080000Y0158506D03*
X0091500Y0152006D03*
X0091500Y0145006D03*
X0096500Y0158506D03*
X0096500Y0164756D03*
X0101500Y0152006D03*
X0103500Y0158506D03*
X0103500Y0164756D03*
X0101500Y0145006D03*
X0111500Y0201756D03*
X0111500Y0208756D03*
X0111500Y0215506D03*
X0111500Y0222506D03*
X0114000Y0232506D03*
X0114000Y0239506D03*
X0107750Y0239506D03*
X0107750Y0232506D03*
X0101500Y0232506D03*
X0101500Y0239506D03*
X0092750Y0239506D03*
X0092750Y0232506D03*
X0077500Y0227256D03*
X0077500Y0221006D03*
X0070500Y0221006D03*
X0070500Y0227256D03*
X0062250Y0242756D03*
X0062250Y0249756D03*
X0061500Y0257506D03*
X0061500Y0264506D03*
X0061500Y0270006D03*
X0061500Y0277006D03*
X0055250Y0264506D03*
X0055250Y0257506D03*
X0040250Y0232006D03*
X0040250Y0225006D03*
X0034000Y0225006D03*
X0034000Y0232006D03*
X0025250Y0166006D03*
X0025250Y0159006D03*
X0019000Y0159006D03*
X0019000Y0166006D03*
X0052750Y0166006D03*
X0052750Y0159006D03*
X0059000Y0159006D03*
X0059000Y0166006D03*
X0086750Y0296006D03*
X0086750Y0302256D03*
X0089000Y0312506D03*
X0089000Y0319506D03*
X0089500Y0326006D03*
X0082500Y0326006D03*
X0082750Y0319506D03*
X0082750Y0312506D03*
X0073000Y0326006D03*
X0072750Y0319506D03*
X0072750Y0312506D03*
X0066500Y0312506D03*
X0066500Y0319506D03*
X0066000Y0326006D03*
X0093750Y0302256D03*
X0093750Y0296006D03*
X0101500Y0312506D03*
X0101500Y0319506D03*
X0101000Y0326006D03*
X0108000Y0326006D03*
X0107750Y0319506D03*
X0107750Y0312506D03*
X0117250Y0326006D03*
X0117750Y0319506D03*
X0117750Y0312506D03*
X0124000Y0312506D03*
X0124000Y0319506D03*
X0124250Y0326006D03*
X0127750Y0249506D03*
X0127750Y0242506D03*
D11*
X0121500Y0343038D02*
X0121500Y0348975D01*
X0111500Y0348975D02*
X0111500Y0343038D01*
X0099000Y0343038D02*
X0099000Y0348975D01*
X0089000Y0348975D02*
X0089000Y0343038D01*
X0076500Y0343038D02*
X0076500Y0348975D01*
X0066500Y0348975D02*
X0066500Y0343038D01*
X0134000Y0343038D02*
X0134000Y0348975D01*
X0144000Y0348975D02*
X0144000Y0343038D01*
X0046500Y0124225D02*
X0046500Y0118288D01*
X0036500Y0118288D02*
X0036500Y0124225D01*
X0026500Y0124225D02*
X0026500Y0118288D01*
X0136500Y0115788D02*
X0136500Y0121725D01*
X0146500Y0121725D02*
X0146500Y0115788D01*
X0156500Y0115788D02*
X0156500Y0121725D01*
D12*
X0101500Y0175396D03*
X0096500Y0175396D03*
X0091500Y0175396D03*
X0086500Y0175396D03*
X0081500Y0175396D03*
X0076500Y0175396D03*
X0071500Y0175396D03*
X0066500Y0175396D03*
X0066500Y0211617D03*
X0071500Y0211617D03*
X0076500Y0211617D03*
X0081500Y0211617D03*
X0086500Y0211617D03*
X0091500Y0211617D03*
X0096500Y0211617D03*
X0101500Y0211617D03*
X0102750Y0249146D03*
X0097750Y0249146D03*
X0092750Y0249146D03*
X0087750Y0249146D03*
X0082750Y0249146D03*
X0077750Y0249146D03*
X0072750Y0249146D03*
X0072750Y0285367D03*
X0077750Y0285367D03*
X0082750Y0285367D03*
X0087750Y0285367D03*
X0092750Y0285367D03*
X0097750Y0285367D03*
X0102750Y0285367D03*
X0107750Y0285367D03*
X0112750Y0285367D03*
X0117750Y0285367D03*
X0117750Y0249146D03*
X0112750Y0249146D03*
X0107750Y0249146D03*
D13*
X0135260Y0242069D03*
X0139000Y0250337D03*
X0142740Y0242069D03*
X0055240Y0243069D03*
X0051500Y0251337D03*
X0047760Y0243069D03*
D14*
X0091500Y0133506D03*
X0101500Y0133506D03*
D15*
X0111500Y0113506D03*
X0071500Y0113506D03*
D16*
X0039000Y0150259D02*
X0039000Y0150259D01*
X0039000Y0144353D01*
X0039000Y0144353D01*
X0039000Y0150259D01*
X0054000Y0229504D02*
X0054000Y0229504D01*
X0054000Y0235410D01*
X0054000Y0235410D01*
X0054000Y0229504D01*
D17*
X0054000Y0220931D03*
X0048094Y0220931D03*
X0059906Y0220931D03*
X0044906Y0158831D03*
X0039000Y0158831D03*
X0033094Y0158831D03*
D18*
X0075831Y0362266D03*
X0075831Y0369746D03*
X0067169Y0366006D03*
X0089669Y0366006D03*
X0098331Y0362266D03*
X0098331Y0369746D03*
X0112169Y0366006D03*
X0120831Y0362266D03*
X0120831Y0369746D03*
X0134669Y0366006D03*
X0143331Y0362266D03*
X0143331Y0369746D03*
D19*
X0102750Y0277256D03*
X0087750Y0277256D03*
X0082750Y0257256D03*
X0072750Y0274756D03*
X0064000Y0236006D03*
X0054000Y0216006D03*
X0066500Y0182256D03*
X0076500Y0203506D03*
X0086500Y0182256D03*
X0091500Y0203506D03*
X0101500Y0182256D03*
X0117750Y0201756D03*
X0120250Y0232256D03*
X0126500Y0236006D03*
X0118000Y0274756D03*
X0095250Y0312506D03*
X0060250Y0312506D03*
X0050250Y0257506D03*
X0039000Y0166006D03*
M02*
