G75*
%MOIN*%
%OFA0B0*%
%FSLAX25Y25*%
%IPPOS*%
%LPD*%
%AMOC8*
5,1,8,0,0,1.08239X$1,22.5*
%
%ADD10C,0.00400*%
%ADD11C,0.00600*%
%ADD12C,0.00500*%
%ADD13C,0.01000*%
%ADD14C,0.00800*%
%ADD15C,0.09921*%
%ADD16R,0.07000X0.01200*%
%ADD17C,0.00200*%
%ADD18R,0.01200X0.07000*%
D10*
X0017534Y0095206D02*
X0018201Y0095206D01*
X0018534Y0095540D01*
X0019410Y0095206D02*
X0020744Y0095206D01*
X0020077Y0095206D02*
X0020077Y0097208D01*
X0019410Y0096541D01*
X0018534Y0096874D02*
X0018201Y0097208D01*
X0017534Y0097208D01*
X0017200Y0096874D01*
X0017200Y0095540D01*
X0017534Y0095206D01*
X0017534Y0102706D02*
X0018201Y0102706D01*
X0018534Y0103040D01*
X0019410Y0102706D02*
X0020744Y0102706D01*
X0020077Y0102706D02*
X0020077Y0104708D01*
X0019410Y0104041D01*
X0018534Y0104374D02*
X0018201Y0104708D01*
X0017534Y0104708D01*
X0017200Y0104374D01*
X0017200Y0103040D01*
X0017534Y0102706D01*
X0021620Y0103040D02*
X0021953Y0102706D01*
X0022621Y0102706D01*
X0022954Y0103040D01*
X0022954Y0103707D01*
X0022621Y0104041D01*
X0022287Y0104041D01*
X0021620Y0103707D01*
X0021620Y0104708D01*
X0022954Y0104708D01*
X0022287Y0097208D02*
X0022287Y0095206D01*
X0021620Y0095206D02*
X0022954Y0095206D01*
X0021620Y0096541D02*
X0022287Y0097208D01*
X0019911Y0119956D02*
X0019243Y0119956D01*
X0018910Y0120290D01*
X0018034Y0119956D02*
X0016700Y0121958D01*
X0018034Y0121958D02*
X0016700Y0119956D01*
X0018910Y0121624D02*
X0019243Y0121958D01*
X0019911Y0121958D01*
X0020244Y0121624D01*
X0020244Y0121291D01*
X0019911Y0120957D01*
X0020244Y0120624D01*
X0020244Y0120290D01*
X0019911Y0119956D01*
X0019911Y0120957D02*
X0019577Y0120957D01*
X0019660Y0169456D02*
X0019660Y0169790D01*
X0020994Y0171124D01*
X0020994Y0171458D01*
X0019660Y0171458D01*
X0018784Y0171124D02*
X0018451Y0171458D01*
X0017784Y0171458D01*
X0017450Y0171124D01*
X0017450Y0169790D01*
X0017784Y0169456D01*
X0018451Y0169456D01*
X0018784Y0169790D01*
X0023700Y0169790D02*
X0024034Y0169456D01*
X0024701Y0169456D01*
X0025034Y0169790D01*
X0025910Y0170457D02*
X0027244Y0170457D01*
X0026911Y0169456D02*
X0026911Y0171458D01*
X0025910Y0170457D01*
X0025034Y0171124D02*
X0024701Y0171458D01*
X0024034Y0171458D01*
X0023700Y0171124D01*
X0023700Y0169790D01*
X0032534Y0219706D02*
X0033201Y0219706D01*
X0033534Y0220040D01*
X0034410Y0220040D02*
X0034743Y0219706D01*
X0035411Y0219706D01*
X0035744Y0220040D01*
X0035744Y0220707D01*
X0035411Y0221041D01*
X0035077Y0221041D01*
X0034410Y0220707D01*
X0034410Y0221708D01*
X0035744Y0221708D01*
X0038450Y0221374D02*
X0038450Y0220040D01*
X0038784Y0219706D01*
X0039451Y0219706D01*
X0039784Y0220040D01*
X0040660Y0220040D02*
X0040660Y0220374D01*
X0040993Y0220707D01*
X0041661Y0220707D01*
X0041994Y0220374D01*
X0041994Y0220040D01*
X0041661Y0219706D01*
X0040993Y0219706D01*
X0040660Y0220040D01*
X0040993Y0220707D02*
X0040660Y0221041D01*
X0040660Y0221374D01*
X0040993Y0221708D01*
X0041661Y0221708D01*
X0041994Y0221374D01*
X0041994Y0221041D01*
X0041661Y0220707D01*
X0039784Y0221374D02*
X0039451Y0221708D01*
X0038784Y0221708D01*
X0038450Y0221374D01*
X0033534Y0221374D02*
X0033201Y0221708D01*
X0032534Y0221708D01*
X0032200Y0221374D01*
X0032200Y0220040D01*
X0032534Y0219706D01*
X0040950Y0246206D02*
X0041951Y0246206D01*
X0042284Y0246540D01*
X0042284Y0247874D01*
X0041951Y0248208D01*
X0040950Y0248208D01*
X0040950Y0246206D01*
X0043160Y0246540D02*
X0043493Y0246206D01*
X0044161Y0246206D01*
X0044494Y0246540D01*
X0044494Y0246874D01*
X0044161Y0247207D01*
X0043827Y0247207D01*
X0044161Y0247207D02*
X0044494Y0247541D01*
X0044494Y0247874D01*
X0044161Y0248208D01*
X0043493Y0248208D01*
X0043160Y0247874D01*
X0046034Y0264206D02*
X0046701Y0264206D01*
X0047034Y0264540D01*
X0047910Y0264206D02*
X0049244Y0264206D01*
X0048577Y0264206D02*
X0048577Y0266208D01*
X0047910Y0265541D01*
X0047034Y0265874D02*
X0046701Y0266208D01*
X0046034Y0266208D01*
X0045700Y0265874D01*
X0045700Y0264540D01*
X0046034Y0264206D01*
X0050120Y0264206D02*
X0050120Y0264540D01*
X0051454Y0265874D01*
X0051454Y0266208D01*
X0050120Y0266208D01*
X0059950Y0280706D02*
X0059950Y0282708D01*
X0060951Y0282708D01*
X0061284Y0282374D01*
X0061284Y0281707D01*
X0060951Y0281374D01*
X0059950Y0281374D01*
X0060617Y0281374D02*
X0061284Y0280706D01*
X0062160Y0281040D02*
X0062493Y0280706D01*
X0063161Y0280706D01*
X0063494Y0281040D01*
X0063494Y0281374D01*
X0063161Y0281707D01*
X0062160Y0281707D01*
X0062160Y0281040D01*
X0062160Y0281707D02*
X0062827Y0282374D01*
X0063494Y0282708D01*
X0063161Y0283706D02*
X0062493Y0283706D01*
X0062160Y0284040D01*
X0062160Y0284707D02*
X0062827Y0285041D01*
X0063161Y0285041D01*
X0063494Y0284707D01*
X0063494Y0284040D01*
X0063161Y0283706D01*
X0062160Y0284707D02*
X0062160Y0285708D01*
X0063494Y0285708D01*
X0061284Y0285374D02*
X0061284Y0284707D01*
X0060951Y0284374D01*
X0059950Y0284374D01*
X0060617Y0284374D02*
X0061284Y0283706D01*
X0059950Y0283706D02*
X0059950Y0285708D01*
X0060951Y0285708D01*
X0061284Y0285374D01*
X0064700Y0306956D02*
X0064700Y0308958D01*
X0065701Y0308958D01*
X0066034Y0308624D01*
X0066034Y0307957D01*
X0065701Y0307624D01*
X0064700Y0307624D01*
X0065367Y0307624D02*
X0066034Y0306956D01*
X0066910Y0307290D02*
X0067243Y0306956D01*
X0067911Y0306956D01*
X0068244Y0307290D01*
X0068244Y0308624D01*
X0067911Y0308958D01*
X0067243Y0308958D01*
X0066910Y0308624D01*
X0066910Y0308291D01*
X0067243Y0307957D01*
X0068244Y0307957D01*
X0070450Y0307624D02*
X0071451Y0307624D01*
X0071784Y0307957D01*
X0071784Y0308624D01*
X0071451Y0308958D01*
X0070450Y0308958D01*
X0070450Y0306956D01*
X0071117Y0307624D02*
X0071784Y0306956D01*
X0072660Y0306956D02*
X0073994Y0306956D01*
X0073327Y0306956D02*
X0073327Y0308958D01*
X0072660Y0308291D01*
X0074870Y0308624D02*
X0075203Y0308958D01*
X0075871Y0308958D01*
X0076204Y0308624D01*
X0076204Y0308291D01*
X0075871Y0307957D01*
X0076204Y0307624D01*
X0076204Y0307290D01*
X0075871Y0306956D01*
X0075203Y0306956D01*
X0074870Y0307290D01*
X0075537Y0307957D02*
X0075871Y0307957D01*
X0077784Y0303208D02*
X0077450Y0302874D01*
X0077450Y0301540D01*
X0077784Y0301206D01*
X0078451Y0301206D01*
X0078784Y0301540D01*
X0079660Y0301206D02*
X0080994Y0301206D01*
X0080327Y0301206D02*
X0080327Y0303208D01*
X0079660Y0302541D01*
X0078784Y0302874D02*
X0078451Y0303208D01*
X0077784Y0303208D01*
X0079700Y0306956D02*
X0079700Y0308958D01*
X0080701Y0308958D01*
X0081034Y0308624D01*
X0081034Y0307957D01*
X0080701Y0307624D01*
X0079700Y0307624D01*
X0080367Y0307624D02*
X0081034Y0306956D01*
X0081910Y0306956D02*
X0083244Y0306956D01*
X0082577Y0306956D02*
X0082577Y0308958D01*
X0081910Y0308291D01*
X0084120Y0307957D02*
X0085454Y0307957D01*
X0086450Y0307624D02*
X0087451Y0307624D01*
X0087784Y0307957D01*
X0087784Y0308624D01*
X0087451Y0308958D01*
X0086450Y0308958D01*
X0086450Y0306956D01*
X0087117Y0307624D02*
X0087784Y0306956D01*
X0088660Y0306956D02*
X0089994Y0306956D01*
X0089327Y0306956D02*
X0089327Y0308958D01*
X0088660Y0308291D01*
X0090870Y0308624D02*
X0091203Y0308958D01*
X0091871Y0308958D01*
X0092204Y0308624D01*
X0090870Y0307290D01*
X0091203Y0306956D01*
X0091871Y0306956D01*
X0092204Y0307290D01*
X0092204Y0308624D01*
X0090870Y0308624D02*
X0090870Y0307290D01*
X0085121Y0306956D02*
X0085121Y0308958D01*
X0084120Y0307957D01*
X0082871Y0303208D02*
X0083204Y0302874D01*
X0081870Y0301540D01*
X0082203Y0301206D01*
X0082871Y0301206D01*
X0083204Y0301540D01*
X0083204Y0302874D01*
X0082871Y0303208D02*
X0082203Y0303208D01*
X0081870Y0302874D01*
X0081870Y0301540D01*
X0082243Y0296958D02*
X0081910Y0296624D01*
X0081910Y0296291D01*
X0082243Y0295957D01*
X0083244Y0295957D01*
X0083244Y0295290D02*
X0083244Y0296624D01*
X0082911Y0296958D01*
X0082243Y0296958D01*
X0081034Y0296624D02*
X0080701Y0296958D01*
X0080034Y0296958D01*
X0079700Y0296624D01*
X0079700Y0295290D01*
X0080034Y0294956D01*
X0080701Y0294956D01*
X0081034Y0295290D01*
X0081910Y0295290D02*
X0082243Y0294956D01*
X0082911Y0294956D01*
X0083244Y0295290D01*
X0098450Y0306956D02*
X0098450Y0308958D01*
X0099451Y0308958D01*
X0099784Y0308624D01*
X0099784Y0307957D01*
X0099451Y0307624D01*
X0098450Y0307624D01*
X0099117Y0307624D02*
X0099784Y0306956D01*
X0100660Y0306956D02*
X0101994Y0306956D01*
X0101327Y0306956D02*
X0101327Y0308958D01*
X0100660Y0308291D01*
X0102870Y0308291D02*
X0103537Y0308958D01*
X0103537Y0306956D01*
X0102870Y0306956D02*
X0104204Y0306956D01*
X0105200Y0306956D02*
X0105200Y0308958D01*
X0106201Y0308958D01*
X0106534Y0308624D01*
X0106534Y0307957D01*
X0106201Y0307624D01*
X0105200Y0307624D01*
X0105867Y0307624D02*
X0106534Y0306956D01*
X0107410Y0306956D02*
X0108744Y0306956D01*
X0108077Y0306956D02*
X0108077Y0308958D01*
X0107410Y0308291D01*
X0109620Y0307957D02*
X0110287Y0308291D01*
X0110621Y0308291D01*
X0110954Y0307957D01*
X0110954Y0307290D01*
X0110621Y0306956D01*
X0109953Y0306956D01*
X0109620Y0307290D01*
X0109620Y0307957D02*
X0109620Y0308958D01*
X0110954Y0308958D01*
X0114200Y0308958D02*
X0115201Y0308958D01*
X0115534Y0308624D01*
X0115534Y0307957D01*
X0115201Y0307624D01*
X0114200Y0307624D01*
X0114867Y0307624D02*
X0115534Y0306956D01*
X0116410Y0306956D02*
X0117744Y0306956D01*
X0117077Y0306956D02*
X0117077Y0308958D01*
X0116410Y0308291D01*
X0118620Y0307957D02*
X0119621Y0307957D01*
X0119954Y0307624D01*
X0119954Y0307290D01*
X0119621Y0306956D01*
X0118953Y0306956D01*
X0118620Y0307290D01*
X0118620Y0307957D01*
X0119287Y0308624D01*
X0119954Y0308958D01*
X0121700Y0308958D02*
X0122701Y0308958D01*
X0123034Y0308624D01*
X0123034Y0307957D01*
X0122701Y0307624D01*
X0121700Y0307624D01*
X0122367Y0307624D02*
X0123034Y0306956D01*
X0123910Y0306956D02*
X0125244Y0306956D01*
X0124577Y0306956D02*
X0124577Y0308958D01*
X0123910Y0308291D01*
X0126120Y0308624D02*
X0126453Y0308958D01*
X0127121Y0308958D01*
X0127454Y0308624D01*
X0127454Y0308291D01*
X0126120Y0306956D01*
X0127454Y0306956D01*
X0121700Y0306956D02*
X0121700Y0308958D01*
X0114200Y0308958D02*
X0114200Y0306956D01*
X0117450Y0329956D02*
X0118451Y0329956D01*
X0118784Y0330290D01*
X0118784Y0331624D01*
X0118451Y0331958D01*
X0117450Y0331958D01*
X0117450Y0329956D01*
X0119660Y0329956D02*
X0119660Y0330290D01*
X0120994Y0331624D01*
X0120994Y0331958D01*
X0119660Y0331958D01*
X0129200Y0359956D02*
X0130534Y0361958D01*
X0131410Y0361958D02*
X0132744Y0361958D01*
X0132744Y0361624D01*
X0131410Y0360290D01*
X0131410Y0359956D01*
X0130534Y0359956D02*
X0129200Y0361958D01*
X0129200Y0368956D02*
X0130201Y0368956D01*
X0130534Y0369290D01*
X0130534Y0370624D01*
X0130201Y0370958D01*
X0129200Y0370958D01*
X0129200Y0368956D01*
X0131410Y0368956D02*
X0132744Y0368956D01*
X0132077Y0368956D02*
X0132077Y0370958D01*
X0131410Y0370291D01*
X0133620Y0370291D02*
X0134287Y0370958D01*
X0134287Y0368956D01*
X0133620Y0368956D02*
X0134954Y0368956D01*
X0135534Y0373706D02*
X0135534Y0375041D01*
X0134867Y0375708D01*
X0134200Y0375041D01*
X0134200Y0373706D01*
X0134200Y0374707D02*
X0135534Y0374707D01*
X0136410Y0374707D02*
X0137744Y0374707D01*
X0137744Y0375708D02*
X0137744Y0373706D01*
X0136410Y0373706D02*
X0136410Y0375708D01*
X0117744Y0373706D02*
X0116410Y0373706D01*
X0116410Y0375708D01*
X0115534Y0375041D02*
X0115534Y0373706D01*
X0115534Y0374707D02*
X0114200Y0374707D01*
X0114200Y0375041D02*
X0114867Y0375708D01*
X0115534Y0375041D01*
X0114200Y0375041D02*
X0114200Y0373706D01*
X0112121Y0370958D02*
X0112454Y0370624D01*
X0111120Y0369290D01*
X0111453Y0368956D01*
X0112121Y0368956D01*
X0112454Y0369290D01*
X0112454Y0370624D01*
X0112121Y0370958D02*
X0111453Y0370958D01*
X0111120Y0370624D01*
X0111120Y0369290D01*
X0110244Y0368956D02*
X0108910Y0368956D01*
X0109577Y0368956D02*
X0109577Y0370958D01*
X0108910Y0370291D01*
X0108034Y0370624D02*
X0107701Y0370958D01*
X0106700Y0370958D01*
X0106700Y0368956D01*
X0107701Y0368956D01*
X0108034Y0369290D01*
X0108034Y0370624D01*
X0108034Y0361958D02*
X0106700Y0359956D01*
X0108034Y0359956D02*
X0106700Y0361958D01*
X0108910Y0360957D02*
X0108910Y0360290D01*
X0109243Y0359956D01*
X0109911Y0359956D01*
X0110244Y0360290D01*
X0110244Y0360624D01*
X0109911Y0360957D01*
X0108910Y0360957D01*
X0109577Y0361624D01*
X0110244Y0361958D01*
X0095244Y0373706D02*
X0093910Y0373706D01*
X0093910Y0375708D01*
X0093034Y0375374D02*
X0093034Y0375041D01*
X0092701Y0374707D01*
X0091700Y0374707D01*
X0091700Y0373706D02*
X0092701Y0373706D01*
X0093034Y0374040D01*
X0093034Y0374374D01*
X0092701Y0374707D01*
X0093034Y0375374D02*
X0092701Y0375708D01*
X0091700Y0375708D01*
X0091700Y0373706D01*
X0089911Y0370958D02*
X0089243Y0370958D01*
X0088910Y0370624D01*
X0088910Y0370291D01*
X0089243Y0369957D01*
X0090244Y0369957D01*
X0090244Y0369290D02*
X0090244Y0370624D01*
X0089911Y0370958D01*
X0090244Y0369290D02*
X0089911Y0368956D01*
X0089243Y0368956D01*
X0088910Y0369290D01*
X0088034Y0369290D02*
X0088034Y0370624D01*
X0087701Y0370958D01*
X0086700Y0370958D01*
X0086700Y0368956D01*
X0087701Y0368956D01*
X0088034Y0369290D01*
X0087744Y0361958D02*
X0086410Y0361958D01*
X0086410Y0360957D01*
X0087077Y0361291D01*
X0087411Y0361291D01*
X0087744Y0360957D01*
X0087744Y0360290D01*
X0087411Y0359956D01*
X0086743Y0359956D01*
X0086410Y0360290D01*
X0085534Y0359956D02*
X0084200Y0361958D01*
X0085534Y0361958D02*
X0084200Y0359956D01*
X0072744Y0373706D02*
X0072744Y0375708D01*
X0072744Y0374707D02*
X0071410Y0374707D01*
X0070534Y0374374D02*
X0070534Y0374040D01*
X0070201Y0373706D01*
X0069200Y0373706D01*
X0069200Y0375708D01*
X0070201Y0375708D01*
X0070534Y0375374D01*
X0070534Y0375041D01*
X0070201Y0374707D01*
X0069200Y0374707D01*
X0070201Y0374707D02*
X0070534Y0374374D01*
X0071410Y0373706D02*
X0071410Y0375708D01*
X0067411Y0370958D02*
X0067744Y0370624D01*
X0067744Y0370291D01*
X0067411Y0369957D01*
X0066743Y0369957D01*
X0066410Y0370291D01*
X0066410Y0370624D01*
X0066743Y0370958D01*
X0067411Y0370958D01*
X0067411Y0369957D02*
X0067744Y0369624D01*
X0067744Y0369290D01*
X0067411Y0368956D01*
X0066743Y0368956D01*
X0066410Y0369290D01*
X0066410Y0369624D01*
X0066743Y0369957D01*
X0065534Y0369290D02*
X0065534Y0370624D01*
X0065201Y0370958D01*
X0064200Y0370958D01*
X0064200Y0368956D01*
X0065201Y0368956D01*
X0065534Y0369290D01*
X0064911Y0361958D02*
X0063910Y0360957D01*
X0065244Y0360957D01*
X0064911Y0359956D02*
X0064911Y0361958D01*
X0063034Y0361958D02*
X0061700Y0359956D01*
X0063034Y0359956D02*
X0061700Y0361958D01*
X0067450Y0332208D02*
X0068451Y0332208D01*
X0068784Y0331874D01*
X0068784Y0330540D01*
X0068451Y0330206D01*
X0067450Y0330206D01*
X0067450Y0332208D01*
X0069660Y0331207D02*
X0070994Y0331207D01*
X0070661Y0330206D02*
X0070661Y0332208D01*
X0069660Y0331207D01*
X0083450Y0330206D02*
X0084451Y0330206D01*
X0084784Y0330540D01*
X0084784Y0331874D01*
X0084451Y0332208D01*
X0083450Y0332208D01*
X0083450Y0330206D01*
X0085660Y0330540D02*
X0085993Y0330206D01*
X0086661Y0330206D01*
X0086994Y0330540D01*
X0086994Y0331207D01*
X0086661Y0331541D01*
X0086327Y0331541D01*
X0085660Y0331207D01*
X0085660Y0332208D01*
X0086994Y0332208D01*
X0102200Y0331958D02*
X0103201Y0331958D01*
X0103534Y0331624D01*
X0103534Y0330290D01*
X0103201Y0329956D01*
X0102200Y0329956D01*
X0102200Y0331958D01*
X0104410Y0330957D02*
X0105411Y0330957D01*
X0105744Y0330624D01*
X0105744Y0330290D01*
X0105411Y0329956D01*
X0104743Y0329956D01*
X0104410Y0330290D01*
X0104410Y0330957D01*
X0105077Y0331624D01*
X0105744Y0331958D01*
X0125284Y0254958D02*
X0124950Y0254624D01*
X0124950Y0253290D01*
X0125284Y0252956D01*
X0125951Y0252956D01*
X0126284Y0253290D01*
X0127160Y0252956D02*
X0128494Y0252956D01*
X0127827Y0252956D02*
X0127827Y0254958D01*
X0127160Y0254291D01*
X0126284Y0254624D02*
X0125951Y0254958D01*
X0125284Y0254958D01*
X0129370Y0254624D02*
X0129370Y0254291D01*
X0129703Y0253957D01*
X0130704Y0253957D01*
X0130704Y0253290D02*
X0130704Y0254624D01*
X0130371Y0254958D01*
X0129703Y0254958D01*
X0129370Y0254624D01*
X0129370Y0253290D02*
X0129703Y0252956D01*
X0130371Y0252956D01*
X0130704Y0253290D01*
X0145700Y0247208D02*
X0146701Y0247208D01*
X0147034Y0246874D01*
X0147034Y0245540D01*
X0146701Y0245206D01*
X0145700Y0245206D01*
X0145700Y0247208D01*
X0147910Y0246874D02*
X0148243Y0247208D01*
X0148911Y0247208D01*
X0149244Y0246874D01*
X0149244Y0246541D01*
X0147910Y0245206D01*
X0149244Y0245206D01*
X0118327Y0221458D02*
X0118327Y0219456D01*
X0117660Y0219456D02*
X0118994Y0219456D01*
X0117660Y0220791D02*
X0118327Y0221458D01*
X0116784Y0221124D02*
X0116784Y0219790D01*
X0116451Y0219456D01*
X0115450Y0219456D01*
X0115450Y0221458D01*
X0116451Y0221458D01*
X0116784Y0221124D01*
X0115411Y0226706D02*
X0114743Y0226706D01*
X0114410Y0227040D01*
X0114410Y0227374D01*
X0114743Y0227707D01*
X0115411Y0227707D01*
X0115744Y0227374D01*
X0115744Y0227040D01*
X0115411Y0226706D01*
X0115411Y0227707D02*
X0115744Y0228041D01*
X0115744Y0228374D01*
X0115411Y0228708D01*
X0114743Y0228708D01*
X0114410Y0228374D01*
X0114410Y0228041D01*
X0114743Y0227707D01*
X0113534Y0227707D02*
X0113201Y0227374D01*
X0112200Y0227374D01*
X0112867Y0227374D02*
X0113534Y0226706D01*
X0113534Y0227707D02*
X0113534Y0228374D01*
X0113201Y0228708D01*
X0112200Y0228708D01*
X0112200Y0226706D01*
X0109744Y0228374D02*
X0108410Y0227040D01*
X0108410Y0226706D01*
X0107534Y0226706D02*
X0106867Y0227374D01*
X0107201Y0227374D02*
X0106200Y0227374D01*
X0106200Y0226706D02*
X0106200Y0228708D01*
X0107201Y0228708D01*
X0107534Y0228374D01*
X0107534Y0227707D01*
X0107201Y0227374D01*
X0108410Y0228708D02*
X0109744Y0228708D01*
X0109744Y0228374D01*
X0103244Y0227957D02*
X0101910Y0227957D01*
X0102911Y0228958D01*
X0102911Y0226956D01*
X0101034Y0226956D02*
X0100367Y0227624D01*
X0100701Y0227624D02*
X0099700Y0227624D01*
X0099700Y0226956D02*
X0099700Y0228958D01*
X0100701Y0228958D01*
X0101034Y0228624D01*
X0101034Y0227957D01*
X0100701Y0227624D01*
X0095704Y0228624D02*
X0094370Y0227290D01*
X0094370Y0226956D01*
X0093494Y0226956D02*
X0092160Y0226956D01*
X0092827Y0226956D02*
X0092827Y0228958D01*
X0092160Y0228291D01*
X0091284Y0228624D02*
X0091284Y0227957D01*
X0090951Y0227624D01*
X0089950Y0227624D01*
X0090617Y0227624D02*
X0091284Y0226956D01*
X0089950Y0226956D02*
X0089950Y0228958D01*
X0090951Y0228958D01*
X0091284Y0228624D01*
X0094370Y0228958D02*
X0095704Y0228958D01*
X0095704Y0228624D01*
X0084494Y0227874D02*
X0084161Y0228208D01*
X0083493Y0228208D01*
X0083160Y0227874D01*
X0082284Y0227874D02*
X0081951Y0228208D01*
X0081284Y0228208D01*
X0080950Y0227874D01*
X0080950Y0226540D01*
X0081284Y0226206D01*
X0081951Y0226206D01*
X0082284Y0226540D01*
X0083160Y0226206D02*
X0084494Y0227541D01*
X0084494Y0227874D01*
X0084494Y0226206D02*
X0083160Y0226206D01*
X0083827Y0221958D02*
X0083160Y0221291D01*
X0082284Y0221624D02*
X0081951Y0221958D01*
X0081284Y0221958D01*
X0080950Y0221624D01*
X0080950Y0220290D01*
X0081284Y0219956D01*
X0081951Y0219956D01*
X0082284Y0220290D01*
X0083160Y0219956D02*
X0084494Y0219956D01*
X0083827Y0219956D02*
X0083827Y0221958D01*
X0082884Y0240456D02*
X0082217Y0240456D01*
X0081883Y0240790D01*
X0081008Y0240790D02*
X0080674Y0240456D01*
X0080007Y0240456D01*
X0079673Y0240790D01*
X0079673Y0242124D01*
X0080007Y0242458D01*
X0080674Y0242458D01*
X0081008Y0242124D01*
X0081883Y0242124D02*
X0082217Y0242458D01*
X0082884Y0242458D01*
X0083218Y0242124D01*
X0083218Y0241791D01*
X0082884Y0241457D01*
X0083218Y0241124D01*
X0083218Y0240790D01*
X0082884Y0240456D01*
X0082884Y0241457D02*
X0082550Y0241457D01*
X0078867Y0240456D02*
X0078200Y0240456D01*
X0078534Y0240456D02*
X0078534Y0242458D01*
X0078867Y0242458D02*
X0078200Y0242458D01*
X0071954Y0242374D02*
X0070620Y0241040D01*
X0070953Y0240706D01*
X0071621Y0240706D01*
X0071954Y0241040D01*
X0071954Y0242374D01*
X0071621Y0242708D01*
X0070953Y0242708D01*
X0070620Y0242374D01*
X0070620Y0241040D01*
X0069744Y0240706D02*
X0068410Y0240706D01*
X0069744Y0242041D01*
X0069744Y0242374D01*
X0069411Y0242708D01*
X0068743Y0242708D01*
X0068410Y0242374D01*
X0067534Y0242374D02*
X0067201Y0242708D01*
X0066534Y0242708D01*
X0066200Y0242374D01*
X0066200Y0241040D01*
X0066534Y0240706D01*
X0067201Y0240706D01*
X0067534Y0241040D01*
X0067717Y0232958D02*
X0067383Y0232624D01*
X0067717Y0232958D02*
X0068384Y0232958D01*
X0068718Y0232624D01*
X0068718Y0232291D01*
X0067383Y0230956D01*
X0068718Y0230956D01*
X0066508Y0231290D02*
X0066174Y0230956D01*
X0065507Y0230956D01*
X0065173Y0231290D01*
X0065173Y0232624D01*
X0065507Y0232958D01*
X0066174Y0232958D01*
X0066508Y0232624D01*
X0064367Y0232958D02*
X0063700Y0232958D01*
X0064034Y0232958D02*
X0064034Y0230956D01*
X0064367Y0230956D02*
X0063700Y0230956D01*
X0060050Y0182708D02*
X0060050Y0180706D01*
X0059383Y0180706D02*
X0060718Y0180706D01*
X0059383Y0182041D02*
X0060050Y0182708D01*
X0058508Y0182374D02*
X0058174Y0182708D01*
X0057507Y0182708D01*
X0057173Y0182374D01*
X0057173Y0181040D01*
X0057507Y0180706D01*
X0058174Y0180706D01*
X0058508Y0181040D01*
X0056367Y0180706D02*
X0055700Y0180706D01*
X0056034Y0180706D02*
X0056034Y0182708D01*
X0056367Y0182708D02*
X0055700Y0182708D01*
X0054787Y0155208D02*
X0054787Y0153206D01*
X0054120Y0153206D02*
X0055454Y0153206D01*
X0056700Y0153540D02*
X0057034Y0153206D01*
X0057701Y0153206D01*
X0058034Y0153540D01*
X0058910Y0153206D02*
X0060244Y0154541D01*
X0060244Y0154874D01*
X0059911Y0155208D01*
X0059243Y0155208D01*
X0058910Y0154874D01*
X0058034Y0154874D02*
X0057701Y0155208D01*
X0057034Y0155208D01*
X0056700Y0154874D01*
X0056700Y0153540D01*
X0054787Y0155208D02*
X0054120Y0154541D01*
X0053244Y0154541D02*
X0053244Y0154874D01*
X0052911Y0155208D01*
X0052243Y0155208D01*
X0051910Y0154874D01*
X0051034Y0154874D02*
X0050701Y0155208D01*
X0050034Y0155208D01*
X0049700Y0154874D01*
X0049700Y0153540D01*
X0050034Y0153206D01*
X0050701Y0153206D01*
X0051034Y0153540D01*
X0051910Y0153206D02*
X0053244Y0154541D01*
X0053244Y0153206D02*
X0051910Y0153206D01*
X0051174Y0150708D02*
X0050507Y0150708D01*
X0050173Y0150374D01*
X0050173Y0149040D01*
X0050507Y0148706D01*
X0051174Y0148706D01*
X0051508Y0149040D01*
X0052383Y0149707D02*
X0053718Y0149707D01*
X0053384Y0148706D02*
X0053384Y0150708D01*
X0052383Y0149707D01*
X0051508Y0150374D02*
X0051174Y0150708D01*
X0049367Y0150708D02*
X0048700Y0150708D01*
X0049034Y0150708D02*
X0049034Y0148706D01*
X0049367Y0148706D02*
X0048700Y0148706D01*
X0058910Y0153206D02*
X0060244Y0153206D01*
X0061120Y0153206D02*
X0062454Y0154541D01*
X0062454Y0154874D01*
X0062121Y0155208D01*
X0061453Y0155208D01*
X0061120Y0154874D01*
X0061120Y0153206D02*
X0062454Y0153206D01*
X0063950Y0144458D02*
X0065284Y0142456D01*
X0066160Y0142456D02*
X0067494Y0142456D01*
X0066827Y0142456D02*
X0066827Y0144458D01*
X0066160Y0143791D01*
X0065284Y0144458D02*
X0063950Y0142456D01*
X0055121Y0104458D02*
X0054453Y0104458D01*
X0054120Y0104124D01*
X0055121Y0104458D02*
X0055454Y0104124D01*
X0055454Y0103791D01*
X0054120Y0102456D01*
X0055454Y0102456D01*
X0055454Y0097458D02*
X0054787Y0097124D01*
X0054120Y0096457D01*
X0055121Y0096457D01*
X0055454Y0096124D01*
X0055454Y0095790D01*
X0055121Y0095456D01*
X0054453Y0095456D01*
X0054120Y0095790D01*
X0054120Y0096457D01*
X0053244Y0095456D02*
X0051910Y0095456D01*
X0052577Y0095456D02*
X0052577Y0097458D01*
X0051910Y0096791D01*
X0051034Y0097124D02*
X0050701Y0097458D01*
X0050034Y0097458D01*
X0049700Y0097124D01*
X0049700Y0095790D01*
X0050034Y0095456D01*
X0050701Y0095456D01*
X0051034Y0095790D01*
X0050701Y0102456D02*
X0051034Y0102790D01*
X0050701Y0102456D02*
X0050034Y0102456D01*
X0049700Y0102790D01*
X0049700Y0104124D01*
X0050034Y0104458D01*
X0050701Y0104458D01*
X0051034Y0104124D01*
X0051910Y0103791D02*
X0052577Y0104458D01*
X0052577Y0102456D01*
X0051910Y0102456D02*
X0053244Y0102456D01*
X0083784Y0157706D02*
X0083450Y0158040D01*
X0083450Y0159374D01*
X0083784Y0159708D01*
X0084451Y0159708D01*
X0084784Y0159374D01*
X0085660Y0159041D02*
X0086327Y0159708D01*
X0086327Y0157706D01*
X0085660Y0157706D02*
X0086994Y0157706D01*
X0087870Y0158707D02*
X0088871Y0159708D01*
X0088871Y0157706D01*
X0089204Y0158707D02*
X0087870Y0158707D01*
X0084784Y0158040D02*
X0084451Y0157706D01*
X0083784Y0157706D01*
X0083784Y0163706D02*
X0083450Y0164040D01*
X0083450Y0165374D01*
X0083784Y0165708D01*
X0084451Y0165708D01*
X0084784Y0165374D01*
X0085660Y0165041D02*
X0086327Y0165708D01*
X0086327Y0163706D01*
X0085660Y0163706D02*
X0086994Y0163706D01*
X0087870Y0164040D02*
X0088203Y0163706D01*
X0088871Y0163706D01*
X0089204Y0164040D01*
X0089204Y0164374D01*
X0088871Y0164707D01*
X0088537Y0164707D01*
X0088871Y0164707D02*
X0089204Y0165041D01*
X0089204Y0165374D01*
X0088871Y0165708D01*
X0088203Y0165708D01*
X0087870Y0165374D01*
X0084784Y0164040D02*
X0084451Y0163706D01*
X0083784Y0163706D01*
X0083950Y0149458D02*
X0084951Y0149458D01*
X0085284Y0149124D01*
X0085284Y0148457D01*
X0084951Y0148124D01*
X0083950Y0148124D01*
X0084617Y0148124D02*
X0085284Y0147456D01*
X0086160Y0147456D02*
X0087494Y0148791D01*
X0087494Y0149124D01*
X0087161Y0149458D01*
X0086493Y0149458D01*
X0086160Y0149124D01*
X0086160Y0147456D02*
X0087494Y0147456D01*
X0083950Y0147456D02*
X0083950Y0149458D01*
X0105700Y0149458D02*
X0106701Y0149458D01*
X0107034Y0149124D01*
X0107034Y0148457D01*
X0106701Y0148124D01*
X0105700Y0148124D01*
X0106367Y0148124D02*
X0107034Y0147456D01*
X0107910Y0147456D02*
X0109244Y0147456D01*
X0108577Y0147456D02*
X0108577Y0149458D01*
X0107910Y0148791D01*
X0105700Y0149458D02*
X0105700Y0147456D01*
X0107534Y0156956D02*
X0108201Y0156956D01*
X0108534Y0157290D01*
X0109410Y0157290D02*
X0109743Y0156956D01*
X0110411Y0156956D01*
X0110744Y0157290D01*
X0110744Y0157624D01*
X0110411Y0157957D01*
X0109410Y0157957D01*
X0109410Y0157290D01*
X0109410Y0157957D02*
X0110077Y0158624D01*
X0110744Y0158958D01*
X0110161Y0163706D02*
X0109493Y0163706D01*
X0109160Y0164040D01*
X0108284Y0164040D02*
X0107951Y0163706D01*
X0107284Y0163706D01*
X0106950Y0164040D01*
X0106950Y0165374D01*
X0107284Y0165708D01*
X0107951Y0165708D01*
X0108284Y0165374D01*
X0109160Y0165374D02*
X0109493Y0165708D01*
X0110161Y0165708D01*
X0110494Y0165374D01*
X0110494Y0165041D01*
X0110161Y0164707D01*
X0110494Y0164374D01*
X0110494Y0164040D01*
X0110161Y0163706D01*
X0110161Y0164707D02*
X0109827Y0164707D01*
X0108201Y0158958D02*
X0107534Y0158958D01*
X0107200Y0158624D01*
X0107200Y0157290D01*
X0107534Y0156956D01*
X0108534Y0158624D02*
X0108201Y0158958D01*
X0109950Y0196206D02*
X0109950Y0198208D01*
X0110951Y0198208D01*
X0111284Y0197874D01*
X0111284Y0197207D01*
X0110951Y0196874D01*
X0109950Y0196874D01*
X0110617Y0196874D02*
X0111284Y0196206D01*
X0112160Y0196540D02*
X0112493Y0196206D01*
X0113161Y0196206D01*
X0113494Y0196540D01*
X0113494Y0196874D01*
X0113161Y0197207D01*
X0112827Y0197207D01*
X0113161Y0197207D02*
X0113494Y0197541D01*
X0113494Y0197874D01*
X0113161Y0198208D01*
X0112493Y0198208D01*
X0112160Y0197874D01*
X0163200Y0119458D02*
X0164534Y0117456D01*
X0165410Y0117456D02*
X0166744Y0118791D01*
X0166744Y0119124D01*
X0166411Y0119458D01*
X0165743Y0119458D01*
X0165410Y0119124D01*
X0164534Y0119458D02*
X0163200Y0117456D01*
X0165410Y0117456D02*
X0166744Y0117456D01*
X0043306Y0370906D02*
X0042638Y0370906D01*
X0042972Y0370906D02*
X0042972Y0372908D01*
X0042638Y0372908D01*
X0041763Y0371907D02*
X0041429Y0372241D01*
X0040762Y0372241D01*
X0040428Y0371907D01*
X0040428Y0371240D01*
X0040762Y0370906D01*
X0041429Y0370906D01*
X0041763Y0371240D01*
X0041763Y0371907D01*
X0039588Y0372241D02*
X0039254Y0372241D01*
X0038587Y0371574D01*
X0038587Y0372241D02*
X0038587Y0370906D01*
X0037781Y0370906D02*
X0037447Y0371240D01*
X0037447Y0372574D01*
X0037114Y0372241D02*
X0037781Y0372241D01*
X0036238Y0371907D02*
X0036238Y0370906D01*
X0036238Y0371907D02*
X0035905Y0372241D01*
X0034904Y0372241D01*
X0034904Y0370906D01*
X0034028Y0371240D02*
X0034028Y0371907D01*
X0033695Y0372241D01*
X0033027Y0372241D01*
X0032694Y0371907D01*
X0032694Y0371240D01*
X0033027Y0370906D01*
X0033695Y0370906D01*
X0034028Y0371240D01*
X0031818Y0371240D02*
X0031485Y0370906D01*
X0030818Y0370906D01*
X0030484Y0371240D01*
X0030484Y0372574D01*
X0030818Y0372908D01*
X0031485Y0372908D01*
X0031818Y0372574D01*
X0028504Y0374840D02*
X0028504Y0376174D01*
X0027169Y0374840D01*
X0027503Y0374506D01*
X0028170Y0374506D01*
X0028504Y0374840D01*
X0028504Y0376174D02*
X0028170Y0376508D01*
X0027503Y0376508D01*
X0027169Y0376174D01*
X0027169Y0374840D01*
X0026294Y0374506D02*
X0024959Y0374506D01*
X0025627Y0374506D02*
X0025627Y0376508D01*
X0024959Y0375841D01*
X0024084Y0376174D02*
X0022749Y0374840D01*
X0023083Y0374506D01*
X0023750Y0374506D01*
X0024084Y0374840D01*
X0024084Y0376174D01*
X0023750Y0376508D01*
X0023083Y0376508D01*
X0022749Y0376174D01*
X0022749Y0374840D01*
X0021874Y0374840D02*
X0021540Y0374506D01*
X0020873Y0374506D01*
X0020540Y0374840D01*
X0021874Y0376174D01*
X0021874Y0374840D01*
X0021874Y0376174D02*
X0021540Y0376508D01*
X0020873Y0376508D01*
X0020540Y0376174D01*
X0020540Y0374840D01*
X0019664Y0374173D02*
X0018330Y0374173D01*
X0017454Y0374506D02*
X0017454Y0376508D01*
X0016787Y0375841D01*
X0016120Y0376508D01*
X0016120Y0374506D01*
X0015244Y0374840D02*
X0014911Y0374506D01*
X0014243Y0374506D01*
X0013910Y0374840D01*
X0013910Y0376174D01*
X0014243Y0376508D01*
X0014911Y0376508D01*
X0015244Y0376174D01*
X0013034Y0376174D02*
X0012701Y0376508D01*
X0012034Y0376508D01*
X0011700Y0376174D01*
X0011700Y0374840D01*
X0012034Y0374506D01*
X0012701Y0374506D01*
X0013034Y0374840D01*
X0013034Y0372908D02*
X0013034Y0370906D01*
X0013034Y0371907D02*
X0011700Y0371907D01*
X0011700Y0370906D02*
X0011700Y0372908D01*
X0013910Y0371907D02*
X0015244Y0371907D01*
X0016120Y0372241D02*
X0017121Y0372241D01*
X0017454Y0371907D01*
X0017454Y0371240D01*
X0017121Y0370906D01*
X0016120Y0370906D01*
X0016120Y0372908D01*
X0018330Y0372241D02*
X0018330Y0370906D01*
X0018330Y0371574D02*
X0018997Y0372241D01*
X0019330Y0372241D01*
X0020171Y0372241D02*
X0020505Y0372241D01*
X0020505Y0370906D01*
X0020838Y0370906D02*
X0020171Y0370906D01*
X0019768Y0369642D02*
X0019768Y0369308D01*
X0019768Y0368641D02*
X0019768Y0367306D01*
X0019435Y0367306D02*
X0020102Y0367306D01*
X0021241Y0367640D02*
X0021575Y0367306D01*
X0021241Y0367640D02*
X0021241Y0368974D01*
X0020908Y0368641D02*
X0021575Y0368641D01*
X0022381Y0368307D02*
X0022381Y0367640D01*
X0022715Y0367306D01*
X0023716Y0367306D01*
X0024591Y0367306D02*
X0024591Y0369308D01*
X0024925Y0368641D02*
X0024591Y0368307D01*
X0024925Y0368641D02*
X0025592Y0368641D01*
X0025925Y0368307D01*
X0025925Y0367306D01*
X0025995Y0365708D02*
X0025995Y0363706D01*
X0025328Y0363706D02*
X0026662Y0363706D01*
X0027537Y0363706D02*
X0027537Y0364040D01*
X0028872Y0365374D01*
X0028872Y0365708D01*
X0027537Y0365708D01*
X0025995Y0365708D02*
X0025328Y0365041D01*
X0024452Y0365374D02*
X0024452Y0364040D01*
X0024119Y0363706D01*
X0023451Y0363706D01*
X0023118Y0364040D01*
X0024452Y0365374D01*
X0024119Y0365708D01*
X0023451Y0365708D01*
X0023118Y0365374D01*
X0023118Y0364040D01*
X0022242Y0363706D02*
X0020908Y0363706D01*
X0022242Y0365041D01*
X0022242Y0365374D01*
X0021909Y0365708D01*
X0021241Y0365708D01*
X0020908Y0365374D01*
X0017927Y0364040D02*
X0017927Y0363706D01*
X0017593Y0363706D01*
X0017593Y0364040D01*
X0017927Y0364040D01*
X0016787Y0363706D02*
X0016453Y0364040D01*
X0016453Y0365374D01*
X0016120Y0365041D02*
X0016787Y0365041D01*
X0015244Y0365041D02*
X0014243Y0365041D01*
X0013910Y0364707D01*
X0013910Y0364040D01*
X0014243Y0363706D01*
X0015244Y0363706D01*
X0013034Y0364040D02*
X0013034Y0365374D01*
X0012701Y0365708D01*
X0012034Y0365708D01*
X0011700Y0365374D01*
X0011700Y0364040D01*
X0012034Y0363706D01*
X0012701Y0363706D01*
X0013034Y0364040D01*
X0013034Y0367306D02*
X0013034Y0369308D01*
X0011700Y0369308D02*
X0011700Y0367306D01*
X0013034Y0367306D02*
X0011700Y0369308D01*
X0013910Y0367640D02*
X0014243Y0367640D01*
X0014243Y0367306D01*
X0013910Y0367306D01*
X0013910Y0367640D01*
X0017225Y0367306D02*
X0017225Y0369308D01*
X0018559Y0369308D01*
X0019435Y0368641D02*
X0019768Y0368641D01*
X0017892Y0368307D02*
X0017225Y0368307D01*
X0020505Y0372908D02*
X0020505Y0373242D01*
X0021644Y0371907D02*
X0021978Y0372241D01*
X0022979Y0372241D01*
X0022979Y0372908D02*
X0022979Y0370906D01*
X0021978Y0370906D01*
X0021644Y0371240D01*
X0021644Y0371907D01*
X0023854Y0371907D02*
X0024188Y0372241D01*
X0025189Y0372241D01*
X0025189Y0370573D01*
X0024855Y0370239D01*
X0024522Y0370239D01*
X0024188Y0370906D02*
X0025189Y0370906D01*
X0026064Y0371240D02*
X0026064Y0371907D01*
X0026398Y0372241D01*
X0027065Y0372241D01*
X0027399Y0371907D01*
X0027399Y0371574D01*
X0026064Y0371574D01*
X0026064Y0371240D02*
X0026398Y0370906D01*
X0027065Y0370906D01*
X0024188Y0370906D02*
X0023854Y0371240D01*
X0023854Y0371907D01*
X0023716Y0368641D02*
X0022715Y0368641D01*
X0022381Y0368307D01*
D11*
X0068900Y0369406D02*
X0068900Y0371606D01*
X0072100Y0371606D01*
X0068900Y0362606D02*
X0068900Y0360406D01*
X0072100Y0360406D01*
X0091400Y0360406D02*
X0091400Y0362606D01*
X0091400Y0360406D02*
X0094600Y0360406D01*
X0091400Y0369406D02*
X0091400Y0371606D01*
X0094600Y0371606D01*
X0113900Y0371606D02*
X0113900Y0369406D01*
X0113900Y0371606D02*
X0117100Y0371606D01*
X0113900Y0362606D02*
X0113900Y0360406D01*
X0117100Y0360406D01*
X0136400Y0360406D02*
X0136400Y0362606D01*
X0136400Y0360406D02*
X0139600Y0360406D01*
X0136400Y0369406D02*
X0136400Y0371606D01*
X0139600Y0371606D01*
X0145917Y0136209D02*
X0147051Y0136209D01*
X0147618Y0135642D01*
X0145349Y0133373D01*
X0145917Y0132806D01*
X0147051Y0132806D01*
X0147618Y0133373D01*
X0147618Y0135642D01*
X0145917Y0136209D02*
X0145349Y0135642D01*
X0145349Y0133373D01*
X0136569Y0134508D02*
X0134300Y0134508D01*
X0135434Y0135642D02*
X0135434Y0133373D01*
X0156399Y0134508D02*
X0158667Y0134508D01*
X0048667Y0137008D02*
X0046399Y0137008D01*
X0037618Y0138142D02*
X0035349Y0135873D01*
X0035917Y0135306D01*
X0037051Y0135306D01*
X0037618Y0135873D01*
X0037618Y0138142D01*
X0037051Y0138709D01*
X0035917Y0138709D01*
X0035349Y0138142D01*
X0035349Y0135873D01*
X0026569Y0137008D02*
X0024300Y0137008D01*
X0025434Y0138142D02*
X0025434Y0135873D01*
D12*
X0023750Y0099506D02*
X0023750Y0093506D01*
X0035750Y0093506D01*
X0035750Y0099506D01*
X0023750Y0099506D01*
X0023750Y0101006D02*
X0023750Y0107006D01*
X0035750Y0107006D01*
X0035750Y0101006D01*
X0023750Y0101006D01*
X0036750Y0101006D02*
X0036750Y0107006D01*
X0048750Y0107006D01*
X0048750Y0101006D01*
X0036750Y0101006D01*
X0036750Y0099506D02*
X0036750Y0093506D01*
X0048750Y0093506D01*
X0048750Y0099506D01*
X0036750Y0099506D01*
X0030201Y0146207D02*
X0030201Y0155908D01*
X0028250Y0156506D02*
X0022250Y0156506D01*
X0022250Y0168506D01*
X0028250Y0168506D01*
X0028250Y0156506D01*
X0022000Y0156506D02*
X0022000Y0168506D01*
X0016000Y0168506D01*
X0016000Y0156506D01*
X0022000Y0156506D01*
X0047799Y0155908D02*
X0047799Y0146207D01*
X0049750Y0156506D02*
X0055750Y0156506D01*
X0055750Y0168506D01*
X0049750Y0168506D01*
X0049750Y0156506D01*
X0056000Y0156506D02*
X0062000Y0156506D01*
X0062000Y0168506D01*
X0056000Y0168506D01*
X0056000Y0156506D01*
X0070500Y0155506D02*
X0070500Y0161506D01*
X0082500Y0161506D01*
X0082500Y0155506D01*
X0070500Y0155506D01*
X0070500Y0161756D02*
X0070500Y0167756D01*
X0082500Y0167756D01*
X0082500Y0161756D01*
X0070500Y0161756D01*
X0088500Y0154506D02*
X0088500Y0142506D01*
X0094500Y0142506D01*
X0094500Y0154506D01*
X0088500Y0154506D01*
X0094000Y0155506D02*
X0094000Y0161506D01*
X0106000Y0161506D01*
X0106000Y0155506D01*
X0094000Y0155506D01*
X0094000Y0161756D02*
X0094000Y0167756D01*
X0106000Y0167756D01*
X0106000Y0161756D01*
X0094000Y0161756D01*
X0098500Y0154506D02*
X0104500Y0154506D01*
X0104500Y0142506D01*
X0098500Y0142506D01*
X0098500Y0154506D01*
X0108500Y0199256D02*
X0108500Y0211256D01*
X0114500Y0211256D01*
X0114500Y0199256D01*
X0108500Y0199256D01*
X0108500Y0213006D02*
X0108500Y0225006D01*
X0114500Y0225006D01*
X0114500Y0213006D01*
X0108500Y0213006D01*
X0110750Y0230006D02*
X0104750Y0230006D01*
X0104750Y0242006D01*
X0110750Y0242006D01*
X0110750Y0230006D01*
X0111000Y0230006D02*
X0117000Y0230006D01*
X0117000Y0242006D01*
X0111000Y0242006D01*
X0111000Y0230006D01*
X0104500Y0230006D02*
X0098500Y0230006D01*
X0098500Y0242006D01*
X0104500Y0242006D01*
X0104500Y0230006D01*
X0095750Y0230006D02*
X0089750Y0230006D01*
X0089750Y0242006D01*
X0095750Y0242006D01*
X0095750Y0230006D01*
X0080000Y0230256D02*
X0080000Y0224256D01*
X0068000Y0224256D01*
X0068000Y0230256D01*
X0080000Y0230256D01*
X0080000Y0224006D02*
X0080000Y0218006D01*
X0068000Y0218006D01*
X0068000Y0224006D01*
X0080000Y0224006D01*
X0065250Y0240256D02*
X0065250Y0252256D01*
X0059250Y0252256D01*
X0059250Y0240256D01*
X0065250Y0240256D01*
X0062799Y0233556D02*
X0062799Y0223855D01*
X0064500Y0255006D02*
X0058500Y0255006D01*
X0058500Y0267006D01*
X0064500Y0267006D01*
X0064500Y0255006D01*
X0058250Y0255006D02*
X0052250Y0255006D01*
X0052250Y0267006D01*
X0058250Y0267006D01*
X0058250Y0255006D01*
X0058500Y0267506D02*
X0058500Y0279506D01*
X0064500Y0279506D01*
X0064500Y0267506D01*
X0058500Y0267506D01*
X0043250Y0234506D02*
X0043250Y0222506D01*
X0037250Y0222506D01*
X0037250Y0234506D01*
X0043250Y0234506D01*
X0045201Y0233556D02*
X0045201Y0223855D01*
X0037000Y0222506D02*
X0031000Y0222506D01*
X0031000Y0234506D01*
X0037000Y0234506D01*
X0037000Y0222506D01*
X0063500Y0310006D02*
X0063500Y0322006D01*
X0069500Y0322006D01*
X0069500Y0310006D01*
X0063500Y0310006D01*
X0063500Y0323006D02*
X0075500Y0323006D01*
X0075500Y0329006D01*
X0063500Y0329006D01*
X0063500Y0323006D01*
X0069750Y0322006D02*
X0069750Y0310006D01*
X0075750Y0310006D01*
X0075750Y0322006D01*
X0069750Y0322006D01*
X0079750Y0322006D02*
X0079750Y0310006D01*
X0085750Y0310006D01*
X0085750Y0322006D01*
X0079750Y0322006D01*
X0080000Y0323006D02*
X0080000Y0329006D01*
X0092000Y0329006D01*
X0092000Y0323006D01*
X0080000Y0323006D01*
X0086000Y0322006D02*
X0086000Y0310006D01*
X0092000Y0310006D01*
X0092000Y0322006D01*
X0086000Y0322006D01*
X0084250Y0305256D02*
X0096250Y0305256D01*
X0096250Y0299256D01*
X0084250Y0299256D01*
X0084250Y0305256D01*
X0084250Y0299006D02*
X0096250Y0299006D01*
X0096250Y0293006D01*
X0084250Y0293006D01*
X0084250Y0299006D01*
X0098500Y0310006D02*
X0098500Y0322006D01*
X0104500Y0322006D01*
X0104500Y0310006D01*
X0098500Y0310006D01*
X0104750Y0310006D02*
X0104750Y0322006D01*
X0110750Y0322006D01*
X0110750Y0310006D01*
X0104750Y0310006D01*
X0110500Y0323006D02*
X0098500Y0323006D01*
X0098500Y0329006D01*
X0110500Y0329006D01*
X0110500Y0323006D01*
X0114750Y0323006D02*
X0114750Y0329006D01*
X0126750Y0329006D01*
X0126750Y0323006D01*
X0114750Y0323006D01*
X0114750Y0322006D02*
X0120750Y0322006D01*
X0120750Y0310006D01*
X0114750Y0310006D01*
X0114750Y0322006D01*
X0121000Y0322006D02*
X0121000Y0310006D01*
X0127000Y0310006D01*
X0127000Y0322006D01*
X0121000Y0322006D01*
X0124750Y0252006D02*
X0130750Y0252006D01*
X0130750Y0240006D01*
X0124750Y0240006D01*
X0124750Y0252006D01*
D13*
X0126500Y0333506D02*
X0106500Y0333506D01*
X0106500Y0351006D01*
X0126500Y0351006D01*
X0126500Y0333506D01*
X0129000Y0333506D02*
X0129000Y0351006D01*
X0149000Y0351006D01*
X0149000Y0333506D01*
X0129000Y0333506D01*
X0129000Y0351006D02*
X0129000Y0358506D01*
X0149000Y0358506D01*
X0149000Y0351006D01*
X0126500Y0351006D02*
X0126500Y0358506D01*
X0106500Y0358506D01*
X0106500Y0351006D01*
X0104000Y0351006D02*
X0084000Y0351006D01*
X0084000Y0358506D01*
X0104000Y0358506D01*
X0104000Y0351006D01*
X0104000Y0333506D01*
X0084000Y0333506D01*
X0084000Y0351006D01*
X0081500Y0351006D02*
X0081500Y0358506D01*
X0061500Y0358506D01*
X0061500Y0351006D01*
X0081500Y0351006D01*
X0081500Y0333506D01*
X0061500Y0333506D01*
X0061500Y0351006D01*
X0051500Y0133756D02*
X0021500Y0133756D01*
X0021500Y0126256D01*
X0051500Y0126256D01*
X0051500Y0108756D01*
X0021500Y0108756D01*
X0021500Y0126256D01*
X0051500Y0126256D02*
X0051500Y0133756D01*
X0131500Y0131256D02*
X0131500Y0123756D01*
X0161500Y0123756D01*
X0161500Y0106256D01*
X0131500Y0106256D01*
X0131500Y0123756D01*
X0131500Y0131256D02*
X0161500Y0131256D01*
X0161500Y0123756D01*
D14*
X0120142Y0140573D02*
X0120142Y0084865D01*
X0062858Y0084865D01*
X0062858Y0140573D01*
X0120142Y0140573D01*
X0106000Y0169506D02*
X0065000Y0169506D01*
X0062000Y0172506D01*
X0062000Y0217506D01*
X0106000Y0217506D01*
X0106000Y0169506D01*
X0121750Y0243756D02*
X0070750Y0243756D01*
X0068750Y0245756D01*
X0068750Y0290756D01*
X0121750Y0290756D01*
X0121750Y0243756D01*
X0133488Y0245613D02*
X0133488Y0248762D01*
X0135850Y0248762D01*
X0142150Y0248762D02*
X0144512Y0248762D01*
X0144512Y0245613D01*
X0116697Y0084471D02*
X0116697Y0050416D01*
X0066303Y0050416D01*
X0066303Y0084569D01*
X0072209Y0050022D02*
X0072209Y0001400D01*
X0110791Y0001400D01*
X0110791Y0049924D01*
X0057012Y0246613D02*
X0057012Y0249762D01*
X0054650Y0249762D01*
X0048350Y0249762D02*
X0045988Y0249762D01*
X0045988Y0246613D01*
D15*
X0091500Y0019254D03*
D16*
X0111500Y0218406D03*
D17*
X0114890Y0216808D02*
X0114890Y0214606D01*
X0114890Y0215340D02*
X0116358Y0216808D01*
X0115257Y0215707D02*
X0116358Y0214606D01*
X0102300Y0320606D02*
X0100098Y0320606D01*
X0101199Y0320973D02*
X0102300Y0322074D01*
X0101566Y0320606D02*
X0100098Y0322074D01*
X0090400Y0329396D02*
X0088198Y0329396D01*
X0089299Y0329763D02*
X0090400Y0330864D01*
X0089666Y0329396D02*
X0088198Y0330864D01*
X0067300Y0322074D02*
X0066199Y0320973D01*
X0066566Y0320606D02*
X0065098Y0322074D01*
X0065098Y0320606D02*
X0067300Y0320606D01*
X0122948Y0329396D02*
X0125150Y0329396D01*
X0124416Y0329396D02*
X0122948Y0330864D01*
X0124049Y0329763D02*
X0125150Y0330864D01*
D18*
X0121350Y0326006D03*
X0103900Y0326006D03*
X0086600Y0326006D03*
X0068900Y0326006D03*
M02*
