%
M48
M72
T01C0.01200
T02C0.03543
T03C0.03937
T04C0.07874
%
T01
X39000Y166006
X54000Y216006
X64000Y236006
X50250Y257506
X72750Y274756
X82750Y257256
X87750Y277256
X102750Y277256
X118000Y274756
X126500Y236006
X120250Y232256
X117750Y201756
X101500Y182256
X91500Y203506
X86500Y182256
X76500Y203506
X66500Y182256
X60250Y312506
X95250Y312506
T02
X91500Y133506
X101500Y133506
T03
X26500Y121256
X36500Y121256
X46500Y121256
X136500Y118756
X146500Y118756
X156500Y118756
X144000Y346006
X134000Y346006
X121500Y346006
X111500Y346006
X99000Y346006
X89000Y346006
X76500Y346006
X66500Y346006
T04
X71500Y113506
X111500Y113506
M30
