G75*
%MOIN*%
%OFA0B0*%
%FSLAX25Y25*%
%IPPOS*%
%LPD*%
%AMOC8*
5,1,8,0,0,1.08239X$1,22.5*
%
%ADD10C,0.01000*%
%ADD11C,0.00000*%
D10*
X0001500Y0086006D02*
X0001500Y0386006D01*
X0176500Y0386006D01*
X0176500Y0086006D01*
X0001500Y0086006D01*
D11*
X0067563Y0113506D02*
X0067565Y0113631D01*
X0067571Y0113756D01*
X0067581Y0113880D01*
X0067595Y0114004D01*
X0067612Y0114128D01*
X0067634Y0114251D01*
X0067660Y0114373D01*
X0067689Y0114495D01*
X0067722Y0114615D01*
X0067760Y0114734D01*
X0067800Y0114853D01*
X0067845Y0114969D01*
X0067893Y0115084D01*
X0067945Y0115198D01*
X0068001Y0115310D01*
X0068060Y0115420D01*
X0068122Y0115528D01*
X0068188Y0115635D01*
X0068257Y0115739D01*
X0068330Y0115840D01*
X0068405Y0115940D01*
X0068484Y0116037D01*
X0068566Y0116131D01*
X0068651Y0116223D01*
X0068738Y0116312D01*
X0068829Y0116398D01*
X0068922Y0116481D01*
X0069018Y0116562D01*
X0069116Y0116639D01*
X0069216Y0116713D01*
X0069319Y0116784D01*
X0069424Y0116851D01*
X0069532Y0116916D01*
X0069641Y0116976D01*
X0069752Y0117034D01*
X0069865Y0117087D01*
X0069979Y0117137D01*
X0070095Y0117184D01*
X0070212Y0117226D01*
X0070331Y0117265D01*
X0070451Y0117301D01*
X0070572Y0117332D01*
X0070694Y0117360D01*
X0070816Y0117383D01*
X0070940Y0117403D01*
X0071064Y0117419D01*
X0071188Y0117431D01*
X0071313Y0117439D01*
X0071438Y0117443D01*
X0071562Y0117443D01*
X0071687Y0117439D01*
X0071812Y0117431D01*
X0071936Y0117419D01*
X0072060Y0117403D01*
X0072184Y0117383D01*
X0072306Y0117360D01*
X0072428Y0117332D01*
X0072549Y0117301D01*
X0072669Y0117265D01*
X0072788Y0117226D01*
X0072905Y0117184D01*
X0073021Y0117137D01*
X0073135Y0117087D01*
X0073248Y0117034D01*
X0073359Y0116976D01*
X0073469Y0116916D01*
X0073576Y0116851D01*
X0073681Y0116784D01*
X0073784Y0116713D01*
X0073884Y0116639D01*
X0073982Y0116562D01*
X0074078Y0116481D01*
X0074171Y0116398D01*
X0074262Y0116312D01*
X0074349Y0116223D01*
X0074434Y0116131D01*
X0074516Y0116037D01*
X0074595Y0115940D01*
X0074670Y0115840D01*
X0074743Y0115739D01*
X0074812Y0115635D01*
X0074878Y0115528D01*
X0074940Y0115420D01*
X0074999Y0115310D01*
X0075055Y0115198D01*
X0075107Y0115084D01*
X0075155Y0114969D01*
X0075200Y0114853D01*
X0075240Y0114734D01*
X0075278Y0114615D01*
X0075311Y0114495D01*
X0075340Y0114373D01*
X0075366Y0114251D01*
X0075388Y0114128D01*
X0075405Y0114004D01*
X0075419Y0113880D01*
X0075429Y0113756D01*
X0075435Y0113631D01*
X0075437Y0113506D01*
X0075435Y0113381D01*
X0075429Y0113256D01*
X0075419Y0113132D01*
X0075405Y0113008D01*
X0075388Y0112884D01*
X0075366Y0112761D01*
X0075340Y0112639D01*
X0075311Y0112517D01*
X0075278Y0112397D01*
X0075240Y0112278D01*
X0075200Y0112159D01*
X0075155Y0112043D01*
X0075107Y0111928D01*
X0075055Y0111814D01*
X0074999Y0111702D01*
X0074940Y0111592D01*
X0074878Y0111484D01*
X0074812Y0111377D01*
X0074743Y0111273D01*
X0074670Y0111172D01*
X0074595Y0111072D01*
X0074516Y0110975D01*
X0074434Y0110881D01*
X0074349Y0110789D01*
X0074262Y0110700D01*
X0074171Y0110614D01*
X0074078Y0110531D01*
X0073982Y0110450D01*
X0073884Y0110373D01*
X0073784Y0110299D01*
X0073681Y0110228D01*
X0073576Y0110161D01*
X0073468Y0110096D01*
X0073359Y0110036D01*
X0073248Y0109978D01*
X0073135Y0109925D01*
X0073021Y0109875D01*
X0072905Y0109828D01*
X0072788Y0109786D01*
X0072669Y0109747D01*
X0072549Y0109711D01*
X0072428Y0109680D01*
X0072306Y0109652D01*
X0072184Y0109629D01*
X0072060Y0109609D01*
X0071936Y0109593D01*
X0071812Y0109581D01*
X0071687Y0109573D01*
X0071562Y0109569D01*
X0071438Y0109569D01*
X0071313Y0109573D01*
X0071188Y0109581D01*
X0071064Y0109593D01*
X0070940Y0109609D01*
X0070816Y0109629D01*
X0070694Y0109652D01*
X0070572Y0109680D01*
X0070451Y0109711D01*
X0070331Y0109747D01*
X0070212Y0109786D01*
X0070095Y0109828D01*
X0069979Y0109875D01*
X0069865Y0109925D01*
X0069752Y0109978D01*
X0069641Y0110036D01*
X0069531Y0110096D01*
X0069424Y0110161D01*
X0069319Y0110228D01*
X0069216Y0110299D01*
X0069116Y0110373D01*
X0069018Y0110450D01*
X0068922Y0110531D01*
X0068829Y0110614D01*
X0068738Y0110700D01*
X0068651Y0110789D01*
X0068566Y0110881D01*
X0068484Y0110975D01*
X0068405Y0111072D01*
X0068330Y0111172D01*
X0068257Y0111273D01*
X0068188Y0111377D01*
X0068122Y0111484D01*
X0068060Y0111592D01*
X0068001Y0111702D01*
X0067945Y0111814D01*
X0067893Y0111928D01*
X0067845Y0112043D01*
X0067800Y0112159D01*
X0067760Y0112278D01*
X0067722Y0112397D01*
X0067689Y0112517D01*
X0067660Y0112639D01*
X0067634Y0112761D01*
X0067612Y0112884D01*
X0067595Y0113008D01*
X0067581Y0113132D01*
X0067571Y0113256D01*
X0067565Y0113381D01*
X0067563Y0113506D01*
X0107563Y0113506D02*
X0107565Y0113631D01*
X0107571Y0113756D01*
X0107581Y0113880D01*
X0107595Y0114004D01*
X0107612Y0114128D01*
X0107634Y0114251D01*
X0107660Y0114373D01*
X0107689Y0114495D01*
X0107722Y0114615D01*
X0107760Y0114734D01*
X0107800Y0114853D01*
X0107845Y0114969D01*
X0107893Y0115084D01*
X0107945Y0115198D01*
X0108001Y0115310D01*
X0108060Y0115420D01*
X0108122Y0115528D01*
X0108188Y0115635D01*
X0108257Y0115739D01*
X0108330Y0115840D01*
X0108405Y0115940D01*
X0108484Y0116037D01*
X0108566Y0116131D01*
X0108651Y0116223D01*
X0108738Y0116312D01*
X0108829Y0116398D01*
X0108922Y0116481D01*
X0109018Y0116562D01*
X0109116Y0116639D01*
X0109216Y0116713D01*
X0109319Y0116784D01*
X0109424Y0116851D01*
X0109532Y0116916D01*
X0109641Y0116976D01*
X0109752Y0117034D01*
X0109865Y0117087D01*
X0109979Y0117137D01*
X0110095Y0117184D01*
X0110212Y0117226D01*
X0110331Y0117265D01*
X0110451Y0117301D01*
X0110572Y0117332D01*
X0110694Y0117360D01*
X0110816Y0117383D01*
X0110940Y0117403D01*
X0111064Y0117419D01*
X0111188Y0117431D01*
X0111313Y0117439D01*
X0111438Y0117443D01*
X0111562Y0117443D01*
X0111687Y0117439D01*
X0111812Y0117431D01*
X0111936Y0117419D01*
X0112060Y0117403D01*
X0112184Y0117383D01*
X0112306Y0117360D01*
X0112428Y0117332D01*
X0112549Y0117301D01*
X0112669Y0117265D01*
X0112788Y0117226D01*
X0112905Y0117184D01*
X0113021Y0117137D01*
X0113135Y0117087D01*
X0113248Y0117034D01*
X0113359Y0116976D01*
X0113469Y0116916D01*
X0113576Y0116851D01*
X0113681Y0116784D01*
X0113784Y0116713D01*
X0113884Y0116639D01*
X0113982Y0116562D01*
X0114078Y0116481D01*
X0114171Y0116398D01*
X0114262Y0116312D01*
X0114349Y0116223D01*
X0114434Y0116131D01*
X0114516Y0116037D01*
X0114595Y0115940D01*
X0114670Y0115840D01*
X0114743Y0115739D01*
X0114812Y0115635D01*
X0114878Y0115528D01*
X0114940Y0115420D01*
X0114999Y0115310D01*
X0115055Y0115198D01*
X0115107Y0115084D01*
X0115155Y0114969D01*
X0115200Y0114853D01*
X0115240Y0114734D01*
X0115278Y0114615D01*
X0115311Y0114495D01*
X0115340Y0114373D01*
X0115366Y0114251D01*
X0115388Y0114128D01*
X0115405Y0114004D01*
X0115419Y0113880D01*
X0115429Y0113756D01*
X0115435Y0113631D01*
X0115437Y0113506D01*
X0115435Y0113381D01*
X0115429Y0113256D01*
X0115419Y0113132D01*
X0115405Y0113008D01*
X0115388Y0112884D01*
X0115366Y0112761D01*
X0115340Y0112639D01*
X0115311Y0112517D01*
X0115278Y0112397D01*
X0115240Y0112278D01*
X0115200Y0112159D01*
X0115155Y0112043D01*
X0115107Y0111928D01*
X0115055Y0111814D01*
X0114999Y0111702D01*
X0114940Y0111592D01*
X0114878Y0111484D01*
X0114812Y0111377D01*
X0114743Y0111273D01*
X0114670Y0111172D01*
X0114595Y0111072D01*
X0114516Y0110975D01*
X0114434Y0110881D01*
X0114349Y0110789D01*
X0114262Y0110700D01*
X0114171Y0110614D01*
X0114078Y0110531D01*
X0113982Y0110450D01*
X0113884Y0110373D01*
X0113784Y0110299D01*
X0113681Y0110228D01*
X0113576Y0110161D01*
X0113468Y0110096D01*
X0113359Y0110036D01*
X0113248Y0109978D01*
X0113135Y0109925D01*
X0113021Y0109875D01*
X0112905Y0109828D01*
X0112788Y0109786D01*
X0112669Y0109747D01*
X0112549Y0109711D01*
X0112428Y0109680D01*
X0112306Y0109652D01*
X0112184Y0109629D01*
X0112060Y0109609D01*
X0111936Y0109593D01*
X0111812Y0109581D01*
X0111687Y0109573D01*
X0111562Y0109569D01*
X0111438Y0109569D01*
X0111313Y0109573D01*
X0111188Y0109581D01*
X0111064Y0109593D01*
X0110940Y0109609D01*
X0110816Y0109629D01*
X0110694Y0109652D01*
X0110572Y0109680D01*
X0110451Y0109711D01*
X0110331Y0109747D01*
X0110212Y0109786D01*
X0110095Y0109828D01*
X0109979Y0109875D01*
X0109865Y0109925D01*
X0109752Y0109978D01*
X0109641Y0110036D01*
X0109531Y0110096D01*
X0109424Y0110161D01*
X0109319Y0110228D01*
X0109216Y0110299D01*
X0109116Y0110373D01*
X0109018Y0110450D01*
X0108922Y0110531D01*
X0108829Y0110614D01*
X0108738Y0110700D01*
X0108651Y0110789D01*
X0108566Y0110881D01*
X0108484Y0110975D01*
X0108405Y0111072D01*
X0108330Y0111172D01*
X0108257Y0111273D01*
X0108188Y0111377D01*
X0108122Y0111484D01*
X0108060Y0111592D01*
X0108001Y0111702D01*
X0107945Y0111814D01*
X0107893Y0111928D01*
X0107845Y0112043D01*
X0107800Y0112159D01*
X0107760Y0112278D01*
X0107722Y0112397D01*
X0107689Y0112517D01*
X0107660Y0112639D01*
X0107634Y0112761D01*
X0107612Y0112884D01*
X0107595Y0113008D01*
X0107581Y0113132D01*
X0107571Y0113256D01*
X0107565Y0113381D01*
X0107563Y0113506D01*
M02*
