%
M48
M72
T01C0.0197
T02C0.0315
T03C0.0354
T04C0.0360
T05C0.0394
T06C0.0400
T07C0.0500
T08C0.0700
T09C0.0787
T10C0.0820
%
T01
X11671Y14500
X14296Y16875
X13546Y17475
X11421Y18625
X10171Y21125
X13546Y22225
X14671Y21125
X17421Y22875
X14921Y25750
X13171Y27250
X14921Y29250
X10171Y32625
X8921Y31125
X5421Y32625
X4671Y32625
X3421Y31125
X4671Y27375
X6421Y26125
X3671Y22875
X1671Y22225
X2421Y20275
X4171Y17625
X3171Y17250
X15921Y18625
X17546Y17350
X16921Y15225
X21646Y18250
X22421Y19625
X24571Y20725
X25796Y20125
X26296Y18875
X27521Y18250
X31821Y20725
X33046Y20125
X37921Y20375
X37921Y18875
X39271Y18250
X43571Y20750
X44796Y20125
X52546Y19125
X53771Y18500
X55671Y18375
X57571Y20750
X58921Y20125
X60046Y20750
X62921Y18850
X62921Y17850
X62296Y16625
X67421Y16625
X67921Y18850
X65046Y20750
X66421Y23125
X61296Y23125
X59421Y25125
X59421Y26625
X59421Y28600
X61046Y30875
X61671Y31250
X64921Y31750
X67921Y30600
X68421Y31250
X64671Y28875
X66171Y28625
X64421Y26875
X58171Y31975
X57546Y34475
X60771Y34250
X64271Y34475
X65046Y36875
X63196Y37375
X61796Y37475
X58296Y36875
X56446Y37400
X67171Y37950
X67396Y34375
X64071Y12125
X63546Y9400
X59921Y10375
X68171Y10375
X19546Y19125
X8421Y35525
X6621Y35125
X7321Y36875
X8921Y38375
X8171Y39375
X6371Y38625
X4171Y39375
X3521Y40125
X1771Y36875
X1071Y35125
X11921Y43875
X10171Y46375
X16421Y43875
X14171Y40125
X2171Y46375
T02
X31296Y13375
X32046Y13375
X32796Y13375
X33546Y13375
X34296Y13375
X35046Y13375
X35796Y13375
X36546Y13375
X37296Y13375
X38046Y13375
X38796Y13375
X39546Y13375
X38421Y12275
X43546Y13375
X44296Y13375
X45046Y13375
X45796Y13375
X46546Y13375
X47296Y13375
X48046Y13375
X48796Y13375
X49546Y13375
X50296Y13375
X51046Y13375
X51796Y13375
X50671Y12275
T03
X14671Y13375
X13671Y13375
X4671Y13375
X3671Y13375
T04
X4421Y44125
X5421Y44125
X6921Y44125
X7921Y44125
X63546Y24375
X63546Y23375
X68796Y23375
X68796Y24375
T05
X15171Y42125
X14171Y42125
X13171Y42125
X7671Y41875
X6671Y41875
X5671Y41875
X4671Y41875
X4671Y46375
X5671Y46375
X6671Y46375
X7671Y46375
X13171Y46375
X14171Y46375
X15171Y46375
T06
X30171Y14625
X29171Y11625
X30171Y9625
X41421Y11625
X42421Y9625
X42421Y14625
X53671Y11625
X54671Y9625
X61171Y11625
X62171Y9625
X66171Y11625
X67171Y9625
X67171Y14625
X62171Y14625
X54671Y14625
T07
X60046Y44275
X66796Y44125
T08
X65792Y43121
X67800Y43121
X67800Y45129
X65792Y45129
X61050Y45279
X59042Y45279
X59042Y43271
X61050Y43271
T09
X1671Y11375
X5671Y11375
X11671Y11375
X15671Y11375
X57546Y13375
X57546Y14875
X57546Y16375
T10
X23671Y14125
X23671Y12125
X23671Y10125
M30
