G75*
%MOIN*%
%OFA0B0*%
%FSLAX25Y25*%
%IPPOS*%
%LPD*%
%AMOC8*
5,1,8,0,0,1.08239X$1,22.5*
%
%ADD10C,0.05937*%
%ADD11C,0.01200*%
%ADD12C,0.02800*%
%ADD13C,0.02978*%
D10*
X0011531Y0044500D02*
X0017469Y0044500D01*
X0017469Y0054500D02*
X0011531Y0054500D01*
X0057000Y0017469D02*
X0057000Y0011531D01*
X0067000Y0011531D02*
X0067000Y0017469D01*
X0079500Y0199031D02*
X0079500Y0204969D01*
X0089500Y0204969D02*
X0089500Y0199031D01*
X0099500Y0199031D02*
X0099500Y0204969D01*
X0109500Y0204969D02*
X0109500Y0199031D01*
X0049500Y0199031D02*
X0049500Y0204969D01*
X0039500Y0204969D02*
X0039500Y0199031D01*
X0029500Y0199031D02*
X0029500Y0204969D01*
X0019500Y0204969D02*
X0019500Y0199031D01*
D11*
X0007000Y0053907D02*
X0007000Y0030020D01*
X0008700Y0031376D01*
X0008700Y0031376D01*
X0013306Y0033184D01*
X0013306Y0033184D01*
X0018241Y0033554D01*
X0018241Y0033554D01*
X0023065Y0032452D01*
X0023065Y0032452D01*
X0027350Y0029978D01*
X0027350Y0029978D01*
X0030716Y0026351D01*
X0032863Y0021893D01*
X0033600Y0017000D01*
X0033600Y0017000D01*
X0032863Y0012107D01*
X0032863Y0012107D01*
X0030716Y0007649D01*
X0030716Y0007649D01*
X0030113Y0007000D01*
X0056407Y0007000D01*
X0055930Y0007075D01*
X0055246Y0007298D01*
X0054606Y0007624D01*
X0054024Y0008047D01*
X0053515Y0008555D01*
X0053093Y0009137D01*
X0052766Y0009778D01*
X0052544Y0010462D01*
X0052431Y0011172D01*
X0052431Y0014116D01*
X0056616Y0014116D01*
X0056616Y0014884D01*
X0052431Y0014884D01*
X0052431Y0017828D01*
X0052544Y0018538D01*
X0052766Y0019222D01*
X0053093Y0019863D01*
X0053515Y0020445D01*
X0054024Y0020953D01*
X0054606Y0021376D01*
X0055246Y0021702D01*
X0055930Y0021925D01*
X0056616Y0022033D01*
X0056616Y0014884D01*
X0057384Y0014884D01*
X0061568Y0014884D01*
X0061568Y0017828D01*
X0061456Y0018538D01*
X0061234Y0019222D01*
X0060907Y0019863D01*
X0060485Y0020445D01*
X0059976Y0020953D01*
X0059394Y0021376D01*
X0058754Y0021702D01*
X0058070Y0021925D01*
X0057384Y0022033D01*
X0057384Y0014884D01*
X0057384Y0014116D01*
X0061568Y0014116D01*
X0061568Y0011172D01*
X0061456Y0010462D01*
X0061234Y0009778D01*
X0060907Y0009137D01*
X0060485Y0008555D01*
X0059976Y0008047D01*
X0059394Y0007624D01*
X0058754Y0007298D01*
X0058070Y0007075D01*
X0057593Y0007000D01*
X0098951Y0007000D01*
X0097044Y0009798D01*
X0097044Y0009798D01*
X0095585Y0014526D01*
X0095585Y0019474D01*
X0097044Y0024202D01*
X0097044Y0024202D01*
X0099831Y0028291D01*
X0099831Y0028291D01*
X0099831Y0028291D01*
X0103700Y0031376D01*
X0103700Y0031376D01*
X0108306Y0033184D01*
X0108306Y0033184D01*
X0113241Y0033554D01*
X0113241Y0033554D01*
X0118065Y0032452D01*
X0118065Y0032452D01*
X0122000Y0030180D01*
X0122000Y0074500D01*
X0007000Y0074500D01*
X0007000Y0055093D01*
X0007075Y0055570D01*
X0007298Y0056254D01*
X0007624Y0056894D01*
X0008047Y0057476D01*
X0008555Y0057985D01*
X0009137Y0058407D01*
X0009778Y0058734D01*
X0010462Y0058956D01*
X0011172Y0059068D01*
X0014116Y0059068D01*
X0014116Y0054884D01*
X0014884Y0054884D01*
X0014884Y0059068D01*
X0017828Y0059068D01*
X0018538Y0058956D01*
X0019222Y0058734D01*
X0019863Y0058407D01*
X0020445Y0057985D01*
X0020953Y0057476D01*
X0021376Y0056894D01*
X0021702Y0056254D01*
X0021925Y0055570D01*
X0022033Y0054884D01*
X0014884Y0054884D01*
X0014884Y0054116D01*
X0014884Y0049931D01*
X0017828Y0049931D01*
X0018538Y0050044D01*
X0019222Y0050266D01*
X0019863Y0050593D01*
X0020445Y0051015D01*
X0020953Y0051524D01*
X0021376Y0052106D01*
X0021702Y0052746D01*
X0021925Y0053430D01*
X0022033Y0054116D01*
X0014884Y0054116D01*
X0014116Y0054116D01*
X0014116Y0049931D01*
X0011172Y0049931D01*
X0010462Y0050044D01*
X0009778Y0050266D01*
X0009137Y0050593D01*
X0008555Y0051015D01*
X0008047Y0051524D01*
X0007624Y0052106D01*
X0007298Y0052746D01*
X0007075Y0053430D01*
X0007000Y0053907D01*
X0007000Y0053536D02*
X0007059Y0053536D01*
X0007000Y0052337D02*
X0007506Y0052337D01*
X0007000Y0051139D02*
X0008432Y0051139D01*
X0007000Y0049940D02*
X0011115Y0049940D01*
X0010682Y0048768D02*
X0009114Y0048119D01*
X0007913Y0046918D01*
X0007263Y0045349D01*
X0007263Y0043651D01*
X0007913Y0042082D01*
X0009114Y0040881D01*
X0010682Y0040231D01*
X0018318Y0040231D01*
X0019886Y0040881D01*
X0021087Y0042082D01*
X0021737Y0043651D01*
X0021737Y0045349D01*
X0021087Y0046918D01*
X0019886Y0048119D01*
X0018318Y0048768D01*
X0010682Y0048768D01*
X0010618Y0048742D02*
X0007000Y0048742D01*
X0007000Y0047543D02*
X0008538Y0047543D01*
X0007676Y0046345D02*
X0007000Y0046345D01*
X0007000Y0045146D02*
X0007263Y0045146D01*
X0007263Y0043948D02*
X0007000Y0043948D01*
X0007000Y0042749D02*
X0007636Y0042749D01*
X0007000Y0041551D02*
X0008444Y0041551D01*
X0007000Y0040352D02*
X0010391Y0040352D01*
X0013249Y0033161D02*
X0007000Y0033161D01*
X0007000Y0031963D02*
X0010195Y0031963D01*
X0007933Y0030764D02*
X0007000Y0030764D01*
X0007000Y0034360D02*
X0122000Y0034360D01*
X0122000Y0035558D02*
X0062032Y0035558D01*
X0061963Y0035513D02*
X0062469Y0035851D01*
X0062899Y0036281D01*
X0063237Y0036787D01*
X0063470Y0037349D01*
X0063589Y0037946D01*
X0063589Y0038250D01*
X0063589Y0038554D01*
X0063470Y0039151D01*
X0063237Y0039713D01*
X0062899Y0040219D01*
X0062469Y0040649D01*
X0061963Y0040987D01*
X0061401Y0041220D01*
X0060804Y0041339D01*
X0060500Y0041339D01*
X0060500Y0038250D01*
X0063589Y0038250D01*
X0060500Y0038250D01*
X0060500Y0038250D01*
X0060500Y0038250D01*
X0060500Y0035161D01*
X0060804Y0035161D01*
X0061401Y0035280D01*
X0061963Y0035513D01*
X0063217Y0036757D02*
X0122000Y0036757D01*
X0122000Y0037955D02*
X0063589Y0037955D01*
X0063469Y0039154D02*
X0122000Y0039154D01*
X0122000Y0040352D02*
X0062766Y0040352D01*
X0060500Y0040352D02*
X0060500Y0040352D01*
X0060500Y0041339D02*
X0060500Y0038250D01*
X0060500Y0038250D01*
X0060500Y0038250D01*
X0057411Y0038250D01*
X0057411Y0038554D01*
X0057530Y0039151D01*
X0057763Y0039713D01*
X0058101Y0040219D01*
X0058531Y0040649D01*
X0059037Y0040987D01*
X0059599Y0041220D01*
X0060196Y0041339D01*
X0060500Y0041339D01*
X0060500Y0039154D02*
X0060500Y0039154D01*
X0060500Y0038250D02*
X0057411Y0038250D01*
X0057411Y0037946D01*
X0057530Y0037349D01*
X0057763Y0036787D01*
X0058101Y0036281D01*
X0058531Y0035851D01*
X0059037Y0035513D01*
X0059599Y0035280D01*
X0060196Y0035161D01*
X0060500Y0035161D01*
X0060500Y0038250D01*
X0060500Y0037955D02*
X0060500Y0037955D01*
X0060500Y0036757D02*
X0060500Y0036757D01*
X0060500Y0035558D02*
X0060500Y0035558D01*
X0058968Y0035558D02*
X0007000Y0035558D01*
X0007000Y0036757D02*
X0057783Y0036757D01*
X0057411Y0037955D02*
X0007000Y0037955D01*
X0007000Y0039154D02*
X0057531Y0039154D01*
X0058234Y0040352D02*
X0018609Y0040352D01*
X0020556Y0041551D02*
X0122000Y0041551D01*
X0122000Y0042749D02*
X0021364Y0042749D01*
X0021737Y0043948D02*
X0122000Y0043948D01*
X0122000Y0045146D02*
X0021737Y0045146D01*
X0021324Y0046345D02*
X0122000Y0046345D01*
X0122000Y0047543D02*
X0020462Y0047543D01*
X0018382Y0048742D02*
X0122000Y0048742D01*
X0122000Y0049940D02*
X0017885Y0049940D01*
X0020568Y0051139D02*
X0122000Y0051139D01*
X0122000Y0052337D02*
X0021494Y0052337D01*
X0021941Y0053536D02*
X0122000Y0053536D01*
X0122000Y0054734D02*
X0041603Y0054734D01*
X0041469Y0054601D02*
X0041899Y0055031D01*
X0042237Y0055537D01*
X0042470Y0056099D01*
X0042589Y0056696D01*
X0042589Y0057000D01*
X0042589Y0057304D01*
X0042470Y0057901D01*
X0042237Y0058463D01*
X0041899Y0058969D01*
X0041469Y0059399D01*
X0040963Y0059737D01*
X0040401Y0059970D01*
X0039804Y0060089D01*
X0039500Y0060089D01*
X0039500Y0057000D01*
X0042589Y0057000D01*
X0039500Y0057000D01*
X0039500Y0057000D01*
X0039500Y0057000D01*
X0039500Y0053911D01*
X0039804Y0053911D01*
X0040401Y0054030D01*
X0040963Y0054263D01*
X0041469Y0054601D01*
X0042402Y0055933D02*
X0122000Y0055933D01*
X0122000Y0057132D02*
X0042589Y0057132D01*
X0042293Y0058330D02*
X0122000Y0058330D01*
X0122000Y0059529D02*
X0041276Y0059529D01*
X0039500Y0059529D02*
X0039500Y0059529D01*
X0039500Y0060089D02*
X0039196Y0060089D01*
X0038599Y0059970D01*
X0038037Y0059737D01*
X0037531Y0059399D01*
X0037101Y0058969D01*
X0036763Y0058463D01*
X0036530Y0057901D01*
X0036411Y0057304D01*
X0036411Y0057000D01*
X0039500Y0057000D01*
X0039500Y0057000D01*
X0039500Y0057000D01*
X0039500Y0060089D01*
X0039500Y0058330D02*
X0039500Y0058330D01*
X0039500Y0057132D02*
X0039500Y0057132D01*
X0039500Y0057000D02*
X0036411Y0057000D01*
X0036411Y0056696D01*
X0036530Y0056099D01*
X0036763Y0055537D01*
X0037101Y0055031D01*
X0037531Y0054601D01*
X0038037Y0054263D01*
X0038599Y0054030D01*
X0039196Y0053911D01*
X0039500Y0053911D01*
X0039500Y0057000D01*
X0039500Y0055933D02*
X0039500Y0055933D01*
X0039500Y0054734D02*
X0039500Y0054734D01*
X0037397Y0054734D02*
X0014884Y0054734D01*
X0014884Y0053536D02*
X0014116Y0053536D01*
X0014116Y0052337D02*
X0014884Y0052337D01*
X0014884Y0051139D02*
X0014116Y0051139D01*
X0014116Y0049940D02*
X0014884Y0049940D01*
X0014884Y0055933D02*
X0014116Y0055933D01*
X0014116Y0057132D02*
X0014884Y0057132D01*
X0014884Y0058330D02*
X0014116Y0058330D01*
X0009031Y0058330D02*
X0007000Y0058330D01*
X0007000Y0057132D02*
X0007796Y0057132D01*
X0007194Y0055933D02*
X0007000Y0055933D01*
X0007000Y0059529D02*
X0037724Y0059529D01*
X0036707Y0058330D02*
X0019969Y0058330D01*
X0021204Y0057132D02*
X0036411Y0057132D01*
X0036598Y0055933D02*
X0021806Y0055933D01*
X0019959Y0033161D02*
X0108249Y0033161D01*
X0105195Y0031963D02*
X0023913Y0031963D01*
X0025989Y0030764D02*
X0102933Y0030764D01*
X0101430Y0029566D02*
X0027733Y0029566D01*
X0028845Y0028367D02*
X0099927Y0028367D01*
X0099066Y0027169D02*
X0029957Y0027169D01*
X0030899Y0025970D02*
X0098249Y0025970D01*
X0097432Y0024772D02*
X0031476Y0024772D01*
X0032053Y0023573D02*
X0096850Y0023573D01*
X0096480Y0022375D02*
X0032630Y0022375D01*
X0032971Y0021176D02*
X0054331Y0021176D01*
X0053176Y0019978D02*
X0033151Y0019978D01*
X0033332Y0018779D02*
X0052622Y0018779D01*
X0052431Y0017581D02*
X0033512Y0017581D01*
X0033507Y0016382D02*
X0052431Y0016382D01*
X0052431Y0015184D02*
X0033326Y0015184D01*
X0033146Y0013985D02*
X0052431Y0013985D01*
X0052431Y0012787D02*
X0032965Y0012787D01*
X0032613Y0011588D02*
X0052431Y0011588D01*
X0052567Y0010390D02*
X0032035Y0010390D01*
X0031458Y0009191D02*
X0053065Y0009191D01*
X0054099Y0007993D02*
X0030881Y0007993D01*
X0056616Y0015184D02*
X0057384Y0015184D01*
X0057384Y0016382D02*
X0056616Y0016382D01*
X0056616Y0017581D02*
X0057384Y0017581D01*
X0057384Y0018779D02*
X0056616Y0018779D01*
X0056616Y0019978D02*
X0057384Y0019978D01*
X0057384Y0021176D02*
X0056616Y0021176D01*
X0059669Y0021176D02*
X0064797Y0021176D01*
X0064582Y0021087D02*
X0063381Y0019886D01*
X0062731Y0018318D01*
X0062731Y0010682D01*
X0063381Y0009114D01*
X0064582Y0007913D01*
X0066151Y0007263D01*
X0067849Y0007263D01*
X0069418Y0007913D01*
X0070619Y0009114D01*
X0071268Y0010682D01*
X0071268Y0018318D01*
X0070619Y0019886D01*
X0069418Y0021087D01*
X0067849Y0021737D01*
X0066151Y0021737D01*
X0064582Y0021087D01*
X0063473Y0019978D02*
X0060824Y0019978D01*
X0061378Y0018779D02*
X0062923Y0018779D01*
X0062731Y0017581D02*
X0061568Y0017581D01*
X0061568Y0016382D02*
X0062731Y0016382D01*
X0062731Y0015184D02*
X0061568Y0015184D01*
X0061568Y0013985D02*
X0062731Y0013985D01*
X0062731Y0012787D02*
X0061568Y0012787D01*
X0061568Y0011588D02*
X0062731Y0011588D01*
X0062853Y0010390D02*
X0061433Y0010390D01*
X0060935Y0009191D02*
X0063349Y0009191D01*
X0064502Y0007993D02*
X0059901Y0007993D01*
X0069498Y0007993D02*
X0098275Y0007993D01*
X0097457Y0009191D02*
X0070651Y0009191D01*
X0071147Y0010390D02*
X0096861Y0010390D01*
X0096492Y0011588D02*
X0071268Y0011588D01*
X0071268Y0012787D02*
X0096122Y0012787D01*
X0095752Y0013985D02*
X0071268Y0013985D01*
X0071268Y0015184D02*
X0095585Y0015184D01*
X0095585Y0016382D02*
X0071268Y0016382D01*
X0071268Y0017581D02*
X0095585Y0017581D01*
X0095585Y0018779D02*
X0071077Y0018779D01*
X0070527Y0019978D02*
X0095741Y0019978D01*
X0096110Y0021176D02*
X0069203Y0021176D01*
X0067295Y0066500D02*
X0067000Y0066500D01*
X0067000Y0069500D01*
X0070000Y0069500D01*
X0070000Y0069795D01*
X0069885Y0070375D01*
X0069659Y0070921D01*
X0069330Y0071412D01*
X0068912Y0071830D01*
X0068421Y0072159D01*
X0067875Y0072385D01*
X0067295Y0072500D01*
X0067000Y0072500D01*
X0067000Y0069500D01*
X0067000Y0069500D01*
X0067000Y0069500D01*
X0070000Y0069500D01*
X0070000Y0069205D01*
X0069885Y0068625D01*
X0069659Y0068079D01*
X0069330Y0067588D01*
X0068912Y0067170D01*
X0068421Y0066841D01*
X0067875Y0066615D01*
X0067295Y0066500D01*
X0067000Y0066500D02*
X0067000Y0069500D01*
X0067000Y0069500D01*
X0067000Y0069500D01*
X0064000Y0069500D01*
X0064000Y0069795D01*
X0064115Y0070375D01*
X0064341Y0070921D01*
X0064670Y0071412D01*
X0065088Y0071830D01*
X0065579Y0072159D01*
X0066125Y0072385D01*
X0066705Y0072500D01*
X0067000Y0072500D01*
X0067000Y0069500D01*
X0064000Y0069500D01*
X0064000Y0069205D01*
X0064115Y0068625D01*
X0064341Y0068079D01*
X0064670Y0067588D01*
X0065088Y0067170D01*
X0065579Y0066841D01*
X0066125Y0066615D01*
X0066705Y0066500D01*
X0067000Y0066500D01*
X0067000Y0066720D02*
X0067000Y0066720D01*
X0068127Y0066720D02*
X0080873Y0066720D01*
X0081125Y0066615D02*
X0081705Y0066500D01*
X0082000Y0066500D01*
X0082295Y0066500D01*
X0082875Y0066615D01*
X0083421Y0066841D01*
X0083912Y0067170D01*
X0084330Y0067588D01*
X0084659Y0068079D01*
X0084885Y0068625D01*
X0085000Y0069205D01*
X0085000Y0069500D01*
X0085000Y0069795D01*
X0084885Y0070375D01*
X0084659Y0070921D01*
X0084330Y0071412D01*
X0083912Y0071830D01*
X0083421Y0072159D01*
X0082875Y0072385D01*
X0082295Y0072500D01*
X0082000Y0072500D01*
X0082000Y0069500D01*
X0085000Y0069500D01*
X0082000Y0069500D01*
X0082000Y0069500D01*
X0082000Y0069500D01*
X0082000Y0066500D01*
X0082000Y0069500D01*
X0082000Y0069500D01*
X0082000Y0069500D01*
X0079000Y0069500D01*
X0079000Y0069795D01*
X0079115Y0070375D01*
X0079341Y0070921D01*
X0079670Y0071412D01*
X0080088Y0071830D01*
X0080579Y0072159D01*
X0081125Y0072385D01*
X0081705Y0072500D01*
X0082000Y0072500D01*
X0082000Y0069500D01*
X0079000Y0069500D01*
X0079000Y0069205D01*
X0079115Y0068625D01*
X0079341Y0068079D01*
X0079670Y0067588D01*
X0080088Y0067170D01*
X0080579Y0066841D01*
X0081125Y0066615D01*
X0082000Y0066720D02*
X0082000Y0066720D01*
X0083127Y0066720D02*
X0122000Y0066720D01*
X0122000Y0067918D02*
X0084551Y0067918D01*
X0084983Y0069117D02*
X0122000Y0069117D01*
X0122000Y0070315D02*
X0084897Y0070315D01*
X0084229Y0071514D02*
X0122000Y0071514D01*
X0122000Y0072712D02*
X0007000Y0072712D01*
X0007000Y0071514D02*
X0044771Y0071514D01*
X0044670Y0071412D02*
X0044341Y0070921D01*
X0044115Y0070375D01*
X0044000Y0069795D01*
X0044000Y0069500D01*
X0047000Y0069500D01*
X0050000Y0069500D01*
X0050000Y0069795D01*
X0049885Y0070375D01*
X0049659Y0070921D01*
X0049330Y0071412D01*
X0048912Y0071830D01*
X0048421Y0072159D01*
X0047875Y0072385D01*
X0047295Y0072500D01*
X0047000Y0072500D01*
X0047000Y0069500D01*
X0047000Y0069500D01*
X0047000Y0069500D01*
X0050000Y0069500D01*
X0050000Y0069205D01*
X0049885Y0068625D01*
X0049659Y0068079D01*
X0049330Y0067588D01*
X0048912Y0067170D01*
X0048421Y0066841D01*
X0047875Y0066615D01*
X0047295Y0066500D01*
X0047000Y0066500D01*
X0047000Y0069500D01*
X0047000Y0069500D01*
X0047000Y0069500D01*
X0047000Y0072500D01*
X0046705Y0072500D01*
X0046125Y0072385D01*
X0045579Y0072159D01*
X0045088Y0071830D01*
X0044670Y0071412D01*
X0044103Y0070315D02*
X0007000Y0070315D01*
X0007000Y0069117D02*
X0044017Y0069117D01*
X0044000Y0069205D02*
X0044115Y0068625D01*
X0044341Y0068079D01*
X0044670Y0067588D01*
X0045088Y0067170D01*
X0045579Y0066841D01*
X0046125Y0066615D01*
X0046705Y0066500D01*
X0047000Y0066500D01*
X0047000Y0069500D01*
X0044000Y0069500D01*
X0044000Y0069205D01*
X0044449Y0067918D02*
X0007000Y0067918D01*
X0007000Y0066720D02*
X0045873Y0066720D01*
X0047000Y0066720D02*
X0047000Y0066720D01*
X0048127Y0066720D02*
X0065873Y0066720D01*
X0067000Y0067918D02*
X0067000Y0067918D01*
X0067000Y0069117D02*
X0067000Y0069117D01*
X0067000Y0070315D02*
X0067000Y0070315D01*
X0067000Y0071514D02*
X0067000Y0071514D01*
X0064771Y0071514D02*
X0049229Y0071514D01*
X0049897Y0070315D02*
X0064103Y0070315D01*
X0064017Y0069117D02*
X0049983Y0069117D01*
X0049551Y0067918D02*
X0064449Y0067918D01*
X0069551Y0067918D02*
X0079449Y0067918D01*
X0079017Y0069117D02*
X0069983Y0069117D01*
X0069897Y0070315D02*
X0079103Y0070315D01*
X0079771Y0071514D02*
X0069229Y0071514D01*
X0071705Y0086500D02*
X0072000Y0086500D01*
X0072295Y0086500D01*
X0072875Y0086615D01*
X0073421Y0086841D01*
X0073912Y0087170D01*
X0074330Y0087588D01*
X0074659Y0088079D01*
X0074885Y0088625D01*
X0075000Y0089205D01*
X0075000Y0089500D01*
X0075000Y0089795D01*
X0074885Y0090375D01*
X0074659Y0090921D01*
X0074330Y0091412D01*
X0073912Y0091830D01*
X0073421Y0092159D01*
X0072875Y0092385D01*
X0072295Y0092500D01*
X0072000Y0092500D01*
X0072000Y0089500D01*
X0075000Y0089500D01*
X0072000Y0089500D01*
X0072000Y0089500D01*
X0072000Y0089500D01*
X0072000Y0086500D01*
X0072000Y0089500D01*
X0072000Y0089500D01*
X0072000Y0089500D01*
X0069000Y0089500D01*
X0069000Y0089795D01*
X0069115Y0090375D01*
X0069341Y0090921D01*
X0069670Y0091412D01*
X0070088Y0091830D01*
X0070579Y0092159D01*
X0071125Y0092385D01*
X0071705Y0092500D01*
X0072000Y0092500D01*
X0072000Y0089500D01*
X0069000Y0089500D01*
X0069000Y0089205D01*
X0069115Y0088625D01*
X0069341Y0088079D01*
X0069670Y0087588D01*
X0070088Y0087170D01*
X0070579Y0086841D01*
X0071125Y0086615D01*
X0071705Y0086500D01*
X0072000Y0087094D02*
X0072000Y0087094D01*
X0072000Y0088293D02*
X0072000Y0088293D01*
X0072000Y0089491D02*
X0072000Y0089491D01*
X0072000Y0090690D02*
X0072000Y0090690D01*
X0072000Y0091888D02*
X0072000Y0091888D01*
X0070175Y0091888D02*
X0058825Y0091888D01*
X0058912Y0091830D02*
X0058421Y0092159D01*
X0057875Y0092385D01*
X0057295Y0092500D01*
X0057000Y0092500D01*
X0057000Y0089500D01*
X0060000Y0089500D01*
X0060000Y0089795D01*
X0059885Y0090375D01*
X0059659Y0090921D01*
X0059330Y0091412D01*
X0058912Y0091830D01*
X0059754Y0090690D02*
X0069246Y0090690D01*
X0069000Y0089491D02*
X0060000Y0089491D01*
X0060000Y0089500D02*
X0057000Y0089500D01*
X0057000Y0089500D01*
X0057000Y0089500D01*
X0057000Y0086500D01*
X0057295Y0086500D01*
X0057875Y0086615D01*
X0058421Y0086841D01*
X0058912Y0087170D01*
X0059330Y0087588D01*
X0059659Y0088079D01*
X0059885Y0088625D01*
X0060000Y0089205D01*
X0060000Y0089500D01*
X0059747Y0088293D02*
X0069253Y0088293D01*
X0070201Y0087094D02*
X0058799Y0087094D01*
X0057000Y0087094D02*
X0057000Y0087094D01*
X0057000Y0086500D02*
X0057000Y0089500D01*
X0057000Y0089500D01*
X0057000Y0089500D01*
X0054000Y0089500D01*
X0054000Y0089795D01*
X0054115Y0090375D01*
X0054341Y0090921D01*
X0054670Y0091412D01*
X0055088Y0091830D01*
X0055579Y0092159D01*
X0056125Y0092385D01*
X0056705Y0092500D01*
X0057000Y0092500D01*
X0057000Y0089500D01*
X0054000Y0089500D01*
X0054000Y0089205D01*
X0054115Y0088625D01*
X0054341Y0088079D01*
X0054670Y0087588D01*
X0055088Y0087170D01*
X0055579Y0086841D01*
X0056125Y0086615D01*
X0056705Y0086500D01*
X0057000Y0086500D01*
X0057000Y0088293D02*
X0057000Y0088293D01*
X0057000Y0089491D02*
X0057000Y0089491D01*
X0057000Y0090690D02*
X0057000Y0090690D01*
X0057000Y0091888D02*
X0057000Y0091888D01*
X0055175Y0091888D02*
X0007011Y0091888D01*
X0007010Y0090690D02*
X0054246Y0090690D01*
X0054000Y0089491D02*
X0007008Y0089491D01*
X0007006Y0088293D02*
X0054253Y0088293D01*
X0055201Y0087094D02*
X0007004Y0087094D01*
X0007002Y0085896D02*
X0122002Y0085896D01*
X0122004Y0087094D02*
X0073799Y0087094D01*
X0074747Y0088293D02*
X0122006Y0088293D01*
X0122008Y0089491D02*
X0075000Y0089491D01*
X0074754Y0090690D02*
X0122010Y0090690D01*
X0122011Y0091888D02*
X0073825Y0091888D01*
X0082000Y0071514D02*
X0082000Y0071514D01*
X0082000Y0070315D02*
X0082000Y0070315D01*
X0082000Y0069117D02*
X0082000Y0069117D01*
X0082000Y0067918D02*
X0082000Y0067918D01*
X0089205Y0121500D02*
X0088625Y0121615D01*
X0088079Y0121841D01*
X0087588Y0122170D01*
X0087170Y0122588D01*
X0086841Y0123079D01*
X0086615Y0123625D01*
X0086500Y0124205D01*
X0086500Y0124500D01*
X0089500Y0124500D01*
X0092500Y0124500D01*
X0092500Y0124795D01*
X0092385Y0125375D01*
X0092159Y0125921D01*
X0091830Y0126412D01*
X0091412Y0126830D01*
X0090921Y0127159D01*
X0090375Y0127385D01*
X0089795Y0127500D01*
X0089500Y0127500D01*
X0089500Y0124500D01*
X0089500Y0124500D01*
X0089500Y0124500D01*
X0092500Y0124500D01*
X0092500Y0124205D01*
X0092385Y0123625D01*
X0092159Y0123079D01*
X0091830Y0122588D01*
X0091412Y0122170D01*
X0090921Y0121841D01*
X0090375Y0121615D01*
X0089795Y0121500D01*
X0089500Y0121500D01*
X0089500Y0124500D01*
X0089500Y0124500D01*
X0089500Y0124500D01*
X0089500Y0127500D01*
X0089205Y0127500D01*
X0088625Y0127385D01*
X0088079Y0127159D01*
X0087588Y0126830D01*
X0087170Y0126412D01*
X0086841Y0125921D01*
X0086615Y0125375D01*
X0086500Y0124795D01*
X0086500Y0124500D01*
X0089500Y0124500D01*
X0089500Y0121500D01*
X0089205Y0121500D01*
X0089500Y0121851D02*
X0089500Y0121851D01*
X0089500Y0123050D02*
X0089500Y0123050D01*
X0089500Y0124248D02*
X0089500Y0124248D01*
X0089500Y0125447D02*
X0089500Y0125447D01*
X0089500Y0126645D02*
X0089500Y0126645D01*
X0091597Y0126645D02*
X0122065Y0126645D01*
X0122063Y0125447D02*
X0092355Y0125447D01*
X0092500Y0124248D02*
X0122061Y0124248D01*
X0122059Y0123050D02*
X0092139Y0123050D01*
X0090936Y0121851D02*
X0122057Y0121851D01*
X0122056Y0120653D02*
X0007056Y0120653D01*
X0007057Y0121851D02*
X0088064Y0121851D01*
X0086861Y0123050D02*
X0007059Y0123050D01*
X0007061Y0124248D02*
X0086500Y0124248D01*
X0086645Y0125447D02*
X0007063Y0125447D01*
X0007065Y0126645D02*
X0087403Y0126645D01*
X0072537Y0166800D02*
X0071463Y0166800D01*
X0070471Y0167211D01*
X0069711Y0167971D01*
X0069300Y0168963D01*
X0069300Y0170037D01*
X0069711Y0171029D01*
X0070471Y0171789D01*
X0071463Y0172200D01*
X0072537Y0172200D01*
X0073529Y0171789D01*
X0074289Y0171029D01*
X0074700Y0170037D01*
X0074700Y0168963D01*
X0074289Y0167971D01*
X0073529Y0167211D01*
X0072537Y0166800D01*
X0073713Y0167395D02*
X0122128Y0167395D01*
X0122129Y0168593D02*
X0074547Y0168593D01*
X0074700Y0169792D02*
X0122131Y0169792D01*
X0122133Y0170990D02*
X0074305Y0170990D01*
X0072565Y0172189D02*
X0122135Y0172189D01*
X0122137Y0173387D02*
X0007137Y0173387D01*
X0007135Y0172189D02*
X0056435Y0172189D01*
X0056463Y0172200D02*
X0055471Y0171789D01*
X0054711Y0171029D01*
X0054300Y0170037D01*
X0054300Y0168963D01*
X0054711Y0167971D01*
X0055471Y0167211D01*
X0056463Y0166800D01*
X0057537Y0166800D01*
X0058529Y0167211D01*
X0059289Y0167971D01*
X0059700Y0168963D01*
X0059700Y0170037D01*
X0059289Y0171029D01*
X0058529Y0171789D01*
X0057537Y0172200D01*
X0056463Y0172200D01*
X0057565Y0172189D02*
X0071435Y0172189D01*
X0069695Y0170990D02*
X0059305Y0170990D01*
X0059700Y0169792D02*
X0069300Y0169792D01*
X0069453Y0168593D02*
X0059547Y0168593D01*
X0058713Y0167395D02*
X0070287Y0167395D01*
X0078651Y0194763D02*
X0077082Y0195413D01*
X0075881Y0196614D01*
X0075231Y0198182D01*
X0075231Y0205818D01*
X0075881Y0207386D01*
X0077082Y0208587D01*
X0078651Y0209237D01*
X0080349Y0209237D01*
X0081918Y0208587D01*
X0083119Y0207386D01*
X0083768Y0205818D01*
X0083768Y0198182D01*
X0083119Y0196614D01*
X0081918Y0195413D01*
X0080349Y0194763D01*
X0078651Y0194763D01*
X0078175Y0194960D02*
X0050825Y0194960D01*
X0050349Y0194763D02*
X0051918Y0195413D01*
X0053119Y0196614D01*
X0053768Y0198182D01*
X0053768Y0205818D01*
X0053119Y0207386D01*
X0051918Y0208587D01*
X0050349Y0209237D01*
X0048651Y0209237D01*
X0047082Y0208587D01*
X0045881Y0207386D01*
X0045231Y0205818D01*
X0045231Y0198182D01*
X0045881Y0196614D01*
X0047082Y0195413D01*
X0048651Y0194763D01*
X0050349Y0194763D01*
X0052664Y0196159D02*
X0076336Y0196159D01*
X0075573Y0197357D02*
X0053427Y0197357D01*
X0053768Y0198556D02*
X0075231Y0198556D01*
X0075231Y0199754D02*
X0053768Y0199754D01*
X0053768Y0200953D02*
X0075231Y0200953D01*
X0075231Y0202151D02*
X0066520Y0202151D01*
X0066469Y0202101D02*
X0066899Y0202531D01*
X0067237Y0203037D01*
X0067470Y0203599D01*
X0067589Y0204196D01*
X0067589Y0204500D01*
X0067589Y0204804D01*
X0067470Y0205401D01*
X0067237Y0205963D01*
X0066899Y0206469D01*
X0066469Y0206899D01*
X0065963Y0207237D01*
X0065401Y0207470D01*
X0064804Y0207589D01*
X0064500Y0207589D01*
X0064500Y0204500D01*
X0067589Y0204500D01*
X0064500Y0204500D01*
X0064500Y0204500D01*
X0064500Y0204500D01*
X0064500Y0201411D01*
X0064804Y0201411D01*
X0065401Y0201530D01*
X0065963Y0201763D01*
X0066469Y0202101D01*
X0067367Y0203350D02*
X0075231Y0203350D01*
X0075231Y0204548D02*
X0067589Y0204548D01*
X0067327Y0205747D02*
X0075231Y0205747D01*
X0075699Y0206945D02*
X0066400Y0206945D01*
X0064500Y0206945D02*
X0064500Y0206945D01*
X0064500Y0207589D02*
X0064196Y0207589D01*
X0063599Y0207470D01*
X0063037Y0207237D01*
X0062531Y0206899D01*
X0062101Y0206469D01*
X0061763Y0205963D01*
X0061530Y0205401D01*
X0061411Y0204804D01*
X0061411Y0204500D01*
X0064500Y0204500D01*
X0064500Y0204500D01*
X0064500Y0207589D01*
X0064500Y0205747D02*
X0064500Y0205747D01*
X0064500Y0204548D02*
X0064500Y0204548D01*
X0064500Y0204500D02*
X0064500Y0204500D01*
X0064500Y0201411D01*
X0064196Y0201411D01*
X0063599Y0201530D01*
X0063037Y0201763D01*
X0062531Y0202101D01*
X0062101Y0202531D01*
X0061763Y0203037D01*
X0061530Y0203599D01*
X0061411Y0204196D01*
X0061411Y0204500D01*
X0064500Y0204500D01*
X0064500Y0203350D02*
X0064500Y0203350D01*
X0064500Y0202151D02*
X0064500Y0202151D01*
X0062480Y0202151D02*
X0053768Y0202151D01*
X0053768Y0203350D02*
X0061633Y0203350D01*
X0061411Y0204548D02*
X0053768Y0204548D01*
X0053768Y0205747D02*
X0061673Y0205747D01*
X0062600Y0206945D02*
X0053301Y0206945D01*
X0052361Y0208144D02*
X0076639Y0208144D01*
X0082361Y0208144D02*
X0086639Y0208144D01*
X0087082Y0208587D02*
X0085881Y0207386D01*
X0085231Y0205818D01*
X0085231Y0198182D01*
X0085881Y0196614D01*
X0087082Y0195413D01*
X0088651Y0194763D01*
X0090349Y0194763D01*
X0091918Y0195413D01*
X0093119Y0196614D01*
X0093768Y0198182D01*
X0093768Y0205818D01*
X0093119Y0207386D01*
X0091918Y0208587D01*
X0090349Y0209237D01*
X0088651Y0209237D01*
X0087082Y0208587D01*
X0085699Y0206945D02*
X0083301Y0206945D01*
X0083768Y0205747D02*
X0085231Y0205747D01*
X0085231Y0204548D02*
X0083768Y0204548D01*
X0083768Y0203350D02*
X0085231Y0203350D01*
X0085231Y0202151D02*
X0083768Y0202151D01*
X0083768Y0200953D02*
X0085231Y0200953D01*
X0085231Y0199754D02*
X0083768Y0199754D01*
X0083768Y0198556D02*
X0085231Y0198556D01*
X0085573Y0197357D02*
X0083427Y0197357D01*
X0082664Y0196159D02*
X0086336Y0196159D01*
X0088175Y0194960D02*
X0080825Y0194960D01*
X0090825Y0194960D02*
X0098175Y0194960D01*
X0098651Y0194763D02*
X0100349Y0194763D01*
X0101918Y0195413D01*
X0103119Y0196614D01*
X0103768Y0198182D01*
X0103768Y0205818D01*
X0103119Y0207386D01*
X0101918Y0208587D01*
X0100349Y0209237D01*
X0098651Y0209237D01*
X0097082Y0208587D01*
X0095881Y0207386D01*
X0095231Y0205818D01*
X0095231Y0198182D01*
X0095881Y0196614D01*
X0097082Y0195413D01*
X0098651Y0194763D01*
X0100825Y0194960D02*
X0108175Y0194960D01*
X0108651Y0194763D02*
X0107082Y0195413D01*
X0105881Y0196614D01*
X0105231Y0198182D01*
X0105231Y0205818D01*
X0105881Y0207386D01*
X0107082Y0208587D01*
X0108651Y0209237D01*
X0110349Y0209237D01*
X0111918Y0208587D01*
X0113119Y0207386D01*
X0113768Y0205818D01*
X0113768Y0198182D01*
X0113119Y0196614D01*
X0111918Y0195413D01*
X0110349Y0194763D01*
X0108651Y0194763D01*
X0110825Y0194960D02*
X0122170Y0194960D01*
X0122168Y0193762D02*
X0007168Y0193762D01*
X0007170Y0194960D02*
X0018175Y0194960D01*
X0018651Y0194763D02*
X0020349Y0194763D01*
X0021918Y0195413D01*
X0023119Y0196614D01*
X0023768Y0198182D01*
X0023768Y0205818D01*
X0023119Y0207386D01*
X0021918Y0208587D01*
X0020349Y0209237D01*
X0018651Y0209237D01*
X0017082Y0208587D01*
X0015881Y0207386D01*
X0015231Y0205818D01*
X0015231Y0198182D01*
X0015881Y0196614D01*
X0017082Y0195413D01*
X0018651Y0194763D01*
X0020825Y0194960D02*
X0028175Y0194960D01*
X0028651Y0194763D02*
X0027082Y0195413D01*
X0025881Y0196614D01*
X0025231Y0198182D01*
X0025231Y0205818D01*
X0025881Y0207386D01*
X0027082Y0208587D01*
X0028651Y0209237D01*
X0030349Y0209237D01*
X0031918Y0208587D01*
X0033119Y0207386D01*
X0033768Y0205818D01*
X0033768Y0198182D01*
X0033119Y0196614D01*
X0031918Y0195413D01*
X0030349Y0194763D01*
X0028651Y0194763D01*
X0030825Y0194960D02*
X0038175Y0194960D01*
X0038651Y0194763D02*
X0040349Y0194763D01*
X0041918Y0195413D01*
X0043119Y0196614D01*
X0043768Y0198182D01*
X0043768Y0205818D01*
X0043119Y0207386D01*
X0041918Y0208587D01*
X0040349Y0209237D01*
X0038651Y0209237D01*
X0037082Y0208587D01*
X0035881Y0207386D01*
X0035231Y0205818D01*
X0035231Y0198182D01*
X0035881Y0196614D01*
X0037082Y0195413D01*
X0038651Y0194763D01*
X0036336Y0196159D02*
X0032664Y0196159D01*
X0033427Y0197357D02*
X0035573Y0197357D01*
X0035231Y0198556D02*
X0033768Y0198556D01*
X0033768Y0199754D02*
X0035231Y0199754D01*
X0035231Y0200953D02*
X0033768Y0200953D01*
X0033768Y0202151D02*
X0035231Y0202151D01*
X0035231Y0203350D02*
X0033768Y0203350D01*
X0033768Y0204548D02*
X0035231Y0204548D01*
X0035231Y0205747D02*
X0033768Y0205747D01*
X0033301Y0206945D02*
X0035699Y0206945D01*
X0036639Y0208144D02*
X0032361Y0208144D01*
X0026639Y0208144D02*
X0022361Y0208144D01*
X0023301Y0206945D02*
X0025699Y0206945D01*
X0025231Y0205747D02*
X0023768Y0205747D01*
X0023768Y0204548D02*
X0025231Y0204548D01*
X0025231Y0203350D02*
X0023768Y0203350D01*
X0023768Y0202151D02*
X0025231Y0202151D01*
X0025231Y0200953D02*
X0023768Y0200953D01*
X0023768Y0199754D02*
X0025231Y0199754D01*
X0025231Y0198556D02*
X0023768Y0198556D01*
X0023427Y0197357D02*
X0025573Y0197357D01*
X0026336Y0196159D02*
X0022664Y0196159D01*
X0016336Y0196159D02*
X0007172Y0196159D01*
X0007174Y0197357D02*
X0015573Y0197357D01*
X0015231Y0198556D02*
X0007175Y0198556D01*
X0007177Y0199754D02*
X0015231Y0199754D01*
X0015231Y0200953D02*
X0007179Y0200953D01*
X0007181Y0202151D02*
X0015231Y0202151D01*
X0015231Y0203350D02*
X0007183Y0203350D01*
X0007185Y0204548D02*
X0015231Y0204548D01*
X0015231Y0205747D02*
X0007187Y0205747D01*
X0007188Y0206945D02*
X0015699Y0206945D01*
X0016639Y0208144D02*
X0007190Y0208144D01*
X0007192Y0209342D02*
X0122192Y0209342D01*
X0122190Y0208144D02*
X0112361Y0208144D01*
X0113301Y0206945D02*
X0122188Y0206945D01*
X0122187Y0205747D02*
X0113768Y0205747D01*
X0113768Y0204548D02*
X0122185Y0204548D01*
X0122183Y0203350D02*
X0113768Y0203350D01*
X0113768Y0202151D02*
X0122181Y0202151D01*
X0122179Y0200953D02*
X0113768Y0200953D01*
X0113768Y0199754D02*
X0122177Y0199754D01*
X0122175Y0198556D02*
X0113768Y0198556D01*
X0113427Y0197357D02*
X0122174Y0197357D01*
X0122172Y0196159D02*
X0112664Y0196159D01*
X0106336Y0196159D02*
X0102664Y0196159D01*
X0103427Y0197357D02*
X0105573Y0197357D01*
X0105231Y0198556D02*
X0103768Y0198556D01*
X0103768Y0199754D02*
X0105231Y0199754D01*
X0105231Y0200953D02*
X0103768Y0200953D01*
X0103768Y0202151D02*
X0105231Y0202151D01*
X0105231Y0203350D02*
X0103768Y0203350D01*
X0103768Y0204548D02*
X0105231Y0204548D01*
X0105231Y0205747D02*
X0103768Y0205747D01*
X0103301Y0206945D02*
X0105699Y0206945D01*
X0106639Y0208144D02*
X0102361Y0208144D01*
X0096639Y0208144D02*
X0092361Y0208144D01*
X0093301Y0206945D02*
X0095699Y0206945D01*
X0095231Y0205747D02*
X0093768Y0205747D01*
X0093768Y0204548D02*
X0095231Y0204548D01*
X0095231Y0203350D02*
X0093768Y0203350D01*
X0093768Y0202151D02*
X0095231Y0202151D01*
X0095231Y0200953D02*
X0093768Y0200953D01*
X0093768Y0199754D02*
X0095231Y0199754D01*
X0095231Y0198556D02*
X0093768Y0198556D01*
X0093427Y0197357D02*
X0095573Y0197357D01*
X0096336Y0196159D02*
X0092664Y0196159D01*
X0103700Y0222624D02*
X0103700Y0222624D01*
X0108306Y0220816D01*
X0108306Y0220816D01*
X0113241Y0220446D01*
X0118065Y0221547D01*
X0122215Y0223943D01*
X0122000Y0084500D01*
X0007000Y0084500D01*
X0007214Y0223809D01*
X0008700Y0222624D01*
X0013306Y0220816D01*
X0013306Y0220816D01*
X0018241Y0220446D01*
X0023065Y0221547D01*
X0027350Y0224022D01*
X0030716Y0227649D01*
X0032863Y0232107D01*
X0033600Y0237000D01*
X0032863Y0241893D01*
X0030716Y0246351D01*
X0030716Y0246351D01*
X0030716Y0246351D01*
X0030113Y0247000D01*
X0098951Y0247000D01*
X0097044Y0244202D01*
X0095585Y0239474D01*
X0095585Y0234526D01*
X0097044Y0229798D01*
X0097044Y0229798D01*
X0099831Y0225709D01*
X0099831Y0225709D01*
X0099831Y0225709D01*
X0103700Y0222624D01*
X0103949Y0222526D02*
X0024760Y0222526D01*
X0026835Y0223725D02*
X0102320Y0223725D01*
X0100817Y0224923D02*
X0028186Y0224923D01*
X0027350Y0224022D02*
X0027350Y0224022D01*
X0029298Y0226122D02*
X0099550Y0226122D01*
X0098733Y0227320D02*
X0030411Y0227320D01*
X0030716Y0227649D02*
X0030716Y0227649D01*
X0031134Y0228519D02*
X0097916Y0228519D01*
X0097099Y0229717D02*
X0031712Y0229717D01*
X0032289Y0230916D02*
X0096699Y0230916D01*
X0096329Y0232114D02*
X0032864Y0232114D01*
X0032863Y0232107D02*
X0032863Y0232107D01*
X0033044Y0233313D02*
X0095960Y0233313D01*
X0095590Y0234511D02*
X0033225Y0234511D01*
X0033405Y0235710D02*
X0095585Y0235710D01*
X0095585Y0236908D02*
X0033586Y0236908D01*
X0033433Y0238107D02*
X0095585Y0238107D01*
X0095585Y0239305D02*
X0033253Y0239305D01*
X0033072Y0240504D02*
X0095903Y0240504D01*
X0096273Y0241702D02*
X0032891Y0241702D01*
X0032863Y0241893D02*
X0032863Y0241893D01*
X0032377Y0242901D02*
X0096642Y0242901D01*
X0097012Y0244099D02*
X0031800Y0244099D01*
X0031223Y0245298D02*
X0097791Y0245298D01*
X0097044Y0244202D02*
X0097044Y0244202D01*
X0098608Y0246496D02*
X0030581Y0246496D01*
X0023065Y0221547D02*
X0023065Y0221547D01*
X0022101Y0221328D02*
X0107003Y0221328D01*
X0113241Y0220446D02*
X0113241Y0220446D01*
X0117101Y0221328D02*
X0122210Y0221328D01*
X0122212Y0222526D02*
X0119760Y0222526D01*
X0118065Y0221547D02*
X0118065Y0221547D01*
X0121835Y0223725D02*
X0122214Y0223725D01*
X0122209Y0220129D02*
X0007209Y0220129D01*
X0007207Y0218931D02*
X0122207Y0218931D01*
X0122205Y0217732D02*
X0007205Y0217732D01*
X0007203Y0216534D02*
X0122203Y0216534D01*
X0122201Y0215335D02*
X0007201Y0215335D01*
X0007199Y0214137D02*
X0122199Y0214137D01*
X0122198Y0212938D02*
X0007198Y0212938D01*
X0007196Y0211739D02*
X0122196Y0211739D01*
X0122194Y0210541D02*
X0007194Y0210541D01*
X0007210Y0221328D02*
X0012003Y0221328D01*
X0008949Y0222526D02*
X0007212Y0222526D01*
X0007214Y0223725D02*
X0007320Y0223725D01*
X0008700Y0222624D02*
X0008700Y0222624D01*
X0018241Y0220446D02*
X0018241Y0220446D01*
X0007166Y0192563D02*
X0122166Y0192563D01*
X0122164Y0191365D02*
X0007164Y0191365D01*
X0007163Y0190166D02*
X0122163Y0190166D01*
X0122161Y0188968D02*
X0007161Y0188968D01*
X0007159Y0187769D02*
X0122159Y0187769D01*
X0122157Y0186571D02*
X0007157Y0186571D01*
X0007155Y0185372D02*
X0122155Y0185372D01*
X0122153Y0184174D02*
X0007153Y0184174D01*
X0007151Y0182975D02*
X0122152Y0182975D01*
X0122150Y0181777D02*
X0007150Y0181777D01*
X0007148Y0180578D02*
X0122148Y0180578D01*
X0122146Y0179380D02*
X0007146Y0179380D01*
X0007144Y0178181D02*
X0122144Y0178181D01*
X0122142Y0176983D02*
X0007142Y0176983D01*
X0007140Y0175784D02*
X0122140Y0175784D01*
X0122139Y0174586D02*
X0007139Y0174586D01*
X0007133Y0170990D02*
X0054695Y0170990D01*
X0054300Y0169792D02*
X0007131Y0169792D01*
X0007129Y0168593D02*
X0054453Y0168593D01*
X0055287Y0167395D02*
X0007128Y0167395D01*
X0007126Y0166196D02*
X0122126Y0166196D01*
X0122124Y0164998D02*
X0007124Y0164998D01*
X0007122Y0163799D02*
X0122122Y0163799D01*
X0122120Y0162601D02*
X0007120Y0162601D01*
X0007118Y0161402D02*
X0122118Y0161402D01*
X0122116Y0160203D02*
X0007116Y0160203D01*
X0007115Y0159005D02*
X0122115Y0159005D01*
X0122113Y0157806D02*
X0007113Y0157806D01*
X0007111Y0156608D02*
X0122111Y0156608D01*
X0122109Y0155409D02*
X0007109Y0155409D01*
X0007107Y0154211D02*
X0122107Y0154211D01*
X0122105Y0153012D02*
X0007105Y0153012D01*
X0007104Y0151814D02*
X0050071Y0151814D01*
X0050088Y0151830D02*
X0049670Y0151412D01*
X0049341Y0150921D01*
X0049115Y0150375D01*
X0049000Y0149795D01*
X0049000Y0149500D01*
X0052000Y0149500D01*
X0055000Y0149500D01*
X0055000Y0149795D01*
X0054885Y0150375D01*
X0054659Y0150921D01*
X0054330Y0151412D01*
X0053912Y0151830D01*
X0053421Y0152159D01*
X0052875Y0152385D01*
X0052295Y0152500D01*
X0052000Y0152500D01*
X0052000Y0149500D01*
X0052000Y0149500D01*
X0052000Y0149500D01*
X0055000Y0149500D01*
X0055000Y0149205D01*
X0054885Y0148625D01*
X0054659Y0148079D01*
X0054330Y0147588D01*
X0053912Y0147170D01*
X0053421Y0146841D01*
X0052875Y0146615D01*
X0052295Y0146500D01*
X0052000Y0146500D01*
X0052000Y0149500D01*
X0052000Y0149500D01*
X0052000Y0149500D01*
X0052000Y0152500D01*
X0051705Y0152500D01*
X0051125Y0152385D01*
X0050579Y0152159D01*
X0050088Y0151830D01*
X0049215Y0150615D02*
X0007102Y0150615D01*
X0007100Y0149417D02*
X0049000Y0149417D01*
X0049000Y0149500D02*
X0049000Y0149205D01*
X0049115Y0148625D01*
X0049341Y0148079D01*
X0049670Y0147588D01*
X0050088Y0147170D01*
X0050579Y0146841D01*
X0051125Y0146615D01*
X0051705Y0146500D01*
X0052000Y0146500D01*
X0052000Y0149500D01*
X0049000Y0149500D01*
X0049284Y0148218D02*
X0007098Y0148218D01*
X0007096Y0147020D02*
X0050312Y0147020D01*
X0052000Y0147020D02*
X0052000Y0147020D01*
X0052000Y0148218D02*
X0052000Y0148218D01*
X0052000Y0149417D02*
X0052000Y0149417D01*
X0052000Y0150615D02*
X0052000Y0150615D01*
X0052000Y0151814D02*
X0052000Y0151814D01*
X0053929Y0151814D02*
X0122104Y0151814D01*
X0122102Y0150615D02*
X0054785Y0150615D01*
X0055000Y0149417D02*
X0122100Y0149417D01*
X0122098Y0148218D02*
X0054716Y0148218D01*
X0053688Y0147020D02*
X0122096Y0147020D01*
X0122094Y0145821D02*
X0007094Y0145821D01*
X0007092Y0144623D02*
X0122092Y0144623D01*
X0122091Y0143424D02*
X0007091Y0143424D01*
X0007089Y0142226D02*
X0122089Y0142226D01*
X0122087Y0141027D02*
X0007087Y0141027D01*
X0007085Y0139829D02*
X0122085Y0139829D01*
X0122083Y0138630D02*
X0007083Y0138630D01*
X0007081Y0137432D02*
X0122081Y0137432D01*
X0122080Y0136233D02*
X0007080Y0136233D01*
X0007078Y0135035D02*
X0122078Y0135035D01*
X0122076Y0133836D02*
X0007076Y0133836D01*
X0007074Y0132638D02*
X0122074Y0132638D01*
X0122072Y0131439D02*
X0007072Y0131439D01*
X0007070Y0130241D02*
X0122070Y0130241D01*
X0122069Y0129042D02*
X0007069Y0129042D01*
X0007067Y0127844D02*
X0122067Y0127844D01*
X0122054Y0119454D02*
X0007054Y0119454D01*
X0007052Y0118256D02*
X0122052Y0118256D01*
X0122050Y0117057D02*
X0007050Y0117057D01*
X0007048Y0115859D02*
X0026344Y0115859D01*
X0026537Y0115987D02*
X0026031Y0115649D01*
X0025601Y0115219D01*
X0025263Y0114713D01*
X0025030Y0114151D01*
X0024911Y0113554D01*
X0024911Y0113250D01*
X0028000Y0113250D01*
X0031089Y0113250D01*
X0031089Y0113554D01*
X0030970Y0114151D01*
X0030737Y0114713D01*
X0030399Y0115219D01*
X0029969Y0115649D01*
X0029463Y0115987D01*
X0028901Y0116220D01*
X0028304Y0116339D01*
X0028000Y0116339D01*
X0028000Y0113250D01*
X0028000Y0113250D01*
X0028000Y0113250D01*
X0031089Y0113250D01*
X0031089Y0112946D01*
X0030970Y0112349D01*
X0030737Y0111787D01*
X0030399Y0111281D01*
X0029969Y0110851D01*
X0029463Y0110513D01*
X0028901Y0110280D01*
X0028304Y0110161D01*
X0028000Y0110161D01*
X0028000Y0113250D01*
X0028000Y0113250D01*
X0028000Y0113250D01*
X0028000Y0116339D01*
X0027696Y0116339D01*
X0027099Y0116220D01*
X0026537Y0115987D01*
X0028000Y0115859D02*
X0028000Y0115859D01*
X0028000Y0114660D02*
X0028000Y0114660D01*
X0028000Y0113462D02*
X0028000Y0113462D01*
X0028000Y0113250D02*
X0024911Y0113250D01*
X0024911Y0112946D01*
X0025030Y0112349D01*
X0025263Y0111787D01*
X0025601Y0111281D01*
X0026031Y0110851D01*
X0026537Y0110513D01*
X0027099Y0110280D01*
X0027696Y0110161D01*
X0028000Y0110161D01*
X0028000Y0113250D01*
X0028000Y0112263D02*
X0028000Y0112263D01*
X0028000Y0111065D02*
X0028000Y0111065D01*
X0025817Y0111065D02*
X0007041Y0111065D01*
X0007043Y0112263D02*
X0025065Y0112263D01*
X0024911Y0113462D02*
X0007045Y0113462D01*
X0007046Y0114660D02*
X0025241Y0114660D01*
X0029656Y0115859D02*
X0122048Y0115859D01*
X0122046Y0114660D02*
X0030759Y0114660D01*
X0031089Y0113462D02*
X0122045Y0113462D01*
X0122043Y0112263D02*
X0030935Y0112263D01*
X0030183Y0111065D02*
X0122041Y0111065D01*
X0122039Y0109866D02*
X0007039Y0109866D01*
X0007037Y0108668D02*
X0122037Y0108668D01*
X0122035Y0107469D02*
X0007035Y0107469D01*
X0007033Y0106270D02*
X0122034Y0106270D01*
X0122032Y0105072D02*
X0007032Y0105072D01*
X0007030Y0103873D02*
X0122030Y0103873D01*
X0122028Y0102675D02*
X0007028Y0102675D01*
X0007026Y0101476D02*
X0122026Y0101476D01*
X0122024Y0100278D02*
X0007024Y0100278D01*
X0007022Y0099079D02*
X0122022Y0099079D01*
X0122021Y0097881D02*
X0007021Y0097881D01*
X0007019Y0096682D02*
X0122019Y0096682D01*
X0122017Y0095484D02*
X0007017Y0095484D01*
X0007015Y0094285D02*
X0122015Y0094285D01*
X0122013Y0093087D02*
X0007013Y0093087D01*
X0007000Y0084697D02*
X0122000Y0084697D01*
X0122000Y0073911D02*
X0007000Y0073911D01*
X0007000Y0065521D02*
X0122000Y0065521D01*
X0122000Y0064323D02*
X0007000Y0064323D01*
X0007000Y0063124D02*
X0122000Y0063124D01*
X0122000Y0061926D02*
X0007000Y0061926D01*
X0007000Y0060727D02*
X0122000Y0060727D01*
X0122000Y0033161D02*
X0114959Y0033161D01*
X0118913Y0031963D02*
X0122000Y0031963D01*
X0122000Y0030764D02*
X0120989Y0030764D01*
X0047000Y0067918D02*
X0047000Y0067918D01*
X0047000Y0069117D02*
X0047000Y0069117D01*
X0047000Y0070315D02*
X0047000Y0070315D01*
X0047000Y0071514D02*
X0047000Y0071514D01*
X0048175Y0194960D02*
X0040825Y0194960D01*
X0042664Y0196159D02*
X0046336Y0196159D01*
X0045573Y0197357D02*
X0043427Y0197357D01*
X0043768Y0198556D02*
X0045231Y0198556D01*
X0045231Y0199754D02*
X0043768Y0199754D01*
X0043768Y0200953D02*
X0045231Y0200953D01*
X0045231Y0202151D02*
X0043768Y0202151D01*
X0043768Y0203350D02*
X0045231Y0203350D01*
X0045231Y0204548D02*
X0043768Y0204548D01*
X0043768Y0205747D02*
X0045231Y0205747D01*
X0045699Y0206945D02*
X0043301Y0206945D01*
X0042361Y0208144D02*
X0046639Y0208144D01*
D12*
X0057000Y0169500D03*
X0052000Y0149500D03*
X0072000Y0169500D03*
X0089500Y0124500D03*
X0072000Y0089500D03*
X0067000Y0069500D03*
X0057000Y0089500D03*
X0047000Y0069500D03*
X0082000Y0069500D03*
D13*
X0060500Y0038250D03*
X0039500Y0057000D03*
X0028000Y0113250D03*
X0064500Y0204500D03*
M02*
