%
M48
M72
T01C0.01200
T02C0.01378
T03C0.03937
T04C0.12598
%
T01
X47000Y69500
X57000Y89500
X67000Y69500
X72000Y89500
X82000Y69500
X89500Y124500
X72000Y169500
X57000Y169500
X52000Y149500
T02
X28000Y113250
X39500Y57000
X60500Y38250
X64500Y204500
T03
X79500Y202000
X89500Y202000
X99500Y202000
X109500Y202000
X49500Y202000
X39500Y202000
X29500Y202000
X19500Y202000
X14500Y54500
X14500Y44500
X57000Y14500
X67000Y14500
T04
X17000Y17000
X112000Y17000
X112000Y237000
X17000Y237000
M30
