G75*
%MOIN*%
%OFA0B0*%
%FSLAX25Y25*%
%IPPOS*%
%LPD*%
%AMOC8*
5,1,8,0,0,1.08239X$1,22.5*
%
%ADD10R,0.04000X0.04000*%
%ADD11R,0.02362X0.08661*%
%ADD12R,0.03150X0.03543*%
%ADD13R,0.03937X0.05906*%
%ADD14R,0.03937X0.07874*%
%ADD15C,0.08661*%
%ADD16C,0.05937*%
%ADD17C,0.01600*%
%ADD18C,0.02800*%
%ADD19C,0.02978*%
%ADD20C,0.01200*%
%ADD21C,0.02400*%
D10*
X0032000Y0044750D03*
X0032000Y0051750D03*
X0039500Y0051750D03*
X0039500Y0044750D03*
X0053500Y0044500D03*
X0053500Y0050750D03*
X0060500Y0050750D03*
X0060500Y0044500D03*
X0060000Y0032000D03*
X0067000Y0032000D03*
X0069500Y0043500D03*
X0069500Y0050500D03*
X0077000Y0050750D03*
X0077000Y0044500D03*
X0084000Y0044500D03*
X0084000Y0050750D03*
X0058000Y0107000D03*
X0058000Y0113250D03*
X0051000Y0113250D03*
X0051000Y0107000D03*
X0050000Y0124750D03*
X0050000Y0131750D03*
X0044000Y0131750D03*
X0044000Y0124750D03*
X0056000Y0124750D03*
X0056000Y0131750D03*
X0062000Y0131750D03*
X0062000Y0124750D03*
X0070750Y0124750D03*
X0070750Y0131750D03*
X0077000Y0131750D03*
X0077000Y0124750D03*
X0083250Y0124750D03*
X0083250Y0131750D03*
X0099500Y0144750D03*
X0099500Y0151750D03*
X0068250Y0188500D03*
X0068250Y0195500D03*
X0060750Y0195500D03*
X0060750Y0188500D03*
X0029500Y0151750D03*
X0029500Y0144750D03*
X0020500Y0097000D03*
X0020500Y0089500D03*
X0013500Y0089500D03*
X0013500Y0097000D03*
D11*
X0042000Y0141390D03*
X0047000Y0141390D03*
X0052000Y0141390D03*
X0057000Y0141390D03*
X0062000Y0141390D03*
X0067000Y0141390D03*
X0072000Y0141390D03*
X0077000Y0141390D03*
X0082000Y0141390D03*
X0087000Y0141390D03*
X0087000Y0177610D03*
X0082000Y0177610D03*
X0077000Y0177610D03*
X0072000Y0177610D03*
X0067000Y0177610D03*
X0062000Y0177610D03*
X0057000Y0177610D03*
X0052000Y0177610D03*
X0047000Y0177610D03*
X0042000Y0177610D03*
X0047000Y0097610D03*
X0052000Y0097610D03*
X0057000Y0097610D03*
X0062000Y0097610D03*
X0067000Y0097610D03*
X0072000Y0097610D03*
X0077000Y0097610D03*
X0082000Y0097610D03*
X0082000Y0061390D03*
X0077000Y0061390D03*
X0072000Y0061390D03*
X0067000Y0061390D03*
X0062000Y0061390D03*
X0057000Y0061390D03*
X0052000Y0061390D03*
X0047000Y0061390D03*
D12*
X0033240Y0130563D03*
X0029500Y0138831D03*
X0025760Y0130563D03*
X0095760Y0130563D03*
X0099500Y0138831D03*
X0103240Y0130563D03*
D13*
X0026402Y0105201D03*
X0014598Y0105201D03*
D14*
X0020500Y0106201D03*
D15*
X0020500Y0113748D02*
X0020500Y0113748D01*
X0020500Y0119654D01*
X0020500Y0119654D01*
X0020500Y0113748D01*
D16*
X0017469Y0054500D02*
X0011531Y0054500D01*
X0011531Y0044500D02*
X0017469Y0044500D01*
X0057000Y0017469D02*
X0057000Y0011531D01*
X0067000Y0011531D02*
X0067000Y0017469D01*
X0079500Y0199031D02*
X0079500Y0204969D01*
X0089500Y0204969D02*
X0089500Y0199031D01*
X0099500Y0199031D02*
X0099500Y0204969D01*
X0109500Y0204969D02*
X0109500Y0199031D01*
X0049500Y0199031D02*
X0049500Y0204969D01*
X0039500Y0204969D02*
X0039500Y0199031D01*
X0029500Y0199031D02*
X0029500Y0204969D01*
X0019500Y0204969D02*
X0019500Y0199031D01*
D17*
X0019500Y0202000D02*
X0019500Y0189500D01*
X0022000Y0187000D01*
X0039500Y0187000D01*
X0042000Y0184500D01*
X0042000Y0177610D01*
X0042258Y0170750D02*
X0040750Y0170742D01*
X0042258Y0170750D02*
X0045500Y0170750D01*
X0047000Y0172250D01*
X0047000Y0177610D01*
X0047000Y0184500D01*
X0042000Y0189500D01*
X0031750Y0189500D01*
X0029500Y0191750D01*
X0029500Y0202000D01*
X0039500Y0202000D02*
X0039500Y0194500D01*
X0042000Y0192000D01*
X0044500Y0192000D01*
X0052000Y0184500D01*
X0052000Y0177610D01*
X0057000Y0177610D02*
X0057000Y0169500D01*
X0057000Y0177610D02*
X0057000Y0184500D01*
X0049500Y0192000D01*
X0049500Y0202000D01*
X0060750Y0195500D02*
X0064500Y0195500D01*
X0064500Y0204500D01*
X0064500Y0195500D02*
X0068250Y0195500D01*
X0072000Y0184500D02*
X0079500Y0192000D01*
X0079500Y0202000D01*
X0084500Y0192000D02*
X0087000Y0192000D01*
X0089500Y0194500D01*
X0089500Y0202000D01*
X0084500Y0192000D02*
X0077000Y0184500D01*
X0077000Y0177610D01*
X0072000Y0177610D02*
X0072000Y0169500D01*
X0072000Y0177610D02*
X0072000Y0184500D01*
X0082000Y0184500D02*
X0082000Y0177610D01*
X0082000Y0173250D01*
X0084500Y0170750D01*
X0090750Y0170750D01*
X0099500Y0162000D01*
X0099500Y0151750D01*
X0099500Y0144750D02*
X0099500Y0138831D01*
X0099419Y0138750D01*
X0093250Y0138750D01*
X0090610Y0141390D01*
X0087000Y0141390D01*
X0082000Y0135750D02*
X0083250Y0134500D01*
X0083250Y0131750D01*
X0082000Y0135750D02*
X0082000Y0141390D01*
X0077000Y0141390D02*
X0077000Y0131750D01*
X0077000Y0124750D02*
X0083250Y0124750D01*
X0089250Y0124750D01*
X0089500Y0124500D01*
X0082000Y0106250D02*
X0070750Y0117500D01*
X0070750Y0124750D01*
X0070750Y0131750D02*
X0070750Y0134500D01*
X0072000Y0135750D01*
X0072000Y0141390D01*
X0067000Y0141390D02*
X0067000Y0125750D01*
X0066000Y0124750D01*
X0062000Y0124750D01*
X0056000Y0124750D01*
X0050000Y0124750D01*
X0044000Y0124750D01*
X0044000Y0131750D02*
X0050000Y0131750D01*
X0050000Y0134000D01*
X0052000Y0136000D01*
X0052000Y0141390D01*
X0052000Y0149500D01*
X0052000Y0141390D02*
X0057000Y0141390D01*
X0062000Y0141390D02*
X0062000Y0131750D01*
X0058000Y0113250D02*
X0058000Y0107000D01*
X0058000Y0104500D01*
X0057000Y0103500D01*
X0057000Y0097610D01*
X0057000Y0089500D01*
X0052000Y0097610D02*
X0052000Y0103500D01*
X0051000Y0104500D01*
X0051000Y0107000D01*
X0050951Y0106951D01*
X0051000Y0107000D02*
X0051000Y0113250D01*
X0037250Y0138750D02*
X0039890Y0141390D01*
X0042000Y0141390D01*
X0037250Y0138750D02*
X0029581Y0138750D01*
X0029500Y0138831D01*
X0029500Y0144750D01*
X0029500Y0151750D02*
X0029500Y0162000D01*
X0038250Y0170750D01*
X0042258Y0170750D01*
X0072000Y0097610D02*
X0072000Y0089500D01*
X0082000Y0097610D02*
X0082000Y0106250D01*
X0082000Y0069500D02*
X0082000Y0061390D01*
X0082000Y0055750D01*
X0084000Y0053750D01*
X0084000Y0050750D01*
X0084000Y0044500D01*
X0077000Y0044500D02*
X0077000Y0050750D01*
X0077000Y0061390D01*
X0072000Y0061390D02*
X0072000Y0057000D01*
X0069500Y0054500D01*
X0069500Y0050500D01*
X0069500Y0043500D02*
X0069500Y0038250D01*
X0067000Y0035750D01*
X0067000Y0032000D01*
X0067000Y0014500D01*
X0060000Y0032000D02*
X0060000Y0035000D01*
X0060500Y0035500D01*
X0060500Y0038250D01*
X0060500Y0044500D01*
X0060500Y0050750D01*
X0060500Y0055250D01*
X0062000Y0056750D01*
X0062000Y0061390D01*
X0067000Y0061390D01*
X0067000Y0069500D01*
X0053500Y0054750D02*
X0053500Y0050750D01*
X0053500Y0044500D01*
X0053500Y0054750D02*
X0052000Y0056250D01*
X0052000Y0061390D01*
X0047000Y0061390D02*
X0047000Y0069500D01*
X0039500Y0057000D02*
X0039500Y0051750D01*
X0032000Y0051750D01*
X0032000Y0044750D02*
X0039500Y0044750D01*
X0087000Y0177610D02*
X0087000Y0184500D01*
X0089500Y0187000D01*
X0107000Y0187000D01*
X0109500Y0189500D01*
X0109500Y0202000D01*
X0099500Y0202000D02*
X0099500Y0192000D01*
X0097000Y0189500D01*
X0087000Y0189500D01*
X0082000Y0184500D01*
D18*
X0072000Y0169500D03*
X0057000Y0169500D03*
X0052000Y0149500D03*
X0057000Y0089500D03*
X0047000Y0069500D03*
X0067000Y0069500D03*
X0072000Y0089500D03*
X0082000Y0069500D03*
X0089500Y0124500D03*
D19*
X0064500Y0204500D03*
X0028000Y0113250D03*
X0039500Y0057000D03*
X0060500Y0038250D03*
D20*
X0007000Y0043907D02*
X0007000Y0030020D01*
X0008700Y0031376D01*
X0008700Y0031376D01*
X0013306Y0033184D01*
X0013306Y0033184D01*
X0018241Y0033554D01*
X0018241Y0033554D01*
X0023065Y0032452D01*
X0023065Y0032452D01*
X0027350Y0029978D01*
X0027350Y0029978D01*
X0030716Y0026351D01*
X0030716Y0026351D01*
X0032863Y0021893D01*
X0032863Y0021893D01*
X0033600Y0017000D01*
X0032863Y0012107D01*
X0032863Y0012107D01*
X0030716Y0007649D01*
X0030716Y0007649D01*
X0030113Y0007000D01*
X0098951Y0007000D01*
X0097044Y0009798D01*
X0097044Y0009798D01*
X0095585Y0014526D01*
X0095585Y0019474D01*
X0097044Y0024202D01*
X0097044Y0024202D01*
X0099831Y0028291D01*
X0099831Y0028291D01*
X0099831Y0028291D01*
X0103700Y0031376D01*
X0103700Y0031376D01*
X0108306Y0033184D01*
X0108306Y0033184D01*
X0113241Y0033554D01*
X0113241Y0033554D01*
X0118065Y0032452D01*
X0118065Y0032452D01*
X0122000Y0030180D01*
X0122000Y0074500D01*
X0007000Y0074500D01*
X0007000Y0045093D01*
X0007075Y0045570D01*
X0007298Y0046254D01*
X0007624Y0046894D01*
X0008047Y0047476D01*
X0008555Y0047985D01*
X0009137Y0048407D01*
X0009778Y0048734D01*
X0010462Y0048956D01*
X0011172Y0049068D01*
X0014116Y0049068D01*
X0014116Y0044884D01*
X0014884Y0044884D01*
X0014884Y0049068D01*
X0017828Y0049068D01*
X0018538Y0048956D01*
X0019222Y0048734D01*
X0019863Y0048407D01*
X0020445Y0047985D01*
X0020953Y0047476D01*
X0021376Y0046894D01*
X0021702Y0046254D01*
X0021925Y0045570D01*
X0022033Y0044884D01*
X0014884Y0044884D01*
X0014884Y0044116D01*
X0014884Y0039931D01*
X0017828Y0039931D01*
X0018538Y0040044D01*
X0019222Y0040266D01*
X0019863Y0040593D01*
X0020445Y0041015D01*
X0020953Y0041524D01*
X0021376Y0042106D01*
X0021702Y0042746D01*
X0021925Y0043430D01*
X0022033Y0044116D01*
X0014884Y0044116D01*
X0014116Y0044116D01*
X0014116Y0039931D01*
X0011172Y0039931D01*
X0010462Y0040044D01*
X0009778Y0040266D01*
X0009137Y0040593D01*
X0008555Y0041015D01*
X0008047Y0041524D01*
X0007624Y0042106D01*
X0007298Y0042746D01*
X0007075Y0043430D01*
X0007000Y0043907D01*
X0007000Y0042749D02*
X0007297Y0042749D01*
X0007000Y0041551D02*
X0008027Y0041551D01*
X0007000Y0040352D02*
X0009609Y0040352D01*
X0007000Y0039154D02*
X0057856Y0039154D01*
X0057711Y0038805D02*
X0057711Y0037695D01*
X0058136Y0036670D01*
X0058400Y0036406D01*
X0058400Y0036370D01*
X0057900Y0035870D01*
X0057900Y0035300D01*
X0057462Y0035300D01*
X0056700Y0034538D01*
X0056700Y0029462D01*
X0057462Y0028700D01*
X0062538Y0028700D01*
X0063300Y0029462D01*
X0063300Y0034538D01*
X0062600Y0035238D01*
X0062600Y0036406D01*
X0062864Y0036670D01*
X0063289Y0037695D01*
X0063289Y0038805D01*
X0062864Y0039830D01*
X0062600Y0040094D01*
X0062600Y0041200D01*
X0063038Y0041200D01*
X0063800Y0041962D01*
X0063800Y0047038D01*
X0063213Y0047625D01*
X0063800Y0048212D01*
X0063800Y0053288D01*
X0063038Y0054050D01*
X0062600Y0054050D01*
X0062600Y0054380D01*
X0064100Y0055880D01*
X0064100Y0056139D01*
X0064481Y0056521D01*
X0064481Y0059290D01*
X0064519Y0059290D01*
X0064519Y0056521D01*
X0065280Y0055759D01*
X0067789Y0055759D01*
X0067400Y0055370D01*
X0067400Y0053800D01*
X0066962Y0053800D01*
X0066200Y0053038D01*
X0066200Y0047962D01*
X0066962Y0047200D01*
X0072038Y0047200D01*
X0072800Y0047962D01*
X0072800Y0053038D01*
X0072038Y0053800D01*
X0071770Y0053800D01*
X0074100Y0056130D01*
X0074100Y0056139D01*
X0074355Y0056395D01*
X0074539Y0056077D01*
X0074836Y0055779D01*
X0075201Y0055568D01*
X0075608Y0055459D01*
X0077000Y0055459D01*
X0078392Y0055459D01*
X0078799Y0055568D01*
X0079164Y0055779D01*
X0079461Y0056077D01*
X0079645Y0056395D01*
X0079900Y0056139D01*
X0079900Y0054880D01*
X0081096Y0053684D01*
X0080700Y0053288D01*
X0080700Y0048212D01*
X0081287Y0047625D01*
X0080700Y0047038D01*
X0080700Y0041962D01*
X0081462Y0041200D01*
X0086538Y0041200D01*
X0087300Y0041962D01*
X0087300Y0047038D01*
X0086713Y0047625D01*
X0087300Y0048212D01*
X0087300Y0053288D01*
X0086538Y0054050D01*
X0086100Y0054050D01*
X0086100Y0054620D01*
X0084870Y0055850D01*
X0084340Y0056380D01*
X0084481Y0056521D01*
X0084481Y0066259D01*
X0084100Y0066640D01*
X0084100Y0067782D01*
X0084289Y0067971D01*
X0084700Y0068963D01*
X0084700Y0070037D01*
X0084289Y0071029D01*
X0083529Y0071789D01*
X0082537Y0072200D01*
X0081463Y0072200D01*
X0080471Y0071789D01*
X0079711Y0071029D01*
X0079300Y0070037D01*
X0079300Y0068963D01*
X0079711Y0067971D01*
X0079900Y0067782D01*
X0079900Y0066640D01*
X0079645Y0066385D01*
X0079461Y0066703D01*
X0079164Y0067001D01*
X0078799Y0067211D01*
X0078392Y0067320D01*
X0077000Y0067320D01*
X0075608Y0067320D01*
X0075201Y0067211D01*
X0074836Y0067001D01*
X0074539Y0066703D01*
X0074355Y0066385D01*
X0073720Y0067020D01*
X0070280Y0067020D01*
X0069519Y0066259D01*
X0069519Y0057489D01*
X0069481Y0057451D01*
X0069481Y0066259D01*
X0069100Y0066640D01*
X0069100Y0067782D01*
X0069289Y0067971D01*
X0069700Y0068963D01*
X0069700Y0070037D01*
X0069289Y0071029D01*
X0068529Y0071789D01*
X0067537Y0072200D01*
X0066463Y0072200D01*
X0065471Y0071789D01*
X0064711Y0071029D01*
X0064300Y0070037D01*
X0064300Y0068963D01*
X0064711Y0067971D01*
X0064900Y0067782D01*
X0064900Y0066640D01*
X0064519Y0066259D01*
X0064519Y0063490D01*
X0064481Y0063490D01*
X0064481Y0066259D01*
X0063720Y0067020D01*
X0060280Y0067020D01*
X0059519Y0066259D01*
X0059519Y0057239D01*
X0059481Y0057201D01*
X0059481Y0066259D01*
X0058720Y0067020D01*
X0055280Y0067020D01*
X0054645Y0066385D01*
X0054461Y0066703D01*
X0054164Y0067001D01*
X0053799Y0067211D01*
X0053392Y0067320D01*
X0052000Y0067320D01*
X0050608Y0067320D01*
X0050201Y0067211D01*
X0049836Y0067001D01*
X0049539Y0066703D01*
X0049355Y0066385D01*
X0049100Y0066640D01*
X0049100Y0067782D01*
X0049289Y0067971D01*
X0049700Y0068963D01*
X0049700Y0070037D01*
X0049289Y0071029D01*
X0048529Y0071789D01*
X0047537Y0072200D01*
X0046463Y0072200D01*
X0045471Y0071789D01*
X0044711Y0071029D01*
X0044300Y0070037D01*
X0044300Y0068963D01*
X0044711Y0067971D01*
X0044900Y0067782D01*
X0044900Y0066640D01*
X0044519Y0066259D01*
X0044519Y0056521D01*
X0045280Y0055759D01*
X0048720Y0055759D01*
X0049355Y0056395D01*
X0049539Y0056077D01*
X0049836Y0055779D01*
X0050201Y0055568D01*
X0050608Y0055459D01*
X0052000Y0055459D01*
X0053392Y0055459D01*
X0053799Y0055568D01*
X0054164Y0055779D01*
X0054461Y0056077D01*
X0054645Y0056395D01*
X0055280Y0055759D01*
X0058400Y0055759D01*
X0058400Y0054050D01*
X0057962Y0054050D01*
X0057200Y0053288D01*
X0057200Y0048212D01*
X0057787Y0047625D01*
X0057200Y0047038D01*
X0057200Y0041962D01*
X0057962Y0041200D01*
X0058400Y0041200D01*
X0058400Y0040094D01*
X0058136Y0039830D01*
X0057711Y0038805D01*
X0057711Y0037955D02*
X0007000Y0037955D01*
X0007000Y0036757D02*
X0058100Y0036757D01*
X0057900Y0035558D02*
X0007000Y0035558D01*
X0007000Y0034360D02*
X0056700Y0034360D01*
X0056700Y0033161D02*
X0019959Y0033161D01*
X0019391Y0040352D02*
X0058400Y0040352D01*
X0057611Y0041551D02*
X0056800Y0041551D01*
X0056780Y0041518D02*
X0056991Y0041882D01*
X0057100Y0042289D01*
X0057100Y0044100D01*
X0053900Y0044100D01*
X0053900Y0044900D01*
X0057100Y0044900D01*
X0057100Y0046711D01*
X0056991Y0047118D01*
X0056780Y0047482D01*
X0056638Y0047625D01*
X0056780Y0047768D01*
X0056991Y0048132D01*
X0057100Y0048539D01*
X0057100Y0050350D01*
X0053900Y0050350D01*
X0053900Y0051150D01*
X0053100Y0051150D01*
X0053100Y0054350D01*
X0051289Y0054350D01*
X0050882Y0054241D01*
X0050518Y0054030D01*
X0050220Y0053732D01*
X0050009Y0053368D01*
X0049900Y0052961D01*
X0049900Y0051150D01*
X0053100Y0051150D01*
X0053100Y0050350D01*
X0049900Y0050350D01*
X0049900Y0048539D01*
X0050009Y0048132D01*
X0050220Y0047768D01*
X0050362Y0047625D01*
X0050220Y0047482D01*
X0050009Y0047118D01*
X0049900Y0046711D01*
X0049900Y0044900D01*
X0053100Y0044900D01*
X0053100Y0048100D01*
X0053100Y0050350D01*
X0053900Y0050350D01*
X0053900Y0044900D01*
X0053100Y0044900D01*
X0053100Y0044100D01*
X0049900Y0044100D01*
X0049900Y0042289D01*
X0050009Y0041882D01*
X0050220Y0041518D01*
X0050518Y0041220D01*
X0050882Y0041009D01*
X0051289Y0040900D01*
X0053100Y0040900D01*
X0053100Y0044100D01*
X0053900Y0044100D01*
X0053900Y0040900D01*
X0055711Y0040900D01*
X0056118Y0041009D01*
X0056482Y0041220D01*
X0056780Y0041518D01*
X0057100Y0042749D02*
X0057200Y0042749D01*
X0057200Y0043948D02*
X0057100Y0043948D01*
X0057100Y0045146D02*
X0057200Y0045146D01*
X0057200Y0046345D02*
X0057100Y0046345D01*
X0056719Y0047543D02*
X0057705Y0047543D01*
X0057200Y0048742D02*
X0057100Y0048742D01*
X0057100Y0049940D02*
X0057200Y0049940D01*
X0057200Y0051139D02*
X0053900Y0051139D01*
X0053900Y0051150D02*
X0057100Y0051150D01*
X0057100Y0052961D01*
X0056991Y0053368D01*
X0056780Y0053732D01*
X0056482Y0054030D01*
X0056118Y0054241D01*
X0055711Y0054350D01*
X0053900Y0054350D01*
X0053900Y0051150D01*
X0053100Y0051139D02*
X0042800Y0051139D01*
X0042800Y0052337D02*
X0049900Y0052337D01*
X0050106Y0053536D02*
X0042800Y0053536D01*
X0042800Y0054288D02*
X0042038Y0055050D01*
X0041600Y0055050D01*
X0041600Y0055156D01*
X0041864Y0055420D01*
X0042289Y0056445D01*
X0042289Y0057555D01*
X0041864Y0058580D01*
X0041080Y0059364D01*
X0040055Y0059789D01*
X0038945Y0059789D01*
X0037920Y0059364D01*
X0037136Y0058580D01*
X0036711Y0057555D01*
X0036711Y0056445D01*
X0037136Y0055420D01*
X0037400Y0055156D01*
X0037400Y0055050D01*
X0036962Y0055050D01*
X0036200Y0054288D01*
X0036200Y0053850D01*
X0035300Y0053850D01*
X0035300Y0054288D01*
X0034538Y0055050D01*
X0029462Y0055050D01*
X0028700Y0054288D01*
X0028700Y0049212D01*
X0029462Y0048450D01*
X0034538Y0048450D01*
X0035300Y0049212D01*
X0035300Y0049650D01*
X0036200Y0049650D01*
X0036200Y0049212D01*
X0036962Y0048450D01*
X0042038Y0048450D01*
X0042800Y0049212D01*
X0042800Y0054288D01*
X0042354Y0054734D02*
X0058400Y0054734D01*
X0057448Y0053536D02*
X0056894Y0053536D01*
X0057100Y0052337D02*
X0057200Y0052337D01*
X0055106Y0055933D02*
X0054318Y0055933D01*
X0053900Y0053536D02*
X0053100Y0053536D01*
X0053100Y0052337D02*
X0053900Y0052337D01*
X0053900Y0049940D02*
X0053100Y0049940D01*
X0053100Y0048742D02*
X0053900Y0048742D01*
X0053900Y0047543D02*
X0053100Y0047543D01*
X0053100Y0046345D02*
X0053900Y0046345D01*
X0053900Y0045146D02*
X0053100Y0045146D01*
X0053100Y0043948D02*
X0053900Y0043948D01*
X0053900Y0042749D02*
X0053100Y0042749D01*
X0053100Y0041551D02*
X0053900Y0041551D01*
X0050200Y0041551D02*
X0042564Y0041551D01*
X0042482Y0041470D02*
X0042780Y0041768D01*
X0042991Y0042132D01*
X0043100Y0042539D01*
X0043100Y0044350D01*
X0039900Y0044350D01*
X0039900Y0045150D01*
X0039100Y0045150D01*
X0039100Y0048350D01*
X0037289Y0048350D01*
X0036882Y0048241D01*
X0036518Y0048030D01*
X0036220Y0047732D01*
X0036009Y0047368D01*
X0035900Y0046961D01*
X0035900Y0045150D01*
X0039100Y0045150D01*
X0039100Y0044350D01*
X0039900Y0044350D01*
X0039900Y0041150D01*
X0041711Y0041150D01*
X0042118Y0041259D01*
X0042482Y0041470D01*
X0043100Y0042749D02*
X0049900Y0042749D01*
X0049900Y0043948D02*
X0043100Y0043948D01*
X0043100Y0045150D02*
X0043100Y0046961D01*
X0042991Y0047368D01*
X0042780Y0047732D01*
X0042482Y0048030D01*
X0042118Y0048241D01*
X0041711Y0048350D01*
X0039900Y0048350D01*
X0039900Y0045150D01*
X0043100Y0045150D01*
X0043100Y0046345D02*
X0049900Y0046345D01*
X0049900Y0045146D02*
X0039900Y0045146D01*
X0039100Y0045146D02*
X0032400Y0045146D01*
X0032400Y0045150D02*
X0035600Y0045150D01*
X0035600Y0046961D01*
X0035491Y0047368D01*
X0035280Y0047732D01*
X0034982Y0048030D01*
X0034618Y0048241D01*
X0034211Y0048350D01*
X0032400Y0048350D01*
X0032400Y0045150D01*
X0031600Y0045150D01*
X0031600Y0048350D01*
X0029789Y0048350D01*
X0029382Y0048241D01*
X0029018Y0048030D01*
X0028720Y0047732D01*
X0028509Y0047368D01*
X0028400Y0046961D01*
X0028400Y0045150D01*
X0031600Y0045150D01*
X0031600Y0044350D01*
X0032400Y0044350D01*
X0032400Y0045150D01*
X0032400Y0044350D02*
X0035600Y0044350D01*
X0035600Y0042539D01*
X0035491Y0042132D01*
X0035280Y0041768D01*
X0034982Y0041470D01*
X0034618Y0041259D01*
X0034211Y0041150D01*
X0032400Y0041150D01*
X0032400Y0044350D01*
X0032400Y0043948D02*
X0031600Y0043948D01*
X0031600Y0044350D02*
X0031600Y0041150D01*
X0029789Y0041150D01*
X0029382Y0041259D01*
X0029018Y0041470D01*
X0028720Y0041768D01*
X0028509Y0042132D01*
X0028400Y0042539D01*
X0028400Y0044350D01*
X0031600Y0044350D01*
X0031600Y0045146D02*
X0021992Y0045146D01*
X0022006Y0043948D02*
X0028400Y0043948D01*
X0028400Y0042749D02*
X0021703Y0042749D01*
X0020973Y0041551D02*
X0028936Y0041551D01*
X0031600Y0041551D02*
X0032400Y0041551D01*
X0032400Y0042749D02*
X0031600Y0042749D01*
X0031600Y0046345D02*
X0032400Y0046345D01*
X0032400Y0047543D02*
X0031600Y0047543D01*
X0029170Y0048742D02*
X0019197Y0048742D01*
X0018318Y0050231D02*
X0019886Y0050881D01*
X0021087Y0052082D01*
X0021737Y0053651D01*
X0021737Y0055349D01*
X0021087Y0056918D01*
X0019886Y0058119D01*
X0018318Y0058768D01*
X0010682Y0058768D01*
X0009114Y0058119D01*
X0007913Y0056918D01*
X0007263Y0055349D01*
X0007263Y0053651D01*
X0007913Y0052082D01*
X0009114Y0050881D01*
X0010682Y0050231D01*
X0018318Y0050231D01*
X0020144Y0051139D02*
X0028700Y0051139D01*
X0028700Y0052337D02*
X0021193Y0052337D01*
X0021689Y0053536D02*
X0028700Y0053536D01*
X0029146Y0054734D02*
X0021737Y0054734D01*
X0021495Y0055933D02*
X0036923Y0055933D01*
X0036711Y0057132D02*
X0020874Y0057132D01*
X0019376Y0058330D02*
X0037032Y0058330D01*
X0038317Y0059529D02*
X0007000Y0059529D01*
X0007000Y0060727D02*
X0044519Y0060727D01*
X0044519Y0059529D02*
X0040683Y0059529D01*
X0041968Y0058330D02*
X0044519Y0058330D01*
X0044519Y0057132D02*
X0042289Y0057132D01*
X0042077Y0055933D02*
X0045106Y0055933D01*
X0044519Y0061926D02*
X0007000Y0061926D01*
X0007000Y0063124D02*
X0044519Y0063124D01*
X0044519Y0064323D02*
X0007000Y0064323D01*
X0007000Y0065521D02*
X0044519Y0065521D01*
X0044900Y0066720D02*
X0007000Y0066720D01*
X0007000Y0067918D02*
X0044763Y0067918D01*
X0044300Y0069117D02*
X0007000Y0069117D01*
X0007000Y0070315D02*
X0044415Y0070315D01*
X0045195Y0071514D02*
X0007000Y0071514D01*
X0007000Y0072712D02*
X0122000Y0072712D01*
X0122000Y0071514D02*
X0083805Y0071514D01*
X0084585Y0070315D02*
X0122000Y0070315D01*
X0122000Y0069117D02*
X0084700Y0069117D01*
X0084236Y0067918D02*
X0122000Y0067918D01*
X0122000Y0066720D02*
X0084100Y0066720D01*
X0084481Y0065521D02*
X0122000Y0065521D01*
X0122000Y0064323D02*
X0084481Y0064323D01*
X0084481Y0063124D02*
X0122000Y0063124D01*
X0122000Y0061926D02*
X0084481Y0061926D01*
X0084481Y0060727D02*
X0122000Y0060727D01*
X0122000Y0059529D02*
X0084481Y0059529D01*
X0084481Y0058330D02*
X0122000Y0058330D01*
X0122000Y0057132D02*
X0084481Y0057132D01*
X0084787Y0055933D02*
X0122000Y0055933D01*
X0122000Y0054734D02*
X0085985Y0054734D01*
X0087052Y0053536D02*
X0122000Y0053536D01*
X0122000Y0052337D02*
X0087300Y0052337D01*
X0087300Y0051139D02*
X0122000Y0051139D01*
X0122000Y0049940D02*
X0087300Y0049940D01*
X0087300Y0048742D02*
X0122000Y0048742D01*
X0122000Y0047543D02*
X0086795Y0047543D01*
X0087300Y0046345D02*
X0122000Y0046345D01*
X0122000Y0045146D02*
X0087300Y0045146D01*
X0087300Y0043948D02*
X0122000Y0043948D01*
X0122000Y0042749D02*
X0087300Y0042749D01*
X0086889Y0041551D02*
X0122000Y0041551D01*
X0122000Y0040352D02*
X0072191Y0040352D01*
X0072038Y0040200D02*
X0072800Y0040962D01*
X0072800Y0046038D01*
X0072038Y0046800D01*
X0066962Y0046800D01*
X0066200Y0046038D01*
X0066200Y0040962D01*
X0066962Y0040200D01*
X0067400Y0040200D01*
X0067400Y0039120D01*
X0064900Y0036620D01*
X0064900Y0035300D01*
X0064462Y0035300D01*
X0063700Y0034538D01*
X0063700Y0029462D01*
X0064462Y0028700D01*
X0064900Y0028700D01*
X0064900Y0021219D01*
X0064582Y0021087D01*
X0063381Y0019886D01*
X0062731Y0018318D01*
X0062731Y0010682D01*
X0063381Y0009114D01*
X0064582Y0007913D01*
X0066151Y0007263D01*
X0067849Y0007263D01*
X0069418Y0007913D01*
X0070619Y0009114D01*
X0071268Y0010682D01*
X0071268Y0018318D01*
X0070619Y0019886D01*
X0069418Y0021087D01*
X0069100Y0021219D01*
X0069100Y0028700D01*
X0069538Y0028700D01*
X0070300Y0029462D01*
X0070300Y0034538D01*
X0069538Y0035300D01*
X0069520Y0035300D01*
X0070370Y0036150D01*
X0071600Y0037380D01*
X0071600Y0040200D01*
X0072038Y0040200D01*
X0071600Y0039154D02*
X0122000Y0039154D01*
X0122000Y0037955D02*
X0071600Y0037955D01*
X0070977Y0036757D02*
X0122000Y0036757D01*
X0122000Y0035558D02*
X0069778Y0035558D01*
X0070300Y0034360D02*
X0122000Y0034360D01*
X0122000Y0033161D02*
X0114959Y0033161D01*
X0118913Y0031963D02*
X0122000Y0031963D01*
X0122000Y0030764D02*
X0120989Y0030764D01*
X0108249Y0033161D02*
X0070300Y0033161D01*
X0070300Y0031963D02*
X0105195Y0031963D01*
X0102933Y0030764D02*
X0070300Y0030764D01*
X0070300Y0029566D02*
X0101430Y0029566D01*
X0099927Y0028367D02*
X0069100Y0028367D01*
X0069100Y0027169D02*
X0099066Y0027169D01*
X0098249Y0025970D02*
X0069100Y0025970D01*
X0069100Y0024772D02*
X0097432Y0024772D01*
X0096850Y0023573D02*
X0069100Y0023573D01*
X0069100Y0022375D02*
X0096480Y0022375D01*
X0096110Y0021176D02*
X0069203Y0021176D01*
X0070527Y0019978D02*
X0095741Y0019978D01*
X0095585Y0018779D02*
X0071077Y0018779D01*
X0071268Y0017581D02*
X0095585Y0017581D01*
X0095585Y0016382D02*
X0071268Y0016382D01*
X0071268Y0015184D02*
X0095585Y0015184D01*
X0095752Y0013985D02*
X0071268Y0013985D01*
X0071268Y0012787D02*
X0096122Y0012787D01*
X0096492Y0011588D02*
X0071268Y0011588D01*
X0071147Y0010390D02*
X0096861Y0010390D01*
X0097457Y0009191D02*
X0070651Y0009191D01*
X0069498Y0007993D02*
X0098275Y0007993D01*
X0081111Y0041551D02*
X0080300Y0041551D01*
X0080280Y0041518D02*
X0080491Y0041882D01*
X0080600Y0042289D01*
X0080600Y0044100D01*
X0077400Y0044100D01*
X0077400Y0044900D01*
X0080600Y0044900D01*
X0080600Y0046711D01*
X0080491Y0047118D01*
X0080280Y0047482D01*
X0080138Y0047625D01*
X0080280Y0047768D01*
X0080491Y0048132D01*
X0080600Y0048539D01*
X0080600Y0050350D01*
X0077400Y0050350D01*
X0077400Y0051150D01*
X0080600Y0051150D01*
X0080600Y0052961D01*
X0080491Y0053368D01*
X0080280Y0053732D01*
X0079982Y0054030D01*
X0079618Y0054241D01*
X0079211Y0054350D01*
X0077400Y0054350D01*
X0077400Y0051150D01*
X0076600Y0051150D01*
X0076600Y0054350D01*
X0074789Y0054350D01*
X0074382Y0054241D01*
X0074018Y0054030D01*
X0073720Y0053732D01*
X0073509Y0053368D01*
X0073400Y0052961D01*
X0073400Y0051150D01*
X0076600Y0051150D01*
X0076600Y0050350D01*
X0073400Y0050350D01*
X0073400Y0048539D01*
X0073509Y0048132D01*
X0073720Y0047768D01*
X0073862Y0047625D01*
X0073720Y0047482D01*
X0073509Y0047118D01*
X0073400Y0046711D01*
X0073400Y0044900D01*
X0076600Y0044900D01*
X0076600Y0050350D01*
X0077400Y0050350D01*
X0077400Y0047150D01*
X0077400Y0044900D01*
X0076600Y0044900D01*
X0076600Y0044100D01*
X0077400Y0044100D01*
X0077400Y0040900D01*
X0079211Y0040900D01*
X0079618Y0041009D01*
X0079982Y0041220D01*
X0080280Y0041518D01*
X0080600Y0042749D02*
X0080700Y0042749D01*
X0080700Y0043948D02*
X0080600Y0043948D01*
X0080600Y0045146D02*
X0080700Y0045146D01*
X0080700Y0046345D02*
X0080600Y0046345D01*
X0080219Y0047543D02*
X0081205Y0047543D01*
X0080700Y0048742D02*
X0080600Y0048742D01*
X0080600Y0049940D02*
X0080700Y0049940D01*
X0080700Y0051139D02*
X0077400Y0051139D01*
X0076600Y0051139D02*
X0072800Y0051139D01*
X0072800Y0052337D02*
X0073400Y0052337D01*
X0073606Y0053536D02*
X0072302Y0053536D01*
X0072704Y0054734D02*
X0080046Y0054734D01*
X0079900Y0055933D02*
X0079318Y0055933D01*
X0080394Y0053536D02*
X0080948Y0053536D01*
X0080700Y0052337D02*
X0080600Y0052337D01*
X0077400Y0052337D02*
X0076600Y0052337D01*
X0076600Y0053536D02*
X0077400Y0053536D01*
X0077000Y0055459D02*
X0077000Y0061390D01*
X0077000Y0061390D01*
X0077000Y0067320D01*
X0077000Y0061390D01*
X0077000Y0061390D01*
X0077000Y0055459D01*
X0077000Y0055933D02*
X0077000Y0055933D01*
X0077000Y0057132D02*
X0077000Y0057132D01*
X0077000Y0058330D02*
X0077000Y0058330D01*
X0077000Y0059529D02*
X0077000Y0059529D01*
X0077000Y0060727D02*
X0077000Y0060727D01*
X0077000Y0061926D02*
X0077000Y0061926D01*
X0077000Y0063124D02*
X0077000Y0063124D01*
X0077000Y0064323D02*
X0077000Y0064323D01*
X0077000Y0065521D02*
X0077000Y0065521D01*
X0077000Y0066720D02*
X0077000Y0066720D01*
X0079445Y0066720D02*
X0079900Y0066720D01*
X0079763Y0067918D02*
X0069236Y0067918D01*
X0069100Y0066720D02*
X0069980Y0066720D01*
X0069519Y0065521D02*
X0069481Y0065521D01*
X0069481Y0064323D02*
X0069519Y0064323D01*
X0069481Y0063124D02*
X0069519Y0063124D01*
X0069481Y0061926D02*
X0069519Y0061926D01*
X0069481Y0060727D02*
X0069519Y0060727D01*
X0069481Y0059529D02*
X0069519Y0059529D01*
X0069481Y0058330D02*
X0069519Y0058330D01*
X0067400Y0054734D02*
X0062954Y0054734D01*
X0063552Y0053536D02*
X0066698Y0053536D01*
X0066200Y0052337D02*
X0063800Y0052337D01*
X0063800Y0051139D02*
X0066200Y0051139D01*
X0066200Y0049940D02*
X0063800Y0049940D01*
X0063800Y0048742D02*
X0066200Y0048742D01*
X0066618Y0047543D02*
X0063295Y0047543D01*
X0063800Y0046345D02*
X0066506Y0046345D01*
X0066200Y0045146D02*
X0063800Y0045146D01*
X0063800Y0043948D02*
X0066200Y0043948D01*
X0066200Y0042749D02*
X0063800Y0042749D01*
X0063389Y0041551D02*
X0066200Y0041551D01*
X0066809Y0040352D02*
X0062600Y0040352D01*
X0063144Y0039154D02*
X0067400Y0039154D01*
X0066235Y0037955D02*
X0063289Y0037955D01*
X0062900Y0036757D02*
X0065037Y0036757D01*
X0064900Y0035558D02*
X0062600Y0035558D01*
X0063300Y0034360D02*
X0063700Y0034360D01*
X0063700Y0033161D02*
X0063300Y0033161D01*
X0063300Y0031963D02*
X0063700Y0031963D01*
X0063700Y0030764D02*
X0063300Y0030764D01*
X0063300Y0029566D02*
X0063700Y0029566D01*
X0064900Y0028367D02*
X0028845Y0028367D01*
X0029957Y0027169D02*
X0064900Y0027169D01*
X0064900Y0025970D02*
X0030899Y0025970D01*
X0031476Y0024772D02*
X0064900Y0024772D01*
X0064900Y0023573D02*
X0032053Y0023573D01*
X0032630Y0022375D02*
X0064900Y0022375D01*
X0064797Y0021176D02*
X0059203Y0021176D01*
X0059418Y0021087D02*
X0060619Y0019886D01*
X0061268Y0018318D01*
X0061268Y0010682D01*
X0060619Y0009114D01*
X0059418Y0007913D01*
X0057849Y0007263D01*
X0056151Y0007263D01*
X0054582Y0007913D01*
X0053381Y0009114D01*
X0052731Y0010682D01*
X0052731Y0018318D01*
X0053381Y0019886D01*
X0054582Y0021087D01*
X0056151Y0021737D01*
X0057849Y0021737D01*
X0059418Y0021087D01*
X0060527Y0019978D02*
X0063473Y0019978D01*
X0062923Y0018779D02*
X0061077Y0018779D01*
X0061268Y0017581D02*
X0062731Y0017581D01*
X0062731Y0016382D02*
X0061268Y0016382D01*
X0061268Y0015184D02*
X0062731Y0015184D01*
X0062731Y0013985D02*
X0061268Y0013985D01*
X0061268Y0012787D02*
X0062731Y0012787D01*
X0062731Y0011588D02*
X0061268Y0011588D01*
X0061147Y0010390D02*
X0062853Y0010390D01*
X0063349Y0009191D02*
X0060651Y0009191D01*
X0059498Y0007993D02*
X0064502Y0007993D01*
X0054502Y0007993D02*
X0030881Y0007993D01*
X0031458Y0009191D02*
X0053349Y0009191D01*
X0052853Y0010390D02*
X0032035Y0010390D01*
X0032613Y0011588D02*
X0052731Y0011588D01*
X0052731Y0012787D02*
X0032965Y0012787D01*
X0033146Y0013985D02*
X0052731Y0013985D01*
X0052731Y0015184D02*
X0033326Y0015184D01*
X0033507Y0016382D02*
X0052731Y0016382D01*
X0052731Y0017581D02*
X0033512Y0017581D01*
X0033332Y0018779D02*
X0052923Y0018779D01*
X0053473Y0019978D02*
X0033151Y0019978D01*
X0032971Y0021176D02*
X0054797Y0021176D01*
X0056700Y0029566D02*
X0027733Y0029566D01*
X0025989Y0030764D02*
X0056700Y0030764D01*
X0056700Y0031963D02*
X0023913Y0031963D01*
X0021656Y0046345D02*
X0028400Y0046345D01*
X0028611Y0047543D02*
X0020886Y0047543D01*
X0014884Y0047543D02*
X0014116Y0047543D01*
X0014116Y0046345D02*
X0014884Y0046345D01*
X0014884Y0045146D02*
X0014116Y0045146D01*
X0014116Y0043948D02*
X0014884Y0043948D01*
X0014884Y0042749D02*
X0014116Y0042749D01*
X0014116Y0041551D02*
X0014884Y0041551D01*
X0014884Y0040352D02*
X0014116Y0040352D01*
X0013249Y0033161D02*
X0007000Y0033161D01*
X0007000Y0031963D02*
X0010195Y0031963D01*
X0007933Y0030764D02*
X0007000Y0030764D01*
X0007000Y0045146D02*
X0007008Y0045146D01*
X0007000Y0046345D02*
X0007344Y0046345D01*
X0007000Y0047543D02*
X0008114Y0047543D01*
X0007000Y0048742D02*
X0009803Y0048742D01*
X0008856Y0051139D02*
X0007000Y0051139D01*
X0007000Y0052337D02*
X0007807Y0052337D01*
X0007311Y0053536D02*
X0007000Y0053536D01*
X0007000Y0054734D02*
X0007263Y0054734D01*
X0007505Y0055933D02*
X0007000Y0055933D01*
X0007000Y0057132D02*
X0008126Y0057132D01*
X0007000Y0058330D02*
X0009624Y0058330D01*
X0007000Y0049940D02*
X0028700Y0049940D01*
X0034830Y0048742D02*
X0036670Y0048742D01*
X0036111Y0047543D02*
X0035389Y0047543D01*
X0035600Y0046345D02*
X0035900Y0046345D01*
X0035900Y0044350D02*
X0035900Y0042539D01*
X0036009Y0042132D01*
X0036220Y0041768D01*
X0036518Y0041470D01*
X0036882Y0041259D01*
X0037289Y0041150D01*
X0039100Y0041150D01*
X0039100Y0044350D01*
X0035900Y0044350D01*
X0035900Y0043948D02*
X0035600Y0043948D01*
X0035600Y0042749D02*
X0035900Y0042749D01*
X0036436Y0041551D02*
X0035064Y0041551D01*
X0039100Y0041551D02*
X0039900Y0041551D01*
X0039900Y0042749D02*
X0039100Y0042749D01*
X0039100Y0043948D02*
X0039900Y0043948D01*
X0039900Y0046345D02*
X0039100Y0046345D01*
X0039100Y0047543D02*
X0039900Y0047543D01*
X0042330Y0048742D02*
X0049900Y0048742D01*
X0049900Y0049940D02*
X0042800Y0049940D01*
X0042889Y0047543D02*
X0050281Y0047543D01*
X0052000Y0055459D02*
X0052000Y0061390D01*
X0052000Y0061390D01*
X0052000Y0067320D01*
X0052000Y0061390D01*
X0052000Y0055459D01*
X0052000Y0055933D02*
X0052000Y0055933D01*
X0052000Y0057132D02*
X0052000Y0057132D01*
X0052000Y0058330D02*
X0052000Y0058330D01*
X0052000Y0059529D02*
X0052000Y0059529D01*
X0052000Y0060727D02*
X0052000Y0060727D01*
X0052000Y0061390D02*
X0052000Y0061390D01*
X0052000Y0061926D02*
X0052000Y0061926D01*
X0052000Y0063124D02*
X0052000Y0063124D01*
X0052000Y0064323D02*
X0052000Y0064323D01*
X0052000Y0065521D02*
X0052000Y0065521D01*
X0052000Y0066720D02*
X0052000Y0066720D01*
X0054445Y0066720D02*
X0054980Y0066720D01*
X0059020Y0066720D02*
X0059980Y0066720D01*
X0059519Y0065521D02*
X0059481Y0065521D01*
X0059481Y0064323D02*
X0059519Y0064323D01*
X0059481Y0063124D02*
X0059519Y0063124D01*
X0059481Y0061926D02*
X0059519Y0061926D01*
X0059481Y0060727D02*
X0059519Y0060727D01*
X0059481Y0059529D02*
X0059519Y0059529D01*
X0059481Y0058330D02*
X0059519Y0058330D01*
X0064481Y0058330D02*
X0064519Y0058330D01*
X0064481Y0057132D02*
X0064519Y0057132D01*
X0064100Y0055933D02*
X0065106Y0055933D01*
X0064519Y0064323D02*
X0064481Y0064323D01*
X0064481Y0065521D02*
X0064519Y0065521D01*
X0064900Y0066720D02*
X0064020Y0066720D01*
X0064763Y0067918D02*
X0049236Y0067918D01*
X0049100Y0066720D02*
X0049555Y0066720D01*
X0049700Y0069117D02*
X0064300Y0069117D01*
X0064415Y0070315D02*
X0049585Y0070315D01*
X0048805Y0071514D02*
X0065195Y0071514D01*
X0068805Y0071514D02*
X0080195Y0071514D01*
X0079415Y0070315D02*
X0069585Y0070315D01*
X0069700Y0069117D02*
X0079300Y0069117D01*
X0074555Y0066720D02*
X0074020Y0066720D01*
X0073903Y0055933D02*
X0074682Y0055933D01*
X0073400Y0049940D02*
X0072800Y0049940D01*
X0072800Y0048742D02*
X0073400Y0048742D01*
X0073781Y0047543D02*
X0072382Y0047543D01*
X0072494Y0046345D02*
X0073400Y0046345D01*
X0073400Y0045146D02*
X0072800Y0045146D01*
X0072800Y0043948D02*
X0073400Y0043948D01*
X0073400Y0044100D02*
X0073400Y0042289D01*
X0073509Y0041882D01*
X0073720Y0041518D01*
X0074018Y0041220D01*
X0074382Y0041009D01*
X0074789Y0040900D01*
X0076600Y0040900D01*
X0076600Y0044100D01*
X0073400Y0044100D01*
X0073400Y0042749D02*
X0072800Y0042749D01*
X0072800Y0041551D02*
X0073700Y0041551D01*
X0076600Y0041551D02*
X0077400Y0041551D01*
X0077400Y0042749D02*
X0076600Y0042749D01*
X0076600Y0043948D02*
X0077400Y0043948D01*
X0077400Y0045146D02*
X0076600Y0045146D01*
X0076600Y0046345D02*
X0077400Y0046345D01*
X0077400Y0047543D02*
X0076600Y0047543D01*
X0076600Y0048742D02*
X0077400Y0048742D01*
X0077400Y0049940D02*
X0076600Y0049940D01*
X0072537Y0086800D02*
X0071463Y0086800D01*
X0070471Y0087211D01*
X0069711Y0087971D01*
X0069300Y0088963D01*
X0069300Y0090037D01*
X0069711Y0091029D01*
X0069900Y0091218D01*
X0069900Y0092360D01*
X0069519Y0092741D01*
X0069519Y0102479D01*
X0070280Y0103241D01*
X0073720Y0103241D01*
X0074355Y0102605D01*
X0074539Y0102923D01*
X0074836Y0103221D01*
X0075201Y0103432D01*
X0075608Y0103541D01*
X0077000Y0103541D01*
X0077000Y0097610D01*
X0077000Y0091680D01*
X0078392Y0091680D01*
X0078799Y0091789D01*
X0079164Y0091999D01*
X0079461Y0092297D01*
X0079645Y0092615D01*
X0080280Y0091980D01*
X0083720Y0091980D01*
X0084481Y0092741D01*
X0084481Y0102479D01*
X0084100Y0102861D01*
X0084100Y0107120D01*
X0072850Y0118370D01*
X0072850Y0121450D01*
X0073288Y0121450D01*
X0073875Y0122037D01*
X0074462Y0121450D01*
X0079538Y0121450D01*
X0080125Y0122037D01*
X0080712Y0121450D01*
X0085788Y0121450D01*
X0086550Y0122212D01*
X0086550Y0122650D01*
X0087532Y0122650D01*
X0087971Y0122211D01*
X0088963Y0121800D01*
X0090037Y0121800D01*
X0091029Y0122211D01*
X0091789Y0122971D01*
X0092200Y0123963D01*
X0092200Y0125037D01*
X0091789Y0126029D01*
X0091029Y0126789D01*
X0090037Y0127200D01*
X0088963Y0127200D01*
X0088118Y0126850D01*
X0086550Y0126850D01*
X0086550Y0127288D01*
X0085788Y0128050D01*
X0080712Y0128050D01*
X0080125Y0127463D01*
X0079538Y0128050D01*
X0074462Y0128050D01*
X0073875Y0127463D01*
X0073288Y0128050D01*
X0069100Y0128050D01*
X0069100Y0128450D01*
X0073288Y0128450D01*
X0073875Y0129037D01*
X0074462Y0128450D01*
X0079538Y0128450D01*
X0080125Y0129037D01*
X0080712Y0128450D01*
X0085788Y0128450D01*
X0086550Y0129212D01*
X0086550Y0134288D01*
X0085788Y0135050D01*
X0085350Y0135050D01*
X0085350Y0135370D01*
X0084340Y0136380D01*
X0084481Y0136521D01*
X0084481Y0146259D01*
X0083720Y0147020D01*
X0085280Y0147020D01*
X0084519Y0146259D01*
X0084519Y0136521D01*
X0085280Y0135759D01*
X0088720Y0135759D01*
X0089481Y0136521D01*
X0089481Y0139290D01*
X0089740Y0139290D01*
X0091150Y0137880D01*
X0092380Y0136650D01*
X0096625Y0136650D01*
X0096625Y0136521D01*
X0097387Y0135759D01*
X0101613Y0135759D01*
X0102375Y0136521D01*
X0102375Y0141141D01*
X0102052Y0141464D01*
X0102800Y0142212D01*
X0102800Y0147288D01*
X0102038Y0148050D01*
X0096962Y0148050D01*
X0096200Y0147288D01*
X0096200Y0142212D01*
X0096948Y0141464D01*
X0096625Y0141141D01*
X0096625Y0140850D01*
X0094120Y0140850D01*
X0091480Y0143490D01*
X0089481Y0143490D01*
X0089481Y0146259D01*
X0088720Y0147020D01*
X0096200Y0147020D01*
X0096200Y0145821D02*
X0089481Y0145821D01*
X0089481Y0144623D02*
X0096200Y0144623D01*
X0096200Y0143424D02*
X0091545Y0143424D01*
X0092744Y0142226D02*
X0096200Y0142226D01*
X0096625Y0141027D02*
X0093943Y0141027D01*
X0091598Y0137432D02*
X0089481Y0137432D01*
X0089481Y0138630D02*
X0090400Y0138630D01*
X0089194Y0136233D02*
X0096912Y0136233D01*
X0097545Y0133935D02*
X0095947Y0133935D01*
X0095947Y0130750D01*
X0098935Y0130750D01*
X0098935Y0132545D01*
X0098826Y0132952D01*
X0098615Y0133317D01*
X0098317Y0133615D01*
X0097952Y0133826D01*
X0097545Y0133935D01*
X0097912Y0133836D02*
X0122000Y0133836D01*
X0122000Y0132638D02*
X0106115Y0132638D01*
X0106115Y0132873D02*
X0105353Y0133635D01*
X0101127Y0133635D01*
X0100365Y0132873D01*
X0100365Y0128253D01*
X0101127Y0127491D01*
X0105353Y0127491D01*
X0106115Y0128253D01*
X0106115Y0132873D01*
X0106115Y0131439D02*
X0122000Y0131439D01*
X0122000Y0130241D02*
X0106115Y0130241D01*
X0106115Y0129042D02*
X0122000Y0129042D01*
X0122000Y0127844D02*
X0105706Y0127844D01*
X0100775Y0127844D02*
X0098635Y0127844D01*
X0098615Y0127809D02*
X0098826Y0128174D01*
X0098935Y0128581D01*
X0098935Y0130376D01*
X0095947Y0130376D01*
X0095947Y0130750D01*
X0095572Y0130750D01*
X0095572Y0130376D01*
X0092585Y0130376D01*
X0092585Y0128581D01*
X0092694Y0128174D01*
X0092905Y0127809D01*
X0093203Y0127511D01*
X0093567Y0127300D01*
X0093974Y0127191D01*
X0095572Y0127191D01*
X0095572Y0130376D01*
X0095947Y0130376D01*
X0095947Y0127191D01*
X0097545Y0127191D01*
X0097952Y0127300D01*
X0098317Y0127511D01*
X0098615Y0127809D01*
X0098935Y0129042D02*
X0100365Y0129042D01*
X0100365Y0130241D02*
X0098935Y0130241D01*
X0098935Y0131439D02*
X0100365Y0131439D01*
X0100365Y0132638D02*
X0098910Y0132638D01*
X0095947Y0132638D02*
X0095572Y0132638D01*
X0095572Y0133836D02*
X0095947Y0133836D01*
X0095572Y0133935D02*
X0093974Y0133935D01*
X0093567Y0133826D01*
X0093203Y0133615D01*
X0092905Y0133317D01*
X0092694Y0132952D01*
X0092585Y0132545D01*
X0092585Y0130750D01*
X0095572Y0130750D01*
X0095572Y0133935D01*
X0095572Y0131439D02*
X0095947Y0131439D01*
X0095947Y0130241D02*
X0095572Y0130241D01*
X0095572Y0129042D02*
X0095947Y0129042D01*
X0095947Y0127844D02*
X0095572Y0127844D01*
X0092885Y0127844D02*
X0085995Y0127844D01*
X0086381Y0129042D02*
X0092585Y0129042D01*
X0092585Y0130241D02*
X0086550Y0130241D01*
X0086550Y0131439D02*
X0092585Y0131439D01*
X0092610Y0132638D02*
X0086550Y0132638D01*
X0086550Y0133836D02*
X0093607Y0133836D01*
X0091173Y0126645D02*
X0122000Y0126645D01*
X0122000Y0125447D02*
X0092030Y0125447D01*
X0092200Y0124248D02*
X0122000Y0124248D01*
X0122000Y0123050D02*
X0091822Y0123050D01*
X0090160Y0121851D02*
X0122000Y0121851D01*
X0122000Y0120653D02*
X0072850Y0120653D01*
X0072850Y0119454D02*
X0122000Y0119454D01*
X0122000Y0118256D02*
X0072964Y0118256D01*
X0074163Y0117057D02*
X0122000Y0117057D01*
X0122000Y0115859D02*
X0075361Y0115859D01*
X0076560Y0114660D02*
X0122000Y0114660D01*
X0122000Y0113462D02*
X0077758Y0113462D01*
X0078957Y0112263D02*
X0122000Y0112263D01*
X0122000Y0111065D02*
X0080155Y0111065D01*
X0081354Y0109866D02*
X0122000Y0109866D01*
X0122000Y0108668D02*
X0082552Y0108668D01*
X0083751Y0107469D02*
X0122000Y0107469D01*
X0122000Y0106270D02*
X0084100Y0106270D01*
X0084100Y0105072D02*
X0122000Y0105072D01*
X0122000Y0103873D02*
X0084100Y0103873D01*
X0084286Y0102675D02*
X0122000Y0102675D01*
X0122000Y0101476D02*
X0084481Y0101476D01*
X0084481Y0100278D02*
X0122000Y0100278D01*
X0122000Y0099079D02*
X0084481Y0099079D01*
X0084481Y0097881D02*
X0122000Y0097881D01*
X0122000Y0096682D02*
X0084481Y0096682D01*
X0084481Y0095484D02*
X0122000Y0095484D01*
X0122000Y0094285D02*
X0084481Y0094285D01*
X0084481Y0093087D02*
X0122000Y0093087D01*
X0122000Y0091888D02*
X0078972Y0091888D01*
X0077000Y0091888D02*
X0077000Y0091888D01*
X0077000Y0091680D02*
X0077000Y0097610D01*
X0077000Y0097610D01*
X0077000Y0103541D01*
X0078392Y0103541D01*
X0078799Y0103432D01*
X0079164Y0103221D01*
X0079461Y0102923D01*
X0079645Y0102605D01*
X0079900Y0102861D01*
X0079900Y0105380D01*
X0068650Y0116630D01*
X0068650Y0121450D01*
X0068212Y0121450D01*
X0067450Y0122212D01*
X0067450Y0123230D01*
X0066870Y0122650D01*
X0065300Y0122650D01*
X0065300Y0122212D01*
X0064538Y0121450D01*
X0059462Y0121450D01*
X0059000Y0121912D01*
X0058538Y0121450D01*
X0053462Y0121450D01*
X0053000Y0121912D01*
X0052538Y0121450D01*
X0047462Y0121450D01*
X0047000Y0121912D01*
X0046538Y0121450D01*
X0041462Y0121450D01*
X0040700Y0122212D01*
X0040700Y0127288D01*
X0041462Y0128050D01*
X0046538Y0128050D01*
X0047000Y0127588D01*
X0047462Y0128050D01*
X0052538Y0128050D01*
X0053000Y0127588D01*
X0053462Y0128050D01*
X0058538Y0128050D01*
X0059000Y0127588D01*
X0059462Y0128050D01*
X0064538Y0128050D01*
X0064900Y0127688D01*
X0064900Y0128812D01*
X0064538Y0128450D01*
X0059462Y0128450D01*
X0059212Y0128699D01*
X0058982Y0128470D01*
X0058618Y0128259D01*
X0058211Y0128150D01*
X0056400Y0128150D01*
X0056400Y0131350D01*
X0055600Y0131350D01*
X0055600Y0128150D01*
X0053789Y0128150D01*
X0053382Y0128259D01*
X0053018Y0128470D01*
X0052788Y0128699D01*
X0052538Y0128450D01*
X0047462Y0128450D01*
X0047000Y0128912D01*
X0046538Y0128450D01*
X0041462Y0128450D01*
X0040700Y0129212D01*
X0040700Y0134288D01*
X0041462Y0135050D01*
X0046538Y0135050D01*
X0047000Y0134588D01*
X0047462Y0135050D01*
X0048080Y0135050D01*
X0048525Y0135495D01*
X0048392Y0135459D01*
X0047000Y0135459D01*
X0047000Y0141390D01*
X0047000Y0141390D01*
X0047000Y0147320D01*
X0045608Y0147320D01*
X0045201Y0147211D01*
X0044836Y0147001D01*
X0044539Y0146703D01*
X0044355Y0146385D01*
X0043720Y0147020D01*
X0044870Y0147020D01*
X0043720Y0147020D02*
X0040280Y0147020D01*
X0032800Y0147020D01*
X0032800Y0147288D02*
X0032038Y0148050D01*
X0026962Y0148050D01*
X0026200Y0147288D01*
X0026200Y0142212D01*
X0026948Y0141464D01*
X0026625Y0141141D01*
X0026625Y0136521D01*
X0027387Y0135759D01*
X0031613Y0135759D01*
X0032375Y0136521D01*
X0032375Y0136650D01*
X0038120Y0136650D01*
X0039350Y0137880D01*
X0039519Y0138049D01*
X0039519Y0136521D01*
X0040280Y0135759D01*
X0043720Y0135759D01*
X0044355Y0136395D01*
X0044539Y0136077D01*
X0044836Y0135779D01*
X0045201Y0135568D01*
X0045608Y0135459D01*
X0047000Y0135459D01*
X0047000Y0141390D01*
X0047000Y0147320D01*
X0048392Y0147320D01*
X0048799Y0147211D01*
X0049164Y0147001D01*
X0049461Y0146703D01*
X0049645Y0146385D01*
X0049900Y0146640D01*
X0049900Y0147782D01*
X0049711Y0147971D01*
X0049300Y0148963D01*
X0049300Y0150037D01*
X0049711Y0151029D01*
X0050471Y0151789D01*
X0051463Y0152200D01*
X0052537Y0152200D01*
X0053529Y0151789D01*
X0054289Y0151029D01*
X0054700Y0150037D01*
X0054700Y0148963D01*
X0054289Y0147971D01*
X0054100Y0147782D01*
X0054100Y0146640D01*
X0054481Y0146259D01*
X0054481Y0143490D01*
X0054519Y0143490D01*
X0054519Y0146259D01*
X0055280Y0147020D01*
X0054100Y0147020D01*
X0055280Y0147020D02*
X0058720Y0147020D01*
X0060280Y0147020D01*
X0059519Y0146259D01*
X0059519Y0136521D01*
X0059900Y0136139D01*
X0059900Y0135050D01*
X0059462Y0135050D01*
X0059212Y0134801D01*
X0058982Y0135030D01*
X0058618Y0135241D01*
X0058211Y0135350D01*
X0056400Y0135350D01*
X0056400Y0132150D01*
X0055600Y0132150D01*
X0055600Y0135350D01*
X0054100Y0135350D01*
X0054100Y0136139D01*
X0054481Y0136521D01*
X0054481Y0139290D01*
X0054519Y0139290D01*
X0054519Y0136521D01*
X0055280Y0135759D01*
X0058720Y0135759D01*
X0059481Y0136521D01*
X0059481Y0146259D01*
X0058720Y0147020D01*
X0059481Y0145821D02*
X0059519Y0145821D01*
X0059481Y0144623D02*
X0059519Y0144623D01*
X0059481Y0143424D02*
X0059519Y0143424D01*
X0059481Y0142226D02*
X0059519Y0142226D01*
X0059481Y0141027D02*
X0059519Y0141027D01*
X0059481Y0139829D02*
X0059519Y0139829D01*
X0059481Y0138630D02*
X0059519Y0138630D01*
X0059481Y0137432D02*
X0059519Y0137432D01*
X0059806Y0136233D02*
X0059194Y0136233D01*
X0058975Y0135035D02*
X0059446Y0135035D01*
X0056400Y0135035D02*
X0055600Y0135035D01*
X0055600Y0133836D02*
X0056400Y0133836D01*
X0056400Y0132638D02*
X0055600Y0132638D01*
X0055600Y0130241D02*
X0056400Y0130241D01*
X0056400Y0129042D02*
X0055600Y0129042D01*
X0053255Y0127844D02*
X0052745Y0127844D01*
X0052940Y0121851D02*
X0053060Y0121851D01*
X0053538Y0116550D02*
X0048462Y0116550D01*
X0047700Y0115788D01*
X0047700Y0110712D01*
X0048287Y0110125D01*
X0047700Y0109538D01*
X0047700Y0104462D01*
X0048462Y0103700D01*
X0048900Y0103700D01*
X0048900Y0103630D01*
X0049785Y0102745D01*
X0049519Y0102479D01*
X0049519Y0098153D01*
X0049500Y0098108D01*
X0049500Y0093036D01*
X0049481Y0093017D01*
X0049481Y0102479D01*
X0048720Y0103241D01*
X0045280Y0103241D01*
X0044519Y0102479D01*
X0044519Y0092741D01*
X0045260Y0092000D01*
X0030333Y0092000D01*
X0029000Y0093000D01*
X0029000Y0101039D01*
X0029670Y0101710D01*
X0029670Y0108692D01*
X0028909Y0109454D01*
X0024169Y0109454D01*
X0025273Y0110558D01*
X0025353Y0110750D01*
X0026748Y0110750D01*
X0027445Y0110461D01*
X0028555Y0110461D01*
X0029580Y0110886D01*
X0030364Y0111670D01*
X0030789Y0112695D01*
X0030789Y0113805D01*
X0030364Y0114830D01*
X0029580Y0115614D01*
X0028555Y0116039D01*
X0027445Y0116039D01*
X0026748Y0115750D01*
X0026131Y0115750D01*
X0026131Y0120774D01*
X0025273Y0122843D01*
X0023690Y0124427D01*
X0021620Y0125284D01*
X0019380Y0125284D01*
X0017310Y0124427D01*
X0015727Y0122843D01*
X0014869Y0120774D01*
X0014869Y0112628D01*
X0015727Y0110558D01*
X0016531Y0109754D01*
X0014983Y0109754D01*
X0014983Y0105585D01*
X0014214Y0105585D01*
X0014214Y0104817D01*
X0011030Y0104817D01*
X0011030Y0102037D01*
X0011139Y0101630D01*
X0011350Y0101266D01*
X0011647Y0100968D01*
X0012012Y0100757D01*
X0012419Y0100648D01*
X0014214Y0100648D01*
X0014214Y0104816D01*
X0014983Y0104816D01*
X0014983Y0100648D01*
X0016778Y0100648D01*
X0017184Y0100757D01*
X0017549Y0100968D01*
X0017769Y0101188D01*
X0017993Y0100964D01*
X0018000Y0100964D01*
X0018000Y0100300D01*
X0017962Y0100300D01*
X0017200Y0099538D01*
X0017200Y0094462D01*
X0017962Y0093700D01*
X0018000Y0093700D01*
X0018000Y0092800D01*
X0017962Y0092800D01*
X0017200Y0092038D01*
X0017200Y0086962D01*
X0017962Y0086200D01*
X0023038Y0086200D01*
X0023800Y0086962D01*
X0023800Y0092038D01*
X0023038Y0092800D01*
X0023000Y0092800D01*
X0023000Y0093700D01*
X0023038Y0093700D01*
X0023800Y0094462D01*
X0023800Y0099538D01*
X0023038Y0100300D01*
X0023000Y0100300D01*
X0023000Y0100964D01*
X0023007Y0100964D01*
X0023443Y0101400D01*
X0023895Y0100948D01*
X0024000Y0100948D01*
X0024000Y0092065D01*
X0023955Y0091889D01*
X0024000Y0091572D01*
X0024000Y0091253D01*
X0024070Y0091084D01*
X0024095Y0090904D01*
X0024258Y0090629D01*
X0024381Y0090334D01*
X0024509Y0090205D01*
X0024602Y0090048D01*
X0024858Y0089857D01*
X0025084Y0089631D01*
X0025252Y0089561D01*
X0027858Y0087607D01*
X0028084Y0087381D01*
X0028252Y0087311D01*
X0028398Y0087202D01*
X0028707Y0087122D01*
X0029003Y0087000D01*
X0029185Y0087000D01*
X0029361Y0086955D01*
X0029678Y0087000D01*
X0049997Y0087000D01*
X0050916Y0087381D01*
X0051619Y0088084D01*
X0053416Y0089881D01*
X0054119Y0090584D01*
X0054500Y0091503D01*
X0054500Y0098108D01*
X0054481Y0098153D01*
X0054481Y0102479D01*
X0054100Y0102861D01*
X0054100Y0104262D01*
X0054300Y0104462D01*
X0054300Y0109538D01*
X0053713Y0110125D01*
X0054300Y0110712D01*
X0054300Y0115788D01*
X0053538Y0116550D01*
X0054230Y0115859D02*
X0054770Y0115859D01*
X0054700Y0115788D02*
X0054700Y0110712D01*
X0055287Y0110125D01*
X0054700Y0109538D01*
X0054700Y0104462D01*
X0054900Y0104262D01*
X0054900Y0102861D01*
X0054519Y0102479D01*
X0054519Y0092741D01*
X0054900Y0092360D01*
X0054900Y0091218D01*
X0054711Y0091029D01*
X0054300Y0090037D01*
X0054300Y0088963D01*
X0054711Y0087971D01*
X0055471Y0087211D01*
X0056463Y0086800D01*
X0057537Y0086800D01*
X0058529Y0087211D01*
X0059289Y0087971D01*
X0059700Y0088963D01*
X0059700Y0090037D01*
X0059289Y0091029D01*
X0059100Y0091218D01*
X0059100Y0092360D01*
X0059481Y0092741D01*
X0059481Y0102479D01*
X0059215Y0102745D01*
X0060100Y0103630D01*
X0060100Y0103700D01*
X0060538Y0103700D01*
X0061300Y0104462D01*
X0061300Y0109538D01*
X0060713Y0110125D01*
X0061300Y0110712D01*
X0061300Y0115788D01*
X0060538Y0116550D01*
X0055462Y0116550D01*
X0054700Y0115788D01*
X0054700Y0114660D02*
X0054300Y0114660D01*
X0054300Y0113462D02*
X0054700Y0113462D01*
X0054700Y0112263D02*
X0054300Y0112263D01*
X0054300Y0111065D02*
X0054700Y0111065D01*
X0055028Y0109866D02*
X0053972Y0109866D01*
X0054300Y0108668D02*
X0054700Y0108668D01*
X0054700Y0107469D02*
X0054300Y0107469D01*
X0054300Y0106270D02*
X0054700Y0106270D01*
X0054700Y0105072D02*
X0054300Y0105072D01*
X0054100Y0103873D02*
X0054900Y0103873D01*
X0054714Y0102675D02*
X0054286Y0102675D01*
X0054481Y0101476D02*
X0054519Y0101476D01*
X0054481Y0100278D02*
X0054519Y0100278D01*
X0054481Y0099079D02*
X0054519Y0099079D01*
X0054500Y0097881D02*
X0054519Y0097881D01*
X0054500Y0096682D02*
X0054519Y0096682D01*
X0054500Y0095484D02*
X0054519Y0095484D01*
X0054500Y0094285D02*
X0054519Y0094285D01*
X0054500Y0093087D02*
X0054519Y0093087D01*
X0054500Y0091888D02*
X0054900Y0091888D01*
X0054570Y0090690D02*
X0054163Y0090690D01*
X0054300Y0089491D02*
X0053027Y0089491D01*
X0051828Y0088293D02*
X0054578Y0088293D01*
X0055752Y0087094D02*
X0050225Y0087094D01*
X0049500Y0093087D02*
X0049481Y0093087D01*
X0049481Y0094285D02*
X0049500Y0094285D01*
X0049481Y0095484D02*
X0049500Y0095484D01*
X0049481Y0096682D02*
X0049500Y0096682D01*
X0049481Y0097881D02*
X0049500Y0097881D01*
X0049481Y0099079D02*
X0049519Y0099079D01*
X0049481Y0100278D02*
X0049519Y0100278D01*
X0049481Y0101476D02*
X0049519Y0101476D01*
X0049714Y0102675D02*
X0049286Y0102675D01*
X0048288Y0103873D02*
X0029670Y0103873D01*
X0029670Y0102675D02*
X0044714Y0102675D01*
X0044519Y0101476D02*
X0029437Y0101476D01*
X0029000Y0100278D02*
X0044519Y0100278D01*
X0044519Y0099079D02*
X0029000Y0099079D01*
X0029000Y0097881D02*
X0044519Y0097881D01*
X0044519Y0096682D02*
X0029000Y0096682D01*
X0029000Y0095484D02*
X0044519Y0095484D01*
X0044519Y0094285D02*
X0029000Y0094285D01*
X0029000Y0093087D02*
X0044519Y0093087D01*
X0047700Y0105072D02*
X0029670Y0105072D01*
X0029670Y0106270D02*
X0047700Y0106270D01*
X0047700Y0107469D02*
X0029670Y0107469D01*
X0029670Y0108668D02*
X0047700Y0108668D01*
X0048028Y0109866D02*
X0024581Y0109866D01*
X0026131Y0115859D02*
X0027010Y0115859D01*
X0026131Y0117057D02*
X0068650Y0117057D01*
X0068650Y0118256D02*
X0026131Y0118256D01*
X0026131Y0119454D02*
X0068650Y0119454D01*
X0068650Y0120653D02*
X0026131Y0120653D01*
X0025684Y0121851D02*
X0041060Y0121851D01*
X0040700Y0123050D02*
X0025067Y0123050D01*
X0023868Y0124248D02*
X0040700Y0124248D01*
X0040700Y0125447D02*
X0007000Y0125447D01*
X0007000Y0126645D02*
X0040700Y0126645D01*
X0041255Y0127844D02*
X0035706Y0127844D01*
X0035353Y0127491D02*
X0036115Y0128253D01*
X0036115Y0132873D01*
X0035353Y0133635D01*
X0031127Y0133635D01*
X0030365Y0132873D01*
X0030365Y0128253D01*
X0031127Y0127491D01*
X0035353Y0127491D01*
X0036115Y0129042D02*
X0040869Y0129042D01*
X0040700Y0130241D02*
X0036115Y0130241D01*
X0036115Y0131439D02*
X0040700Y0131439D01*
X0040700Y0132638D02*
X0036115Y0132638D01*
X0039806Y0136233D02*
X0032087Y0136233D01*
X0030365Y0132638D02*
X0028910Y0132638D01*
X0028935Y0132545D02*
X0028826Y0132952D01*
X0028615Y0133317D01*
X0028317Y0133615D01*
X0027952Y0133826D01*
X0027545Y0133935D01*
X0025947Y0133935D01*
X0025947Y0130750D01*
X0028935Y0130750D01*
X0028935Y0132545D01*
X0028935Y0131439D02*
X0030365Y0131439D01*
X0030365Y0130241D02*
X0028935Y0130241D01*
X0028935Y0130376D02*
X0025947Y0130376D01*
X0025947Y0130750D01*
X0025572Y0130750D01*
X0025572Y0130376D01*
X0022585Y0130376D01*
X0022585Y0128581D01*
X0022694Y0128174D01*
X0022905Y0127809D01*
X0023203Y0127511D01*
X0023567Y0127300D01*
X0023974Y0127191D01*
X0025572Y0127191D01*
X0025572Y0130376D01*
X0025947Y0130376D01*
X0025947Y0127191D01*
X0027545Y0127191D01*
X0027952Y0127300D01*
X0028317Y0127511D01*
X0028615Y0127809D01*
X0028826Y0128174D01*
X0028935Y0128581D01*
X0028935Y0130376D01*
X0028935Y0129042D02*
X0030365Y0129042D01*
X0030775Y0127844D02*
X0028635Y0127844D01*
X0025947Y0127844D02*
X0025572Y0127844D01*
X0025572Y0129042D02*
X0025947Y0129042D01*
X0025947Y0130241D02*
X0025572Y0130241D01*
X0025572Y0130750D02*
X0022585Y0130750D01*
X0022585Y0132545D01*
X0022694Y0132952D01*
X0022905Y0133317D01*
X0023203Y0133615D01*
X0023567Y0133826D01*
X0023974Y0133935D01*
X0025572Y0133935D01*
X0025572Y0130750D01*
X0025572Y0131439D02*
X0025947Y0131439D01*
X0025947Y0132638D02*
X0025572Y0132638D01*
X0025572Y0133836D02*
X0025947Y0133836D01*
X0027912Y0133836D02*
X0040700Y0133836D01*
X0041446Y0135035D02*
X0007000Y0135035D01*
X0007000Y0136233D02*
X0026912Y0136233D01*
X0026625Y0137432D02*
X0007000Y0137432D01*
X0007000Y0138630D02*
X0026625Y0138630D01*
X0026625Y0139829D02*
X0007000Y0139829D01*
X0007000Y0141027D02*
X0026625Y0141027D01*
X0026200Y0142226D02*
X0007000Y0142226D01*
X0007000Y0143424D02*
X0026200Y0143424D01*
X0026200Y0144623D02*
X0007000Y0144623D01*
X0007000Y0145821D02*
X0026200Y0145821D01*
X0026200Y0147020D02*
X0007000Y0147020D01*
X0007000Y0148218D02*
X0049608Y0148218D01*
X0049900Y0147020D02*
X0049130Y0147020D01*
X0049300Y0149417D02*
X0032800Y0149417D01*
X0032800Y0149212D02*
X0032800Y0154288D01*
X0032038Y0155050D01*
X0031600Y0155050D01*
X0031600Y0161130D01*
X0039120Y0168650D01*
X0039879Y0168650D01*
X0039891Y0168637D01*
X0042264Y0168650D01*
X0046370Y0168650D01*
X0047870Y0170150D01*
X0049100Y0171380D01*
X0049100Y0172360D01*
X0049481Y0172741D01*
X0049481Y0182479D01*
X0049100Y0182861D01*
X0049100Y0184430D01*
X0049900Y0183630D01*
X0049900Y0182861D01*
X0049519Y0182479D01*
X0049519Y0172741D01*
X0050280Y0171980D01*
X0053720Y0171980D01*
X0054481Y0172741D01*
X0054481Y0182479D01*
X0054100Y0182861D01*
X0054100Y0184430D01*
X0054900Y0183630D01*
X0054900Y0182861D01*
X0054519Y0182479D01*
X0054519Y0172741D01*
X0054900Y0172360D01*
X0054900Y0171218D01*
X0054711Y0171029D01*
X0054300Y0170037D01*
X0054300Y0168963D01*
X0054711Y0167971D01*
X0055471Y0167211D01*
X0056463Y0166800D01*
X0057537Y0166800D01*
X0058529Y0167211D01*
X0059289Y0167971D01*
X0059700Y0168963D01*
X0059700Y0170037D01*
X0059289Y0171029D01*
X0059100Y0171218D01*
X0059100Y0172360D01*
X0059355Y0172615D01*
X0059539Y0172297D01*
X0059836Y0171999D01*
X0060201Y0171789D01*
X0060608Y0171680D01*
X0062000Y0171680D01*
X0063392Y0171680D01*
X0063799Y0171789D01*
X0064164Y0171999D01*
X0064461Y0172297D01*
X0064500Y0172364D01*
X0064539Y0172297D01*
X0064836Y0171999D01*
X0065201Y0171789D01*
X0065608Y0171680D01*
X0067000Y0171680D01*
X0068392Y0171680D01*
X0068799Y0171789D01*
X0069164Y0171999D01*
X0069461Y0172297D01*
X0069645Y0172615D01*
X0069900Y0172360D01*
X0069900Y0171218D01*
X0069711Y0171029D01*
X0069300Y0170037D01*
X0069300Y0168963D01*
X0069711Y0167971D01*
X0070471Y0167211D01*
X0071463Y0166800D01*
X0072537Y0166800D01*
X0073529Y0167211D01*
X0074289Y0167971D01*
X0074700Y0168963D01*
X0074700Y0170037D01*
X0074289Y0171029D01*
X0074100Y0171218D01*
X0074100Y0172360D01*
X0074481Y0172741D01*
X0074481Y0182479D01*
X0074100Y0182861D01*
X0074100Y0183630D01*
X0074900Y0184430D01*
X0074900Y0182861D01*
X0074519Y0182479D01*
X0074519Y0172741D01*
X0075280Y0171980D01*
X0078720Y0171980D01*
X0079481Y0172741D01*
X0079481Y0182479D01*
X0079100Y0182861D01*
X0079100Y0183630D01*
X0079900Y0184430D01*
X0079900Y0182861D01*
X0079519Y0182479D01*
X0079519Y0172741D01*
X0080280Y0171980D01*
X0080301Y0171980D01*
X0081130Y0171150D01*
X0083630Y0168650D01*
X0089880Y0168650D01*
X0097400Y0161130D01*
X0097400Y0155050D01*
X0096962Y0155050D01*
X0096200Y0154288D01*
X0096200Y0149212D01*
X0096962Y0148450D01*
X0102038Y0148450D01*
X0102800Y0149212D01*
X0102800Y0154288D01*
X0102038Y0155050D01*
X0101600Y0155050D01*
X0101600Y0162870D01*
X0091620Y0172850D01*
X0089481Y0172850D01*
X0089481Y0182479D01*
X0089100Y0182861D01*
X0089100Y0183630D01*
X0090370Y0184900D01*
X0107870Y0184900D01*
X0110370Y0187400D01*
X0111600Y0188630D01*
X0111600Y0195281D01*
X0111918Y0195413D01*
X0113119Y0196614D01*
X0113768Y0198182D01*
X0113768Y0205818D01*
X0113119Y0207386D01*
X0111918Y0208587D01*
X0110349Y0209237D01*
X0108651Y0209237D01*
X0107082Y0208587D01*
X0105881Y0207386D01*
X0105231Y0205818D01*
X0105231Y0198182D01*
X0105881Y0196614D01*
X0107082Y0195413D01*
X0107400Y0195281D01*
X0107400Y0190370D01*
X0106130Y0189100D01*
X0099570Y0189100D01*
X0100370Y0189900D01*
X0101600Y0191130D01*
X0101600Y0195281D01*
X0101918Y0195413D01*
X0103119Y0196614D01*
X0103768Y0198182D01*
X0103768Y0205818D01*
X0103119Y0207386D01*
X0101918Y0208587D01*
X0100349Y0209237D01*
X0098651Y0209237D01*
X0097082Y0208587D01*
X0095881Y0207386D01*
X0095231Y0205818D01*
X0095231Y0198182D01*
X0095881Y0196614D01*
X0097082Y0195413D01*
X0097400Y0195281D01*
X0097400Y0192870D01*
X0096130Y0191600D01*
X0089570Y0191600D01*
X0090370Y0192400D01*
X0091600Y0193630D01*
X0091600Y0195281D01*
X0091918Y0195413D01*
X0093119Y0196614D01*
X0093768Y0198182D01*
X0093768Y0205818D01*
X0093119Y0207386D01*
X0091918Y0208587D01*
X0090349Y0209237D01*
X0088651Y0209237D01*
X0087082Y0208587D01*
X0085881Y0207386D01*
X0085231Y0205818D01*
X0085231Y0198182D01*
X0085881Y0196614D01*
X0087082Y0195413D01*
X0087337Y0195307D01*
X0086130Y0194100D01*
X0083630Y0194100D01*
X0082400Y0192870D01*
X0081600Y0192070D01*
X0081600Y0195281D01*
X0081918Y0195413D01*
X0083119Y0196614D01*
X0083768Y0198182D01*
X0083768Y0205818D01*
X0083119Y0207386D01*
X0081918Y0208587D01*
X0080349Y0209237D01*
X0078651Y0209237D01*
X0077082Y0208587D01*
X0075881Y0207386D01*
X0075231Y0205818D01*
X0075231Y0198182D01*
X0075881Y0196614D01*
X0077082Y0195413D01*
X0077400Y0195281D01*
X0077400Y0192870D01*
X0071850Y0187320D01*
X0071850Y0188100D01*
X0068650Y0188100D01*
X0068650Y0188900D01*
X0067850Y0188900D01*
X0067850Y0192100D01*
X0066039Y0192100D01*
X0065632Y0191991D01*
X0065268Y0191780D01*
X0064970Y0191482D01*
X0064759Y0191118D01*
X0064650Y0190711D01*
X0064650Y0188900D01*
X0067850Y0188900D01*
X0067850Y0188100D01*
X0068650Y0188100D01*
X0068650Y0184900D01*
X0069900Y0184900D01*
X0069900Y0182861D01*
X0069645Y0182605D01*
X0069461Y0182923D01*
X0069164Y0183221D01*
X0068799Y0183432D01*
X0068392Y0183541D01*
X0067000Y0183541D01*
X0067000Y0177610D01*
X0067000Y0171680D01*
X0067000Y0177610D01*
X0067000Y0177610D01*
X0062000Y0177610D01*
X0062000Y0171680D01*
X0062000Y0177610D01*
X0062000Y0177610D01*
X0062000Y0177610D01*
X0064781Y0177610D01*
X0067000Y0177610D01*
X0067000Y0177610D01*
X0067000Y0183541D01*
X0065608Y0183541D01*
X0065201Y0183432D01*
X0064836Y0183221D01*
X0064539Y0182923D01*
X0064500Y0182857D01*
X0064461Y0182923D01*
X0064164Y0183221D01*
X0063799Y0183432D01*
X0063392Y0183541D01*
X0062000Y0183541D01*
X0062000Y0177610D01*
X0062000Y0183541D01*
X0060608Y0183541D01*
X0060201Y0183432D01*
X0059836Y0183221D01*
X0059539Y0182923D01*
X0059355Y0182605D01*
X0059100Y0182861D01*
X0059100Y0184900D01*
X0060350Y0184900D01*
X0060350Y0188100D01*
X0057150Y0188100D01*
X0057150Y0187320D01*
X0051600Y0192870D01*
X0051600Y0195281D01*
X0051918Y0195413D01*
X0053119Y0196614D01*
X0053768Y0198182D01*
X0053768Y0205818D01*
X0053119Y0207386D01*
X0051918Y0208587D01*
X0050349Y0209237D01*
X0048651Y0209237D01*
X0047082Y0208587D01*
X0045881Y0207386D01*
X0045231Y0205818D01*
X0045231Y0198182D01*
X0045881Y0196614D01*
X0047082Y0195413D01*
X0047400Y0195281D01*
X0047400Y0192070D01*
X0045370Y0194100D01*
X0042870Y0194100D01*
X0041663Y0195307D01*
X0041918Y0195413D01*
X0043119Y0196614D01*
X0043768Y0198182D01*
X0043768Y0205818D01*
X0043119Y0207386D01*
X0041918Y0208587D01*
X0040349Y0209237D01*
X0038651Y0209237D01*
X0037082Y0208587D01*
X0035881Y0207386D01*
X0035231Y0205818D01*
X0035231Y0198182D01*
X0035881Y0196614D01*
X0037082Y0195413D01*
X0037400Y0195281D01*
X0037400Y0193630D01*
X0039430Y0191600D01*
X0032620Y0191600D01*
X0031600Y0192620D01*
X0031600Y0195281D01*
X0031918Y0195413D01*
X0033119Y0196614D01*
X0033768Y0198182D01*
X0033768Y0205818D01*
X0033119Y0207386D01*
X0031918Y0208587D01*
X0030349Y0209237D01*
X0028651Y0209237D01*
X0027082Y0208587D01*
X0025881Y0207386D01*
X0025231Y0205818D01*
X0025231Y0198182D01*
X0025881Y0196614D01*
X0027082Y0195413D01*
X0027400Y0195281D01*
X0027400Y0190880D01*
X0028630Y0189650D01*
X0029180Y0189100D01*
X0022870Y0189100D01*
X0021600Y0190370D01*
X0021600Y0195281D01*
X0021918Y0195413D01*
X0023119Y0196614D01*
X0023768Y0198182D01*
X0023768Y0205818D01*
X0023119Y0207386D01*
X0021918Y0208587D01*
X0020349Y0209237D01*
X0018651Y0209237D01*
X0017082Y0208587D01*
X0015881Y0207386D01*
X0015231Y0205818D01*
X0015231Y0198182D01*
X0015881Y0196614D01*
X0017082Y0195413D01*
X0017400Y0195281D01*
X0017400Y0188630D01*
X0018630Y0187400D01*
X0021130Y0184900D01*
X0038630Y0184900D01*
X0039900Y0183630D01*
X0039900Y0182861D01*
X0039519Y0182479D01*
X0039519Y0172850D01*
X0037380Y0172850D01*
X0027400Y0162870D01*
X0027400Y0155050D01*
X0026962Y0155050D01*
X0026200Y0154288D01*
X0026200Y0149212D01*
X0026962Y0148450D01*
X0032038Y0148450D01*
X0032800Y0149212D01*
X0032800Y0150615D02*
X0049540Y0150615D01*
X0050531Y0151814D02*
X0032800Y0151814D01*
X0032800Y0153012D02*
X0096200Y0153012D01*
X0096200Y0151814D02*
X0053469Y0151814D01*
X0054460Y0150615D02*
X0096200Y0150615D01*
X0096200Y0149417D02*
X0054700Y0149417D01*
X0054392Y0148218D02*
X0122000Y0148218D01*
X0122000Y0147020D02*
X0102800Y0147020D01*
X0102800Y0145821D02*
X0122000Y0145821D01*
X0122000Y0144623D02*
X0102800Y0144623D01*
X0102800Y0143424D02*
X0122000Y0143424D01*
X0122000Y0142226D02*
X0102800Y0142226D01*
X0102375Y0141027D02*
X0122000Y0141027D01*
X0122000Y0139829D02*
X0102375Y0139829D01*
X0102375Y0138630D02*
X0122000Y0138630D01*
X0122000Y0137432D02*
X0102375Y0137432D01*
X0102087Y0136233D02*
X0122000Y0136233D01*
X0122000Y0135035D02*
X0085804Y0135035D01*
X0084806Y0136233D02*
X0084487Y0136233D01*
X0084481Y0137432D02*
X0084519Y0137432D01*
X0084481Y0138630D02*
X0084519Y0138630D01*
X0084481Y0139829D02*
X0084519Y0139829D01*
X0084481Y0141027D02*
X0084519Y0141027D01*
X0084481Y0142226D02*
X0084519Y0142226D01*
X0084481Y0143424D02*
X0084519Y0143424D01*
X0084481Y0144623D02*
X0084519Y0144623D01*
X0084481Y0145821D02*
X0084519Y0145821D01*
X0085280Y0147020D02*
X0088720Y0147020D01*
X0083720Y0147020D02*
X0080280Y0147020D01*
X0078720Y0147020D01*
X0075280Y0147020D01*
X0073720Y0147020D01*
X0070280Y0147020D01*
X0068720Y0147020D01*
X0065280Y0147020D01*
X0063720Y0147020D01*
X0060280Y0147020D01*
X0063720Y0147020D02*
X0064481Y0146259D01*
X0064481Y0136521D01*
X0064100Y0136139D01*
X0064100Y0135050D01*
X0064538Y0135050D01*
X0064900Y0134688D01*
X0064900Y0136139D01*
X0064519Y0136521D01*
X0064519Y0146259D01*
X0065280Y0147020D01*
X0064519Y0145821D02*
X0064481Y0145821D01*
X0064481Y0144623D02*
X0064519Y0144623D01*
X0064481Y0143424D02*
X0064519Y0143424D01*
X0064481Y0142226D02*
X0064519Y0142226D01*
X0064481Y0141027D02*
X0064519Y0141027D01*
X0064481Y0139829D02*
X0064519Y0139829D01*
X0064481Y0138630D02*
X0064519Y0138630D01*
X0064481Y0137432D02*
X0064519Y0137432D01*
X0064806Y0136233D02*
X0064194Y0136233D01*
X0064554Y0135035D02*
X0064900Y0135035D01*
X0069100Y0135820D02*
X0069100Y0136139D01*
X0069481Y0136521D01*
X0069481Y0146259D01*
X0068720Y0147020D01*
X0069519Y0146259D02*
X0069519Y0136521D01*
X0069660Y0136380D01*
X0069100Y0135820D01*
X0069194Y0136233D02*
X0069513Y0136233D01*
X0069481Y0137432D02*
X0069519Y0137432D01*
X0069481Y0138630D02*
X0069519Y0138630D01*
X0069481Y0139829D02*
X0069519Y0139829D01*
X0069481Y0141027D02*
X0069519Y0141027D01*
X0069481Y0142226D02*
X0069519Y0142226D01*
X0069481Y0143424D02*
X0069519Y0143424D01*
X0069481Y0144623D02*
X0069519Y0144623D01*
X0069481Y0145821D02*
X0069519Y0145821D01*
X0069519Y0146259D02*
X0070280Y0147020D01*
X0073720Y0147020D02*
X0074481Y0146259D01*
X0074481Y0136521D01*
X0074100Y0136139D01*
X0074100Y0134880D01*
X0073779Y0134559D01*
X0073875Y0134463D01*
X0074462Y0135050D01*
X0074900Y0135050D01*
X0074900Y0136139D01*
X0074519Y0136521D01*
X0074519Y0146259D01*
X0075280Y0147020D01*
X0074519Y0145821D02*
X0074481Y0145821D01*
X0074481Y0144623D02*
X0074519Y0144623D01*
X0074481Y0143424D02*
X0074519Y0143424D01*
X0074481Y0142226D02*
X0074519Y0142226D01*
X0074481Y0141027D02*
X0074519Y0141027D01*
X0074481Y0139829D02*
X0074519Y0139829D01*
X0074481Y0138630D02*
X0074519Y0138630D01*
X0074481Y0137432D02*
X0074519Y0137432D01*
X0074806Y0136233D02*
X0074194Y0136233D01*
X0074100Y0135035D02*
X0074446Y0135035D01*
X0074255Y0127844D02*
X0073495Y0127844D01*
X0073690Y0121851D02*
X0074060Y0121851D01*
X0070620Y0114660D02*
X0061300Y0114660D01*
X0061300Y0113462D02*
X0071819Y0113462D01*
X0073017Y0112263D02*
X0061300Y0112263D01*
X0061300Y0111065D02*
X0074216Y0111065D01*
X0075414Y0109866D02*
X0060972Y0109866D01*
X0061300Y0108668D02*
X0076613Y0108668D01*
X0077811Y0107469D02*
X0061300Y0107469D01*
X0061300Y0106270D02*
X0079010Y0106270D01*
X0079900Y0105072D02*
X0061300Y0105072D01*
X0060712Y0103873D02*
X0079900Y0103873D01*
X0079714Y0102675D02*
X0079605Y0102675D01*
X0077000Y0102675D02*
X0077000Y0102675D01*
X0077000Y0101476D02*
X0077000Y0101476D01*
X0077000Y0100278D02*
X0077000Y0100278D01*
X0077000Y0099079D02*
X0077000Y0099079D01*
X0077000Y0097881D02*
X0077000Y0097881D01*
X0077000Y0097610D02*
X0077000Y0097610D01*
X0077000Y0096682D02*
X0077000Y0096682D01*
X0077000Y0095484D02*
X0077000Y0095484D01*
X0077000Y0094285D02*
X0077000Y0094285D01*
X0077000Y0093087D02*
X0077000Y0093087D01*
X0077000Y0091680D02*
X0075608Y0091680D01*
X0075201Y0091789D01*
X0074836Y0091999D01*
X0074539Y0092297D01*
X0074355Y0092615D01*
X0074100Y0092360D01*
X0074100Y0091218D01*
X0074289Y0091029D01*
X0074700Y0090037D01*
X0074700Y0088963D01*
X0074289Y0087971D01*
X0073529Y0087211D01*
X0072537Y0086800D01*
X0073248Y0087094D02*
X0122000Y0087094D01*
X0122000Y0085896D02*
X0007000Y0085896D01*
X0007000Y0087094D02*
X0009952Y0087094D01*
X0009900Y0087289D02*
X0010009Y0086882D01*
X0010220Y0086518D01*
X0010518Y0086220D01*
X0010882Y0086009D01*
X0011289Y0085900D01*
X0013100Y0085900D01*
X0013100Y0089100D01*
X0013900Y0089100D01*
X0013900Y0089900D01*
X0017100Y0089900D01*
X0017100Y0091711D01*
X0016991Y0092118D01*
X0016780Y0092482D01*
X0016482Y0092780D01*
X0016118Y0092991D01*
X0015711Y0093100D01*
X0013900Y0093100D01*
X0013900Y0089900D01*
X0013100Y0089900D01*
X0013100Y0093100D01*
X0011289Y0093100D01*
X0010882Y0092991D01*
X0010518Y0092780D01*
X0010220Y0092482D01*
X0010009Y0092118D01*
X0009900Y0091711D01*
X0009900Y0089900D01*
X0013100Y0089900D01*
X0013100Y0089100D01*
X0009900Y0089100D01*
X0009900Y0087289D01*
X0009900Y0088293D02*
X0007000Y0088293D01*
X0007000Y0089491D02*
X0013100Y0089491D01*
X0013900Y0089491D02*
X0017200Y0089491D01*
X0017100Y0089100D02*
X0013900Y0089100D01*
X0013900Y0085900D01*
X0015711Y0085900D01*
X0016118Y0086009D01*
X0016482Y0086220D01*
X0016780Y0086518D01*
X0016991Y0086882D01*
X0017100Y0087289D01*
X0017100Y0089100D01*
X0017100Y0088293D02*
X0017200Y0088293D01*
X0017200Y0087094D02*
X0017048Y0087094D01*
X0017100Y0090690D02*
X0017200Y0090690D01*
X0017200Y0091888D02*
X0017052Y0091888D01*
X0018000Y0093087D02*
X0015760Y0093087D01*
X0015711Y0093400D02*
X0016118Y0093509D01*
X0016482Y0093720D01*
X0016780Y0094018D01*
X0016991Y0094382D01*
X0017100Y0094789D01*
X0017100Y0096600D01*
X0013900Y0096600D01*
X0013900Y0097400D01*
X0017100Y0097400D01*
X0017100Y0099211D01*
X0016991Y0099618D01*
X0016780Y0099982D01*
X0016482Y0100280D01*
X0016118Y0100491D01*
X0015711Y0100600D01*
X0013900Y0100600D01*
X0013900Y0097400D01*
X0013100Y0097400D01*
X0013100Y0100600D01*
X0011289Y0100600D01*
X0010882Y0100491D01*
X0010518Y0100280D01*
X0010220Y0099982D01*
X0010009Y0099618D01*
X0009900Y0099211D01*
X0009900Y0097400D01*
X0013100Y0097400D01*
X0013100Y0096600D01*
X0013900Y0096600D01*
X0013900Y0093400D01*
X0015711Y0093400D01*
X0016935Y0094285D02*
X0017376Y0094285D01*
X0017200Y0095484D02*
X0017100Y0095484D01*
X0017200Y0096682D02*
X0013900Y0096682D01*
X0013100Y0096682D02*
X0007000Y0096682D01*
X0007000Y0095484D02*
X0009900Y0095484D01*
X0009900Y0094789D02*
X0010009Y0094382D01*
X0010220Y0094018D01*
X0010518Y0093720D01*
X0010882Y0093509D01*
X0011289Y0093400D01*
X0013100Y0093400D01*
X0013100Y0096600D01*
X0009900Y0096600D01*
X0009900Y0094789D01*
X0010065Y0094285D02*
X0007000Y0094285D01*
X0007000Y0093087D02*
X0011240Y0093087D01*
X0009948Y0091888D02*
X0007000Y0091888D01*
X0007000Y0090690D02*
X0009900Y0090690D01*
X0007000Y0084697D02*
X0122000Y0084697D01*
X0122000Y0084500D02*
X0007000Y0084500D01*
X0007000Y0223980D01*
X0008700Y0222624D01*
X0013306Y0220816D01*
X0013306Y0220816D01*
X0018241Y0220446D01*
X0023065Y0221547D01*
X0027350Y0224022D01*
X0030716Y0227649D01*
X0032863Y0232107D01*
X0033600Y0237000D01*
X0033600Y0237000D01*
X0032863Y0241893D01*
X0030716Y0246351D01*
X0030113Y0247000D01*
X0098951Y0247000D01*
X0097044Y0244202D01*
X0095585Y0239474D01*
X0095585Y0234526D01*
X0097044Y0229798D01*
X0097044Y0229798D01*
X0099831Y0225709D01*
X0099831Y0225709D01*
X0099831Y0225709D01*
X0103700Y0222624D01*
X0108306Y0220816D01*
X0108306Y0220816D01*
X0113241Y0220446D01*
X0118065Y0221547D01*
X0122000Y0223820D01*
X0122000Y0084500D01*
X0122000Y0088293D02*
X0074422Y0088293D01*
X0074700Y0089491D02*
X0122000Y0089491D01*
X0122000Y0090690D02*
X0074430Y0090690D01*
X0074100Y0091888D02*
X0075028Y0091888D01*
X0069900Y0091888D02*
X0059100Y0091888D01*
X0059519Y0092741D02*
X0060280Y0091980D01*
X0063720Y0091980D01*
X0064481Y0092741D01*
X0064481Y0102479D01*
X0063720Y0103241D01*
X0060280Y0103241D01*
X0059519Y0102479D01*
X0059519Y0092741D01*
X0059519Y0093087D02*
X0059481Y0093087D01*
X0059481Y0094285D02*
X0059519Y0094285D01*
X0059481Y0095484D02*
X0059519Y0095484D01*
X0059481Y0096682D02*
X0059519Y0096682D01*
X0059481Y0097881D02*
X0059519Y0097881D01*
X0059481Y0099079D02*
X0059519Y0099079D01*
X0059481Y0100278D02*
X0059519Y0100278D01*
X0059481Y0101476D02*
X0059519Y0101476D01*
X0059714Y0102675D02*
X0059286Y0102675D01*
X0064286Y0102675D02*
X0064714Y0102675D01*
X0064519Y0102479D02*
X0064519Y0092741D01*
X0065280Y0091980D01*
X0068720Y0091980D01*
X0069481Y0092741D01*
X0069481Y0102479D01*
X0068720Y0103241D01*
X0065280Y0103241D01*
X0064519Y0102479D01*
X0064481Y0101476D02*
X0064519Y0101476D01*
X0064481Y0100278D02*
X0064519Y0100278D01*
X0064481Y0099079D02*
X0064519Y0099079D01*
X0064481Y0097881D02*
X0064519Y0097881D01*
X0064481Y0096682D02*
X0064519Y0096682D01*
X0064481Y0095484D02*
X0064519Y0095484D01*
X0064481Y0094285D02*
X0064519Y0094285D01*
X0064481Y0093087D02*
X0064519Y0093087D01*
X0069481Y0093087D02*
X0069519Y0093087D01*
X0069481Y0094285D02*
X0069519Y0094285D01*
X0069481Y0095484D02*
X0069519Y0095484D01*
X0069481Y0096682D02*
X0069519Y0096682D01*
X0069481Y0097881D02*
X0069519Y0097881D01*
X0069481Y0099079D02*
X0069519Y0099079D01*
X0069481Y0100278D02*
X0069519Y0100278D01*
X0069481Y0101476D02*
X0069519Y0101476D01*
X0069714Y0102675D02*
X0069286Y0102675D01*
X0074286Y0102675D02*
X0074395Y0102675D01*
X0069570Y0090690D02*
X0059430Y0090690D01*
X0059700Y0089491D02*
X0069300Y0089491D01*
X0069578Y0088293D02*
X0059422Y0088293D01*
X0058248Y0087094D02*
X0070752Y0087094D01*
X0069422Y0115859D02*
X0061230Y0115859D01*
X0059060Y0121851D02*
X0058940Y0121851D01*
X0058745Y0127844D02*
X0059255Y0127844D01*
X0054806Y0136233D02*
X0054194Y0136233D01*
X0054481Y0137432D02*
X0054519Y0137432D01*
X0054481Y0138630D02*
X0054519Y0138630D01*
X0054481Y0144623D02*
X0054519Y0144623D01*
X0054481Y0145821D02*
X0054519Y0145821D01*
X0047000Y0145821D02*
X0047000Y0145821D01*
X0047000Y0144623D02*
X0047000Y0144623D01*
X0047000Y0143424D02*
X0047000Y0143424D01*
X0047000Y0142226D02*
X0047000Y0142226D01*
X0047000Y0141390D02*
X0047000Y0141390D01*
X0047000Y0141027D02*
X0047000Y0141027D01*
X0047000Y0139829D02*
X0047000Y0139829D01*
X0047000Y0138630D02*
X0047000Y0138630D01*
X0047000Y0137432D02*
X0047000Y0137432D01*
X0047000Y0136233D02*
X0047000Y0136233D01*
X0046554Y0135035D02*
X0047446Y0135035D01*
X0044448Y0136233D02*
X0044194Y0136233D01*
X0046745Y0127844D02*
X0047255Y0127844D01*
X0047060Y0121851D02*
X0046940Y0121851D01*
X0047770Y0115859D02*
X0028990Y0115859D01*
X0030435Y0114660D02*
X0047700Y0114660D01*
X0047700Y0113462D02*
X0030789Y0113462D01*
X0030610Y0112263D02*
X0047700Y0112263D01*
X0047700Y0111065D02*
X0029759Y0111065D01*
X0024000Y0100278D02*
X0023061Y0100278D01*
X0023800Y0099079D02*
X0024000Y0099079D01*
X0024000Y0097881D02*
X0023800Y0097881D01*
X0023800Y0096682D02*
X0024000Y0096682D01*
X0024000Y0095484D02*
X0023800Y0095484D01*
X0023624Y0094285D02*
X0024000Y0094285D01*
X0024000Y0093087D02*
X0023000Y0093087D01*
X0023800Y0091888D02*
X0023955Y0091888D01*
X0023800Y0090690D02*
X0024222Y0090690D01*
X0023800Y0089491D02*
X0025345Y0089491D01*
X0023800Y0088293D02*
X0026943Y0088293D01*
X0028775Y0087094D02*
X0023800Y0087094D01*
X0017200Y0097881D02*
X0017100Y0097881D01*
X0017100Y0099079D02*
X0017200Y0099079D01*
X0016485Y0100278D02*
X0017939Y0100278D01*
X0014983Y0101476D02*
X0014214Y0101476D01*
X0014214Y0102675D02*
X0014983Y0102675D01*
X0014983Y0103873D02*
X0014214Y0103873D01*
X0014214Y0105072D02*
X0007000Y0105072D01*
X0007000Y0106270D02*
X0011030Y0106270D01*
X0011030Y0105585D02*
X0014214Y0105585D01*
X0014214Y0109754D01*
X0012419Y0109754D01*
X0012012Y0109645D01*
X0011647Y0109434D01*
X0011350Y0109136D01*
X0011139Y0108771D01*
X0011030Y0108364D01*
X0011030Y0105585D01*
X0011030Y0103873D02*
X0007000Y0103873D01*
X0007000Y0102675D02*
X0011030Y0102675D01*
X0011228Y0101476D02*
X0007000Y0101476D01*
X0007000Y0100278D02*
X0010515Y0100278D01*
X0009900Y0099079D02*
X0007000Y0099079D01*
X0007000Y0097881D02*
X0009900Y0097881D01*
X0013100Y0097881D02*
X0013900Y0097881D01*
X0013900Y0099079D02*
X0013100Y0099079D01*
X0013100Y0100278D02*
X0013900Y0100278D01*
X0013900Y0095484D02*
X0013100Y0095484D01*
X0013100Y0094285D02*
X0013900Y0094285D01*
X0013900Y0093087D02*
X0013100Y0093087D01*
X0013100Y0091888D02*
X0013900Y0091888D01*
X0013900Y0090690D02*
X0013100Y0090690D01*
X0013100Y0088293D02*
X0013900Y0088293D01*
X0013900Y0087094D02*
X0013100Y0087094D01*
X0007000Y0073911D02*
X0122000Y0073911D01*
X0088839Y0121851D02*
X0086190Y0121851D01*
X0080310Y0121851D02*
X0079940Y0121851D01*
X0079745Y0127844D02*
X0080505Y0127844D01*
X0080125Y0134463D02*
X0079538Y0135050D01*
X0079100Y0135050D01*
X0079100Y0136139D01*
X0079481Y0136521D01*
X0079481Y0146259D01*
X0078720Y0147020D01*
X0079519Y0146259D02*
X0079519Y0136521D01*
X0079900Y0136139D01*
X0079900Y0134880D01*
X0080221Y0134559D01*
X0080125Y0134463D01*
X0079900Y0135035D02*
X0079554Y0135035D01*
X0079806Y0136233D02*
X0079194Y0136233D01*
X0079481Y0137432D02*
X0079519Y0137432D01*
X0079481Y0138630D02*
X0079519Y0138630D01*
X0079481Y0139829D02*
X0079519Y0139829D01*
X0079481Y0141027D02*
X0079519Y0141027D01*
X0079481Y0142226D02*
X0079519Y0142226D01*
X0079481Y0143424D02*
X0079519Y0143424D01*
X0079481Y0144623D02*
X0079519Y0144623D01*
X0079481Y0145821D02*
X0079519Y0145821D01*
X0079519Y0146259D02*
X0080280Y0147020D01*
X0073713Y0167395D02*
X0091136Y0167395D01*
X0089937Y0168593D02*
X0074547Y0168593D01*
X0074700Y0169792D02*
X0082489Y0169792D01*
X0081290Y0170990D02*
X0074305Y0170990D01*
X0074100Y0172189D02*
X0075071Y0172189D01*
X0074519Y0173387D02*
X0074481Y0173387D01*
X0074481Y0174586D02*
X0074519Y0174586D01*
X0074481Y0175784D02*
X0074519Y0175784D01*
X0074481Y0176983D02*
X0074519Y0176983D01*
X0074481Y0178181D02*
X0074519Y0178181D01*
X0074481Y0179380D02*
X0074519Y0179380D01*
X0074481Y0180578D02*
X0074519Y0180578D01*
X0074481Y0181777D02*
X0074519Y0181777D01*
X0074900Y0182975D02*
X0074100Y0182975D01*
X0074644Y0184174D02*
X0074900Y0184174D01*
X0072299Y0187769D02*
X0071850Y0187769D01*
X0071850Y0188900D02*
X0071850Y0190711D01*
X0071741Y0191118D01*
X0071530Y0191482D01*
X0071232Y0191780D01*
X0070868Y0191991D01*
X0070461Y0192100D01*
X0068650Y0192100D01*
X0068650Y0188900D01*
X0071850Y0188900D01*
X0071850Y0188968D02*
X0073498Y0188968D01*
X0074696Y0190166D02*
X0071850Y0190166D01*
X0071598Y0191365D02*
X0075895Y0191365D01*
X0077093Y0192563D02*
X0071152Y0192563D01*
X0070788Y0192200D02*
X0071550Y0192962D01*
X0071550Y0198038D01*
X0070788Y0198800D01*
X0066600Y0198800D01*
X0066600Y0202656D01*
X0066864Y0202920D01*
X0067289Y0203945D01*
X0067289Y0205055D01*
X0066864Y0206080D01*
X0066080Y0206864D01*
X0065055Y0207289D01*
X0063945Y0207289D01*
X0062920Y0206864D01*
X0062136Y0206080D01*
X0061711Y0205055D01*
X0061711Y0203945D01*
X0062136Y0202920D01*
X0062400Y0202656D01*
X0062400Y0198800D01*
X0058212Y0198800D01*
X0057450Y0198038D01*
X0057450Y0192962D01*
X0058212Y0192200D01*
X0063288Y0192200D01*
X0064050Y0192962D01*
X0064050Y0193400D01*
X0064950Y0193400D01*
X0064950Y0192962D01*
X0065712Y0192200D01*
X0070788Y0192200D01*
X0071550Y0193762D02*
X0077400Y0193762D01*
X0077400Y0194960D02*
X0071550Y0194960D01*
X0071550Y0196159D02*
X0076336Y0196159D01*
X0075573Y0197357D02*
X0071550Y0197357D01*
X0071033Y0198556D02*
X0075231Y0198556D01*
X0075231Y0199754D02*
X0066600Y0199754D01*
X0066600Y0200953D02*
X0075231Y0200953D01*
X0075231Y0202151D02*
X0066600Y0202151D01*
X0067042Y0203350D02*
X0075231Y0203350D01*
X0075231Y0204548D02*
X0067289Y0204548D01*
X0067002Y0205747D02*
X0075231Y0205747D01*
X0075699Y0206945D02*
X0065884Y0206945D01*
X0063116Y0206945D02*
X0053301Y0206945D01*
X0053768Y0205747D02*
X0061998Y0205747D01*
X0061711Y0204548D02*
X0053768Y0204548D01*
X0053768Y0203350D02*
X0061958Y0203350D01*
X0062400Y0202151D02*
X0053768Y0202151D01*
X0053768Y0200953D02*
X0062400Y0200953D01*
X0062400Y0199754D02*
X0053768Y0199754D01*
X0053768Y0198556D02*
X0057967Y0198556D01*
X0057450Y0197357D02*
X0053427Y0197357D01*
X0052664Y0196159D02*
X0057450Y0196159D01*
X0057450Y0194960D02*
X0051600Y0194960D01*
X0051600Y0193762D02*
X0057450Y0193762D01*
X0057848Y0192563D02*
X0051907Y0192563D01*
X0053105Y0191365D02*
X0057402Y0191365D01*
X0057470Y0191482D02*
X0057259Y0191118D01*
X0057150Y0190711D01*
X0057150Y0188900D01*
X0060350Y0188900D01*
X0060350Y0192100D01*
X0058539Y0192100D01*
X0058132Y0191991D01*
X0057768Y0191780D01*
X0057470Y0191482D01*
X0057150Y0190166D02*
X0054304Y0190166D01*
X0055502Y0188968D02*
X0057150Y0188968D01*
X0057150Y0187769D02*
X0056701Y0187769D01*
X0054356Y0184174D02*
X0054100Y0184174D01*
X0054100Y0182975D02*
X0054900Y0182975D01*
X0054519Y0181777D02*
X0054481Y0181777D01*
X0054481Y0180578D02*
X0054519Y0180578D01*
X0054481Y0179380D02*
X0054519Y0179380D01*
X0054481Y0178181D02*
X0054519Y0178181D01*
X0054481Y0176983D02*
X0054519Y0176983D01*
X0054481Y0175784D02*
X0054519Y0175784D01*
X0054481Y0174586D02*
X0054519Y0174586D01*
X0054481Y0173387D02*
X0054519Y0173387D01*
X0054900Y0172189D02*
X0053929Y0172189D01*
X0054695Y0170990D02*
X0048710Y0170990D01*
X0049100Y0172189D02*
X0050071Y0172189D01*
X0049519Y0173387D02*
X0049481Y0173387D01*
X0049481Y0174586D02*
X0049519Y0174586D01*
X0049481Y0175784D02*
X0049519Y0175784D01*
X0049481Y0176983D02*
X0049519Y0176983D01*
X0049481Y0178181D02*
X0049519Y0178181D01*
X0049481Y0179380D02*
X0049519Y0179380D01*
X0049481Y0180578D02*
X0049519Y0180578D01*
X0049481Y0181777D02*
X0049519Y0181777D01*
X0049900Y0182975D02*
X0049100Y0182975D01*
X0049100Y0184174D02*
X0049356Y0184174D01*
X0047400Y0192563D02*
X0046907Y0192563D01*
X0047400Y0193762D02*
X0045708Y0193762D01*
X0047400Y0194960D02*
X0042010Y0194960D01*
X0042664Y0196159D02*
X0046336Y0196159D01*
X0045573Y0197357D02*
X0043427Y0197357D01*
X0043768Y0198556D02*
X0045231Y0198556D01*
X0045231Y0199754D02*
X0043768Y0199754D01*
X0043768Y0200953D02*
X0045231Y0200953D01*
X0045231Y0202151D02*
X0043768Y0202151D01*
X0043768Y0203350D02*
X0045231Y0203350D01*
X0045231Y0204548D02*
X0043768Y0204548D01*
X0043768Y0205747D02*
X0045231Y0205747D01*
X0045699Y0206945D02*
X0043301Y0206945D01*
X0042361Y0208144D02*
X0046639Y0208144D01*
X0052361Y0208144D02*
X0076639Y0208144D01*
X0082361Y0208144D02*
X0086639Y0208144D01*
X0085699Y0206945D02*
X0083301Y0206945D01*
X0083768Y0205747D02*
X0085231Y0205747D01*
X0085231Y0204548D02*
X0083768Y0204548D01*
X0083768Y0203350D02*
X0085231Y0203350D01*
X0085231Y0202151D02*
X0083768Y0202151D01*
X0083768Y0200953D02*
X0085231Y0200953D01*
X0085231Y0199754D02*
X0083768Y0199754D01*
X0083768Y0198556D02*
X0085231Y0198556D01*
X0085573Y0197357D02*
X0083427Y0197357D01*
X0082664Y0196159D02*
X0086336Y0196159D01*
X0086990Y0194960D02*
X0081600Y0194960D01*
X0081600Y0193762D02*
X0083292Y0193762D01*
X0082093Y0192563D02*
X0081600Y0192563D01*
X0079900Y0184174D02*
X0079644Y0184174D01*
X0079900Y0182975D02*
X0079100Y0182975D01*
X0079481Y0181777D02*
X0079519Y0181777D01*
X0079481Y0180578D02*
X0079519Y0180578D01*
X0079481Y0179380D02*
X0079519Y0179380D01*
X0079481Y0178181D02*
X0079519Y0178181D01*
X0079481Y0176983D02*
X0079519Y0176983D01*
X0079481Y0175784D02*
X0079519Y0175784D01*
X0079481Y0174586D02*
X0079519Y0174586D01*
X0079481Y0173387D02*
X0079519Y0173387D01*
X0080071Y0172189D02*
X0078929Y0172189D01*
X0069900Y0172189D02*
X0069353Y0172189D01*
X0069695Y0170990D02*
X0059305Y0170990D01*
X0059100Y0172189D02*
X0059647Y0172189D01*
X0059700Y0169792D02*
X0069300Y0169792D01*
X0069453Y0168593D02*
X0059547Y0168593D01*
X0058713Y0167395D02*
X0070287Y0167395D01*
X0067000Y0172189D02*
X0067000Y0172189D01*
X0067000Y0173387D02*
X0067000Y0173387D01*
X0067000Y0174586D02*
X0067000Y0174586D01*
X0067000Y0175784D02*
X0067000Y0175784D01*
X0067000Y0176983D02*
X0067000Y0176983D01*
X0067000Y0177610D02*
X0067000Y0177610D01*
X0067000Y0178181D02*
X0067000Y0178181D01*
X0067000Y0179380D02*
X0067000Y0179380D01*
X0067000Y0180578D02*
X0067000Y0180578D01*
X0067000Y0181777D02*
X0067000Y0181777D01*
X0067000Y0182975D02*
X0067000Y0182975D01*
X0067850Y0184900D02*
X0066039Y0184900D01*
X0065632Y0185009D01*
X0065268Y0185220D01*
X0064970Y0185518D01*
X0064759Y0185882D01*
X0064650Y0186289D01*
X0064650Y0188100D01*
X0067850Y0188100D01*
X0067850Y0184900D01*
X0067850Y0185372D02*
X0068650Y0185372D01*
X0068650Y0186571D02*
X0067850Y0186571D01*
X0067850Y0187769D02*
X0068650Y0187769D01*
X0068650Y0188968D02*
X0067850Y0188968D01*
X0067850Y0190166D02*
X0068650Y0190166D01*
X0068650Y0191365D02*
X0067850Y0191365D01*
X0065348Y0192563D02*
X0063652Y0192563D01*
X0063368Y0191991D02*
X0062961Y0192100D01*
X0061150Y0192100D01*
X0061150Y0188900D01*
X0060350Y0188900D01*
X0060350Y0188100D01*
X0061150Y0188100D01*
X0061150Y0188900D01*
X0064350Y0188900D01*
X0064350Y0190711D01*
X0064241Y0191118D01*
X0064030Y0191482D01*
X0063732Y0191780D01*
X0063368Y0191991D01*
X0064098Y0191365D02*
X0064902Y0191365D01*
X0064650Y0190166D02*
X0064350Y0190166D01*
X0064350Y0188968D02*
X0064650Y0188968D01*
X0064350Y0188100D02*
X0064350Y0186289D01*
X0064241Y0185882D01*
X0064030Y0185518D01*
X0063732Y0185220D01*
X0063368Y0185009D01*
X0062961Y0184900D01*
X0061150Y0184900D01*
X0061150Y0188100D01*
X0064350Y0188100D01*
X0064350Y0187769D02*
X0064650Y0187769D01*
X0064650Y0186571D02*
X0064350Y0186571D01*
X0063885Y0185372D02*
X0065115Y0185372D01*
X0064590Y0182975D02*
X0064410Y0182975D01*
X0062000Y0182975D02*
X0062000Y0182975D01*
X0062000Y0181777D02*
X0062000Y0181777D01*
X0062000Y0180578D02*
X0062000Y0180578D01*
X0062000Y0179380D02*
X0062000Y0179380D01*
X0062000Y0178181D02*
X0062000Y0178181D01*
X0062000Y0177610D02*
X0062000Y0177610D01*
X0062000Y0176983D02*
X0062000Y0176983D01*
X0062000Y0175784D02*
X0062000Y0175784D01*
X0062000Y0174586D02*
X0062000Y0174586D01*
X0062000Y0173387D02*
X0062000Y0173387D01*
X0062000Y0172189D02*
X0062000Y0172189D01*
X0064353Y0172189D02*
X0064647Y0172189D01*
X0069410Y0182975D02*
X0069900Y0182975D01*
X0069900Y0184174D02*
X0059100Y0184174D01*
X0059100Y0182975D02*
X0059590Y0182975D01*
X0060350Y0185372D02*
X0061150Y0185372D01*
X0061150Y0186571D02*
X0060350Y0186571D01*
X0060350Y0187769D02*
X0061150Y0187769D01*
X0061150Y0188968D02*
X0060350Y0188968D01*
X0060350Y0190166D02*
X0061150Y0190166D01*
X0061150Y0191365D02*
X0060350Y0191365D01*
X0054300Y0169792D02*
X0047511Y0169792D01*
X0054453Y0168593D02*
X0039063Y0168593D01*
X0037864Y0167395D02*
X0055287Y0167395D01*
X0047000Y0147020D02*
X0047000Y0147020D01*
X0040280Y0147020D02*
X0039519Y0146259D01*
X0039519Y0143490D01*
X0039020Y0143490D01*
X0036380Y0140850D01*
X0032375Y0140850D01*
X0032375Y0141141D01*
X0032052Y0141464D01*
X0032800Y0142212D01*
X0032800Y0147288D01*
X0032800Y0145821D02*
X0039519Y0145821D01*
X0039519Y0144623D02*
X0032800Y0144623D01*
X0032800Y0143424D02*
X0038954Y0143424D01*
X0037756Y0142226D02*
X0032800Y0142226D01*
X0032375Y0141027D02*
X0036557Y0141027D01*
X0038902Y0137432D02*
X0039519Y0137432D01*
X0032800Y0154211D02*
X0096200Y0154211D01*
X0097400Y0155409D02*
X0031600Y0155409D01*
X0031600Y0156608D02*
X0097400Y0156608D01*
X0097400Y0157806D02*
X0031600Y0157806D01*
X0031600Y0159005D02*
X0097400Y0159005D01*
X0097400Y0160203D02*
X0031600Y0160203D01*
X0031872Y0161402D02*
X0097128Y0161402D01*
X0095930Y0162601D02*
X0033070Y0162601D01*
X0034269Y0163799D02*
X0094731Y0163799D01*
X0093533Y0164998D02*
X0035467Y0164998D01*
X0036666Y0166196D02*
X0092334Y0166196D01*
X0094678Y0169792D02*
X0122000Y0169792D01*
X0122000Y0170990D02*
X0093480Y0170990D01*
X0092281Y0172189D02*
X0122000Y0172189D01*
X0122000Y0173387D02*
X0089481Y0173387D01*
X0089481Y0174586D02*
X0122000Y0174586D01*
X0122000Y0175784D02*
X0089481Y0175784D01*
X0089481Y0176983D02*
X0122000Y0176983D01*
X0122000Y0178181D02*
X0089481Y0178181D01*
X0089481Y0179380D02*
X0122000Y0179380D01*
X0122000Y0180578D02*
X0089481Y0180578D01*
X0089481Y0181777D02*
X0122000Y0181777D01*
X0122000Y0182975D02*
X0089100Y0182975D01*
X0089644Y0184174D02*
X0122000Y0184174D01*
X0122000Y0185372D02*
X0108342Y0185372D01*
X0109541Y0186571D02*
X0122000Y0186571D01*
X0122000Y0187769D02*
X0110739Y0187769D01*
X0111600Y0188968D02*
X0122000Y0188968D01*
X0122000Y0190166D02*
X0111600Y0190166D01*
X0111600Y0191365D02*
X0122000Y0191365D01*
X0122000Y0192563D02*
X0111600Y0192563D01*
X0111600Y0193762D02*
X0122000Y0193762D01*
X0122000Y0194960D02*
X0111600Y0194960D01*
X0112664Y0196159D02*
X0122000Y0196159D01*
X0122000Y0197357D02*
X0113427Y0197357D01*
X0113768Y0198556D02*
X0122000Y0198556D01*
X0122000Y0199754D02*
X0113768Y0199754D01*
X0113768Y0200953D02*
X0122000Y0200953D01*
X0122000Y0202151D02*
X0113768Y0202151D01*
X0113768Y0203350D02*
X0122000Y0203350D01*
X0122000Y0204548D02*
X0113768Y0204548D01*
X0113768Y0205747D02*
X0122000Y0205747D01*
X0122000Y0206945D02*
X0113301Y0206945D01*
X0112361Y0208144D02*
X0122000Y0208144D01*
X0122000Y0209342D02*
X0007000Y0209342D01*
X0007000Y0208144D02*
X0016639Y0208144D01*
X0015699Y0206945D02*
X0007000Y0206945D01*
X0007000Y0205747D02*
X0015231Y0205747D01*
X0015231Y0204548D02*
X0007000Y0204548D01*
X0007000Y0203350D02*
X0015231Y0203350D01*
X0015231Y0202151D02*
X0007000Y0202151D01*
X0007000Y0200953D02*
X0015231Y0200953D01*
X0015231Y0199754D02*
X0007000Y0199754D01*
X0007000Y0198556D02*
X0015231Y0198556D01*
X0015573Y0197357D02*
X0007000Y0197357D01*
X0007000Y0196159D02*
X0016336Y0196159D01*
X0017400Y0194960D02*
X0007000Y0194960D01*
X0007000Y0193762D02*
X0017400Y0193762D01*
X0017400Y0192563D02*
X0007000Y0192563D01*
X0007000Y0191365D02*
X0017400Y0191365D01*
X0017400Y0190166D02*
X0007000Y0190166D01*
X0007000Y0188968D02*
X0017400Y0188968D01*
X0018261Y0187769D02*
X0007000Y0187769D01*
X0007000Y0186571D02*
X0019459Y0186571D01*
X0020658Y0185372D02*
X0007000Y0185372D01*
X0007000Y0184174D02*
X0039356Y0184174D01*
X0039900Y0182975D02*
X0007000Y0182975D01*
X0007000Y0181777D02*
X0039519Y0181777D01*
X0039519Y0180578D02*
X0007000Y0180578D01*
X0007000Y0179380D02*
X0039519Y0179380D01*
X0039519Y0178181D02*
X0007000Y0178181D01*
X0007000Y0176983D02*
X0039519Y0176983D01*
X0039519Y0175784D02*
X0007000Y0175784D01*
X0007000Y0174586D02*
X0039519Y0174586D01*
X0039519Y0173387D02*
X0007000Y0173387D01*
X0007000Y0172189D02*
X0036719Y0172189D01*
X0035520Y0170990D02*
X0007000Y0170990D01*
X0007000Y0169792D02*
X0034322Y0169792D01*
X0033123Y0168593D02*
X0007000Y0168593D01*
X0007000Y0167395D02*
X0031925Y0167395D01*
X0030726Y0166196D02*
X0007000Y0166196D01*
X0007000Y0164998D02*
X0029528Y0164998D01*
X0028329Y0163799D02*
X0007000Y0163799D01*
X0007000Y0162601D02*
X0027400Y0162601D01*
X0027400Y0161402D02*
X0007000Y0161402D01*
X0007000Y0160203D02*
X0027400Y0160203D01*
X0027400Y0159005D02*
X0007000Y0159005D01*
X0007000Y0157806D02*
X0027400Y0157806D01*
X0027400Y0156608D02*
X0007000Y0156608D01*
X0007000Y0155409D02*
X0027400Y0155409D01*
X0026200Y0154211D02*
X0007000Y0154211D01*
X0007000Y0153012D02*
X0026200Y0153012D01*
X0026200Y0151814D02*
X0007000Y0151814D01*
X0007000Y0150615D02*
X0026200Y0150615D01*
X0026200Y0149417D02*
X0007000Y0149417D01*
X0007000Y0133836D02*
X0023607Y0133836D01*
X0022610Y0132638D02*
X0007000Y0132638D01*
X0007000Y0131439D02*
X0022585Y0131439D01*
X0022585Y0130241D02*
X0007000Y0130241D01*
X0007000Y0129042D02*
X0022585Y0129042D01*
X0022885Y0127844D02*
X0007000Y0127844D01*
X0007000Y0124248D02*
X0017132Y0124248D01*
X0015933Y0123050D02*
X0007000Y0123050D01*
X0007000Y0121851D02*
X0015316Y0121851D01*
X0014869Y0120653D02*
X0007000Y0120653D01*
X0007000Y0119454D02*
X0014869Y0119454D01*
X0014869Y0118256D02*
X0007000Y0118256D01*
X0007000Y0117057D02*
X0014869Y0117057D01*
X0014869Y0115859D02*
X0007000Y0115859D01*
X0007000Y0114660D02*
X0014869Y0114660D01*
X0014869Y0113462D02*
X0007000Y0113462D01*
X0007000Y0112263D02*
X0015020Y0112263D01*
X0015517Y0111065D02*
X0007000Y0111065D01*
X0007000Y0109866D02*
X0016419Y0109866D01*
X0014983Y0108668D02*
X0014214Y0108668D01*
X0014214Y0107469D02*
X0014983Y0107469D01*
X0014983Y0106270D02*
X0014214Y0106270D01*
X0011030Y0107469D02*
X0007000Y0107469D01*
X0007000Y0108668D02*
X0011111Y0108668D01*
X0034854Y0054734D02*
X0036646Y0054734D01*
X0048894Y0055933D02*
X0049682Y0055933D01*
X0064940Y0121851D02*
X0067810Y0121851D01*
X0067450Y0123050D02*
X0067269Y0123050D01*
X0064900Y0127844D02*
X0064745Y0127844D01*
X0095877Y0168593D02*
X0122000Y0168593D01*
X0122000Y0167395D02*
X0097075Y0167395D01*
X0098274Y0166196D02*
X0122000Y0166196D01*
X0122000Y0164998D02*
X0099472Y0164998D01*
X0100671Y0163799D02*
X0122000Y0163799D01*
X0122000Y0162601D02*
X0101600Y0162601D01*
X0101600Y0161402D02*
X0122000Y0161402D01*
X0122000Y0160203D02*
X0101600Y0160203D01*
X0101600Y0159005D02*
X0122000Y0159005D01*
X0122000Y0157806D02*
X0101600Y0157806D01*
X0101600Y0156608D02*
X0122000Y0156608D01*
X0122000Y0155409D02*
X0101600Y0155409D01*
X0102800Y0154211D02*
X0122000Y0154211D01*
X0122000Y0153012D02*
X0102800Y0153012D01*
X0102800Y0151814D02*
X0122000Y0151814D01*
X0122000Y0150615D02*
X0102800Y0150615D01*
X0102800Y0149417D02*
X0122000Y0149417D01*
X0107196Y0190166D02*
X0100636Y0190166D01*
X0101600Y0191365D02*
X0107400Y0191365D01*
X0107400Y0192563D02*
X0101600Y0192563D01*
X0101600Y0193762D02*
X0107400Y0193762D01*
X0107400Y0194960D02*
X0101600Y0194960D01*
X0102664Y0196159D02*
X0106336Y0196159D01*
X0105573Y0197357D02*
X0103427Y0197357D01*
X0103768Y0198556D02*
X0105231Y0198556D01*
X0105231Y0199754D02*
X0103768Y0199754D01*
X0103768Y0200953D02*
X0105231Y0200953D01*
X0105231Y0202151D02*
X0103768Y0202151D01*
X0103768Y0203350D02*
X0105231Y0203350D01*
X0105231Y0204548D02*
X0103768Y0204548D01*
X0103768Y0205747D02*
X0105231Y0205747D01*
X0105699Y0206945D02*
X0103301Y0206945D01*
X0102361Y0208144D02*
X0106639Y0208144D01*
X0113241Y0220446D02*
X0113241Y0220446D01*
X0117101Y0221328D02*
X0122000Y0221328D01*
X0122000Y0222526D02*
X0119760Y0222526D01*
X0118065Y0221547D02*
X0118065Y0221547D01*
X0122000Y0220129D02*
X0007000Y0220129D01*
X0007000Y0218931D02*
X0122000Y0218931D01*
X0122000Y0217732D02*
X0007000Y0217732D01*
X0007000Y0216534D02*
X0122000Y0216534D01*
X0122000Y0215335D02*
X0007000Y0215335D01*
X0007000Y0214137D02*
X0122000Y0214137D01*
X0122000Y0212938D02*
X0007000Y0212938D01*
X0007000Y0211739D02*
X0122000Y0211739D01*
X0122000Y0210541D02*
X0007000Y0210541D01*
X0007000Y0221328D02*
X0012003Y0221328D01*
X0008949Y0222526D02*
X0007000Y0222526D01*
X0007000Y0223725D02*
X0007320Y0223725D01*
X0008700Y0222624D02*
X0008700Y0222624D01*
X0018241Y0220446D02*
X0018241Y0220446D01*
X0022101Y0221328D02*
X0107003Y0221328D01*
X0103949Y0222526D02*
X0024760Y0222526D01*
X0026835Y0223725D02*
X0102320Y0223725D01*
X0103700Y0222624D02*
X0103700Y0222624D01*
X0100817Y0224923D02*
X0028186Y0224923D01*
X0027350Y0224022D02*
X0027350Y0224022D01*
X0029298Y0226122D02*
X0099550Y0226122D01*
X0098733Y0227320D02*
X0030411Y0227320D01*
X0030716Y0227649D02*
X0030716Y0227649D01*
X0031134Y0228519D02*
X0097916Y0228519D01*
X0097099Y0229717D02*
X0031712Y0229717D01*
X0032289Y0230916D02*
X0096699Y0230916D01*
X0096329Y0232114D02*
X0032864Y0232114D01*
X0032863Y0232107D02*
X0032863Y0232107D01*
X0033044Y0233313D02*
X0095960Y0233313D01*
X0095590Y0234511D02*
X0033225Y0234511D01*
X0033405Y0235710D02*
X0095585Y0235710D01*
X0095585Y0236908D02*
X0033586Y0236908D01*
X0033433Y0238107D02*
X0095585Y0238107D01*
X0095585Y0239305D02*
X0033253Y0239305D01*
X0033072Y0240504D02*
X0095903Y0240504D01*
X0096273Y0241702D02*
X0032891Y0241702D01*
X0032377Y0242901D02*
X0096642Y0242901D01*
X0097012Y0244099D02*
X0031800Y0244099D01*
X0031223Y0245298D02*
X0097791Y0245298D01*
X0097044Y0244202D02*
X0097044Y0244202D01*
X0098608Y0246496D02*
X0030581Y0246496D01*
X0023065Y0221547D02*
X0023065Y0221547D01*
X0022361Y0208144D02*
X0026639Y0208144D01*
X0025699Y0206945D02*
X0023301Y0206945D01*
X0023768Y0205747D02*
X0025231Y0205747D01*
X0025231Y0204548D02*
X0023768Y0204548D01*
X0023768Y0203350D02*
X0025231Y0203350D01*
X0025231Y0202151D02*
X0023768Y0202151D01*
X0023768Y0200953D02*
X0025231Y0200953D01*
X0025231Y0199754D02*
X0023768Y0199754D01*
X0023768Y0198556D02*
X0025231Y0198556D01*
X0025573Y0197357D02*
X0023427Y0197357D01*
X0022664Y0196159D02*
X0026336Y0196159D01*
X0027400Y0194960D02*
X0021600Y0194960D01*
X0021600Y0193762D02*
X0027400Y0193762D01*
X0027400Y0192563D02*
X0021600Y0192563D01*
X0021600Y0191365D02*
X0027400Y0191365D01*
X0028114Y0190166D02*
X0021804Y0190166D01*
X0031657Y0192563D02*
X0038467Y0192563D01*
X0037400Y0193762D02*
X0031600Y0193762D01*
X0031600Y0194960D02*
X0037400Y0194960D01*
X0036336Y0196159D02*
X0032664Y0196159D01*
X0033427Y0197357D02*
X0035573Y0197357D01*
X0035231Y0198556D02*
X0033768Y0198556D01*
X0033768Y0199754D02*
X0035231Y0199754D01*
X0035231Y0200953D02*
X0033768Y0200953D01*
X0033768Y0202151D02*
X0035231Y0202151D01*
X0035231Y0203350D02*
X0033768Y0203350D01*
X0033768Y0204548D02*
X0035231Y0204548D01*
X0035231Y0205747D02*
X0033768Y0205747D01*
X0033301Y0206945D02*
X0035699Y0206945D01*
X0036639Y0208144D02*
X0032361Y0208144D01*
X0090533Y0192563D02*
X0097093Y0192563D01*
X0097400Y0193762D02*
X0091600Y0193762D01*
X0091600Y0194960D02*
X0097400Y0194960D01*
X0096336Y0196159D02*
X0092664Y0196159D01*
X0093427Y0197357D02*
X0095573Y0197357D01*
X0095231Y0198556D02*
X0093768Y0198556D01*
X0093768Y0199754D02*
X0095231Y0199754D01*
X0095231Y0200953D02*
X0093768Y0200953D01*
X0093768Y0202151D02*
X0095231Y0202151D01*
X0095231Y0203350D02*
X0093768Y0203350D01*
X0093768Y0204548D02*
X0095231Y0204548D01*
X0095231Y0205747D02*
X0093768Y0205747D01*
X0093301Y0206945D02*
X0095699Y0206945D01*
X0096639Y0208144D02*
X0092361Y0208144D01*
X0121836Y0223725D02*
X0122000Y0223725D01*
X0014884Y0048742D02*
X0014116Y0048742D01*
D21*
X0020500Y0089500D02*
X0020500Y0097000D01*
X0020500Y0106201D01*
X0020500Y0116701D01*
X0023951Y0113250D01*
X0028000Y0113250D01*
X0026402Y0105201D02*
X0026500Y0105102D01*
X0026500Y0091750D01*
X0029500Y0089500D01*
X0049500Y0089500D01*
X0052000Y0092000D01*
X0052000Y0097610D01*
M02*
