G75*
%MOIN*%
%OFA0B0*%
%FSLAX25Y25*%
%IPPOS*%
%LPD*%
%AMOC8*
5,1,8,0,0,1.08239X$1,22.5*
%
%ADD10C,0.05937*%
%ADD11OC8,0.06600*%
%ADD12C,0.01200*%
%ADD13C,0.02800*%
%ADD14C,0.02978*%
%ADD15C,0.02400*%
%ADD16C,0.01600*%
D10*
X0011531Y0054500D02*
X0017469Y0054500D01*
X0017469Y0064500D02*
X0011531Y0064500D01*
X0011531Y0074500D02*
X0017469Y0074500D01*
X0017469Y0084500D02*
X0011531Y0084500D01*
X0049500Y0017469D02*
X0049500Y0011531D01*
X0059500Y0011531D02*
X0059500Y0017469D01*
X0104500Y0017469D02*
X0104500Y0011531D01*
X0114500Y0011531D02*
X0114500Y0017469D01*
X0154500Y0017469D02*
X0154500Y0011531D01*
X0164500Y0011531D02*
X0164500Y0017469D01*
X0122000Y0096531D02*
X0122000Y0102469D01*
X0112000Y0102469D02*
X0112000Y0096531D01*
X0102000Y0096531D02*
X0102000Y0102469D01*
X0092000Y0102469D02*
X0092000Y0096531D01*
X0092000Y0311531D02*
X0092000Y0317469D01*
X0102000Y0317469D02*
X0102000Y0311531D01*
X0117000Y0311531D02*
X0117000Y0317469D01*
X0127000Y0317469D02*
X0127000Y0311531D01*
X0149500Y0311531D02*
X0149500Y0317469D01*
X0159500Y0317469D02*
X0159500Y0311531D01*
X0189500Y0311531D02*
X0189500Y0317469D01*
X0199500Y0317469D02*
X0199500Y0311531D01*
X0077000Y0311531D02*
X0077000Y0317469D01*
X0067000Y0317469D02*
X0067000Y0311531D01*
X0052000Y0311531D02*
X0052000Y0317469D01*
X0042000Y0317469D02*
X0042000Y0311531D01*
D11*
X0166000Y0204500D03*
X0166000Y0194500D03*
X0166000Y0184500D03*
D12*
X0007000Y0073907D02*
X0007000Y0030020D01*
X0008700Y0031376D01*
X0008700Y0031376D01*
X0013306Y0033184D01*
X0013306Y0033184D01*
X0018241Y0033554D01*
X0018241Y0033554D01*
X0023065Y0032452D01*
X0023065Y0032452D01*
X0027350Y0029978D01*
X0027350Y0029978D01*
X0030716Y0026351D01*
X0030716Y0026351D01*
X0032863Y0021893D01*
X0032863Y0021893D01*
X0033600Y0017000D01*
X0032863Y0012107D01*
X0032863Y0012107D01*
X0030716Y0007649D01*
X0030716Y0007649D01*
X0030113Y0007000D01*
X0048907Y0007000D01*
X0048430Y0007075D01*
X0047746Y0007298D01*
X0047106Y0007624D01*
X0046524Y0008047D01*
X0046015Y0008555D01*
X0045593Y0009137D01*
X0045266Y0009778D01*
X0045044Y0010462D01*
X0044931Y0011172D01*
X0044931Y0014116D01*
X0049116Y0014116D01*
X0049116Y0014884D01*
X0044931Y0014884D01*
X0044931Y0017828D01*
X0045044Y0018538D01*
X0045266Y0019222D01*
X0045593Y0019863D01*
X0046015Y0020445D01*
X0046524Y0020953D01*
X0047106Y0021376D01*
X0047746Y0021702D01*
X0048430Y0021925D01*
X0049116Y0022033D01*
X0049116Y0014884D01*
X0049884Y0014884D01*
X0049884Y0022033D01*
X0050570Y0021925D01*
X0051254Y0021702D01*
X0051894Y0021376D01*
X0052476Y0020953D01*
X0052985Y0020445D01*
X0053407Y0019863D01*
X0053734Y0019222D01*
X0053956Y0018538D01*
X0054068Y0017828D01*
X0054068Y0014884D01*
X0049884Y0014884D01*
X0049884Y0014116D01*
X0054068Y0014116D01*
X0054068Y0011172D01*
X0053956Y0010462D01*
X0053734Y0009778D01*
X0053407Y0009137D01*
X0052985Y0008555D01*
X0052476Y0008047D01*
X0051894Y0007624D01*
X0051254Y0007298D01*
X0050570Y0007075D01*
X0050093Y0007000D01*
X0103907Y0007000D01*
X0103430Y0007075D01*
X0102746Y0007298D01*
X0102106Y0007624D01*
X0101524Y0008047D01*
X0101015Y0008555D01*
X0100593Y0009137D01*
X0100266Y0009778D01*
X0100044Y0010462D01*
X0099931Y0011172D01*
X0099931Y0014116D01*
X0104116Y0014116D01*
X0104116Y0014884D01*
X0099931Y0014884D01*
X0099931Y0017828D01*
X0100044Y0018538D01*
X0100266Y0019222D01*
X0100593Y0019863D01*
X0101015Y0020445D01*
X0101524Y0020953D01*
X0102106Y0021376D01*
X0102746Y0021702D01*
X0103430Y0021925D01*
X0104116Y0022033D01*
X0104116Y0014884D01*
X0104884Y0014884D01*
X0109068Y0014884D01*
X0109068Y0017828D01*
X0108956Y0018538D01*
X0108734Y0019222D01*
X0108407Y0019863D01*
X0107985Y0020445D01*
X0107476Y0020953D01*
X0106894Y0021376D01*
X0106254Y0021702D01*
X0105570Y0021925D01*
X0104884Y0022033D01*
X0104884Y0014884D01*
X0104884Y0014116D01*
X0109068Y0014116D01*
X0109068Y0011172D01*
X0108956Y0010462D01*
X0108734Y0009778D01*
X0108407Y0009137D01*
X0107985Y0008555D01*
X0107476Y0008047D01*
X0106894Y0007624D01*
X0106254Y0007298D01*
X0105570Y0007075D01*
X0105093Y0007000D01*
X0153907Y0007000D01*
X0153430Y0007075D01*
X0152746Y0007298D01*
X0152106Y0007624D01*
X0151524Y0008047D01*
X0151015Y0008555D01*
X0150593Y0009137D01*
X0150266Y0009778D01*
X0150044Y0010462D01*
X0149931Y0011172D01*
X0149931Y0014116D01*
X0154116Y0014116D01*
X0154116Y0014884D01*
X0149931Y0014884D01*
X0149931Y0017828D01*
X0150044Y0018538D01*
X0150266Y0019222D01*
X0150593Y0019863D01*
X0151015Y0020445D01*
X0151524Y0020953D01*
X0152106Y0021376D01*
X0152746Y0021702D01*
X0153430Y0021925D01*
X0154116Y0022033D01*
X0154116Y0014884D01*
X0154884Y0014884D01*
X0154884Y0022033D01*
X0155570Y0021925D01*
X0156254Y0021702D01*
X0156894Y0021376D01*
X0157476Y0020953D01*
X0157985Y0020445D01*
X0158407Y0019863D01*
X0158734Y0019222D01*
X0158956Y0018538D01*
X0159068Y0017828D01*
X0159068Y0014884D01*
X0154884Y0014884D01*
X0154884Y0014116D01*
X0159068Y0014116D01*
X0159068Y0011172D01*
X0158956Y0010462D01*
X0158734Y0009778D01*
X0158407Y0009137D01*
X0157985Y0008555D01*
X0157476Y0008047D01*
X0156894Y0007624D01*
X0156254Y0007298D01*
X0155570Y0007075D01*
X0155093Y0007000D01*
X0223951Y0007000D01*
X0222044Y0009798D01*
X0222044Y0009798D01*
X0220585Y0014526D01*
X0220585Y0019474D01*
X0220585Y0019474D01*
X0222044Y0024202D01*
X0224831Y0028291D01*
X0224831Y0028291D01*
X0228700Y0031376D01*
X0233306Y0033184D01*
X0233306Y0033184D01*
X0238241Y0033554D01*
X0238241Y0033554D01*
X0243065Y0032452D01*
X0243065Y0032452D01*
X0247000Y0030180D01*
X0247000Y0132000D01*
X0007000Y0132000D01*
X0007000Y0075093D01*
X0007075Y0075570D01*
X0007298Y0076254D01*
X0007624Y0076894D01*
X0008047Y0077476D01*
X0008555Y0077985D01*
X0009137Y0078407D01*
X0009778Y0078734D01*
X0010462Y0078956D01*
X0011172Y0079068D01*
X0014116Y0079068D01*
X0014116Y0074884D01*
X0014884Y0074884D01*
X0014884Y0079068D01*
X0017828Y0079068D01*
X0018538Y0078956D01*
X0019222Y0078734D01*
X0019863Y0078407D01*
X0020445Y0077985D01*
X0020953Y0077476D01*
X0021376Y0076894D01*
X0021702Y0076254D01*
X0021925Y0075570D01*
X0022033Y0074884D01*
X0014884Y0074884D01*
X0014884Y0074116D01*
X0014884Y0069931D01*
X0017828Y0069931D01*
X0018538Y0070044D01*
X0019222Y0070266D01*
X0019863Y0070593D01*
X0020445Y0071015D01*
X0020953Y0071524D01*
X0021376Y0072106D01*
X0021702Y0072746D01*
X0021925Y0073430D01*
X0022033Y0074116D01*
X0014884Y0074116D01*
X0014116Y0074116D01*
X0014116Y0069931D01*
X0011172Y0069931D01*
X0010462Y0070044D01*
X0009778Y0070266D01*
X0009137Y0070593D01*
X0008555Y0071015D01*
X0008047Y0071524D01*
X0007624Y0072106D01*
X0007298Y0072746D01*
X0007075Y0073430D01*
X0007000Y0073907D01*
X0007000Y0072712D02*
X0007315Y0072712D01*
X0007000Y0071514D02*
X0008057Y0071514D01*
X0007000Y0070315D02*
X0009682Y0070315D01*
X0010682Y0068768D02*
X0009114Y0068119D01*
X0007913Y0066918D01*
X0007263Y0065349D01*
X0007263Y0063651D01*
X0007913Y0062082D01*
X0009114Y0060881D01*
X0010682Y0060231D01*
X0018318Y0060231D01*
X0019886Y0060881D01*
X0021087Y0062082D01*
X0021737Y0063651D01*
X0021737Y0065349D01*
X0021087Y0066918D01*
X0019886Y0068119D01*
X0018318Y0068768D01*
X0010682Y0068768D01*
X0008913Y0067918D02*
X0007000Y0067918D01*
X0007000Y0066720D02*
X0007831Y0066720D01*
X0007334Y0065521D02*
X0007000Y0065521D01*
X0007000Y0064323D02*
X0007263Y0064323D01*
X0007481Y0063124D02*
X0007000Y0063124D01*
X0007000Y0061926D02*
X0008069Y0061926D01*
X0007000Y0060727D02*
X0009486Y0060727D01*
X0010682Y0058768D02*
X0009114Y0058119D01*
X0007913Y0056918D01*
X0007263Y0055349D01*
X0007263Y0053651D01*
X0007913Y0052082D01*
X0009114Y0050881D01*
X0010682Y0050231D01*
X0018318Y0050231D01*
X0019886Y0050881D01*
X0021087Y0052082D01*
X0021737Y0053651D01*
X0021737Y0055349D01*
X0021087Y0056918D01*
X0019886Y0058119D01*
X0018318Y0058768D01*
X0010682Y0058768D01*
X0009624Y0058330D02*
X0007000Y0058330D01*
X0007000Y0057132D02*
X0008126Y0057132D01*
X0007505Y0055933D02*
X0007000Y0055933D01*
X0007000Y0054734D02*
X0007263Y0054734D01*
X0007311Y0053536D02*
X0007000Y0053536D01*
X0007000Y0052337D02*
X0007807Y0052337D01*
X0007000Y0051139D02*
X0008856Y0051139D01*
X0007000Y0049940D02*
X0043067Y0049940D01*
X0042961Y0050195D02*
X0043386Y0049170D01*
X0044170Y0048386D01*
X0045195Y0047961D01*
X0046305Y0047961D01*
X0047330Y0048386D01*
X0047594Y0048650D01*
X0111620Y0048650D01*
X0119681Y0056711D01*
X0120055Y0056711D01*
X0121080Y0057136D01*
X0121344Y0057400D01*
X0131442Y0057400D01*
X0146858Y0048591D01*
X0147136Y0047920D01*
X0147920Y0047136D01*
X0148945Y0046711D01*
X0150055Y0046711D01*
X0151080Y0047136D01*
X0151864Y0047920D01*
X0152289Y0048945D01*
X0152289Y0050055D01*
X0151864Y0051080D01*
X0151080Y0051864D01*
X0150055Y0052289D01*
X0148945Y0052289D01*
X0148891Y0052267D01*
X0133286Y0061184D01*
X0132870Y0061600D01*
X0132558Y0061600D01*
X0132287Y0061755D01*
X0131719Y0061600D01*
X0121344Y0061600D01*
X0121080Y0061864D01*
X0120055Y0062289D01*
X0118945Y0062289D01*
X0117920Y0061864D01*
X0117136Y0061080D01*
X0116711Y0060055D01*
X0116711Y0059681D01*
X0109880Y0052850D01*
X0047594Y0052850D01*
X0047330Y0053114D01*
X0046305Y0053539D01*
X0045195Y0053539D01*
X0044170Y0053114D01*
X0043386Y0052330D01*
X0042961Y0051305D01*
X0042961Y0050195D01*
X0042961Y0051139D02*
X0020144Y0051139D01*
X0021193Y0052337D02*
X0043393Y0052337D01*
X0045188Y0053536D02*
X0021689Y0053536D01*
X0021737Y0054734D02*
X0111765Y0054734D01*
X0110566Y0053536D02*
X0046312Y0053536D01*
X0043814Y0048742D02*
X0007000Y0048742D01*
X0007000Y0047543D02*
X0147512Y0047543D01*
X0146594Y0048742D02*
X0111712Y0048742D01*
X0112910Y0049940D02*
X0144497Y0049940D01*
X0142399Y0051139D02*
X0114109Y0051139D01*
X0115307Y0052337D02*
X0140302Y0052337D01*
X0138204Y0053536D02*
X0116506Y0053536D01*
X0117704Y0054734D02*
X0136107Y0054734D01*
X0134010Y0055933D02*
X0118903Y0055933D01*
X0121070Y0057132D02*
X0131912Y0057132D01*
X0134085Y0060727D02*
X0137051Y0060727D01*
X0136183Y0059529D02*
X0138954Y0059529D01*
X0138280Y0058330D02*
X0140858Y0058330D01*
X0140377Y0057132D02*
X0142762Y0057132D01*
X0142475Y0055933D02*
X0144665Y0055933D01*
X0144572Y0054734D02*
X0146569Y0054734D01*
X0146670Y0053536D02*
X0148472Y0053536D01*
X0148767Y0052337D02*
X0150376Y0052337D01*
X0151805Y0051139D02*
X0152279Y0051139D01*
X0152289Y0049940D02*
X0154090Y0049940D01*
X0153932Y0050098D02*
X0154380Y0049650D01*
X0154644Y0049650D01*
X0154867Y0049509D01*
X0155486Y0049650D01*
X0174380Y0049650D01*
X0178211Y0045819D01*
X0178211Y0045695D01*
X0178636Y0044670D01*
X0179420Y0043886D01*
X0180445Y0043461D01*
X0181555Y0043461D01*
X0182580Y0043886D01*
X0183364Y0044670D01*
X0183789Y0045695D01*
X0183789Y0045819D01*
X0199681Y0061711D01*
X0200055Y0061711D01*
X0201080Y0062136D01*
X0201864Y0062920D01*
X0202289Y0063945D01*
X0202289Y0065055D01*
X0201864Y0066080D01*
X0201080Y0066864D01*
X0200055Y0067289D01*
X0198945Y0067289D01*
X0197920Y0066864D01*
X0197136Y0066080D01*
X0196711Y0065055D01*
X0196711Y0064681D01*
X0181069Y0049039D01*
X0180931Y0049039D01*
X0176120Y0053850D01*
X0155856Y0053850D01*
X0136318Y0066152D01*
X0135870Y0066600D01*
X0135606Y0066600D01*
X0135383Y0066741D01*
X0134764Y0066600D01*
X0111344Y0066600D01*
X0111080Y0066864D01*
X0110055Y0067289D01*
X0108945Y0067289D01*
X0107920Y0066864D01*
X0107656Y0066600D01*
X0070120Y0066600D01*
X0048539Y0088181D01*
X0048539Y0088555D01*
X0048114Y0089580D01*
X0047330Y0090364D01*
X0046305Y0090789D01*
X0045195Y0090789D01*
X0044170Y0090364D01*
X0043386Y0089580D01*
X0042961Y0088555D01*
X0042961Y0087445D01*
X0043386Y0086420D01*
X0044170Y0085636D01*
X0045195Y0085211D01*
X0045569Y0085211D01*
X0067150Y0063630D01*
X0068380Y0062400D01*
X0107656Y0062400D01*
X0107906Y0062150D01*
X0107531Y0061899D01*
X0107101Y0061469D01*
X0106763Y0060963D01*
X0106530Y0060401D01*
X0106411Y0059804D01*
X0106411Y0059500D01*
X0109500Y0059500D01*
X0112589Y0059500D01*
X0112589Y0059804D01*
X0112470Y0060401D01*
X0112237Y0060963D01*
X0111899Y0061469D01*
X0111469Y0061899D01*
X0111094Y0062150D01*
X0111344Y0062400D01*
X0134394Y0062400D01*
X0153932Y0050098D01*
X0152205Y0048742D02*
X0175288Y0048742D01*
X0176487Y0047543D02*
X0151488Y0047543D01*
X0154451Y0054734D02*
X0186765Y0054734D01*
X0185566Y0053536D02*
X0176434Y0053536D01*
X0177632Y0052337D02*
X0184368Y0052337D01*
X0183169Y0051139D02*
X0178831Y0051139D01*
X0180029Y0049940D02*
X0181971Y0049940D01*
X0184315Y0046345D02*
X0247000Y0046345D01*
X0247000Y0047543D02*
X0185513Y0047543D01*
X0186712Y0048742D02*
X0193789Y0048742D01*
X0193599Y0048780D02*
X0194196Y0048661D01*
X0194500Y0048661D01*
X0194804Y0048661D01*
X0195401Y0048780D01*
X0195963Y0049013D01*
X0196469Y0049351D01*
X0196899Y0049781D01*
X0197237Y0050287D01*
X0197470Y0050849D01*
X0197589Y0051446D01*
X0197589Y0051750D01*
X0197589Y0052054D01*
X0197470Y0052651D01*
X0197237Y0053213D01*
X0196899Y0053719D01*
X0196469Y0054149D01*
X0195963Y0054487D01*
X0195401Y0054720D01*
X0194804Y0054839D01*
X0194500Y0054839D01*
X0194500Y0051750D01*
X0197589Y0051750D01*
X0194500Y0051750D01*
X0194500Y0051750D01*
X0194500Y0051750D01*
X0194500Y0048661D01*
X0194500Y0051750D01*
X0194500Y0051750D01*
X0194500Y0051750D01*
X0191411Y0051750D01*
X0191411Y0052054D01*
X0191530Y0052651D01*
X0191763Y0053213D01*
X0192101Y0053719D01*
X0192531Y0054149D01*
X0193037Y0054487D01*
X0193599Y0054720D01*
X0194196Y0054839D01*
X0194500Y0054839D01*
X0194500Y0051750D01*
X0191411Y0051750D01*
X0191411Y0051446D01*
X0191530Y0050849D01*
X0191763Y0050287D01*
X0192101Y0049781D01*
X0192531Y0049351D01*
X0193037Y0049013D01*
X0193599Y0048780D01*
X0194500Y0048742D02*
X0194500Y0048742D01*
X0195211Y0048742D02*
X0247000Y0048742D01*
X0247000Y0049940D02*
X0197006Y0049940D01*
X0197528Y0051139D02*
X0247000Y0051139D01*
X0247000Y0052337D02*
X0197533Y0052337D01*
X0197022Y0053536D02*
X0247000Y0053536D01*
X0247000Y0054734D02*
X0195329Y0054734D01*
X0194500Y0054734D02*
X0194500Y0054734D01*
X0193671Y0054734D02*
X0192704Y0054734D01*
X0191978Y0053536D02*
X0191506Y0053536D01*
X0191467Y0052337D02*
X0190307Y0052337D01*
X0191472Y0051139D02*
X0189109Y0051139D01*
X0187910Y0049940D02*
X0191994Y0049940D01*
X0194500Y0049940D02*
X0194500Y0049940D01*
X0194500Y0051139D02*
X0194500Y0051139D01*
X0194500Y0052337D02*
X0194500Y0052337D01*
X0194500Y0053536D02*
X0194500Y0053536D01*
X0193903Y0055933D02*
X0247000Y0055933D01*
X0247000Y0057132D02*
X0195101Y0057132D01*
X0196300Y0058330D02*
X0247000Y0058330D01*
X0247000Y0059529D02*
X0197498Y0059529D01*
X0198697Y0060727D02*
X0247000Y0060727D01*
X0247000Y0061926D02*
X0200573Y0061926D01*
X0201949Y0063124D02*
X0247000Y0063124D01*
X0247000Y0064323D02*
X0202289Y0064323D01*
X0202096Y0065521D02*
X0247000Y0065521D01*
X0247000Y0066720D02*
X0201225Y0066720D01*
X0197775Y0066720D02*
X0135416Y0066720D01*
X0135291Y0066720D02*
X0111225Y0066720D01*
X0107775Y0066720D02*
X0070000Y0066720D01*
X0068802Y0067918D02*
X0247000Y0067918D01*
X0247000Y0069117D02*
X0067603Y0069117D01*
X0066405Y0070315D02*
X0247000Y0070315D01*
X0247000Y0071514D02*
X0065206Y0071514D01*
X0064008Y0072712D02*
X0247000Y0072712D01*
X0247000Y0073911D02*
X0062809Y0073911D01*
X0061611Y0075109D02*
X0247000Y0075109D01*
X0247000Y0076308D02*
X0060412Y0076308D01*
X0059214Y0077506D02*
X0247000Y0077506D01*
X0247000Y0078705D02*
X0058015Y0078705D01*
X0056817Y0079903D02*
X0182653Y0079903D01*
X0182920Y0079636D02*
X0182136Y0080420D01*
X0181711Y0081445D01*
X0181711Y0082555D01*
X0182136Y0083580D01*
X0182920Y0084364D01*
X0183945Y0084789D01*
X0185055Y0084789D01*
X0186080Y0084364D01*
X0186344Y0084100D01*
X0191130Y0084100D01*
X0194900Y0087870D01*
X0194900Y0111130D01*
X0184319Y0121711D01*
X0183945Y0121711D01*
X0182920Y0122136D01*
X0182136Y0122920D01*
X0181711Y0123945D01*
X0181711Y0125055D01*
X0182136Y0126080D01*
X0182920Y0126864D01*
X0183945Y0127289D01*
X0185055Y0127289D01*
X0186080Y0126864D01*
X0186864Y0126080D01*
X0187289Y0125055D01*
X0187289Y0124681D01*
X0199100Y0112870D01*
X0199100Y0086130D01*
X0197870Y0084900D01*
X0192870Y0079900D01*
X0186344Y0079900D01*
X0186080Y0079636D01*
X0185055Y0079211D01*
X0183945Y0079211D01*
X0182920Y0079636D01*
X0181853Y0081102D02*
X0055618Y0081102D01*
X0054420Y0082300D02*
X0181711Y0082300D01*
X0182102Y0083499D02*
X0053221Y0083499D01*
X0052023Y0084697D02*
X0183724Y0084697D01*
X0185276Y0084697D02*
X0191727Y0084697D01*
X0191580Y0085886D02*
X0192364Y0086670D01*
X0192789Y0087695D01*
X0192789Y0088805D01*
X0192364Y0089830D01*
X0191580Y0090614D01*
X0190555Y0091039D01*
X0189445Y0091039D01*
X0188420Y0090614D01*
X0188156Y0090350D01*
X0164844Y0090350D01*
X0164580Y0090614D01*
X0163555Y0091039D01*
X0162445Y0091039D01*
X0161420Y0090614D01*
X0160636Y0089830D01*
X0160211Y0088805D01*
X0160211Y0087695D01*
X0160636Y0086670D01*
X0161420Y0085886D01*
X0162445Y0085461D01*
X0163555Y0085461D01*
X0164580Y0085886D01*
X0164844Y0086150D01*
X0188156Y0086150D01*
X0188420Y0085886D01*
X0189445Y0085461D01*
X0190555Y0085461D01*
X0191580Y0085886D01*
X0191590Y0085896D02*
X0192926Y0085896D01*
X0192540Y0087094D02*
X0194124Y0087094D01*
X0194900Y0088293D02*
X0192789Y0088293D01*
X0192505Y0089491D02*
X0194900Y0089491D01*
X0194900Y0090690D02*
X0191398Y0090690D01*
X0188602Y0090690D02*
X0164398Y0090690D01*
X0161602Y0090690D02*
X0158839Y0090690D01*
X0158839Y0090750D02*
X0155750Y0090750D01*
X0158839Y0090750D01*
X0158839Y0091054D01*
X0158720Y0091651D01*
X0158487Y0092213D01*
X0158149Y0092719D01*
X0157719Y0093149D01*
X0157213Y0093487D01*
X0156651Y0093720D01*
X0156054Y0093839D01*
X0155750Y0093839D01*
X0155750Y0090750D01*
X0155750Y0090750D01*
X0155750Y0090750D01*
X0155750Y0087661D01*
X0156054Y0087661D01*
X0156651Y0087780D01*
X0157213Y0088013D01*
X0157719Y0088351D01*
X0158149Y0088781D01*
X0158487Y0089287D01*
X0158720Y0089849D01*
X0158839Y0090446D01*
X0158839Y0090750D01*
X0158622Y0091888D02*
X0194900Y0091888D01*
X0194900Y0093087D02*
X0157782Y0093087D01*
X0155750Y0093087D02*
X0155750Y0093087D01*
X0155750Y0093839D02*
X0155446Y0093839D01*
X0154849Y0093720D01*
X0154287Y0093487D01*
X0153781Y0093149D01*
X0153351Y0092719D01*
X0153013Y0092213D01*
X0152780Y0091651D01*
X0152661Y0091054D01*
X0152661Y0090750D01*
X0155750Y0090750D01*
X0155750Y0090750D01*
X0155750Y0090750D01*
X0155750Y0093839D01*
X0155750Y0091888D02*
X0155750Y0091888D01*
X0155750Y0090750D02*
X0152661Y0090750D01*
X0152661Y0090446D01*
X0152780Y0089849D01*
X0153013Y0089287D01*
X0153351Y0088781D01*
X0153781Y0088351D01*
X0154287Y0088013D01*
X0154849Y0087780D01*
X0155446Y0087661D01*
X0155750Y0087661D01*
X0155750Y0090750D01*
X0155750Y0090690D02*
X0155750Y0090690D01*
X0155750Y0089491D02*
X0155750Y0089491D01*
X0155750Y0088293D02*
X0155750Y0088293D01*
X0157633Y0088293D02*
X0160211Y0088293D01*
X0160460Y0087094D02*
X0049626Y0087094D01*
X0048539Y0088293D02*
X0153867Y0088293D01*
X0152928Y0089491D02*
X0048151Y0089491D01*
X0046544Y0090690D02*
X0152661Y0090690D01*
X0152878Y0091888D02*
X0007000Y0091888D01*
X0007000Y0090690D02*
X0044956Y0090690D01*
X0043349Y0089491D02*
X0007000Y0089491D01*
X0007000Y0088293D02*
X0009534Y0088293D01*
X0009114Y0088119D02*
X0007913Y0086918D01*
X0007263Y0085349D01*
X0007263Y0083651D01*
X0007913Y0082082D01*
X0009114Y0080881D01*
X0010682Y0080231D01*
X0018318Y0080231D01*
X0019886Y0080881D01*
X0021087Y0082082D01*
X0021737Y0083651D01*
X0021737Y0085349D01*
X0021087Y0086918D01*
X0019886Y0088119D01*
X0018318Y0088768D01*
X0010682Y0088768D01*
X0009114Y0088119D01*
X0008089Y0087094D02*
X0007000Y0087094D01*
X0007000Y0085896D02*
X0007489Y0085896D01*
X0007263Y0084697D02*
X0007000Y0084697D01*
X0007000Y0083499D02*
X0007326Y0083499D01*
X0007000Y0082300D02*
X0007822Y0082300D01*
X0007000Y0081102D02*
X0008893Y0081102D01*
X0007000Y0079903D02*
X0050877Y0079903D01*
X0052075Y0078705D02*
X0019279Y0078705D01*
X0020923Y0077506D02*
X0053274Y0077506D01*
X0054472Y0076308D02*
X0021675Y0076308D01*
X0021997Y0075109D02*
X0055671Y0075109D01*
X0056869Y0073911D02*
X0022001Y0073911D01*
X0021685Y0072712D02*
X0058068Y0072712D01*
X0059266Y0071514D02*
X0020943Y0071514D01*
X0019318Y0070315D02*
X0060465Y0070315D01*
X0061664Y0069117D02*
X0007000Y0069117D01*
X0007000Y0075109D02*
X0007003Y0075109D01*
X0007000Y0076308D02*
X0007325Y0076308D01*
X0007000Y0077506D02*
X0008077Y0077506D01*
X0007000Y0078705D02*
X0009721Y0078705D01*
X0014116Y0078705D02*
X0014884Y0078705D01*
X0014884Y0077506D02*
X0014116Y0077506D01*
X0014116Y0076308D02*
X0014884Y0076308D01*
X0014884Y0075109D02*
X0014116Y0075109D01*
X0014116Y0073911D02*
X0014884Y0073911D01*
X0014884Y0072712D02*
X0014116Y0072712D01*
X0014116Y0071514D02*
X0014884Y0071514D01*
X0014884Y0070315D02*
X0014116Y0070315D01*
X0020087Y0067918D02*
X0062862Y0067918D01*
X0064061Y0066720D02*
X0021169Y0066720D01*
X0021666Y0065521D02*
X0065259Y0065521D01*
X0066458Y0064323D02*
X0021737Y0064323D01*
X0021519Y0063124D02*
X0067656Y0063124D01*
X0050824Y0085896D02*
X0161410Y0085896D01*
X0164590Y0085896D02*
X0188410Y0085896D01*
X0194072Y0081102D02*
X0247000Y0081102D01*
X0247000Y0082300D02*
X0195270Y0082300D01*
X0196469Y0083499D02*
X0247000Y0083499D01*
X0247000Y0084697D02*
X0197667Y0084697D01*
X0198866Y0085896D02*
X0247000Y0085896D01*
X0247000Y0087094D02*
X0199100Y0087094D01*
X0199100Y0088293D02*
X0247000Y0088293D01*
X0247000Y0089491D02*
X0199100Y0089491D01*
X0199100Y0090690D02*
X0247000Y0090690D01*
X0247000Y0091888D02*
X0199100Y0091888D01*
X0199100Y0093087D02*
X0247000Y0093087D01*
X0247000Y0094285D02*
X0199100Y0094285D01*
X0199100Y0095484D02*
X0247000Y0095484D01*
X0247000Y0096682D02*
X0199100Y0096682D01*
X0199100Y0097881D02*
X0247000Y0097881D01*
X0247000Y0099079D02*
X0199100Y0099079D01*
X0199100Y0100278D02*
X0247000Y0100278D01*
X0247000Y0101476D02*
X0199100Y0101476D01*
X0199100Y0102675D02*
X0247000Y0102675D01*
X0247000Y0103873D02*
X0199100Y0103873D01*
X0199100Y0105072D02*
X0247000Y0105072D01*
X0247000Y0106270D02*
X0199100Y0106270D01*
X0199100Y0107469D02*
X0247000Y0107469D01*
X0247000Y0108668D02*
X0199100Y0108668D01*
X0199100Y0109866D02*
X0247000Y0109866D01*
X0247000Y0111065D02*
X0199100Y0111065D01*
X0199100Y0112263D02*
X0199868Y0112263D01*
X0200031Y0112101D02*
X0200537Y0111763D01*
X0201099Y0111530D01*
X0201696Y0111411D01*
X0202000Y0111411D01*
X0202304Y0111411D01*
X0202901Y0111530D01*
X0203463Y0111763D01*
X0203969Y0112101D01*
X0204399Y0112531D01*
X0204737Y0113037D01*
X0204970Y0113599D01*
X0205089Y0114196D01*
X0205089Y0114500D01*
X0205089Y0114804D01*
X0204970Y0115401D01*
X0204737Y0115963D01*
X0204399Y0116469D01*
X0203969Y0116899D01*
X0203463Y0117237D01*
X0202901Y0117470D01*
X0202304Y0117589D01*
X0202000Y0117589D01*
X0202000Y0114500D01*
X0205089Y0114500D01*
X0202000Y0114500D01*
X0202000Y0114500D01*
X0202000Y0114500D01*
X0202000Y0111411D01*
X0202000Y0114500D01*
X0202000Y0114500D01*
X0202000Y0114500D01*
X0198911Y0114500D01*
X0198911Y0114804D01*
X0199030Y0115401D01*
X0199263Y0115963D01*
X0199601Y0116469D01*
X0200031Y0116899D01*
X0200537Y0117237D01*
X0201099Y0117470D01*
X0201696Y0117589D01*
X0202000Y0117589D01*
X0202000Y0114500D01*
X0198911Y0114500D01*
X0198911Y0114196D01*
X0199030Y0113599D01*
X0199263Y0113037D01*
X0199601Y0112531D01*
X0200031Y0112101D01*
X0199087Y0113462D02*
X0198508Y0113462D01*
X0198911Y0114660D02*
X0197310Y0114660D01*
X0196111Y0115859D02*
X0199219Y0115859D01*
X0200267Y0117057D02*
X0194913Y0117057D01*
X0193714Y0118256D02*
X0234172Y0118256D01*
X0234263Y0118037D02*
X0234601Y0117531D01*
X0235031Y0117101D01*
X0235537Y0116763D01*
X0236099Y0116530D01*
X0236696Y0116411D01*
X0237000Y0116411D01*
X0237304Y0116411D01*
X0237901Y0116530D01*
X0238463Y0116763D01*
X0238969Y0117101D01*
X0239399Y0117531D01*
X0239737Y0118037D01*
X0239970Y0118599D01*
X0240089Y0119196D01*
X0240089Y0119500D01*
X0240089Y0119804D01*
X0239970Y0120401D01*
X0239737Y0120963D01*
X0239399Y0121469D01*
X0238969Y0121899D01*
X0238463Y0122237D01*
X0237901Y0122470D01*
X0237304Y0122589D01*
X0237000Y0122589D01*
X0237000Y0119500D01*
X0240089Y0119500D01*
X0237000Y0119500D01*
X0237000Y0119500D01*
X0237000Y0119500D01*
X0237000Y0116411D01*
X0237000Y0119500D01*
X0237000Y0119500D01*
X0237000Y0119500D01*
X0233911Y0119500D01*
X0233911Y0119804D01*
X0234030Y0120401D01*
X0234263Y0120963D01*
X0234601Y0121469D01*
X0235031Y0121899D01*
X0235537Y0122237D01*
X0236099Y0122470D01*
X0236696Y0122589D01*
X0237000Y0122589D01*
X0237000Y0119500D01*
X0233911Y0119500D01*
X0233911Y0119196D01*
X0234030Y0118599D01*
X0234263Y0118037D01*
X0235096Y0117057D02*
X0203733Y0117057D01*
X0204781Y0115859D02*
X0247000Y0115859D01*
X0247000Y0117057D02*
X0238904Y0117057D01*
X0239828Y0118256D02*
X0247000Y0118256D01*
X0247000Y0119454D02*
X0240089Y0119454D01*
X0239866Y0120653D02*
X0247000Y0120653D01*
X0247000Y0121851D02*
X0239017Y0121851D01*
X0237000Y0121851D02*
X0237000Y0121851D01*
X0237000Y0120653D02*
X0237000Y0120653D01*
X0237000Y0119454D02*
X0237000Y0119454D01*
X0237000Y0118256D02*
X0237000Y0118256D01*
X0237000Y0117057D02*
X0237000Y0117057D01*
X0233911Y0119454D02*
X0192516Y0119454D01*
X0191317Y0120653D02*
X0234134Y0120653D01*
X0234983Y0121851D02*
X0190119Y0121851D01*
X0188920Y0123050D02*
X0247000Y0123050D01*
X0247000Y0124248D02*
X0187722Y0124248D01*
X0187127Y0125447D02*
X0247000Y0125447D01*
X0247000Y0126645D02*
X0186299Y0126645D01*
X0182701Y0126645D02*
X0072438Y0126645D01*
X0072385Y0126375D02*
X0072500Y0126955D01*
X0072500Y0127250D01*
X0072500Y0127545D01*
X0072385Y0128125D01*
X0072159Y0128671D01*
X0071830Y0129162D01*
X0071412Y0129580D01*
X0070921Y0129909D01*
X0070375Y0130135D01*
X0069795Y0130250D01*
X0069500Y0130250D01*
X0069500Y0127250D01*
X0072500Y0127250D01*
X0069500Y0127250D01*
X0069500Y0127250D01*
X0069500Y0127250D01*
X0069500Y0124250D01*
X0069795Y0124250D01*
X0070375Y0124365D01*
X0070921Y0124591D01*
X0071412Y0124920D01*
X0071830Y0125338D01*
X0072159Y0125829D01*
X0072385Y0126375D01*
X0071903Y0125447D02*
X0181873Y0125447D01*
X0181711Y0124248D02*
X0050242Y0124248D01*
X0050401Y0124280D02*
X0050963Y0124513D01*
X0051469Y0124851D01*
X0051899Y0125281D01*
X0052053Y0125512D01*
X0052170Y0125338D01*
X0052588Y0124920D01*
X0053079Y0124591D01*
X0053625Y0124365D01*
X0054205Y0124250D01*
X0054500Y0124250D01*
X0054795Y0124250D01*
X0055375Y0124365D01*
X0055921Y0124591D01*
X0056412Y0124920D01*
X0056830Y0125338D01*
X0057159Y0125829D01*
X0057385Y0126375D01*
X0057500Y0126955D01*
X0057500Y0127250D01*
X0057500Y0127545D01*
X0057385Y0128125D01*
X0057159Y0128671D01*
X0056830Y0129162D01*
X0056412Y0129580D01*
X0055921Y0129909D01*
X0055375Y0130135D01*
X0054795Y0130250D01*
X0054500Y0130250D01*
X0054500Y0127250D01*
X0054500Y0127250D01*
X0057500Y0127250D01*
X0054500Y0127250D01*
X0054500Y0127250D01*
X0054500Y0130250D01*
X0054205Y0130250D01*
X0053625Y0130135D01*
X0053079Y0129909D01*
X0052588Y0129580D01*
X0052170Y0129162D01*
X0052053Y0128988D01*
X0051899Y0129219D01*
X0051469Y0129649D01*
X0050963Y0129987D01*
X0050401Y0130220D01*
X0049804Y0130339D01*
X0049500Y0130339D01*
X0049500Y0127250D01*
X0049500Y0127250D01*
X0051500Y0127250D01*
X0054500Y0127250D01*
X0054500Y0124250D01*
X0054500Y0127250D01*
X0054500Y0127250D01*
X0054500Y0127250D01*
X0049500Y0127250D01*
X0049500Y0127250D01*
X0049500Y0130339D01*
X0049196Y0130339D01*
X0048599Y0130220D01*
X0048037Y0129987D01*
X0047531Y0129649D01*
X0047101Y0129219D01*
X0046763Y0128713D01*
X0046530Y0128151D01*
X0046411Y0127554D01*
X0046411Y0127250D01*
X0049500Y0127250D01*
X0049500Y0124161D01*
X0049804Y0124161D01*
X0050401Y0124280D01*
X0049500Y0124248D02*
X0049500Y0124248D01*
X0049500Y0124161D02*
X0049500Y0127250D01*
X0049500Y0127250D01*
X0049500Y0127250D01*
X0046411Y0127250D01*
X0046411Y0126946D01*
X0046530Y0126349D01*
X0046763Y0125787D01*
X0047101Y0125281D01*
X0047531Y0124851D01*
X0048037Y0124513D01*
X0048599Y0124280D01*
X0049196Y0124161D01*
X0049500Y0124161D01*
X0048758Y0124248D02*
X0007000Y0124248D01*
X0007000Y0123050D02*
X0182082Y0123050D01*
X0183607Y0121851D02*
X0007000Y0121851D01*
X0007000Y0120653D02*
X0185378Y0120653D01*
X0186576Y0119454D02*
X0007000Y0119454D01*
X0007000Y0118256D02*
X0187775Y0118256D01*
X0188973Y0117057D02*
X0158733Y0117057D01*
X0158969Y0116899D02*
X0158463Y0117237D01*
X0157901Y0117470D01*
X0157304Y0117589D01*
X0157000Y0117589D01*
X0157000Y0114500D01*
X0160089Y0114500D01*
X0160089Y0114804D01*
X0159970Y0115401D01*
X0159737Y0115963D01*
X0159399Y0116469D01*
X0158969Y0116899D01*
X0159781Y0115859D02*
X0190172Y0115859D01*
X0191370Y0114660D02*
X0160089Y0114660D01*
X0160089Y0114500D02*
X0157000Y0114500D01*
X0157000Y0114500D01*
X0157000Y0114500D01*
X0157000Y0111411D01*
X0157304Y0111411D01*
X0157901Y0111530D01*
X0158463Y0111763D01*
X0158969Y0112101D01*
X0159399Y0112531D01*
X0159737Y0113037D01*
X0159970Y0113599D01*
X0160089Y0114196D01*
X0160089Y0114500D01*
X0159913Y0113462D02*
X0192569Y0113462D01*
X0193767Y0112263D02*
X0159132Y0112263D01*
X0157000Y0112263D02*
X0157000Y0112263D01*
X0157000Y0111411D02*
X0157000Y0114500D01*
X0157000Y0114500D01*
X0157000Y0114500D01*
X0153911Y0114500D01*
X0153911Y0114804D01*
X0154030Y0115401D01*
X0154263Y0115963D01*
X0154601Y0116469D01*
X0155031Y0116899D01*
X0155537Y0117237D01*
X0156099Y0117470D01*
X0156696Y0117589D01*
X0157000Y0117589D01*
X0157000Y0114500D01*
X0153911Y0114500D01*
X0153911Y0114196D01*
X0154030Y0113599D01*
X0154263Y0113037D01*
X0154601Y0112531D01*
X0155031Y0112101D01*
X0155537Y0111763D01*
X0156099Y0111530D01*
X0156696Y0111411D01*
X0157000Y0111411D01*
X0157000Y0113462D02*
X0157000Y0113462D01*
X0157000Y0114660D02*
X0157000Y0114660D01*
X0157000Y0115859D02*
X0157000Y0115859D01*
X0157000Y0117057D02*
X0157000Y0117057D01*
X0155267Y0117057D02*
X0007000Y0117057D01*
X0007000Y0115859D02*
X0154219Y0115859D01*
X0153911Y0114660D02*
X0007000Y0114660D01*
X0007000Y0113462D02*
X0154087Y0113462D01*
X0154868Y0112263D02*
X0007000Y0112263D01*
X0007000Y0111065D02*
X0194900Y0111065D01*
X0194900Y0109866D02*
X0007000Y0109866D01*
X0007000Y0108668D02*
X0194900Y0108668D01*
X0194900Y0107469D02*
X0007000Y0107469D01*
X0007000Y0106270D02*
X0090025Y0106270D01*
X0089582Y0106087D02*
X0088381Y0104886D01*
X0087731Y0103318D01*
X0087731Y0095682D01*
X0088381Y0094114D01*
X0089582Y0092913D01*
X0091151Y0092263D01*
X0092849Y0092263D01*
X0094418Y0092913D01*
X0095619Y0094114D01*
X0096268Y0095682D01*
X0096268Y0103318D01*
X0095619Y0104886D01*
X0094418Y0106087D01*
X0092849Y0106737D01*
X0091151Y0106737D01*
X0089582Y0106087D01*
X0088567Y0105072D02*
X0007000Y0105072D01*
X0007000Y0103873D02*
X0087962Y0103873D01*
X0087731Y0102675D02*
X0007000Y0102675D01*
X0007000Y0101476D02*
X0087731Y0101476D01*
X0087731Y0100278D02*
X0007000Y0100278D01*
X0007000Y0099079D02*
X0087731Y0099079D01*
X0087731Y0097881D02*
X0007000Y0097881D01*
X0007000Y0096682D02*
X0087731Y0096682D01*
X0087814Y0095484D02*
X0007000Y0095484D01*
X0007000Y0094285D02*
X0088310Y0094285D01*
X0089408Y0093087D02*
X0007000Y0093087D01*
X0019466Y0088293D02*
X0042961Y0088293D01*
X0043106Y0087094D02*
X0020911Y0087094D01*
X0021511Y0085896D02*
X0043910Y0085896D01*
X0046083Y0084697D02*
X0021737Y0084697D01*
X0021674Y0083499D02*
X0047281Y0083499D01*
X0048480Y0082300D02*
X0021178Y0082300D01*
X0020107Y0081102D02*
X0049678Y0081102D01*
X0020931Y0061926D02*
X0107570Y0061926D01*
X0106665Y0060727D02*
X0019514Y0060727D01*
X0019376Y0058330D02*
X0106641Y0058330D01*
X0106530Y0058599D02*
X0106763Y0058037D01*
X0107101Y0057531D01*
X0107531Y0057101D01*
X0108037Y0056763D01*
X0108599Y0056530D01*
X0109196Y0056411D01*
X0109500Y0056411D01*
X0109804Y0056411D01*
X0110401Y0056530D01*
X0110963Y0056763D01*
X0111469Y0057101D01*
X0111899Y0057531D01*
X0112237Y0058037D01*
X0112470Y0058599D01*
X0112589Y0059196D01*
X0112589Y0059500D01*
X0109500Y0059500D01*
X0109500Y0059500D01*
X0109500Y0056411D01*
X0109500Y0059500D01*
X0109500Y0059500D01*
X0109500Y0059500D01*
X0106411Y0059500D01*
X0106411Y0059196D01*
X0106530Y0058599D01*
X0106411Y0059529D02*
X0007000Y0059529D01*
X0007000Y0046345D02*
X0177685Y0046345D01*
X0178438Y0045146D02*
X0173198Y0045146D01*
X0173149Y0045219D02*
X0172719Y0045649D01*
X0172213Y0045987D01*
X0171651Y0046220D01*
X0171054Y0046339D01*
X0170750Y0046339D01*
X0170750Y0043250D01*
X0173839Y0043250D01*
X0173839Y0043554D01*
X0173720Y0044151D01*
X0173487Y0044713D01*
X0173149Y0045219D01*
X0173761Y0043948D02*
X0179358Y0043948D01*
X0182642Y0043948D02*
X0247000Y0043948D01*
X0247000Y0045146D02*
X0183562Y0045146D01*
X0173839Y0043250D02*
X0170750Y0043250D01*
X0170750Y0043250D01*
X0170750Y0043250D01*
X0170750Y0040161D01*
X0171054Y0040161D01*
X0171651Y0040280D01*
X0172213Y0040513D01*
X0172719Y0040851D01*
X0173149Y0041281D01*
X0173487Y0041787D01*
X0173720Y0042349D01*
X0173839Y0042946D01*
X0173839Y0043250D01*
X0173800Y0042749D02*
X0247000Y0042749D01*
X0247000Y0041551D02*
X0173330Y0041551D01*
X0171826Y0040352D02*
X0247000Y0040352D01*
X0247000Y0039154D02*
X0007000Y0039154D01*
X0007000Y0040352D02*
X0169674Y0040352D01*
X0169849Y0040280D02*
X0170446Y0040161D01*
X0170750Y0040161D01*
X0170750Y0043250D01*
X0170750Y0043250D01*
X0170750Y0043250D01*
X0167661Y0043250D01*
X0167661Y0043554D01*
X0167780Y0044151D01*
X0168013Y0044713D01*
X0168351Y0045219D01*
X0168781Y0045649D01*
X0169287Y0045987D01*
X0169849Y0046220D01*
X0170446Y0046339D01*
X0170750Y0046339D01*
X0170750Y0043250D01*
X0167661Y0043250D01*
X0167661Y0042946D01*
X0167780Y0042349D01*
X0168013Y0041787D01*
X0168351Y0041281D01*
X0168781Y0040851D01*
X0169287Y0040513D01*
X0169849Y0040280D01*
X0170750Y0040352D02*
X0170750Y0040352D01*
X0170750Y0041551D02*
X0170750Y0041551D01*
X0170750Y0042749D02*
X0170750Y0042749D01*
X0170750Y0043948D02*
X0170750Y0043948D01*
X0170750Y0045146D02*
X0170750Y0045146D01*
X0168302Y0045146D02*
X0007000Y0045146D01*
X0007000Y0043948D02*
X0167739Y0043948D01*
X0167700Y0042749D02*
X0007000Y0042749D01*
X0007000Y0041551D02*
X0168170Y0041551D01*
X0165349Y0021737D02*
X0163651Y0021737D01*
X0162082Y0021087D01*
X0160881Y0019886D01*
X0160231Y0018318D01*
X0160231Y0010682D01*
X0160881Y0009114D01*
X0162082Y0007913D01*
X0163651Y0007263D01*
X0165349Y0007263D01*
X0166918Y0007913D01*
X0168119Y0009114D01*
X0168768Y0010682D01*
X0168768Y0018318D01*
X0168119Y0019886D01*
X0166918Y0021087D01*
X0165349Y0021737D01*
X0166703Y0021176D02*
X0221110Y0021176D01*
X0220741Y0019978D02*
X0168027Y0019978D01*
X0168577Y0018779D02*
X0220585Y0018779D01*
X0220585Y0017581D02*
X0168768Y0017581D01*
X0168768Y0016382D02*
X0220585Y0016382D01*
X0220585Y0015184D02*
X0168768Y0015184D01*
X0168768Y0013985D02*
X0220752Y0013985D01*
X0221122Y0012787D02*
X0168768Y0012787D01*
X0168768Y0011588D02*
X0221492Y0011588D01*
X0221861Y0010390D02*
X0168647Y0010390D01*
X0168151Y0009191D02*
X0222457Y0009191D01*
X0223275Y0007993D02*
X0166998Y0007993D01*
X0162002Y0007993D02*
X0157401Y0007993D01*
X0158435Y0009191D02*
X0160849Y0009191D01*
X0160353Y0010390D02*
X0158933Y0010390D01*
X0159068Y0011588D02*
X0160231Y0011588D01*
X0160231Y0012787D02*
X0159068Y0012787D01*
X0159068Y0013985D02*
X0160231Y0013985D01*
X0160231Y0015184D02*
X0159068Y0015184D01*
X0159068Y0016382D02*
X0160231Y0016382D01*
X0160231Y0017581D02*
X0159068Y0017581D01*
X0158878Y0018779D02*
X0160423Y0018779D01*
X0160973Y0019978D02*
X0158324Y0019978D01*
X0157169Y0021176D02*
X0162297Y0021176D01*
X0154884Y0021176D02*
X0154116Y0021176D01*
X0154116Y0019978D02*
X0154884Y0019978D01*
X0154884Y0018779D02*
X0154116Y0018779D01*
X0154116Y0017581D02*
X0154884Y0017581D01*
X0154884Y0016382D02*
X0154116Y0016382D01*
X0154116Y0015184D02*
X0154884Y0015184D01*
X0149931Y0015184D02*
X0118768Y0015184D01*
X0118768Y0016382D02*
X0149931Y0016382D01*
X0149931Y0017581D02*
X0118768Y0017581D01*
X0118768Y0018318D02*
X0118119Y0019886D01*
X0116918Y0021087D01*
X0115349Y0021737D01*
X0113651Y0021737D01*
X0112082Y0021087D01*
X0110881Y0019886D01*
X0110231Y0018318D01*
X0110231Y0010682D01*
X0110881Y0009114D01*
X0112082Y0007913D01*
X0113651Y0007263D01*
X0115349Y0007263D01*
X0116918Y0007913D01*
X0118119Y0009114D01*
X0118768Y0010682D01*
X0118768Y0018318D01*
X0118577Y0018779D02*
X0150122Y0018779D01*
X0150676Y0019978D02*
X0118027Y0019978D01*
X0116703Y0021176D02*
X0151831Y0021176D01*
X0149931Y0013985D02*
X0118768Y0013985D01*
X0118768Y0012787D02*
X0149931Y0012787D01*
X0149931Y0011588D02*
X0118768Y0011588D01*
X0118647Y0010390D02*
X0150067Y0010390D01*
X0150565Y0009191D02*
X0118151Y0009191D01*
X0116998Y0007993D02*
X0151599Y0007993D01*
X0152548Y0055933D02*
X0187963Y0055933D01*
X0189162Y0057132D02*
X0150644Y0057132D01*
X0148741Y0058330D02*
X0190360Y0058330D01*
X0191559Y0059529D02*
X0146837Y0059529D01*
X0144934Y0060727D02*
X0192757Y0060727D01*
X0193956Y0061926D02*
X0143030Y0061926D01*
X0141127Y0063124D02*
X0195154Y0063124D01*
X0196353Y0064323D02*
X0139223Y0064323D01*
X0137320Y0065521D02*
X0196904Y0065521D01*
X0192873Y0079903D02*
X0247000Y0079903D01*
X0247000Y0112263D02*
X0204132Y0112263D01*
X0204913Y0113462D02*
X0247000Y0113462D01*
X0247000Y0114660D02*
X0205089Y0114660D01*
X0202000Y0114660D02*
X0202000Y0114660D01*
X0202000Y0113462D02*
X0202000Y0113462D01*
X0202000Y0112263D02*
X0202000Y0112263D01*
X0202000Y0115859D02*
X0202000Y0115859D01*
X0202000Y0117057D02*
X0202000Y0117057D01*
X0194900Y0106270D02*
X0123975Y0106270D01*
X0124418Y0106087D02*
X0122849Y0106737D01*
X0121151Y0106737D01*
X0119582Y0106087D01*
X0118381Y0104886D01*
X0117731Y0103318D01*
X0117731Y0095682D01*
X0118381Y0094114D01*
X0119582Y0092913D01*
X0121151Y0092263D01*
X0122849Y0092263D01*
X0124418Y0092913D01*
X0125619Y0094114D01*
X0126268Y0095682D01*
X0126268Y0103318D01*
X0125619Y0104886D01*
X0124418Y0106087D01*
X0125433Y0105072D02*
X0194900Y0105072D01*
X0194900Y0103873D02*
X0126038Y0103873D01*
X0126268Y0102675D02*
X0194900Y0102675D01*
X0194900Y0101476D02*
X0126268Y0101476D01*
X0126268Y0100278D02*
X0194900Y0100278D01*
X0194900Y0099079D02*
X0126268Y0099079D01*
X0126268Y0097881D02*
X0194900Y0097881D01*
X0194900Y0096682D02*
X0126268Y0096682D01*
X0126186Y0095484D02*
X0194900Y0095484D01*
X0194900Y0094285D02*
X0125690Y0094285D01*
X0124592Y0093087D02*
X0153718Y0093087D01*
X0158572Y0089491D02*
X0160495Y0089491D01*
X0135147Y0061926D02*
X0120932Y0061926D01*
X0118068Y0061926D02*
X0111430Y0061926D01*
X0112335Y0060727D02*
X0116990Y0060727D01*
X0116559Y0059529D02*
X0112589Y0059529D01*
X0112359Y0058330D02*
X0115360Y0058330D01*
X0114162Y0057132D02*
X0111500Y0057132D01*
X0112963Y0055933D02*
X0021495Y0055933D01*
X0020874Y0057132D02*
X0107500Y0057132D01*
X0109500Y0057132D02*
X0109500Y0057132D01*
X0109500Y0058330D02*
X0109500Y0058330D01*
X0111151Y0092263D02*
X0112849Y0092263D01*
X0114418Y0092913D01*
X0115619Y0094114D01*
X0116268Y0095682D01*
X0116268Y0103318D01*
X0115619Y0104886D01*
X0114418Y0106087D01*
X0112849Y0106737D01*
X0111151Y0106737D01*
X0109582Y0106087D01*
X0108381Y0104886D01*
X0107731Y0103318D01*
X0107731Y0095682D01*
X0108381Y0094114D01*
X0109582Y0092913D01*
X0111151Y0092263D01*
X0109408Y0093087D02*
X0105016Y0093087D01*
X0104976Y0093047D02*
X0105485Y0093555D01*
X0105907Y0094137D01*
X0106234Y0094778D01*
X0106456Y0095462D01*
X0106568Y0096172D01*
X0106568Y0099116D01*
X0102384Y0099116D01*
X0102384Y0091967D01*
X0103070Y0092075D01*
X0103754Y0092298D01*
X0104394Y0092624D01*
X0104976Y0093047D01*
X0105983Y0094285D02*
X0108310Y0094285D01*
X0107814Y0095484D02*
X0106460Y0095484D01*
X0106568Y0096682D02*
X0107731Y0096682D01*
X0107731Y0097881D02*
X0106568Y0097881D01*
X0106568Y0099079D02*
X0107731Y0099079D01*
X0107731Y0100278D02*
X0106568Y0100278D01*
X0106568Y0099884D02*
X0106568Y0102828D01*
X0106456Y0103538D01*
X0106234Y0104222D01*
X0105907Y0104863D01*
X0105485Y0105445D01*
X0104976Y0105953D01*
X0104394Y0106376D01*
X0103754Y0106702D01*
X0103070Y0106925D01*
X0102384Y0107033D01*
X0102384Y0099884D01*
X0106568Y0099884D01*
X0106568Y0101476D02*
X0107731Y0101476D01*
X0107731Y0102675D02*
X0106568Y0102675D01*
X0106347Y0103873D02*
X0107962Y0103873D01*
X0108567Y0105072D02*
X0105755Y0105072D01*
X0104539Y0106270D02*
X0110025Y0106270D01*
X0113975Y0106270D02*
X0120025Y0106270D01*
X0118567Y0105072D02*
X0115433Y0105072D01*
X0116038Y0103873D02*
X0117962Y0103873D01*
X0117731Y0102675D02*
X0116268Y0102675D01*
X0116268Y0101476D02*
X0117731Y0101476D01*
X0117731Y0100278D02*
X0116268Y0100278D01*
X0116268Y0099079D02*
X0117731Y0099079D01*
X0117731Y0097881D02*
X0116268Y0097881D01*
X0116268Y0096682D02*
X0117731Y0096682D01*
X0117814Y0095484D02*
X0116186Y0095484D01*
X0115690Y0094285D02*
X0118310Y0094285D01*
X0119408Y0093087D02*
X0114592Y0093087D01*
X0102384Y0093087D02*
X0101616Y0093087D01*
X0101616Y0091967D02*
X0101616Y0099116D01*
X0102384Y0099116D01*
X0102384Y0099884D01*
X0101616Y0099884D01*
X0101616Y0099116D01*
X0097431Y0099116D01*
X0097431Y0096172D01*
X0097544Y0095462D01*
X0097766Y0094778D01*
X0098093Y0094137D01*
X0098515Y0093555D01*
X0099024Y0093047D01*
X0099606Y0092624D01*
X0100246Y0092298D01*
X0100930Y0092075D01*
X0101616Y0091967D01*
X0101616Y0094285D02*
X0102384Y0094285D01*
X0102384Y0095484D02*
X0101616Y0095484D01*
X0101616Y0096682D02*
X0102384Y0096682D01*
X0102384Y0097881D02*
X0101616Y0097881D01*
X0101616Y0099079D02*
X0102384Y0099079D01*
X0101616Y0099884D02*
X0097431Y0099884D01*
X0097431Y0102828D01*
X0097544Y0103538D01*
X0097766Y0104222D01*
X0098093Y0104863D01*
X0098515Y0105445D01*
X0099024Y0105953D01*
X0099606Y0106376D01*
X0100246Y0106702D01*
X0100930Y0106925D01*
X0101616Y0107033D01*
X0101616Y0099884D01*
X0101616Y0100278D02*
X0102384Y0100278D01*
X0102384Y0101476D02*
X0101616Y0101476D01*
X0101616Y0102675D02*
X0102384Y0102675D01*
X0102384Y0103873D02*
X0101616Y0103873D01*
X0101616Y0105072D02*
X0102384Y0105072D01*
X0102384Y0106270D02*
X0101616Y0106270D01*
X0099461Y0106270D02*
X0093975Y0106270D01*
X0095433Y0105072D02*
X0098245Y0105072D01*
X0097653Y0103873D02*
X0096038Y0103873D01*
X0096268Y0102675D02*
X0097431Y0102675D01*
X0097431Y0101476D02*
X0096268Y0101476D01*
X0096268Y0100278D02*
X0097431Y0100278D01*
X0097431Y0099079D02*
X0096268Y0099079D01*
X0096268Y0097881D02*
X0097431Y0097881D01*
X0097431Y0096682D02*
X0096268Y0096682D01*
X0096186Y0095484D02*
X0097540Y0095484D01*
X0098017Y0094285D02*
X0095690Y0094285D01*
X0094592Y0093087D02*
X0098984Y0093087D01*
X0072441Y0127844D02*
X0247000Y0127844D01*
X0247000Y0129042D02*
X0071911Y0129042D01*
X0069842Y0130241D02*
X0247000Y0130241D01*
X0247000Y0131439D02*
X0007000Y0131439D01*
X0007000Y0130241D02*
X0034158Y0130241D01*
X0034205Y0130250D02*
X0033625Y0130135D01*
X0033079Y0129909D01*
X0032588Y0129580D01*
X0032170Y0129162D01*
X0031841Y0128671D01*
X0031615Y0128125D01*
X0031500Y0127545D01*
X0031500Y0127250D01*
X0034500Y0127250D01*
X0037500Y0127250D01*
X0037500Y0127545D01*
X0037385Y0128125D01*
X0037159Y0128671D01*
X0036830Y0129162D01*
X0036412Y0129580D01*
X0035921Y0129909D01*
X0035375Y0130135D01*
X0034795Y0130250D01*
X0034500Y0130250D01*
X0034500Y0127250D01*
X0034500Y0127250D01*
X0034500Y0127250D01*
X0037500Y0127250D01*
X0037500Y0126955D01*
X0037385Y0126375D01*
X0037159Y0125829D01*
X0036830Y0125338D01*
X0036412Y0124920D01*
X0035921Y0124591D01*
X0035375Y0124365D01*
X0034795Y0124250D01*
X0034500Y0124250D01*
X0034500Y0127250D01*
X0034500Y0127250D01*
X0034500Y0127250D01*
X0034500Y0130250D01*
X0034205Y0130250D01*
X0034500Y0130241D02*
X0034500Y0130241D01*
X0034842Y0130241D02*
X0048702Y0130241D01*
X0049500Y0130241D02*
X0049500Y0130241D01*
X0050298Y0130241D02*
X0054158Y0130241D01*
X0054500Y0130241D02*
X0054500Y0130241D01*
X0054842Y0130241D02*
X0069158Y0130241D01*
X0069205Y0130250D02*
X0068625Y0130135D01*
X0068079Y0129909D01*
X0067588Y0129580D01*
X0067170Y0129162D01*
X0066841Y0128671D01*
X0066615Y0128125D01*
X0066500Y0127545D01*
X0066500Y0127250D01*
X0069500Y0127250D01*
X0069500Y0127250D01*
X0069500Y0127250D01*
X0069500Y0130250D01*
X0069205Y0130250D01*
X0069500Y0130241D02*
X0069500Y0130241D01*
X0069500Y0129042D02*
X0069500Y0129042D01*
X0069500Y0127844D02*
X0069500Y0127844D01*
X0069500Y0127250D02*
X0066500Y0127250D01*
X0066500Y0126955D01*
X0066615Y0126375D01*
X0066841Y0125829D01*
X0067170Y0125338D01*
X0067588Y0124920D01*
X0068079Y0124591D01*
X0068625Y0124365D01*
X0069205Y0124250D01*
X0069500Y0124250D01*
X0069500Y0127250D01*
X0069500Y0126645D02*
X0069500Y0126645D01*
X0069500Y0125447D02*
X0069500Y0125447D01*
X0067097Y0125447D02*
X0056903Y0125447D01*
X0057438Y0126645D02*
X0066562Y0126645D01*
X0066559Y0127844D02*
X0057441Y0127844D01*
X0056911Y0129042D02*
X0067089Y0129042D01*
X0060921Y0144591D02*
X0061412Y0144920D01*
X0061830Y0145338D01*
X0062159Y0145829D01*
X0062385Y0146375D01*
X0062500Y0146955D01*
X0062500Y0147250D01*
X0062500Y0147545D01*
X0062385Y0148125D01*
X0062159Y0148671D01*
X0061830Y0149162D01*
X0061412Y0149580D01*
X0060921Y0149909D01*
X0060375Y0150135D01*
X0059795Y0150250D01*
X0059500Y0150250D01*
X0059500Y0147250D01*
X0062500Y0147250D01*
X0059500Y0147250D01*
X0059500Y0147250D01*
X0059500Y0147250D01*
X0059500Y0144250D01*
X0059795Y0144250D01*
X0060375Y0144365D01*
X0060921Y0144591D01*
X0060968Y0144623D02*
X0247000Y0144623D01*
X0247000Y0145821D02*
X0062153Y0145821D01*
X0062500Y0147020D02*
X0247000Y0147020D01*
X0247000Y0148218D02*
X0062346Y0148218D01*
X0061576Y0149417D02*
X0247000Y0149417D01*
X0247000Y0150615D02*
X0007010Y0150615D01*
X0007009Y0149417D02*
X0042424Y0149417D01*
X0042588Y0149580D02*
X0042170Y0149162D01*
X0041841Y0148671D01*
X0041615Y0148125D01*
X0041500Y0147545D01*
X0041500Y0147250D01*
X0044500Y0147250D01*
X0047500Y0147250D01*
X0047500Y0147545D01*
X0047385Y0148125D01*
X0047159Y0148671D01*
X0046830Y0149162D01*
X0046412Y0149580D01*
X0045921Y0149909D01*
X0045375Y0150135D01*
X0044795Y0150250D01*
X0044500Y0150250D01*
X0044500Y0147250D01*
X0044500Y0147250D01*
X0044500Y0147250D01*
X0047500Y0147250D01*
X0047500Y0146955D01*
X0047385Y0146375D01*
X0047159Y0145829D01*
X0046830Y0145338D01*
X0046412Y0144920D01*
X0045921Y0144591D01*
X0045375Y0144365D01*
X0044795Y0144250D01*
X0044500Y0144250D01*
X0044500Y0147250D01*
X0044500Y0147250D01*
X0044500Y0147250D01*
X0044500Y0150250D01*
X0044205Y0150250D01*
X0043625Y0150135D01*
X0043079Y0149909D01*
X0042588Y0149580D01*
X0041654Y0148218D02*
X0007008Y0148218D01*
X0007006Y0147020D02*
X0041500Y0147020D01*
X0041500Y0146955D02*
X0041615Y0146375D01*
X0041841Y0145829D01*
X0042170Y0145338D01*
X0042588Y0144920D01*
X0043079Y0144591D01*
X0043625Y0144365D01*
X0044205Y0144250D01*
X0044500Y0144250D01*
X0044500Y0147250D01*
X0041500Y0147250D01*
X0041500Y0146955D01*
X0041847Y0145821D02*
X0007005Y0145821D01*
X0007003Y0144623D02*
X0043032Y0144623D01*
X0044500Y0144623D02*
X0044500Y0144623D01*
X0044500Y0145821D02*
X0044500Y0145821D01*
X0044500Y0147020D02*
X0044500Y0147020D01*
X0044500Y0148218D02*
X0044500Y0148218D01*
X0044500Y0149417D02*
X0044500Y0149417D01*
X0046576Y0149417D02*
X0057424Y0149417D01*
X0057588Y0149580D02*
X0057170Y0149162D01*
X0056841Y0148671D01*
X0056615Y0148125D01*
X0056500Y0147545D01*
X0056500Y0147250D01*
X0059500Y0147250D01*
X0059500Y0147250D01*
X0059500Y0147250D01*
X0059500Y0150250D01*
X0059205Y0150250D01*
X0058625Y0150135D01*
X0058079Y0149909D01*
X0057588Y0149580D01*
X0056654Y0148218D02*
X0047346Y0148218D01*
X0047500Y0147020D02*
X0056500Y0147020D01*
X0056500Y0146955D02*
X0056615Y0146375D01*
X0056841Y0145829D01*
X0057170Y0145338D01*
X0057588Y0144920D01*
X0058079Y0144591D01*
X0058625Y0144365D01*
X0059205Y0144250D01*
X0059500Y0144250D01*
X0059500Y0147250D01*
X0056500Y0147250D01*
X0056500Y0146955D01*
X0056847Y0145821D02*
X0047153Y0145821D01*
X0045968Y0144623D02*
X0058032Y0144623D01*
X0059500Y0144623D02*
X0059500Y0144623D01*
X0059500Y0145821D02*
X0059500Y0145821D01*
X0059500Y0147020D02*
X0059500Y0147020D01*
X0059500Y0148218D02*
X0059500Y0148218D01*
X0059500Y0149417D02*
X0059500Y0149417D01*
X0054500Y0129042D02*
X0054500Y0129042D01*
X0054500Y0127844D02*
X0054500Y0127844D01*
X0054500Y0126645D02*
X0054500Y0126645D01*
X0054500Y0125447D02*
X0054500Y0125447D01*
X0052097Y0125447D02*
X0052010Y0125447D01*
X0049500Y0125447D02*
X0049500Y0125447D01*
X0049500Y0126645D02*
X0049500Y0126645D01*
X0049500Y0127844D02*
X0049500Y0127844D01*
X0049500Y0129042D02*
X0049500Y0129042D01*
X0052018Y0129042D02*
X0052089Y0129042D01*
X0046982Y0129042D02*
X0036911Y0129042D01*
X0037441Y0127844D02*
X0046469Y0127844D01*
X0046471Y0126645D02*
X0037438Y0126645D01*
X0036903Y0125447D02*
X0046990Y0125447D01*
X0034500Y0125447D02*
X0034500Y0125447D01*
X0034500Y0124250D02*
X0034500Y0127250D01*
X0031500Y0127250D01*
X0031500Y0126955D01*
X0031615Y0126375D01*
X0031841Y0125829D01*
X0032170Y0125338D01*
X0032588Y0124920D01*
X0033079Y0124591D01*
X0033625Y0124365D01*
X0034205Y0124250D01*
X0034500Y0124250D01*
X0034500Y0126645D02*
X0034500Y0126645D01*
X0034500Y0127844D02*
X0034500Y0127844D01*
X0034500Y0129042D02*
X0034500Y0129042D01*
X0032089Y0129042D02*
X0007000Y0129042D01*
X0007000Y0127844D02*
X0031559Y0127844D01*
X0031562Y0126645D02*
X0007000Y0126645D01*
X0007000Y0125447D02*
X0032097Y0125447D01*
X0007000Y0142000D02*
X0007191Y0298827D01*
X0008700Y0297624D01*
X0013306Y0295816D01*
X0013306Y0295816D01*
X0018241Y0295446D01*
X0023065Y0296547D01*
X0027350Y0299022D01*
X0030716Y0302649D01*
X0032863Y0307107D01*
X0033600Y0312000D01*
X0032863Y0316893D01*
X0030716Y0321351D01*
X0030716Y0321351D01*
X0027423Y0324900D01*
X0226849Y0324900D01*
X0224831Y0323291D01*
X0222044Y0319202D01*
X0220585Y0314474D01*
X0220585Y0309526D01*
X0222044Y0304798D01*
X0222044Y0304798D01*
X0224831Y0300709D01*
X0224831Y0300709D01*
X0224831Y0300709D01*
X0228700Y0297624D01*
X0233306Y0295816D01*
X0238241Y0295446D01*
X0243065Y0296547D01*
X0243065Y0296548D01*
X0247000Y0298820D01*
X0247000Y0142000D01*
X0007000Y0142000D01*
X0007000Y0142226D02*
X0247000Y0142226D01*
X0247000Y0143424D02*
X0007002Y0143424D01*
X0007012Y0151814D02*
X0235460Y0151814D01*
X0235537Y0151763D02*
X0236099Y0151530D01*
X0236696Y0151411D01*
X0237000Y0151411D01*
X0237304Y0151411D01*
X0237901Y0151530D01*
X0238463Y0151763D01*
X0238969Y0152101D01*
X0239399Y0152531D01*
X0239737Y0153037D01*
X0239970Y0153599D01*
X0240089Y0154196D01*
X0240089Y0154500D01*
X0240089Y0154804D01*
X0239970Y0155401D01*
X0239737Y0155963D01*
X0239399Y0156469D01*
X0238969Y0156899D01*
X0238463Y0157237D01*
X0237901Y0157470D01*
X0237304Y0157589D01*
X0237000Y0157589D01*
X0237000Y0154500D01*
X0240089Y0154500D01*
X0237000Y0154500D01*
X0237000Y0154500D01*
X0237000Y0154500D01*
X0237000Y0151411D01*
X0237000Y0154500D01*
X0237000Y0154500D01*
X0237000Y0154500D01*
X0233911Y0154500D01*
X0233911Y0154804D01*
X0234030Y0155401D01*
X0234263Y0155963D01*
X0234601Y0156469D01*
X0235031Y0156899D01*
X0235537Y0157237D01*
X0236099Y0157470D01*
X0236696Y0157589D01*
X0237000Y0157589D01*
X0237000Y0154500D01*
X0233911Y0154500D01*
X0233911Y0154196D01*
X0234030Y0153599D01*
X0234263Y0153037D01*
X0234601Y0152531D01*
X0235031Y0152101D01*
X0235537Y0151763D01*
X0237000Y0151814D02*
X0237000Y0151814D01*
X0237000Y0153012D02*
X0237000Y0153012D01*
X0237000Y0154211D02*
X0237000Y0154211D01*
X0237000Y0155409D02*
X0237000Y0155409D01*
X0237000Y0156608D02*
X0237000Y0156608D01*
X0239260Y0156608D02*
X0247000Y0156608D01*
X0247000Y0157806D02*
X0007019Y0157806D01*
X0007018Y0156608D02*
X0234739Y0156608D01*
X0234033Y0155409D02*
X0007016Y0155409D01*
X0007015Y0154211D02*
X0233911Y0154211D01*
X0234279Y0153012D02*
X0007013Y0153012D01*
X0007021Y0159005D02*
X0247000Y0159005D01*
X0247000Y0160203D02*
X0007022Y0160203D01*
X0007024Y0161402D02*
X0247000Y0161402D01*
X0247000Y0162601D02*
X0007025Y0162601D01*
X0007027Y0163799D02*
X0247000Y0163799D01*
X0247000Y0164998D02*
X0007028Y0164998D01*
X0007030Y0166196D02*
X0247000Y0166196D01*
X0247000Y0167395D02*
X0007031Y0167395D01*
X0007032Y0168593D02*
X0247000Y0168593D01*
X0247000Y0169792D02*
X0007034Y0169792D01*
X0007035Y0170990D02*
X0247000Y0170990D01*
X0247000Y0172189D02*
X0007037Y0172189D01*
X0007038Y0173387D02*
X0247000Y0173387D01*
X0247000Y0174586D02*
X0201447Y0174586D01*
X0201469Y0174601D02*
X0201899Y0175031D01*
X0202237Y0175537D01*
X0202470Y0176099D01*
X0202589Y0176696D01*
X0202589Y0177000D01*
X0202589Y0177304D01*
X0202470Y0177901D01*
X0202237Y0178463D01*
X0201899Y0178969D01*
X0201469Y0179399D01*
X0200963Y0179737D01*
X0200401Y0179970D01*
X0199804Y0180089D01*
X0199500Y0180089D01*
X0199500Y0177000D01*
X0202589Y0177000D01*
X0199500Y0177000D01*
X0199500Y0177000D01*
X0199500Y0177000D01*
X0199500Y0173911D01*
X0199804Y0173911D01*
X0200401Y0174030D01*
X0200963Y0174263D01*
X0201469Y0174601D01*
X0202340Y0175784D02*
X0247000Y0175784D01*
X0247000Y0176983D02*
X0202589Y0176983D01*
X0202354Y0178181D02*
X0247000Y0178181D01*
X0247000Y0179380D02*
X0201489Y0179380D01*
X0199500Y0179380D02*
X0199500Y0179380D01*
X0199500Y0180089D02*
X0199196Y0180089D01*
X0198599Y0179970D01*
X0198037Y0179737D01*
X0197531Y0179399D01*
X0197101Y0178969D01*
X0196763Y0178463D01*
X0196530Y0177901D01*
X0196411Y0177304D01*
X0196411Y0177000D01*
X0199500Y0177000D01*
X0199500Y0177000D01*
X0199500Y0177000D01*
X0199500Y0180089D01*
X0199500Y0178181D02*
X0199500Y0178181D01*
X0199500Y0177000D02*
X0196411Y0177000D01*
X0196411Y0176696D01*
X0196530Y0176099D01*
X0196763Y0175537D01*
X0197101Y0175031D01*
X0197531Y0174601D01*
X0198037Y0174263D01*
X0198599Y0174030D01*
X0199196Y0173911D01*
X0199500Y0173911D01*
X0199500Y0177000D01*
X0199500Y0176983D02*
X0199500Y0176983D01*
X0199500Y0175784D02*
X0199500Y0175784D01*
X0199500Y0174586D02*
X0199500Y0174586D01*
X0197553Y0174586D02*
X0007040Y0174586D01*
X0007041Y0175784D02*
X0196660Y0175784D01*
X0196411Y0176983D02*
X0007043Y0176983D01*
X0007044Y0178181D02*
X0196646Y0178181D01*
X0197511Y0179380D02*
X0007046Y0179380D01*
X0007047Y0180578D02*
X0163416Y0180578D01*
X0164095Y0179900D02*
X0167905Y0179900D01*
X0170600Y0182595D01*
X0170600Y0186405D01*
X0167905Y0189100D01*
X0164095Y0189100D01*
X0161400Y0186405D01*
X0161400Y0182595D01*
X0164095Y0179900D01*
X0162218Y0181777D02*
X0007048Y0181777D01*
X0007050Y0182975D02*
X0161400Y0182975D01*
X0161400Y0184174D02*
X0007051Y0184174D01*
X0007053Y0185372D02*
X0161400Y0185372D01*
X0161565Y0186571D02*
X0007054Y0186571D01*
X0007056Y0187769D02*
X0162764Y0187769D01*
X0163962Y0188968D02*
X0007057Y0188968D01*
X0007059Y0190166D02*
X0163828Y0190166D01*
X0164095Y0189900D02*
X0167905Y0189900D01*
X0170600Y0192595D01*
X0170600Y0196405D01*
X0167905Y0199100D01*
X0164095Y0199100D01*
X0161400Y0196405D01*
X0161400Y0192595D01*
X0164095Y0189900D01*
X0162630Y0191365D02*
X0007060Y0191365D01*
X0007062Y0192563D02*
X0161431Y0192563D01*
X0161400Y0193762D02*
X0007063Y0193762D01*
X0007065Y0194960D02*
X0161400Y0194960D01*
X0161400Y0196159D02*
X0007066Y0196159D01*
X0007068Y0197357D02*
X0162352Y0197357D01*
X0163550Y0198556D02*
X0042174Y0198556D01*
X0041969Y0198351D02*
X0042399Y0198781D01*
X0042737Y0199287D01*
X0042970Y0199849D01*
X0043089Y0200446D01*
X0043089Y0200750D01*
X0043089Y0201054D01*
X0042970Y0201651D01*
X0042737Y0202213D01*
X0042399Y0202719D01*
X0042243Y0202875D01*
X0042399Y0203031D01*
X0042737Y0203537D01*
X0042970Y0204099D01*
X0043089Y0204696D01*
X0043089Y0205000D01*
X0043089Y0205304D01*
X0042970Y0205901D01*
X0042737Y0206463D01*
X0042399Y0206969D01*
X0041969Y0207399D01*
X0041463Y0207737D01*
X0040901Y0207970D01*
X0040304Y0208089D01*
X0040000Y0208089D01*
X0040000Y0205000D01*
X0043089Y0205000D01*
X0040000Y0205000D01*
X0040000Y0205000D01*
X0040000Y0205000D01*
X0040000Y0205000D01*
X0036911Y0205000D01*
X0036911Y0205304D01*
X0037030Y0205901D01*
X0037263Y0206463D01*
X0037601Y0206969D01*
X0038031Y0207399D01*
X0038537Y0207737D01*
X0039099Y0207970D01*
X0039696Y0208089D01*
X0040000Y0208089D01*
X0040000Y0205000D01*
X0040000Y0201911D01*
X0040000Y0200750D01*
X0043089Y0200750D01*
X0040000Y0200750D01*
X0040000Y0200750D01*
X0040000Y0200750D01*
X0040000Y0197661D01*
X0040304Y0197661D01*
X0040901Y0197780D01*
X0041463Y0198013D01*
X0041969Y0198351D01*
X0042931Y0199754D02*
X0247000Y0199754D01*
X0247000Y0198556D02*
X0168450Y0198556D01*
X0167905Y0199900D02*
X0170600Y0202595D01*
X0170600Y0206405D01*
X0167905Y0209100D01*
X0164095Y0209100D01*
X0161400Y0206405D01*
X0161400Y0202595D01*
X0164095Y0199900D01*
X0167905Y0199900D01*
X0168958Y0200953D02*
X0247000Y0200953D01*
X0247000Y0202151D02*
X0170157Y0202151D01*
X0170600Y0203350D02*
X0200406Y0203350D01*
X0200537Y0203263D02*
X0201099Y0203030D01*
X0201696Y0202911D01*
X0202000Y0202911D01*
X0202304Y0202911D01*
X0202901Y0203030D01*
X0203463Y0203263D01*
X0203969Y0203601D01*
X0204399Y0204031D01*
X0204737Y0204537D01*
X0204970Y0205099D01*
X0205089Y0205696D01*
X0205089Y0206000D01*
X0205089Y0206304D01*
X0204970Y0206901D01*
X0204737Y0207463D01*
X0204399Y0207969D01*
X0203969Y0208399D01*
X0203463Y0208737D01*
X0202901Y0208970D01*
X0202304Y0209089D01*
X0202000Y0209089D01*
X0202000Y0206000D01*
X0205089Y0206000D01*
X0202000Y0206000D01*
X0202000Y0206000D01*
X0202000Y0206000D01*
X0202000Y0202911D01*
X0202000Y0206000D01*
X0202000Y0206000D01*
X0202000Y0206000D01*
X0198911Y0206000D01*
X0198911Y0206304D01*
X0199030Y0206901D01*
X0199263Y0207463D01*
X0199601Y0207969D01*
X0200031Y0208399D01*
X0200537Y0208737D01*
X0201099Y0208970D01*
X0201696Y0209089D01*
X0202000Y0209089D01*
X0202000Y0206000D01*
X0198911Y0206000D01*
X0198911Y0205696D01*
X0199030Y0205099D01*
X0199263Y0204537D01*
X0199601Y0204031D01*
X0200031Y0203601D01*
X0200537Y0203263D01*
X0202000Y0203350D02*
X0202000Y0203350D01*
X0202000Y0204548D02*
X0202000Y0204548D01*
X0202000Y0205747D02*
X0202000Y0205747D01*
X0202000Y0206945D02*
X0202000Y0206945D01*
X0202000Y0208144D02*
X0202000Y0208144D01*
X0204225Y0208144D02*
X0247000Y0208144D01*
X0247000Y0209342D02*
X0007082Y0209342D01*
X0007081Y0208144D02*
X0163139Y0208144D01*
X0161940Y0206945D02*
X0042415Y0206945D01*
X0043001Y0205747D02*
X0161400Y0205747D01*
X0161400Y0204548D02*
X0043060Y0204548D01*
X0042613Y0203350D02*
X0161400Y0203350D01*
X0161843Y0202151D02*
X0042763Y0202151D01*
X0043089Y0200953D02*
X0163042Y0200953D01*
X0169648Y0197357D02*
X0247000Y0197357D01*
X0247000Y0196159D02*
X0170600Y0196159D01*
X0170600Y0194960D02*
X0247000Y0194960D01*
X0247000Y0193762D02*
X0170600Y0193762D01*
X0170569Y0192563D02*
X0247000Y0192563D01*
X0247000Y0191365D02*
X0169370Y0191365D01*
X0168172Y0190166D02*
X0247000Y0190166D01*
X0247000Y0188968D02*
X0168038Y0188968D01*
X0169236Y0187769D02*
X0247000Y0187769D01*
X0247000Y0186571D02*
X0170435Y0186571D01*
X0170600Y0185372D02*
X0247000Y0185372D01*
X0247000Y0184174D02*
X0170600Y0184174D01*
X0170600Y0182975D02*
X0247000Y0182975D01*
X0247000Y0181777D02*
X0169782Y0181777D01*
X0168584Y0180578D02*
X0247000Y0180578D01*
X0247000Y0203350D02*
X0203594Y0203350D01*
X0204742Y0204548D02*
X0247000Y0204548D01*
X0247000Y0205747D02*
X0205089Y0205747D01*
X0204952Y0206945D02*
X0247000Y0206945D01*
X0247000Y0210541D02*
X0082256Y0210541D01*
X0082213Y0210513D02*
X0082719Y0210851D01*
X0083149Y0211281D01*
X0083487Y0211787D01*
X0083720Y0212349D01*
X0083839Y0212946D01*
X0083839Y0213250D01*
X0083839Y0213554D01*
X0083720Y0214151D01*
X0083487Y0214713D01*
X0083149Y0215219D01*
X0082719Y0215649D01*
X0082213Y0215987D01*
X0081651Y0216220D01*
X0081054Y0216339D01*
X0080750Y0216339D01*
X0080750Y0213250D01*
X0083839Y0213250D01*
X0080750Y0213250D01*
X0080750Y0213250D01*
X0080750Y0213250D01*
X0080750Y0210161D01*
X0081054Y0210161D01*
X0081651Y0210280D01*
X0082213Y0210513D01*
X0080750Y0210541D02*
X0080750Y0210541D01*
X0080750Y0210161D02*
X0080750Y0213250D01*
X0080750Y0213250D01*
X0080750Y0213250D01*
X0077661Y0213250D01*
X0077661Y0213554D01*
X0077780Y0214151D01*
X0078013Y0214713D01*
X0078351Y0215219D01*
X0078781Y0215649D01*
X0079287Y0215987D01*
X0079849Y0216220D01*
X0080446Y0216339D01*
X0080750Y0216339D01*
X0080750Y0213250D01*
X0077661Y0213250D01*
X0077661Y0212946D01*
X0077780Y0212349D01*
X0078013Y0211787D01*
X0078351Y0211281D01*
X0078781Y0210851D01*
X0079287Y0210513D01*
X0079849Y0210280D01*
X0080446Y0210161D01*
X0080750Y0210161D01*
X0079244Y0210541D02*
X0007084Y0210541D01*
X0007085Y0211739D02*
X0078044Y0211739D01*
X0077663Y0212938D02*
X0007087Y0212938D01*
X0007088Y0214137D02*
X0077777Y0214137D01*
X0078467Y0215335D02*
X0007089Y0215335D01*
X0007091Y0216534D02*
X0247000Y0216534D01*
X0247000Y0217732D02*
X0007092Y0217732D01*
X0007094Y0218931D02*
X0207235Y0218931D01*
X0207037Y0219013D02*
X0207599Y0218780D01*
X0208196Y0218661D01*
X0208500Y0218661D01*
X0208804Y0218661D01*
X0209401Y0218780D01*
X0209963Y0219013D01*
X0210469Y0219351D01*
X0210899Y0219781D01*
X0211237Y0220287D01*
X0211470Y0220849D01*
X0211589Y0221446D01*
X0211589Y0221750D01*
X0211589Y0222054D01*
X0211470Y0222651D01*
X0211237Y0223213D01*
X0210899Y0223719D01*
X0210469Y0224149D01*
X0209963Y0224487D01*
X0209401Y0224720D01*
X0208804Y0224839D01*
X0208500Y0224839D01*
X0208500Y0221750D01*
X0211589Y0221750D01*
X0208500Y0221750D01*
X0208500Y0221750D01*
X0208500Y0221750D01*
X0208500Y0218661D01*
X0208500Y0221750D01*
X0208500Y0221750D01*
X0208500Y0221750D01*
X0205411Y0221750D01*
X0205411Y0222054D01*
X0205530Y0222651D01*
X0205763Y0223213D01*
X0206101Y0223719D01*
X0206531Y0224149D01*
X0207037Y0224487D01*
X0207599Y0224720D01*
X0208196Y0224839D01*
X0208500Y0224839D01*
X0208500Y0221750D01*
X0205411Y0221750D01*
X0205411Y0221446D01*
X0205530Y0220849D01*
X0205763Y0220287D01*
X0206101Y0219781D01*
X0206531Y0219351D01*
X0207037Y0219013D01*
X0208500Y0218931D02*
X0208500Y0218931D01*
X0208500Y0220129D02*
X0208500Y0220129D01*
X0208500Y0221328D02*
X0208500Y0221328D01*
X0208500Y0222526D02*
X0208500Y0222526D01*
X0208500Y0223725D02*
X0208500Y0223725D01*
X0210894Y0223725D02*
X0247000Y0223725D01*
X0247000Y0224923D02*
X0007101Y0224923D01*
X0007100Y0223725D02*
X0206106Y0223725D01*
X0205505Y0222526D02*
X0007098Y0222526D01*
X0007097Y0221328D02*
X0205435Y0221328D01*
X0205868Y0220129D02*
X0007095Y0220129D01*
X0007103Y0226122D02*
X0247000Y0226122D01*
X0247000Y0227320D02*
X0007104Y0227320D01*
X0007105Y0228519D02*
X0247000Y0228519D01*
X0247000Y0229717D02*
X0007107Y0229717D01*
X0007108Y0230916D02*
X0247000Y0230916D01*
X0247000Y0232114D02*
X0007110Y0232114D01*
X0007111Y0233313D02*
X0247000Y0233313D01*
X0247000Y0234511D02*
X0007113Y0234511D01*
X0007114Y0235710D02*
X0247000Y0235710D01*
X0247000Y0236908D02*
X0007116Y0236908D01*
X0007117Y0238107D02*
X0247000Y0238107D01*
X0247000Y0239305D02*
X0007119Y0239305D01*
X0007120Y0240504D02*
X0247000Y0240504D01*
X0247000Y0241702D02*
X0007122Y0241702D01*
X0007123Y0242901D02*
X0247000Y0242901D01*
X0247000Y0244099D02*
X0007125Y0244099D01*
X0007126Y0245298D02*
X0247000Y0245298D01*
X0247000Y0246496D02*
X0172733Y0246496D01*
X0172901Y0246530D02*
X0173463Y0246763D01*
X0173969Y0247101D01*
X0174399Y0247531D01*
X0174737Y0248037D01*
X0174970Y0248599D01*
X0175089Y0249196D01*
X0175089Y0249500D01*
X0175089Y0249804D01*
X0174970Y0250401D01*
X0174737Y0250963D01*
X0174399Y0251469D01*
X0173969Y0251899D01*
X0173463Y0252237D01*
X0172901Y0252470D01*
X0172304Y0252589D01*
X0172000Y0252589D01*
X0172000Y0249500D01*
X0175089Y0249500D01*
X0172000Y0249500D01*
X0172000Y0249500D01*
X0172000Y0249500D01*
X0172000Y0246411D01*
X0172304Y0246411D01*
X0172901Y0246530D01*
X0172000Y0246496D02*
X0172000Y0246496D01*
X0172000Y0246411D02*
X0172000Y0249500D01*
X0172000Y0249500D01*
X0172000Y0249500D01*
X0168911Y0249500D01*
X0168911Y0249804D01*
X0169030Y0250401D01*
X0169263Y0250963D01*
X0169601Y0251469D01*
X0170031Y0251899D01*
X0170537Y0252237D01*
X0171099Y0252470D01*
X0171696Y0252589D01*
X0172000Y0252589D01*
X0172000Y0249500D01*
X0168911Y0249500D01*
X0168911Y0249196D01*
X0169030Y0248599D01*
X0169263Y0248037D01*
X0169601Y0247531D01*
X0170031Y0247101D01*
X0170537Y0246763D01*
X0171099Y0246530D01*
X0171696Y0246411D01*
X0172000Y0246411D01*
X0171267Y0246496D02*
X0007127Y0246496D01*
X0007129Y0247695D02*
X0169491Y0247695D01*
X0168971Y0248893D02*
X0007130Y0248893D01*
X0007132Y0250092D02*
X0089560Y0250092D01*
X0089601Y0250031D02*
X0090031Y0249601D01*
X0090537Y0249263D01*
X0091099Y0249030D01*
X0091696Y0248911D01*
X0092000Y0248911D01*
X0092304Y0248911D01*
X0092901Y0249030D01*
X0093463Y0249263D01*
X0093969Y0249601D01*
X0094399Y0250031D01*
X0094737Y0250537D01*
X0094970Y0251099D01*
X0095089Y0251696D01*
X0095089Y0252000D01*
X0095089Y0252304D01*
X0094970Y0252901D01*
X0094737Y0253463D01*
X0094399Y0253969D01*
X0093969Y0254399D01*
X0093463Y0254737D01*
X0092901Y0254970D01*
X0092304Y0255089D01*
X0092000Y0255089D01*
X0092000Y0252000D01*
X0095089Y0252000D01*
X0092000Y0252000D01*
X0092000Y0252000D01*
X0092000Y0252000D01*
X0092000Y0248911D01*
X0092000Y0252000D01*
X0092000Y0252000D01*
X0092000Y0252000D01*
X0088911Y0252000D01*
X0088911Y0252304D01*
X0089030Y0252901D01*
X0089263Y0253463D01*
X0089601Y0253969D01*
X0090031Y0254399D01*
X0090537Y0254737D01*
X0091099Y0254970D01*
X0091696Y0255089D01*
X0092000Y0255089D01*
X0092000Y0252000D01*
X0088911Y0252000D01*
X0088911Y0251696D01*
X0089030Y0251099D01*
X0089263Y0250537D01*
X0089601Y0250031D01*
X0088992Y0251290D02*
X0007133Y0251290D01*
X0007135Y0252489D02*
X0088948Y0252489D01*
X0089412Y0253687D02*
X0007136Y0253687D01*
X0007138Y0254886D02*
X0090895Y0254886D01*
X0092000Y0254886D02*
X0092000Y0254886D01*
X0093105Y0254886D02*
X0204746Y0254886D01*
X0204601Y0255031D02*
X0205031Y0254601D01*
X0205537Y0254263D01*
X0206099Y0254030D01*
X0206696Y0253911D01*
X0207000Y0253911D01*
X0207304Y0253911D01*
X0207901Y0254030D01*
X0208463Y0254263D01*
X0208969Y0254601D01*
X0209399Y0255031D01*
X0209737Y0255537D01*
X0209970Y0256099D01*
X0210089Y0256696D01*
X0210089Y0257000D01*
X0210089Y0257304D01*
X0209970Y0257901D01*
X0209737Y0258463D01*
X0209399Y0258969D01*
X0208969Y0259399D01*
X0208463Y0259737D01*
X0207901Y0259970D01*
X0207304Y0260089D01*
X0207000Y0260089D01*
X0207000Y0257000D01*
X0210089Y0257000D01*
X0207000Y0257000D01*
X0207000Y0257000D01*
X0207000Y0257000D01*
X0207000Y0253911D01*
X0207000Y0257000D01*
X0207000Y0257000D01*
X0207000Y0257000D01*
X0203911Y0257000D01*
X0203911Y0257304D01*
X0204030Y0257901D01*
X0204263Y0258463D01*
X0204601Y0258969D01*
X0205031Y0259399D01*
X0205537Y0259737D01*
X0206099Y0259970D01*
X0206696Y0260089D01*
X0207000Y0260089D01*
X0207000Y0257000D01*
X0203911Y0257000D01*
X0203911Y0256696D01*
X0204030Y0256099D01*
X0204263Y0255537D01*
X0204601Y0255031D01*
X0204036Y0256084D02*
X0007139Y0256084D01*
X0007141Y0257283D02*
X0203911Y0257283D01*
X0204275Y0258481D02*
X0007142Y0258481D01*
X0007144Y0259680D02*
X0205451Y0259680D01*
X0207000Y0259680D02*
X0207000Y0259680D01*
X0207000Y0258481D02*
X0207000Y0258481D01*
X0207000Y0257283D02*
X0207000Y0257283D01*
X0207000Y0256084D02*
X0207000Y0256084D01*
X0207000Y0254886D02*
X0207000Y0254886D01*
X0209254Y0254886D02*
X0247000Y0254886D01*
X0247000Y0256084D02*
X0209964Y0256084D01*
X0210089Y0257283D02*
X0247000Y0257283D01*
X0247000Y0258481D02*
X0209725Y0258481D01*
X0208549Y0259680D02*
X0247000Y0259680D01*
X0247000Y0260878D02*
X0007145Y0260878D01*
X0007146Y0262077D02*
X0247000Y0262077D01*
X0247000Y0263275D02*
X0007148Y0263275D01*
X0007149Y0264474D02*
X0247000Y0264474D01*
X0247000Y0265672D02*
X0007151Y0265672D01*
X0007152Y0266871D02*
X0145375Y0266871D01*
X0145537Y0266763D02*
X0146099Y0266530D01*
X0146696Y0266411D01*
X0147000Y0266411D01*
X0147304Y0266411D01*
X0147901Y0266530D01*
X0148463Y0266763D01*
X0148969Y0267101D01*
X0149399Y0267531D01*
X0149737Y0268037D01*
X0149970Y0268599D01*
X0150089Y0269196D01*
X0150089Y0269500D01*
X0150089Y0269804D01*
X0149970Y0270401D01*
X0149737Y0270963D01*
X0149399Y0271469D01*
X0148969Y0271899D01*
X0148463Y0272237D01*
X0147901Y0272470D01*
X0147304Y0272589D01*
X0147000Y0272589D01*
X0147000Y0269500D01*
X0150089Y0269500D01*
X0147000Y0269500D01*
X0147000Y0269500D01*
X0147000Y0269500D01*
X0147000Y0266411D01*
X0147000Y0269500D01*
X0147000Y0269500D01*
X0147000Y0269500D01*
X0143911Y0269500D01*
X0143911Y0269804D01*
X0144030Y0270401D01*
X0144263Y0270963D01*
X0144601Y0271469D01*
X0145031Y0271899D01*
X0145537Y0272237D01*
X0146099Y0272470D01*
X0146696Y0272589D01*
X0147000Y0272589D01*
X0147000Y0269500D01*
X0143911Y0269500D01*
X0143911Y0269196D01*
X0144030Y0268599D01*
X0144263Y0268037D01*
X0144601Y0267531D01*
X0145031Y0267101D01*
X0145537Y0266763D01*
X0147000Y0266871D02*
X0147000Y0266871D01*
X0147000Y0268070D02*
X0147000Y0268070D01*
X0147000Y0269268D02*
X0147000Y0269268D01*
X0147000Y0270467D02*
X0147000Y0270467D01*
X0147000Y0271665D02*
X0147000Y0271665D01*
X0149203Y0271665D02*
X0247000Y0271665D01*
X0247000Y0270467D02*
X0149943Y0270467D01*
X0150089Y0269268D02*
X0247000Y0269268D01*
X0247000Y0268070D02*
X0149751Y0268070D01*
X0148625Y0266871D02*
X0247000Y0266871D01*
X0247000Y0272864D02*
X0007160Y0272864D01*
X0007161Y0274062D02*
X0247000Y0274062D01*
X0247000Y0275261D02*
X0007163Y0275261D01*
X0007164Y0276459D02*
X0247000Y0276459D01*
X0247000Y0277658D02*
X0007165Y0277658D01*
X0007167Y0278856D02*
X0247000Y0278856D01*
X0247000Y0280055D02*
X0007168Y0280055D01*
X0007170Y0281253D02*
X0247000Y0281253D01*
X0247000Y0282452D02*
X0098896Y0282452D01*
X0098580Y0282136D02*
X0099364Y0282920D01*
X0099789Y0283945D01*
X0099789Y0284319D01*
X0107870Y0292400D01*
X0117870Y0292400D01*
X0119100Y0293630D01*
X0129100Y0303630D01*
X0129100Y0307781D01*
X0129418Y0307913D01*
X0130619Y0309114D01*
X0131268Y0310682D01*
X0131268Y0318318D01*
X0130619Y0319886D01*
X0129418Y0321087D01*
X0127849Y0321737D01*
X0126151Y0321737D01*
X0124582Y0321087D01*
X0123381Y0319886D01*
X0122731Y0318318D01*
X0122731Y0310682D01*
X0123381Y0309114D01*
X0124582Y0307913D01*
X0124900Y0307781D01*
X0124900Y0305370D01*
X0116130Y0296600D01*
X0106130Y0296600D01*
X0096819Y0287289D01*
X0096445Y0287289D01*
X0095420Y0286864D01*
X0094636Y0286080D01*
X0094211Y0285055D01*
X0094211Y0283945D01*
X0094636Y0282920D01*
X0095420Y0282136D01*
X0096445Y0281711D01*
X0097555Y0281711D01*
X0098580Y0282136D01*
X0099667Y0283650D02*
X0247000Y0283650D01*
X0247000Y0284849D02*
X0100319Y0284849D01*
X0101517Y0286047D02*
X0247000Y0286047D01*
X0247000Y0287246D02*
X0102716Y0287246D01*
X0103914Y0288444D02*
X0247000Y0288444D01*
X0247000Y0289643D02*
X0105113Y0289643D01*
X0106311Y0290841D02*
X0247000Y0290841D01*
X0247000Y0292040D02*
X0107510Y0292040D01*
X0105165Y0295635D02*
X0019068Y0295635D01*
X0018241Y0295446D02*
X0018241Y0295446D01*
X0015720Y0295635D02*
X0007187Y0295635D01*
X0007186Y0294437D02*
X0103967Y0294437D01*
X0102768Y0293238D02*
X0007184Y0293238D01*
X0007183Y0292040D02*
X0101570Y0292040D01*
X0100371Y0290841D02*
X0088682Y0290841D01*
X0088463Y0290987D02*
X0087901Y0291220D01*
X0087304Y0291339D01*
X0087000Y0291339D01*
X0087000Y0288250D01*
X0090089Y0288250D01*
X0090089Y0288554D01*
X0089970Y0289151D01*
X0089737Y0289713D01*
X0089399Y0290219D01*
X0088969Y0290649D01*
X0088463Y0290987D01*
X0087000Y0290841D02*
X0087000Y0290841D01*
X0087000Y0291339D02*
X0086696Y0291339D01*
X0086099Y0291220D01*
X0085537Y0290987D01*
X0085031Y0290649D01*
X0084601Y0290219D01*
X0084263Y0289713D01*
X0084030Y0289151D01*
X0083911Y0288554D01*
X0083911Y0288250D01*
X0087000Y0288250D01*
X0087000Y0288250D01*
X0087000Y0288250D01*
X0090089Y0288250D01*
X0090089Y0287946D01*
X0089970Y0287349D01*
X0089737Y0286787D01*
X0089399Y0286281D01*
X0088969Y0285851D01*
X0088463Y0285513D01*
X0087901Y0285280D01*
X0087304Y0285161D01*
X0087000Y0285161D01*
X0087000Y0288250D01*
X0087000Y0288250D01*
X0087000Y0288250D01*
X0087000Y0291339D01*
X0087000Y0289643D02*
X0087000Y0289643D01*
X0087000Y0288444D02*
X0087000Y0288444D01*
X0087000Y0288250D02*
X0083911Y0288250D01*
X0083911Y0287946D01*
X0084030Y0287349D01*
X0084263Y0286787D01*
X0084601Y0286281D01*
X0085031Y0285851D01*
X0085537Y0285513D01*
X0086099Y0285280D01*
X0086696Y0285161D01*
X0087000Y0285161D01*
X0087000Y0288250D01*
X0087000Y0287246D02*
X0087000Y0287246D01*
X0087000Y0286047D02*
X0087000Y0286047D01*
X0089166Y0286047D02*
X0094622Y0286047D01*
X0094211Y0284849D02*
X0007174Y0284849D01*
X0007176Y0286047D02*
X0084834Y0286047D01*
X0084073Y0287246D02*
X0007177Y0287246D01*
X0007179Y0288444D02*
X0083911Y0288444D01*
X0084233Y0289643D02*
X0007180Y0289643D01*
X0007182Y0290841D02*
X0085318Y0290841D01*
X0089767Y0289643D02*
X0099173Y0289643D01*
X0097974Y0288444D02*
X0090089Y0288444D01*
X0089927Y0287246D02*
X0096341Y0287246D01*
X0094333Y0283650D02*
X0007173Y0283650D01*
X0007171Y0282452D02*
X0095104Y0282452D01*
X0092849Y0307263D02*
X0091151Y0307263D01*
X0089582Y0307913D01*
X0088381Y0309114D01*
X0087731Y0310682D01*
X0087731Y0318318D01*
X0088381Y0319886D01*
X0089582Y0321087D01*
X0091151Y0321737D01*
X0092849Y0321737D01*
X0094418Y0321087D01*
X0095619Y0319886D01*
X0096268Y0318318D01*
X0096268Y0310682D01*
X0095619Y0309114D01*
X0094418Y0307913D01*
X0092849Y0307263D01*
X0093712Y0307620D02*
X0099613Y0307620D01*
X0099606Y0307624D02*
X0100246Y0307298D01*
X0100930Y0307075D01*
X0101616Y0306967D01*
X0101616Y0314116D01*
X0102384Y0314116D01*
X0102384Y0306967D01*
X0103070Y0307075D01*
X0103754Y0307298D01*
X0104394Y0307624D01*
X0104976Y0308047D01*
X0105485Y0308555D01*
X0105907Y0309137D01*
X0106234Y0309778D01*
X0106456Y0310462D01*
X0106568Y0311172D01*
X0106568Y0314116D01*
X0102384Y0314116D01*
X0102384Y0314884D01*
X0106568Y0314884D01*
X0106568Y0317828D01*
X0106456Y0318538D01*
X0106234Y0319222D01*
X0105907Y0319863D01*
X0105485Y0320445D01*
X0104976Y0320953D01*
X0104394Y0321376D01*
X0103754Y0321702D01*
X0103070Y0321925D01*
X0102384Y0322033D01*
X0102384Y0314884D01*
X0101616Y0314884D01*
X0101616Y0314116D01*
X0097431Y0314116D01*
X0097431Y0311172D01*
X0097544Y0310462D01*
X0097766Y0309778D01*
X0098093Y0309137D01*
X0098515Y0308555D01*
X0099024Y0308047D01*
X0099606Y0307624D01*
X0098324Y0308819D02*
X0095324Y0308819D01*
X0095993Y0310017D02*
X0097688Y0310017D01*
X0097431Y0311216D02*
X0096268Y0311216D01*
X0096268Y0312414D02*
X0097431Y0312414D01*
X0097431Y0313613D02*
X0096268Y0313613D01*
X0096268Y0314811D02*
X0101616Y0314811D01*
X0101616Y0314884D02*
X0097431Y0314884D01*
X0097431Y0317828D01*
X0097544Y0318538D01*
X0097766Y0319222D01*
X0098093Y0319863D01*
X0098515Y0320445D01*
X0099024Y0320953D01*
X0099606Y0321376D01*
X0100246Y0321702D01*
X0100930Y0321925D01*
X0101616Y0322033D01*
X0101616Y0314884D01*
X0102384Y0314811D02*
X0112731Y0314811D01*
X0112731Y0313613D02*
X0106568Y0313613D01*
X0106568Y0312414D02*
X0112731Y0312414D01*
X0112731Y0311216D02*
X0106568Y0311216D01*
X0106312Y0310017D02*
X0113007Y0310017D01*
X0112731Y0310682D02*
X0113381Y0309114D01*
X0114582Y0307913D01*
X0116151Y0307263D01*
X0117849Y0307263D01*
X0119418Y0307913D01*
X0120619Y0309114D01*
X0121268Y0310682D01*
X0121268Y0318318D01*
X0120619Y0319886D01*
X0119418Y0321087D01*
X0117849Y0321737D01*
X0116151Y0321737D01*
X0114582Y0321087D01*
X0113381Y0319886D01*
X0112731Y0318318D01*
X0112731Y0310682D01*
X0113676Y0308819D02*
X0105676Y0308819D01*
X0104387Y0307620D02*
X0115288Y0307620D01*
X0118712Y0307620D02*
X0124900Y0307620D01*
X0124900Y0306422D02*
X0032533Y0306422D01*
X0032863Y0307107D02*
X0032863Y0307107D01*
X0032940Y0307620D02*
X0040288Y0307620D01*
X0039582Y0307913D02*
X0041151Y0307263D01*
X0042849Y0307263D01*
X0044418Y0307913D01*
X0045619Y0309114D01*
X0046268Y0310682D01*
X0046268Y0318318D01*
X0045619Y0319886D01*
X0044418Y0321087D01*
X0042849Y0321737D01*
X0041151Y0321737D01*
X0039582Y0321087D01*
X0038381Y0319886D01*
X0037731Y0318318D01*
X0037731Y0310682D01*
X0038381Y0309114D01*
X0039582Y0307913D01*
X0038676Y0308819D02*
X0033121Y0308819D01*
X0033301Y0310017D02*
X0038007Y0310017D01*
X0037731Y0311216D02*
X0033482Y0311216D01*
X0033538Y0312414D02*
X0037731Y0312414D01*
X0037731Y0313613D02*
X0033357Y0313613D01*
X0033176Y0314811D02*
X0037731Y0314811D01*
X0037731Y0316010D02*
X0032996Y0316010D01*
X0032863Y0316893D02*
X0032863Y0316893D01*
X0032711Y0317208D02*
X0037731Y0317208D01*
X0037769Y0318407D02*
X0032133Y0318407D01*
X0031556Y0319605D02*
X0038265Y0319605D01*
X0039299Y0320804D02*
X0030979Y0320804D01*
X0030111Y0322003D02*
X0076423Y0322003D01*
X0076616Y0322003D02*
X0077384Y0322003D01*
X0077384Y0322033D02*
X0077384Y0314884D01*
X0081568Y0314884D01*
X0081568Y0317828D01*
X0081456Y0318538D01*
X0081234Y0319222D01*
X0080907Y0319863D01*
X0080485Y0320445D01*
X0079976Y0320953D01*
X0079394Y0321376D01*
X0078754Y0321702D01*
X0078070Y0321925D01*
X0077384Y0322033D01*
X0077577Y0322003D02*
X0101423Y0322003D01*
X0101616Y0322003D02*
X0102384Y0322003D01*
X0102577Y0322003D02*
X0198923Y0322003D01*
X0199116Y0322003D02*
X0199884Y0322003D01*
X0199884Y0322033D02*
X0199884Y0314884D01*
X0204068Y0314884D01*
X0204068Y0317828D01*
X0203956Y0318538D01*
X0203734Y0319222D01*
X0203407Y0319863D01*
X0202985Y0320445D01*
X0202476Y0320953D01*
X0201894Y0321376D01*
X0201254Y0321702D01*
X0200570Y0321925D01*
X0199884Y0322033D01*
X0200077Y0322003D02*
X0223953Y0322003D01*
X0224770Y0323201D02*
X0028999Y0323201D01*
X0027887Y0324400D02*
X0226222Y0324400D01*
X0224831Y0323291D02*
X0224831Y0323291D01*
X0223136Y0320804D02*
X0202625Y0320804D01*
X0203538Y0319605D02*
X0222319Y0319605D01*
X0222044Y0319202D02*
X0222044Y0319202D01*
X0221799Y0318407D02*
X0203977Y0318407D01*
X0204068Y0317208D02*
X0221429Y0317208D01*
X0221059Y0316010D02*
X0204068Y0316010D01*
X0204068Y0314116D02*
X0199884Y0314116D01*
X0199884Y0306967D01*
X0200570Y0307075D01*
X0201254Y0307298D01*
X0201894Y0307624D01*
X0202476Y0308047D01*
X0202985Y0308555D01*
X0203407Y0309137D01*
X0203734Y0309778D01*
X0203956Y0310462D01*
X0204068Y0311172D01*
X0204068Y0314116D01*
X0204068Y0313613D02*
X0220585Y0313613D01*
X0220585Y0312414D02*
X0204068Y0312414D01*
X0204068Y0311216D02*
X0220585Y0311216D01*
X0220585Y0310017D02*
X0203812Y0310017D01*
X0203176Y0308819D02*
X0220803Y0308819D01*
X0221173Y0307620D02*
X0201887Y0307620D01*
X0199884Y0307620D02*
X0199116Y0307620D01*
X0199116Y0306967D02*
X0199116Y0314116D01*
X0199884Y0314116D01*
X0199884Y0314884D01*
X0199116Y0314884D01*
X0199116Y0314116D01*
X0194931Y0314116D01*
X0194931Y0311172D01*
X0195044Y0310462D01*
X0195266Y0309778D01*
X0195593Y0309137D01*
X0196015Y0308555D01*
X0196524Y0308047D01*
X0197106Y0307624D01*
X0197746Y0307298D01*
X0198430Y0307075D01*
X0199116Y0306967D01*
X0199116Y0308819D02*
X0199884Y0308819D01*
X0199884Y0310017D02*
X0199116Y0310017D01*
X0199116Y0311216D02*
X0199884Y0311216D01*
X0199884Y0312414D02*
X0199116Y0312414D01*
X0199116Y0313613D02*
X0199884Y0313613D01*
X0199884Y0314811D02*
X0220689Y0314811D01*
X0221543Y0306422D02*
X0129100Y0306422D01*
X0129100Y0307620D02*
X0147788Y0307620D01*
X0147082Y0307913D02*
X0148651Y0307263D01*
X0150349Y0307263D01*
X0151918Y0307913D01*
X0153119Y0309114D01*
X0153768Y0310682D01*
X0153768Y0318318D01*
X0153119Y0319886D01*
X0151918Y0321087D01*
X0150349Y0321737D01*
X0148651Y0321737D01*
X0147082Y0321087D01*
X0145881Y0319886D01*
X0145231Y0318318D01*
X0145231Y0310682D01*
X0145881Y0309114D01*
X0147082Y0307913D01*
X0146176Y0308819D02*
X0130324Y0308819D01*
X0130993Y0310017D02*
X0145507Y0310017D01*
X0145231Y0311216D02*
X0131268Y0311216D01*
X0131268Y0312414D02*
X0145231Y0312414D01*
X0145231Y0313613D02*
X0131268Y0313613D01*
X0131268Y0314811D02*
X0145231Y0314811D01*
X0145231Y0316010D02*
X0131268Y0316010D01*
X0131268Y0317208D02*
X0145231Y0317208D01*
X0145269Y0318407D02*
X0131231Y0318407D01*
X0130735Y0319605D02*
X0145765Y0319605D01*
X0146799Y0320804D02*
X0129701Y0320804D01*
X0124299Y0320804D02*
X0119701Y0320804D01*
X0120735Y0319605D02*
X0123265Y0319605D01*
X0122769Y0318407D02*
X0121231Y0318407D01*
X0121268Y0317208D02*
X0122731Y0317208D01*
X0122731Y0316010D02*
X0121268Y0316010D01*
X0121268Y0314811D02*
X0122731Y0314811D01*
X0122731Y0313613D02*
X0121268Y0313613D01*
X0121268Y0312414D02*
X0122731Y0312414D01*
X0122731Y0311216D02*
X0121268Y0311216D01*
X0120993Y0310017D02*
X0123007Y0310017D01*
X0123676Y0308819D02*
X0120324Y0308819D01*
X0123555Y0304025D02*
X0031378Y0304025D01*
X0031955Y0305223D02*
X0124754Y0305223D01*
X0122356Y0302826D02*
X0030801Y0302826D01*
X0030716Y0302649D02*
X0030716Y0302649D01*
X0029768Y0301628D02*
X0121158Y0301628D01*
X0119959Y0300429D02*
X0028656Y0300429D01*
X0027544Y0299231D02*
X0118761Y0299231D01*
X0117562Y0298032D02*
X0025636Y0298032D01*
X0027350Y0299022D02*
X0027350Y0299022D01*
X0027350Y0299022D01*
X0023561Y0296834D02*
X0116364Y0296834D01*
X0118708Y0293238D02*
X0247000Y0293238D01*
X0247000Y0294437D02*
X0119907Y0294437D01*
X0121105Y0295635D02*
X0235720Y0295635D01*
X0239068Y0295635D02*
X0247000Y0295635D01*
X0247000Y0296834D02*
X0243561Y0296834D01*
X0245636Y0298032D02*
X0247000Y0298032D01*
X0230713Y0296834D02*
X0122304Y0296834D01*
X0123502Y0298032D02*
X0228188Y0298032D01*
X0228700Y0297624D02*
X0228700Y0297624D01*
X0226685Y0299231D02*
X0184040Y0299231D01*
X0184219Y0299351D02*
X0184649Y0299781D01*
X0184987Y0300287D01*
X0185220Y0300849D01*
X0185339Y0301446D01*
X0185339Y0301750D01*
X0185339Y0302054D01*
X0185220Y0302651D01*
X0184987Y0303213D01*
X0184649Y0303719D01*
X0184219Y0304149D01*
X0183713Y0304487D01*
X0183151Y0304720D01*
X0182554Y0304839D01*
X0182250Y0304839D01*
X0182250Y0301750D01*
X0185339Y0301750D01*
X0182250Y0301750D01*
X0182250Y0301750D01*
X0182250Y0301750D01*
X0182250Y0298661D01*
X0182554Y0298661D01*
X0183151Y0298780D01*
X0183713Y0299013D01*
X0184219Y0299351D01*
X0185046Y0300429D02*
X0225182Y0300429D01*
X0224205Y0301628D02*
X0185339Y0301628D01*
X0185148Y0302826D02*
X0223388Y0302826D01*
X0222571Y0304025D02*
X0184344Y0304025D01*
X0182250Y0304025D02*
X0182250Y0304025D01*
X0182250Y0304839D02*
X0181946Y0304839D01*
X0181349Y0304720D01*
X0180787Y0304487D01*
X0180281Y0304149D01*
X0179851Y0303719D01*
X0179513Y0303213D01*
X0179280Y0302651D01*
X0179161Y0302054D01*
X0179161Y0301750D01*
X0182250Y0301750D01*
X0182250Y0301750D01*
X0182250Y0301750D01*
X0182250Y0304839D01*
X0182250Y0302826D02*
X0182250Y0302826D01*
X0182250Y0301750D02*
X0179161Y0301750D01*
X0179161Y0301446D01*
X0179280Y0300849D01*
X0179513Y0300287D01*
X0179851Y0299781D01*
X0180281Y0299351D01*
X0180787Y0299013D01*
X0181349Y0298780D01*
X0181946Y0298661D01*
X0182250Y0298661D01*
X0182250Y0301750D01*
X0182250Y0301628D02*
X0182250Y0301628D01*
X0182250Y0300429D02*
X0182250Y0300429D01*
X0182250Y0299231D02*
X0182250Y0299231D01*
X0180460Y0299231D02*
X0124701Y0299231D01*
X0125899Y0300429D02*
X0179454Y0300429D01*
X0179161Y0301628D02*
X0127098Y0301628D01*
X0128296Y0302826D02*
X0179352Y0302826D01*
X0180156Y0304025D02*
X0129100Y0304025D01*
X0129100Y0305223D02*
X0221913Y0305223D01*
X0199884Y0316010D02*
X0199116Y0316010D01*
X0199116Y0314884D02*
X0199116Y0322033D01*
X0198430Y0321925D01*
X0197746Y0321702D01*
X0197106Y0321376D01*
X0196524Y0320953D01*
X0196015Y0320445D01*
X0195593Y0319863D01*
X0195266Y0319222D01*
X0195044Y0318538D01*
X0194931Y0317828D01*
X0194931Y0314884D01*
X0199116Y0314884D01*
X0199116Y0314811D02*
X0193768Y0314811D01*
X0193768Y0313613D02*
X0194931Y0313613D01*
X0194931Y0312414D02*
X0193768Y0312414D01*
X0193768Y0311216D02*
X0194931Y0311216D01*
X0195188Y0310017D02*
X0193493Y0310017D01*
X0193768Y0310682D02*
X0193119Y0309114D01*
X0191918Y0307913D01*
X0190349Y0307263D01*
X0188651Y0307263D01*
X0187082Y0307913D01*
X0185881Y0309114D01*
X0185231Y0310682D01*
X0185231Y0318318D01*
X0185881Y0319886D01*
X0187082Y0321087D01*
X0188651Y0321737D01*
X0190349Y0321737D01*
X0191918Y0321087D01*
X0193119Y0319886D01*
X0193768Y0318318D01*
X0193768Y0310682D01*
X0192824Y0308819D02*
X0195824Y0308819D01*
X0197113Y0307620D02*
X0191212Y0307620D01*
X0187788Y0307620D02*
X0161212Y0307620D01*
X0161918Y0307913D02*
X0163119Y0309114D01*
X0163768Y0310682D01*
X0163768Y0318318D01*
X0163119Y0319886D01*
X0161918Y0321087D01*
X0160349Y0321737D01*
X0158651Y0321737D01*
X0157082Y0321087D01*
X0155881Y0319886D01*
X0155231Y0318318D01*
X0155231Y0310682D01*
X0155881Y0309114D01*
X0157082Y0307913D01*
X0158651Y0307263D01*
X0160349Y0307263D01*
X0161918Y0307913D01*
X0162824Y0308819D02*
X0186176Y0308819D01*
X0185507Y0310017D02*
X0163493Y0310017D01*
X0163768Y0311216D02*
X0185231Y0311216D01*
X0185231Y0312414D02*
X0163768Y0312414D01*
X0163768Y0313613D02*
X0185231Y0313613D01*
X0185231Y0314811D02*
X0163768Y0314811D01*
X0163768Y0316010D02*
X0185231Y0316010D01*
X0185231Y0317208D02*
X0163768Y0317208D01*
X0163731Y0318407D02*
X0185269Y0318407D01*
X0185765Y0319605D02*
X0163235Y0319605D01*
X0162201Y0320804D02*
X0186799Y0320804D01*
X0192201Y0320804D02*
X0196375Y0320804D01*
X0195462Y0319605D02*
X0193235Y0319605D01*
X0193731Y0318407D02*
X0195023Y0318407D01*
X0194931Y0317208D02*
X0193768Y0317208D01*
X0193768Y0316010D02*
X0194931Y0316010D01*
X0199116Y0317208D02*
X0199884Y0317208D01*
X0199884Y0318407D02*
X0199116Y0318407D01*
X0199116Y0319605D02*
X0199884Y0319605D01*
X0199884Y0320804D02*
X0199116Y0320804D01*
X0157788Y0307620D02*
X0151212Y0307620D01*
X0152824Y0308819D02*
X0156176Y0308819D01*
X0155507Y0310017D02*
X0153493Y0310017D01*
X0153768Y0311216D02*
X0155231Y0311216D01*
X0155231Y0312414D02*
X0153768Y0312414D01*
X0153768Y0313613D02*
X0155231Y0313613D01*
X0155231Y0314811D02*
X0153768Y0314811D01*
X0153768Y0316010D02*
X0155231Y0316010D01*
X0155231Y0317208D02*
X0153768Y0317208D01*
X0153731Y0318407D02*
X0155269Y0318407D01*
X0155765Y0319605D02*
X0153235Y0319605D01*
X0152201Y0320804D02*
X0156799Y0320804D01*
X0144797Y0271665D02*
X0007158Y0271665D01*
X0007157Y0270467D02*
X0144057Y0270467D01*
X0143911Y0269268D02*
X0007155Y0269268D01*
X0007154Y0268070D02*
X0144249Y0268070D01*
X0169481Y0251290D02*
X0095008Y0251290D01*
X0095052Y0252489D02*
X0171193Y0252489D01*
X0172000Y0252489D02*
X0172000Y0252489D01*
X0172807Y0252489D02*
X0247000Y0252489D01*
X0247000Y0253687D02*
X0094588Y0253687D01*
X0092000Y0253687D02*
X0092000Y0253687D01*
X0092000Y0252489D02*
X0092000Y0252489D01*
X0092000Y0251290D02*
X0092000Y0251290D01*
X0092000Y0250092D02*
X0092000Y0250092D01*
X0094440Y0250092D02*
X0168968Y0250092D01*
X0172000Y0250092D02*
X0172000Y0250092D01*
X0172000Y0251290D02*
X0172000Y0251290D01*
X0172000Y0248893D02*
X0172000Y0248893D01*
X0172000Y0247695D02*
X0172000Y0247695D01*
X0174509Y0247695D02*
X0247000Y0247695D01*
X0247000Y0248893D02*
X0175029Y0248893D01*
X0175032Y0250092D02*
X0247000Y0250092D01*
X0247000Y0251290D02*
X0174519Y0251290D01*
X0168861Y0208144D02*
X0199775Y0208144D01*
X0199048Y0206945D02*
X0170060Y0206945D01*
X0170600Y0205747D02*
X0198911Y0205747D01*
X0199258Y0204548D02*
X0170600Y0204548D01*
X0209765Y0218931D02*
X0247000Y0218931D01*
X0247000Y0220129D02*
X0211132Y0220129D01*
X0211565Y0221328D02*
X0247000Y0221328D01*
X0247000Y0222526D02*
X0211495Y0222526D01*
X0247000Y0215335D02*
X0083033Y0215335D01*
X0083723Y0214137D02*
X0247000Y0214137D01*
X0247000Y0212938D02*
X0083837Y0212938D01*
X0083456Y0211739D02*
X0247000Y0211739D01*
X0247000Y0155409D02*
X0239967Y0155409D01*
X0240089Y0154211D02*
X0247000Y0154211D01*
X0247000Y0153012D02*
X0239721Y0153012D01*
X0238540Y0151814D02*
X0247000Y0151814D01*
X0247000Y0037955D02*
X0007000Y0037955D01*
X0007000Y0036757D02*
X0247000Y0036757D01*
X0247000Y0035558D02*
X0007000Y0035558D01*
X0007000Y0034360D02*
X0247000Y0034360D01*
X0247000Y0033161D02*
X0239959Y0033161D01*
X0243913Y0031963D02*
X0247000Y0031963D01*
X0247000Y0030764D02*
X0245989Y0030764D01*
X0233249Y0033161D02*
X0019959Y0033161D01*
X0023913Y0031963D02*
X0230195Y0031963D01*
X0227933Y0030764D02*
X0025989Y0030764D01*
X0027733Y0029566D02*
X0226430Y0029566D01*
X0224927Y0028367D02*
X0028845Y0028367D01*
X0029957Y0027169D02*
X0224066Y0027169D01*
X0223249Y0025970D02*
X0030899Y0025970D01*
X0031476Y0024772D02*
X0222432Y0024772D01*
X0221850Y0023573D02*
X0032053Y0023573D01*
X0032630Y0022375D02*
X0221480Y0022375D01*
X0112297Y0021176D02*
X0107169Y0021176D01*
X0108324Y0019978D02*
X0110973Y0019978D01*
X0110423Y0018779D02*
X0108878Y0018779D01*
X0109068Y0017581D02*
X0110231Y0017581D01*
X0110231Y0016382D02*
X0109068Y0016382D01*
X0109068Y0015184D02*
X0110231Y0015184D01*
X0110231Y0013985D02*
X0109068Y0013985D01*
X0109068Y0012787D02*
X0110231Y0012787D01*
X0110231Y0011588D02*
X0109068Y0011588D01*
X0108933Y0010390D02*
X0110353Y0010390D01*
X0110849Y0009191D02*
X0108435Y0009191D01*
X0107401Y0007993D02*
X0112002Y0007993D01*
X0104884Y0015184D02*
X0104116Y0015184D01*
X0104116Y0016382D02*
X0104884Y0016382D01*
X0104884Y0017581D02*
X0104116Y0017581D01*
X0104116Y0018779D02*
X0104884Y0018779D01*
X0104884Y0019978D02*
X0104116Y0019978D01*
X0104116Y0021176D02*
X0104884Y0021176D01*
X0101831Y0021176D02*
X0061703Y0021176D01*
X0061918Y0021087D02*
X0060349Y0021737D01*
X0058651Y0021737D01*
X0057082Y0021087D01*
X0055881Y0019886D01*
X0055231Y0018318D01*
X0055231Y0010682D01*
X0055881Y0009114D01*
X0057082Y0007913D01*
X0058651Y0007263D01*
X0060349Y0007263D01*
X0061918Y0007913D01*
X0063119Y0009114D01*
X0063768Y0010682D01*
X0063768Y0018318D01*
X0063119Y0019886D01*
X0061918Y0021087D01*
X0063027Y0019978D02*
X0100676Y0019978D01*
X0100122Y0018779D02*
X0063577Y0018779D01*
X0063768Y0017581D02*
X0099931Y0017581D01*
X0099931Y0016382D02*
X0063768Y0016382D01*
X0063768Y0015184D02*
X0099931Y0015184D01*
X0099931Y0013985D02*
X0063768Y0013985D01*
X0063768Y0012787D02*
X0099931Y0012787D01*
X0099931Y0011588D02*
X0063768Y0011588D01*
X0063647Y0010390D02*
X0100067Y0010390D01*
X0100565Y0009191D02*
X0063151Y0009191D01*
X0061998Y0007993D02*
X0101599Y0007993D01*
X0057002Y0007993D02*
X0052401Y0007993D01*
X0053435Y0009191D02*
X0055849Y0009191D01*
X0055353Y0010390D02*
X0053933Y0010390D01*
X0054068Y0011588D02*
X0055231Y0011588D01*
X0055231Y0012787D02*
X0054068Y0012787D01*
X0054068Y0013985D02*
X0055231Y0013985D01*
X0055231Y0015184D02*
X0054068Y0015184D01*
X0054068Y0016382D02*
X0055231Y0016382D01*
X0055231Y0017581D02*
X0054068Y0017581D01*
X0053878Y0018779D02*
X0055423Y0018779D01*
X0055973Y0019978D02*
X0053324Y0019978D01*
X0052169Y0021176D02*
X0057297Y0021176D01*
X0049884Y0021176D02*
X0049116Y0021176D01*
X0049116Y0019978D02*
X0049884Y0019978D01*
X0049884Y0018779D02*
X0049116Y0018779D01*
X0049116Y0017581D02*
X0049884Y0017581D01*
X0049884Y0016382D02*
X0049116Y0016382D01*
X0049116Y0015184D02*
X0049884Y0015184D01*
X0044931Y0015184D02*
X0033326Y0015184D01*
X0033507Y0016382D02*
X0044931Y0016382D01*
X0044931Y0017581D02*
X0033512Y0017581D01*
X0033332Y0018779D02*
X0045122Y0018779D01*
X0045676Y0019978D02*
X0033151Y0019978D01*
X0032971Y0021176D02*
X0046831Y0021176D01*
X0044931Y0013985D02*
X0033146Y0013985D01*
X0032965Y0012787D02*
X0044931Y0012787D01*
X0044931Y0011588D02*
X0032613Y0011588D01*
X0032035Y0010390D02*
X0045067Y0010390D01*
X0045565Y0009191D02*
X0031458Y0009191D01*
X0030881Y0007993D02*
X0046599Y0007993D01*
X0013249Y0033161D02*
X0007000Y0033161D01*
X0007000Y0031963D02*
X0010195Y0031963D01*
X0007933Y0030764D02*
X0007000Y0030764D01*
X0007069Y0198556D02*
X0037826Y0198556D01*
X0038031Y0198351D02*
X0038537Y0198013D01*
X0039099Y0197780D01*
X0039696Y0197661D01*
X0040000Y0197661D01*
X0040000Y0200750D01*
X0040000Y0200750D01*
X0040000Y0200750D01*
X0036911Y0200750D01*
X0036911Y0201054D01*
X0037030Y0201651D01*
X0037263Y0202213D01*
X0037601Y0202719D01*
X0037757Y0202875D01*
X0037601Y0203031D01*
X0037263Y0203537D01*
X0037030Y0204099D01*
X0036911Y0204696D01*
X0036911Y0205000D01*
X0040000Y0205000D01*
X0040000Y0205000D01*
X0040000Y0200750D01*
X0036911Y0200750D01*
X0036911Y0200446D01*
X0037030Y0199849D01*
X0037263Y0199287D01*
X0037601Y0198781D01*
X0038031Y0198351D01*
X0037069Y0199754D02*
X0007070Y0199754D01*
X0007072Y0200953D02*
X0036911Y0200953D01*
X0037237Y0202151D02*
X0007073Y0202151D01*
X0007075Y0203350D02*
X0037387Y0203350D01*
X0036940Y0204548D02*
X0007076Y0204548D01*
X0007078Y0205747D02*
X0036999Y0205747D01*
X0037585Y0206945D02*
X0007079Y0206945D01*
X0040000Y0206945D02*
X0040000Y0206945D01*
X0040000Y0205747D02*
X0040000Y0205747D01*
X0040000Y0204548D02*
X0040000Y0204548D01*
X0040000Y0203350D02*
X0040000Y0203350D01*
X0040000Y0202151D02*
X0040000Y0202151D01*
X0040000Y0200953D02*
X0040000Y0200953D01*
X0040000Y0199754D02*
X0040000Y0199754D01*
X0040000Y0198556D02*
X0040000Y0198556D01*
X0080750Y0211739D02*
X0080750Y0211739D01*
X0080750Y0212938D02*
X0080750Y0212938D01*
X0080750Y0214137D02*
X0080750Y0214137D01*
X0080750Y0215335D02*
X0080750Y0215335D01*
X0023065Y0296547D02*
X0023065Y0296547D01*
X0010713Y0296834D02*
X0007189Y0296834D01*
X0007190Y0298032D02*
X0008188Y0298032D01*
X0008700Y0297624D02*
X0008700Y0297624D01*
X0043712Y0307620D02*
X0050288Y0307620D01*
X0049582Y0307913D02*
X0051151Y0307263D01*
X0052849Y0307263D01*
X0054418Y0307913D01*
X0055619Y0309114D01*
X0056268Y0310682D01*
X0056268Y0318318D01*
X0055619Y0319886D01*
X0054418Y0321087D01*
X0052849Y0321737D01*
X0051151Y0321737D01*
X0049582Y0321087D01*
X0048381Y0319886D01*
X0047731Y0318318D01*
X0047731Y0310682D01*
X0048381Y0309114D01*
X0049582Y0307913D01*
X0048676Y0308819D02*
X0045324Y0308819D01*
X0045993Y0310017D02*
X0048007Y0310017D01*
X0047731Y0311216D02*
X0046268Y0311216D01*
X0046268Y0312414D02*
X0047731Y0312414D01*
X0047731Y0313613D02*
X0046268Y0313613D01*
X0046268Y0314811D02*
X0047731Y0314811D01*
X0047731Y0316010D02*
X0046268Y0316010D01*
X0046268Y0317208D02*
X0047731Y0317208D01*
X0047769Y0318407D02*
X0046231Y0318407D01*
X0045735Y0319605D02*
X0048265Y0319605D01*
X0049299Y0320804D02*
X0044701Y0320804D01*
X0054701Y0320804D02*
X0064299Y0320804D01*
X0064582Y0321087D02*
X0063381Y0319886D01*
X0062731Y0318318D01*
X0062731Y0310682D01*
X0063381Y0309114D01*
X0064582Y0307913D01*
X0066151Y0307263D01*
X0067849Y0307263D01*
X0069418Y0307913D01*
X0070619Y0309114D01*
X0071268Y0310682D01*
X0071268Y0318318D01*
X0070619Y0319886D01*
X0069418Y0321087D01*
X0067849Y0321737D01*
X0066151Y0321737D01*
X0064582Y0321087D01*
X0063265Y0319605D02*
X0055735Y0319605D01*
X0056231Y0318407D02*
X0062769Y0318407D01*
X0062731Y0317208D02*
X0056268Y0317208D01*
X0056268Y0316010D02*
X0062731Y0316010D01*
X0062731Y0314811D02*
X0056268Y0314811D01*
X0056268Y0313613D02*
X0062731Y0313613D01*
X0062731Y0312414D02*
X0056268Y0312414D01*
X0056268Y0311216D02*
X0062731Y0311216D01*
X0063007Y0310017D02*
X0055993Y0310017D01*
X0055324Y0308819D02*
X0063676Y0308819D01*
X0065288Y0307620D02*
X0053712Y0307620D01*
X0068712Y0307620D02*
X0074613Y0307620D01*
X0074606Y0307624D02*
X0075246Y0307298D01*
X0075930Y0307075D01*
X0076616Y0306967D01*
X0076616Y0314116D01*
X0077384Y0314116D01*
X0077384Y0306967D01*
X0078070Y0307075D01*
X0078754Y0307298D01*
X0079394Y0307624D01*
X0079976Y0308047D01*
X0080485Y0308555D01*
X0080907Y0309137D01*
X0081234Y0309778D01*
X0081456Y0310462D01*
X0081568Y0311172D01*
X0081568Y0314116D01*
X0077384Y0314116D01*
X0077384Y0314884D01*
X0076616Y0314884D01*
X0076616Y0314116D01*
X0072431Y0314116D01*
X0072431Y0311172D01*
X0072544Y0310462D01*
X0072766Y0309778D01*
X0073093Y0309137D01*
X0073515Y0308555D01*
X0074024Y0308047D01*
X0074606Y0307624D01*
X0073324Y0308819D02*
X0070324Y0308819D01*
X0070993Y0310017D02*
X0072688Y0310017D01*
X0072431Y0311216D02*
X0071268Y0311216D01*
X0071268Y0312414D02*
X0072431Y0312414D01*
X0072431Y0313613D02*
X0071268Y0313613D01*
X0071268Y0314811D02*
X0076616Y0314811D01*
X0076616Y0314884D02*
X0072431Y0314884D01*
X0072431Y0317828D01*
X0072544Y0318538D01*
X0072766Y0319222D01*
X0073093Y0319863D01*
X0073515Y0320445D01*
X0074024Y0320953D01*
X0074606Y0321376D01*
X0075246Y0321702D01*
X0075930Y0321925D01*
X0076616Y0322033D01*
X0076616Y0314884D01*
X0077384Y0314811D02*
X0087731Y0314811D01*
X0087731Y0313613D02*
X0081568Y0313613D01*
X0081568Y0312414D02*
X0087731Y0312414D01*
X0087731Y0311216D02*
X0081568Y0311216D01*
X0081312Y0310017D02*
X0088007Y0310017D01*
X0088676Y0308819D02*
X0080676Y0308819D01*
X0079387Y0307620D02*
X0090288Y0307620D01*
X0087731Y0316010D02*
X0081568Y0316010D01*
X0081568Y0317208D02*
X0087731Y0317208D01*
X0087769Y0318407D02*
X0081477Y0318407D01*
X0081038Y0319605D02*
X0088265Y0319605D01*
X0089299Y0320804D02*
X0080125Y0320804D01*
X0077384Y0320804D02*
X0076616Y0320804D01*
X0076616Y0319605D02*
X0077384Y0319605D01*
X0077384Y0318407D02*
X0076616Y0318407D01*
X0076616Y0317208D02*
X0077384Y0317208D01*
X0077384Y0316010D02*
X0076616Y0316010D01*
X0076616Y0313613D02*
X0077384Y0313613D01*
X0077384Y0312414D02*
X0076616Y0312414D01*
X0076616Y0311216D02*
X0077384Y0311216D01*
X0077384Y0310017D02*
X0076616Y0310017D01*
X0076616Y0308819D02*
X0077384Y0308819D01*
X0077384Y0307620D02*
X0076616Y0307620D01*
X0072431Y0316010D02*
X0071268Y0316010D01*
X0071268Y0317208D02*
X0072431Y0317208D01*
X0072523Y0318407D02*
X0071231Y0318407D01*
X0070735Y0319605D02*
X0072962Y0319605D01*
X0073875Y0320804D02*
X0069701Y0320804D01*
X0094701Y0320804D02*
X0098875Y0320804D01*
X0097962Y0319605D02*
X0095735Y0319605D01*
X0096231Y0318407D02*
X0097523Y0318407D01*
X0097431Y0317208D02*
X0096268Y0317208D01*
X0096268Y0316010D02*
X0097431Y0316010D01*
X0101616Y0316010D02*
X0102384Y0316010D01*
X0102384Y0317208D02*
X0101616Y0317208D01*
X0101616Y0318407D02*
X0102384Y0318407D01*
X0102384Y0319605D02*
X0101616Y0319605D01*
X0101616Y0320804D02*
X0102384Y0320804D01*
X0105125Y0320804D02*
X0114299Y0320804D01*
X0113265Y0319605D02*
X0106038Y0319605D01*
X0106477Y0318407D02*
X0112769Y0318407D01*
X0112731Y0317208D02*
X0106568Y0317208D01*
X0106568Y0316010D02*
X0112731Y0316010D01*
X0102384Y0313613D02*
X0101616Y0313613D01*
X0101616Y0312414D02*
X0102384Y0312414D01*
X0102384Y0311216D02*
X0101616Y0311216D01*
X0101616Y0310017D02*
X0102384Y0310017D01*
X0102384Y0308819D02*
X0101616Y0308819D01*
X0101616Y0307620D02*
X0102384Y0307620D01*
D13*
X0059500Y0147250D03*
X0044500Y0147250D03*
X0034500Y0127250D03*
X0054500Y0127250D03*
X0069500Y0127250D03*
D14*
X0049500Y0127250D03*
X0045750Y0088000D03*
X0045750Y0050750D03*
X0109500Y0059500D03*
X0109500Y0064500D03*
X0119500Y0059500D03*
X0149500Y0049500D03*
X0170750Y0043250D03*
X0181000Y0046250D03*
X0194500Y0051750D03*
X0199500Y0064500D03*
X0184500Y0082000D03*
X0190000Y0088250D03*
X0202000Y0114500D03*
X0184500Y0124500D03*
X0163000Y0088250D03*
X0155750Y0090750D03*
X0157000Y0114500D03*
X0199500Y0177000D03*
X0202000Y0206000D03*
X0208500Y0221750D03*
X0207000Y0257000D03*
X0182250Y0301750D03*
X0147000Y0269500D03*
X0172000Y0249500D03*
X0237000Y0154500D03*
X0237000Y0119500D03*
X0097000Y0284500D03*
X0087000Y0288250D03*
X0092000Y0252000D03*
X0080750Y0213250D03*
X0040000Y0205000D03*
X0040000Y0200750D03*
D15*
X0040000Y0205000D02*
X0032750Y0205000D01*
X0032500Y0205250D01*
D16*
X0097000Y0284500D02*
X0107000Y0294500D01*
X0117000Y0294500D01*
X0127000Y0304500D01*
X0127000Y0314500D01*
X0184500Y0124500D02*
X0197000Y0112000D01*
X0197000Y0087000D01*
X0192000Y0082000D01*
X0184500Y0082000D01*
X0190000Y0088250D02*
X0163000Y0088250D01*
X0135000Y0064500D02*
X0155250Y0051750D01*
X0175250Y0051750D01*
X0181000Y0046000D01*
X0181000Y0046250D01*
X0181000Y0046000D02*
X0199500Y0064500D01*
X0149500Y0049500D02*
X0132000Y0059500D01*
X0119500Y0059500D01*
X0110750Y0050750D01*
X0045750Y0050750D01*
X0069250Y0064500D02*
X0109500Y0064500D01*
X0135000Y0064500D01*
X0069250Y0064500D02*
X0045750Y0088000D01*
M02*
