G75*
%MOIN*%
%OFA0B0*%
%FSLAX25Y25*%
%IPPOS*%
%LPD*%
%AMOC8*
5,1,8,0,0,1.08239X$1,22.5*
%
%ADD10C,0.01000*%
%ADD11C,0.00000*%
D10*
X0002000Y0002000D02*
X0002000Y0327000D01*
X0252000Y0327000D01*
X0252000Y0002000D01*
X0002000Y0002000D01*
D11*
X0010701Y0017000D02*
X0010703Y0017158D01*
X0010709Y0017316D01*
X0010719Y0017474D01*
X0010733Y0017632D01*
X0010751Y0017789D01*
X0010772Y0017946D01*
X0010798Y0018102D01*
X0010828Y0018258D01*
X0010861Y0018413D01*
X0010899Y0018566D01*
X0010940Y0018719D01*
X0010985Y0018871D01*
X0011034Y0019022D01*
X0011087Y0019171D01*
X0011143Y0019319D01*
X0011203Y0019465D01*
X0011267Y0019610D01*
X0011335Y0019753D01*
X0011406Y0019895D01*
X0011480Y0020035D01*
X0011558Y0020172D01*
X0011640Y0020308D01*
X0011724Y0020442D01*
X0011813Y0020573D01*
X0011904Y0020702D01*
X0011999Y0020829D01*
X0012096Y0020954D01*
X0012197Y0021076D01*
X0012301Y0021195D01*
X0012408Y0021312D01*
X0012518Y0021426D01*
X0012631Y0021537D01*
X0012746Y0021646D01*
X0012864Y0021751D01*
X0012985Y0021853D01*
X0013108Y0021953D01*
X0013234Y0022049D01*
X0013362Y0022142D01*
X0013492Y0022232D01*
X0013625Y0022318D01*
X0013760Y0022402D01*
X0013896Y0022481D01*
X0014035Y0022558D01*
X0014176Y0022630D01*
X0014318Y0022700D01*
X0014462Y0022765D01*
X0014608Y0022827D01*
X0014755Y0022885D01*
X0014904Y0022940D01*
X0015054Y0022991D01*
X0015205Y0023038D01*
X0015357Y0023081D01*
X0015510Y0023120D01*
X0015665Y0023156D01*
X0015820Y0023187D01*
X0015976Y0023215D01*
X0016132Y0023239D01*
X0016289Y0023259D01*
X0016447Y0023275D01*
X0016604Y0023287D01*
X0016763Y0023295D01*
X0016921Y0023299D01*
X0017079Y0023299D01*
X0017237Y0023295D01*
X0017396Y0023287D01*
X0017553Y0023275D01*
X0017711Y0023259D01*
X0017868Y0023239D01*
X0018024Y0023215D01*
X0018180Y0023187D01*
X0018335Y0023156D01*
X0018490Y0023120D01*
X0018643Y0023081D01*
X0018795Y0023038D01*
X0018946Y0022991D01*
X0019096Y0022940D01*
X0019245Y0022885D01*
X0019392Y0022827D01*
X0019538Y0022765D01*
X0019682Y0022700D01*
X0019824Y0022630D01*
X0019965Y0022558D01*
X0020104Y0022481D01*
X0020240Y0022402D01*
X0020375Y0022318D01*
X0020508Y0022232D01*
X0020638Y0022142D01*
X0020766Y0022049D01*
X0020892Y0021953D01*
X0021015Y0021853D01*
X0021136Y0021751D01*
X0021254Y0021646D01*
X0021369Y0021537D01*
X0021482Y0021426D01*
X0021592Y0021312D01*
X0021699Y0021195D01*
X0021803Y0021076D01*
X0021904Y0020954D01*
X0022001Y0020829D01*
X0022096Y0020702D01*
X0022187Y0020573D01*
X0022276Y0020442D01*
X0022360Y0020308D01*
X0022442Y0020172D01*
X0022520Y0020035D01*
X0022594Y0019895D01*
X0022665Y0019753D01*
X0022733Y0019610D01*
X0022797Y0019465D01*
X0022857Y0019319D01*
X0022913Y0019171D01*
X0022966Y0019022D01*
X0023015Y0018871D01*
X0023060Y0018719D01*
X0023101Y0018566D01*
X0023139Y0018413D01*
X0023172Y0018258D01*
X0023202Y0018102D01*
X0023228Y0017946D01*
X0023249Y0017789D01*
X0023267Y0017632D01*
X0023281Y0017474D01*
X0023291Y0017316D01*
X0023297Y0017158D01*
X0023299Y0017000D01*
X0023297Y0016842D01*
X0023291Y0016684D01*
X0023281Y0016526D01*
X0023267Y0016368D01*
X0023249Y0016211D01*
X0023228Y0016054D01*
X0023202Y0015898D01*
X0023172Y0015742D01*
X0023139Y0015587D01*
X0023101Y0015434D01*
X0023060Y0015281D01*
X0023015Y0015129D01*
X0022966Y0014978D01*
X0022913Y0014829D01*
X0022857Y0014681D01*
X0022797Y0014535D01*
X0022733Y0014390D01*
X0022665Y0014247D01*
X0022594Y0014105D01*
X0022520Y0013965D01*
X0022442Y0013828D01*
X0022360Y0013692D01*
X0022276Y0013558D01*
X0022187Y0013427D01*
X0022096Y0013298D01*
X0022001Y0013171D01*
X0021904Y0013046D01*
X0021803Y0012924D01*
X0021699Y0012805D01*
X0021592Y0012688D01*
X0021482Y0012574D01*
X0021369Y0012463D01*
X0021254Y0012354D01*
X0021136Y0012249D01*
X0021015Y0012147D01*
X0020892Y0012047D01*
X0020766Y0011951D01*
X0020638Y0011858D01*
X0020508Y0011768D01*
X0020375Y0011682D01*
X0020240Y0011598D01*
X0020104Y0011519D01*
X0019965Y0011442D01*
X0019824Y0011370D01*
X0019682Y0011300D01*
X0019538Y0011235D01*
X0019392Y0011173D01*
X0019245Y0011115D01*
X0019096Y0011060D01*
X0018946Y0011009D01*
X0018795Y0010962D01*
X0018643Y0010919D01*
X0018490Y0010880D01*
X0018335Y0010844D01*
X0018180Y0010813D01*
X0018024Y0010785D01*
X0017868Y0010761D01*
X0017711Y0010741D01*
X0017553Y0010725D01*
X0017396Y0010713D01*
X0017237Y0010705D01*
X0017079Y0010701D01*
X0016921Y0010701D01*
X0016763Y0010705D01*
X0016604Y0010713D01*
X0016447Y0010725D01*
X0016289Y0010741D01*
X0016132Y0010761D01*
X0015976Y0010785D01*
X0015820Y0010813D01*
X0015665Y0010844D01*
X0015510Y0010880D01*
X0015357Y0010919D01*
X0015205Y0010962D01*
X0015054Y0011009D01*
X0014904Y0011060D01*
X0014755Y0011115D01*
X0014608Y0011173D01*
X0014462Y0011235D01*
X0014318Y0011300D01*
X0014176Y0011370D01*
X0014035Y0011442D01*
X0013896Y0011519D01*
X0013760Y0011598D01*
X0013625Y0011682D01*
X0013492Y0011768D01*
X0013362Y0011858D01*
X0013234Y0011951D01*
X0013108Y0012047D01*
X0012985Y0012147D01*
X0012864Y0012249D01*
X0012746Y0012354D01*
X0012631Y0012463D01*
X0012518Y0012574D01*
X0012408Y0012688D01*
X0012301Y0012805D01*
X0012197Y0012924D01*
X0012096Y0013046D01*
X0011999Y0013171D01*
X0011904Y0013298D01*
X0011813Y0013427D01*
X0011724Y0013558D01*
X0011640Y0013692D01*
X0011558Y0013828D01*
X0011480Y0013965D01*
X0011406Y0014105D01*
X0011335Y0014247D01*
X0011267Y0014390D01*
X0011203Y0014535D01*
X0011143Y0014681D01*
X0011087Y0014829D01*
X0011034Y0014978D01*
X0010985Y0015129D01*
X0010940Y0015281D01*
X0010899Y0015434D01*
X0010861Y0015587D01*
X0010828Y0015742D01*
X0010798Y0015898D01*
X0010772Y0016054D01*
X0010751Y0016211D01*
X0010733Y0016368D01*
X0010719Y0016526D01*
X0010709Y0016684D01*
X0010703Y0016842D01*
X0010701Y0017000D01*
X0010701Y0312000D02*
X0010703Y0312158D01*
X0010709Y0312316D01*
X0010719Y0312474D01*
X0010733Y0312632D01*
X0010751Y0312789D01*
X0010772Y0312946D01*
X0010798Y0313102D01*
X0010828Y0313258D01*
X0010861Y0313413D01*
X0010899Y0313566D01*
X0010940Y0313719D01*
X0010985Y0313871D01*
X0011034Y0314022D01*
X0011087Y0314171D01*
X0011143Y0314319D01*
X0011203Y0314465D01*
X0011267Y0314610D01*
X0011335Y0314753D01*
X0011406Y0314895D01*
X0011480Y0315035D01*
X0011558Y0315172D01*
X0011640Y0315308D01*
X0011724Y0315442D01*
X0011813Y0315573D01*
X0011904Y0315702D01*
X0011999Y0315829D01*
X0012096Y0315954D01*
X0012197Y0316076D01*
X0012301Y0316195D01*
X0012408Y0316312D01*
X0012518Y0316426D01*
X0012631Y0316537D01*
X0012746Y0316646D01*
X0012864Y0316751D01*
X0012985Y0316853D01*
X0013108Y0316953D01*
X0013234Y0317049D01*
X0013362Y0317142D01*
X0013492Y0317232D01*
X0013625Y0317318D01*
X0013760Y0317402D01*
X0013896Y0317481D01*
X0014035Y0317558D01*
X0014176Y0317630D01*
X0014318Y0317700D01*
X0014462Y0317765D01*
X0014608Y0317827D01*
X0014755Y0317885D01*
X0014904Y0317940D01*
X0015054Y0317991D01*
X0015205Y0318038D01*
X0015357Y0318081D01*
X0015510Y0318120D01*
X0015665Y0318156D01*
X0015820Y0318187D01*
X0015976Y0318215D01*
X0016132Y0318239D01*
X0016289Y0318259D01*
X0016447Y0318275D01*
X0016604Y0318287D01*
X0016763Y0318295D01*
X0016921Y0318299D01*
X0017079Y0318299D01*
X0017237Y0318295D01*
X0017396Y0318287D01*
X0017553Y0318275D01*
X0017711Y0318259D01*
X0017868Y0318239D01*
X0018024Y0318215D01*
X0018180Y0318187D01*
X0018335Y0318156D01*
X0018490Y0318120D01*
X0018643Y0318081D01*
X0018795Y0318038D01*
X0018946Y0317991D01*
X0019096Y0317940D01*
X0019245Y0317885D01*
X0019392Y0317827D01*
X0019538Y0317765D01*
X0019682Y0317700D01*
X0019824Y0317630D01*
X0019965Y0317558D01*
X0020104Y0317481D01*
X0020240Y0317402D01*
X0020375Y0317318D01*
X0020508Y0317232D01*
X0020638Y0317142D01*
X0020766Y0317049D01*
X0020892Y0316953D01*
X0021015Y0316853D01*
X0021136Y0316751D01*
X0021254Y0316646D01*
X0021369Y0316537D01*
X0021482Y0316426D01*
X0021592Y0316312D01*
X0021699Y0316195D01*
X0021803Y0316076D01*
X0021904Y0315954D01*
X0022001Y0315829D01*
X0022096Y0315702D01*
X0022187Y0315573D01*
X0022276Y0315442D01*
X0022360Y0315308D01*
X0022442Y0315172D01*
X0022520Y0315035D01*
X0022594Y0314895D01*
X0022665Y0314753D01*
X0022733Y0314610D01*
X0022797Y0314465D01*
X0022857Y0314319D01*
X0022913Y0314171D01*
X0022966Y0314022D01*
X0023015Y0313871D01*
X0023060Y0313719D01*
X0023101Y0313566D01*
X0023139Y0313413D01*
X0023172Y0313258D01*
X0023202Y0313102D01*
X0023228Y0312946D01*
X0023249Y0312789D01*
X0023267Y0312632D01*
X0023281Y0312474D01*
X0023291Y0312316D01*
X0023297Y0312158D01*
X0023299Y0312000D01*
X0023297Y0311842D01*
X0023291Y0311684D01*
X0023281Y0311526D01*
X0023267Y0311368D01*
X0023249Y0311211D01*
X0023228Y0311054D01*
X0023202Y0310898D01*
X0023172Y0310742D01*
X0023139Y0310587D01*
X0023101Y0310434D01*
X0023060Y0310281D01*
X0023015Y0310129D01*
X0022966Y0309978D01*
X0022913Y0309829D01*
X0022857Y0309681D01*
X0022797Y0309535D01*
X0022733Y0309390D01*
X0022665Y0309247D01*
X0022594Y0309105D01*
X0022520Y0308965D01*
X0022442Y0308828D01*
X0022360Y0308692D01*
X0022276Y0308558D01*
X0022187Y0308427D01*
X0022096Y0308298D01*
X0022001Y0308171D01*
X0021904Y0308046D01*
X0021803Y0307924D01*
X0021699Y0307805D01*
X0021592Y0307688D01*
X0021482Y0307574D01*
X0021369Y0307463D01*
X0021254Y0307354D01*
X0021136Y0307249D01*
X0021015Y0307147D01*
X0020892Y0307047D01*
X0020766Y0306951D01*
X0020638Y0306858D01*
X0020508Y0306768D01*
X0020375Y0306682D01*
X0020240Y0306598D01*
X0020104Y0306519D01*
X0019965Y0306442D01*
X0019824Y0306370D01*
X0019682Y0306300D01*
X0019538Y0306235D01*
X0019392Y0306173D01*
X0019245Y0306115D01*
X0019096Y0306060D01*
X0018946Y0306009D01*
X0018795Y0305962D01*
X0018643Y0305919D01*
X0018490Y0305880D01*
X0018335Y0305844D01*
X0018180Y0305813D01*
X0018024Y0305785D01*
X0017868Y0305761D01*
X0017711Y0305741D01*
X0017553Y0305725D01*
X0017396Y0305713D01*
X0017237Y0305705D01*
X0017079Y0305701D01*
X0016921Y0305701D01*
X0016763Y0305705D01*
X0016604Y0305713D01*
X0016447Y0305725D01*
X0016289Y0305741D01*
X0016132Y0305761D01*
X0015976Y0305785D01*
X0015820Y0305813D01*
X0015665Y0305844D01*
X0015510Y0305880D01*
X0015357Y0305919D01*
X0015205Y0305962D01*
X0015054Y0306009D01*
X0014904Y0306060D01*
X0014755Y0306115D01*
X0014608Y0306173D01*
X0014462Y0306235D01*
X0014318Y0306300D01*
X0014176Y0306370D01*
X0014035Y0306442D01*
X0013896Y0306519D01*
X0013760Y0306598D01*
X0013625Y0306682D01*
X0013492Y0306768D01*
X0013362Y0306858D01*
X0013234Y0306951D01*
X0013108Y0307047D01*
X0012985Y0307147D01*
X0012864Y0307249D01*
X0012746Y0307354D01*
X0012631Y0307463D01*
X0012518Y0307574D01*
X0012408Y0307688D01*
X0012301Y0307805D01*
X0012197Y0307924D01*
X0012096Y0308046D01*
X0011999Y0308171D01*
X0011904Y0308298D01*
X0011813Y0308427D01*
X0011724Y0308558D01*
X0011640Y0308692D01*
X0011558Y0308828D01*
X0011480Y0308965D01*
X0011406Y0309105D01*
X0011335Y0309247D01*
X0011267Y0309390D01*
X0011203Y0309535D01*
X0011143Y0309681D01*
X0011087Y0309829D01*
X0011034Y0309978D01*
X0010985Y0310129D01*
X0010940Y0310281D01*
X0010899Y0310434D01*
X0010861Y0310587D01*
X0010828Y0310742D01*
X0010798Y0310898D01*
X0010772Y0311054D01*
X0010751Y0311211D01*
X0010733Y0311368D01*
X0010719Y0311526D01*
X0010709Y0311684D01*
X0010703Y0311842D01*
X0010701Y0312000D01*
X0230701Y0312000D02*
X0230703Y0312158D01*
X0230709Y0312316D01*
X0230719Y0312474D01*
X0230733Y0312632D01*
X0230751Y0312789D01*
X0230772Y0312946D01*
X0230798Y0313102D01*
X0230828Y0313258D01*
X0230861Y0313413D01*
X0230899Y0313566D01*
X0230940Y0313719D01*
X0230985Y0313871D01*
X0231034Y0314022D01*
X0231087Y0314171D01*
X0231143Y0314319D01*
X0231203Y0314465D01*
X0231267Y0314610D01*
X0231335Y0314753D01*
X0231406Y0314895D01*
X0231480Y0315035D01*
X0231558Y0315172D01*
X0231640Y0315308D01*
X0231724Y0315442D01*
X0231813Y0315573D01*
X0231904Y0315702D01*
X0231999Y0315829D01*
X0232096Y0315954D01*
X0232197Y0316076D01*
X0232301Y0316195D01*
X0232408Y0316312D01*
X0232518Y0316426D01*
X0232631Y0316537D01*
X0232746Y0316646D01*
X0232864Y0316751D01*
X0232985Y0316853D01*
X0233108Y0316953D01*
X0233234Y0317049D01*
X0233362Y0317142D01*
X0233492Y0317232D01*
X0233625Y0317318D01*
X0233760Y0317402D01*
X0233896Y0317481D01*
X0234035Y0317558D01*
X0234176Y0317630D01*
X0234318Y0317700D01*
X0234462Y0317765D01*
X0234608Y0317827D01*
X0234755Y0317885D01*
X0234904Y0317940D01*
X0235054Y0317991D01*
X0235205Y0318038D01*
X0235357Y0318081D01*
X0235510Y0318120D01*
X0235665Y0318156D01*
X0235820Y0318187D01*
X0235976Y0318215D01*
X0236132Y0318239D01*
X0236289Y0318259D01*
X0236447Y0318275D01*
X0236604Y0318287D01*
X0236763Y0318295D01*
X0236921Y0318299D01*
X0237079Y0318299D01*
X0237237Y0318295D01*
X0237396Y0318287D01*
X0237553Y0318275D01*
X0237711Y0318259D01*
X0237868Y0318239D01*
X0238024Y0318215D01*
X0238180Y0318187D01*
X0238335Y0318156D01*
X0238490Y0318120D01*
X0238643Y0318081D01*
X0238795Y0318038D01*
X0238946Y0317991D01*
X0239096Y0317940D01*
X0239245Y0317885D01*
X0239392Y0317827D01*
X0239538Y0317765D01*
X0239682Y0317700D01*
X0239824Y0317630D01*
X0239965Y0317558D01*
X0240104Y0317481D01*
X0240240Y0317402D01*
X0240375Y0317318D01*
X0240508Y0317232D01*
X0240638Y0317142D01*
X0240766Y0317049D01*
X0240892Y0316953D01*
X0241015Y0316853D01*
X0241136Y0316751D01*
X0241254Y0316646D01*
X0241369Y0316537D01*
X0241482Y0316426D01*
X0241592Y0316312D01*
X0241699Y0316195D01*
X0241803Y0316076D01*
X0241904Y0315954D01*
X0242001Y0315829D01*
X0242096Y0315702D01*
X0242187Y0315573D01*
X0242276Y0315442D01*
X0242360Y0315308D01*
X0242442Y0315172D01*
X0242520Y0315035D01*
X0242594Y0314895D01*
X0242665Y0314753D01*
X0242733Y0314610D01*
X0242797Y0314465D01*
X0242857Y0314319D01*
X0242913Y0314171D01*
X0242966Y0314022D01*
X0243015Y0313871D01*
X0243060Y0313719D01*
X0243101Y0313566D01*
X0243139Y0313413D01*
X0243172Y0313258D01*
X0243202Y0313102D01*
X0243228Y0312946D01*
X0243249Y0312789D01*
X0243267Y0312632D01*
X0243281Y0312474D01*
X0243291Y0312316D01*
X0243297Y0312158D01*
X0243299Y0312000D01*
X0243297Y0311842D01*
X0243291Y0311684D01*
X0243281Y0311526D01*
X0243267Y0311368D01*
X0243249Y0311211D01*
X0243228Y0311054D01*
X0243202Y0310898D01*
X0243172Y0310742D01*
X0243139Y0310587D01*
X0243101Y0310434D01*
X0243060Y0310281D01*
X0243015Y0310129D01*
X0242966Y0309978D01*
X0242913Y0309829D01*
X0242857Y0309681D01*
X0242797Y0309535D01*
X0242733Y0309390D01*
X0242665Y0309247D01*
X0242594Y0309105D01*
X0242520Y0308965D01*
X0242442Y0308828D01*
X0242360Y0308692D01*
X0242276Y0308558D01*
X0242187Y0308427D01*
X0242096Y0308298D01*
X0242001Y0308171D01*
X0241904Y0308046D01*
X0241803Y0307924D01*
X0241699Y0307805D01*
X0241592Y0307688D01*
X0241482Y0307574D01*
X0241369Y0307463D01*
X0241254Y0307354D01*
X0241136Y0307249D01*
X0241015Y0307147D01*
X0240892Y0307047D01*
X0240766Y0306951D01*
X0240638Y0306858D01*
X0240508Y0306768D01*
X0240375Y0306682D01*
X0240240Y0306598D01*
X0240104Y0306519D01*
X0239965Y0306442D01*
X0239824Y0306370D01*
X0239682Y0306300D01*
X0239538Y0306235D01*
X0239392Y0306173D01*
X0239245Y0306115D01*
X0239096Y0306060D01*
X0238946Y0306009D01*
X0238795Y0305962D01*
X0238643Y0305919D01*
X0238490Y0305880D01*
X0238335Y0305844D01*
X0238180Y0305813D01*
X0238024Y0305785D01*
X0237868Y0305761D01*
X0237711Y0305741D01*
X0237553Y0305725D01*
X0237396Y0305713D01*
X0237237Y0305705D01*
X0237079Y0305701D01*
X0236921Y0305701D01*
X0236763Y0305705D01*
X0236604Y0305713D01*
X0236447Y0305725D01*
X0236289Y0305741D01*
X0236132Y0305761D01*
X0235976Y0305785D01*
X0235820Y0305813D01*
X0235665Y0305844D01*
X0235510Y0305880D01*
X0235357Y0305919D01*
X0235205Y0305962D01*
X0235054Y0306009D01*
X0234904Y0306060D01*
X0234755Y0306115D01*
X0234608Y0306173D01*
X0234462Y0306235D01*
X0234318Y0306300D01*
X0234176Y0306370D01*
X0234035Y0306442D01*
X0233896Y0306519D01*
X0233760Y0306598D01*
X0233625Y0306682D01*
X0233492Y0306768D01*
X0233362Y0306858D01*
X0233234Y0306951D01*
X0233108Y0307047D01*
X0232985Y0307147D01*
X0232864Y0307249D01*
X0232746Y0307354D01*
X0232631Y0307463D01*
X0232518Y0307574D01*
X0232408Y0307688D01*
X0232301Y0307805D01*
X0232197Y0307924D01*
X0232096Y0308046D01*
X0231999Y0308171D01*
X0231904Y0308298D01*
X0231813Y0308427D01*
X0231724Y0308558D01*
X0231640Y0308692D01*
X0231558Y0308828D01*
X0231480Y0308965D01*
X0231406Y0309105D01*
X0231335Y0309247D01*
X0231267Y0309390D01*
X0231203Y0309535D01*
X0231143Y0309681D01*
X0231087Y0309829D01*
X0231034Y0309978D01*
X0230985Y0310129D01*
X0230940Y0310281D01*
X0230899Y0310434D01*
X0230861Y0310587D01*
X0230828Y0310742D01*
X0230798Y0310898D01*
X0230772Y0311054D01*
X0230751Y0311211D01*
X0230733Y0311368D01*
X0230719Y0311526D01*
X0230709Y0311684D01*
X0230703Y0311842D01*
X0230701Y0312000D01*
X0230701Y0017000D02*
X0230703Y0017158D01*
X0230709Y0017316D01*
X0230719Y0017474D01*
X0230733Y0017632D01*
X0230751Y0017789D01*
X0230772Y0017946D01*
X0230798Y0018102D01*
X0230828Y0018258D01*
X0230861Y0018413D01*
X0230899Y0018566D01*
X0230940Y0018719D01*
X0230985Y0018871D01*
X0231034Y0019022D01*
X0231087Y0019171D01*
X0231143Y0019319D01*
X0231203Y0019465D01*
X0231267Y0019610D01*
X0231335Y0019753D01*
X0231406Y0019895D01*
X0231480Y0020035D01*
X0231558Y0020172D01*
X0231640Y0020308D01*
X0231724Y0020442D01*
X0231813Y0020573D01*
X0231904Y0020702D01*
X0231999Y0020829D01*
X0232096Y0020954D01*
X0232197Y0021076D01*
X0232301Y0021195D01*
X0232408Y0021312D01*
X0232518Y0021426D01*
X0232631Y0021537D01*
X0232746Y0021646D01*
X0232864Y0021751D01*
X0232985Y0021853D01*
X0233108Y0021953D01*
X0233234Y0022049D01*
X0233362Y0022142D01*
X0233492Y0022232D01*
X0233625Y0022318D01*
X0233760Y0022402D01*
X0233896Y0022481D01*
X0234035Y0022558D01*
X0234176Y0022630D01*
X0234318Y0022700D01*
X0234462Y0022765D01*
X0234608Y0022827D01*
X0234755Y0022885D01*
X0234904Y0022940D01*
X0235054Y0022991D01*
X0235205Y0023038D01*
X0235357Y0023081D01*
X0235510Y0023120D01*
X0235665Y0023156D01*
X0235820Y0023187D01*
X0235976Y0023215D01*
X0236132Y0023239D01*
X0236289Y0023259D01*
X0236447Y0023275D01*
X0236604Y0023287D01*
X0236763Y0023295D01*
X0236921Y0023299D01*
X0237079Y0023299D01*
X0237237Y0023295D01*
X0237396Y0023287D01*
X0237553Y0023275D01*
X0237711Y0023259D01*
X0237868Y0023239D01*
X0238024Y0023215D01*
X0238180Y0023187D01*
X0238335Y0023156D01*
X0238490Y0023120D01*
X0238643Y0023081D01*
X0238795Y0023038D01*
X0238946Y0022991D01*
X0239096Y0022940D01*
X0239245Y0022885D01*
X0239392Y0022827D01*
X0239538Y0022765D01*
X0239682Y0022700D01*
X0239824Y0022630D01*
X0239965Y0022558D01*
X0240104Y0022481D01*
X0240240Y0022402D01*
X0240375Y0022318D01*
X0240508Y0022232D01*
X0240638Y0022142D01*
X0240766Y0022049D01*
X0240892Y0021953D01*
X0241015Y0021853D01*
X0241136Y0021751D01*
X0241254Y0021646D01*
X0241369Y0021537D01*
X0241482Y0021426D01*
X0241592Y0021312D01*
X0241699Y0021195D01*
X0241803Y0021076D01*
X0241904Y0020954D01*
X0242001Y0020829D01*
X0242096Y0020702D01*
X0242187Y0020573D01*
X0242276Y0020442D01*
X0242360Y0020308D01*
X0242442Y0020172D01*
X0242520Y0020035D01*
X0242594Y0019895D01*
X0242665Y0019753D01*
X0242733Y0019610D01*
X0242797Y0019465D01*
X0242857Y0019319D01*
X0242913Y0019171D01*
X0242966Y0019022D01*
X0243015Y0018871D01*
X0243060Y0018719D01*
X0243101Y0018566D01*
X0243139Y0018413D01*
X0243172Y0018258D01*
X0243202Y0018102D01*
X0243228Y0017946D01*
X0243249Y0017789D01*
X0243267Y0017632D01*
X0243281Y0017474D01*
X0243291Y0017316D01*
X0243297Y0017158D01*
X0243299Y0017000D01*
X0243297Y0016842D01*
X0243291Y0016684D01*
X0243281Y0016526D01*
X0243267Y0016368D01*
X0243249Y0016211D01*
X0243228Y0016054D01*
X0243202Y0015898D01*
X0243172Y0015742D01*
X0243139Y0015587D01*
X0243101Y0015434D01*
X0243060Y0015281D01*
X0243015Y0015129D01*
X0242966Y0014978D01*
X0242913Y0014829D01*
X0242857Y0014681D01*
X0242797Y0014535D01*
X0242733Y0014390D01*
X0242665Y0014247D01*
X0242594Y0014105D01*
X0242520Y0013965D01*
X0242442Y0013828D01*
X0242360Y0013692D01*
X0242276Y0013558D01*
X0242187Y0013427D01*
X0242096Y0013298D01*
X0242001Y0013171D01*
X0241904Y0013046D01*
X0241803Y0012924D01*
X0241699Y0012805D01*
X0241592Y0012688D01*
X0241482Y0012574D01*
X0241369Y0012463D01*
X0241254Y0012354D01*
X0241136Y0012249D01*
X0241015Y0012147D01*
X0240892Y0012047D01*
X0240766Y0011951D01*
X0240638Y0011858D01*
X0240508Y0011768D01*
X0240375Y0011682D01*
X0240240Y0011598D01*
X0240104Y0011519D01*
X0239965Y0011442D01*
X0239824Y0011370D01*
X0239682Y0011300D01*
X0239538Y0011235D01*
X0239392Y0011173D01*
X0239245Y0011115D01*
X0239096Y0011060D01*
X0238946Y0011009D01*
X0238795Y0010962D01*
X0238643Y0010919D01*
X0238490Y0010880D01*
X0238335Y0010844D01*
X0238180Y0010813D01*
X0238024Y0010785D01*
X0237868Y0010761D01*
X0237711Y0010741D01*
X0237553Y0010725D01*
X0237396Y0010713D01*
X0237237Y0010705D01*
X0237079Y0010701D01*
X0236921Y0010701D01*
X0236763Y0010705D01*
X0236604Y0010713D01*
X0236447Y0010725D01*
X0236289Y0010741D01*
X0236132Y0010761D01*
X0235976Y0010785D01*
X0235820Y0010813D01*
X0235665Y0010844D01*
X0235510Y0010880D01*
X0235357Y0010919D01*
X0235205Y0010962D01*
X0235054Y0011009D01*
X0234904Y0011060D01*
X0234755Y0011115D01*
X0234608Y0011173D01*
X0234462Y0011235D01*
X0234318Y0011300D01*
X0234176Y0011370D01*
X0234035Y0011442D01*
X0233896Y0011519D01*
X0233760Y0011598D01*
X0233625Y0011682D01*
X0233492Y0011768D01*
X0233362Y0011858D01*
X0233234Y0011951D01*
X0233108Y0012047D01*
X0232985Y0012147D01*
X0232864Y0012249D01*
X0232746Y0012354D01*
X0232631Y0012463D01*
X0232518Y0012574D01*
X0232408Y0012688D01*
X0232301Y0012805D01*
X0232197Y0012924D01*
X0232096Y0013046D01*
X0231999Y0013171D01*
X0231904Y0013298D01*
X0231813Y0013427D01*
X0231724Y0013558D01*
X0231640Y0013692D01*
X0231558Y0013828D01*
X0231480Y0013965D01*
X0231406Y0014105D01*
X0231335Y0014247D01*
X0231267Y0014390D01*
X0231203Y0014535D01*
X0231143Y0014681D01*
X0231087Y0014829D01*
X0231034Y0014978D01*
X0230985Y0015129D01*
X0230940Y0015281D01*
X0230899Y0015434D01*
X0230861Y0015587D01*
X0230828Y0015742D01*
X0230798Y0015898D01*
X0230772Y0016054D01*
X0230751Y0016211D01*
X0230733Y0016368D01*
X0230719Y0016526D01*
X0230709Y0016684D01*
X0230703Y0016842D01*
X0230701Y0017000D01*
M02*
