G75*
%MOIN*%
%OFA0B0*%
%FSLAX25Y25*%
%IPPOS*%
%LPD*%
%AMOC8*
5,1,8,0,0,1.08239X$1,22.5*
%
%ADD10R,0.04800X0.04800*%
%ADD11R,0.03162X0.09461*%
%ADD12R,0.03950X0.04343*%
%ADD13C,0.09461*%
%ADD14R,0.04134X0.06201*%
%ADD15C,0.06737*%
%ADD16C,0.13398*%
%ADD17C,0.03600*%
%ADD18C,0.03778*%
D10*
X0032000Y0044750D03*
X0032000Y0051750D03*
X0039500Y0051750D03*
X0039500Y0044750D03*
X0053500Y0044500D03*
X0053500Y0050750D03*
X0060500Y0050750D03*
X0060500Y0044500D03*
X0060000Y0032000D03*
X0067000Y0032000D03*
X0069500Y0043500D03*
X0069500Y0050500D03*
X0077000Y0050750D03*
X0077000Y0044500D03*
X0084000Y0044500D03*
X0084000Y0050750D03*
X0058000Y0107000D03*
X0058000Y0113250D03*
X0051000Y0113250D03*
X0051000Y0107000D03*
X0050000Y0124750D03*
X0050000Y0131750D03*
X0044000Y0131750D03*
X0044000Y0124750D03*
X0056000Y0124750D03*
X0056000Y0131750D03*
X0062000Y0131750D03*
X0062000Y0124750D03*
X0070750Y0124750D03*
X0070750Y0131750D03*
X0077000Y0131750D03*
X0077000Y0124750D03*
X0083250Y0124750D03*
X0083250Y0131750D03*
X0099500Y0144750D03*
X0099500Y0151750D03*
X0068250Y0188500D03*
X0068250Y0195500D03*
X0060750Y0195500D03*
X0060750Y0188500D03*
X0029500Y0151750D03*
X0029500Y0144750D03*
X0020500Y0097000D03*
X0020500Y0089500D03*
X0013500Y0089500D03*
X0013500Y0097000D03*
D11*
X0042000Y0141390D03*
X0047000Y0141390D03*
X0052000Y0141390D03*
X0057000Y0141390D03*
X0062000Y0141390D03*
X0067000Y0141390D03*
X0072000Y0141390D03*
X0077000Y0141390D03*
X0082000Y0141390D03*
X0087000Y0141390D03*
X0087000Y0177610D03*
X0082000Y0177610D03*
X0077000Y0177610D03*
X0072000Y0177610D03*
X0067000Y0177610D03*
X0062000Y0177610D03*
X0057000Y0177610D03*
X0052000Y0177610D03*
X0047000Y0177610D03*
X0042000Y0177610D03*
X0047000Y0097610D03*
X0052000Y0097610D03*
X0057000Y0097610D03*
X0062000Y0097610D03*
X0067000Y0097610D03*
X0072000Y0097610D03*
X0077000Y0097610D03*
X0082000Y0097610D03*
X0082000Y0061390D03*
X0077000Y0061390D03*
X0072000Y0061390D03*
X0067000Y0061390D03*
X0062000Y0061390D03*
X0057000Y0061390D03*
X0052000Y0061390D03*
X0047000Y0061390D03*
D12*
X0033240Y0130563D03*
X0029500Y0138831D03*
X0025760Y0130563D03*
X0095760Y0130563D03*
X0099500Y0138831D03*
X0103240Y0130563D03*
D13*
X0020500Y0113748D02*
X0020500Y0113748D01*
X0020500Y0119654D01*
X0020500Y0119654D01*
X0020500Y0113748D01*
D14*
X0020500Y0105175D03*
X0014594Y0105175D03*
X0026406Y0105175D03*
D15*
X0017469Y0054500D02*
X0011531Y0054500D01*
X0011531Y0044500D02*
X0017469Y0044500D01*
X0057000Y0017469D02*
X0057000Y0011531D01*
X0067000Y0011531D02*
X0067000Y0017469D01*
X0079500Y0199031D02*
X0079500Y0204969D01*
X0089500Y0204969D02*
X0089500Y0199031D01*
X0099500Y0199031D02*
X0099500Y0204969D01*
X0109500Y0204969D02*
X0109500Y0199031D01*
X0049500Y0199031D02*
X0049500Y0204969D01*
X0039500Y0204969D02*
X0039500Y0199031D01*
X0029500Y0199031D02*
X0029500Y0204969D01*
X0019500Y0204969D02*
X0019500Y0199031D01*
D16*
X0017000Y0017000D03*
X0112000Y0017000D03*
X0112000Y0237000D03*
X0017000Y0237000D03*
D17*
X0057000Y0169500D03*
X0052000Y0149500D03*
X0072000Y0169500D03*
X0089500Y0124500D03*
X0072000Y0089500D03*
X0067000Y0069500D03*
X0057000Y0089500D03*
X0047000Y0069500D03*
X0082000Y0069500D03*
D18*
X0060500Y0038250D03*
X0039500Y0057000D03*
X0028000Y0113250D03*
X0064500Y0204500D03*
M02*
