G75*
%MOIN*%
%OFA0B0*%
%FSLAX25Y25*%
%IPPOS*%
%LPD*%
%AMOC8*
5,1,8,0,0,1.08239X$1,22.5*
%
%ADD10C,0.06737*%
%ADD11C,0.13398*%
%ADD12C,0.03600*%
%ADD13C,0.03778*%
D10*
X0011531Y0044500D02*
X0017469Y0044500D01*
X0017469Y0054500D02*
X0011531Y0054500D01*
X0057000Y0017469D02*
X0057000Y0011531D01*
X0067000Y0011531D02*
X0067000Y0017469D01*
X0079500Y0199031D02*
X0079500Y0204969D01*
X0089500Y0204969D02*
X0089500Y0199031D01*
X0099500Y0199031D02*
X0099500Y0204969D01*
X0109500Y0204969D02*
X0109500Y0199031D01*
X0049500Y0199031D02*
X0049500Y0204969D01*
X0039500Y0204969D02*
X0039500Y0199031D01*
X0029500Y0199031D02*
X0029500Y0204969D01*
X0019500Y0204969D02*
X0019500Y0199031D01*
D11*
X0017000Y0017000D03*
X0112000Y0017000D03*
X0112000Y0237000D03*
X0017000Y0237000D03*
D12*
X0057000Y0169500D03*
X0052000Y0149500D03*
X0072000Y0169500D03*
X0089500Y0124500D03*
X0072000Y0089500D03*
X0067000Y0069500D03*
X0057000Y0089500D03*
X0047000Y0069500D03*
X0082000Y0069500D03*
D13*
X0060500Y0038250D03*
X0039500Y0057000D03*
X0028000Y0113250D03*
X0064500Y0204500D03*
M02*
