G75*
%MOIN*%
%OFA0B0*%
%FSLAX25Y25*%
%IPPOS*%
%LPD*%
%AMOC8*
5,1,8,0,0,1.08239X$1,22.5*
%
%ADD10C,0.01000*%
%ADD11C,0.00000*%
D10*
X0002000Y0002000D02*
X0002000Y0252000D01*
X0127000Y0252000D01*
X0126750Y0002000D01*
X0002000Y0002000D01*
D11*
X0010701Y0017000D02*
X0010703Y0017158D01*
X0010709Y0017316D01*
X0010719Y0017474D01*
X0010733Y0017632D01*
X0010751Y0017789D01*
X0010772Y0017946D01*
X0010798Y0018102D01*
X0010828Y0018258D01*
X0010861Y0018413D01*
X0010899Y0018566D01*
X0010940Y0018719D01*
X0010985Y0018871D01*
X0011034Y0019022D01*
X0011087Y0019171D01*
X0011143Y0019319D01*
X0011203Y0019465D01*
X0011267Y0019610D01*
X0011335Y0019753D01*
X0011406Y0019895D01*
X0011480Y0020035D01*
X0011558Y0020172D01*
X0011640Y0020308D01*
X0011724Y0020442D01*
X0011813Y0020573D01*
X0011904Y0020702D01*
X0011999Y0020829D01*
X0012096Y0020954D01*
X0012197Y0021076D01*
X0012301Y0021195D01*
X0012408Y0021312D01*
X0012518Y0021426D01*
X0012631Y0021537D01*
X0012746Y0021646D01*
X0012864Y0021751D01*
X0012985Y0021853D01*
X0013108Y0021953D01*
X0013234Y0022049D01*
X0013362Y0022142D01*
X0013492Y0022232D01*
X0013625Y0022318D01*
X0013760Y0022402D01*
X0013896Y0022481D01*
X0014035Y0022558D01*
X0014176Y0022630D01*
X0014318Y0022700D01*
X0014462Y0022765D01*
X0014608Y0022827D01*
X0014755Y0022885D01*
X0014904Y0022940D01*
X0015054Y0022991D01*
X0015205Y0023038D01*
X0015357Y0023081D01*
X0015510Y0023120D01*
X0015665Y0023156D01*
X0015820Y0023187D01*
X0015976Y0023215D01*
X0016132Y0023239D01*
X0016289Y0023259D01*
X0016447Y0023275D01*
X0016604Y0023287D01*
X0016763Y0023295D01*
X0016921Y0023299D01*
X0017079Y0023299D01*
X0017237Y0023295D01*
X0017396Y0023287D01*
X0017553Y0023275D01*
X0017711Y0023259D01*
X0017868Y0023239D01*
X0018024Y0023215D01*
X0018180Y0023187D01*
X0018335Y0023156D01*
X0018490Y0023120D01*
X0018643Y0023081D01*
X0018795Y0023038D01*
X0018946Y0022991D01*
X0019096Y0022940D01*
X0019245Y0022885D01*
X0019392Y0022827D01*
X0019538Y0022765D01*
X0019682Y0022700D01*
X0019824Y0022630D01*
X0019965Y0022558D01*
X0020104Y0022481D01*
X0020240Y0022402D01*
X0020375Y0022318D01*
X0020508Y0022232D01*
X0020638Y0022142D01*
X0020766Y0022049D01*
X0020892Y0021953D01*
X0021015Y0021853D01*
X0021136Y0021751D01*
X0021254Y0021646D01*
X0021369Y0021537D01*
X0021482Y0021426D01*
X0021592Y0021312D01*
X0021699Y0021195D01*
X0021803Y0021076D01*
X0021904Y0020954D01*
X0022001Y0020829D01*
X0022096Y0020702D01*
X0022187Y0020573D01*
X0022276Y0020442D01*
X0022360Y0020308D01*
X0022442Y0020172D01*
X0022520Y0020035D01*
X0022594Y0019895D01*
X0022665Y0019753D01*
X0022733Y0019610D01*
X0022797Y0019465D01*
X0022857Y0019319D01*
X0022913Y0019171D01*
X0022966Y0019022D01*
X0023015Y0018871D01*
X0023060Y0018719D01*
X0023101Y0018566D01*
X0023139Y0018413D01*
X0023172Y0018258D01*
X0023202Y0018102D01*
X0023228Y0017946D01*
X0023249Y0017789D01*
X0023267Y0017632D01*
X0023281Y0017474D01*
X0023291Y0017316D01*
X0023297Y0017158D01*
X0023299Y0017000D01*
X0023297Y0016842D01*
X0023291Y0016684D01*
X0023281Y0016526D01*
X0023267Y0016368D01*
X0023249Y0016211D01*
X0023228Y0016054D01*
X0023202Y0015898D01*
X0023172Y0015742D01*
X0023139Y0015587D01*
X0023101Y0015434D01*
X0023060Y0015281D01*
X0023015Y0015129D01*
X0022966Y0014978D01*
X0022913Y0014829D01*
X0022857Y0014681D01*
X0022797Y0014535D01*
X0022733Y0014390D01*
X0022665Y0014247D01*
X0022594Y0014105D01*
X0022520Y0013965D01*
X0022442Y0013828D01*
X0022360Y0013692D01*
X0022276Y0013558D01*
X0022187Y0013427D01*
X0022096Y0013298D01*
X0022001Y0013171D01*
X0021904Y0013046D01*
X0021803Y0012924D01*
X0021699Y0012805D01*
X0021592Y0012688D01*
X0021482Y0012574D01*
X0021369Y0012463D01*
X0021254Y0012354D01*
X0021136Y0012249D01*
X0021015Y0012147D01*
X0020892Y0012047D01*
X0020766Y0011951D01*
X0020638Y0011858D01*
X0020508Y0011768D01*
X0020375Y0011682D01*
X0020240Y0011598D01*
X0020104Y0011519D01*
X0019965Y0011442D01*
X0019824Y0011370D01*
X0019682Y0011300D01*
X0019538Y0011235D01*
X0019392Y0011173D01*
X0019245Y0011115D01*
X0019096Y0011060D01*
X0018946Y0011009D01*
X0018795Y0010962D01*
X0018643Y0010919D01*
X0018490Y0010880D01*
X0018335Y0010844D01*
X0018180Y0010813D01*
X0018024Y0010785D01*
X0017868Y0010761D01*
X0017711Y0010741D01*
X0017553Y0010725D01*
X0017396Y0010713D01*
X0017237Y0010705D01*
X0017079Y0010701D01*
X0016921Y0010701D01*
X0016763Y0010705D01*
X0016604Y0010713D01*
X0016447Y0010725D01*
X0016289Y0010741D01*
X0016132Y0010761D01*
X0015976Y0010785D01*
X0015820Y0010813D01*
X0015665Y0010844D01*
X0015510Y0010880D01*
X0015357Y0010919D01*
X0015205Y0010962D01*
X0015054Y0011009D01*
X0014904Y0011060D01*
X0014755Y0011115D01*
X0014608Y0011173D01*
X0014462Y0011235D01*
X0014318Y0011300D01*
X0014176Y0011370D01*
X0014035Y0011442D01*
X0013896Y0011519D01*
X0013760Y0011598D01*
X0013625Y0011682D01*
X0013492Y0011768D01*
X0013362Y0011858D01*
X0013234Y0011951D01*
X0013108Y0012047D01*
X0012985Y0012147D01*
X0012864Y0012249D01*
X0012746Y0012354D01*
X0012631Y0012463D01*
X0012518Y0012574D01*
X0012408Y0012688D01*
X0012301Y0012805D01*
X0012197Y0012924D01*
X0012096Y0013046D01*
X0011999Y0013171D01*
X0011904Y0013298D01*
X0011813Y0013427D01*
X0011724Y0013558D01*
X0011640Y0013692D01*
X0011558Y0013828D01*
X0011480Y0013965D01*
X0011406Y0014105D01*
X0011335Y0014247D01*
X0011267Y0014390D01*
X0011203Y0014535D01*
X0011143Y0014681D01*
X0011087Y0014829D01*
X0011034Y0014978D01*
X0010985Y0015129D01*
X0010940Y0015281D01*
X0010899Y0015434D01*
X0010861Y0015587D01*
X0010828Y0015742D01*
X0010798Y0015898D01*
X0010772Y0016054D01*
X0010751Y0016211D01*
X0010733Y0016368D01*
X0010719Y0016526D01*
X0010709Y0016684D01*
X0010703Y0016842D01*
X0010701Y0017000D01*
X0105701Y0017000D02*
X0105703Y0017158D01*
X0105709Y0017316D01*
X0105719Y0017474D01*
X0105733Y0017632D01*
X0105751Y0017789D01*
X0105772Y0017946D01*
X0105798Y0018102D01*
X0105828Y0018258D01*
X0105861Y0018413D01*
X0105899Y0018566D01*
X0105940Y0018719D01*
X0105985Y0018871D01*
X0106034Y0019022D01*
X0106087Y0019171D01*
X0106143Y0019319D01*
X0106203Y0019465D01*
X0106267Y0019610D01*
X0106335Y0019753D01*
X0106406Y0019895D01*
X0106480Y0020035D01*
X0106558Y0020172D01*
X0106640Y0020308D01*
X0106724Y0020442D01*
X0106813Y0020573D01*
X0106904Y0020702D01*
X0106999Y0020829D01*
X0107096Y0020954D01*
X0107197Y0021076D01*
X0107301Y0021195D01*
X0107408Y0021312D01*
X0107518Y0021426D01*
X0107631Y0021537D01*
X0107746Y0021646D01*
X0107864Y0021751D01*
X0107985Y0021853D01*
X0108108Y0021953D01*
X0108234Y0022049D01*
X0108362Y0022142D01*
X0108492Y0022232D01*
X0108625Y0022318D01*
X0108760Y0022402D01*
X0108896Y0022481D01*
X0109035Y0022558D01*
X0109176Y0022630D01*
X0109318Y0022700D01*
X0109462Y0022765D01*
X0109608Y0022827D01*
X0109755Y0022885D01*
X0109904Y0022940D01*
X0110054Y0022991D01*
X0110205Y0023038D01*
X0110357Y0023081D01*
X0110510Y0023120D01*
X0110665Y0023156D01*
X0110820Y0023187D01*
X0110976Y0023215D01*
X0111132Y0023239D01*
X0111289Y0023259D01*
X0111447Y0023275D01*
X0111604Y0023287D01*
X0111763Y0023295D01*
X0111921Y0023299D01*
X0112079Y0023299D01*
X0112237Y0023295D01*
X0112396Y0023287D01*
X0112553Y0023275D01*
X0112711Y0023259D01*
X0112868Y0023239D01*
X0113024Y0023215D01*
X0113180Y0023187D01*
X0113335Y0023156D01*
X0113490Y0023120D01*
X0113643Y0023081D01*
X0113795Y0023038D01*
X0113946Y0022991D01*
X0114096Y0022940D01*
X0114245Y0022885D01*
X0114392Y0022827D01*
X0114538Y0022765D01*
X0114682Y0022700D01*
X0114824Y0022630D01*
X0114965Y0022558D01*
X0115104Y0022481D01*
X0115240Y0022402D01*
X0115375Y0022318D01*
X0115508Y0022232D01*
X0115638Y0022142D01*
X0115766Y0022049D01*
X0115892Y0021953D01*
X0116015Y0021853D01*
X0116136Y0021751D01*
X0116254Y0021646D01*
X0116369Y0021537D01*
X0116482Y0021426D01*
X0116592Y0021312D01*
X0116699Y0021195D01*
X0116803Y0021076D01*
X0116904Y0020954D01*
X0117001Y0020829D01*
X0117096Y0020702D01*
X0117187Y0020573D01*
X0117276Y0020442D01*
X0117360Y0020308D01*
X0117442Y0020172D01*
X0117520Y0020035D01*
X0117594Y0019895D01*
X0117665Y0019753D01*
X0117733Y0019610D01*
X0117797Y0019465D01*
X0117857Y0019319D01*
X0117913Y0019171D01*
X0117966Y0019022D01*
X0118015Y0018871D01*
X0118060Y0018719D01*
X0118101Y0018566D01*
X0118139Y0018413D01*
X0118172Y0018258D01*
X0118202Y0018102D01*
X0118228Y0017946D01*
X0118249Y0017789D01*
X0118267Y0017632D01*
X0118281Y0017474D01*
X0118291Y0017316D01*
X0118297Y0017158D01*
X0118299Y0017000D01*
X0118297Y0016842D01*
X0118291Y0016684D01*
X0118281Y0016526D01*
X0118267Y0016368D01*
X0118249Y0016211D01*
X0118228Y0016054D01*
X0118202Y0015898D01*
X0118172Y0015742D01*
X0118139Y0015587D01*
X0118101Y0015434D01*
X0118060Y0015281D01*
X0118015Y0015129D01*
X0117966Y0014978D01*
X0117913Y0014829D01*
X0117857Y0014681D01*
X0117797Y0014535D01*
X0117733Y0014390D01*
X0117665Y0014247D01*
X0117594Y0014105D01*
X0117520Y0013965D01*
X0117442Y0013828D01*
X0117360Y0013692D01*
X0117276Y0013558D01*
X0117187Y0013427D01*
X0117096Y0013298D01*
X0117001Y0013171D01*
X0116904Y0013046D01*
X0116803Y0012924D01*
X0116699Y0012805D01*
X0116592Y0012688D01*
X0116482Y0012574D01*
X0116369Y0012463D01*
X0116254Y0012354D01*
X0116136Y0012249D01*
X0116015Y0012147D01*
X0115892Y0012047D01*
X0115766Y0011951D01*
X0115638Y0011858D01*
X0115508Y0011768D01*
X0115375Y0011682D01*
X0115240Y0011598D01*
X0115104Y0011519D01*
X0114965Y0011442D01*
X0114824Y0011370D01*
X0114682Y0011300D01*
X0114538Y0011235D01*
X0114392Y0011173D01*
X0114245Y0011115D01*
X0114096Y0011060D01*
X0113946Y0011009D01*
X0113795Y0010962D01*
X0113643Y0010919D01*
X0113490Y0010880D01*
X0113335Y0010844D01*
X0113180Y0010813D01*
X0113024Y0010785D01*
X0112868Y0010761D01*
X0112711Y0010741D01*
X0112553Y0010725D01*
X0112396Y0010713D01*
X0112237Y0010705D01*
X0112079Y0010701D01*
X0111921Y0010701D01*
X0111763Y0010705D01*
X0111604Y0010713D01*
X0111447Y0010725D01*
X0111289Y0010741D01*
X0111132Y0010761D01*
X0110976Y0010785D01*
X0110820Y0010813D01*
X0110665Y0010844D01*
X0110510Y0010880D01*
X0110357Y0010919D01*
X0110205Y0010962D01*
X0110054Y0011009D01*
X0109904Y0011060D01*
X0109755Y0011115D01*
X0109608Y0011173D01*
X0109462Y0011235D01*
X0109318Y0011300D01*
X0109176Y0011370D01*
X0109035Y0011442D01*
X0108896Y0011519D01*
X0108760Y0011598D01*
X0108625Y0011682D01*
X0108492Y0011768D01*
X0108362Y0011858D01*
X0108234Y0011951D01*
X0108108Y0012047D01*
X0107985Y0012147D01*
X0107864Y0012249D01*
X0107746Y0012354D01*
X0107631Y0012463D01*
X0107518Y0012574D01*
X0107408Y0012688D01*
X0107301Y0012805D01*
X0107197Y0012924D01*
X0107096Y0013046D01*
X0106999Y0013171D01*
X0106904Y0013298D01*
X0106813Y0013427D01*
X0106724Y0013558D01*
X0106640Y0013692D01*
X0106558Y0013828D01*
X0106480Y0013965D01*
X0106406Y0014105D01*
X0106335Y0014247D01*
X0106267Y0014390D01*
X0106203Y0014535D01*
X0106143Y0014681D01*
X0106087Y0014829D01*
X0106034Y0014978D01*
X0105985Y0015129D01*
X0105940Y0015281D01*
X0105899Y0015434D01*
X0105861Y0015587D01*
X0105828Y0015742D01*
X0105798Y0015898D01*
X0105772Y0016054D01*
X0105751Y0016211D01*
X0105733Y0016368D01*
X0105719Y0016526D01*
X0105709Y0016684D01*
X0105703Y0016842D01*
X0105701Y0017000D01*
X0105701Y0237000D02*
X0105703Y0237158D01*
X0105709Y0237316D01*
X0105719Y0237474D01*
X0105733Y0237632D01*
X0105751Y0237789D01*
X0105772Y0237946D01*
X0105798Y0238102D01*
X0105828Y0238258D01*
X0105861Y0238413D01*
X0105899Y0238566D01*
X0105940Y0238719D01*
X0105985Y0238871D01*
X0106034Y0239022D01*
X0106087Y0239171D01*
X0106143Y0239319D01*
X0106203Y0239465D01*
X0106267Y0239610D01*
X0106335Y0239753D01*
X0106406Y0239895D01*
X0106480Y0240035D01*
X0106558Y0240172D01*
X0106640Y0240308D01*
X0106724Y0240442D01*
X0106813Y0240573D01*
X0106904Y0240702D01*
X0106999Y0240829D01*
X0107096Y0240954D01*
X0107197Y0241076D01*
X0107301Y0241195D01*
X0107408Y0241312D01*
X0107518Y0241426D01*
X0107631Y0241537D01*
X0107746Y0241646D01*
X0107864Y0241751D01*
X0107985Y0241853D01*
X0108108Y0241953D01*
X0108234Y0242049D01*
X0108362Y0242142D01*
X0108492Y0242232D01*
X0108625Y0242318D01*
X0108760Y0242402D01*
X0108896Y0242481D01*
X0109035Y0242558D01*
X0109176Y0242630D01*
X0109318Y0242700D01*
X0109462Y0242765D01*
X0109608Y0242827D01*
X0109755Y0242885D01*
X0109904Y0242940D01*
X0110054Y0242991D01*
X0110205Y0243038D01*
X0110357Y0243081D01*
X0110510Y0243120D01*
X0110665Y0243156D01*
X0110820Y0243187D01*
X0110976Y0243215D01*
X0111132Y0243239D01*
X0111289Y0243259D01*
X0111447Y0243275D01*
X0111604Y0243287D01*
X0111763Y0243295D01*
X0111921Y0243299D01*
X0112079Y0243299D01*
X0112237Y0243295D01*
X0112396Y0243287D01*
X0112553Y0243275D01*
X0112711Y0243259D01*
X0112868Y0243239D01*
X0113024Y0243215D01*
X0113180Y0243187D01*
X0113335Y0243156D01*
X0113490Y0243120D01*
X0113643Y0243081D01*
X0113795Y0243038D01*
X0113946Y0242991D01*
X0114096Y0242940D01*
X0114245Y0242885D01*
X0114392Y0242827D01*
X0114538Y0242765D01*
X0114682Y0242700D01*
X0114824Y0242630D01*
X0114965Y0242558D01*
X0115104Y0242481D01*
X0115240Y0242402D01*
X0115375Y0242318D01*
X0115508Y0242232D01*
X0115638Y0242142D01*
X0115766Y0242049D01*
X0115892Y0241953D01*
X0116015Y0241853D01*
X0116136Y0241751D01*
X0116254Y0241646D01*
X0116369Y0241537D01*
X0116482Y0241426D01*
X0116592Y0241312D01*
X0116699Y0241195D01*
X0116803Y0241076D01*
X0116904Y0240954D01*
X0117001Y0240829D01*
X0117096Y0240702D01*
X0117187Y0240573D01*
X0117276Y0240442D01*
X0117360Y0240308D01*
X0117442Y0240172D01*
X0117520Y0240035D01*
X0117594Y0239895D01*
X0117665Y0239753D01*
X0117733Y0239610D01*
X0117797Y0239465D01*
X0117857Y0239319D01*
X0117913Y0239171D01*
X0117966Y0239022D01*
X0118015Y0238871D01*
X0118060Y0238719D01*
X0118101Y0238566D01*
X0118139Y0238413D01*
X0118172Y0238258D01*
X0118202Y0238102D01*
X0118228Y0237946D01*
X0118249Y0237789D01*
X0118267Y0237632D01*
X0118281Y0237474D01*
X0118291Y0237316D01*
X0118297Y0237158D01*
X0118299Y0237000D01*
X0118297Y0236842D01*
X0118291Y0236684D01*
X0118281Y0236526D01*
X0118267Y0236368D01*
X0118249Y0236211D01*
X0118228Y0236054D01*
X0118202Y0235898D01*
X0118172Y0235742D01*
X0118139Y0235587D01*
X0118101Y0235434D01*
X0118060Y0235281D01*
X0118015Y0235129D01*
X0117966Y0234978D01*
X0117913Y0234829D01*
X0117857Y0234681D01*
X0117797Y0234535D01*
X0117733Y0234390D01*
X0117665Y0234247D01*
X0117594Y0234105D01*
X0117520Y0233965D01*
X0117442Y0233828D01*
X0117360Y0233692D01*
X0117276Y0233558D01*
X0117187Y0233427D01*
X0117096Y0233298D01*
X0117001Y0233171D01*
X0116904Y0233046D01*
X0116803Y0232924D01*
X0116699Y0232805D01*
X0116592Y0232688D01*
X0116482Y0232574D01*
X0116369Y0232463D01*
X0116254Y0232354D01*
X0116136Y0232249D01*
X0116015Y0232147D01*
X0115892Y0232047D01*
X0115766Y0231951D01*
X0115638Y0231858D01*
X0115508Y0231768D01*
X0115375Y0231682D01*
X0115240Y0231598D01*
X0115104Y0231519D01*
X0114965Y0231442D01*
X0114824Y0231370D01*
X0114682Y0231300D01*
X0114538Y0231235D01*
X0114392Y0231173D01*
X0114245Y0231115D01*
X0114096Y0231060D01*
X0113946Y0231009D01*
X0113795Y0230962D01*
X0113643Y0230919D01*
X0113490Y0230880D01*
X0113335Y0230844D01*
X0113180Y0230813D01*
X0113024Y0230785D01*
X0112868Y0230761D01*
X0112711Y0230741D01*
X0112553Y0230725D01*
X0112396Y0230713D01*
X0112237Y0230705D01*
X0112079Y0230701D01*
X0111921Y0230701D01*
X0111763Y0230705D01*
X0111604Y0230713D01*
X0111447Y0230725D01*
X0111289Y0230741D01*
X0111132Y0230761D01*
X0110976Y0230785D01*
X0110820Y0230813D01*
X0110665Y0230844D01*
X0110510Y0230880D01*
X0110357Y0230919D01*
X0110205Y0230962D01*
X0110054Y0231009D01*
X0109904Y0231060D01*
X0109755Y0231115D01*
X0109608Y0231173D01*
X0109462Y0231235D01*
X0109318Y0231300D01*
X0109176Y0231370D01*
X0109035Y0231442D01*
X0108896Y0231519D01*
X0108760Y0231598D01*
X0108625Y0231682D01*
X0108492Y0231768D01*
X0108362Y0231858D01*
X0108234Y0231951D01*
X0108108Y0232047D01*
X0107985Y0232147D01*
X0107864Y0232249D01*
X0107746Y0232354D01*
X0107631Y0232463D01*
X0107518Y0232574D01*
X0107408Y0232688D01*
X0107301Y0232805D01*
X0107197Y0232924D01*
X0107096Y0233046D01*
X0106999Y0233171D01*
X0106904Y0233298D01*
X0106813Y0233427D01*
X0106724Y0233558D01*
X0106640Y0233692D01*
X0106558Y0233828D01*
X0106480Y0233965D01*
X0106406Y0234105D01*
X0106335Y0234247D01*
X0106267Y0234390D01*
X0106203Y0234535D01*
X0106143Y0234681D01*
X0106087Y0234829D01*
X0106034Y0234978D01*
X0105985Y0235129D01*
X0105940Y0235281D01*
X0105899Y0235434D01*
X0105861Y0235587D01*
X0105828Y0235742D01*
X0105798Y0235898D01*
X0105772Y0236054D01*
X0105751Y0236211D01*
X0105733Y0236368D01*
X0105719Y0236526D01*
X0105709Y0236684D01*
X0105703Y0236842D01*
X0105701Y0237000D01*
X0010701Y0237000D02*
X0010703Y0237158D01*
X0010709Y0237316D01*
X0010719Y0237474D01*
X0010733Y0237632D01*
X0010751Y0237789D01*
X0010772Y0237946D01*
X0010798Y0238102D01*
X0010828Y0238258D01*
X0010861Y0238413D01*
X0010899Y0238566D01*
X0010940Y0238719D01*
X0010985Y0238871D01*
X0011034Y0239022D01*
X0011087Y0239171D01*
X0011143Y0239319D01*
X0011203Y0239465D01*
X0011267Y0239610D01*
X0011335Y0239753D01*
X0011406Y0239895D01*
X0011480Y0240035D01*
X0011558Y0240172D01*
X0011640Y0240308D01*
X0011724Y0240442D01*
X0011813Y0240573D01*
X0011904Y0240702D01*
X0011999Y0240829D01*
X0012096Y0240954D01*
X0012197Y0241076D01*
X0012301Y0241195D01*
X0012408Y0241312D01*
X0012518Y0241426D01*
X0012631Y0241537D01*
X0012746Y0241646D01*
X0012864Y0241751D01*
X0012985Y0241853D01*
X0013108Y0241953D01*
X0013234Y0242049D01*
X0013362Y0242142D01*
X0013492Y0242232D01*
X0013625Y0242318D01*
X0013760Y0242402D01*
X0013896Y0242481D01*
X0014035Y0242558D01*
X0014176Y0242630D01*
X0014318Y0242700D01*
X0014462Y0242765D01*
X0014608Y0242827D01*
X0014755Y0242885D01*
X0014904Y0242940D01*
X0015054Y0242991D01*
X0015205Y0243038D01*
X0015357Y0243081D01*
X0015510Y0243120D01*
X0015665Y0243156D01*
X0015820Y0243187D01*
X0015976Y0243215D01*
X0016132Y0243239D01*
X0016289Y0243259D01*
X0016447Y0243275D01*
X0016604Y0243287D01*
X0016763Y0243295D01*
X0016921Y0243299D01*
X0017079Y0243299D01*
X0017237Y0243295D01*
X0017396Y0243287D01*
X0017553Y0243275D01*
X0017711Y0243259D01*
X0017868Y0243239D01*
X0018024Y0243215D01*
X0018180Y0243187D01*
X0018335Y0243156D01*
X0018490Y0243120D01*
X0018643Y0243081D01*
X0018795Y0243038D01*
X0018946Y0242991D01*
X0019096Y0242940D01*
X0019245Y0242885D01*
X0019392Y0242827D01*
X0019538Y0242765D01*
X0019682Y0242700D01*
X0019824Y0242630D01*
X0019965Y0242558D01*
X0020104Y0242481D01*
X0020240Y0242402D01*
X0020375Y0242318D01*
X0020508Y0242232D01*
X0020638Y0242142D01*
X0020766Y0242049D01*
X0020892Y0241953D01*
X0021015Y0241853D01*
X0021136Y0241751D01*
X0021254Y0241646D01*
X0021369Y0241537D01*
X0021482Y0241426D01*
X0021592Y0241312D01*
X0021699Y0241195D01*
X0021803Y0241076D01*
X0021904Y0240954D01*
X0022001Y0240829D01*
X0022096Y0240702D01*
X0022187Y0240573D01*
X0022276Y0240442D01*
X0022360Y0240308D01*
X0022442Y0240172D01*
X0022520Y0240035D01*
X0022594Y0239895D01*
X0022665Y0239753D01*
X0022733Y0239610D01*
X0022797Y0239465D01*
X0022857Y0239319D01*
X0022913Y0239171D01*
X0022966Y0239022D01*
X0023015Y0238871D01*
X0023060Y0238719D01*
X0023101Y0238566D01*
X0023139Y0238413D01*
X0023172Y0238258D01*
X0023202Y0238102D01*
X0023228Y0237946D01*
X0023249Y0237789D01*
X0023267Y0237632D01*
X0023281Y0237474D01*
X0023291Y0237316D01*
X0023297Y0237158D01*
X0023299Y0237000D01*
X0023297Y0236842D01*
X0023291Y0236684D01*
X0023281Y0236526D01*
X0023267Y0236368D01*
X0023249Y0236211D01*
X0023228Y0236054D01*
X0023202Y0235898D01*
X0023172Y0235742D01*
X0023139Y0235587D01*
X0023101Y0235434D01*
X0023060Y0235281D01*
X0023015Y0235129D01*
X0022966Y0234978D01*
X0022913Y0234829D01*
X0022857Y0234681D01*
X0022797Y0234535D01*
X0022733Y0234390D01*
X0022665Y0234247D01*
X0022594Y0234105D01*
X0022520Y0233965D01*
X0022442Y0233828D01*
X0022360Y0233692D01*
X0022276Y0233558D01*
X0022187Y0233427D01*
X0022096Y0233298D01*
X0022001Y0233171D01*
X0021904Y0233046D01*
X0021803Y0232924D01*
X0021699Y0232805D01*
X0021592Y0232688D01*
X0021482Y0232574D01*
X0021369Y0232463D01*
X0021254Y0232354D01*
X0021136Y0232249D01*
X0021015Y0232147D01*
X0020892Y0232047D01*
X0020766Y0231951D01*
X0020638Y0231858D01*
X0020508Y0231768D01*
X0020375Y0231682D01*
X0020240Y0231598D01*
X0020104Y0231519D01*
X0019965Y0231442D01*
X0019824Y0231370D01*
X0019682Y0231300D01*
X0019538Y0231235D01*
X0019392Y0231173D01*
X0019245Y0231115D01*
X0019096Y0231060D01*
X0018946Y0231009D01*
X0018795Y0230962D01*
X0018643Y0230919D01*
X0018490Y0230880D01*
X0018335Y0230844D01*
X0018180Y0230813D01*
X0018024Y0230785D01*
X0017868Y0230761D01*
X0017711Y0230741D01*
X0017553Y0230725D01*
X0017396Y0230713D01*
X0017237Y0230705D01*
X0017079Y0230701D01*
X0016921Y0230701D01*
X0016763Y0230705D01*
X0016604Y0230713D01*
X0016447Y0230725D01*
X0016289Y0230741D01*
X0016132Y0230761D01*
X0015976Y0230785D01*
X0015820Y0230813D01*
X0015665Y0230844D01*
X0015510Y0230880D01*
X0015357Y0230919D01*
X0015205Y0230962D01*
X0015054Y0231009D01*
X0014904Y0231060D01*
X0014755Y0231115D01*
X0014608Y0231173D01*
X0014462Y0231235D01*
X0014318Y0231300D01*
X0014176Y0231370D01*
X0014035Y0231442D01*
X0013896Y0231519D01*
X0013760Y0231598D01*
X0013625Y0231682D01*
X0013492Y0231768D01*
X0013362Y0231858D01*
X0013234Y0231951D01*
X0013108Y0232047D01*
X0012985Y0232147D01*
X0012864Y0232249D01*
X0012746Y0232354D01*
X0012631Y0232463D01*
X0012518Y0232574D01*
X0012408Y0232688D01*
X0012301Y0232805D01*
X0012197Y0232924D01*
X0012096Y0233046D01*
X0011999Y0233171D01*
X0011904Y0233298D01*
X0011813Y0233427D01*
X0011724Y0233558D01*
X0011640Y0233692D01*
X0011558Y0233828D01*
X0011480Y0233965D01*
X0011406Y0234105D01*
X0011335Y0234247D01*
X0011267Y0234390D01*
X0011203Y0234535D01*
X0011143Y0234681D01*
X0011087Y0234829D01*
X0011034Y0234978D01*
X0010985Y0235129D01*
X0010940Y0235281D01*
X0010899Y0235434D01*
X0010861Y0235587D01*
X0010828Y0235742D01*
X0010798Y0235898D01*
X0010772Y0236054D01*
X0010751Y0236211D01*
X0010733Y0236368D01*
X0010719Y0236526D01*
X0010709Y0236684D01*
X0010703Y0236842D01*
X0010701Y0237000D01*
M02*
