G75*
%MOIN*%
%OFA0B0*%
%FSLAX25Y25*%
%IPPOS*%
%LPD*%
%AMOC8*
5,1,8,0,0,1.08239X$1,22.5*
%
%ADD10C,0.00400*%
%ADD11C,0.00500*%
%ADD12C,0.00800*%
%ADD13C,0.01000*%
%ADD14C,0.00600*%
D10*
X0011867Y0036534D02*
X0011867Y0037868D01*
X0011200Y0037201D02*
X0012534Y0037201D01*
X0013410Y0037201D02*
X0013410Y0038202D01*
X0014744Y0038202D01*
X0014411Y0037534D02*
X0014077Y0037534D01*
X0013410Y0037201D01*
X0013410Y0036534D02*
X0013743Y0036200D01*
X0014411Y0036200D01*
X0014744Y0036534D01*
X0014744Y0037201D01*
X0014411Y0037534D01*
X0015620Y0036867D02*
X0015620Y0038202D01*
X0016954Y0038202D02*
X0016954Y0036867D01*
X0016287Y0036200D01*
X0015620Y0036867D01*
X0015244Y0060950D02*
X0015244Y0062952D01*
X0016120Y0062952D02*
X0016120Y0060950D01*
X0017121Y0060950D01*
X0017454Y0061284D01*
X0017454Y0062618D01*
X0017121Y0062952D01*
X0016120Y0062952D01*
X0015244Y0060950D02*
X0013910Y0062952D01*
X0013910Y0060950D01*
X0013034Y0061284D02*
X0013034Y0061951D01*
X0012367Y0061951D01*
X0011700Y0062618D02*
X0011700Y0061284D01*
X0012034Y0060950D01*
X0012701Y0060950D01*
X0013034Y0061284D01*
X0013034Y0062618D02*
X0012701Y0062952D01*
X0012034Y0062952D01*
X0011700Y0062618D01*
X0008244Y0062200D02*
X0006910Y0062200D01*
X0008244Y0063534D01*
X0008244Y0063868D01*
X0007911Y0064202D01*
X0007243Y0064202D01*
X0006910Y0063868D01*
X0006034Y0064202D02*
X0004700Y0062200D01*
X0006034Y0062200D02*
X0004700Y0064202D01*
X0024534Y0088450D02*
X0024200Y0088784D01*
X0024200Y0090118D01*
X0024534Y0090452D01*
X0025201Y0090452D01*
X0025534Y0090118D01*
X0026410Y0090118D02*
X0026410Y0089784D01*
X0026743Y0089451D01*
X0027744Y0089451D01*
X0027744Y0090118D02*
X0027411Y0090452D01*
X0026743Y0090452D01*
X0026410Y0090118D01*
X0027744Y0090118D02*
X0027744Y0088784D01*
X0027411Y0088450D01*
X0026743Y0088450D01*
X0026410Y0088784D01*
X0025534Y0088784D02*
X0025201Y0088450D01*
X0024534Y0088450D01*
X0024534Y0095950D02*
X0024200Y0096284D01*
X0024200Y0097618D01*
X0024534Y0097952D01*
X0025201Y0097952D01*
X0025534Y0097618D01*
X0026410Y0097284D02*
X0027077Y0097952D01*
X0027077Y0095950D01*
X0026410Y0095950D02*
X0027744Y0095950D01*
X0028620Y0096284D02*
X0028620Y0097618D01*
X0028953Y0097952D01*
X0029621Y0097952D01*
X0029954Y0097618D01*
X0028620Y0096284D01*
X0028953Y0095950D01*
X0029621Y0095950D01*
X0029954Y0096284D01*
X0029954Y0097618D01*
X0025534Y0096284D02*
X0025201Y0095950D01*
X0024534Y0095950D01*
X0014718Y0120450D02*
X0013383Y0120450D01*
X0014718Y0121784D01*
X0014718Y0122118D01*
X0014384Y0122452D01*
X0013717Y0122452D01*
X0013383Y0122118D01*
X0012508Y0122118D02*
X0012174Y0122452D01*
X0011507Y0122452D01*
X0011173Y0122118D01*
X0011173Y0120784D01*
X0011507Y0120450D01*
X0012174Y0120450D01*
X0012508Y0120784D01*
X0010367Y0120450D02*
X0009700Y0120450D01*
X0010034Y0120450D02*
X0010034Y0122452D01*
X0010367Y0122452D02*
X0009700Y0122452D01*
X0026784Y0155450D02*
X0027451Y0155450D01*
X0027784Y0155784D01*
X0028660Y0155450D02*
X0029994Y0155450D01*
X0029327Y0155450D02*
X0029327Y0157452D01*
X0028660Y0156784D01*
X0027784Y0157118D02*
X0027451Y0157452D01*
X0026784Y0157452D01*
X0026450Y0157118D01*
X0026450Y0155784D01*
X0026784Y0155450D01*
X0030870Y0155784D02*
X0031203Y0155450D01*
X0031871Y0155450D01*
X0032204Y0155784D01*
X0032204Y0156451D01*
X0031871Y0156784D01*
X0031537Y0156784D01*
X0030870Y0156451D01*
X0030870Y0157452D01*
X0032204Y0157452D01*
X0032117Y0160950D02*
X0031450Y0160950D01*
X0031784Y0160950D02*
X0031784Y0162952D01*
X0032117Y0162952D02*
X0031450Y0162952D01*
X0032923Y0162618D02*
X0032923Y0161284D01*
X0033257Y0160950D01*
X0033924Y0160950D01*
X0034258Y0161284D01*
X0035133Y0161284D02*
X0035467Y0160950D01*
X0036134Y0160950D01*
X0036468Y0161284D01*
X0036468Y0161617D01*
X0036134Y0161951D01*
X0035800Y0161951D01*
X0036134Y0161951D02*
X0036468Y0162284D01*
X0036468Y0162618D01*
X0036134Y0162952D01*
X0035467Y0162952D01*
X0035133Y0162618D01*
X0034258Y0162618D02*
X0033924Y0162952D01*
X0033257Y0162952D01*
X0032923Y0162618D01*
X0030911Y0126952D02*
X0030243Y0126952D01*
X0029910Y0126618D01*
X0029034Y0126618D02*
X0028701Y0126952D01*
X0027700Y0126952D01*
X0027700Y0124950D01*
X0028701Y0124950D01*
X0029034Y0125284D01*
X0029034Y0126618D01*
X0029910Y0124950D02*
X0031244Y0126284D01*
X0031244Y0126618D01*
X0030911Y0126952D01*
X0031244Y0124950D02*
X0029910Y0124950D01*
X0041950Y0120952D02*
X0041950Y0118950D01*
X0041950Y0119617D02*
X0042951Y0119617D01*
X0043284Y0119951D01*
X0043284Y0120618D01*
X0042951Y0120952D01*
X0041950Y0120952D01*
X0042617Y0119617D02*
X0043284Y0118950D01*
X0044160Y0119284D02*
X0044493Y0118950D01*
X0045161Y0118950D01*
X0045494Y0119284D01*
X0045494Y0119951D01*
X0045161Y0120284D01*
X0044827Y0120284D01*
X0044160Y0119951D01*
X0044160Y0120952D01*
X0045494Y0120952D01*
X0047450Y0120618D02*
X0047450Y0119284D01*
X0047784Y0118950D01*
X0048451Y0118950D01*
X0048784Y0119284D01*
X0049660Y0118950D02*
X0050994Y0118950D01*
X0050327Y0118950D02*
X0050327Y0120952D01*
X0049660Y0120284D01*
X0048784Y0120618D02*
X0048451Y0120952D01*
X0047784Y0120952D01*
X0047450Y0120618D01*
X0051870Y0120284D02*
X0052537Y0120952D01*
X0052537Y0118950D01*
X0051870Y0118950D02*
X0053204Y0118950D01*
X0054450Y0118950D02*
X0054450Y0120952D01*
X0055451Y0120952D01*
X0055784Y0120618D01*
X0055784Y0119951D01*
X0055451Y0119617D01*
X0054450Y0119617D01*
X0055117Y0119617D02*
X0055784Y0118950D01*
X0056660Y0119951D02*
X0057994Y0119951D01*
X0057661Y0120952D02*
X0056660Y0119951D01*
X0057661Y0118950D02*
X0057661Y0120952D01*
X0060700Y0120952D02*
X0060700Y0118950D01*
X0060700Y0119617D02*
X0061701Y0119617D01*
X0062034Y0119951D01*
X0062034Y0120618D01*
X0061701Y0120952D01*
X0060700Y0120952D01*
X0061367Y0119617D02*
X0062034Y0118950D01*
X0062910Y0119284D02*
X0062910Y0119617D01*
X0063243Y0119951D01*
X0063911Y0119951D01*
X0064244Y0119617D01*
X0064244Y0119284D01*
X0063911Y0118950D01*
X0063243Y0118950D01*
X0062910Y0119284D01*
X0063243Y0119951D02*
X0062910Y0120284D01*
X0062910Y0120618D01*
X0063243Y0120952D01*
X0063911Y0120952D01*
X0064244Y0120618D01*
X0064244Y0120284D01*
X0063911Y0119951D01*
X0063993Y0114202D02*
X0064661Y0114202D01*
X0064994Y0113868D01*
X0064994Y0113534D01*
X0064661Y0113201D01*
X0063993Y0113201D01*
X0063660Y0113534D01*
X0063660Y0113868D01*
X0063993Y0114202D01*
X0063993Y0113201D02*
X0063660Y0112867D01*
X0063660Y0112534D01*
X0063993Y0112200D01*
X0064661Y0112200D01*
X0064994Y0112534D01*
X0064994Y0112867D01*
X0064661Y0113201D01*
X0062784Y0113868D02*
X0062451Y0114202D01*
X0061784Y0114202D01*
X0061450Y0113868D01*
X0061450Y0112534D01*
X0061784Y0112200D01*
X0062451Y0112200D01*
X0062784Y0112534D01*
X0062451Y0107952D02*
X0061784Y0107952D01*
X0061450Y0107618D01*
X0061450Y0106284D01*
X0061784Y0105950D01*
X0062451Y0105950D01*
X0062784Y0106284D01*
X0063660Y0106284D02*
X0063660Y0105950D01*
X0063660Y0106284D02*
X0064994Y0107618D01*
X0064994Y0107952D01*
X0063660Y0107952D01*
X0062784Y0107618D02*
X0062451Y0107952D01*
X0068950Y0119200D02*
X0068950Y0121202D01*
X0069951Y0121202D01*
X0070284Y0120868D01*
X0070284Y0120201D01*
X0069951Y0119867D01*
X0068950Y0119867D01*
X0069617Y0119867D02*
X0070284Y0119200D01*
X0071160Y0119534D02*
X0071493Y0119200D01*
X0072161Y0119200D01*
X0072494Y0119534D01*
X0072494Y0119867D01*
X0072161Y0120201D01*
X0071827Y0120201D01*
X0072161Y0120201D02*
X0072494Y0120534D01*
X0072494Y0120868D01*
X0072161Y0121202D01*
X0071493Y0121202D01*
X0071160Y0120868D01*
X0075450Y0120952D02*
X0075450Y0118950D01*
X0075450Y0119617D02*
X0076451Y0119617D01*
X0076784Y0119951D01*
X0076784Y0120618D01*
X0076451Y0120952D01*
X0075450Y0120952D01*
X0076117Y0119617D02*
X0076784Y0118950D01*
X0077660Y0119284D02*
X0077660Y0119951D01*
X0078661Y0119951D01*
X0078994Y0119617D01*
X0078994Y0119284D01*
X0078661Y0118950D01*
X0077993Y0118950D01*
X0077660Y0119284D01*
X0077660Y0119951D02*
X0078327Y0120618D01*
X0078994Y0120952D01*
X0081450Y0120952D02*
X0081450Y0118950D01*
X0081450Y0119617D02*
X0082451Y0119617D01*
X0082784Y0119951D01*
X0082784Y0120618D01*
X0082451Y0120952D01*
X0081450Y0120952D01*
X0082117Y0119617D02*
X0082784Y0118950D01*
X0083660Y0118950D02*
X0083660Y0119284D01*
X0084994Y0120618D01*
X0084994Y0120952D01*
X0083660Y0120952D01*
X0097450Y0124700D02*
X0098451Y0124700D01*
X0098784Y0125034D01*
X0098784Y0126368D01*
X0098451Y0126702D01*
X0097450Y0126702D01*
X0097450Y0124700D01*
X0099660Y0124700D02*
X0100994Y0124700D01*
X0100327Y0124700D02*
X0100327Y0126702D01*
X0099660Y0126034D01*
X0099827Y0155450D02*
X0099827Y0157452D01*
X0099160Y0156784D01*
X0098284Y0157118D02*
X0097951Y0157452D01*
X0097284Y0157452D01*
X0096950Y0157118D01*
X0096950Y0155784D01*
X0097284Y0155450D01*
X0097951Y0155450D01*
X0098284Y0155784D01*
X0099160Y0155450D02*
X0100494Y0155450D01*
X0101370Y0156451D02*
X0102704Y0156451D01*
X0102371Y0157452D02*
X0101370Y0156451D01*
X0102371Y0155450D02*
X0102371Y0157452D01*
X0072494Y0206951D02*
X0071160Y0206951D01*
X0072161Y0207952D01*
X0072161Y0205950D01*
X0070284Y0205950D02*
X0068950Y0207952D01*
X0070284Y0207952D02*
X0068950Y0205950D01*
X0068827Y0201202D02*
X0068827Y0199200D01*
X0068160Y0199200D02*
X0069494Y0199200D01*
X0070370Y0199200D02*
X0071704Y0200534D01*
X0071704Y0200868D01*
X0071371Y0201202D01*
X0070703Y0201202D01*
X0070370Y0200868D01*
X0068827Y0201202D02*
X0068160Y0200534D01*
X0067284Y0200868D02*
X0066951Y0201202D01*
X0066284Y0201202D01*
X0065950Y0200868D01*
X0065950Y0199534D01*
X0066284Y0199200D01*
X0066951Y0199200D01*
X0067284Y0199534D01*
X0070370Y0199200D02*
X0071704Y0199200D01*
X0062954Y0199534D02*
X0062621Y0199200D01*
X0061953Y0199200D01*
X0061620Y0199534D01*
X0060744Y0199200D02*
X0059410Y0199200D01*
X0060077Y0199200D02*
X0060077Y0201202D01*
X0059410Y0200534D01*
X0058534Y0200868D02*
X0058201Y0201202D01*
X0057534Y0201202D01*
X0057200Y0200868D01*
X0057200Y0199534D01*
X0057534Y0199200D01*
X0058201Y0199200D01*
X0058534Y0199534D01*
X0061620Y0200868D02*
X0061953Y0201202D01*
X0062621Y0201202D01*
X0062954Y0200868D01*
X0062954Y0200534D01*
X0062621Y0200201D01*
X0062954Y0199867D01*
X0062954Y0199534D01*
X0062621Y0200201D02*
X0062287Y0200201D01*
X0052621Y0215950D02*
X0052954Y0216284D01*
X0052954Y0216617D01*
X0052621Y0216951D01*
X0051953Y0216951D01*
X0051620Y0217284D01*
X0051620Y0217618D01*
X0051953Y0217952D01*
X0052621Y0217952D01*
X0052954Y0217618D01*
X0052621Y0215950D02*
X0051953Y0215950D01*
X0051620Y0216284D01*
X0050744Y0215950D02*
X0049410Y0215950D01*
X0049410Y0217952D01*
X0048534Y0217618D02*
X0048534Y0217284D01*
X0048201Y0216951D01*
X0047200Y0216951D01*
X0047200Y0217952D02*
X0048201Y0217952D01*
X0048534Y0217618D01*
X0048201Y0216951D02*
X0048534Y0216617D01*
X0048534Y0216284D01*
X0048201Y0215950D01*
X0047200Y0215950D01*
X0047200Y0217952D01*
X0042954Y0217618D02*
X0042621Y0217952D01*
X0041953Y0217952D01*
X0041620Y0217618D01*
X0041620Y0216284D01*
X0041953Y0215950D01*
X0042621Y0215950D01*
X0042954Y0216284D01*
X0042954Y0216951D01*
X0042287Y0216951D01*
X0040744Y0215950D02*
X0039410Y0215950D01*
X0039410Y0217952D01*
X0038534Y0217618D02*
X0038534Y0217284D01*
X0038201Y0216951D01*
X0037200Y0216951D01*
X0037200Y0217952D02*
X0038201Y0217952D01*
X0038534Y0217618D01*
X0038201Y0216951D02*
X0038534Y0216617D01*
X0038534Y0216284D01*
X0038201Y0215950D01*
X0037200Y0215950D01*
X0037200Y0217952D01*
X0032954Y0217618D02*
X0032621Y0217952D01*
X0031953Y0217952D01*
X0031620Y0217618D01*
X0031620Y0217284D01*
X0031953Y0216951D01*
X0032621Y0216951D01*
X0032954Y0216617D01*
X0032954Y0216284D01*
X0032621Y0215950D01*
X0031953Y0215950D01*
X0031620Y0216284D01*
X0030744Y0215950D02*
X0030744Y0217952D01*
X0030744Y0216951D02*
X0029410Y0216951D01*
X0028534Y0217284D02*
X0028201Y0216951D01*
X0027200Y0216951D01*
X0027200Y0217952D02*
X0028201Y0217952D01*
X0028534Y0217618D01*
X0028534Y0217284D01*
X0028201Y0216951D02*
X0028534Y0216617D01*
X0028534Y0216284D01*
X0028201Y0215950D01*
X0027200Y0215950D01*
X0027200Y0217952D01*
X0029410Y0217952D02*
X0029410Y0215950D01*
X0022954Y0216284D02*
X0022954Y0216951D01*
X0022287Y0216951D01*
X0021620Y0217618D02*
X0021953Y0217952D01*
X0022621Y0217952D01*
X0022954Y0217618D01*
X0021620Y0217618D02*
X0021620Y0216284D01*
X0021953Y0215950D01*
X0022621Y0215950D01*
X0022954Y0216284D01*
X0020744Y0215950D02*
X0020744Y0217952D01*
X0020744Y0216951D02*
X0019410Y0216951D01*
X0018534Y0217284D02*
X0018201Y0216951D01*
X0017200Y0216951D01*
X0017200Y0217952D02*
X0018201Y0217952D01*
X0018534Y0217618D01*
X0018534Y0217284D01*
X0018201Y0216951D02*
X0018534Y0216617D01*
X0018534Y0216284D01*
X0018201Y0215950D01*
X0017200Y0215950D01*
X0017200Y0217952D01*
X0019410Y0217952D02*
X0019410Y0215950D01*
X0012161Y0207952D02*
X0012494Y0207618D01*
X0012494Y0207284D01*
X0012161Y0206951D01*
X0012494Y0206617D01*
X0012494Y0206284D01*
X0012161Y0205950D01*
X0011493Y0205950D01*
X0011160Y0206284D01*
X0010284Y0205950D02*
X0008950Y0207952D01*
X0010284Y0207952D02*
X0008950Y0205950D01*
X0011160Y0207618D02*
X0011493Y0207952D01*
X0012161Y0207952D01*
X0012161Y0206951D02*
X0011827Y0206951D01*
X0076700Y0215950D02*
X0076700Y0217284D01*
X0077367Y0217952D01*
X0078034Y0217284D01*
X0078034Y0215950D01*
X0078910Y0215950D02*
X0080244Y0215950D01*
X0081120Y0216284D02*
X0081453Y0215950D01*
X0082121Y0215950D01*
X0082454Y0216284D01*
X0082454Y0216617D01*
X0082121Y0216951D01*
X0081453Y0216951D01*
X0081120Y0217284D01*
X0081120Y0217618D01*
X0081453Y0217952D01*
X0082121Y0217952D01*
X0082454Y0217618D01*
X0078910Y0217952D02*
X0078910Y0215950D01*
X0078034Y0216951D02*
X0076700Y0216951D01*
X0087200Y0216951D02*
X0088534Y0216951D01*
X0088534Y0217284D02*
X0088534Y0215950D01*
X0089410Y0215950D02*
X0090744Y0215950D01*
X0091620Y0216284D02*
X0091953Y0215950D01*
X0092621Y0215950D01*
X0092954Y0216284D01*
X0092954Y0216951D01*
X0092287Y0216951D01*
X0091620Y0217618D02*
X0091620Y0216284D01*
X0091620Y0217618D02*
X0091953Y0217952D01*
X0092621Y0217952D01*
X0092954Y0217618D01*
X0089410Y0217952D02*
X0089410Y0215950D01*
X0088534Y0217284D02*
X0087867Y0217952D01*
X0087200Y0217284D01*
X0087200Y0215950D01*
X0096950Y0215950D02*
X0096950Y0217284D01*
X0097617Y0217952D01*
X0098284Y0217284D01*
X0098284Y0215950D01*
X0099160Y0215950D02*
X0099160Y0217952D01*
X0099160Y0216951D02*
X0100494Y0216951D01*
X0101370Y0217284D02*
X0101703Y0216951D01*
X0102371Y0216951D01*
X0102704Y0216617D01*
X0102704Y0216284D01*
X0102371Y0215950D01*
X0101703Y0215950D01*
X0101370Y0216284D01*
X0100494Y0215950D02*
X0100494Y0217952D01*
X0101370Y0217618D02*
X0101370Y0217284D01*
X0101370Y0217618D02*
X0101703Y0217952D01*
X0102371Y0217952D01*
X0102704Y0217618D01*
X0106950Y0217284D02*
X0107617Y0217952D01*
X0108284Y0217284D01*
X0108284Y0215950D01*
X0109160Y0215950D02*
X0109160Y0217952D01*
X0109160Y0216951D02*
X0110494Y0216951D01*
X0110494Y0217952D02*
X0110494Y0215950D01*
X0111370Y0216284D02*
X0111703Y0215950D01*
X0112371Y0215950D01*
X0112704Y0216284D01*
X0112704Y0216951D01*
X0112037Y0216951D01*
X0111370Y0217618D02*
X0111370Y0216284D01*
X0111370Y0217618D02*
X0111703Y0217952D01*
X0112371Y0217952D01*
X0112704Y0217618D01*
X0108284Y0216951D02*
X0106950Y0216951D01*
X0106950Y0217284D02*
X0106950Y0215950D01*
X0098284Y0216951D02*
X0096950Y0216951D01*
X0095454Y0072502D02*
X0095454Y0070500D01*
X0096330Y0070166D02*
X0097664Y0070166D01*
X0098540Y0070834D02*
X0098540Y0072168D01*
X0098873Y0072502D01*
X0099540Y0072502D01*
X0099874Y0072168D01*
X0098540Y0070834D01*
X0098873Y0070500D01*
X0099540Y0070500D01*
X0099874Y0070834D01*
X0099874Y0072168D01*
X0100749Y0072168D02*
X0100749Y0070834D01*
X0102084Y0072168D01*
X0102084Y0070834D01*
X0101750Y0070500D01*
X0101083Y0070500D01*
X0100749Y0070834D01*
X0100749Y0072168D02*
X0101083Y0072502D01*
X0101750Y0072502D01*
X0102084Y0072168D01*
X0102959Y0071834D02*
X0103627Y0072502D01*
X0103627Y0070500D01*
X0104294Y0070500D02*
X0102959Y0070500D01*
X0103189Y0068234D02*
X0102188Y0068234D01*
X0101854Y0067901D01*
X0101854Y0067234D01*
X0102188Y0066900D01*
X0103189Y0066900D01*
X0103189Y0066566D02*
X0103189Y0068234D01*
X0104064Y0067901D02*
X0104398Y0068234D01*
X0105065Y0068234D01*
X0105399Y0067901D01*
X0105399Y0067567D01*
X0104064Y0067567D01*
X0104064Y0067234D02*
X0104064Y0067901D01*
X0104064Y0067234D02*
X0104398Y0066900D01*
X0105065Y0066900D01*
X0103592Y0064634D02*
X0103925Y0064301D01*
X0103925Y0063300D01*
X0102591Y0063300D02*
X0102591Y0065302D01*
X0102925Y0064634D02*
X0103592Y0064634D01*
X0102925Y0064634D02*
X0102591Y0064301D01*
X0101716Y0064634D02*
X0100715Y0064634D01*
X0100381Y0064301D01*
X0100381Y0063634D01*
X0100715Y0063300D01*
X0101716Y0063300D01*
X0102188Y0061702D02*
X0101854Y0061368D01*
X0101854Y0060034D01*
X0103189Y0061368D01*
X0103189Y0060034D01*
X0102855Y0059700D01*
X0102188Y0059700D01*
X0101854Y0060034D01*
X0100979Y0059700D02*
X0099644Y0059700D01*
X0100979Y0061034D01*
X0100979Y0061368D01*
X0100645Y0061702D01*
X0099978Y0061702D01*
X0099644Y0061368D01*
X0099575Y0063300D02*
X0099241Y0063634D01*
X0099241Y0064968D01*
X0098908Y0064634D02*
X0099575Y0064634D01*
X0098102Y0063300D02*
X0097435Y0063300D01*
X0097768Y0063300D02*
X0097768Y0064634D01*
X0097435Y0064634D01*
X0097768Y0065302D02*
X0097768Y0065635D01*
X0096559Y0065302D02*
X0095225Y0065302D01*
X0095225Y0063300D01*
X0095225Y0064301D02*
X0095892Y0064301D01*
X0096330Y0066900D02*
X0096330Y0068234D01*
X0096330Y0067567D02*
X0096997Y0068234D01*
X0097330Y0068234D01*
X0098171Y0068234D02*
X0098505Y0068234D01*
X0098505Y0066900D01*
X0098838Y0066900D02*
X0098171Y0066900D01*
X0099644Y0067234D02*
X0099644Y0067901D01*
X0099978Y0068234D01*
X0100979Y0068234D01*
X0100979Y0068902D02*
X0100979Y0066900D01*
X0099978Y0066900D01*
X0099644Y0067234D01*
X0098505Y0068902D02*
X0098505Y0069235D01*
X0095454Y0067901D02*
X0095121Y0068234D01*
X0094120Y0068234D01*
X0094120Y0068902D02*
X0094120Y0066900D01*
X0095121Y0066900D01*
X0095454Y0067234D01*
X0095454Y0067901D01*
X0093244Y0067901D02*
X0091910Y0067901D01*
X0091034Y0067901D02*
X0089700Y0067901D01*
X0089700Y0066900D02*
X0089700Y0068902D01*
X0091034Y0068902D02*
X0091034Y0066900D01*
X0091034Y0065302D02*
X0091034Y0063300D01*
X0089700Y0065302D01*
X0089700Y0063300D01*
X0090034Y0061702D02*
X0089700Y0061368D01*
X0089700Y0061034D01*
X0090034Y0060701D01*
X0090701Y0060701D01*
X0091034Y0060367D01*
X0091034Y0060034D01*
X0090701Y0059700D01*
X0090034Y0059700D01*
X0089700Y0060034D01*
X0090034Y0061702D02*
X0090701Y0061702D01*
X0091034Y0061368D01*
X0091910Y0060701D02*
X0092243Y0061034D01*
X0092911Y0061034D01*
X0093244Y0060701D01*
X0093244Y0060367D01*
X0091910Y0060367D01*
X0091910Y0060034D02*
X0091910Y0060701D01*
X0091910Y0060034D02*
X0092243Y0059700D01*
X0092911Y0059700D01*
X0094120Y0059700D02*
X0095121Y0059700D01*
X0095454Y0060034D01*
X0095454Y0060701D01*
X0095121Y0061034D01*
X0094120Y0061034D01*
X0094120Y0059033D01*
X0092243Y0063300D02*
X0091910Y0063300D01*
X0091910Y0063634D01*
X0092243Y0063634D01*
X0092243Y0063300D01*
X0096330Y0060034D02*
X0096663Y0060034D01*
X0096663Y0059700D01*
X0096330Y0059700D01*
X0096330Y0060034D01*
X0091411Y0051702D02*
X0091744Y0051368D01*
X0091744Y0051034D01*
X0091411Y0050701D01*
X0091744Y0050367D01*
X0091744Y0050034D01*
X0091411Y0049700D01*
X0090743Y0049700D01*
X0090410Y0050034D01*
X0089534Y0050034D02*
X0089201Y0049700D01*
X0088534Y0049700D01*
X0088200Y0050034D01*
X0088200Y0051368D01*
X0088534Y0051702D01*
X0089201Y0051702D01*
X0089534Y0051368D01*
X0090410Y0051368D02*
X0090743Y0051702D01*
X0091411Y0051702D01*
X0091411Y0050701D02*
X0091077Y0050701D01*
X0090410Y0044202D02*
X0090410Y0043201D01*
X0091077Y0043534D01*
X0091411Y0043534D01*
X0091744Y0043201D01*
X0091744Y0042534D01*
X0091411Y0042200D01*
X0090743Y0042200D01*
X0090410Y0042534D01*
X0089534Y0042534D02*
X0089201Y0042200D01*
X0088534Y0042200D01*
X0088200Y0042534D01*
X0088200Y0043868D01*
X0088534Y0044202D01*
X0089201Y0044202D01*
X0089534Y0043868D01*
X0090410Y0044202D02*
X0091744Y0044202D01*
X0102188Y0061702D02*
X0102855Y0061702D01*
X0103189Y0061368D01*
X0104064Y0061034D02*
X0104731Y0061702D01*
X0104731Y0059700D01*
X0104064Y0059700D02*
X0105399Y0059700D01*
X0106274Y0060034D02*
X0106274Y0060367D01*
X0106608Y0060701D01*
X0107275Y0060701D01*
X0107609Y0060367D01*
X0107609Y0060034D01*
X0107275Y0059700D01*
X0106608Y0059700D01*
X0106274Y0060034D01*
X0106608Y0060701D02*
X0106274Y0061034D01*
X0106274Y0061368D01*
X0106608Y0061702D01*
X0107275Y0061702D01*
X0107609Y0061368D01*
X0107609Y0061034D01*
X0107275Y0060701D01*
X0108818Y0066900D02*
X0109485Y0066900D01*
X0109818Y0067234D01*
X0110694Y0067234D02*
X0111027Y0066900D01*
X0111695Y0066900D01*
X0112028Y0067234D01*
X0112028Y0067901D01*
X0111695Y0068234D01*
X0111027Y0068234D01*
X0110694Y0067901D01*
X0110694Y0067234D01*
X0109818Y0068568D02*
X0109485Y0068902D01*
X0108818Y0068902D01*
X0108484Y0068568D01*
X0108484Y0067234D01*
X0108818Y0066900D01*
X0109589Y0070500D02*
X0109589Y0071834D01*
X0109589Y0071167D02*
X0110256Y0071834D01*
X0110590Y0071834D01*
X0111430Y0071501D02*
X0111430Y0070834D01*
X0111764Y0070500D01*
X0112431Y0070500D01*
X0112765Y0071167D02*
X0111430Y0071167D01*
X0111430Y0071501D02*
X0111764Y0071834D01*
X0112431Y0071834D01*
X0112765Y0071501D01*
X0112765Y0071167D01*
X0113640Y0071834D02*
X0114308Y0070500D01*
X0114975Y0071834D01*
X0115850Y0071501D02*
X0116851Y0071501D01*
X0117185Y0071167D01*
X0117185Y0070834D01*
X0116851Y0070500D01*
X0115850Y0070500D01*
X0115850Y0072502D01*
X0116851Y0072502D01*
X0117185Y0072168D01*
X0117185Y0071834D01*
X0116851Y0071501D01*
X0115447Y0068568D02*
X0115447Y0067234D01*
X0115781Y0066900D01*
X0116587Y0066900D02*
X0116587Y0068234D01*
X0116587Y0067567D02*
X0117254Y0068234D01*
X0117588Y0068234D01*
X0118428Y0067901D02*
X0118428Y0067234D01*
X0118762Y0066900D01*
X0119429Y0066900D01*
X0119763Y0067234D01*
X0119763Y0067901D01*
X0119429Y0068234D01*
X0118762Y0068234D01*
X0118428Y0067901D01*
X0120638Y0068902D02*
X0120972Y0068902D01*
X0120972Y0066900D01*
X0120638Y0066900D02*
X0121306Y0066900D01*
X0115781Y0068234D02*
X0115114Y0068234D01*
X0114238Y0067901D02*
X0114238Y0066900D01*
X0114238Y0067901D02*
X0113905Y0068234D01*
X0112904Y0068234D01*
X0112904Y0066900D01*
X0106504Y0070834D02*
X0106170Y0070500D01*
X0105503Y0070500D01*
X0105169Y0070834D01*
X0106504Y0072168D01*
X0106504Y0070834D01*
X0106504Y0072168D02*
X0106170Y0072502D01*
X0105503Y0072502D01*
X0105169Y0072168D01*
X0105169Y0070834D01*
X0103189Y0066566D02*
X0102855Y0066233D01*
X0102522Y0066233D01*
X0095454Y0072502D02*
X0094787Y0071834D01*
X0094120Y0072502D01*
X0094120Y0070500D01*
X0093244Y0070834D02*
X0092911Y0070500D01*
X0092243Y0070500D01*
X0091910Y0070834D01*
X0091910Y0072168D01*
X0092243Y0072502D01*
X0092911Y0072502D01*
X0093244Y0072168D01*
X0091034Y0072168D02*
X0090701Y0072502D01*
X0090034Y0072502D01*
X0089700Y0072168D01*
X0089700Y0070834D01*
X0090034Y0070500D01*
X0090701Y0070500D01*
X0091034Y0070834D01*
X0070911Y0039952D02*
X0071244Y0039618D01*
X0071244Y0039284D01*
X0069910Y0037950D01*
X0071244Y0037950D01*
X0070911Y0039952D02*
X0070243Y0039952D01*
X0069910Y0039618D01*
X0069034Y0039618D02*
X0069034Y0038951D01*
X0068701Y0038617D01*
X0067700Y0038617D01*
X0067700Y0037950D02*
X0067700Y0039952D01*
X0068701Y0039952D01*
X0069034Y0039618D01*
X0068367Y0038617D02*
X0069034Y0037950D01*
X0073784Y0015034D02*
X0073450Y0014701D01*
X0073450Y0014034D01*
X0073784Y0013700D01*
X0074784Y0013700D01*
X0075660Y0014034D02*
X0075993Y0013700D01*
X0076661Y0013700D01*
X0076994Y0014034D01*
X0076994Y0014701D01*
X0076661Y0015034D01*
X0075993Y0015034D01*
X0075660Y0014701D01*
X0075660Y0014034D01*
X0074784Y0015034D02*
X0073784Y0015034D01*
X0077870Y0015034D02*
X0078871Y0015034D01*
X0079204Y0014701D01*
X0079204Y0013700D01*
X0080413Y0014034D02*
X0080413Y0015368D01*
X0080080Y0015034D02*
X0080747Y0015034D01*
X0081553Y0015034D02*
X0081553Y0013700D01*
X0081553Y0014367D02*
X0082220Y0015034D01*
X0082554Y0015034D01*
X0083394Y0014701D02*
X0083394Y0014034D01*
X0083728Y0013700D01*
X0084395Y0013700D01*
X0084729Y0014034D01*
X0084729Y0014701D01*
X0084395Y0015034D01*
X0083728Y0015034D01*
X0083394Y0014701D01*
X0085604Y0015702D02*
X0085938Y0015702D01*
X0085938Y0013700D01*
X0085604Y0013700D02*
X0086272Y0013700D01*
X0080747Y0013700D02*
X0080413Y0014034D01*
X0077870Y0013700D02*
X0077870Y0015034D01*
X0056244Y0030950D02*
X0054910Y0030950D01*
X0055577Y0030950D02*
X0055577Y0032952D01*
X0054910Y0032284D01*
X0054034Y0031951D02*
X0053701Y0031617D01*
X0052700Y0031617D01*
X0052700Y0030950D02*
X0052700Y0032952D01*
X0053701Y0032952D01*
X0054034Y0032618D01*
X0054034Y0031951D01*
X0053367Y0031617D02*
X0054034Y0030950D01*
X0049244Y0024700D02*
X0047910Y0024700D01*
X0048577Y0024700D02*
X0048577Y0026702D01*
X0047910Y0026034D01*
X0047034Y0026702D02*
X0045700Y0024700D01*
X0047034Y0024700D02*
X0045700Y0026702D01*
X0045951Y0015452D02*
X0045284Y0015452D01*
X0044950Y0015118D01*
X0044950Y0013784D01*
X0045284Y0013450D01*
X0045951Y0013450D01*
X0046284Y0013784D01*
X0046284Y0014451D01*
X0045617Y0014451D01*
X0046284Y0015118D02*
X0045951Y0015452D01*
X0047160Y0015452D02*
X0047160Y0013450D01*
X0048494Y0013450D02*
X0047160Y0015452D01*
X0048494Y0015452D02*
X0048494Y0013450D01*
X0049370Y0013450D02*
X0049370Y0015452D01*
X0050371Y0015452D01*
X0050704Y0015118D01*
X0050704Y0013784D01*
X0050371Y0013450D01*
X0049370Y0013450D01*
X0041244Y0038950D02*
X0039910Y0038950D01*
X0041244Y0040284D01*
X0041244Y0040618D01*
X0040911Y0040952D01*
X0040243Y0040952D01*
X0039910Y0040618D01*
X0039034Y0040618D02*
X0038701Y0040952D01*
X0038034Y0040952D01*
X0037700Y0040618D01*
X0037700Y0039284D01*
X0038034Y0038950D01*
X0038701Y0038950D01*
X0039034Y0039284D01*
X0033744Y0038950D02*
X0032410Y0038950D01*
X0033077Y0038950D02*
X0033077Y0040952D01*
X0032410Y0040284D01*
X0031534Y0040618D02*
X0031201Y0040952D01*
X0030534Y0040952D01*
X0030200Y0040618D01*
X0030200Y0039284D01*
X0030534Y0038950D01*
X0031201Y0038950D01*
X0031534Y0039284D01*
X0046200Y0043784D02*
X0046534Y0043450D01*
X0047201Y0043450D01*
X0047534Y0043784D01*
X0048410Y0044451D02*
X0049744Y0044451D01*
X0049411Y0045452D02*
X0048410Y0044451D01*
X0047534Y0045118D02*
X0047201Y0045452D01*
X0046534Y0045452D01*
X0046200Y0045118D01*
X0046200Y0043784D01*
X0046534Y0049700D02*
X0046200Y0050034D01*
X0046200Y0051368D01*
X0046534Y0051702D01*
X0047201Y0051702D01*
X0047534Y0051368D01*
X0048410Y0050701D02*
X0049411Y0050701D01*
X0049744Y0050367D01*
X0049744Y0050034D01*
X0049411Y0049700D01*
X0048743Y0049700D01*
X0048410Y0050034D01*
X0048410Y0050701D01*
X0049077Y0051368D01*
X0049744Y0051702D01*
X0047534Y0050034D02*
X0047201Y0049700D01*
X0046534Y0049700D01*
X0049411Y0045452D02*
X0049411Y0043450D01*
X0041218Y0066700D02*
X0039883Y0066700D01*
X0040550Y0066700D02*
X0040550Y0068702D01*
X0039883Y0068034D01*
X0039008Y0068368D02*
X0038674Y0068702D01*
X0038007Y0068702D01*
X0037673Y0068368D01*
X0037673Y0067034D01*
X0038007Y0066700D01*
X0038674Y0066700D01*
X0039008Y0067034D01*
X0036867Y0066700D02*
X0036200Y0066700D01*
X0036534Y0066700D02*
X0036534Y0068702D01*
X0036867Y0068702D02*
X0036200Y0068702D01*
D11*
X0036500Y0054250D02*
X0042500Y0054250D01*
X0042500Y0042250D01*
X0036500Y0042250D01*
X0036500Y0054250D01*
X0035000Y0054250D02*
X0035000Y0042250D01*
X0029000Y0042250D01*
X0029000Y0054250D01*
X0035000Y0054250D01*
X0051000Y0053750D02*
X0051000Y0047750D01*
X0063000Y0047750D01*
X0063000Y0053750D01*
X0051000Y0053750D01*
X0051000Y0047500D02*
X0051000Y0041500D01*
X0063000Y0041500D01*
X0063000Y0047500D01*
X0051000Y0047500D01*
X0057500Y0035000D02*
X0057500Y0029000D01*
X0069500Y0029000D01*
X0069500Y0035000D01*
X0057500Y0035000D01*
X0066500Y0041000D02*
X0066500Y0053000D01*
X0072500Y0053000D01*
X0072500Y0041000D01*
X0066500Y0041000D01*
X0074500Y0041500D02*
X0074500Y0047500D01*
X0086500Y0047500D01*
X0086500Y0041500D01*
X0074500Y0041500D01*
X0074500Y0047750D02*
X0074500Y0053750D01*
X0086500Y0053750D01*
X0086500Y0047750D01*
X0074500Y0047750D01*
X0060500Y0104000D02*
X0048500Y0104000D01*
X0048500Y0110000D01*
X0060500Y0110000D01*
X0060500Y0104000D01*
X0060500Y0110250D02*
X0048500Y0110250D01*
X0048500Y0116250D01*
X0060500Y0116250D01*
X0060500Y0110250D01*
X0059000Y0122250D02*
X0053000Y0122250D01*
X0047000Y0122250D01*
X0047000Y0134250D01*
X0053000Y0134250D01*
X0053000Y0122250D01*
X0053000Y0134250D01*
X0059000Y0134250D01*
X0065000Y0134250D01*
X0065000Y0122250D01*
X0059000Y0122250D01*
X0059000Y0134250D01*
X0059000Y0122250D01*
X0067750Y0122250D02*
X0073750Y0122250D01*
X0073750Y0134250D01*
X0067750Y0134250D01*
X0067750Y0122250D01*
X0074000Y0122250D02*
X0080000Y0122250D01*
X0080000Y0134250D01*
X0074000Y0134250D01*
X0074000Y0122250D01*
X0080250Y0122250D02*
X0086250Y0122250D01*
X0086250Y0134250D01*
X0080250Y0134250D01*
X0080250Y0122250D01*
X0096500Y0142250D02*
X0096500Y0154250D01*
X0102500Y0154250D01*
X0102500Y0142250D01*
X0096500Y0142250D01*
X0071250Y0186000D02*
X0065250Y0186000D01*
X0065250Y0198000D01*
X0071250Y0198000D01*
X0071250Y0186000D01*
X0063750Y0186000D02*
X0057750Y0186000D01*
X0057750Y0198000D01*
X0063750Y0198000D01*
X0063750Y0186000D01*
X0047000Y0134250D02*
X0041000Y0134250D01*
X0041000Y0122250D01*
X0047000Y0122250D01*
X0047000Y0134250D01*
X0032500Y0142250D02*
X0026500Y0142250D01*
X0026500Y0154250D01*
X0032500Y0154250D01*
X0032500Y0142250D01*
X0029299Y0117799D02*
X0029299Y0108098D01*
X0023000Y0100000D02*
X0023000Y0094000D01*
X0011000Y0094000D01*
X0011000Y0100000D01*
X0023000Y0100000D01*
X0023000Y0092500D02*
X0023000Y0086500D01*
X0011000Y0086500D01*
X0011000Y0092500D01*
X0023000Y0092500D01*
X0011701Y0108098D02*
X0011701Y0117799D01*
D12*
X0010307Y0017000D02*
X0010309Y0017164D01*
X0010315Y0017328D01*
X0010325Y0017492D01*
X0010339Y0017656D01*
X0010357Y0017819D01*
X0010379Y0017982D01*
X0010406Y0018144D01*
X0010436Y0018306D01*
X0010470Y0018466D01*
X0010508Y0018626D01*
X0010549Y0018785D01*
X0010595Y0018943D01*
X0010645Y0019099D01*
X0010698Y0019255D01*
X0010755Y0019409D01*
X0010816Y0019561D01*
X0010881Y0019712D01*
X0010950Y0019862D01*
X0011022Y0020009D01*
X0011097Y0020155D01*
X0011177Y0020299D01*
X0011259Y0020441D01*
X0011345Y0020581D01*
X0011435Y0020718D01*
X0011528Y0020854D01*
X0011624Y0020987D01*
X0011724Y0021118D01*
X0011826Y0021246D01*
X0011932Y0021372D01*
X0012041Y0021495D01*
X0012153Y0021615D01*
X0012267Y0021733D01*
X0012385Y0021847D01*
X0012505Y0021959D01*
X0012628Y0022068D01*
X0012754Y0022174D01*
X0012882Y0022276D01*
X0013013Y0022376D01*
X0013146Y0022472D01*
X0013282Y0022565D01*
X0013419Y0022655D01*
X0013559Y0022741D01*
X0013701Y0022823D01*
X0013845Y0022903D01*
X0013991Y0022978D01*
X0014138Y0023050D01*
X0014288Y0023119D01*
X0014439Y0023184D01*
X0014591Y0023245D01*
X0014745Y0023302D01*
X0014901Y0023355D01*
X0015057Y0023405D01*
X0015215Y0023451D01*
X0015374Y0023492D01*
X0015534Y0023530D01*
X0015694Y0023564D01*
X0015856Y0023594D01*
X0016018Y0023621D01*
X0016181Y0023643D01*
X0016344Y0023661D01*
X0016508Y0023675D01*
X0016672Y0023685D01*
X0016836Y0023691D01*
X0017000Y0023693D01*
X0017164Y0023691D01*
X0017328Y0023685D01*
X0017492Y0023675D01*
X0017656Y0023661D01*
X0017819Y0023643D01*
X0017982Y0023621D01*
X0018144Y0023594D01*
X0018306Y0023564D01*
X0018466Y0023530D01*
X0018626Y0023492D01*
X0018785Y0023451D01*
X0018943Y0023405D01*
X0019099Y0023355D01*
X0019255Y0023302D01*
X0019409Y0023245D01*
X0019561Y0023184D01*
X0019712Y0023119D01*
X0019862Y0023050D01*
X0020009Y0022978D01*
X0020155Y0022903D01*
X0020299Y0022823D01*
X0020441Y0022741D01*
X0020581Y0022655D01*
X0020718Y0022565D01*
X0020854Y0022472D01*
X0020987Y0022376D01*
X0021118Y0022276D01*
X0021246Y0022174D01*
X0021372Y0022068D01*
X0021495Y0021959D01*
X0021615Y0021847D01*
X0021733Y0021733D01*
X0021847Y0021615D01*
X0021959Y0021495D01*
X0022068Y0021372D01*
X0022174Y0021246D01*
X0022276Y0021118D01*
X0022376Y0020987D01*
X0022472Y0020854D01*
X0022565Y0020718D01*
X0022655Y0020581D01*
X0022741Y0020441D01*
X0022823Y0020299D01*
X0022903Y0020155D01*
X0022978Y0020009D01*
X0023050Y0019862D01*
X0023119Y0019712D01*
X0023184Y0019561D01*
X0023245Y0019409D01*
X0023302Y0019255D01*
X0023355Y0019099D01*
X0023405Y0018943D01*
X0023451Y0018785D01*
X0023492Y0018626D01*
X0023530Y0018466D01*
X0023564Y0018306D01*
X0023594Y0018144D01*
X0023621Y0017982D01*
X0023643Y0017819D01*
X0023661Y0017656D01*
X0023675Y0017492D01*
X0023685Y0017328D01*
X0023691Y0017164D01*
X0023693Y0017000D01*
X0023691Y0016836D01*
X0023685Y0016672D01*
X0023675Y0016508D01*
X0023661Y0016344D01*
X0023643Y0016181D01*
X0023621Y0016018D01*
X0023594Y0015856D01*
X0023564Y0015694D01*
X0023530Y0015534D01*
X0023492Y0015374D01*
X0023451Y0015215D01*
X0023405Y0015057D01*
X0023355Y0014901D01*
X0023302Y0014745D01*
X0023245Y0014591D01*
X0023184Y0014439D01*
X0023119Y0014288D01*
X0023050Y0014138D01*
X0022978Y0013991D01*
X0022903Y0013845D01*
X0022823Y0013701D01*
X0022741Y0013559D01*
X0022655Y0013419D01*
X0022565Y0013282D01*
X0022472Y0013146D01*
X0022376Y0013013D01*
X0022276Y0012882D01*
X0022174Y0012754D01*
X0022068Y0012628D01*
X0021959Y0012505D01*
X0021847Y0012385D01*
X0021733Y0012267D01*
X0021615Y0012153D01*
X0021495Y0012041D01*
X0021372Y0011932D01*
X0021246Y0011826D01*
X0021118Y0011724D01*
X0020987Y0011624D01*
X0020854Y0011528D01*
X0020718Y0011435D01*
X0020581Y0011345D01*
X0020441Y0011259D01*
X0020299Y0011177D01*
X0020155Y0011097D01*
X0020009Y0011022D01*
X0019862Y0010950D01*
X0019712Y0010881D01*
X0019561Y0010816D01*
X0019409Y0010755D01*
X0019255Y0010698D01*
X0019099Y0010645D01*
X0018943Y0010595D01*
X0018785Y0010549D01*
X0018626Y0010508D01*
X0018466Y0010470D01*
X0018306Y0010436D01*
X0018144Y0010406D01*
X0017982Y0010379D01*
X0017819Y0010357D01*
X0017656Y0010339D01*
X0017492Y0010325D01*
X0017328Y0010315D01*
X0017164Y0010309D01*
X0017000Y0010307D01*
X0016836Y0010309D01*
X0016672Y0010315D01*
X0016508Y0010325D01*
X0016344Y0010339D01*
X0016181Y0010357D01*
X0016018Y0010379D01*
X0015856Y0010406D01*
X0015694Y0010436D01*
X0015534Y0010470D01*
X0015374Y0010508D01*
X0015215Y0010549D01*
X0015057Y0010595D01*
X0014901Y0010645D01*
X0014745Y0010698D01*
X0014591Y0010755D01*
X0014439Y0010816D01*
X0014288Y0010881D01*
X0014138Y0010950D01*
X0013991Y0011022D01*
X0013845Y0011097D01*
X0013701Y0011177D01*
X0013559Y0011259D01*
X0013419Y0011345D01*
X0013282Y0011435D01*
X0013146Y0011528D01*
X0013013Y0011624D01*
X0012882Y0011724D01*
X0012754Y0011826D01*
X0012628Y0011932D01*
X0012505Y0012041D01*
X0012385Y0012153D01*
X0012267Y0012267D01*
X0012153Y0012385D01*
X0012041Y0012505D01*
X0011932Y0012628D01*
X0011826Y0012754D01*
X0011724Y0012882D01*
X0011624Y0013013D01*
X0011528Y0013146D01*
X0011435Y0013282D01*
X0011345Y0013419D01*
X0011259Y0013559D01*
X0011177Y0013701D01*
X0011097Y0013845D01*
X0011022Y0013991D01*
X0010950Y0014138D01*
X0010881Y0014288D01*
X0010816Y0014439D01*
X0010755Y0014591D01*
X0010698Y0014745D01*
X0010645Y0014901D01*
X0010595Y0015057D01*
X0010549Y0015215D01*
X0010508Y0015374D01*
X0010470Y0015534D01*
X0010436Y0015694D01*
X0010406Y0015856D01*
X0010379Y0016018D01*
X0010357Y0016181D01*
X0010339Y0016344D01*
X0010325Y0016508D01*
X0010315Y0016672D01*
X0010309Y0016836D01*
X0010307Y0017000D01*
X0045500Y0055500D02*
X0042500Y0058500D01*
X0042500Y0103500D01*
X0086500Y0103500D01*
X0086500Y0055500D01*
X0045500Y0055500D01*
X0035012Y0134106D02*
X0035012Y0137256D01*
X0032650Y0137256D01*
X0038000Y0138000D02*
X0038000Y0183000D01*
X0091000Y0183000D01*
X0091000Y0136000D01*
X0040000Y0136000D01*
X0038000Y0138000D01*
X0026350Y0137256D02*
X0023988Y0137256D01*
X0023988Y0134106D01*
X0010307Y0237000D02*
X0010309Y0237164D01*
X0010315Y0237328D01*
X0010325Y0237492D01*
X0010339Y0237656D01*
X0010357Y0237819D01*
X0010379Y0237982D01*
X0010406Y0238144D01*
X0010436Y0238306D01*
X0010470Y0238466D01*
X0010508Y0238626D01*
X0010549Y0238785D01*
X0010595Y0238943D01*
X0010645Y0239099D01*
X0010698Y0239255D01*
X0010755Y0239409D01*
X0010816Y0239561D01*
X0010881Y0239712D01*
X0010950Y0239862D01*
X0011022Y0240009D01*
X0011097Y0240155D01*
X0011177Y0240299D01*
X0011259Y0240441D01*
X0011345Y0240581D01*
X0011435Y0240718D01*
X0011528Y0240854D01*
X0011624Y0240987D01*
X0011724Y0241118D01*
X0011826Y0241246D01*
X0011932Y0241372D01*
X0012041Y0241495D01*
X0012153Y0241615D01*
X0012267Y0241733D01*
X0012385Y0241847D01*
X0012505Y0241959D01*
X0012628Y0242068D01*
X0012754Y0242174D01*
X0012882Y0242276D01*
X0013013Y0242376D01*
X0013146Y0242472D01*
X0013282Y0242565D01*
X0013419Y0242655D01*
X0013559Y0242741D01*
X0013701Y0242823D01*
X0013845Y0242903D01*
X0013991Y0242978D01*
X0014138Y0243050D01*
X0014288Y0243119D01*
X0014439Y0243184D01*
X0014591Y0243245D01*
X0014745Y0243302D01*
X0014901Y0243355D01*
X0015057Y0243405D01*
X0015215Y0243451D01*
X0015374Y0243492D01*
X0015534Y0243530D01*
X0015694Y0243564D01*
X0015856Y0243594D01*
X0016018Y0243621D01*
X0016181Y0243643D01*
X0016344Y0243661D01*
X0016508Y0243675D01*
X0016672Y0243685D01*
X0016836Y0243691D01*
X0017000Y0243693D01*
X0017164Y0243691D01*
X0017328Y0243685D01*
X0017492Y0243675D01*
X0017656Y0243661D01*
X0017819Y0243643D01*
X0017982Y0243621D01*
X0018144Y0243594D01*
X0018306Y0243564D01*
X0018466Y0243530D01*
X0018626Y0243492D01*
X0018785Y0243451D01*
X0018943Y0243405D01*
X0019099Y0243355D01*
X0019255Y0243302D01*
X0019409Y0243245D01*
X0019561Y0243184D01*
X0019712Y0243119D01*
X0019862Y0243050D01*
X0020009Y0242978D01*
X0020155Y0242903D01*
X0020299Y0242823D01*
X0020441Y0242741D01*
X0020581Y0242655D01*
X0020718Y0242565D01*
X0020854Y0242472D01*
X0020987Y0242376D01*
X0021118Y0242276D01*
X0021246Y0242174D01*
X0021372Y0242068D01*
X0021495Y0241959D01*
X0021615Y0241847D01*
X0021733Y0241733D01*
X0021847Y0241615D01*
X0021959Y0241495D01*
X0022068Y0241372D01*
X0022174Y0241246D01*
X0022276Y0241118D01*
X0022376Y0240987D01*
X0022472Y0240854D01*
X0022565Y0240718D01*
X0022655Y0240581D01*
X0022741Y0240441D01*
X0022823Y0240299D01*
X0022903Y0240155D01*
X0022978Y0240009D01*
X0023050Y0239862D01*
X0023119Y0239712D01*
X0023184Y0239561D01*
X0023245Y0239409D01*
X0023302Y0239255D01*
X0023355Y0239099D01*
X0023405Y0238943D01*
X0023451Y0238785D01*
X0023492Y0238626D01*
X0023530Y0238466D01*
X0023564Y0238306D01*
X0023594Y0238144D01*
X0023621Y0237982D01*
X0023643Y0237819D01*
X0023661Y0237656D01*
X0023675Y0237492D01*
X0023685Y0237328D01*
X0023691Y0237164D01*
X0023693Y0237000D01*
X0023691Y0236836D01*
X0023685Y0236672D01*
X0023675Y0236508D01*
X0023661Y0236344D01*
X0023643Y0236181D01*
X0023621Y0236018D01*
X0023594Y0235856D01*
X0023564Y0235694D01*
X0023530Y0235534D01*
X0023492Y0235374D01*
X0023451Y0235215D01*
X0023405Y0235057D01*
X0023355Y0234901D01*
X0023302Y0234745D01*
X0023245Y0234591D01*
X0023184Y0234439D01*
X0023119Y0234288D01*
X0023050Y0234138D01*
X0022978Y0233991D01*
X0022903Y0233845D01*
X0022823Y0233701D01*
X0022741Y0233559D01*
X0022655Y0233419D01*
X0022565Y0233282D01*
X0022472Y0233146D01*
X0022376Y0233013D01*
X0022276Y0232882D01*
X0022174Y0232754D01*
X0022068Y0232628D01*
X0021959Y0232505D01*
X0021847Y0232385D01*
X0021733Y0232267D01*
X0021615Y0232153D01*
X0021495Y0232041D01*
X0021372Y0231932D01*
X0021246Y0231826D01*
X0021118Y0231724D01*
X0020987Y0231624D01*
X0020854Y0231528D01*
X0020718Y0231435D01*
X0020581Y0231345D01*
X0020441Y0231259D01*
X0020299Y0231177D01*
X0020155Y0231097D01*
X0020009Y0231022D01*
X0019862Y0230950D01*
X0019712Y0230881D01*
X0019561Y0230816D01*
X0019409Y0230755D01*
X0019255Y0230698D01*
X0019099Y0230645D01*
X0018943Y0230595D01*
X0018785Y0230549D01*
X0018626Y0230508D01*
X0018466Y0230470D01*
X0018306Y0230436D01*
X0018144Y0230406D01*
X0017982Y0230379D01*
X0017819Y0230357D01*
X0017656Y0230339D01*
X0017492Y0230325D01*
X0017328Y0230315D01*
X0017164Y0230309D01*
X0017000Y0230307D01*
X0016836Y0230309D01*
X0016672Y0230315D01*
X0016508Y0230325D01*
X0016344Y0230339D01*
X0016181Y0230357D01*
X0016018Y0230379D01*
X0015856Y0230406D01*
X0015694Y0230436D01*
X0015534Y0230470D01*
X0015374Y0230508D01*
X0015215Y0230549D01*
X0015057Y0230595D01*
X0014901Y0230645D01*
X0014745Y0230698D01*
X0014591Y0230755D01*
X0014439Y0230816D01*
X0014288Y0230881D01*
X0014138Y0230950D01*
X0013991Y0231022D01*
X0013845Y0231097D01*
X0013701Y0231177D01*
X0013559Y0231259D01*
X0013419Y0231345D01*
X0013282Y0231435D01*
X0013146Y0231528D01*
X0013013Y0231624D01*
X0012882Y0231724D01*
X0012754Y0231826D01*
X0012628Y0231932D01*
X0012505Y0232041D01*
X0012385Y0232153D01*
X0012267Y0232267D01*
X0012153Y0232385D01*
X0012041Y0232505D01*
X0011932Y0232628D01*
X0011826Y0232754D01*
X0011724Y0232882D01*
X0011624Y0233013D01*
X0011528Y0233146D01*
X0011435Y0233282D01*
X0011345Y0233419D01*
X0011259Y0233559D01*
X0011177Y0233701D01*
X0011097Y0233845D01*
X0011022Y0233991D01*
X0010950Y0234138D01*
X0010881Y0234288D01*
X0010816Y0234439D01*
X0010755Y0234591D01*
X0010698Y0234745D01*
X0010645Y0234901D01*
X0010595Y0235057D01*
X0010549Y0235215D01*
X0010508Y0235374D01*
X0010470Y0235534D01*
X0010436Y0235694D01*
X0010406Y0235856D01*
X0010379Y0236018D01*
X0010357Y0236181D01*
X0010339Y0236344D01*
X0010325Y0236508D01*
X0010315Y0236672D01*
X0010309Y0236836D01*
X0010307Y0237000D01*
X0093988Y0137256D02*
X0093988Y0134106D01*
X0093988Y0137256D02*
X0096350Y0137256D01*
X0102650Y0137256D02*
X0105012Y0137256D01*
X0105012Y0134106D01*
X0105307Y0237000D02*
X0105309Y0237164D01*
X0105315Y0237328D01*
X0105325Y0237492D01*
X0105339Y0237656D01*
X0105357Y0237819D01*
X0105379Y0237982D01*
X0105406Y0238144D01*
X0105436Y0238306D01*
X0105470Y0238466D01*
X0105508Y0238626D01*
X0105549Y0238785D01*
X0105595Y0238943D01*
X0105645Y0239099D01*
X0105698Y0239255D01*
X0105755Y0239409D01*
X0105816Y0239561D01*
X0105881Y0239712D01*
X0105950Y0239862D01*
X0106022Y0240009D01*
X0106097Y0240155D01*
X0106177Y0240299D01*
X0106259Y0240441D01*
X0106345Y0240581D01*
X0106435Y0240718D01*
X0106528Y0240854D01*
X0106624Y0240987D01*
X0106724Y0241118D01*
X0106826Y0241246D01*
X0106932Y0241372D01*
X0107041Y0241495D01*
X0107153Y0241615D01*
X0107267Y0241733D01*
X0107385Y0241847D01*
X0107505Y0241959D01*
X0107628Y0242068D01*
X0107754Y0242174D01*
X0107882Y0242276D01*
X0108013Y0242376D01*
X0108146Y0242472D01*
X0108282Y0242565D01*
X0108419Y0242655D01*
X0108559Y0242741D01*
X0108701Y0242823D01*
X0108845Y0242903D01*
X0108991Y0242978D01*
X0109138Y0243050D01*
X0109288Y0243119D01*
X0109439Y0243184D01*
X0109591Y0243245D01*
X0109745Y0243302D01*
X0109901Y0243355D01*
X0110057Y0243405D01*
X0110215Y0243451D01*
X0110374Y0243492D01*
X0110534Y0243530D01*
X0110694Y0243564D01*
X0110856Y0243594D01*
X0111018Y0243621D01*
X0111181Y0243643D01*
X0111344Y0243661D01*
X0111508Y0243675D01*
X0111672Y0243685D01*
X0111836Y0243691D01*
X0112000Y0243693D01*
X0112164Y0243691D01*
X0112328Y0243685D01*
X0112492Y0243675D01*
X0112656Y0243661D01*
X0112819Y0243643D01*
X0112982Y0243621D01*
X0113144Y0243594D01*
X0113306Y0243564D01*
X0113466Y0243530D01*
X0113626Y0243492D01*
X0113785Y0243451D01*
X0113943Y0243405D01*
X0114099Y0243355D01*
X0114255Y0243302D01*
X0114409Y0243245D01*
X0114561Y0243184D01*
X0114712Y0243119D01*
X0114862Y0243050D01*
X0115009Y0242978D01*
X0115155Y0242903D01*
X0115299Y0242823D01*
X0115441Y0242741D01*
X0115581Y0242655D01*
X0115718Y0242565D01*
X0115854Y0242472D01*
X0115987Y0242376D01*
X0116118Y0242276D01*
X0116246Y0242174D01*
X0116372Y0242068D01*
X0116495Y0241959D01*
X0116615Y0241847D01*
X0116733Y0241733D01*
X0116847Y0241615D01*
X0116959Y0241495D01*
X0117068Y0241372D01*
X0117174Y0241246D01*
X0117276Y0241118D01*
X0117376Y0240987D01*
X0117472Y0240854D01*
X0117565Y0240718D01*
X0117655Y0240581D01*
X0117741Y0240441D01*
X0117823Y0240299D01*
X0117903Y0240155D01*
X0117978Y0240009D01*
X0118050Y0239862D01*
X0118119Y0239712D01*
X0118184Y0239561D01*
X0118245Y0239409D01*
X0118302Y0239255D01*
X0118355Y0239099D01*
X0118405Y0238943D01*
X0118451Y0238785D01*
X0118492Y0238626D01*
X0118530Y0238466D01*
X0118564Y0238306D01*
X0118594Y0238144D01*
X0118621Y0237982D01*
X0118643Y0237819D01*
X0118661Y0237656D01*
X0118675Y0237492D01*
X0118685Y0237328D01*
X0118691Y0237164D01*
X0118693Y0237000D01*
X0118691Y0236836D01*
X0118685Y0236672D01*
X0118675Y0236508D01*
X0118661Y0236344D01*
X0118643Y0236181D01*
X0118621Y0236018D01*
X0118594Y0235856D01*
X0118564Y0235694D01*
X0118530Y0235534D01*
X0118492Y0235374D01*
X0118451Y0235215D01*
X0118405Y0235057D01*
X0118355Y0234901D01*
X0118302Y0234745D01*
X0118245Y0234591D01*
X0118184Y0234439D01*
X0118119Y0234288D01*
X0118050Y0234138D01*
X0117978Y0233991D01*
X0117903Y0233845D01*
X0117823Y0233701D01*
X0117741Y0233559D01*
X0117655Y0233419D01*
X0117565Y0233282D01*
X0117472Y0233146D01*
X0117376Y0233013D01*
X0117276Y0232882D01*
X0117174Y0232754D01*
X0117068Y0232628D01*
X0116959Y0232505D01*
X0116847Y0232385D01*
X0116733Y0232267D01*
X0116615Y0232153D01*
X0116495Y0232041D01*
X0116372Y0231932D01*
X0116246Y0231826D01*
X0116118Y0231724D01*
X0115987Y0231624D01*
X0115854Y0231528D01*
X0115718Y0231435D01*
X0115581Y0231345D01*
X0115441Y0231259D01*
X0115299Y0231177D01*
X0115155Y0231097D01*
X0115009Y0231022D01*
X0114862Y0230950D01*
X0114712Y0230881D01*
X0114561Y0230816D01*
X0114409Y0230755D01*
X0114255Y0230698D01*
X0114099Y0230645D01*
X0113943Y0230595D01*
X0113785Y0230549D01*
X0113626Y0230508D01*
X0113466Y0230470D01*
X0113306Y0230436D01*
X0113144Y0230406D01*
X0112982Y0230379D01*
X0112819Y0230357D01*
X0112656Y0230339D01*
X0112492Y0230325D01*
X0112328Y0230315D01*
X0112164Y0230309D01*
X0112000Y0230307D01*
X0111836Y0230309D01*
X0111672Y0230315D01*
X0111508Y0230325D01*
X0111344Y0230339D01*
X0111181Y0230357D01*
X0111018Y0230379D01*
X0110856Y0230406D01*
X0110694Y0230436D01*
X0110534Y0230470D01*
X0110374Y0230508D01*
X0110215Y0230549D01*
X0110057Y0230595D01*
X0109901Y0230645D01*
X0109745Y0230698D01*
X0109591Y0230755D01*
X0109439Y0230816D01*
X0109288Y0230881D01*
X0109138Y0230950D01*
X0108991Y0231022D01*
X0108845Y0231097D01*
X0108701Y0231177D01*
X0108559Y0231259D01*
X0108419Y0231345D01*
X0108282Y0231435D01*
X0108146Y0231528D01*
X0108013Y0231624D01*
X0107882Y0231724D01*
X0107754Y0231826D01*
X0107628Y0231932D01*
X0107505Y0232041D01*
X0107385Y0232153D01*
X0107267Y0232267D01*
X0107153Y0232385D01*
X0107041Y0232505D01*
X0106932Y0232628D01*
X0106826Y0232754D01*
X0106724Y0232882D01*
X0106624Y0233013D01*
X0106528Y0233146D01*
X0106435Y0233282D01*
X0106345Y0233419D01*
X0106259Y0233559D01*
X0106177Y0233701D01*
X0106097Y0233845D01*
X0106022Y0233991D01*
X0105950Y0234138D01*
X0105881Y0234288D01*
X0105816Y0234439D01*
X0105755Y0234591D01*
X0105698Y0234745D01*
X0105645Y0234901D01*
X0105595Y0235057D01*
X0105549Y0235215D01*
X0105508Y0235374D01*
X0105470Y0235534D01*
X0105436Y0235694D01*
X0105406Y0235856D01*
X0105379Y0236018D01*
X0105357Y0236181D01*
X0105339Y0236344D01*
X0105325Y0236508D01*
X0105315Y0236672D01*
X0105309Y0236836D01*
X0105307Y0237000D01*
X0105307Y0017000D02*
X0105309Y0017164D01*
X0105315Y0017328D01*
X0105325Y0017492D01*
X0105339Y0017656D01*
X0105357Y0017819D01*
X0105379Y0017982D01*
X0105406Y0018144D01*
X0105436Y0018306D01*
X0105470Y0018466D01*
X0105508Y0018626D01*
X0105549Y0018785D01*
X0105595Y0018943D01*
X0105645Y0019099D01*
X0105698Y0019255D01*
X0105755Y0019409D01*
X0105816Y0019561D01*
X0105881Y0019712D01*
X0105950Y0019862D01*
X0106022Y0020009D01*
X0106097Y0020155D01*
X0106177Y0020299D01*
X0106259Y0020441D01*
X0106345Y0020581D01*
X0106435Y0020718D01*
X0106528Y0020854D01*
X0106624Y0020987D01*
X0106724Y0021118D01*
X0106826Y0021246D01*
X0106932Y0021372D01*
X0107041Y0021495D01*
X0107153Y0021615D01*
X0107267Y0021733D01*
X0107385Y0021847D01*
X0107505Y0021959D01*
X0107628Y0022068D01*
X0107754Y0022174D01*
X0107882Y0022276D01*
X0108013Y0022376D01*
X0108146Y0022472D01*
X0108282Y0022565D01*
X0108419Y0022655D01*
X0108559Y0022741D01*
X0108701Y0022823D01*
X0108845Y0022903D01*
X0108991Y0022978D01*
X0109138Y0023050D01*
X0109288Y0023119D01*
X0109439Y0023184D01*
X0109591Y0023245D01*
X0109745Y0023302D01*
X0109901Y0023355D01*
X0110057Y0023405D01*
X0110215Y0023451D01*
X0110374Y0023492D01*
X0110534Y0023530D01*
X0110694Y0023564D01*
X0110856Y0023594D01*
X0111018Y0023621D01*
X0111181Y0023643D01*
X0111344Y0023661D01*
X0111508Y0023675D01*
X0111672Y0023685D01*
X0111836Y0023691D01*
X0112000Y0023693D01*
X0112164Y0023691D01*
X0112328Y0023685D01*
X0112492Y0023675D01*
X0112656Y0023661D01*
X0112819Y0023643D01*
X0112982Y0023621D01*
X0113144Y0023594D01*
X0113306Y0023564D01*
X0113466Y0023530D01*
X0113626Y0023492D01*
X0113785Y0023451D01*
X0113943Y0023405D01*
X0114099Y0023355D01*
X0114255Y0023302D01*
X0114409Y0023245D01*
X0114561Y0023184D01*
X0114712Y0023119D01*
X0114862Y0023050D01*
X0115009Y0022978D01*
X0115155Y0022903D01*
X0115299Y0022823D01*
X0115441Y0022741D01*
X0115581Y0022655D01*
X0115718Y0022565D01*
X0115854Y0022472D01*
X0115987Y0022376D01*
X0116118Y0022276D01*
X0116246Y0022174D01*
X0116372Y0022068D01*
X0116495Y0021959D01*
X0116615Y0021847D01*
X0116733Y0021733D01*
X0116847Y0021615D01*
X0116959Y0021495D01*
X0117068Y0021372D01*
X0117174Y0021246D01*
X0117276Y0021118D01*
X0117376Y0020987D01*
X0117472Y0020854D01*
X0117565Y0020718D01*
X0117655Y0020581D01*
X0117741Y0020441D01*
X0117823Y0020299D01*
X0117903Y0020155D01*
X0117978Y0020009D01*
X0118050Y0019862D01*
X0118119Y0019712D01*
X0118184Y0019561D01*
X0118245Y0019409D01*
X0118302Y0019255D01*
X0118355Y0019099D01*
X0118405Y0018943D01*
X0118451Y0018785D01*
X0118492Y0018626D01*
X0118530Y0018466D01*
X0118564Y0018306D01*
X0118594Y0018144D01*
X0118621Y0017982D01*
X0118643Y0017819D01*
X0118661Y0017656D01*
X0118675Y0017492D01*
X0118685Y0017328D01*
X0118691Y0017164D01*
X0118693Y0017000D01*
X0118691Y0016836D01*
X0118685Y0016672D01*
X0118675Y0016508D01*
X0118661Y0016344D01*
X0118643Y0016181D01*
X0118621Y0016018D01*
X0118594Y0015856D01*
X0118564Y0015694D01*
X0118530Y0015534D01*
X0118492Y0015374D01*
X0118451Y0015215D01*
X0118405Y0015057D01*
X0118355Y0014901D01*
X0118302Y0014745D01*
X0118245Y0014591D01*
X0118184Y0014439D01*
X0118119Y0014288D01*
X0118050Y0014138D01*
X0117978Y0013991D01*
X0117903Y0013845D01*
X0117823Y0013701D01*
X0117741Y0013559D01*
X0117655Y0013419D01*
X0117565Y0013282D01*
X0117472Y0013146D01*
X0117376Y0013013D01*
X0117276Y0012882D01*
X0117174Y0012754D01*
X0117068Y0012628D01*
X0116959Y0012505D01*
X0116847Y0012385D01*
X0116733Y0012267D01*
X0116615Y0012153D01*
X0116495Y0012041D01*
X0116372Y0011932D01*
X0116246Y0011826D01*
X0116118Y0011724D01*
X0115987Y0011624D01*
X0115854Y0011528D01*
X0115718Y0011435D01*
X0115581Y0011345D01*
X0115441Y0011259D01*
X0115299Y0011177D01*
X0115155Y0011097D01*
X0115009Y0011022D01*
X0114862Y0010950D01*
X0114712Y0010881D01*
X0114561Y0010816D01*
X0114409Y0010755D01*
X0114255Y0010698D01*
X0114099Y0010645D01*
X0113943Y0010595D01*
X0113785Y0010549D01*
X0113626Y0010508D01*
X0113466Y0010470D01*
X0113306Y0010436D01*
X0113144Y0010406D01*
X0112982Y0010379D01*
X0112819Y0010357D01*
X0112656Y0010339D01*
X0112492Y0010325D01*
X0112328Y0010315D01*
X0112164Y0010309D01*
X0112000Y0010307D01*
X0111836Y0010309D01*
X0111672Y0010315D01*
X0111508Y0010325D01*
X0111344Y0010339D01*
X0111181Y0010357D01*
X0111018Y0010379D01*
X0110856Y0010406D01*
X0110694Y0010436D01*
X0110534Y0010470D01*
X0110374Y0010508D01*
X0110215Y0010549D01*
X0110057Y0010595D01*
X0109901Y0010645D01*
X0109745Y0010698D01*
X0109591Y0010755D01*
X0109439Y0010816D01*
X0109288Y0010881D01*
X0109138Y0010950D01*
X0108991Y0011022D01*
X0108845Y0011097D01*
X0108701Y0011177D01*
X0108559Y0011259D01*
X0108419Y0011345D01*
X0108282Y0011435D01*
X0108146Y0011528D01*
X0108013Y0011624D01*
X0107882Y0011724D01*
X0107754Y0011826D01*
X0107628Y0011932D01*
X0107505Y0012041D01*
X0107385Y0012153D01*
X0107267Y0012267D01*
X0107153Y0012385D01*
X0107041Y0012505D01*
X0106932Y0012628D01*
X0106826Y0012754D01*
X0106724Y0012882D01*
X0106624Y0013013D01*
X0106528Y0013146D01*
X0106435Y0013282D01*
X0106345Y0013419D01*
X0106259Y0013559D01*
X0106177Y0013701D01*
X0106097Y0013845D01*
X0106022Y0013991D01*
X0105950Y0014138D01*
X0105881Y0014288D01*
X0105816Y0014439D01*
X0105755Y0014591D01*
X0105698Y0014745D01*
X0105645Y0014901D01*
X0105595Y0015057D01*
X0105549Y0015215D01*
X0105508Y0015374D01*
X0105470Y0015534D01*
X0105436Y0015694D01*
X0105406Y0015856D01*
X0105379Y0016018D01*
X0105357Y0016181D01*
X0105339Y0016344D01*
X0105325Y0016508D01*
X0105315Y0016672D01*
X0105309Y0016836D01*
X0105307Y0017000D01*
D13*
X0072000Y0009500D02*
X0072000Y0002000D01*
X0052000Y0002000D01*
X0052000Y0009500D01*
X0072000Y0009500D01*
X0072000Y0027000D01*
X0052000Y0027000D01*
X0052000Y0009500D01*
X0027000Y0039500D02*
X0027000Y0059500D01*
X0009500Y0059500D01*
X0009500Y0039500D01*
X0002000Y0039500D01*
X0002000Y0059500D01*
X0009500Y0059500D01*
X0009500Y0039500D02*
X0027000Y0039500D01*
X0014500Y0189500D02*
X0014500Y0207000D01*
X0054500Y0207000D01*
X0054500Y0189500D01*
X0014500Y0189500D01*
X0014500Y0207000D02*
X0014500Y0214500D01*
X0054500Y0214500D01*
X0054500Y0207000D01*
X0074500Y0207000D02*
X0074500Y0189500D01*
X0114500Y0189500D01*
X0114500Y0207000D01*
X0074500Y0207000D01*
X0074500Y0214500D01*
X0114500Y0214500D01*
X0114500Y0207000D01*
D14*
X0098500Y0237000D02*
X0098504Y0237331D01*
X0098516Y0237662D01*
X0098537Y0237993D01*
X0098565Y0238323D01*
X0098602Y0238653D01*
X0098646Y0238981D01*
X0098699Y0239308D01*
X0098759Y0239634D01*
X0098828Y0239958D01*
X0098905Y0240280D01*
X0098989Y0240601D01*
X0099081Y0240919D01*
X0099181Y0241235D01*
X0099289Y0241548D01*
X0099405Y0241859D01*
X0099528Y0242166D01*
X0099658Y0242471D01*
X0099796Y0242772D01*
X0099941Y0243070D01*
X0100094Y0243364D01*
X0100254Y0243654D01*
X0100421Y0243940D01*
X0100594Y0244222D01*
X0100775Y0244500D01*
X0100963Y0244773D01*
X0101157Y0245042D01*
X0101357Y0245306D01*
X0101564Y0245564D01*
X0101778Y0245818D01*
X0101997Y0246066D01*
X0102223Y0246309D01*
X0102454Y0246546D01*
X0102691Y0246777D01*
X0102934Y0247003D01*
X0103182Y0247222D01*
X0103436Y0247436D01*
X0103694Y0247643D01*
X0103958Y0247843D01*
X0104227Y0248037D01*
X0104500Y0248225D01*
X0104778Y0248406D01*
X0105060Y0248579D01*
X0105346Y0248746D01*
X0105636Y0248906D01*
X0105930Y0249059D01*
X0106228Y0249204D01*
X0106529Y0249342D01*
X0106834Y0249472D01*
X0107141Y0249595D01*
X0107452Y0249711D01*
X0107765Y0249819D01*
X0108081Y0249919D01*
X0108399Y0250011D01*
X0108720Y0250095D01*
X0109042Y0250172D01*
X0109366Y0250241D01*
X0109692Y0250301D01*
X0110019Y0250354D01*
X0110347Y0250398D01*
X0110677Y0250435D01*
X0111007Y0250463D01*
X0111338Y0250484D01*
X0111669Y0250496D01*
X0112000Y0250500D01*
X0112331Y0250496D01*
X0112662Y0250484D01*
X0112993Y0250463D01*
X0113323Y0250435D01*
X0113653Y0250398D01*
X0113981Y0250354D01*
X0114308Y0250301D01*
X0114634Y0250241D01*
X0114958Y0250172D01*
X0115280Y0250095D01*
X0115601Y0250011D01*
X0115919Y0249919D01*
X0116235Y0249819D01*
X0116548Y0249711D01*
X0116859Y0249595D01*
X0117166Y0249472D01*
X0117471Y0249342D01*
X0117772Y0249204D01*
X0118070Y0249059D01*
X0118364Y0248906D01*
X0118654Y0248746D01*
X0118940Y0248579D01*
X0119222Y0248406D01*
X0119500Y0248225D01*
X0119773Y0248037D01*
X0120042Y0247843D01*
X0120306Y0247643D01*
X0120564Y0247436D01*
X0120818Y0247222D01*
X0121066Y0247003D01*
X0121309Y0246777D01*
X0121546Y0246546D01*
X0121777Y0246309D01*
X0122003Y0246066D01*
X0122222Y0245818D01*
X0122436Y0245564D01*
X0122643Y0245306D01*
X0122843Y0245042D01*
X0123037Y0244773D01*
X0123225Y0244500D01*
X0123406Y0244222D01*
X0123579Y0243940D01*
X0123746Y0243654D01*
X0123906Y0243364D01*
X0124059Y0243070D01*
X0124204Y0242772D01*
X0124342Y0242471D01*
X0124472Y0242166D01*
X0124595Y0241859D01*
X0124711Y0241548D01*
X0124819Y0241235D01*
X0124919Y0240919D01*
X0125011Y0240601D01*
X0125095Y0240280D01*
X0125172Y0239958D01*
X0125241Y0239634D01*
X0125301Y0239308D01*
X0125354Y0238981D01*
X0125398Y0238653D01*
X0125435Y0238323D01*
X0125463Y0237993D01*
X0125484Y0237662D01*
X0125496Y0237331D01*
X0125500Y0237000D01*
X0125496Y0236669D01*
X0125484Y0236338D01*
X0125463Y0236007D01*
X0125435Y0235677D01*
X0125398Y0235347D01*
X0125354Y0235019D01*
X0125301Y0234692D01*
X0125241Y0234366D01*
X0125172Y0234042D01*
X0125095Y0233720D01*
X0125011Y0233399D01*
X0124919Y0233081D01*
X0124819Y0232765D01*
X0124711Y0232452D01*
X0124595Y0232141D01*
X0124472Y0231834D01*
X0124342Y0231529D01*
X0124204Y0231228D01*
X0124059Y0230930D01*
X0123906Y0230636D01*
X0123746Y0230346D01*
X0123579Y0230060D01*
X0123406Y0229778D01*
X0123225Y0229500D01*
X0123037Y0229227D01*
X0122843Y0228958D01*
X0122643Y0228694D01*
X0122436Y0228436D01*
X0122222Y0228182D01*
X0122003Y0227934D01*
X0121777Y0227691D01*
X0121546Y0227454D01*
X0121309Y0227223D01*
X0121066Y0226997D01*
X0120818Y0226778D01*
X0120564Y0226564D01*
X0120306Y0226357D01*
X0120042Y0226157D01*
X0119773Y0225963D01*
X0119500Y0225775D01*
X0119222Y0225594D01*
X0118940Y0225421D01*
X0118654Y0225254D01*
X0118364Y0225094D01*
X0118070Y0224941D01*
X0117772Y0224796D01*
X0117471Y0224658D01*
X0117166Y0224528D01*
X0116859Y0224405D01*
X0116548Y0224289D01*
X0116235Y0224181D01*
X0115919Y0224081D01*
X0115601Y0223989D01*
X0115280Y0223905D01*
X0114958Y0223828D01*
X0114634Y0223759D01*
X0114308Y0223699D01*
X0113981Y0223646D01*
X0113653Y0223602D01*
X0113323Y0223565D01*
X0112993Y0223537D01*
X0112662Y0223516D01*
X0112331Y0223504D01*
X0112000Y0223500D01*
X0111669Y0223504D01*
X0111338Y0223516D01*
X0111007Y0223537D01*
X0110677Y0223565D01*
X0110347Y0223602D01*
X0110019Y0223646D01*
X0109692Y0223699D01*
X0109366Y0223759D01*
X0109042Y0223828D01*
X0108720Y0223905D01*
X0108399Y0223989D01*
X0108081Y0224081D01*
X0107765Y0224181D01*
X0107452Y0224289D01*
X0107141Y0224405D01*
X0106834Y0224528D01*
X0106529Y0224658D01*
X0106228Y0224796D01*
X0105930Y0224941D01*
X0105636Y0225094D01*
X0105346Y0225254D01*
X0105060Y0225421D01*
X0104778Y0225594D01*
X0104500Y0225775D01*
X0104227Y0225963D01*
X0103958Y0226157D01*
X0103694Y0226357D01*
X0103436Y0226564D01*
X0103182Y0226778D01*
X0102934Y0226997D01*
X0102691Y0227223D01*
X0102454Y0227454D01*
X0102223Y0227691D01*
X0101997Y0227934D01*
X0101778Y0228182D01*
X0101564Y0228436D01*
X0101357Y0228694D01*
X0101157Y0228958D01*
X0100963Y0229227D01*
X0100775Y0229500D01*
X0100594Y0229778D01*
X0100421Y0230060D01*
X0100254Y0230346D01*
X0100094Y0230636D01*
X0099941Y0230930D01*
X0099796Y0231228D01*
X0099658Y0231529D01*
X0099528Y0231834D01*
X0099405Y0232141D01*
X0099289Y0232452D01*
X0099181Y0232765D01*
X0099081Y0233081D01*
X0098989Y0233399D01*
X0098905Y0233720D01*
X0098828Y0234042D01*
X0098759Y0234366D01*
X0098699Y0234692D01*
X0098646Y0235019D01*
X0098602Y0235347D01*
X0098565Y0235677D01*
X0098537Y0236007D01*
X0098516Y0236338D01*
X0098504Y0236669D01*
X0098500Y0237000D01*
X0003500Y0237000D02*
X0003504Y0237331D01*
X0003516Y0237662D01*
X0003537Y0237993D01*
X0003565Y0238323D01*
X0003602Y0238653D01*
X0003646Y0238981D01*
X0003699Y0239308D01*
X0003759Y0239634D01*
X0003828Y0239958D01*
X0003905Y0240280D01*
X0003989Y0240601D01*
X0004081Y0240919D01*
X0004181Y0241235D01*
X0004289Y0241548D01*
X0004405Y0241859D01*
X0004528Y0242166D01*
X0004658Y0242471D01*
X0004796Y0242772D01*
X0004941Y0243070D01*
X0005094Y0243364D01*
X0005254Y0243654D01*
X0005421Y0243940D01*
X0005594Y0244222D01*
X0005775Y0244500D01*
X0005963Y0244773D01*
X0006157Y0245042D01*
X0006357Y0245306D01*
X0006564Y0245564D01*
X0006778Y0245818D01*
X0006997Y0246066D01*
X0007223Y0246309D01*
X0007454Y0246546D01*
X0007691Y0246777D01*
X0007934Y0247003D01*
X0008182Y0247222D01*
X0008436Y0247436D01*
X0008694Y0247643D01*
X0008958Y0247843D01*
X0009227Y0248037D01*
X0009500Y0248225D01*
X0009778Y0248406D01*
X0010060Y0248579D01*
X0010346Y0248746D01*
X0010636Y0248906D01*
X0010930Y0249059D01*
X0011228Y0249204D01*
X0011529Y0249342D01*
X0011834Y0249472D01*
X0012141Y0249595D01*
X0012452Y0249711D01*
X0012765Y0249819D01*
X0013081Y0249919D01*
X0013399Y0250011D01*
X0013720Y0250095D01*
X0014042Y0250172D01*
X0014366Y0250241D01*
X0014692Y0250301D01*
X0015019Y0250354D01*
X0015347Y0250398D01*
X0015677Y0250435D01*
X0016007Y0250463D01*
X0016338Y0250484D01*
X0016669Y0250496D01*
X0017000Y0250500D01*
X0017331Y0250496D01*
X0017662Y0250484D01*
X0017993Y0250463D01*
X0018323Y0250435D01*
X0018653Y0250398D01*
X0018981Y0250354D01*
X0019308Y0250301D01*
X0019634Y0250241D01*
X0019958Y0250172D01*
X0020280Y0250095D01*
X0020601Y0250011D01*
X0020919Y0249919D01*
X0021235Y0249819D01*
X0021548Y0249711D01*
X0021859Y0249595D01*
X0022166Y0249472D01*
X0022471Y0249342D01*
X0022772Y0249204D01*
X0023070Y0249059D01*
X0023364Y0248906D01*
X0023654Y0248746D01*
X0023940Y0248579D01*
X0024222Y0248406D01*
X0024500Y0248225D01*
X0024773Y0248037D01*
X0025042Y0247843D01*
X0025306Y0247643D01*
X0025564Y0247436D01*
X0025818Y0247222D01*
X0026066Y0247003D01*
X0026309Y0246777D01*
X0026546Y0246546D01*
X0026777Y0246309D01*
X0027003Y0246066D01*
X0027222Y0245818D01*
X0027436Y0245564D01*
X0027643Y0245306D01*
X0027843Y0245042D01*
X0028037Y0244773D01*
X0028225Y0244500D01*
X0028406Y0244222D01*
X0028579Y0243940D01*
X0028746Y0243654D01*
X0028906Y0243364D01*
X0029059Y0243070D01*
X0029204Y0242772D01*
X0029342Y0242471D01*
X0029472Y0242166D01*
X0029595Y0241859D01*
X0029711Y0241548D01*
X0029819Y0241235D01*
X0029919Y0240919D01*
X0030011Y0240601D01*
X0030095Y0240280D01*
X0030172Y0239958D01*
X0030241Y0239634D01*
X0030301Y0239308D01*
X0030354Y0238981D01*
X0030398Y0238653D01*
X0030435Y0238323D01*
X0030463Y0237993D01*
X0030484Y0237662D01*
X0030496Y0237331D01*
X0030500Y0237000D01*
X0030496Y0236669D01*
X0030484Y0236338D01*
X0030463Y0236007D01*
X0030435Y0235677D01*
X0030398Y0235347D01*
X0030354Y0235019D01*
X0030301Y0234692D01*
X0030241Y0234366D01*
X0030172Y0234042D01*
X0030095Y0233720D01*
X0030011Y0233399D01*
X0029919Y0233081D01*
X0029819Y0232765D01*
X0029711Y0232452D01*
X0029595Y0232141D01*
X0029472Y0231834D01*
X0029342Y0231529D01*
X0029204Y0231228D01*
X0029059Y0230930D01*
X0028906Y0230636D01*
X0028746Y0230346D01*
X0028579Y0230060D01*
X0028406Y0229778D01*
X0028225Y0229500D01*
X0028037Y0229227D01*
X0027843Y0228958D01*
X0027643Y0228694D01*
X0027436Y0228436D01*
X0027222Y0228182D01*
X0027003Y0227934D01*
X0026777Y0227691D01*
X0026546Y0227454D01*
X0026309Y0227223D01*
X0026066Y0226997D01*
X0025818Y0226778D01*
X0025564Y0226564D01*
X0025306Y0226357D01*
X0025042Y0226157D01*
X0024773Y0225963D01*
X0024500Y0225775D01*
X0024222Y0225594D01*
X0023940Y0225421D01*
X0023654Y0225254D01*
X0023364Y0225094D01*
X0023070Y0224941D01*
X0022772Y0224796D01*
X0022471Y0224658D01*
X0022166Y0224528D01*
X0021859Y0224405D01*
X0021548Y0224289D01*
X0021235Y0224181D01*
X0020919Y0224081D01*
X0020601Y0223989D01*
X0020280Y0223905D01*
X0019958Y0223828D01*
X0019634Y0223759D01*
X0019308Y0223699D01*
X0018981Y0223646D01*
X0018653Y0223602D01*
X0018323Y0223565D01*
X0017993Y0223537D01*
X0017662Y0223516D01*
X0017331Y0223504D01*
X0017000Y0223500D01*
X0016669Y0223504D01*
X0016338Y0223516D01*
X0016007Y0223537D01*
X0015677Y0223565D01*
X0015347Y0223602D01*
X0015019Y0223646D01*
X0014692Y0223699D01*
X0014366Y0223759D01*
X0014042Y0223828D01*
X0013720Y0223905D01*
X0013399Y0223989D01*
X0013081Y0224081D01*
X0012765Y0224181D01*
X0012452Y0224289D01*
X0012141Y0224405D01*
X0011834Y0224528D01*
X0011529Y0224658D01*
X0011228Y0224796D01*
X0010930Y0224941D01*
X0010636Y0225094D01*
X0010346Y0225254D01*
X0010060Y0225421D01*
X0009778Y0225594D01*
X0009500Y0225775D01*
X0009227Y0225963D01*
X0008958Y0226157D01*
X0008694Y0226357D01*
X0008436Y0226564D01*
X0008182Y0226778D01*
X0007934Y0226997D01*
X0007691Y0227223D01*
X0007454Y0227454D01*
X0007223Y0227691D01*
X0006997Y0227934D01*
X0006778Y0228182D01*
X0006564Y0228436D01*
X0006357Y0228694D01*
X0006157Y0228958D01*
X0005963Y0229227D01*
X0005775Y0229500D01*
X0005594Y0229778D01*
X0005421Y0230060D01*
X0005254Y0230346D01*
X0005094Y0230636D01*
X0004941Y0230930D01*
X0004796Y0231228D01*
X0004658Y0231529D01*
X0004528Y0231834D01*
X0004405Y0232141D01*
X0004289Y0232452D01*
X0004181Y0232765D01*
X0004081Y0233081D01*
X0003989Y0233399D01*
X0003905Y0233720D01*
X0003828Y0234042D01*
X0003759Y0234366D01*
X0003699Y0234692D01*
X0003646Y0235019D01*
X0003602Y0235347D01*
X0003565Y0235677D01*
X0003537Y0236007D01*
X0003516Y0236338D01*
X0003504Y0236669D01*
X0003500Y0237000D01*
X0003500Y0017000D02*
X0003504Y0017331D01*
X0003516Y0017662D01*
X0003537Y0017993D01*
X0003565Y0018323D01*
X0003602Y0018653D01*
X0003646Y0018981D01*
X0003699Y0019308D01*
X0003759Y0019634D01*
X0003828Y0019958D01*
X0003905Y0020280D01*
X0003989Y0020601D01*
X0004081Y0020919D01*
X0004181Y0021235D01*
X0004289Y0021548D01*
X0004405Y0021859D01*
X0004528Y0022166D01*
X0004658Y0022471D01*
X0004796Y0022772D01*
X0004941Y0023070D01*
X0005094Y0023364D01*
X0005254Y0023654D01*
X0005421Y0023940D01*
X0005594Y0024222D01*
X0005775Y0024500D01*
X0005963Y0024773D01*
X0006157Y0025042D01*
X0006357Y0025306D01*
X0006564Y0025564D01*
X0006778Y0025818D01*
X0006997Y0026066D01*
X0007223Y0026309D01*
X0007454Y0026546D01*
X0007691Y0026777D01*
X0007934Y0027003D01*
X0008182Y0027222D01*
X0008436Y0027436D01*
X0008694Y0027643D01*
X0008958Y0027843D01*
X0009227Y0028037D01*
X0009500Y0028225D01*
X0009778Y0028406D01*
X0010060Y0028579D01*
X0010346Y0028746D01*
X0010636Y0028906D01*
X0010930Y0029059D01*
X0011228Y0029204D01*
X0011529Y0029342D01*
X0011834Y0029472D01*
X0012141Y0029595D01*
X0012452Y0029711D01*
X0012765Y0029819D01*
X0013081Y0029919D01*
X0013399Y0030011D01*
X0013720Y0030095D01*
X0014042Y0030172D01*
X0014366Y0030241D01*
X0014692Y0030301D01*
X0015019Y0030354D01*
X0015347Y0030398D01*
X0015677Y0030435D01*
X0016007Y0030463D01*
X0016338Y0030484D01*
X0016669Y0030496D01*
X0017000Y0030500D01*
X0017331Y0030496D01*
X0017662Y0030484D01*
X0017993Y0030463D01*
X0018323Y0030435D01*
X0018653Y0030398D01*
X0018981Y0030354D01*
X0019308Y0030301D01*
X0019634Y0030241D01*
X0019958Y0030172D01*
X0020280Y0030095D01*
X0020601Y0030011D01*
X0020919Y0029919D01*
X0021235Y0029819D01*
X0021548Y0029711D01*
X0021859Y0029595D01*
X0022166Y0029472D01*
X0022471Y0029342D01*
X0022772Y0029204D01*
X0023070Y0029059D01*
X0023364Y0028906D01*
X0023654Y0028746D01*
X0023940Y0028579D01*
X0024222Y0028406D01*
X0024500Y0028225D01*
X0024773Y0028037D01*
X0025042Y0027843D01*
X0025306Y0027643D01*
X0025564Y0027436D01*
X0025818Y0027222D01*
X0026066Y0027003D01*
X0026309Y0026777D01*
X0026546Y0026546D01*
X0026777Y0026309D01*
X0027003Y0026066D01*
X0027222Y0025818D01*
X0027436Y0025564D01*
X0027643Y0025306D01*
X0027843Y0025042D01*
X0028037Y0024773D01*
X0028225Y0024500D01*
X0028406Y0024222D01*
X0028579Y0023940D01*
X0028746Y0023654D01*
X0028906Y0023364D01*
X0029059Y0023070D01*
X0029204Y0022772D01*
X0029342Y0022471D01*
X0029472Y0022166D01*
X0029595Y0021859D01*
X0029711Y0021548D01*
X0029819Y0021235D01*
X0029919Y0020919D01*
X0030011Y0020601D01*
X0030095Y0020280D01*
X0030172Y0019958D01*
X0030241Y0019634D01*
X0030301Y0019308D01*
X0030354Y0018981D01*
X0030398Y0018653D01*
X0030435Y0018323D01*
X0030463Y0017993D01*
X0030484Y0017662D01*
X0030496Y0017331D01*
X0030500Y0017000D01*
X0030496Y0016669D01*
X0030484Y0016338D01*
X0030463Y0016007D01*
X0030435Y0015677D01*
X0030398Y0015347D01*
X0030354Y0015019D01*
X0030301Y0014692D01*
X0030241Y0014366D01*
X0030172Y0014042D01*
X0030095Y0013720D01*
X0030011Y0013399D01*
X0029919Y0013081D01*
X0029819Y0012765D01*
X0029711Y0012452D01*
X0029595Y0012141D01*
X0029472Y0011834D01*
X0029342Y0011529D01*
X0029204Y0011228D01*
X0029059Y0010930D01*
X0028906Y0010636D01*
X0028746Y0010346D01*
X0028579Y0010060D01*
X0028406Y0009778D01*
X0028225Y0009500D01*
X0028037Y0009227D01*
X0027843Y0008958D01*
X0027643Y0008694D01*
X0027436Y0008436D01*
X0027222Y0008182D01*
X0027003Y0007934D01*
X0026777Y0007691D01*
X0026546Y0007454D01*
X0026309Y0007223D01*
X0026066Y0006997D01*
X0025818Y0006778D01*
X0025564Y0006564D01*
X0025306Y0006357D01*
X0025042Y0006157D01*
X0024773Y0005963D01*
X0024500Y0005775D01*
X0024222Y0005594D01*
X0023940Y0005421D01*
X0023654Y0005254D01*
X0023364Y0005094D01*
X0023070Y0004941D01*
X0022772Y0004796D01*
X0022471Y0004658D01*
X0022166Y0004528D01*
X0021859Y0004405D01*
X0021548Y0004289D01*
X0021235Y0004181D01*
X0020919Y0004081D01*
X0020601Y0003989D01*
X0020280Y0003905D01*
X0019958Y0003828D01*
X0019634Y0003759D01*
X0019308Y0003699D01*
X0018981Y0003646D01*
X0018653Y0003602D01*
X0018323Y0003565D01*
X0017993Y0003537D01*
X0017662Y0003516D01*
X0017331Y0003504D01*
X0017000Y0003500D01*
X0016669Y0003504D01*
X0016338Y0003516D01*
X0016007Y0003537D01*
X0015677Y0003565D01*
X0015347Y0003602D01*
X0015019Y0003646D01*
X0014692Y0003699D01*
X0014366Y0003759D01*
X0014042Y0003828D01*
X0013720Y0003905D01*
X0013399Y0003989D01*
X0013081Y0004081D01*
X0012765Y0004181D01*
X0012452Y0004289D01*
X0012141Y0004405D01*
X0011834Y0004528D01*
X0011529Y0004658D01*
X0011228Y0004796D01*
X0010930Y0004941D01*
X0010636Y0005094D01*
X0010346Y0005254D01*
X0010060Y0005421D01*
X0009778Y0005594D01*
X0009500Y0005775D01*
X0009227Y0005963D01*
X0008958Y0006157D01*
X0008694Y0006357D01*
X0008436Y0006564D01*
X0008182Y0006778D01*
X0007934Y0006997D01*
X0007691Y0007223D01*
X0007454Y0007454D01*
X0007223Y0007691D01*
X0006997Y0007934D01*
X0006778Y0008182D01*
X0006564Y0008436D01*
X0006357Y0008694D01*
X0006157Y0008958D01*
X0005963Y0009227D01*
X0005775Y0009500D01*
X0005594Y0009778D01*
X0005421Y0010060D01*
X0005254Y0010346D01*
X0005094Y0010636D01*
X0004941Y0010930D01*
X0004796Y0011228D01*
X0004658Y0011529D01*
X0004528Y0011834D01*
X0004405Y0012141D01*
X0004289Y0012452D01*
X0004181Y0012765D01*
X0004081Y0013081D01*
X0003989Y0013399D01*
X0003905Y0013720D01*
X0003828Y0014042D01*
X0003759Y0014366D01*
X0003699Y0014692D01*
X0003646Y0015019D01*
X0003602Y0015347D01*
X0003565Y0015677D01*
X0003537Y0016007D01*
X0003516Y0016338D01*
X0003504Y0016669D01*
X0003500Y0017000D01*
X0098500Y0017000D02*
X0098504Y0017331D01*
X0098516Y0017662D01*
X0098537Y0017993D01*
X0098565Y0018323D01*
X0098602Y0018653D01*
X0098646Y0018981D01*
X0098699Y0019308D01*
X0098759Y0019634D01*
X0098828Y0019958D01*
X0098905Y0020280D01*
X0098989Y0020601D01*
X0099081Y0020919D01*
X0099181Y0021235D01*
X0099289Y0021548D01*
X0099405Y0021859D01*
X0099528Y0022166D01*
X0099658Y0022471D01*
X0099796Y0022772D01*
X0099941Y0023070D01*
X0100094Y0023364D01*
X0100254Y0023654D01*
X0100421Y0023940D01*
X0100594Y0024222D01*
X0100775Y0024500D01*
X0100963Y0024773D01*
X0101157Y0025042D01*
X0101357Y0025306D01*
X0101564Y0025564D01*
X0101778Y0025818D01*
X0101997Y0026066D01*
X0102223Y0026309D01*
X0102454Y0026546D01*
X0102691Y0026777D01*
X0102934Y0027003D01*
X0103182Y0027222D01*
X0103436Y0027436D01*
X0103694Y0027643D01*
X0103958Y0027843D01*
X0104227Y0028037D01*
X0104500Y0028225D01*
X0104778Y0028406D01*
X0105060Y0028579D01*
X0105346Y0028746D01*
X0105636Y0028906D01*
X0105930Y0029059D01*
X0106228Y0029204D01*
X0106529Y0029342D01*
X0106834Y0029472D01*
X0107141Y0029595D01*
X0107452Y0029711D01*
X0107765Y0029819D01*
X0108081Y0029919D01*
X0108399Y0030011D01*
X0108720Y0030095D01*
X0109042Y0030172D01*
X0109366Y0030241D01*
X0109692Y0030301D01*
X0110019Y0030354D01*
X0110347Y0030398D01*
X0110677Y0030435D01*
X0111007Y0030463D01*
X0111338Y0030484D01*
X0111669Y0030496D01*
X0112000Y0030500D01*
X0112331Y0030496D01*
X0112662Y0030484D01*
X0112993Y0030463D01*
X0113323Y0030435D01*
X0113653Y0030398D01*
X0113981Y0030354D01*
X0114308Y0030301D01*
X0114634Y0030241D01*
X0114958Y0030172D01*
X0115280Y0030095D01*
X0115601Y0030011D01*
X0115919Y0029919D01*
X0116235Y0029819D01*
X0116548Y0029711D01*
X0116859Y0029595D01*
X0117166Y0029472D01*
X0117471Y0029342D01*
X0117772Y0029204D01*
X0118070Y0029059D01*
X0118364Y0028906D01*
X0118654Y0028746D01*
X0118940Y0028579D01*
X0119222Y0028406D01*
X0119500Y0028225D01*
X0119773Y0028037D01*
X0120042Y0027843D01*
X0120306Y0027643D01*
X0120564Y0027436D01*
X0120818Y0027222D01*
X0121066Y0027003D01*
X0121309Y0026777D01*
X0121546Y0026546D01*
X0121777Y0026309D01*
X0122003Y0026066D01*
X0122222Y0025818D01*
X0122436Y0025564D01*
X0122643Y0025306D01*
X0122843Y0025042D01*
X0123037Y0024773D01*
X0123225Y0024500D01*
X0123406Y0024222D01*
X0123579Y0023940D01*
X0123746Y0023654D01*
X0123906Y0023364D01*
X0124059Y0023070D01*
X0124204Y0022772D01*
X0124342Y0022471D01*
X0124472Y0022166D01*
X0124595Y0021859D01*
X0124711Y0021548D01*
X0124819Y0021235D01*
X0124919Y0020919D01*
X0125011Y0020601D01*
X0125095Y0020280D01*
X0125172Y0019958D01*
X0125241Y0019634D01*
X0125301Y0019308D01*
X0125354Y0018981D01*
X0125398Y0018653D01*
X0125435Y0018323D01*
X0125463Y0017993D01*
X0125484Y0017662D01*
X0125496Y0017331D01*
X0125500Y0017000D01*
X0125496Y0016669D01*
X0125484Y0016338D01*
X0125463Y0016007D01*
X0125435Y0015677D01*
X0125398Y0015347D01*
X0125354Y0015019D01*
X0125301Y0014692D01*
X0125241Y0014366D01*
X0125172Y0014042D01*
X0125095Y0013720D01*
X0125011Y0013399D01*
X0124919Y0013081D01*
X0124819Y0012765D01*
X0124711Y0012452D01*
X0124595Y0012141D01*
X0124472Y0011834D01*
X0124342Y0011529D01*
X0124204Y0011228D01*
X0124059Y0010930D01*
X0123906Y0010636D01*
X0123746Y0010346D01*
X0123579Y0010060D01*
X0123406Y0009778D01*
X0123225Y0009500D01*
X0123037Y0009227D01*
X0122843Y0008958D01*
X0122643Y0008694D01*
X0122436Y0008436D01*
X0122222Y0008182D01*
X0122003Y0007934D01*
X0121777Y0007691D01*
X0121546Y0007454D01*
X0121309Y0007223D01*
X0121066Y0006997D01*
X0120818Y0006778D01*
X0120564Y0006564D01*
X0120306Y0006357D01*
X0120042Y0006157D01*
X0119773Y0005963D01*
X0119500Y0005775D01*
X0119222Y0005594D01*
X0118940Y0005421D01*
X0118654Y0005254D01*
X0118364Y0005094D01*
X0118070Y0004941D01*
X0117772Y0004796D01*
X0117471Y0004658D01*
X0117166Y0004528D01*
X0116859Y0004405D01*
X0116548Y0004289D01*
X0116235Y0004181D01*
X0115919Y0004081D01*
X0115601Y0003989D01*
X0115280Y0003905D01*
X0114958Y0003828D01*
X0114634Y0003759D01*
X0114308Y0003699D01*
X0113981Y0003646D01*
X0113653Y0003602D01*
X0113323Y0003565D01*
X0112993Y0003537D01*
X0112662Y0003516D01*
X0112331Y0003504D01*
X0112000Y0003500D01*
X0111669Y0003504D01*
X0111338Y0003516D01*
X0111007Y0003537D01*
X0110677Y0003565D01*
X0110347Y0003602D01*
X0110019Y0003646D01*
X0109692Y0003699D01*
X0109366Y0003759D01*
X0109042Y0003828D01*
X0108720Y0003905D01*
X0108399Y0003989D01*
X0108081Y0004081D01*
X0107765Y0004181D01*
X0107452Y0004289D01*
X0107141Y0004405D01*
X0106834Y0004528D01*
X0106529Y0004658D01*
X0106228Y0004796D01*
X0105930Y0004941D01*
X0105636Y0005094D01*
X0105346Y0005254D01*
X0105060Y0005421D01*
X0104778Y0005594D01*
X0104500Y0005775D01*
X0104227Y0005963D01*
X0103958Y0006157D01*
X0103694Y0006357D01*
X0103436Y0006564D01*
X0103182Y0006778D01*
X0102934Y0006997D01*
X0102691Y0007223D01*
X0102454Y0007454D01*
X0102223Y0007691D01*
X0101997Y0007934D01*
X0101778Y0008182D01*
X0101564Y0008436D01*
X0101357Y0008694D01*
X0101157Y0008958D01*
X0100963Y0009227D01*
X0100775Y0009500D01*
X0100594Y0009778D01*
X0100421Y0010060D01*
X0100254Y0010346D01*
X0100094Y0010636D01*
X0099941Y0010930D01*
X0099796Y0011228D01*
X0099658Y0011529D01*
X0099528Y0011834D01*
X0099405Y0012141D01*
X0099289Y0012452D01*
X0099181Y0012765D01*
X0099081Y0013081D01*
X0098989Y0013399D01*
X0098905Y0013720D01*
X0098828Y0014042D01*
X0098759Y0014366D01*
X0098699Y0014692D01*
X0098646Y0015019D01*
X0098602Y0015347D01*
X0098565Y0015677D01*
X0098537Y0016007D01*
X0098516Y0016338D01*
X0098504Y0016669D01*
X0098500Y0017000D01*
M02*
