G75*
%MOIN*%
%OFA0B0*%
%FSLAX24Y24*%
%IPPOS*%
%LPD*%
%AMOC8*
5,1,8,0,0,1.08239X$1,22.5*
%
%ADD10R,0.0400X0.0400*%
%ADD11C,0.0740*%
%ADD12R,0.0600X0.0500*%
%ADD13C,0.0594*%
%ADD14R,0.0138X0.0453*%
%ADD15C,0.0700*%
%ADD16C,0.0554*%
%ADD17C,0.1266*%
%ADD18R,0.0394X0.0551*%
%ADD19C,0.0160*%
%ADD20C,0.0396*%
%ADD21C,0.0120*%
D10*
X004500Y005600D03*
X005200Y005600D03*
X009900Y009950D03*
X009900Y010650D03*
X014100Y012700D03*
X014850Y012700D03*
X015600Y012700D03*
X016350Y012700D03*
X016350Y013400D03*
X015600Y013400D03*
X014850Y013400D03*
X014100Y013400D03*
X016500Y014100D03*
X017200Y014100D03*
X018000Y014100D03*
X018700Y014100D03*
X018350Y013350D03*
X018350Y012650D03*
X016350Y011700D03*
X015600Y011700D03*
X015600Y011000D03*
X015600Y010400D03*
X016350Y010400D03*
X016350Y011000D03*
X016350Y009700D03*
X015600Y009700D03*
X017600Y014750D03*
X017600Y015450D03*
X017500Y016100D03*
X018200Y016100D03*
X018200Y016800D03*
X017500Y016800D03*
X024950Y013100D03*
X025650Y013100D03*
X025650Y012350D03*
X024950Y012350D03*
X025000Y005600D03*
X025700Y005600D03*
X005200Y013100D03*
X004500Y013100D03*
D11*
X010400Y008600D03*
X011400Y008600D03*
X012400Y008600D03*
X013400Y008600D03*
X014400Y008600D03*
X015400Y008600D03*
X016400Y008600D03*
X017400Y008600D03*
X018400Y008600D03*
X019400Y008600D03*
X020400Y008600D03*
X021400Y008600D03*
X021400Y001600D03*
X020400Y001600D03*
X019400Y001600D03*
X018400Y001600D03*
X017400Y001600D03*
X016400Y001600D03*
X015400Y001600D03*
X014400Y001600D03*
X013400Y001600D03*
X012400Y001600D03*
X011400Y001600D03*
X010400Y001600D03*
D12*
X010800Y009900D03*
X010800Y010700D03*
D13*
X014600Y015303D02*
X014600Y015897D01*
X015600Y015897D02*
X015600Y015303D01*
D14*
X017094Y013385D03*
X017350Y013385D03*
X017606Y013385D03*
X017606Y012715D03*
X017094Y012715D03*
D15*
X015612Y016887D03*
X014588Y016887D03*
D16*
X003600Y013100D03*
X002600Y013100D03*
X002600Y005600D03*
X003600Y005600D03*
X026600Y005600D03*
X027600Y005600D03*
X027600Y013100D03*
X026600Y013100D03*
D17*
X024600Y015100D03*
X028600Y011100D03*
X024600Y007600D03*
X028600Y003600D03*
X005600Y003600D03*
X001600Y007600D03*
X005600Y011100D03*
X001600Y015100D03*
D18*
X023426Y012167D03*
X024174Y012167D03*
X023800Y013033D03*
D19*
X023233Y013033D01*
X022850Y012650D01*
X022850Y004050D01*
X020400Y001600D01*
X021400Y003850D02*
X022350Y004800D01*
X022350Y009300D01*
X021950Y009700D01*
X016350Y009700D01*
X015600Y009700D01*
X015600Y010400D02*
X015100Y010400D01*
X015600Y011000D02*
X016350Y011000D01*
X016350Y010400D01*
X016350Y011700D02*
X016350Y012700D01*
X015600Y012700D01*
X014850Y012700D02*
X014100Y012700D01*
X014100Y013400D02*
X014100Y013900D01*
X014850Y013400D02*
X015600Y013400D01*
X016350Y013400D01*
X016415Y013385D01*
X017094Y013385D01*
X017350Y013385D02*
X017350Y012050D01*
X017094Y012715D02*
X016385Y012715D01*
X016350Y012700D01*
X017606Y013385D02*
X017606Y014056D01*
X017650Y014100D01*
X018000Y014100D01*
X017650Y014100D02*
X017600Y014100D01*
X017200Y014100D01*
X017600Y014100D02*
X017600Y014750D01*
X017600Y015450D02*
X015750Y015450D01*
X015600Y015600D01*
X015600Y016887D01*
X015612Y016887D01*
X015699Y016800D01*
X017500Y016800D01*
X017500Y016100D02*
X016850Y016100D01*
X016500Y014100D02*
X015850Y014100D01*
X018350Y013350D02*
X018900Y013350D01*
X015600Y011700D02*
X015100Y011700D01*
X015400Y008600D02*
X010900Y013100D01*
X005200Y013100D01*
X004500Y013100D02*
X003600Y013100D01*
X009900Y010650D02*
X010230Y010650D01*
X010280Y010700D01*
X010800Y010700D01*
X010800Y011400D01*
X014400Y008600D02*
X011400Y005600D01*
X005200Y005600D01*
X004500Y005600D02*
X003600Y005600D01*
X023426Y011724D02*
X023550Y011600D01*
X025400Y011600D01*
X025650Y011850D01*
X025650Y012350D01*
X026550Y012350D01*
X026600Y013100D02*
X025650Y013100D01*
X024950Y013100D02*
X024450Y013100D01*
X024383Y013033D01*
X023800Y013033D01*
X024950Y013100D02*
X024950Y012350D01*
X023426Y012167D02*
X023426Y011724D01*
X024350Y005600D02*
X025000Y005600D01*
X025700Y005600D02*
X026600Y005600D01*
D20*
X024350Y005600D03*
X021400Y003850D03*
X015100Y010400D03*
X015100Y011700D03*
X017350Y012050D03*
X018900Y013350D03*
X015850Y014100D03*
X014100Y013900D03*
X016850Y016100D03*
X010800Y011400D03*
X026550Y012350D03*
D21*
X002260Y002166D02*
X002260Y000350D01*
X027940Y000350D01*
X027940Y002166D01*
X028034Y002260D01*
X029850Y002260D01*
X029850Y016440D01*
X028034Y016440D01*
X027940Y016534D01*
X027940Y017850D01*
X002260Y017850D01*
X002260Y016666D01*
X002260Y016534D01*
X002166Y016440D01*
X000350Y016440D01*
X000350Y002260D01*
X002166Y002260D01*
X002260Y002166D01*
X002260Y002115D02*
X020618Y002115D01*
X020573Y002070D02*
X020499Y002100D01*
X020301Y002100D01*
X020117Y002024D01*
X019976Y001883D01*
X019900Y001699D01*
X019900Y001501D01*
X019976Y001317D01*
X020117Y001176D01*
X020301Y001100D01*
X020499Y001100D01*
X020683Y001176D01*
X020824Y001317D01*
X020900Y001501D01*
X020976Y001317D01*
X021117Y001176D01*
X021301Y001100D01*
X021499Y001100D01*
X021683Y001176D01*
X021824Y001317D01*
X021900Y001501D01*
X021900Y001699D01*
X021824Y001883D01*
X021683Y002024D01*
X021499Y002100D01*
X021301Y002100D01*
X021124Y002027D01*
X023060Y003963D01*
X023060Y012563D01*
X023320Y012823D01*
X023473Y012823D01*
X023473Y012704D01*
X023549Y012627D01*
X024051Y012627D01*
X024127Y012704D01*
X024127Y012823D01*
X024470Y012823D01*
X024537Y012890D01*
X024620Y012890D01*
X024620Y012846D01*
X024696Y012770D01*
X024740Y012770D01*
X024740Y012680D01*
X024696Y012680D01*
X024620Y012604D01*
X024620Y012096D01*
X024696Y012020D01*
X025204Y012020D01*
X025280Y012096D01*
X025280Y012604D01*
X025204Y012680D01*
X025160Y012680D01*
X025160Y012770D01*
X025204Y012770D01*
X025280Y012846D01*
X025280Y013354D01*
X025204Y013430D01*
X024696Y013430D01*
X024620Y013354D01*
X024620Y013310D01*
X024363Y013310D01*
X024296Y013243D01*
X024127Y013243D01*
X024127Y013363D01*
X024051Y013439D01*
X023549Y013439D01*
X023473Y013363D01*
X023473Y013243D01*
X023146Y013243D01*
X022640Y012737D01*
X022640Y004137D01*
X020573Y002070D01*
X020736Y002233D02*
X002193Y002233D01*
X002260Y001996D02*
X010089Y001996D01*
X010117Y002024D02*
X009976Y001883D01*
X009900Y001699D01*
X009900Y001501D01*
X009976Y001317D01*
X010117Y001176D01*
X010301Y001100D01*
X010499Y001100D01*
X010683Y001176D01*
X010824Y001317D01*
X010900Y001501D01*
X010900Y001699D01*
X010824Y001883D01*
X010683Y002024D01*
X010499Y002100D01*
X010301Y002100D01*
X010117Y002024D01*
X009974Y001878D02*
X002260Y001878D01*
X002260Y001759D02*
X009925Y001759D01*
X009900Y001641D02*
X002260Y001641D01*
X002260Y001522D02*
X009900Y001522D01*
X009940Y001404D02*
X002260Y001404D01*
X002260Y001285D02*
X010008Y001285D01*
X010140Y001167D02*
X002260Y001167D01*
X002260Y001048D02*
X027940Y001048D01*
X027940Y000930D02*
X002260Y000930D01*
X002260Y000811D02*
X027940Y000811D01*
X027940Y000693D02*
X002260Y000693D01*
X002260Y000574D02*
X027940Y000574D01*
X027940Y000456D02*
X002260Y000456D01*
X000350Y002352D02*
X020855Y002352D01*
X020973Y002470D02*
X000350Y002470D01*
X000350Y002589D02*
X021092Y002589D01*
X021210Y002707D02*
X000350Y002707D01*
X000350Y002826D02*
X021329Y002826D01*
X021447Y002944D02*
X006010Y002944D01*
X006032Y002953D02*
X006247Y003168D01*
X006363Y003448D01*
X006363Y003752D01*
X006247Y004032D01*
X006032Y004247D01*
X005752Y004363D01*
X005448Y004363D01*
X005168Y004247D01*
X004953Y004032D01*
X004837Y003752D01*
X004837Y003448D01*
X004953Y003168D01*
X005168Y002953D01*
X005448Y002837D01*
X005752Y002837D01*
X006032Y002953D01*
X006142Y003063D02*
X021566Y003063D01*
X021684Y003181D02*
X006252Y003181D01*
X006301Y003300D02*
X021803Y003300D01*
X021921Y003418D02*
X006351Y003418D01*
X006363Y003537D02*
X021299Y003537D01*
X021335Y003522D02*
X021465Y003522D01*
X021586Y003572D01*
X021678Y003664D01*
X021728Y003785D01*
X021728Y003881D01*
X022560Y004713D01*
X022560Y009387D01*
X022437Y009510D01*
X022037Y009910D01*
X016680Y009910D01*
X016680Y009954D01*
X016604Y010030D01*
X016096Y010030D01*
X016020Y009954D01*
X016020Y009910D01*
X015930Y009910D01*
X015930Y009954D01*
X015854Y010030D01*
X015346Y010030D01*
X015270Y009954D01*
X015270Y009446D01*
X015346Y009370D01*
X015854Y009370D01*
X015930Y009446D01*
X015930Y009490D01*
X016020Y009490D01*
X016020Y009446D01*
X016096Y009370D01*
X016604Y009370D01*
X016680Y009446D01*
X016680Y009490D01*
X021863Y009490D01*
X022140Y009213D01*
X022140Y004887D01*
X021431Y004178D01*
X021335Y004178D01*
X021214Y004128D01*
X021122Y004036D01*
X021072Y003915D01*
X021072Y003785D01*
X021122Y003664D01*
X021214Y003572D01*
X021335Y003522D01*
X021501Y003537D02*
X022040Y003537D01*
X022158Y003655D02*
X021669Y003655D01*
X021723Y003774D02*
X022277Y003774D01*
X022395Y003892D02*
X021739Y003892D01*
X021857Y004011D02*
X022514Y004011D01*
X022632Y004129D02*
X021976Y004129D01*
X022094Y004248D02*
X022640Y004248D01*
X022640Y004366D02*
X022213Y004366D01*
X022331Y004485D02*
X022640Y004485D01*
X022640Y004603D02*
X022450Y004603D01*
X022560Y004722D02*
X022640Y004722D01*
X022640Y004840D02*
X022560Y004840D01*
X022560Y004959D02*
X022640Y004959D01*
X022640Y005077D02*
X022560Y005077D01*
X022560Y005196D02*
X022640Y005196D01*
X022640Y005314D02*
X022560Y005314D01*
X022560Y005433D02*
X022640Y005433D01*
X022640Y005551D02*
X022560Y005551D01*
X022560Y005670D02*
X022640Y005670D01*
X022640Y005788D02*
X022560Y005788D01*
X022560Y005907D02*
X022640Y005907D01*
X022640Y006025D02*
X022560Y006025D01*
X022560Y006144D02*
X022640Y006144D01*
X022640Y006262D02*
X022560Y006262D01*
X022560Y006381D02*
X022640Y006381D01*
X022640Y006499D02*
X022560Y006499D01*
X022560Y006618D02*
X022640Y006618D01*
X022640Y006736D02*
X022560Y006736D01*
X022560Y006855D02*
X022640Y006855D01*
X022640Y006973D02*
X022560Y006973D01*
X022560Y007092D02*
X022640Y007092D01*
X022640Y007210D02*
X022560Y007210D01*
X022560Y007329D02*
X022640Y007329D01*
X022640Y007447D02*
X022560Y007447D01*
X022560Y007566D02*
X022640Y007566D01*
X022640Y007684D02*
X022560Y007684D01*
X022560Y007803D02*
X022640Y007803D01*
X022640Y007921D02*
X022560Y007921D01*
X022560Y008040D02*
X022640Y008040D01*
X022640Y008158D02*
X022560Y008158D01*
X022560Y008277D02*
X022640Y008277D01*
X022640Y008395D02*
X022560Y008395D01*
X022560Y008514D02*
X022640Y008514D01*
X022640Y008632D02*
X022560Y008632D01*
X022560Y008751D02*
X022640Y008751D01*
X022640Y008869D02*
X022560Y008869D01*
X022560Y008988D02*
X022640Y008988D01*
X022640Y009106D02*
X022560Y009106D01*
X022560Y009225D02*
X022640Y009225D01*
X022640Y009343D02*
X022560Y009343D01*
X022485Y009462D02*
X022640Y009462D01*
X022640Y009580D02*
X022367Y009580D01*
X022248Y009699D02*
X022640Y009699D01*
X022640Y009817D02*
X022130Y009817D01*
X022640Y009936D02*
X016680Y009936D01*
X016604Y010070D02*
X016680Y010146D01*
X016680Y010654D01*
X016634Y010700D01*
X016680Y010746D01*
X016680Y011254D01*
X016604Y011330D01*
X016096Y011330D01*
X016020Y011254D01*
X016020Y011210D01*
X015930Y011210D01*
X015930Y011254D01*
X015854Y011330D01*
X015346Y011330D01*
X015270Y011254D01*
X015270Y010746D01*
X015316Y010700D01*
X015290Y010674D01*
X015286Y010678D01*
X015165Y010728D01*
X015035Y010728D01*
X014914Y010678D01*
X014822Y010586D01*
X014772Y010465D01*
X014772Y010335D01*
X014822Y010214D01*
X014914Y010122D01*
X015035Y010072D01*
X015165Y010072D01*
X015286Y010122D01*
X015290Y010126D01*
X015346Y010070D01*
X015854Y010070D01*
X015930Y010146D01*
X015930Y010654D01*
X015884Y010700D01*
X015930Y010746D01*
X015930Y010790D01*
X016020Y010790D01*
X016020Y010746D01*
X016066Y010700D01*
X016020Y010654D01*
X016020Y010146D01*
X016096Y010070D01*
X016604Y010070D01*
X016680Y010173D02*
X022640Y010173D01*
X022640Y010291D02*
X016680Y010291D01*
X016680Y010410D02*
X022640Y010410D01*
X022640Y010528D02*
X016680Y010528D01*
X016680Y010647D02*
X022640Y010647D01*
X022640Y010765D02*
X016680Y010765D01*
X016680Y010884D02*
X022640Y010884D01*
X022640Y011002D02*
X016680Y011002D01*
X016680Y011121D02*
X022640Y011121D01*
X022640Y011239D02*
X016680Y011239D01*
X016604Y011370D02*
X016680Y011446D01*
X016680Y011954D01*
X016604Y012030D01*
X016560Y012030D01*
X016560Y012370D01*
X016604Y012370D01*
X016680Y012446D01*
X016680Y012505D01*
X016895Y012505D01*
X016895Y012435D01*
X016971Y012359D01*
X017140Y012359D01*
X017140Y012304D01*
X017072Y012236D01*
X017022Y012115D01*
X017022Y011985D01*
X017072Y011864D01*
X017164Y011772D01*
X017285Y011722D01*
X017415Y011722D01*
X017536Y011772D01*
X017628Y011864D01*
X017678Y011985D01*
X017678Y012115D01*
X017628Y012236D01*
X017560Y012304D01*
X017560Y012329D01*
X017606Y012329D01*
X017696Y012329D01*
X017737Y012340D01*
X017773Y012361D01*
X017803Y012391D01*
X017824Y012427D01*
X017835Y012468D01*
X017835Y012715D01*
X017606Y012715D01*
X017606Y012329D01*
X017606Y012715D01*
X017606Y012715D01*
X017606Y012715D01*
X017835Y012715D01*
X017835Y012963D01*
X017824Y013003D01*
X017803Y013040D01*
X017773Y013070D01*
X017771Y013071D01*
X017805Y013104D01*
X017805Y013287D01*
X017816Y013298D01*
X017816Y013770D01*
X018254Y013770D01*
X018330Y013846D01*
X018349Y013846D01*
X018351Y013838D02*
X018372Y013802D01*
X018402Y013772D01*
X018438Y013751D01*
X018479Y013740D01*
X018660Y013740D01*
X018660Y014060D01*
X018740Y014060D01*
X018740Y014140D01*
X019060Y014140D01*
X019060Y014321D01*
X019049Y014362D01*
X019028Y014398D01*
X018998Y014428D01*
X018962Y014449D01*
X018921Y014460D01*
X018740Y014460D01*
X018740Y014140D01*
X018660Y014140D01*
X018660Y014460D01*
X018479Y014460D01*
X018438Y014449D01*
X018402Y014428D01*
X018372Y014398D01*
X018351Y014362D01*
X018340Y014321D01*
X018340Y014140D01*
X018660Y014140D01*
X018660Y014060D01*
X018340Y014060D01*
X018340Y013879D01*
X018351Y013838D01*
X018330Y013846D02*
X018330Y014354D01*
X018254Y014430D01*
X017864Y014430D01*
X017930Y014496D01*
X017930Y015004D01*
X017854Y015080D01*
X017346Y015080D01*
X017270Y015004D01*
X017270Y014496D01*
X017336Y014430D01*
X016946Y014430D01*
X016870Y014354D01*
X016870Y013846D01*
X016830Y013846D01*
X016754Y013770D01*
X016246Y013770D01*
X016170Y013846D01*
X016060Y013846D01*
X016036Y013822D02*
X016104Y013890D01*
X016170Y013890D01*
X016170Y013846D01*
X016036Y013822D02*
X015915Y013772D01*
X015785Y013772D01*
X015664Y013822D01*
X015572Y013914D01*
X015522Y014035D01*
X015522Y014165D01*
X015572Y014286D01*
X015664Y014378D01*
X015785Y014428D01*
X015915Y014428D01*
X016036Y014378D01*
X016104Y014310D01*
X016170Y014310D01*
X016170Y014354D01*
X016246Y014430D01*
X016754Y014430D01*
X016830Y014354D01*
X016830Y013846D01*
X016870Y013846D02*
X016946Y013770D01*
X017396Y013770D01*
X017396Y013741D01*
X017227Y013741D01*
X017222Y013736D01*
X017217Y013741D01*
X016971Y013741D01*
X016895Y013665D01*
X016895Y013595D01*
X016680Y013595D01*
X016680Y013654D01*
X016604Y013730D01*
X016096Y013730D01*
X016020Y013654D01*
X016020Y013610D01*
X015930Y013610D01*
X015930Y013654D01*
X015854Y013730D01*
X015346Y013730D01*
X015270Y013654D01*
X015270Y013610D01*
X015180Y013610D01*
X015180Y013654D01*
X015104Y013730D01*
X014596Y013730D01*
X014520Y013654D01*
X014520Y013146D01*
X014596Y013070D01*
X015104Y013070D01*
X015180Y013146D01*
X015180Y013190D01*
X015270Y013190D01*
X015270Y013146D01*
X015346Y013070D01*
X015854Y013070D01*
X015930Y013146D01*
X015930Y013190D01*
X016020Y013190D01*
X016020Y013146D01*
X016096Y013070D01*
X016604Y013070D01*
X016680Y013146D01*
X016680Y013175D01*
X016895Y013175D01*
X016895Y013104D01*
X016950Y013050D01*
X016895Y012996D01*
X016895Y012925D01*
X016680Y012925D01*
X016680Y012954D01*
X016604Y013030D01*
X016096Y013030D01*
X016020Y012954D01*
X016020Y012910D01*
X015930Y012910D01*
X015930Y012954D01*
X015854Y013030D01*
X015346Y013030D01*
X015270Y012954D01*
X015270Y012446D01*
X015346Y012370D01*
X015854Y012370D01*
X015930Y012446D01*
X015930Y012490D01*
X016020Y012490D01*
X016020Y012446D01*
X016096Y012370D01*
X016140Y012370D01*
X016140Y012030D01*
X016096Y012030D01*
X016020Y011954D01*
X016020Y011446D01*
X016096Y011370D01*
X016604Y011370D01*
X016680Y011476D02*
X022640Y011476D01*
X022640Y011358D02*
X012939Y011358D01*
X012821Y011476D02*
X014860Y011476D01*
X014822Y011514D02*
X014914Y011422D01*
X015035Y011372D01*
X015165Y011372D01*
X015286Y011422D01*
X015290Y011426D01*
X015346Y011370D01*
X015854Y011370D01*
X015930Y011446D01*
X015930Y011954D01*
X015854Y012030D01*
X015346Y012030D01*
X015290Y011974D01*
X015286Y011978D01*
X015165Y012028D01*
X015035Y012028D01*
X014914Y011978D01*
X014822Y011886D01*
X014772Y011765D01*
X014772Y011635D01*
X014822Y011514D01*
X014789Y011595D02*
X012702Y011595D01*
X012584Y011713D02*
X014772Y011713D01*
X014799Y011832D02*
X012465Y011832D01*
X012347Y011950D02*
X014886Y011950D01*
X015104Y012370D02*
X014596Y012370D01*
X014520Y012446D01*
X014520Y012490D01*
X014430Y012490D01*
X014430Y012446D01*
X014354Y012370D01*
X013846Y012370D01*
X013770Y012446D01*
X013770Y012954D01*
X013846Y013030D01*
X014354Y013030D01*
X014430Y012954D01*
X014430Y012910D01*
X014520Y012910D01*
X014520Y012954D01*
X014596Y013030D01*
X015104Y013030D01*
X015180Y012954D01*
X015180Y012446D01*
X015104Y012370D01*
X015158Y012424D02*
X015292Y012424D01*
X015270Y012543D02*
X015180Y012543D01*
X015180Y012661D02*
X015270Y012661D01*
X015270Y012780D02*
X015180Y012780D01*
X015180Y012898D02*
X015270Y012898D01*
X015333Y013017D02*
X015117Y013017D01*
X015169Y013135D02*
X015281Y013135D01*
X015867Y013017D02*
X016083Y013017D01*
X016031Y013135D02*
X015919Y013135D01*
X015856Y013728D02*
X016094Y013728D01*
X016606Y013728D02*
X016958Y013728D01*
X016895Y013609D02*
X016680Y013609D01*
X016830Y013965D02*
X016870Y013965D01*
X016870Y014083D02*
X016830Y014083D01*
X016830Y014202D02*
X016870Y014202D01*
X016870Y014320D02*
X016830Y014320D01*
X017270Y014557D02*
X002136Y014557D01*
X002032Y014453D02*
X002247Y014668D01*
X002363Y014948D01*
X002363Y015252D01*
X002247Y015532D01*
X002032Y015747D01*
X001752Y015863D01*
X001448Y015863D01*
X001168Y015747D01*
X000953Y015532D01*
X000837Y015252D01*
X000837Y014948D01*
X000953Y014668D01*
X001168Y014453D01*
X001448Y014337D01*
X001752Y014337D01*
X002032Y014453D01*
X001997Y014439D02*
X017328Y014439D01*
X017270Y014676D02*
X002250Y014676D01*
X002299Y014794D02*
X017270Y014794D01*
X017270Y014913D02*
X015772Y014913D01*
X015842Y014941D02*
X015962Y015061D01*
X016027Y015218D01*
X016027Y015240D01*
X017270Y015240D01*
X017270Y015196D01*
X017346Y015120D01*
X017854Y015120D01*
X017930Y015196D01*
X017930Y015704D01*
X017854Y015780D01*
X017764Y015780D01*
X017830Y015846D01*
X017830Y016354D01*
X017754Y016430D01*
X017246Y016430D01*
X017170Y016354D01*
X017170Y016310D01*
X017104Y016310D01*
X017036Y016378D01*
X016915Y016428D01*
X016785Y016428D01*
X016664Y016378D01*
X016572Y016286D01*
X016522Y016165D01*
X016522Y016035D01*
X016572Y015914D01*
X016664Y015822D01*
X016785Y015772D01*
X016915Y015772D01*
X017036Y015822D01*
X017104Y015890D01*
X017170Y015890D01*
X017170Y015846D01*
X017246Y015770D01*
X017336Y015770D01*
X017270Y015704D01*
X017270Y015660D01*
X016027Y015660D01*
X016027Y015982D01*
X015962Y016139D01*
X015842Y016259D01*
X015810Y016272D01*
X015810Y016450D01*
X015884Y016480D01*
X015993Y016590D01*
X017170Y016590D01*
X017170Y016546D01*
X017246Y016470D01*
X017754Y016470D01*
X017830Y016546D01*
X017830Y017054D01*
X017754Y017130D01*
X017246Y017130D01*
X017170Y017054D01*
X017170Y017010D01*
X016081Y017010D01*
X016019Y017159D01*
X015884Y017294D01*
X015707Y017367D01*
X015516Y017367D01*
X015340Y017294D01*
X015205Y017159D01*
X015132Y016983D01*
X015132Y016792D01*
X015205Y016616D01*
X015340Y016480D01*
X015390Y016460D01*
X015390Y016272D01*
X015358Y016259D01*
X015238Y016139D01*
X015173Y015982D01*
X015173Y015218D01*
X015238Y015061D01*
X015358Y014941D01*
X015515Y014876D01*
X015685Y014876D01*
X015842Y014941D01*
X015932Y015031D02*
X017297Y015031D01*
X017317Y015150D02*
X015998Y015150D01*
X015428Y014913D02*
X014772Y014913D01*
X014842Y014941D02*
X014685Y014876D01*
X014515Y014876D01*
X014358Y014941D01*
X014238Y015061D01*
X014173Y015218D01*
X014173Y015982D01*
X014238Y016139D01*
X014358Y016259D01*
X014515Y016324D01*
X014685Y016324D01*
X014842Y016259D01*
X014962Y016139D01*
X015027Y015982D01*
X015027Y015218D01*
X014962Y015061D01*
X014842Y014941D01*
X014932Y015031D02*
X015268Y015031D01*
X015202Y015150D02*
X014998Y015150D01*
X015027Y015268D02*
X015173Y015268D01*
X015173Y015387D02*
X015027Y015387D01*
X015027Y015505D02*
X015173Y015505D01*
X015173Y015624D02*
X015027Y015624D01*
X015027Y015742D02*
X015173Y015742D01*
X015173Y015861D02*
X015027Y015861D01*
X015027Y015979D02*
X015173Y015979D01*
X015221Y016098D02*
X014979Y016098D01*
X014884Y016216D02*
X015316Y016216D01*
X015390Y016335D02*
X000350Y016335D01*
X000350Y016216D02*
X014316Y016216D01*
X014221Y016098D02*
X000350Y016098D01*
X000350Y015979D02*
X014173Y015979D01*
X014173Y015861D02*
X001758Y015861D01*
X002037Y015742D02*
X014173Y015742D01*
X014173Y015624D02*
X002156Y015624D01*
X002258Y015505D02*
X014173Y015505D01*
X014173Y015387D02*
X002307Y015387D01*
X002356Y015268D02*
X014173Y015268D01*
X014202Y015150D02*
X002363Y015150D01*
X002363Y015031D02*
X014268Y015031D01*
X014428Y014913D02*
X002348Y014913D01*
X001203Y014439D02*
X000350Y014439D01*
X000350Y014557D02*
X001064Y014557D01*
X000950Y014676D02*
X000350Y014676D01*
X000350Y014794D02*
X000901Y014794D01*
X000852Y014913D02*
X000350Y014913D01*
X000350Y015031D02*
X000837Y015031D01*
X000837Y015150D02*
X000350Y015150D01*
X000350Y015268D02*
X000844Y015268D01*
X000893Y015387D02*
X000350Y015387D01*
X000350Y015505D02*
X000942Y015505D01*
X001044Y015624D02*
X000350Y015624D01*
X000350Y015742D02*
X001163Y015742D01*
X001442Y015861D02*
X000350Y015861D01*
X002179Y016453D02*
X014383Y016453D01*
X014316Y016480D02*
X014493Y016407D01*
X014684Y016407D01*
X014860Y016480D01*
X014995Y016616D01*
X015068Y016792D01*
X015068Y016983D01*
X014995Y017159D01*
X014860Y017294D01*
X014684Y017367D01*
X014493Y017367D01*
X014316Y017294D01*
X014181Y017159D01*
X014108Y016983D01*
X014108Y016792D01*
X014181Y016616D01*
X014316Y016480D01*
X014225Y016572D02*
X002260Y016572D01*
X002260Y016690D02*
X014150Y016690D01*
X014108Y016809D02*
X002260Y016809D01*
X002260Y016927D02*
X014108Y016927D01*
X014134Y017046D02*
X002260Y017046D01*
X002260Y017164D02*
X014186Y017164D01*
X014305Y017283D02*
X002260Y017283D01*
X002260Y017401D02*
X027940Y017401D01*
X027940Y017283D02*
X015895Y017283D01*
X016014Y017164D02*
X027940Y017164D01*
X027940Y017046D02*
X018553Y017046D01*
X018549Y017062D02*
X018528Y017098D01*
X018498Y017128D01*
X018462Y017149D01*
X018421Y017160D01*
X018240Y017160D01*
X018240Y016840D01*
X018160Y016840D01*
X018160Y017160D01*
X017979Y017160D01*
X017938Y017149D01*
X017902Y017128D01*
X017872Y017098D01*
X017851Y017062D01*
X017840Y017021D01*
X017840Y016840D01*
X018160Y016840D01*
X018160Y016760D01*
X017840Y016760D01*
X017840Y016579D01*
X017851Y016538D01*
X017872Y016502D01*
X017902Y016472D01*
X017938Y016451D01*
X017942Y016450D01*
X017938Y016449D01*
X017902Y016428D01*
X017872Y016398D01*
X017851Y016362D01*
X017840Y016321D01*
X017840Y016140D01*
X018160Y016140D01*
X018160Y016460D01*
X018160Y016760D01*
X018240Y016760D01*
X018240Y016840D01*
X018560Y016840D01*
X018560Y017021D01*
X018549Y017062D01*
X018560Y016927D02*
X027940Y016927D01*
X027940Y016809D02*
X018240Y016809D01*
X018240Y016760D02*
X018560Y016760D01*
X018560Y016579D01*
X018549Y016538D01*
X018528Y016502D01*
X018498Y016472D01*
X018462Y016451D01*
X018458Y016450D01*
X018462Y016449D01*
X018498Y016428D01*
X018528Y016398D01*
X018549Y016362D01*
X018560Y016321D01*
X018560Y016140D01*
X018240Y016140D01*
X018240Y016060D01*
X018560Y016060D01*
X018560Y015879D01*
X018549Y015838D01*
X018528Y015802D01*
X018498Y015772D01*
X018462Y015751D01*
X018421Y015740D01*
X018240Y015740D01*
X018240Y016060D01*
X018160Y016060D01*
X017840Y016060D01*
X017840Y015879D01*
X017851Y015838D01*
X017872Y015802D01*
X017902Y015772D01*
X017938Y015751D01*
X017979Y015740D01*
X018160Y015740D01*
X018160Y016060D01*
X018160Y016140D01*
X018240Y016140D01*
X018240Y016760D01*
X018240Y016690D02*
X018160Y016690D01*
X018160Y016572D02*
X018240Y016572D01*
X018240Y016453D02*
X018160Y016453D01*
X018160Y016335D02*
X018240Y016335D01*
X018240Y016216D02*
X018160Y016216D01*
X018160Y016098D02*
X017830Y016098D01*
X017830Y016216D02*
X017840Y016216D01*
X017830Y016335D02*
X017844Y016335D01*
X017935Y016453D02*
X015817Y016453D01*
X015810Y016335D02*
X016621Y016335D01*
X016543Y016216D02*
X015884Y016216D01*
X015979Y016098D02*
X016522Y016098D01*
X016545Y015979D02*
X016027Y015979D01*
X016027Y015861D02*
X016625Y015861D01*
X017075Y015861D02*
X017170Y015861D01*
X017308Y015742D02*
X016027Y015742D01*
X017079Y016335D02*
X017170Y016335D01*
X017170Y016572D02*
X015975Y016572D01*
X016066Y017046D02*
X017170Y017046D01*
X017830Y017046D02*
X017847Y017046D01*
X017840Y016927D02*
X017830Y016927D01*
X017830Y016809D02*
X018160Y016809D01*
X018160Y016927D02*
X018240Y016927D01*
X018240Y017046D02*
X018160Y017046D01*
X017840Y016690D02*
X017830Y016690D01*
X017830Y016572D02*
X017842Y016572D01*
X018465Y016453D02*
X028021Y016453D01*
X027940Y016572D02*
X018558Y016572D01*
X018560Y016690D02*
X027940Y016690D01*
X027940Y017520D02*
X002260Y017520D01*
X002260Y017638D02*
X027940Y017638D01*
X027940Y017757D02*
X002260Y017757D01*
X000350Y014320D02*
X015606Y014320D01*
X015537Y014202D02*
X014229Y014202D01*
X014286Y014178D02*
X014165Y014228D01*
X014035Y014228D01*
X013914Y014178D01*
X013822Y014086D01*
X013772Y013965D01*
X013772Y013835D01*
X013822Y013714D01*
X013826Y013710D01*
X013770Y013654D01*
X013770Y013146D01*
X013846Y013070D01*
X014354Y013070D01*
X014430Y013146D01*
X014430Y013654D01*
X014374Y013710D01*
X014378Y013714D01*
X014428Y013835D01*
X014428Y013965D01*
X014378Y014086D01*
X014286Y014178D01*
X014379Y014083D02*
X015522Y014083D01*
X015551Y013965D02*
X014428Y013965D01*
X014428Y013846D02*
X015640Y013846D01*
X015344Y013728D02*
X015106Y013728D01*
X014594Y013728D02*
X014384Y013728D01*
X014430Y013609D02*
X014520Y013609D01*
X014520Y013491D02*
X014430Y013491D01*
X014430Y013372D02*
X014520Y013372D01*
X014520Y013254D02*
X014430Y013254D01*
X014419Y013135D02*
X014531Y013135D01*
X014583Y013017D02*
X014367Y013017D01*
X013833Y013017D02*
X011280Y013017D01*
X011162Y013135D02*
X013781Y013135D01*
X013770Y013254D02*
X011043Y013254D01*
X010987Y013310D02*
X005530Y013310D01*
X005530Y013354D01*
X005454Y013430D01*
X004946Y013430D01*
X004870Y013354D01*
X004870Y012846D01*
X004946Y012770D01*
X005454Y012770D01*
X005530Y012846D01*
X005530Y012890D01*
X010813Y012890D01*
X014676Y009027D01*
X014499Y009100D01*
X014301Y009100D01*
X014117Y009024D01*
X013976Y008883D01*
X013900Y008699D01*
X013824Y008883D01*
X013683Y009024D01*
X013499Y009100D01*
X013301Y009100D01*
X013117Y009024D01*
X012976Y008883D01*
X012900Y008699D01*
X012900Y008501D01*
X012976Y008317D01*
X013117Y008176D01*
X013301Y008100D01*
X013499Y008100D01*
X013676Y008173D01*
X011313Y005810D01*
X005530Y005810D01*
X005530Y005854D01*
X005454Y005930D01*
X004946Y005930D01*
X004870Y005854D01*
X004870Y005346D01*
X004946Y005270D01*
X005454Y005270D01*
X005530Y005346D01*
X005530Y005390D01*
X011487Y005390D01*
X014227Y008130D01*
X014301Y008100D01*
X014499Y008100D01*
X014683Y008176D01*
X014824Y008317D01*
X014900Y008501D01*
X014976Y008317D01*
X015117Y008176D01*
X015301Y008100D01*
X015499Y008100D01*
X015683Y008176D01*
X015824Y008317D01*
X015900Y008501D01*
X015976Y008317D01*
X016117Y008176D01*
X016301Y008100D01*
X016499Y008100D01*
X016683Y008176D01*
X016824Y008317D01*
X016900Y008501D01*
X016976Y008317D01*
X017117Y008176D01*
X017301Y008100D01*
X017499Y008100D01*
X017683Y008176D01*
X017824Y008317D01*
X017900Y008501D01*
X017976Y008317D01*
X018117Y008176D01*
X018301Y008100D01*
X018499Y008100D01*
X018683Y008176D01*
X018824Y008317D01*
X018900Y008501D01*
X018976Y008317D01*
X019117Y008176D01*
X019301Y008100D01*
X019499Y008100D01*
X019683Y008176D01*
X019824Y008317D01*
X019900Y008501D01*
X019976Y008317D01*
X020117Y008176D01*
X020301Y008100D01*
X020499Y008100D01*
X020683Y008176D01*
X020824Y008317D01*
X020900Y008501D01*
X020976Y008317D01*
X021117Y008176D01*
X021301Y008100D01*
X021499Y008100D01*
X021683Y008176D01*
X021824Y008317D01*
X021900Y008501D01*
X021900Y008699D01*
X021824Y008883D01*
X021683Y009024D01*
X021499Y009100D01*
X021301Y009100D01*
X021117Y009024D01*
X020976Y008883D01*
X020900Y008699D01*
X020900Y008501D01*
X020900Y008699D01*
X020824Y008883D01*
X020683Y009024D01*
X020499Y009100D01*
X020301Y009100D01*
X020117Y009024D01*
X019976Y008883D01*
X019900Y008699D01*
X019900Y008501D01*
X019900Y008699D01*
X019824Y008883D01*
X019683Y009024D01*
X019499Y009100D01*
X019301Y009100D01*
X019117Y009024D01*
X018976Y008883D01*
X018900Y008699D01*
X018900Y008501D01*
X018900Y008699D01*
X018824Y008883D01*
X018683Y009024D01*
X018499Y009100D01*
X018301Y009100D01*
X018117Y009024D01*
X017976Y008883D01*
X017900Y008699D01*
X017900Y008501D01*
X017900Y008699D01*
X017824Y008883D01*
X017683Y009024D01*
X017499Y009100D01*
X017301Y009100D01*
X017117Y009024D01*
X016976Y008883D01*
X016900Y008699D01*
X016900Y008501D01*
X016900Y008699D01*
X016824Y008883D01*
X016683Y009024D01*
X016499Y009100D01*
X016301Y009100D01*
X016117Y009024D01*
X015976Y008883D01*
X015900Y008699D01*
X015900Y008501D01*
X015900Y008699D01*
X015824Y008883D01*
X015683Y009024D01*
X015499Y009100D01*
X015301Y009100D01*
X015227Y009070D01*
X010987Y013310D01*
X010923Y012780D02*
X005463Y012780D01*
X004937Y012780D02*
X004763Y012780D01*
X004754Y012770D02*
X004830Y012846D01*
X004830Y013354D01*
X004754Y013430D01*
X004246Y013430D01*
X004170Y013354D01*
X004170Y013310D01*
X003954Y013310D01*
X003945Y013331D01*
X003831Y013445D01*
X003681Y013507D01*
X003519Y013507D01*
X003369Y013445D01*
X003255Y013331D01*
X003193Y013181D01*
X003193Y013019D01*
X003255Y012869D01*
X003369Y012755D01*
X003519Y012693D01*
X003681Y012693D01*
X003831Y012755D01*
X003945Y012869D01*
X003954Y012890D01*
X004170Y012890D01*
X004170Y012846D01*
X004246Y012770D01*
X004754Y012770D01*
X004830Y012898D02*
X004870Y012898D01*
X004870Y013017D02*
X004830Y013017D01*
X004830Y013135D02*
X004870Y013135D01*
X004870Y013254D02*
X004830Y013254D01*
X004812Y013372D02*
X004888Y013372D01*
X005512Y013372D02*
X013770Y013372D01*
X013770Y013491D02*
X003721Y013491D01*
X003904Y013372D02*
X004188Y013372D01*
X003479Y013491D02*
X002721Y013491D01*
X002681Y013507D02*
X002831Y013445D01*
X002945Y013331D01*
X003007Y013181D01*
X003007Y013019D01*
X002945Y012869D01*
X002831Y012755D01*
X002681Y012693D01*
X002519Y012693D01*
X002369Y012755D01*
X002255Y012869D01*
X002193Y013019D01*
X002193Y013181D01*
X002255Y013331D01*
X002369Y013445D01*
X002519Y013507D01*
X002681Y013507D01*
X002479Y013491D02*
X000350Y013491D01*
X000350Y013609D02*
X013770Y013609D01*
X013816Y013728D02*
X000350Y013728D01*
X000350Y013846D02*
X013772Y013846D01*
X013772Y013965D02*
X000350Y013965D01*
X000350Y014083D02*
X013821Y014083D01*
X013971Y014202D02*
X000350Y014202D01*
X000350Y013372D02*
X002296Y013372D01*
X002223Y013254D02*
X000350Y013254D01*
X000350Y013135D02*
X002193Y013135D01*
X002194Y013017D02*
X000350Y013017D01*
X000350Y012898D02*
X002243Y012898D01*
X002345Y012780D02*
X000350Y012780D01*
X000350Y012661D02*
X011042Y012661D01*
X011160Y012543D02*
X000350Y012543D01*
X000350Y012424D02*
X011279Y012424D01*
X011397Y012306D02*
X000350Y012306D01*
X000350Y012187D02*
X011516Y012187D01*
X011634Y012069D02*
X000350Y012069D01*
X000350Y011950D02*
X011753Y011950D01*
X011871Y011832D02*
X005828Y011832D01*
X005752Y011863D02*
X005448Y011863D01*
X005168Y011747D01*
X004953Y011532D01*
X004837Y011252D01*
X004837Y010948D01*
X004953Y010668D01*
X005168Y010453D01*
X005448Y010337D01*
X005752Y010337D01*
X006032Y010453D01*
X006247Y010668D01*
X006363Y010948D01*
X006363Y011252D01*
X006247Y011532D01*
X006032Y011747D01*
X005752Y011863D01*
X006066Y011713D02*
X010698Y011713D01*
X010735Y011728D02*
X010614Y011678D01*
X010522Y011586D01*
X010472Y011465D01*
X010472Y011335D01*
X010522Y011214D01*
X010590Y011146D01*
X010590Y011080D01*
X010446Y011080D01*
X010370Y011004D01*
X010370Y010910D01*
X010224Y010910D01*
X010154Y010980D01*
X009646Y010980D01*
X009570Y010904D01*
X009570Y010396D01*
X009646Y010320D01*
X010154Y010320D01*
X010230Y010396D01*
X010230Y010440D01*
X010317Y010440D01*
X010367Y010490D01*
X010370Y010490D01*
X010370Y010396D01*
X010446Y010320D01*
X011154Y010320D01*
X011230Y010396D01*
X011230Y011004D01*
X011154Y011080D01*
X011010Y011080D01*
X011010Y011146D01*
X011078Y011214D01*
X011128Y011335D01*
X011128Y011465D01*
X011078Y011586D01*
X010986Y011678D01*
X010865Y011728D01*
X010735Y011728D01*
X010902Y011713D02*
X011990Y011713D01*
X012108Y011595D02*
X011069Y011595D01*
X011124Y011476D02*
X012227Y011476D01*
X012345Y011358D02*
X011128Y011358D01*
X011088Y011239D02*
X012464Y011239D01*
X012582Y011121D02*
X011010Y011121D01*
X011230Y011002D02*
X012701Y011002D01*
X012819Y010884D02*
X011230Y010884D01*
X011230Y010765D02*
X012938Y010765D01*
X013056Y010647D02*
X011230Y010647D01*
X011230Y010528D02*
X013175Y010528D01*
X013293Y010410D02*
X011230Y010410D01*
X011162Y010299D02*
X011121Y010310D01*
X010860Y010310D01*
X010860Y009960D01*
X010740Y009960D01*
X010740Y010310D01*
X010479Y010310D01*
X010438Y010299D01*
X010402Y010278D01*
X010372Y010248D01*
X010351Y010212D01*
X010340Y010171D01*
X010340Y009960D01*
X010740Y009960D01*
X010740Y009840D01*
X010860Y009840D01*
X010860Y009960D01*
X011260Y009960D01*
X011260Y010171D01*
X011249Y010212D01*
X011228Y010248D01*
X011198Y010278D01*
X011162Y010299D01*
X011176Y010291D02*
X013412Y010291D01*
X013530Y010173D02*
X011260Y010173D01*
X011260Y010054D02*
X013649Y010054D01*
X013767Y009936D02*
X010860Y009936D01*
X010860Y009840D02*
X011260Y009840D01*
X011260Y009629D01*
X011249Y009588D01*
X011228Y009552D01*
X011198Y009522D01*
X011162Y009501D01*
X011121Y009490D01*
X010860Y009490D01*
X010860Y009840D01*
X010860Y009817D02*
X010740Y009817D01*
X010740Y009840D02*
X010740Y009490D01*
X010479Y009490D01*
X010438Y009501D01*
X010402Y009522D01*
X010372Y009552D01*
X010351Y009588D01*
X010340Y009629D01*
X010340Y009840D01*
X010740Y009840D01*
X010740Y009936D02*
X009940Y009936D01*
X009940Y009910D02*
X009940Y009990D01*
X009860Y009990D01*
X009860Y010310D01*
X009679Y010310D01*
X009638Y010299D01*
X009602Y010278D01*
X009572Y010248D01*
X009551Y010212D01*
X009540Y010171D01*
X009540Y009990D01*
X009860Y009990D01*
X009860Y009910D01*
X009940Y009910D01*
X010260Y009910D01*
X010260Y009729D01*
X010249Y009688D01*
X010228Y009652D01*
X010198Y009622D01*
X010162Y009601D01*
X010121Y009590D01*
X009940Y009590D01*
X009940Y009910D01*
X009940Y009990D02*
X010260Y009990D01*
X010260Y010171D01*
X010249Y010212D01*
X010228Y010248D01*
X010198Y010278D01*
X010162Y010299D01*
X010121Y010310D01*
X009940Y010310D01*
X009940Y009990D01*
X009940Y010054D02*
X009860Y010054D01*
X009860Y009936D02*
X000350Y009936D01*
X000350Y010054D02*
X009540Y010054D01*
X009540Y010173D02*
X000350Y010173D01*
X000350Y010291D02*
X009624Y010291D01*
X009570Y010410D02*
X005927Y010410D01*
X006107Y010528D02*
X009570Y010528D01*
X009570Y010647D02*
X006226Y010647D01*
X006287Y010765D02*
X009570Y010765D01*
X009570Y010884D02*
X006336Y010884D01*
X006363Y011002D02*
X010370Y011002D01*
X010590Y011121D02*
X006363Y011121D01*
X006363Y011239D02*
X010512Y011239D01*
X010472Y011358D02*
X006319Y011358D01*
X006270Y011476D02*
X010476Y011476D01*
X010531Y011595D02*
X006185Y011595D01*
X005372Y011832D02*
X000350Y011832D01*
X000350Y011713D02*
X005134Y011713D01*
X005015Y011595D02*
X000350Y011595D01*
X000350Y011476D02*
X004930Y011476D01*
X004881Y011358D02*
X000350Y011358D01*
X000350Y011239D02*
X004837Y011239D01*
X004837Y011121D02*
X000350Y011121D01*
X000350Y011002D02*
X004837Y011002D01*
X004864Y010884D02*
X000350Y010884D01*
X000350Y010765D02*
X004913Y010765D01*
X004974Y010647D02*
X000350Y010647D01*
X000350Y010528D02*
X005093Y010528D01*
X005273Y010410D02*
X000350Y010410D01*
X000350Y009817D02*
X009540Y009817D01*
X009540Y009729D02*
X009551Y009688D01*
X009572Y009652D01*
X009602Y009622D01*
X009638Y009601D01*
X009679Y009590D01*
X009860Y009590D01*
X009860Y009910D01*
X009540Y009910D01*
X009540Y009729D01*
X009548Y009699D02*
X000350Y009699D01*
X000350Y009580D02*
X010356Y009580D01*
X010340Y009699D02*
X010252Y009699D01*
X010260Y009817D02*
X010340Y009817D01*
X010740Y009699D02*
X010860Y009699D01*
X010860Y009580D02*
X010740Y009580D01*
X011244Y009580D02*
X014123Y009580D01*
X014241Y009462D02*
X000350Y009462D01*
X000350Y009343D02*
X014360Y009343D01*
X014478Y009225D02*
X000350Y009225D01*
X000350Y009106D02*
X010242Y009106D01*
X010276Y009117D02*
X010197Y009091D01*
X010122Y009053D01*
X010055Y009004D01*
X009996Y008945D01*
X009947Y008878D01*
X009909Y008803D01*
X009883Y008724D01*
X009870Y008642D01*
X009870Y008640D01*
X010360Y008640D01*
X010360Y009130D01*
X010358Y009130D01*
X010276Y009117D01*
X010360Y009106D02*
X010440Y009106D01*
X010440Y009130D02*
X010440Y008640D01*
X010360Y008640D01*
X010360Y008560D01*
X009870Y008560D01*
X009870Y008558D01*
X009883Y008476D01*
X009909Y008397D01*
X009947Y008322D01*
X009996Y008255D01*
X010055Y008196D01*
X010122Y008147D01*
X010197Y008109D01*
X010276Y008083D01*
X010358Y008070D01*
X010360Y008070D01*
X010360Y008560D01*
X010440Y008560D01*
X010440Y008070D01*
X010442Y008070D01*
X010524Y008083D01*
X010603Y008109D01*
X010678Y008147D01*
X010745Y008196D01*
X010804Y008255D01*
X010853Y008322D01*
X010891Y008397D01*
X010914Y008467D01*
X010976Y008317D01*
X011117Y008176D01*
X011301Y008100D01*
X011499Y008100D01*
X011683Y008176D01*
X011824Y008317D01*
X011900Y008501D01*
X011976Y008317D01*
X012117Y008176D01*
X012301Y008100D01*
X012499Y008100D01*
X012683Y008176D01*
X012824Y008317D01*
X012900Y008501D01*
X012900Y008699D01*
X012824Y008883D01*
X012683Y009024D01*
X012499Y009100D01*
X012301Y009100D01*
X012117Y009024D01*
X011976Y008883D01*
X011900Y008699D01*
X011900Y008501D01*
X011900Y008699D01*
X011824Y008883D01*
X011683Y009024D01*
X011499Y009100D01*
X011301Y009100D01*
X011117Y009024D01*
X010976Y008883D01*
X010914Y008733D01*
X010891Y008803D01*
X010853Y008878D01*
X010804Y008945D01*
X010745Y009004D01*
X010678Y009053D01*
X010603Y009091D01*
X010524Y009117D01*
X010442Y009130D01*
X010440Y009130D01*
X010558Y009106D02*
X014597Y009106D01*
X014835Y009462D02*
X015270Y009462D01*
X015270Y009580D02*
X014717Y009580D01*
X014598Y009699D02*
X015270Y009699D01*
X015270Y009817D02*
X014480Y009817D01*
X014361Y009936D02*
X015270Y009936D01*
X014863Y010173D02*
X014124Y010173D01*
X014006Y010291D02*
X014790Y010291D01*
X014772Y010410D02*
X013887Y010410D01*
X013769Y010528D02*
X014798Y010528D01*
X014883Y010647D02*
X013650Y010647D01*
X013532Y010765D02*
X015270Y010765D01*
X015270Y010884D02*
X013413Y010884D01*
X013295Y011002D02*
X015270Y011002D01*
X015270Y011121D02*
X013176Y011121D01*
X013058Y011239D02*
X015270Y011239D01*
X015930Y011239D02*
X016020Y011239D01*
X016020Y011476D02*
X015930Y011476D01*
X015930Y011595D02*
X016020Y011595D01*
X016020Y011713D02*
X015930Y011713D01*
X015930Y011832D02*
X016020Y011832D01*
X016020Y011950D02*
X015930Y011950D01*
X016140Y012069D02*
X012228Y012069D01*
X012110Y012187D02*
X016140Y012187D01*
X016140Y012306D02*
X011991Y012306D01*
X011873Y012424D02*
X013792Y012424D01*
X013770Y012543D02*
X011754Y012543D01*
X011636Y012661D02*
X013770Y012661D01*
X013770Y012780D02*
X011517Y012780D01*
X011399Y012898D02*
X013770Y012898D01*
X014408Y012424D02*
X014542Y012424D01*
X015908Y012424D02*
X016042Y012424D01*
X016560Y012306D02*
X017140Y012306D01*
X017052Y012187D02*
X016560Y012187D01*
X016560Y012069D02*
X017022Y012069D01*
X017036Y011950D02*
X016680Y011950D01*
X016680Y011832D02*
X017104Y011832D01*
X016680Y011713D02*
X022640Y011713D01*
X022640Y011595D02*
X016680Y011595D01*
X017596Y011832D02*
X022640Y011832D01*
X022640Y011950D02*
X017664Y011950D01*
X017678Y012069D02*
X022640Y012069D01*
X022640Y012187D02*
X017648Y012187D01*
X017560Y012306D02*
X018080Y012306D01*
X018088Y012301D02*
X018129Y012290D01*
X018310Y012290D01*
X018310Y012610D01*
X018390Y012610D01*
X018390Y012690D01*
X018310Y012690D01*
X018310Y013010D01*
X018129Y013010D01*
X018088Y012999D01*
X018052Y012978D01*
X018022Y012948D01*
X018001Y012912D01*
X017990Y012871D01*
X017990Y012690D01*
X018310Y012690D01*
X018310Y012610D01*
X017990Y012610D01*
X017990Y012429D01*
X018001Y012388D01*
X018022Y012352D01*
X018052Y012322D01*
X018088Y012301D01*
X017991Y012424D02*
X017822Y012424D01*
X017835Y012543D02*
X017990Y012543D01*
X017835Y012661D02*
X018310Y012661D01*
X018390Y012661D02*
X022640Y012661D01*
X022640Y012543D02*
X018710Y012543D01*
X018710Y012610D02*
X018710Y012429D01*
X018699Y012388D01*
X018678Y012352D01*
X018648Y012322D01*
X018612Y012301D01*
X018571Y012290D01*
X018390Y012290D01*
X018390Y012610D01*
X018710Y012610D01*
X018710Y012690D02*
X018710Y012871D01*
X018699Y012912D01*
X018678Y012948D01*
X018648Y012978D01*
X018612Y012999D01*
X018571Y013010D01*
X018390Y013010D01*
X018390Y012690D01*
X018710Y012690D01*
X018710Y012780D02*
X022683Y012780D01*
X022801Y012898D02*
X018703Y012898D01*
X018604Y013020D02*
X018680Y013096D01*
X018680Y013106D01*
X018714Y013072D01*
X018835Y013022D01*
X018965Y013022D01*
X019086Y013072D01*
X019178Y013164D01*
X019228Y013285D01*
X019228Y013415D01*
X019178Y013536D01*
X019086Y013628D01*
X018965Y013678D01*
X018835Y013678D01*
X018714Y013628D01*
X018680Y013594D01*
X018680Y013604D01*
X018604Y013680D01*
X018096Y013680D01*
X018020Y013604D01*
X018020Y013096D01*
X018096Y013020D01*
X018604Y013020D01*
X018390Y012898D02*
X018310Y012898D01*
X018310Y012780D02*
X018390Y012780D01*
X017990Y012780D02*
X017835Y012780D01*
X017835Y012898D02*
X017997Y012898D01*
X017816Y013017D02*
X022920Y013017D01*
X023038Y013135D02*
X019149Y013135D01*
X019215Y013254D02*
X023473Y013254D01*
X023483Y013372D02*
X019228Y013372D01*
X019197Y013491D02*
X026479Y013491D01*
X026519Y013507D02*
X026369Y013445D01*
X026255Y013331D01*
X026246Y013310D01*
X025980Y013310D01*
X025980Y013354D01*
X025904Y013430D01*
X025396Y013430D01*
X025320Y013354D01*
X025320Y012846D01*
X025396Y012770D01*
X025904Y012770D01*
X025980Y012846D01*
X025980Y012890D01*
X026246Y012890D01*
X026255Y012869D01*
X026369Y012755D01*
X026519Y012693D01*
X026681Y012693D01*
X026831Y012755D01*
X026945Y012869D01*
X027007Y013019D01*
X027007Y013181D01*
X026945Y013331D01*
X026831Y013445D01*
X026681Y013507D01*
X026519Y013507D01*
X026721Y013491D02*
X027479Y013491D01*
X027519Y013507D02*
X027369Y013445D01*
X027255Y013331D01*
X027193Y013181D01*
X027193Y013019D01*
X027255Y012869D01*
X027369Y012755D01*
X027519Y012693D01*
X027681Y012693D01*
X027831Y012755D01*
X027945Y012869D01*
X028007Y013019D01*
X028007Y013181D01*
X027945Y013331D01*
X027831Y013445D01*
X027681Y013507D01*
X027519Y013507D01*
X027721Y013491D02*
X029850Y013491D01*
X029850Y013609D02*
X019105Y013609D01*
X018998Y013772D02*
X019028Y013802D01*
X019049Y013838D01*
X019060Y013879D01*
X019060Y014060D01*
X018740Y014060D01*
X018740Y013740D01*
X018921Y013740D01*
X018962Y013751D01*
X018998Y013772D01*
X019051Y013846D02*
X029850Y013846D01*
X029850Y013728D02*
X017816Y013728D01*
X017816Y013609D02*
X018025Y013609D01*
X018020Y013491D02*
X017816Y013491D01*
X017816Y013372D02*
X018020Y013372D01*
X018020Y013254D02*
X017805Y013254D01*
X017805Y013135D02*
X018020Y013135D01*
X018675Y013609D02*
X018695Y013609D01*
X018660Y013846D02*
X018740Y013846D01*
X018740Y013965D02*
X018660Y013965D01*
X018660Y014083D02*
X018330Y014083D01*
X018330Y013965D02*
X018340Y013965D01*
X018330Y014202D02*
X018340Y014202D01*
X018330Y014320D02*
X018340Y014320D01*
X018420Y014439D02*
X017872Y014439D01*
X017930Y014557D02*
X024064Y014557D01*
X024168Y014453D02*
X023953Y014668D01*
X023837Y014948D01*
X023837Y015252D01*
X023953Y015532D01*
X024168Y015747D01*
X024448Y015863D01*
X024752Y015863D01*
X025032Y015747D01*
X025247Y015532D01*
X025363Y015252D01*
X025363Y014948D01*
X025247Y014668D01*
X025032Y014453D01*
X024752Y014337D01*
X024448Y014337D01*
X024168Y014453D01*
X024203Y014439D02*
X018980Y014439D01*
X019060Y014320D02*
X029850Y014320D01*
X029850Y014202D02*
X019060Y014202D01*
X018740Y014202D02*
X018660Y014202D01*
X018660Y014320D02*
X018740Y014320D01*
X018740Y014439D02*
X018660Y014439D01*
X018740Y014083D02*
X029850Y014083D01*
X029850Y013965D02*
X019060Y013965D01*
X017930Y014676D02*
X023950Y014676D01*
X023901Y014794D02*
X017930Y014794D01*
X017930Y014913D02*
X023852Y014913D01*
X023837Y015031D02*
X017903Y015031D01*
X017883Y015150D02*
X023837Y015150D01*
X023844Y015268D02*
X017930Y015268D01*
X017930Y015387D02*
X023893Y015387D01*
X023942Y015505D02*
X017930Y015505D01*
X017930Y015624D02*
X024044Y015624D01*
X024163Y015742D02*
X018429Y015742D01*
X018555Y015861D02*
X024442Y015861D01*
X024758Y015861D02*
X029850Y015861D01*
X029850Y015979D02*
X018560Y015979D01*
X018240Y015979D02*
X018160Y015979D01*
X018160Y015861D02*
X018240Y015861D01*
X018240Y015742D02*
X018160Y015742D01*
X017971Y015742D02*
X017892Y015742D01*
X017845Y015861D02*
X017830Y015861D01*
X017830Y015979D02*
X017840Y015979D01*
X018240Y016098D02*
X029850Y016098D01*
X029850Y016216D02*
X018560Y016216D01*
X018556Y016335D02*
X029850Y016335D01*
X029850Y015742D02*
X025037Y015742D01*
X025156Y015624D02*
X029850Y015624D01*
X029850Y015505D02*
X025258Y015505D01*
X025307Y015387D02*
X029850Y015387D01*
X029850Y015268D02*
X025356Y015268D01*
X025363Y015150D02*
X029850Y015150D01*
X029850Y015031D02*
X025363Y015031D01*
X025348Y014913D02*
X029850Y014913D01*
X029850Y014794D02*
X025299Y014794D01*
X025250Y014676D02*
X029850Y014676D01*
X029850Y014557D02*
X025136Y014557D01*
X024997Y014439D02*
X029850Y014439D01*
X029850Y013372D02*
X027904Y013372D01*
X027977Y013254D02*
X029850Y013254D01*
X029850Y013135D02*
X028007Y013135D01*
X028006Y013017D02*
X029850Y013017D01*
X029850Y012898D02*
X027957Y012898D01*
X027855Y012780D02*
X029850Y012780D01*
X029850Y012661D02*
X026657Y012661D01*
X026615Y012678D02*
X026485Y012678D01*
X026364Y012628D01*
X026296Y012560D01*
X025980Y012560D01*
X025980Y012604D01*
X025904Y012680D01*
X025396Y012680D01*
X025320Y012604D01*
X025320Y012096D01*
X025396Y012020D01*
X025440Y012020D01*
X025440Y011937D01*
X025313Y011810D01*
X024473Y011810D01*
X024501Y011837D01*
X024501Y012496D01*
X024425Y012573D01*
X023923Y012573D01*
X023847Y012496D01*
X023847Y011837D01*
X023875Y011810D01*
X023725Y011810D01*
X023753Y011837D01*
X023753Y012496D01*
X023677Y012573D01*
X023175Y012573D01*
X023099Y012496D01*
X023099Y011837D01*
X023175Y011761D01*
X023216Y011761D01*
X023216Y011637D01*
X023463Y011390D01*
X025487Y011390D01*
X025737Y011640D01*
X025860Y011763D01*
X025860Y012020D01*
X025904Y012020D01*
X025980Y012096D01*
X025980Y012140D01*
X026296Y012140D01*
X026364Y012072D01*
X026485Y012022D01*
X026615Y012022D01*
X026736Y012072D01*
X026828Y012164D01*
X026878Y012285D01*
X026878Y012415D01*
X026828Y012536D01*
X026736Y012628D01*
X026615Y012678D01*
X026443Y012661D02*
X025923Y012661D01*
X025913Y012780D02*
X026345Y012780D01*
X026855Y012780D02*
X027345Y012780D01*
X027243Y012898D02*
X026957Y012898D01*
X027006Y013017D02*
X027194Y013017D01*
X027193Y013135D02*
X027007Y013135D01*
X026977Y013254D02*
X027223Y013254D01*
X027296Y013372D02*
X026904Y013372D01*
X026296Y013372D02*
X025962Y013372D01*
X025338Y013372D02*
X025262Y013372D01*
X025280Y013254D02*
X025320Y013254D01*
X025320Y013135D02*
X025280Y013135D01*
X025280Y013017D02*
X025320Y013017D01*
X025320Y012898D02*
X025280Y012898D01*
X025213Y012780D02*
X025387Y012780D01*
X025377Y012661D02*
X025223Y012661D01*
X025280Y012543D02*
X025320Y012543D01*
X025320Y012424D02*
X025280Y012424D01*
X025280Y012306D02*
X025320Y012306D01*
X025320Y012187D02*
X025280Y012187D01*
X025252Y012069D02*
X025348Y012069D01*
X025440Y011950D02*
X024501Y011950D01*
X024501Y012069D02*
X024648Y012069D01*
X024620Y012187D02*
X024501Y012187D01*
X024501Y012306D02*
X024620Y012306D01*
X024620Y012424D02*
X024501Y012424D01*
X024455Y012543D02*
X024620Y012543D01*
X024677Y012661D02*
X024084Y012661D01*
X024127Y012780D02*
X024687Y012780D01*
X024307Y013254D02*
X024127Y013254D01*
X024117Y013372D02*
X024638Y013372D01*
X023473Y012780D02*
X023277Y012780D01*
X023158Y012661D02*
X023516Y012661D01*
X023707Y012543D02*
X023893Y012543D01*
X023847Y012424D02*
X023753Y012424D01*
X023753Y012306D02*
X023847Y012306D01*
X023847Y012187D02*
X023753Y012187D01*
X023753Y012069D02*
X023847Y012069D01*
X023847Y011950D02*
X023753Y011950D01*
X023747Y011832D02*
X023853Y011832D01*
X023377Y011476D02*
X023060Y011476D01*
X023060Y011358D02*
X027881Y011358D01*
X027837Y011252D02*
X027837Y010948D01*
X027953Y010668D01*
X028168Y010453D01*
X028448Y010337D01*
X028752Y010337D01*
X029032Y010453D01*
X029247Y010668D01*
X029363Y010948D01*
X029363Y011252D01*
X029247Y011532D01*
X029032Y011747D01*
X028752Y011863D01*
X028448Y011863D01*
X028168Y011747D01*
X027953Y011532D01*
X027837Y011252D01*
X027837Y011239D02*
X023060Y011239D01*
X023060Y011121D02*
X027837Y011121D01*
X027837Y011002D02*
X023060Y011002D01*
X023060Y010884D02*
X027864Y010884D01*
X027913Y010765D02*
X023060Y010765D01*
X023060Y010647D02*
X027974Y010647D01*
X028093Y010528D02*
X023060Y010528D01*
X023060Y010410D02*
X028273Y010410D01*
X028927Y010410D02*
X029850Y010410D01*
X029850Y010528D02*
X029107Y010528D01*
X029226Y010647D02*
X029850Y010647D01*
X029850Y010765D02*
X029287Y010765D01*
X029336Y010884D02*
X029850Y010884D01*
X029850Y011002D02*
X029363Y011002D01*
X029363Y011121D02*
X029850Y011121D01*
X029850Y011239D02*
X029363Y011239D01*
X029319Y011358D02*
X029850Y011358D01*
X029850Y011476D02*
X029270Y011476D01*
X029185Y011595D02*
X029850Y011595D01*
X029850Y011713D02*
X029066Y011713D01*
X028828Y011832D02*
X029850Y011832D01*
X029850Y011950D02*
X025860Y011950D01*
X025860Y011832D02*
X028372Y011832D01*
X028134Y011713D02*
X025810Y011713D01*
X025692Y011595D02*
X028015Y011595D01*
X027930Y011476D02*
X025573Y011476D01*
X025335Y011832D02*
X024495Y011832D01*
X023258Y011595D02*
X023060Y011595D01*
X023060Y011713D02*
X023216Y011713D01*
X023105Y011832D02*
X023060Y011832D01*
X023060Y011950D02*
X023099Y011950D01*
X023099Y012069D02*
X023060Y012069D01*
X023060Y012187D02*
X023099Y012187D01*
X023099Y012306D02*
X023060Y012306D01*
X023060Y012424D02*
X023099Y012424D01*
X023060Y012543D02*
X023145Y012543D01*
X022640Y012424D02*
X018709Y012424D01*
X018620Y012306D02*
X022640Y012306D01*
X023060Y010291D02*
X029850Y010291D01*
X029850Y010173D02*
X023060Y010173D01*
X023060Y010054D02*
X029850Y010054D01*
X029850Y009936D02*
X023060Y009936D01*
X023060Y009817D02*
X029850Y009817D01*
X029850Y009699D02*
X023060Y009699D01*
X023060Y009580D02*
X029850Y009580D01*
X029850Y009462D02*
X023060Y009462D01*
X023060Y009343D02*
X029850Y009343D01*
X029850Y009225D02*
X023060Y009225D01*
X023060Y009106D02*
X029850Y009106D01*
X029850Y008988D02*
X023060Y008988D01*
X023060Y008869D02*
X029850Y008869D01*
X029850Y008751D02*
X023060Y008751D01*
X023060Y008632D02*
X029850Y008632D01*
X029850Y008514D02*
X023060Y008514D01*
X023060Y008395D02*
X029850Y008395D01*
X029850Y008277D02*
X024961Y008277D01*
X025032Y008247D02*
X024752Y008363D01*
X024448Y008363D01*
X024168Y008247D01*
X023953Y008032D01*
X023837Y007752D01*
X023837Y007448D01*
X023953Y007168D01*
X024168Y006953D01*
X024448Y006837D01*
X024752Y006837D01*
X025032Y006953D01*
X025247Y007168D01*
X025363Y007448D01*
X025363Y007752D01*
X025247Y008032D01*
X025032Y008247D01*
X025121Y008158D02*
X029850Y008158D01*
X029850Y008040D02*
X025240Y008040D01*
X025293Y007921D02*
X029850Y007921D01*
X029850Y007803D02*
X025342Y007803D01*
X025363Y007684D02*
X029850Y007684D01*
X029850Y007566D02*
X025363Y007566D01*
X025363Y007447D02*
X029850Y007447D01*
X029850Y007329D02*
X025313Y007329D01*
X025264Y007210D02*
X029850Y007210D01*
X029850Y007092D02*
X025171Y007092D01*
X025052Y006973D02*
X029850Y006973D01*
X029850Y006855D02*
X024794Y006855D01*
X024406Y006855D02*
X023060Y006855D01*
X023060Y006973D02*
X024148Y006973D01*
X024029Y007092D02*
X023060Y007092D01*
X023060Y007210D02*
X023936Y007210D01*
X023887Y007329D02*
X023060Y007329D01*
X023060Y007447D02*
X023837Y007447D01*
X023837Y007566D02*
X023060Y007566D01*
X023060Y007684D02*
X023837Y007684D01*
X023858Y007803D02*
X023060Y007803D01*
X023060Y007921D02*
X023907Y007921D01*
X023960Y008040D02*
X023060Y008040D01*
X023060Y008158D02*
X024079Y008158D01*
X024239Y008277D02*
X023060Y008277D01*
X022140Y008277D02*
X021784Y008277D01*
X021856Y008395D02*
X022140Y008395D01*
X022140Y008514D02*
X021900Y008514D01*
X021900Y008632D02*
X022140Y008632D01*
X022140Y008751D02*
X021879Y008751D01*
X021830Y008869D02*
X022140Y008869D01*
X022140Y008988D02*
X021720Y008988D01*
X022140Y009106D02*
X015191Y009106D01*
X015072Y009225D02*
X022128Y009225D01*
X022010Y009343D02*
X014954Y009343D01*
X014827Y008876D02*
X014930Y008773D01*
X014900Y008699D01*
X014900Y008501D01*
X014900Y008699D01*
X014827Y008876D01*
X014830Y008869D02*
X014834Y008869D01*
X014879Y008751D02*
X014921Y008751D01*
X014900Y008632D02*
X014900Y008632D01*
X014900Y008514D02*
X014900Y008514D01*
X014856Y008395D02*
X014944Y008395D01*
X015016Y008277D02*
X014784Y008277D01*
X014640Y008158D02*
X015160Y008158D01*
X015640Y008158D02*
X016160Y008158D01*
X016016Y008277D02*
X015784Y008277D01*
X015856Y008395D02*
X015944Y008395D01*
X015900Y008514D02*
X015900Y008514D01*
X015900Y008632D02*
X015900Y008632D01*
X015879Y008751D02*
X015921Y008751D01*
X015970Y008869D02*
X015830Y008869D01*
X015720Y008988D02*
X016080Y008988D01*
X016020Y009462D02*
X015930Y009462D01*
X015930Y009936D02*
X016020Y009936D01*
X016020Y010173D02*
X015930Y010173D01*
X015930Y010291D02*
X016020Y010291D01*
X016020Y010410D02*
X015930Y010410D01*
X015930Y010528D02*
X016020Y010528D01*
X016020Y010647D02*
X015930Y010647D01*
X015930Y010765D02*
X016020Y010765D01*
X014243Y010054D02*
X022640Y010054D01*
X021891Y009462D02*
X016680Y009462D01*
X016720Y008988D02*
X017080Y008988D01*
X016970Y008869D02*
X016830Y008869D01*
X016879Y008751D02*
X016921Y008751D01*
X016900Y008632D02*
X016900Y008632D01*
X016900Y008514D02*
X016900Y008514D01*
X016856Y008395D02*
X016944Y008395D01*
X017016Y008277D02*
X016784Y008277D01*
X016640Y008158D02*
X017160Y008158D01*
X017640Y008158D02*
X018160Y008158D01*
X018016Y008277D02*
X017784Y008277D01*
X017856Y008395D02*
X017944Y008395D01*
X017900Y008514D02*
X017900Y008514D01*
X017900Y008632D02*
X017900Y008632D01*
X017879Y008751D02*
X017921Y008751D01*
X017970Y008869D02*
X017830Y008869D01*
X017720Y008988D02*
X018080Y008988D01*
X018720Y008988D02*
X019080Y008988D01*
X018970Y008869D02*
X018830Y008869D01*
X018879Y008751D02*
X018921Y008751D01*
X018900Y008632D02*
X018900Y008632D01*
X018900Y008514D02*
X018900Y008514D01*
X018856Y008395D02*
X018944Y008395D01*
X019016Y008277D02*
X018784Y008277D01*
X018640Y008158D02*
X019160Y008158D01*
X019640Y008158D02*
X020160Y008158D01*
X020016Y008277D02*
X019784Y008277D01*
X019856Y008395D02*
X019944Y008395D01*
X019900Y008514D02*
X019900Y008514D01*
X019900Y008632D02*
X019900Y008632D01*
X019879Y008751D02*
X019921Y008751D01*
X019970Y008869D02*
X019830Y008869D01*
X019720Y008988D02*
X020080Y008988D01*
X020720Y008988D02*
X021080Y008988D01*
X020970Y008869D02*
X020830Y008869D01*
X020879Y008751D02*
X020921Y008751D01*
X020900Y008632D02*
X020900Y008632D01*
X020900Y008514D02*
X020900Y008514D01*
X020856Y008395D02*
X020944Y008395D01*
X021016Y008277D02*
X020784Y008277D01*
X020640Y008158D02*
X021160Y008158D01*
X021640Y008158D02*
X022140Y008158D01*
X022140Y008040D02*
X014136Y008040D01*
X014018Y007921D02*
X022140Y007921D01*
X022140Y007803D02*
X013899Y007803D01*
X013781Y007684D02*
X022140Y007684D01*
X022140Y007566D02*
X013662Y007566D01*
X013544Y007447D02*
X022140Y007447D01*
X022140Y007329D02*
X013425Y007329D01*
X013307Y007210D02*
X022140Y007210D01*
X022140Y007092D02*
X013188Y007092D01*
X013070Y006973D02*
X022140Y006973D01*
X022140Y006855D02*
X012951Y006855D01*
X012833Y006736D02*
X022140Y006736D01*
X022140Y006618D02*
X012714Y006618D01*
X012596Y006499D02*
X022140Y006499D01*
X022140Y006381D02*
X012477Y006381D01*
X012359Y006262D02*
X022140Y006262D01*
X022140Y006144D02*
X012240Y006144D01*
X012122Y006025D02*
X022140Y006025D01*
X022140Y005907D02*
X012003Y005907D01*
X011885Y005788D02*
X022140Y005788D01*
X022140Y005670D02*
X011766Y005670D01*
X011648Y005551D02*
X022140Y005551D01*
X022140Y005433D02*
X011529Y005433D01*
X011410Y005907D02*
X005477Y005907D01*
X004923Y005907D02*
X004777Y005907D01*
X004754Y005930D02*
X004246Y005930D01*
X004170Y005854D01*
X004170Y005810D01*
X003954Y005810D01*
X003945Y005831D01*
X003831Y005945D01*
X003681Y006007D01*
X003519Y006007D01*
X003369Y005945D01*
X003255Y005831D01*
X003193Y005681D01*
X003193Y005519D01*
X003255Y005369D01*
X003369Y005255D01*
X003519Y005193D01*
X003681Y005193D01*
X003831Y005255D01*
X003945Y005369D01*
X003954Y005390D01*
X004170Y005390D01*
X004170Y005346D01*
X004246Y005270D01*
X004754Y005270D01*
X004830Y005346D01*
X004830Y005854D01*
X004754Y005930D01*
X004830Y005788D02*
X004870Y005788D01*
X004870Y005670D02*
X004830Y005670D01*
X004830Y005551D02*
X004870Y005551D01*
X004870Y005433D02*
X004830Y005433D01*
X004798Y005314D02*
X004902Y005314D01*
X005498Y005314D02*
X022140Y005314D01*
X022140Y005196D02*
X003687Y005196D01*
X003513Y005196D02*
X002687Y005196D01*
X002681Y005193D02*
X002831Y005255D01*
X002945Y005369D01*
X003007Y005519D01*
X003007Y005681D01*
X002945Y005831D01*
X002831Y005945D01*
X002681Y006007D01*
X002519Y006007D01*
X002369Y005945D01*
X002255Y005831D01*
X002193Y005681D01*
X002193Y005519D01*
X002255Y005369D01*
X002369Y005255D01*
X002519Y005193D01*
X002681Y005193D01*
X002513Y005196D02*
X000350Y005196D01*
X000350Y005314D02*
X002310Y005314D01*
X002229Y005433D02*
X000350Y005433D01*
X000350Y005551D02*
X002193Y005551D01*
X002193Y005670D02*
X000350Y005670D01*
X000350Y005788D02*
X002237Y005788D01*
X002331Y005907D02*
X000350Y005907D01*
X000350Y006025D02*
X011528Y006025D01*
X011647Y006144D02*
X000350Y006144D01*
X000350Y006262D02*
X011765Y006262D01*
X011884Y006381D02*
X000350Y006381D01*
X000350Y006499D02*
X012002Y006499D01*
X012121Y006618D02*
X000350Y006618D01*
X000350Y006736D02*
X012239Y006736D01*
X012358Y006855D02*
X001794Y006855D01*
X001752Y006837D02*
X002032Y006953D01*
X002247Y007168D01*
X002363Y007448D01*
X002363Y007752D01*
X002247Y008032D01*
X002032Y008247D01*
X001752Y008363D01*
X001448Y008363D01*
X001168Y008247D01*
X000953Y008032D01*
X000837Y007752D01*
X000837Y007448D01*
X000953Y007168D01*
X001168Y006953D01*
X001448Y006837D01*
X001752Y006837D01*
X002052Y006973D02*
X012476Y006973D01*
X012595Y007092D02*
X002171Y007092D01*
X002264Y007210D02*
X012713Y007210D01*
X012832Y007329D02*
X002313Y007329D01*
X002363Y007447D02*
X012950Y007447D01*
X013069Y007566D02*
X002363Y007566D01*
X002363Y007684D02*
X013187Y007684D01*
X013306Y007803D02*
X002342Y007803D01*
X002293Y007921D02*
X013424Y007921D01*
X013543Y008040D02*
X002240Y008040D01*
X002121Y008158D02*
X010107Y008158D01*
X009980Y008277D02*
X001961Y008277D01*
X001239Y008277D02*
X000350Y008277D01*
X000350Y008395D02*
X009910Y008395D01*
X009877Y008514D02*
X000350Y008514D01*
X000350Y008632D02*
X010360Y008632D01*
X010360Y008514D02*
X010440Y008514D01*
X010440Y008395D02*
X010360Y008395D01*
X010360Y008277D02*
X010440Y008277D01*
X010440Y008158D02*
X010360Y008158D01*
X010693Y008158D02*
X011160Y008158D01*
X011016Y008277D02*
X010820Y008277D01*
X010890Y008395D02*
X010944Y008395D01*
X010921Y008751D02*
X010908Y008751D01*
X010858Y008869D02*
X010970Y008869D01*
X011080Y008988D02*
X010762Y008988D01*
X010440Y008988D02*
X010360Y008988D01*
X010360Y008869D02*
X010440Y008869D01*
X010440Y008751D02*
X010360Y008751D01*
X010038Y008988D02*
X000350Y008988D01*
X000350Y008869D02*
X009942Y008869D01*
X009892Y008751D02*
X000350Y008751D01*
X000350Y008158D02*
X001079Y008158D01*
X000960Y008040D02*
X000350Y008040D01*
X000350Y007921D02*
X000907Y007921D01*
X000858Y007803D02*
X000350Y007803D01*
X000350Y007684D02*
X000837Y007684D01*
X000837Y007566D02*
X000350Y007566D01*
X000350Y007447D02*
X000837Y007447D01*
X000887Y007329D02*
X000350Y007329D01*
X000350Y007210D02*
X000936Y007210D01*
X001029Y007092D02*
X000350Y007092D01*
X000350Y006973D02*
X001148Y006973D01*
X001406Y006855D02*
X000350Y006855D01*
X002869Y005907D02*
X003331Y005907D01*
X003237Y005788D02*
X002963Y005788D01*
X003007Y005670D02*
X003193Y005670D01*
X003193Y005551D02*
X003007Y005551D01*
X002971Y005433D02*
X003229Y005433D01*
X003310Y005314D02*
X002890Y005314D01*
X003890Y005314D02*
X004202Y005314D01*
X004223Y005907D02*
X003869Y005907D01*
X005169Y004248D02*
X000350Y004248D01*
X000350Y004366D02*
X021619Y004366D01*
X021501Y004248D02*
X006031Y004248D01*
X006150Y004129D02*
X021216Y004129D01*
X021111Y004011D02*
X006256Y004011D01*
X006305Y003892D02*
X021072Y003892D01*
X021077Y003774D02*
X006354Y003774D01*
X006363Y003655D02*
X021131Y003655D01*
X021738Y004485D02*
X000350Y004485D01*
X000350Y004603D02*
X021856Y004603D01*
X021975Y004722D02*
X000350Y004722D01*
X000350Y004840D02*
X022093Y004840D01*
X022140Y004959D02*
X000350Y004959D01*
X000350Y005077D02*
X022140Y005077D01*
X023060Y005077D02*
X029850Y005077D01*
X029850Y004959D02*
X023060Y004959D01*
X023060Y004840D02*
X029850Y004840D01*
X029850Y004722D02*
X023060Y004722D01*
X023060Y004603D02*
X029850Y004603D01*
X029850Y004485D02*
X023060Y004485D01*
X023060Y004366D02*
X029850Y004366D01*
X029850Y004248D02*
X029031Y004248D01*
X029032Y004247D02*
X028752Y004363D01*
X028448Y004363D01*
X028168Y004247D01*
X027953Y004032D01*
X027837Y003752D01*
X027837Y003448D01*
X027953Y003168D01*
X028168Y002953D01*
X028448Y002837D01*
X028752Y002837D01*
X029032Y002953D01*
X029247Y003168D01*
X029363Y003448D01*
X029363Y003752D01*
X029247Y004032D01*
X029032Y004247D01*
X029150Y004129D02*
X029850Y004129D01*
X029850Y004011D02*
X029256Y004011D01*
X029305Y003892D02*
X029850Y003892D01*
X029850Y003774D02*
X029354Y003774D01*
X029363Y003655D02*
X029850Y003655D01*
X029850Y003537D02*
X029363Y003537D01*
X029351Y003418D02*
X029850Y003418D01*
X029850Y003300D02*
X029301Y003300D01*
X029252Y003181D02*
X029850Y003181D01*
X029850Y003063D02*
X029142Y003063D01*
X029010Y002944D02*
X029850Y002944D01*
X029850Y002826D02*
X021922Y002826D01*
X022041Y002944D02*
X028190Y002944D01*
X028058Y003063D02*
X022159Y003063D01*
X022278Y003181D02*
X027948Y003181D01*
X027899Y003300D02*
X022396Y003300D01*
X022515Y003418D02*
X027849Y003418D01*
X027837Y003537D02*
X022633Y003537D01*
X022752Y003655D02*
X027837Y003655D01*
X027846Y003774D02*
X022870Y003774D01*
X022989Y003892D02*
X027895Y003892D01*
X027944Y004011D02*
X023060Y004011D01*
X023060Y004129D02*
X028050Y004129D01*
X028169Y004248D02*
X023060Y004248D01*
X023060Y005196D02*
X026513Y005196D01*
X026519Y005193D02*
X026681Y005193D01*
X026831Y005255D01*
X026945Y005369D01*
X027007Y005519D01*
X027007Y005681D01*
X026945Y005831D01*
X026831Y005945D01*
X026681Y006007D01*
X026519Y006007D01*
X026369Y005945D01*
X026255Y005831D01*
X026246Y005810D01*
X026030Y005810D01*
X026030Y005854D01*
X025954Y005930D01*
X025446Y005930D01*
X025370Y005854D01*
X025370Y005346D01*
X025446Y005270D01*
X025954Y005270D01*
X026030Y005346D01*
X026030Y005390D01*
X026246Y005390D01*
X026255Y005369D01*
X026369Y005255D01*
X026519Y005193D01*
X026687Y005196D02*
X027513Y005196D01*
X027519Y005193D02*
X027681Y005193D01*
X027831Y005255D01*
X027945Y005369D01*
X028007Y005519D01*
X028007Y005681D01*
X027945Y005831D01*
X027831Y005945D01*
X027681Y006007D01*
X027519Y006007D01*
X027369Y005945D01*
X027255Y005831D01*
X027193Y005681D01*
X027193Y005519D01*
X027255Y005369D01*
X027369Y005255D01*
X027519Y005193D01*
X027687Y005196D02*
X029850Y005196D01*
X029850Y005314D02*
X027890Y005314D01*
X027971Y005433D02*
X029850Y005433D01*
X029850Y005551D02*
X028007Y005551D01*
X028007Y005670D02*
X029850Y005670D01*
X029850Y005788D02*
X027963Y005788D01*
X027869Y005907D02*
X029850Y005907D01*
X029850Y006025D02*
X023060Y006025D01*
X023060Y005907D02*
X024233Y005907D01*
X024285Y005928D02*
X024164Y005878D01*
X024072Y005786D01*
X024022Y005665D01*
X024022Y005535D01*
X024072Y005414D01*
X024164Y005322D01*
X024285Y005272D01*
X024415Y005272D01*
X024536Y005322D01*
X024604Y005390D01*
X024670Y005390D01*
X024670Y005346D01*
X024746Y005270D01*
X025254Y005270D01*
X025330Y005346D01*
X025330Y005854D01*
X025254Y005930D01*
X024746Y005930D01*
X024670Y005854D01*
X024670Y005810D01*
X024604Y005810D01*
X024536Y005878D01*
X024415Y005928D01*
X024285Y005928D01*
X024467Y005907D02*
X024723Y005907D01*
X025277Y005907D02*
X025423Y005907D01*
X025370Y005788D02*
X025330Y005788D01*
X025330Y005670D02*
X025370Y005670D01*
X025370Y005551D02*
X025330Y005551D01*
X025330Y005433D02*
X025370Y005433D01*
X025402Y005314D02*
X025298Y005314D01*
X024702Y005314D02*
X024517Y005314D01*
X024183Y005314D02*
X023060Y005314D01*
X023060Y005433D02*
X024064Y005433D01*
X024022Y005551D02*
X023060Y005551D01*
X023060Y005670D02*
X024024Y005670D01*
X024074Y005788D02*
X023060Y005788D01*
X023060Y006144D02*
X029850Y006144D01*
X029850Y006262D02*
X023060Y006262D01*
X023060Y006381D02*
X029850Y006381D01*
X029850Y006499D02*
X023060Y006499D01*
X023060Y006618D02*
X029850Y006618D01*
X029850Y006736D02*
X023060Y006736D01*
X025977Y005907D02*
X026331Y005907D01*
X026869Y005907D02*
X027331Y005907D01*
X027237Y005788D02*
X026963Y005788D01*
X027007Y005670D02*
X027193Y005670D01*
X027193Y005551D02*
X027007Y005551D01*
X026971Y005433D02*
X027229Y005433D01*
X027310Y005314D02*
X026890Y005314D01*
X026310Y005314D02*
X025998Y005314D01*
X029850Y002707D02*
X021804Y002707D01*
X021685Y002589D02*
X029850Y002589D01*
X029850Y002470D02*
X021567Y002470D01*
X021448Y002352D02*
X029850Y002352D01*
X028007Y002233D02*
X021330Y002233D01*
X021211Y002115D02*
X027940Y002115D01*
X027940Y001996D02*
X021711Y001996D01*
X021826Y001878D02*
X027940Y001878D01*
X027940Y001759D02*
X021875Y001759D01*
X021900Y001641D02*
X027940Y001641D01*
X027940Y001522D02*
X021900Y001522D01*
X021860Y001404D02*
X027940Y001404D01*
X027940Y001285D02*
X021792Y001285D01*
X021660Y001167D02*
X027940Y001167D01*
X021140Y001167D02*
X020660Y001167D01*
X020792Y001285D02*
X021008Y001285D01*
X020940Y001404D02*
X020860Y001404D01*
X020900Y001501D02*
X020900Y001699D01*
X020973Y001876D01*
X020870Y001773D01*
X020900Y001699D01*
X020900Y001501D01*
X020900Y001522D02*
X020900Y001522D01*
X020900Y001641D02*
X020900Y001641D01*
X020875Y001759D02*
X020925Y001759D01*
X020089Y001996D02*
X019711Y001996D01*
X019683Y002024D02*
X019824Y001883D01*
X019900Y001699D01*
X019900Y001501D01*
X019824Y001317D01*
X019683Y001176D01*
X019499Y001100D01*
X019301Y001100D01*
X019117Y001176D01*
X018976Y001317D01*
X018900Y001501D01*
X018824Y001317D01*
X018683Y001176D01*
X018499Y001100D01*
X018301Y001100D01*
X018117Y001176D01*
X017976Y001317D01*
X017900Y001501D01*
X017824Y001317D01*
X017683Y001176D01*
X017499Y001100D01*
X017301Y001100D01*
X017117Y001176D01*
X016976Y001317D01*
X016900Y001501D01*
X016824Y001317D01*
X016683Y001176D01*
X016499Y001100D01*
X016301Y001100D01*
X016117Y001176D01*
X015976Y001317D01*
X015900Y001501D01*
X015824Y001317D01*
X015683Y001176D01*
X015499Y001100D01*
X015301Y001100D01*
X015117Y001176D01*
X014976Y001317D01*
X014900Y001501D01*
X014824Y001317D01*
X014683Y001176D01*
X014499Y001100D01*
X014301Y001100D01*
X014117Y001176D01*
X013976Y001317D01*
X013900Y001501D01*
X013824Y001317D01*
X013683Y001176D01*
X013499Y001100D01*
X013301Y001100D01*
X013117Y001176D01*
X012976Y001317D01*
X012900Y001501D01*
X012824Y001317D01*
X012683Y001176D01*
X012499Y001100D01*
X012301Y001100D01*
X012117Y001176D01*
X011976Y001317D01*
X011900Y001501D01*
X011824Y001317D01*
X011683Y001176D01*
X011499Y001100D01*
X011301Y001100D01*
X011117Y001176D01*
X010976Y001317D01*
X010900Y001501D01*
X010900Y001699D01*
X010976Y001883D01*
X011117Y002024D01*
X011301Y002100D01*
X011499Y002100D01*
X011683Y002024D01*
X011824Y001883D01*
X011900Y001699D01*
X011900Y001501D01*
X011900Y001699D01*
X011976Y001883D01*
X012117Y002024D01*
X012301Y002100D01*
X012499Y002100D01*
X012683Y002024D01*
X012824Y001883D01*
X012900Y001699D01*
X012900Y001501D01*
X012900Y001699D01*
X012976Y001883D01*
X013117Y002024D01*
X013301Y002100D01*
X013499Y002100D01*
X013683Y002024D01*
X013824Y001883D01*
X013900Y001699D01*
X013900Y001501D01*
X013900Y001699D01*
X013976Y001883D01*
X014117Y002024D01*
X014301Y002100D01*
X014499Y002100D01*
X014683Y002024D01*
X014824Y001883D01*
X014900Y001699D01*
X014900Y001501D01*
X014900Y001699D01*
X014976Y001883D01*
X015117Y002024D01*
X015301Y002100D01*
X015499Y002100D01*
X015683Y002024D01*
X015824Y001883D01*
X015900Y001699D01*
X015900Y001501D01*
X015900Y001699D01*
X015976Y001883D01*
X016117Y002024D01*
X016301Y002100D01*
X016499Y002100D01*
X016683Y002024D01*
X016824Y001883D01*
X016900Y001699D01*
X016900Y001501D01*
X016900Y001699D01*
X016976Y001883D01*
X017117Y002024D01*
X017301Y002100D01*
X017499Y002100D01*
X017683Y002024D01*
X017824Y001883D01*
X017900Y001699D01*
X017900Y001501D01*
X017900Y001699D01*
X017976Y001883D01*
X018117Y002024D01*
X018301Y002100D01*
X018499Y002100D01*
X018683Y002024D01*
X018824Y001883D01*
X018900Y001699D01*
X018900Y001501D01*
X018900Y001699D01*
X018976Y001883D01*
X019117Y002024D01*
X019301Y002100D01*
X019499Y002100D01*
X019683Y002024D01*
X019826Y001878D02*
X019974Y001878D01*
X019925Y001759D02*
X019875Y001759D01*
X019900Y001641D02*
X019900Y001641D01*
X019900Y001522D02*
X019900Y001522D01*
X019860Y001404D02*
X019940Y001404D01*
X020008Y001285D02*
X019792Y001285D01*
X019660Y001167D02*
X020140Y001167D01*
X019140Y001167D02*
X018660Y001167D01*
X018792Y001285D02*
X019008Y001285D01*
X018940Y001404D02*
X018860Y001404D01*
X018900Y001522D02*
X018900Y001522D01*
X018900Y001641D02*
X018900Y001641D01*
X018875Y001759D02*
X018925Y001759D01*
X018974Y001878D02*
X018826Y001878D01*
X018711Y001996D02*
X019089Y001996D01*
X018089Y001996D02*
X017711Y001996D01*
X017826Y001878D02*
X017974Y001878D01*
X017925Y001759D02*
X017875Y001759D01*
X017900Y001641D02*
X017900Y001641D01*
X017900Y001522D02*
X017900Y001522D01*
X017860Y001404D02*
X017940Y001404D01*
X018008Y001285D02*
X017792Y001285D01*
X017660Y001167D02*
X018140Y001167D01*
X017140Y001167D02*
X016660Y001167D01*
X016792Y001285D02*
X017008Y001285D01*
X016940Y001404D02*
X016860Y001404D01*
X016900Y001522D02*
X016900Y001522D01*
X016900Y001641D02*
X016900Y001641D01*
X016875Y001759D02*
X016925Y001759D01*
X016974Y001878D02*
X016826Y001878D01*
X016711Y001996D02*
X017089Y001996D01*
X016089Y001996D02*
X015711Y001996D01*
X015826Y001878D02*
X015974Y001878D01*
X015925Y001759D02*
X015875Y001759D01*
X015900Y001641D02*
X015900Y001641D01*
X015900Y001522D02*
X015900Y001522D01*
X015860Y001404D02*
X015940Y001404D01*
X016008Y001285D02*
X015792Y001285D01*
X015660Y001167D02*
X016140Y001167D01*
X015140Y001167D02*
X014660Y001167D01*
X014792Y001285D02*
X015008Y001285D01*
X014940Y001404D02*
X014860Y001404D01*
X014900Y001522D02*
X014900Y001522D01*
X014900Y001641D02*
X014900Y001641D01*
X014875Y001759D02*
X014925Y001759D01*
X014974Y001878D02*
X014826Y001878D01*
X014711Y001996D02*
X015089Y001996D01*
X014089Y001996D02*
X013711Y001996D01*
X013826Y001878D02*
X013974Y001878D01*
X013925Y001759D02*
X013875Y001759D01*
X013900Y001641D02*
X013900Y001641D01*
X013900Y001522D02*
X013900Y001522D01*
X013860Y001404D02*
X013940Y001404D01*
X014008Y001285D02*
X013792Y001285D01*
X013660Y001167D02*
X014140Y001167D01*
X013140Y001167D02*
X012660Y001167D01*
X012792Y001285D02*
X013008Y001285D01*
X012940Y001404D02*
X012860Y001404D01*
X012900Y001522D02*
X012900Y001522D01*
X012900Y001641D02*
X012900Y001641D01*
X012875Y001759D02*
X012925Y001759D01*
X012974Y001878D02*
X012826Y001878D01*
X012711Y001996D02*
X013089Y001996D01*
X012089Y001996D02*
X011711Y001996D01*
X011826Y001878D02*
X011974Y001878D01*
X011925Y001759D02*
X011875Y001759D01*
X011900Y001641D02*
X011900Y001641D01*
X011900Y001522D02*
X011900Y001522D01*
X011860Y001404D02*
X011940Y001404D01*
X012008Y001285D02*
X011792Y001285D01*
X011660Y001167D02*
X012140Y001167D01*
X011140Y001167D02*
X010660Y001167D01*
X010792Y001285D02*
X011008Y001285D01*
X010940Y001404D02*
X010860Y001404D01*
X010900Y001522D02*
X010900Y001522D01*
X010900Y001641D02*
X010900Y001641D01*
X010875Y001759D02*
X010925Y001759D01*
X010974Y001878D02*
X010826Y001878D01*
X010711Y001996D02*
X011089Y001996D01*
X005190Y002944D02*
X000350Y002944D01*
X000350Y003063D02*
X005058Y003063D01*
X004948Y003181D02*
X000350Y003181D01*
X000350Y003300D02*
X004899Y003300D01*
X004849Y003418D02*
X000350Y003418D01*
X000350Y003537D02*
X004837Y003537D01*
X004837Y003655D02*
X000350Y003655D01*
X000350Y003774D02*
X004846Y003774D01*
X004895Y003892D02*
X000350Y003892D01*
X000350Y004011D02*
X004944Y004011D01*
X005050Y004129D02*
X000350Y004129D01*
X009860Y009699D02*
X009940Y009699D01*
X009940Y009817D02*
X009860Y009817D01*
X009860Y010173D02*
X009940Y010173D01*
X009940Y010291D02*
X009860Y010291D01*
X010176Y010291D02*
X010424Y010291D01*
X010370Y010410D02*
X010230Y010410D01*
X010260Y010173D02*
X010340Y010173D01*
X010340Y010054D02*
X010260Y010054D01*
X010740Y010054D02*
X010860Y010054D01*
X010860Y010173D02*
X010740Y010173D01*
X010740Y010291D02*
X010860Y010291D01*
X011260Y009817D02*
X013886Y009817D01*
X014004Y009699D02*
X011260Y009699D01*
X011720Y008988D02*
X012080Y008988D01*
X011970Y008869D02*
X011830Y008869D01*
X011879Y008751D02*
X011921Y008751D01*
X011900Y008632D02*
X011900Y008632D01*
X011900Y008514D02*
X011900Y008514D01*
X011856Y008395D02*
X011944Y008395D01*
X012016Y008277D02*
X011784Y008277D01*
X011640Y008158D02*
X012160Y008158D01*
X012640Y008158D02*
X013160Y008158D01*
X013016Y008277D02*
X012784Y008277D01*
X012856Y008395D02*
X012944Y008395D01*
X012900Y008514D02*
X012900Y008514D01*
X012900Y008632D02*
X012900Y008632D01*
X012879Y008751D02*
X012921Y008751D01*
X012970Y008869D02*
X012830Y008869D01*
X012720Y008988D02*
X013080Y008988D01*
X013720Y008988D02*
X014080Y008988D01*
X013970Y008869D02*
X013830Y008869D01*
X013879Y008751D02*
X013921Y008751D01*
X013900Y008699D02*
X013900Y008501D01*
X013900Y008699D01*
X013900Y008632D02*
X013900Y008632D01*
X013900Y008514D02*
X013900Y008514D01*
X013900Y008501D02*
X013827Y008324D01*
X013930Y008427D01*
X013900Y008501D01*
X013898Y008395D02*
X013856Y008395D01*
X013661Y008158D02*
X013640Y008158D01*
X018310Y012306D02*
X018390Y012306D01*
X018390Y012424D02*
X018310Y012424D01*
X018310Y012543D02*
X018390Y012543D01*
X017606Y012543D02*
X017606Y012543D01*
X017606Y012661D02*
X017606Y012661D01*
X017606Y012424D02*
X017606Y012424D01*
X016906Y012424D02*
X016658Y012424D01*
X016617Y013017D02*
X016916Y013017D01*
X016895Y013135D02*
X016669Y013135D01*
X016170Y014320D02*
X016094Y014320D01*
X015390Y016453D02*
X014794Y016453D01*
X014951Y016572D02*
X015249Y016572D01*
X015174Y016690D02*
X015026Y016690D01*
X015068Y016809D02*
X015132Y016809D01*
X015132Y016927D02*
X015068Y016927D01*
X015042Y017046D02*
X015158Y017046D01*
X015210Y017164D02*
X014990Y017164D01*
X014872Y017283D02*
X015328Y017283D01*
X025952Y012069D02*
X026372Y012069D01*
X026728Y012069D02*
X029850Y012069D01*
X029850Y012187D02*
X026838Y012187D01*
X026878Y012306D02*
X029850Y012306D01*
X029850Y012424D02*
X026874Y012424D01*
X026821Y012543D02*
X029850Y012543D01*
X004237Y012780D02*
X003855Y012780D01*
X003345Y012780D02*
X002855Y012780D01*
X002957Y012898D02*
X003243Y012898D01*
X003194Y013017D02*
X003006Y013017D01*
X003007Y013135D02*
X003193Y013135D01*
X003223Y013254D02*
X002977Y013254D01*
X002904Y013372D02*
X003296Y013372D01*
M02*
