%
M48
M72
T01C0.0236
T02C0.0354
T03C0.0394
T04C0.0400
T05C0.0866
%
T01
X15100Y10400
X15100Y11700
X17350Y12050
X18900Y13350
X15850Y14100
X14100Y13900
X16850Y16100
X15612Y16887
X14588Y16887
X10800Y11400
X21400Y3850
X24350Y5600
X26550Y12350
T02
X26600Y13100
X27600Y13100
X27600Y5600
X26600Y5600
X3600Y5600
X2600Y5600
X2600Y13100
X3600Y13100
T03
X14600Y15600
X15600Y15600
T04
X15400Y8600
X14400Y8600
X13400Y8600
X12400Y8600
X11400Y8600
X10400Y8600
X16400Y8600
X17400Y8600
X18400Y8600
X19400Y8600
X20400Y8600
X21400Y8600
X21400Y1600
X20400Y1600
X19400Y1600
X18400Y1600
X17400Y1600
X16400Y1600
X15400Y1600
X14400Y1600
X13400Y1600
X12400Y1600
X11400Y1600
X10400Y1600
T05
X5600Y3600
X1600Y7600
X5600Y11100
X1600Y15100
X24600Y15100
X28600Y11100
X24600Y7600
X28600Y3600
M30
