G75*
%MOIN*%
%OFA0B0*%
%FSLAX24Y24*%
%IPPOS*%
%LPD*%
%AMOC8*
5,1,8,0,0,1.08239X$1,22.5*
%
%ADD10C,0.0040*%
%ADD11C,0.0050*%
%ADD12C,0.0120*%
%ADD13C,0.0100*%
%ADD14C,0.0080*%
%ADD15C,0.0060*%
D10*
X009030Y000758D02*
X009063Y000725D01*
X009130Y000725D01*
X009163Y000758D01*
X009163Y000925D01*
X009251Y000892D02*
X009284Y000925D01*
X009351Y000925D01*
X009384Y000892D01*
X009384Y000858D01*
X009351Y000825D01*
X009384Y000792D01*
X009384Y000758D01*
X009351Y000725D01*
X009284Y000725D01*
X009251Y000758D01*
X009318Y000825D02*
X009351Y000825D01*
X009030Y000758D02*
X009030Y000925D01*
X005145Y006020D02*
X005012Y006020D01*
X005079Y006020D02*
X005079Y006220D01*
X005012Y006153D01*
X004924Y006020D02*
X004791Y006020D01*
X004858Y006020D02*
X004858Y006220D01*
X004791Y006153D01*
X004703Y006120D02*
X004670Y006087D01*
X004570Y006087D01*
X004637Y006087D02*
X004703Y006020D01*
X004703Y006120D02*
X004703Y006187D01*
X004670Y006220D01*
X004570Y006220D01*
X004570Y006020D01*
X009078Y010293D02*
X009111Y010260D01*
X009178Y010260D01*
X009211Y010293D01*
X009299Y010293D02*
X009299Y010327D01*
X009332Y010360D01*
X009399Y010360D01*
X009432Y010327D01*
X009432Y010293D01*
X009399Y010260D01*
X009332Y010260D01*
X009299Y010293D01*
X009332Y010360D02*
X009299Y010393D01*
X009299Y010427D01*
X009332Y010460D01*
X009399Y010460D01*
X009432Y010427D01*
X009432Y010393D01*
X009399Y010360D01*
X009211Y010427D02*
X009178Y010460D01*
X009111Y010460D01*
X009078Y010427D01*
X009078Y010293D01*
X011350Y010253D02*
X011383Y010220D01*
X011450Y010220D01*
X011483Y010253D01*
X011571Y010253D02*
X011604Y010220D01*
X011671Y010220D01*
X011704Y010253D01*
X011704Y010387D01*
X011671Y010420D01*
X011604Y010420D01*
X011571Y010387D01*
X011571Y010353D01*
X011604Y010320D01*
X011704Y010320D01*
X011483Y010387D02*
X011450Y010420D01*
X011383Y010420D01*
X011350Y010387D01*
X011350Y010253D01*
X013970Y012203D02*
X014003Y012170D01*
X014070Y012170D01*
X014103Y012203D01*
X014191Y012270D02*
X014324Y012270D01*
X014291Y012170D02*
X014291Y012370D01*
X014191Y012270D01*
X014103Y012337D02*
X014070Y012370D01*
X014003Y012370D01*
X013970Y012337D01*
X013970Y012203D01*
X014720Y012170D02*
X014720Y012370D01*
X014820Y012370D01*
X014853Y012337D01*
X014853Y012270D01*
X014820Y012237D01*
X014720Y012237D01*
X014787Y012237D02*
X014853Y012170D01*
X014941Y012203D02*
X014974Y012170D01*
X015041Y012170D01*
X015074Y012203D01*
X015074Y012270D01*
X015041Y012303D01*
X015008Y012303D01*
X014941Y012270D01*
X014941Y012370D01*
X015074Y012370D01*
X015420Y012287D02*
X015420Y012153D01*
X015453Y012120D01*
X015520Y012120D01*
X015553Y012153D01*
X015641Y012153D02*
X015674Y012120D01*
X015741Y012120D01*
X015774Y012153D01*
X015774Y012187D01*
X015741Y012220D01*
X015708Y012220D01*
X015741Y012220D02*
X015774Y012253D01*
X015774Y012287D01*
X015741Y012320D01*
X015674Y012320D01*
X015641Y012287D01*
X015553Y012287D02*
X015520Y012320D01*
X015453Y012320D01*
X015420Y012287D01*
X016170Y012320D02*
X016170Y012120D01*
X016170Y012187D02*
X016270Y012187D01*
X016303Y012220D01*
X016303Y012287D01*
X016270Y012320D01*
X016170Y012320D01*
X016237Y012187D02*
X016303Y012120D01*
X016391Y012220D02*
X016524Y012220D01*
X016491Y012120D02*
X016491Y012320D01*
X016391Y012220D01*
X016748Y012185D02*
X016781Y012151D01*
X016848Y012151D01*
X016881Y012185D01*
X016881Y012352D01*
X016969Y012285D02*
X017035Y012352D01*
X017035Y012151D01*
X016969Y012151D02*
X017102Y012151D01*
X016748Y012185D02*
X016748Y012352D01*
X016803Y011470D02*
X016770Y011437D01*
X016770Y011303D01*
X016803Y011270D01*
X016870Y011270D01*
X016903Y011303D01*
X016991Y011303D02*
X017024Y011270D01*
X017091Y011270D01*
X017124Y011303D01*
X017124Y011337D01*
X017091Y011370D01*
X016991Y011370D01*
X016991Y011303D01*
X016991Y011370D02*
X017058Y011437D01*
X017124Y011470D01*
X016903Y011437D02*
X016870Y011470D01*
X016803Y011470D01*
X018170Y012103D02*
X018203Y012070D01*
X018270Y012070D01*
X018303Y012103D01*
X018391Y012103D02*
X018424Y012070D01*
X018491Y012070D01*
X018524Y012103D01*
X018524Y012170D01*
X018491Y012203D01*
X018458Y012203D01*
X018391Y012170D01*
X018391Y012270D01*
X018524Y012270D01*
X018303Y012237D02*
X018270Y012270D01*
X018203Y012270D01*
X018170Y012237D01*
X018170Y012103D01*
X015224Y011320D02*
X015158Y011287D01*
X015091Y011220D01*
X015191Y011220D01*
X015224Y011187D01*
X015224Y011153D01*
X015191Y011120D01*
X015124Y011120D01*
X015091Y011153D01*
X015091Y011220D01*
X015003Y011220D02*
X014970Y011187D01*
X014870Y011187D01*
X014937Y011187D02*
X015003Y011120D01*
X015003Y011220D02*
X015003Y011287D01*
X014970Y011320D01*
X014870Y011320D01*
X014870Y011120D01*
X014903Y010020D02*
X014870Y009987D01*
X014870Y009853D01*
X014903Y009820D01*
X014970Y009820D01*
X015003Y009853D01*
X015091Y009853D02*
X015091Y009820D01*
X015091Y009853D02*
X015224Y009987D01*
X015224Y010020D01*
X015091Y010020D01*
X015003Y009987D02*
X014970Y010020D01*
X014903Y010020D01*
X016770Y010037D02*
X016870Y010037D01*
X016903Y010070D01*
X016903Y010137D01*
X016870Y010170D01*
X016770Y010170D01*
X016770Y009970D01*
X016837Y010037D02*
X016903Y009970D01*
X016991Y009970D02*
X017124Y009970D01*
X017058Y009970D02*
X017058Y010170D01*
X016991Y010103D01*
X017212Y010137D02*
X017245Y010170D01*
X017312Y010170D01*
X017345Y010137D01*
X017212Y010003D01*
X017245Y009970D01*
X017312Y009970D01*
X017345Y010003D01*
X017345Y010137D01*
X017212Y010137D02*
X017212Y010003D01*
X022320Y012220D02*
X022420Y012220D01*
X022453Y012253D01*
X022453Y012387D01*
X022420Y012420D01*
X022320Y012420D01*
X022320Y012220D01*
X022541Y012220D02*
X022674Y012220D01*
X022608Y012220D02*
X022608Y012420D01*
X022541Y012353D01*
X025070Y011920D02*
X025070Y011720D01*
X025070Y011787D02*
X025170Y011787D01*
X025203Y011820D01*
X025203Y011887D01*
X025170Y011920D01*
X025070Y011920D01*
X025137Y011787D02*
X025203Y011720D01*
X025291Y011753D02*
X025291Y011787D01*
X025324Y011820D01*
X025391Y011820D01*
X025424Y011787D01*
X025424Y011753D01*
X025391Y011720D01*
X025324Y011720D01*
X025291Y011753D01*
X025324Y011820D02*
X025291Y011853D01*
X025291Y011887D01*
X025324Y011920D01*
X025391Y011920D01*
X025424Y011887D01*
X025424Y011853D01*
X025391Y011820D01*
X025391Y013520D02*
X025391Y013553D01*
X025524Y013687D01*
X025524Y013720D01*
X025391Y013720D01*
X025303Y013687D02*
X025303Y013620D01*
X025270Y013587D01*
X025170Y013587D01*
X025237Y013587D02*
X025303Y013520D01*
X025170Y013520D02*
X025170Y013720D01*
X025270Y013720D01*
X025303Y013687D01*
X018924Y016020D02*
X018791Y016020D01*
X018858Y016020D02*
X018858Y016220D01*
X018791Y016153D01*
X018703Y016187D02*
X018670Y016220D01*
X018603Y016220D01*
X018570Y016187D01*
X018570Y016053D01*
X018603Y016020D01*
X018670Y016020D01*
X018703Y016053D01*
X018703Y016720D02*
X018637Y016787D01*
X018670Y016787D02*
X018570Y016787D01*
X018570Y016720D02*
X018570Y016920D01*
X018670Y016920D01*
X018703Y016887D01*
X018703Y016820D01*
X018670Y016787D01*
X018791Y016853D02*
X018858Y016920D01*
X018858Y016720D01*
X018924Y016720D02*
X018791Y016720D01*
X016974Y017420D02*
X016841Y017420D01*
X016974Y017553D01*
X016974Y017587D01*
X016941Y017620D01*
X016874Y017620D01*
X016841Y017587D01*
X016753Y017620D02*
X016620Y017420D01*
X016753Y017420D02*
X016620Y017620D01*
X013524Y017470D02*
X013391Y017470D01*
X013458Y017470D02*
X013458Y017670D01*
X013391Y017603D01*
X013303Y017637D02*
X013303Y017503D01*
X013270Y017470D01*
X013203Y017470D01*
X013170Y017503D01*
X013170Y017637D01*
X013203Y017670D01*
X013270Y017670D01*
X013303Y017637D01*
X013237Y017537D02*
X013303Y017470D01*
X012419Y016123D02*
X012319Y016057D01*
X012419Y015990D01*
X012319Y015990D02*
X012319Y016190D01*
X012231Y016123D02*
X012131Y016123D01*
X012098Y016090D01*
X012098Y016023D01*
X012131Y015990D01*
X012231Y015990D01*
X012010Y016023D02*
X012010Y016090D01*
X011977Y016123D01*
X011910Y016123D01*
X011877Y016090D01*
X011877Y016023D01*
X011910Y015990D01*
X011977Y015990D01*
X012010Y016023D01*
X011796Y015990D02*
X011729Y015990D01*
X011763Y015990D02*
X011763Y016190D01*
X011729Y016190D01*
X011642Y016090D02*
X011508Y016090D01*
X011421Y016090D02*
X011421Y016057D01*
X011287Y016057D01*
X011287Y016090D02*
X011321Y016123D01*
X011388Y016123D01*
X011421Y016090D01*
X011388Y015990D02*
X011321Y015990D01*
X011287Y016023D01*
X011287Y016090D01*
X011200Y016123D02*
X011100Y016123D01*
X011067Y016090D01*
X011100Y016057D01*
X011167Y016057D01*
X011200Y016023D01*
X011167Y015990D01*
X011067Y015990D01*
X010979Y015990D02*
X010879Y015990D01*
X010846Y016023D01*
X010879Y016057D01*
X010979Y016057D01*
X010979Y016090D02*
X010979Y015990D01*
X010979Y016090D02*
X010946Y016123D01*
X010879Y016123D01*
X010758Y016090D02*
X010758Y015990D01*
X010758Y016090D02*
X010725Y016123D01*
X010658Y016123D01*
X010625Y016090D01*
X010537Y016090D02*
X010537Y016023D01*
X010504Y015990D01*
X010404Y015990D01*
X010404Y015923D02*
X010404Y016123D01*
X010504Y016123D01*
X010537Y016090D01*
X010625Y016190D02*
X010625Y015990D01*
X010098Y016123D02*
X010065Y016123D01*
X009998Y016057D01*
X009998Y016123D02*
X009998Y015990D01*
X009911Y016057D02*
X009777Y016057D01*
X009777Y016090D02*
X009811Y016123D01*
X009877Y016123D01*
X009911Y016090D01*
X009911Y016057D01*
X009877Y015990D02*
X009811Y015990D01*
X009777Y016023D01*
X009777Y016090D01*
X009697Y015990D02*
X009630Y015990D01*
X009663Y015990D02*
X009663Y016190D01*
X009630Y016190D01*
X009543Y016090D02*
X009509Y016123D01*
X009442Y016123D01*
X009409Y016090D01*
X009409Y016023D01*
X009442Y015990D01*
X009509Y015990D01*
X009543Y016023D01*
X009543Y016090D01*
X009322Y016090D02*
X009288Y016123D01*
X009221Y016123D01*
X009188Y016090D01*
X009188Y016023D01*
X009221Y015990D01*
X009288Y015990D01*
X009322Y016023D01*
X009322Y016090D01*
X009101Y016123D02*
X009000Y016123D01*
X008967Y016090D01*
X008967Y016023D01*
X009000Y015990D01*
X009101Y015990D01*
X009074Y015797D02*
X009074Y015663D01*
X009108Y015630D01*
X009188Y015663D02*
X009221Y015630D01*
X009322Y015630D01*
X009409Y015630D02*
X009409Y015830D01*
X009442Y015763D02*
X009509Y015763D01*
X009543Y015730D01*
X009543Y015630D01*
X009409Y015730D02*
X009442Y015763D01*
X009322Y015763D02*
X009221Y015763D01*
X009188Y015730D01*
X009188Y015663D01*
X009108Y015763D02*
X009041Y015763D01*
X008927Y015763D02*
X008927Y015630D01*
X008960Y015630D02*
X008893Y015630D01*
X008893Y015763D02*
X008927Y015763D01*
X008927Y015830D02*
X008927Y015864D01*
X008806Y015830D02*
X008672Y015830D01*
X008672Y015630D01*
X008672Y015730D02*
X008739Y015730D01*
X008625Y015923D02*
X008592Y015923D01*
X008625Y015923D02*
X008659Y015957D01*
X008659Y016123D01*
X008746Y016090D02*
X008746Y016023D01*
X008779Y015990D01*
X008846Y015990D01*
X008880Y016023D01*
X008880Y016090D01*
X008846Y016123D01*
X008779Y016123D01*
X008746Y016090D01*
X008659Y015990D02*
X008559Y015990D01*
X008525Y016023D01*
X008525Y016123D01*
X008441Y016123D02*
X008408Y016123D01*
X008341Y016057D01*
X008341Y016123D02*
X008341Y015990D01*
X008253Y016023D02*
X008220Y015990D01*
X008153Y015990D01*
X008120Y016023D01*
X008120Y016157D01*
X008153Y016190D01*
X008220Y016190D01*
X008253Y016157D01*
X008220Y016350D02*
X008153Y016350D01*
X008120Y016383D01*
X008120Y016517D01*
X008153Y016550D01*
X008220Y016550D01*
X008253Y016517D01*
X008341Y016517D02*
X008341Y016383D01*
X008374Y016350D01*
X008441Y016350D01*
X008474Y016383D01*
X008562Y016350D02*
X008562Y016550D01*
X008629Y016483D01*
X008695Y016550D01*
X008695Y016350D01*
X008783Y016317D02*
X008916Y016317D01*
X009004Y016383D02*
X009037Y016350D01*
X009104Y016350D01*
X009137Y016383D01*
X009137Y016517D01*
X009004Y016383D01*
X009004Y016517D01*
X009037Y016550D01*
X009104Y016550D01*
X009137Y016517D01*
X009225Y016517D02*
X009258Y016550D01*
X009325Y016550D01*
X009358Y016517D01*
X009225Y016383D01*
X009258Y016350D01*
X009325Y016350D01*
X009358Y016383D01*
X009358Y016517D01*
X009446Y016517D02*
X009479Y016550D01*
X009546Y016550D01*
X009579Y016517D01*
X009446Y016383D01*
X009479Y016350D01*
X009546Y016350D01*
X009579Y016383D01*
X009579Y016517D01*
X009667Y016550D02*
X009800Y016550D01*
X009800Y016517D01*
X009667Y016383D01*
X009667Y016350D01*
X009446Y016383D02*
X009446Y016517D01*
X009225Y016517D02*
X009225Y016383D01*
X008474Y016517D02*
X008441Y016550D01*
X008374Y016550D01*
X008341Y016517D01*
X008253Y016383D02*
X008220Y016350D01*
X008253Y015830D02*
X008253Y015630D01*
X008120Y015830D01*
X008120Y015630D01*
X008120Y015470D02*
X008253Y015470D01*
X008187Y015370D02*
X008120Y015370D01*
X008120Y015270D02*
X008120Y015470D01*
X008341Y015370D02*
X008374Y015403D01*
X008441Y015403D01*
X008474Y015370D01*
X008474Y015337D01*
X008341Y015337D01*
X008341Y015370D02*
X008341Y015303D01*
X008374Y015270D01*
X008441Y015270D01*
X008562Y015270D02*
X008662Y015270D01*
X008695Y015303D01*
X008695Y015370D01*
X008662Y015403D01*
X008562Y015403D01*
X008562Y015470D02*
X008562Y015270D01*
X008783Y015270D02*
X008783Y015303D01*
X008816Y015303D01*
X008816Y015270D01*
X008783Y015270D01*
X009114Y015270D02*
X009248Y015403D01*
X009248Y015437D01*
X009215Y015470D01*
X009148Y015470D01*
X009114Y015437D01*
X009114Y015270D02*
X009248Y015270D01*
X009335Y015303D02*
X009469Y015437D01*
X009469Y015303D01*
X009436Y015270D01*
X009369Y015270D01*
X009335Y015303D01*
X009335Y015437D01*
X009369Y015470D01*
X009436Y015470D01*
X009469Y015437D01*
X009556Y015403D02*
X009623Y015470D01*
X009623Y015270D01*
X009556Y015270D02*
X009690Y015270D01*
X009777Y015270D02*
X009777Y015303D01*
X009911Y015437D01*
X009911Y015470D01*
X009777Y015470D01*
X008374Y015630D02*
X008341Y015630D01*
X008341Y015663D01*
X008374Y015663D01*
X008374Y015630D01*
X005145Y013687D02*
X005112Y013720D01*
X005045Y013720D01*
X005012Y013687D01*
X005145Y013687D02*
X005145Y013653D01*
X005012Y013520D01*
X005145Y013520D01*
X004924Y013520D02*
X004791Y013520D01*
X004858Y013520D02*
X004858Y013720D01*
X004791Y013653D01*
X004703Y013620D02*
X004703Y013687D01*
X004670Y013720D01*
X004570Y013720D01*
X004570Y013520D01*
X004570Y013587D02*
X004670Y013587D01*
X004703Y013620D01*
X004637Y013587D02*
X004703Y013520D01*
X016670Y014520D02*
X016670Y014720D01*
X016770Y014720D01*
X016803Y014687D01*
X016803Y014620D01*
X016770Y014587D01*
X016670Y014587D01*
X016737Y014587D02*
X016803Y014520D01*
X016891Y014553D02*
X016924Y014520D01*
X016991Y014520D01*
X017024Y014553D01*
X017024Y014587D01*
X016991Y014620D01*
X016958Y014620D01*
X016991Y014620D02*
X017024Y014653D01*
X017024Y014687D01*
X016991Y014720D01*
X016924Y014720D01*
X016891Y014687D01*
X018070Y015053D02*
X018103Y015020D01*
X018170Y015020D01*
X018203Y015053D01*
X018291Y015020D02*
X018424Y015153D01*
X018424Y015187D01*
X018391Y015220D01*
X018324Y015220D01*
X018291Y015187D01*
X018203Y015187D02*
X018170Y015220D01*
X018103Y015220D01*
X018070Y015187D01*
X018070Y015053D01*
X018291Y015020D02*
X018424Y015020D01*
X018474Y014720D02*
X018441Y014687D01*
X018474Y014720D02*
X018541Y014720D01*
X018574Y014687D01*
X018574Y014653D01*
X018441Y014520D01*
X018574Y014520D01*
X018353Y014520D02*
X018287Y014587D01*
X018320Y014587D02*
X018220Y014587D01*
X018220Y014520D02*
X018220Y014720D01*
X018320Y014720D01*
X018353Y014687D01*
X018353Y014620D01*
X018320Y014587D01*
X025170Y006220D02*
X025270Y006220D01*
X025303Y006187D01*
X025303Y006120D01*
X025270Y006087D01*
X025170Y006087D01*
X025237Y006087D02*
X025303Y006020D01*
X025391Y006053D02*
X025424Y006020D01*
X025491Y006020D01*
X025524Y006053D01*
X025524Y006187D01*
X025491Y006220D01*
X025424Y006220D01*
X025391Y006187D01*
X025391Y006153D01*
X025424Y006120D01*
X025524Y006120D01*
X025170Y006020D02*
X025170Y006220D01*
D11*
X024750Y005900D02*
X024750Y005300D01*
X025950Y005300D01*
X025950Y005900D01*
X024750Y005900D01*
X016650Y009450D02*
X016650Y010650D01*
X016050Y010650D01*
X016050Y009450D01*
X016650Y009450D01*
X015900Y009450D02*
X015300Y009450D01*
X015300Y010650D01*
X015900Y010650D01*
X015900Y009450D01*
X015900Y010750D02*
X015300Y010750D01*
X015300Y011950D01*
X015900Y011950D01*
X015900Y010750D01*
X016050Y010750D02*
X016050Y011950D01*
X016650Y011950D01*
X016650Y010750D01*
X016050Y010750D01*
X016050Y012450D02*
X016650Y012450D01*
X016650Y013650D01*
X016050Y013650D01*
X016050Y012450D01*
X015900Y012450D02*
X015300Y012450D01*
X015300Y013650D01*
X015900Y013650D01*
X015900Y012450D01*
X015150Y012450D02*
X014550Y012450D01*
X014550Y013650D01*
X015150Y013650D01*
X015150Y012450D01*
X014400Y012450D02*
X013800Y012450D01*
X013800Y013650D01*
X014400Y013650D01*
X014400Y012450D01*
X016250Y013800D02*
X016250Y014400D01*
X017450Y014400D01*
X017450Y013800D01*
X016250Y013800D01*
X017300Y014500D02*
X017300Y015700D01*
X017900Y015700D01*
X017900Y014500D01*
X017300Y014500D01*
X017750Y014400D02*
X017750Y013800D01*
X018950Y013800D01*
X018950Y014400D01*
X017750Y014400D01*
X018050Y013600D02*
X018650Y013600D01*
X018650Y012400D01*
X018050Y012400D01*
X018050Y013600D01*
X018450Y015800D02*
X017250Y015800D01*
X017250Y016400D01*
X018450Y016400D01*
X018450Y015800D01*
X018450Y016500D02*
X017250Y016500D01*
X017250Y017100D01*
X018450Y017100D01*
X018450Y016500D01*
X013407Y016100D02*
X013409Y016182D01*
X013415Y016263D01*
X013425Y016345D01*
X013439Y016425D01*
X013456Y016505D01*
X013478Y016584D01*
X013503Y016662D01*
X013532Y016738D01*
X013565Y016813D01*
X013601Y016887D01*
X013641Y016958D01*
X013684Y017028D01*
X013730Y017095D01*
X013780Y017160D01*
X013833Y017223D01*
X013888Y017283D01*
X013947Y017340D01*
X014008Y017394D01*
X014072Y017445D01*
X014138Y017493D01*
X014207Y017538D01*
X014277Y017580D01*
X014350Y017618D01*
X014424Y017652D01*
X014500Y017683D01*
X014577Y017710D01*
X014655Y017734D01*
X014735Y017753D01*
X014815Y017769D01*
X014896Y017781D01*
X014977Y017789D01*
X015059Y017793D01*
X015141Y017793D01*
X015223Y017789D01*
X015304Y017781D01*
X015385Y017769D01*
X015465Y017753D01*
X015545Y017734D01*
X015623Y017710D01*
X015700Y017683D01*
X015776Y017652D01*
X015850Y017618D01*
X015923Y017580D01*
X015993Y017538D01*
X016062Y017493D01*
X016128Y017445D01*
X016192Y017394D01*
X016253Y017340D01*
X016312Y017283D01*
X016367Y017223D01*
X016420Y017160D01*
X016470Y017095D01*
X016516Y017028D01*
X016559Y016958D01*
X016599Y016887D01*
X016635Y016813D01*
X016668Y016738D01*
X016697Y016662D01*
X016722Y016584D01*
X016744Y016505D01*
X016761Y016425D01*
X016775Y016345D01*
X016785Y016263D01*
X016791Y016182D01*
X016793Y016100D01*
X016791Y016018D01*
X016785Y015937D01*
X016775Y015855D01*
X016761Y015775D01*
X016744Y015695D01*
X016722Y015616D01*
X016697Y015538D01*
X016668Y015462D01*
X016635Y015387D01*
X016599Y015313D01*
X016559Y015242D01*
X016516Y015172D01*
X016470Y015105D01*
X016420Y015040D01*
X016367Y014977D01*
X016312Y014917D01*
X016253Y014860D01*
X016192Y014806D01*
X016128Y014755D01*
X016062Y014707D01*
X015993Y014662D01*
X015923Y014620D01*
X015850Y014582D01*
X015776Y014548D01*
X015700Y014517D01*
X015623Y014490D01*
X015545Y014466D01*
X015465Y014447D01*
X015385Y014431D01*
X015304Y014419D01*
X015223Y014411D01*
X015141Y014407D01*
X015059Y014407D01*
X014977Y014411D01*
X014896Y014419D01*
X014815Y014431D01*
X014735Y014447D01*
X014655Y014466D01*
X014577Y014490D01*
X014500Y014517D01*
X014424Y014548D01*
X014350Y014582D01*
X014277Y014620D01*
X014207Y014662D01*
X014138Y014707D01*
X014072Y014755D01*
X014008Y014806D01*
X013947Y014860D01*
X013888Y014917D01*
X013833Y014977D01*
X013780Y015040D01*
X013730Y015105D01*
X013684Y015172D01*
X013641Y015242D01*
X013601Y015313D01*
X013565Y015387D01*
X013532Y015462D01*
X013503Y015538D01*
X013478Y015616D01*
X013456Y015695D01*
X013439Y015775D01*
X013425Y015855D01*
X013415Y015937D01*
X013409Y016018D01*
X013407Y016100D01*
X013210Y016100D02*
X013212Y016187D01*
X013218Y016273D01*
X013228Y016359D01*
X013242Y016445D01*
X013259Y016530D01*
X013281Y016614D01*
X013307Y016696D01*
X013336Y016778D01*
X013369Y016858D01*
X013405Y016937D01*
X013445Y017014D01*
X013489Y017088D01*
X013536Y017161D01*
X013586Y017232D01*
X013640Y017300D01*
X013696Y017366D01*
X013756Y017429D01*
X013818Y017489D01*
X013883Y017546D01*
X013951Y017601D01*
X014021Y017652D01*
X014093Y017699D01*
X014168Y017744D01*
X014244Y017785D01*
X014322Y017822D01*
X014402Y017856D01*
X014483Y017886D01*
X014566Y017913D01*
X014649Y017935D01*
X014734Y017954D01*
X014819Y017969D01*
X014905Y017980D01*
X014992Y017987D01*
X015078Y017990D01*
X015165Y017989D01*
X015252Y017984D01*
X015338Y017975D01*
X015423Y017962D01*
X015508Y017945D01*
X015593Y017925D01*
X015676Y017900D01*
X015758Y017872D01*
X015838Y017840D01*
X015917Y017804D01*
X015995Y017765D01*
X016070Y017722D01*
X016143Y017676D01*
X016214Y017626D01*
X016283Y017574D01*
X016350Y017518D01*
X016413Y017459D01*
X016474Y017398D01*
X016532Y017333D01*
X016587Y017266D01*
X016639Y017197D01*
X016688Y017125D01*
X016733Y017051D01*
X016775Y016975D01*
X016813Y016898D01*
X016848Y016818D01*
X016879Y016737D01*
X016907Y016655D01*
X016930Y016572D01*
X016950Y016487D01*
X016966Y016402D01*
X016978Y016316D01*
X016986Y016230D01*
X016990Y016143D01*
X016990Y016057D01*
X016986Y015970D01*
X016978Y015884D01*
X016966Y015798D01*
X016950Y015713D01*
X016930Y015628D01*
X016907Y015545D01*
X016879Y015463D01*
X016848Y015382D01*
X016813Y015302D01*
X016775Y015225D01*
X016733Y015149D01*
X016688Y015075D01*
X016639Y015003D01*
X016587Y014934D01*
X016532Y014867D01*
X016474Y014802D01*
X016413Y014741D01*
X016350Y014682D01*
X016283Y014626D01*
X016214Y014574D01*
X016143Y014524D01*
X016070Y014478D01*
X015995Y014435D01*
X015917Y014396D01*
X015838Y014360D01*
X015758Y014328D01*
X015676Y014300D01*
X015593Y014275D01*
X015508Y014255D01*
X015423Y014238D01*
X015338Y014225D01*
X015252Y014216D01*
X015165Y014211D01*
X015078Y014210D01*
X014992Y014213D01*
X014905Y014220D01*
X014819Y014231D01*
X014734Y014246D01*
X014649Y014265D01*
X014566Y014287D01*
X014483Y014314D01*
X014402Y014344D01*
X014322Y014378D01*
X014244Y014415D01*
X014168Y014456D01*
X014093Y014501D01*
X014021Y014548D01*
X013951Y014599D01*
X013883Y014654D01*
X013818Y014711D01*
X013756Y014771D01*
X013696Y014834D01*
X013640Y014900D01*
X013586Y014968D01*
X013536Y015039D01*
X013489Y015112D01*
X013445Y015186D01*
X013405Y015263D01*
X013369Y015342D01*
X013336Y015422D01*
X013307Y015504D01*
X013281Y015586D01*
X013259Y015670D01*
X013242Y015755D01*
X013228Y015841D01*
X013218Y015927D01*
X013212Y016013D01*
X013210Y016100D01*
X005450Y013400D02*
X005450Y012800D01*
X004250Y012800D01*
X004250Y013400D01*
X005450Y013400D01*
X009600Y010900D02*
X010200Y010900D01*
X010200Y009700D01*
X009600Y009700D01*
X009600Y010900D01*
X010400Y011100D02*
X011200Y011100D01*
X011200Y009500D01*
X010400Y009500D01*
X010400Y011100D01*
X005450Y005900D02*
X004250Y005900D01*
X004250Y005300D01*
X005450Y005300D01*
X005450Y005900D01*
X024700Y012050D02*
X024700Y012650D01*
X025900Y012650D01*
X025900Y012050D01*
X024700Y012050D01*
X024700Y012800D02*
X024700Y013400D01*
X025900Y013400D01*
X025900Y012800D01*
X024700Y012800D01*
D12*
X007950Y006700D02*
X007950Y003500D01*
X008700Y003500D01*
X008700Y001100D01*
X009900Y001100D01*
X009900Y002100D01*
X021900Y002100D01*
X021900Y001100D01*
X009900Y001100D01*
X008700Y006700D02*
X007950Y006700D01*
X008700Y006700D02*
X008700Y009100D01*
X009900Y009100D01*
X009900Y008100D01*
X021900Y008100D01*
X021900Y009100D01*
X009900Y009100D01*
X021900Y009100D02*
X023100Y008500D01*
X023100Y001700D01*
X021900Y001100D01*
D13*
X016100Y014350D02*
X014100Y014350D01*
X014100Y015100D01*
X016100Y015100D01*
X016100Y014350D01*
X016100Y015100D02*
X016100Y016850D01*
X014100Y016850D01*
X014100Y015100D01*
D14*
X016917Y013247D02*
X016917Y012853D01*
X017783Y012853D02*
X017783Y013247D01*
D15*
X023240Y012860D02*
X023240Y012540D01*
X023240Y012860D02*
X023460Y012860D01*
X024140Y012860D02*
X024360Y012860D01*
X024360Y012540D01*
M02*
