G75*
%MOIN*%
%OFA0B0*%
%FSLAX24Y24*%
%IPPOS*%
%LPD*%
%AMOC8*
5,1,8,0,0,1.08239X$1,22.5*
%
%ADD10C,0.0517*%
%ADD11C,0.0551*%
%ADD12R,0.0425X0.0425*%
%ADD13C,0.0160*%
%ADD14C,0.0240*%
%ADD15C,0.0100*%
%ADD16C,0.0320*%
D10*
X012391Y002150D02*
X012909Y002150D01*
X012909Y003150D02*
X012391Y003150D01*
X012391Y006650D02*
X012909Y006650D01*
X012909Y007650D02*
X012391Y007650D01*
X012391Y010150D02*
X012909Y010150D01*
X012909Y011150D02*
X012391Y011150D01*
D11*
X015374Y010150D02*
X015926Y010150D01*
X015926Y009150D02*
X015374Y009150D01*
X015374Y008150D02*
X015926Y008150D01*
X015926Y007150D02*
X015374Y007150D01*
X015374Y006150D02*
X015926Y006150D01*
X015926Y003650D02*
X015374Y003650D01*
X015374Y002650D02*
X015926Y002650D01*
X015926Y001650D02*
X015374Y001650D01*
X004426Y006650D02*
X003874Y006650D01*
X003874Y007650D02*
X004426Y007650D01*
X004426Y008650D02*
X003874Y008650D01*
X003874Y009650D02*
X004426Y009650D01*
X004426Y010650D02*
X003874Y010650D01*
D12*
X002150Y010150D03*
X001150Y007650D03*
X002400Y007400D03*
X001150Y005650D03*
X001650Y004650D03*
X004650Y003520D03*
X005900Y002150D03*
X008350Y002700D03*
X008400Y004650D03*
X006650Y005900D03*
X006150Y006650D03*
X007400Y007900D03*
X008150Y009150D03*
X007400Y010150D03*
X006650Y010650D03*
X006150Y011650D03*
X008150Y013650D03*
X008650Y014650D03*
X006150Y014650D03*
X010150Y009150D03*
X009150Y007150D03*
X014150Y001150D03*
D13*
X015650Y000650D02*
X015650Y001650D01*
X015650Y000650D02*
X004650Y000650D01*
X004650Y002650D01*
X004650Y003520D01*
X004650Y002650D02*
X008350Y002650D01*
X008350Y002700D01*
X006150Y006650D02*
X004150Y006650D01*
X002650Y007150D02*
X009150Y007150D01*
X008150Y009150D02*
X010150Y009150D01*
X013650Y009150D01*
X014650Y010150D01*
X015650Y010150D01*
X008650Y014650D02*
X006150Y014650D01*
X006150Y011650D02*
X004150Y011650D01*
X004150Y010650D01*
X005150Y010150D02*
X002150Y010150D01*
X001150Y007650D02*
X001150Y005650D01*
X002650Y007150D02*
X002400Y007400D01*
X005150Y010150D02*
X005650Y010650D01*
X006650Y010650D01*
D14*
X006650Y005900D02*
X006400Y005650D01*
X004650Y005650D01*
X004650Y003520D01*
D15*
X003388Y000722D02*
X002949Y000440D01*
X017352Y000440D01*
X017352Y015730D01*
X000440Y015730D01*
X000440Y002909D01*
X000560Y003172D01*
X000560Y003172D01*
X000912Y003578D01*
X000912Y003578D01*
X000912Y003578D01*
X001365Y003869D01*
X001365Y003869D01*
X001881Y004021D01*
X002419Y004021D01*
X002935Y003869D01*
X002935Y003869D01*
X003388Y003578D01*
X003388Y003578D01*
X003740Y003172D01*
X003740Y003172D01*
X003963Y002682D01*
X003963Y002682D01*
X004040Y002150D01*
X003963Y001618D01*
X003963Y001618D01*
X003740Y001128D01*
X003740Y001128D01*
X003388Y000722D01*
X003388Y000722D01*
X003388Y000722D01*
X003404Y000741D02*
X005712Y000741D01*
X005645Y000769D02*
X005810Y000700D01*
X013765Y000700D01*
X013773Y000692D01*
X013880Y000647D01*
X014420Y000647D01*
X014527Y000692D01*
X014608Y000773D01*
X014653Y000880D01*
X014653Y001420D01*
X014608Y001527D01*
X014527Y001608D01*
X014420Y001653D01*
X013880Y001653D01*
X013773Y001608D01*
X013765Y001600D01*
X006350Y001600D01*
X006350Y001765D01*
X006358Y001773D01*
X006403Y001880D01*
X006403Y002420D01*
X006358Y002527D01*
X006277Y002608D01*
X006170Y002653D01*
X005630Y002653D01*
X005523Y002608D01*
X005442Y002527D01*
X005397Y002420D01*
X005397Y001880D01*
X005442Y001773D01*
X005450Y001765D01*
X005450Y001060D01*
X005519Y000895D01*
X005645Y000769D01*
X005574Y000840D02*
X003490Y000840D01*
X003575Y000938D02*
X005501Y000938D01*
X005460Y001037D02*
X003661Y001037D01*
X003743Y001135D02*
X005450Y001135D01*
X005450Y001234D02*
X003788Y001234D01*
X003833Y001332D02*
X005450Y001332D01*
X005450Y001431D02*
X003878Y001431D01*
X003923Y001529D02*
X005450Y001529D01*
X005450Y001628D02*
X003965Y001628D01*
X003979Y001726D02*
X005450Y001726D01*
X005420Y001825D02*
X003993Y001825D01*
X004007Y001923D02*
X005397Y001923D01*
X005397Y002022D02*
X004022Y002022D01*
X004036Y002120D02*
X005397Y002120D01*
X005397Y002219D02*
X004030Y002219D01*
X004016Y002317D02*
X005397Y002317D01*
X005397Y002416D02*
X004002Y002416D01*
X003988Y002514D02*
X005436Y002514D01*
X005533Y002613D02*
X003974Y002613D01*
X003950Y002711D02*
X012054Y002711D01*
X012080Y002685D02*
X012164Y002650D01*
X012080Y002615D01*
X011926Y002461D01*
X011843Y002259D01*
X011843Y002041D01*
X011926Y001839D01*
X012080Y001685D01*
X012282Y001601D01*
X013018Y001601D01*
X013220Y001685D01*
X013374Y001839D01*
X013457Y002041D01*
X013457Y002243D01*
X013560Y002200D01*
X015025Y002200D01*
X015054Y002171D01*
X015262Y002084D01*
X016038Y002084D01*
X016246Y002171D01*
X016405Y002330D01*
X016491Y002537D01*
X016491Y002763D01*
X016405Y002970D01*
X016246Y003129D01*
X016196Y003150D01*
X016246Y003171D01*
X016405Y003330D01*
X016491Y003537D01*
X016491Y003763D01*
X016405Y003970D01*
X016246Y004129D01*
X016038Y004216D01*
X015262Y004216D01*
X015100Y004149D01*
X015100Y005651D01*
X015262Y005584D01*
X016038Y005584D01*
X016246Y005671D01*
X016405Y005830D01*
X016491Y006037D01*
X016491Y006263D01*
X016405Y006470D01*
X016246Y006629D01*
X016196Y006650D01*
X016246Y006671D01*
X016405Y006830D01*
X016491Y007037D01*
X016491Y007263D01*
X016405Y007470D01*
X016246Y007629D01*
X016196Y007650D01*
X016246Y007671D01*
X016405Y007830D01*
X016491Y008037D01*
X016491Y008263D01*
X016405Y008470D01*
X016246Y008629D01*
X016196Y008650D01*
X016246Y008671D01*
X016405Y008830D01*
X016491Y009037D01*
X016491Y009263D01*
X016405Y009470D01*
X016246Y009629D01*
X016038Y009716D01*
X015262Y009716D01*
X015054Y009629D01*
X014895Y009470D01*
X014809Y009263D01*
X014809Y009037D01*
X014895Y008830D01*
X015054Y008671D01*
X015104Y008650D01*
X015054Y008629D01*
X014895Y008470D01*
X014809Y008263D01*
X014809Y008037D01*
X014895Y007830D01*
X015054Y007671D01*
X015104Y007650D01*
X015054Y007629D01*
X014895Y007470D01*
X014809Y007263D01*
X014809Y007037D01*
X014895Y006830D01*
X015054Y006671D01*
X015104Y006650D01*
X015054Y006629D01*
X014895Y006470D01*
X014809Y006263D01*
X014809Y006071D01*
X014740Y006100D01*
X011836Y006100D01*
X011600Y006336D01*
X011600Y007240D01*
X011531Y007405D01*
X011405Y007531D01*
X011240Y007600D01*
X009535Y007600D01*
X009527Y007608D01*
X009420Y007653D01*
X008880Y007653D01*
X008773Y007608D01*
X008692Y007527D01*
X008689Y007520D01*
X007855Y007520D01*
X007858Y007523D01*
X007903Y007630D01*
X007903Y008170D01*
X007858Y008277D01*
X007850Y008285D01*
X007850Y009765D01*
X007858Y009773D01*
X007903Y009880D01*
X007903Y010420D01*
X007858Y010527D01*
X007850Y010535D01*
X007850Y013160D01*
X007880Y013147D01*
X008420Y013147D01*
X008527Y013192D01*
X008608Y013273D01*
X008653Y013380D01*
X008653Y013920D01*
X008608Y014027D01*
X008527Y014108D01*
X008433Y014147D01*
X008920Y014147D01*
X009027Y014192D01*
X009108Y014273D01*
X009153Y014380D01*
X009153Y014920D01*
X009108Y015027D01*
X009027Y015108D01*
X008920Y015153D01*
X008380Y015153D01*
X008273Y015108D01*
X008192Y015027D01*
X008189Y015020D01*
X006611Y015020D01*
X006608Y015027D01*
X006527Y015108D01*
X006420Y015153D01*
X005880Y015153D01*
X005773Y015108D01*
X005692Y015027D01*
X005647Y014920D01*
X005647Y014380D01*
X005692Y014273D01*
X005773Y014192D01*
X005880Y014147D01*
X006420Y014147D01*
X006527Y014192D01*
X006608Y014273D01*
X006611Y014280D01*
X008189Y014280D01*
X008192Y014273D01*
X008273Y014192D01*
X008367Y014153D01*
X007880Y014153D01*
X007773Y014108D01*
X007765Y014100D01*
X007310Y014100D01*
X007145Y014031D01*
X007019Y013905D01*
X006950Y013740D01*
X006950Y011140D01*
X006920Y011153D01*
X006380Y011153D01*
X006273Y011108D01*
X006192Y011027D01*
X006189Y011020D01*
X005576Y011020D01*
X005440Y010964D01*
X004997Y010520D01*
X004809Y010520D01*
X004814Y010532D01*
X004828Y010602D01*
X004198Y010602D01*
X004198Y010698D01*
X004102Y010698D01*
X004102Y010602D01*
X003472Y010602D01*
X003486Y010532D01*
X003491Y010520D01*
X002611Y010520D01*
X002608Y010527D01*
X002527Y010608D01*
X002420Y010653D01*
X001880Y010653D01*
X001773Y010608D01*
X001692Y010527D01*
X001647Y010420D01*
X001647Y009880D01*
X001692Y009773D01*
X001773Y009692D01*
X001880Y009647D01*
X002420Y009647D01*
X002527Y009692D01*
X002608Y009773D01*
X002611Y009780D01*
X003316Y009780D01*
X003309Y009763D01*
X003309Y009537D01*
X003395Y009330D01*
X003554Y009171D01*
X003604Y009150D01*
X003554Y009129D01*
X003395Y008970D01*
X003309Y008763D01*
X003309Y008537D01*
X003395Y008330D01*
X003554Y008171D01*
X003604Y008150D01*
X003554Y008129D01*
X003395Y007970D01*
X003309Y007763D01*
X003309Y007537D01*
X003316Y007520D01*
X002903Y007520D01*
X002903Y007670D01*
X002858Y007777D01*
X002777Y007858D01*
X002670Y007903D01*
X002130Y007903D01*
X002023Y007858D01*
X001942Y007777D01*
X001897Y007670D01*
X001897Y007130D01*
X001942Y007023D01*
X002023Y006942D01*
X002130Y006897D01*
X002379Y006897D01*
X002440Y006836D01*
X002576Y006780D01*
X003316Y006780D01*
X003309Y006763D01*
X003309Y006537D01*
X003395Y006330D01*
X003554Y006171D01*
X003762Y006084D01*
X004538Y006084D01*
X004746Y006171D01*
X004855Y006280D01*
X005689Y006280D01*
X005692Y006273D01*
X005773Y006192D01*
X005880Y006147D01*
X006420Y006147D01*
X006527Y006192D01*
X006608Y006273D01*
X006653Y006380D01*
X006653Y006780D01*
X008689Y006780D01*
X008692Y006773D01*
X008773Y006692D01*
X008880Y006647D01*
X009420Y006647D01*
X009527Y006692D01*
X009535Y006700D01*
X010700Y006700D01*
X010700Y006060D01*
X001575Y006060D01*
X001608Y006027D02*
X001527Y006108D01*
X001520Y006111D01*
X001520Y007189D01*
X001527Y007192D01*
X001608Y007273D01*
X001653Y007380D01*
X001653Y007920D01*
X001608Y008027D01*
X001527Y008108D01*
X001420Y008153D01*
X000880Y008153D01*
X000773Y008108D01*
X000692Y008027D01*
X000647Y007920D01*
X000647Y007380D01*
X000692Y007273D01*
X000773Y007192D01*
X000780Y007189D01*
X000780Y006111D01*
X000773Y006108D01*
X000692Y006027D01*
X000647Y005920D01*
X000647Y005380D01*
X000692Y005273D01*
X000773Y005192D01*
X000880Y005147D01*
X001420Y005147D01*
X001527Y005192D01*
X001608Y005273D01*
X001653Y005380D01*
X001653Y005920D01*
X001608Y006027D01*
X001636Y005962D02*
X010741Y005962D01*
X010769Y005895D02*
X011269Y005395D01*
X011395Y005269D01*
X011560Y005200D01*
X014200Y005200D01*
X014200Y003560D01*
X014269Y003395D01*
X014395Y003269D01*
X014560Y003200D01*
X015025Y003200D01*
X015054Y003171D01*
X015104Y003150D01*
X015054Y003129D01*
X015025Y003100D01*
X014100Y003100D01*
X014100Y004740D01*
X014031Y004905D01*
X013905Y005031D01*
X013740Y005100D01*
X008785Y005100D01*
X008777Y005108D01*
X008670Y005153D01*
X008130Y005153D01*
X008023Y005108D01*
X007942Y005027D01*
X007897Y004920D01*
X007897Y004380D01*
X007942Y004273D01*
X008023Y004192D01*
X008130Y004147D01*
X008670Y004147D01*
X008777Y004192D01*
X008785Y004200D01*
X013200Y004200D01*
X013200Y003623D01*
X013018Y003699D01*
X012282Y003699D01*
X012080Y003615D01*
X011926Y003461D01*
X011843Y003259D01*
X011843Y003041D01*
X011926Y002839D01*
X012080Y002685D01*
X012078Y002613D02*
X006267Y002613D01*
X006364Y002514D02*
X011979Y002514D01*
X011907Y002416D02*
X006403Y002416D01*
X006403Y002317D02*
X011866Y002317D01*
X011843Y002219D02*
X006403Y002219D01*
X006403Y002120D02*
X011843Y002120D01*
X011851Y002022D02*
X006403Y002022D01*
X006403Y001923D02*
X011891Y001923D01*
X011941Y001825D02*
X006380Y001825D01*
X006350Y001726D02*
X012039Y001726D01*
X012219Y001628D02*
X006350Y001628D01*
X003905Y002810D02*
X011956Y002810D01*
X011898Y002908D02*
X003860Y002908D01*
X003815Y003007D02*
X011857Y003007D01*
X011843Y003105D02*
X003770Y003105D01*
X003713Y003204D02*
X011843Y003204D01*
X011860Y003302D02*
X003627Y003302D01*
X003542Y003401D02*
X011901Y003401D01*
X011964Y003499D02*
X003456Y003499D01*
X003358Y003598D02*
X012063Y003598D01*
X012276Y003696D02*
X003205Y003696D01*
X003051Y003795D02*
X013200Y003795D01*
X013200Y003893D02*
X002854Y003893D01*
X002519Y003992D02*
X013200Y003992D01*
X013200Y004090D02*
X000440Y004090D01*
X000440Y003992D02*
X001781Y003992D01*
X001446Y003893D02*
X000440Y003893D01*
X000440Y003795D02*
X001249Y003795D01*
X001095Y003696D02*
X000440Y003696D01*
X000440Y003598D02*
X000942Y003598D01*
X000844Y003499D02*
X000440Y003499D01*
X000440Y003401D02*
X000758Y003401D01*
X000673Y003302D02*
X000440Y003302D01*
X000440Y003204D02*
X000587Y003204D01*
X000530Y003105D02*
X000440Y003105D01*
X000440Y003007D02*
X000485Y003007D01*
X000440Y004189D02*
X008030Y004189D01*
X007936Y004287D02*
X000440Y004287D01*
X000440Y004386D02*
X007897Y004386D01*
X007897Y004484D02*
X000440Y004484D01*
X000440Y004583D02*
X007897Y004583D01*
X007897Y004681D02*
X000440Y004681D01*
X000440Y004780D02*
X007897Y004780D01*
X007897Y004878D02*
X000440Y004878D01*
X000440Y004977D02*
X007921Y004977D01*
X007990Y005075D02*
X000440Y005075D01*
X000440Y005174D02*
X000817Y005174D01*
X000693Y005272D02*
X000440Y005272D01*
X000440Y005371D02*
X000651Y005371D01*
X000647Y005469D02*
X000440Y005469D01*
X000440Y005568D02*
X000647Y005568D01*
X000647Y005666D02*
X000440Y005666D01*
X000440Y005765D02*
X000647Y005765D01*
X000647Y005863D02*
X000440Y005863D01*
X000440Y005962D02*
X000664Y005962D01*
X000725Y006060D02*
X000440Y006060D01*
X000440Y006159D02*
X000780Y006159D01*
X000780Y006257D02*
X000440Y006257D01*
X000440Y006356D02*
X000780Y006356D01*
X000780Y006454D02*
X000440Y006454D01*
X000440Y006553D02*
X000780Y006553D01*
X000780Y006651D02*
X000440Y006651D01*
X000440Y006750D02*
X000780Y006750D01*
X000780Y006848D02*
X000440Y006848D01*
X000440Y006947D02*
X000780Y006947D01*
X000780Y007045D02*
X000440Y007045D01*
X000440Y007144D02*
X000780Y007144D01*
X000723Y007242D02*
X000440Y007242D01*
X000440Y007341D02*
X000664Y007341D01*
X000647Y007439D02*
X000440Y007439D01*
X000440Y007538D02*
X000647Y007538D01*
X000647Y007636D02*
X000440Y007636D01*
X000440Y007735D02*
X000647Y007735D01*
X000647Y007833D02*
X000440Y007833D01*
X000440Y007932D02*
X000652Y007932D01*
X000695Y008030D02*
X000440Y008030D01*
X000440Y008129D02*
X000822Y008129D01*
X000440Y008227D02*
X003498Y008227D01*
X003553Y008129D02*
X001478Y008129D01*
X001605Y008030D02*
X003455Y008030D01*
X003379Y007932D02*
X001648Y007932D01*
X001653Y007833D02*
X001998Y007833D01*
X001924Y007735D02*
X001653Y007735D01*
X001653Y007636D02*
X001897Y007636D01*
X001897Y007538D02*
X001653Y007538D01*
X001653Y007439D02*
X001897Y007439D01*
X001897Y007341D02*
X001636Y007341D01*
X001577Y007242D02*
X001897Y007242D01*
X001897Y007144D02*
X001520Y007144D01*
X001520Y007045D02*
X001932Y007045D01*
X002018Y006947D02*
X001520Y006947D01*
X001520Y006848D02*
X002429Y006848D01*
X002903Y007538D02*
X003309Y007538D01*
X003309Y007636D02*
X002903Y007636D01*
X002876Y007735D02*
X003309Y007735D01*
X003338Y007833D02*
X002802Y007833D01*
X003399Y008326D02*
X000440Y008326D01*
X000440Y008424D02*
X003356Y008424D01*
X003315Y008523D02*
X000440Y008523D01*
X000440Y008621D02*
X003309Y008621D01*
X003309Y008720D02*
X000440Y008720D01*
X000440Y008818D02*
X003332Y008818D01*
X003373Y008917D02*
X000440Y008917D01*
X000440Y009015D02*
X003440Y009015D01*
X003538Y009114D02*
X000440Y009114D01*
X000440Y009212D02*
X003513Y009212D01*
X003414Y009311D02*
X000440Y009311D01*
X000440Y009409D02*
X003362Y009409D01*
X003321Y009508D02*
X000440Y009508D01*
X000440Y009606D02*
X003309Y009606D01*
X003309Y009705D02*
X002540Y009705D01*
X001760Y009705D02*
X000440Y009705D01*
X000440Y009803D02*
X001679Y009803D01*
X001647Y009902D02*
X000440Y009902D01*
X000440Y010000D02*
X001647Y010000D01*
X001647Y010099D02*
X000440Y010099D01*
X000440Y010197D02*
X001647Y010197D01*
X001647Y010296D02*
X000440Y010296D01*
X000440Y010394D02*
X001647Y010394D01*
X001677Y010493D02*
X000440Y010493D01*
X000440Y010591D02*
X001756Y010591D01*
X002544Y010591D02*
X003474Y010591D01*
X003472Y010698D02*
X004102Y010698D01*
X004102Y011054D01*
X003835Y011054D01*
X003756Y011039D01*
X003683Y011008D01*
X003617Y010964D01*
X003560Y010908D01*
X003516Y010842D01*
X003486Y010768D01*
X003472Y010698D01*
X003494Y010788D02*
X000440Y010788D01*
X000440Y010690D02*
X004102Y010690D01*
X004198Y010690D02*
X005166Y010690D01*
X005265Y010788D02*
X004806Y010788D01*
X004814Y010768D02*
X004784Y010842D01*
X004740Y010908D01*
X004683Y010964D01*
X004617Y011008D01*
X004544Y011039D01*
X004465Y011054D01*
X004198Y011054D01*
X004198Y010698D01*
X004828Y010698D01*
X004814Y010768D01*
X004754Y010887D02*
X005363Y010887D01*
X005492Y010985D02*
X004652Y010985D01*
X004826Y010591D02*
X005068Y010591D01*
X004198Y010788D02*
X004102Y010788D01*
X004102Y010887D02*
X004198Y010887D01*
X004198Y010985D02*
X004102Y010985D01*
X003648Y010985D02*
X000440Y010985D01*
X000440Y010887D02*
X003546Y010887D01*
X006248Y011084D02*
X000440Y011084D01*
X000440Y011182D02*
X006950Y011182D01*
X006950Y011281D02*
X000440Y011281D01*
X000440Y011379D02*
X006950Y011379D01*
X006950Y011478D02*
X000440Y011478D01*
X000440Y011576D02*
X006950Y011576D01*
X006950Y011675D02*
X000440Y011675D01*
X000440Y011773D02*
X006950Y011773D01*
X006950Y011872D02*
X000440Y011872D01*
X000440Y011970D02*
X006950Y011970D01*
X006950Y012069D02*
X000440Y012069D01*
X000440Y012167D02*
X006950Y012167D01*
X006950Y012266D02*
X000440Y012266D01*
X000440Y012364D02*
X006950Y012364D01*
X006950Y012463D02*
X000440Y012463D01*
X000440Y012561D02*
X006950Y012561D01*
X006950Y012660D02*
X000440Y012660D01*
X000440Y012758D02*
X006950Y012758D01*
X006950Y012857D02*
X000440Y012857D01*
X000440Y012955D02*
X006950Y012955D01*
X006950Y013054D02*
X000440Y013054D01*
X000440Y013152D02*
X006950Y013152D01*
X006950Y013251D02*
X000440Y013251D01*
X000440Y013349D02*
X006950Y013349D01*
X006950Y013448D02*
X000440Y013448D01*
X000440Y013546D02*
X006950Y013546D01*
X006950Y013645D02*
X000440Y013645D01*
X000440Y013743D02*
X006951Y013743D01*
X006992Y013842D02*
X000440Y013842D01*
X000440Y013940D02*
X007054Y013940D01*
X007162Y014039D02*
X000440Y014039D01*
X000440Y014137D02*
X007842Y014137D01*
X008229Y014236D02*
X006571Y014236D01*
X005729Y014236D02*
X000440Y014236D01*
X000440Y014334D02*
X005666Y014334D01*
X005647Y014433D02*
X000440Y014433D01*
X000440Y014531D02*
X005647Y014531D01*
X005647Y014630D02*
X000440Y014630D01*
X000440Y014728D02*
X005647Y014728D01*
X005647Y014827D02*
X000440Y014827D01*
X000440Y014925D02*
X005649Y014925D01*
X005690Y015024D02*
X000440Y015024D01*
X000440Y015122D02*
X005806Y015122D01*
X006494Y015122D02*
X008306Y015122D01*
X008190Y015024D02*
X006610Y015024D01*
X008458Y014137D02*
X013330Y014137D01*
X013337Y014182D02*
X013260Y013650D01*
X013337Y013118D01*
X013560Y012628D01*
X013912Y012222D01*
X014365Y011931D01*
X014881Y011779D01*
X015419Y011779D01*
X015935Y011931D01*
X016388Y012222D01*
X016740Y012628D01*
X016740Y012628D01*
X016963Y013118D01*
X017040Y013650D01*
X016963Y014182D01*
X016963Y014182D01*
X016740Y014672D01*
X016388Y015078D01*
X015935Y015369D01*
X015419Y015521D01*
X014881Y015521D01*
X014365Y015369D01*
X014365Y015369D01*
X013912Y015078D01*
X013560Y014672D01*
X013337Y014182D01*
X013361Y014236D02*
X009071Y014236D01*
X009134Y014334D02*
X013406Y014334D01*
X013451Y014433D02*
X009153Y014433D01*
X009153Y014531D02*
X013496Y014531D01*
X013541Y014630D02*
X009153Y014630D01*
X009153Y014728D02*
X013609Y014728D01*
X013694Y014827D02*
X009153Y014827D01*
X009151Y014925D02*
X013779Y014925D01*
X013865Y015024D02*
X009110Y015024D01*
X008994Y015122D02*
X013980Y015122D01*
X013912Y015078D02*
X013912Y015078D01*
X013912Y015078D01*
X014134Y015221D02*
X000440Y015221D01*
X000440Y015319D02*
X014287Y015319D01*
X014529Y015418D02*
X000440Y015418D01*
X000440Y015516D02*
X014865Y015516D01*
X015435Y015516D02*
X017352Y015516D01*
X017352Y015418D02*
X015771Y015418D01*
X015935Y015369D02*
X015935Y015369D01*
X016013Y015319D02*
X017352Y015319D01*
X017352Y015221D02*
X016166Y015221D01*
X016320Y015122D02*
X017352Y015122D01*
X017352Y015024D02*
X016435Y015024D01*
X016388Y015078D02*
X016388Y015078D01*
X016521Y014925D02*
X017352Y014925D01*
X017352Y014827D02*
X016606Y014827D01*
X016691Y014728D02*
X017352Y014728D01*
X017352Y014630D02*
X016759Y014630D01*
X016740Y014672D02*
X016740Y014672D01*
X016804Y014531D02*
X017352Y014531D01*
X017352Y014433D02*
X016849Y014433D01*
X016894Y014334D02*
X017352Y014334D01*
X017352Y014236D02*
X016939Y014236D01*
X016970Y014137D02*
X017352Y014137D01*
X017352Y014039D02*
X016984Y014039D01*
X016998Y013940D02*
X017352Y013940D01*
X017352Y013842D02*
X017012Y013842D01*
X017027Y013743D02*
X017352Y013743D01*
X017352Y013645D02*
X017039Y013645D01*
X017025Y013546D02*
X017352Y013546D01*
X017352Y013448D02*
X017011Y013448D01*
X016997Y013349D02*
X017352Y013349D01*
X017352Y013251D02*
X016983Y013251D01*
X016968Y013152D02*
X017352Y013152D01*
X017352Y013054D02*
X016934Y013054D01*
X016963Y013118D02*
X016963Y013118D01*
X016889Y012955D02*
X017352Y012955D01*
X017352Y012857D02*
X016844Y012857D01*
X016799Y012758D02*
X017352Y012758D01*
X017352Y012660D02*
X016754Y012660D01*
X016682Y012561D02*
X017352Y012561D01*
X017352Y012463D02*
X016596Y012463D01*
X016511Y012364D02*
X017352Y012364D01*
X017352Y012266D02*
X016426Y012266D01*
X016388Y012222D02*
X016388Y012222D01*
X016388Y012222D01*
X016303Y012167D02*
X017352Y012167D01*
X017352Y012069D02*
X016149Y012069D01*
X015996Y011970D02*
X017352Y011970D01*
X017352Y011872D02*
X015733Y011872D01*
X015935Y011931D02*
X015935Y011931D01*
X014567Y011872D02*
X007850Y011872D01*
X007850Y011970D02*
X014304Y011970D01*
X014365Y011931D02*
X014365Y011931D01*
X014151Y012069D02*
X007850Y012069D01*
X007850Y012167D02*
X013997Y012167D01*
X013912Y012222D02*
X013912Y012222D01*
X013874Y012266D02*
X007850Y012266D01*
X007850Y012364D02*
X013789Y012364D01*
X013704Y012463D02*
X007850Y012463D01*
X007850Y012561D02*
X013618Y012561D01*
X013560Y012628D02*
X013560Y012628D01*
X013546Y012660D02*
X007850Y012660D01*
X007850Y012758D02*
X013501Y012758D01*
X013456Y012857D02*
X007850Y012857D01*
X007850Y012955D02*
X013411Y012955D01*
X013366Y013054D02*
X007850Y013054D01*
X007850Y013152D02*
X007869Y013152D01*
X008431Y013152D02*
X013332Y013152D01*
X013317Y013251D02*
X008586Y013251D01*
X008640Y013349D02*
X013303Y013349D01*
X013289Y013448D02*
X008653Y013448D01*
X008653Y013546D02*
X013275Y013546D01*
X013261Y013645D02*
X008653Y013645D01*
X008653Y013743D02*
X013273Y013743D01*
X013288Y013842D02*
X008653Y013842D01*
X008644Y013940D02*
X013302Y013940D01*
X013316Y014039D02*
X008597Y014039D01*
X007850Y011773D02*
X017352Y011773D01*
X017352Y011675D02*
X013076Y011675D01*
X013018Y011699D02*
X012282Y011699D01*
X012080Y011615D01*
X011926Y011461D01*
X011843Y011259D01*
X011843Y011041D01*
X011926Y010839D01*
X012080Y010685D01*
X012164Y010650D01*
X012080Y010615D01*
X011926Y010461D01*
X011843Y010259D01*
X011843Y010041D01*
X011926Y009839D01*
X012080Y009685D01*
X012282Y009601D01*
X013018Y009601D01*
X013220Y009685D01*
X013374Y009839D01*
X013457Y010041D01*
X013457Y010259D01*
X013374Y010461D01*
X013220Y010615D01*
X013136Y010650D01*
X013220Y010685D01*
X013374Y010839D01*
X013457Y011041D01*
X013457Y011259D01*
X013374Y011461D01*
X013220Y011615D01*
X013018Y011699D01*
X013259Y011576D02*
X017352Y011576D01*
X017352Y011478D02*
X013357Y011478D01*
X013408Y011379D02*
X017352Y011379D01*
X017352Y011281D02*
X013449Y011281D01*
X013457Y011182D02*
X017352Y011182D01*
X017352Y011084D02*
X013457Y011084D01*
X013434Y010985D02*
X017352Y010985D01*
X017352Y010887D02*
X013394Y010887D01*
X013323Y010788D02*
X017352Y010788D01*
X017352Y010690D02*
X013224Y010690D01*
X013244Y010591D02*
X017352Y010591D01*
X017352Y010493D02*
X016141Y010493D01*
X016117Y010508D02*
X016044Y010539D01*
X015965Y010554D01*
X015698Y010554D01*
X015698Y010198D01*
X015602Y010198D01*
X015602Y010102D01*
X015698Y010102D01*
X015698Y009746D01*
X015965Y009746D01*
X016044Y009761D01*
X016117Y009792D01*
X016183Y009836D01*
X016240Y009892D01*
X016284Y009958D01*
X016314Y010032D01*
X016328Y010102D01*
X015698Y010102D01*
X015698Y010198D01*
X016328Y010198D01*
X016314Y010268D01*
X016284Y010342D01*
X016240Y010408D01*
X016183Y010464D01*
X016117Y010508D01*
X016249Y010394D02*
X017352Y010394D01*
X017352Y010296D02*
X016303Y010296D01*
X016328Y010099D02*
X017352Y010099D01*
X017352Y010197D02*
X015698Y010197D01*
X015602Y010197D02*
X013457Y010197D01*
X013457Y010099D02*
X014972Y010099D01*
X014972Y010102D02*
X014986Y010032D01*
X015016Y009958D01*
X015060Y009892D01*
X015117Y009836D01*
X015183Y009792D01*
X015256Y009761D01*
X015335Y009746D01*
X015602Y009746D01*
X015602Y010102D01*
X014972Y010102D01*
X014972Y010198D02*
X015602Y010198D01*
X015602Y010554D01*
X015335Y010554D01*
X015256Y010539D01*
X015183Y010508D01*
X015117Y010464D01*
X015060Y010408D01*
X015016Y010342D01*
X014986Y010268D01*
X014972Y010198D01*
X014997Y010296D02*
X013442Y010296D01*
X013402Y010394D02*
X015051Y010394D01*
X015159Y010493D02*
X013342Y010493D01*
X013441Y010000D02*
X014999Y010000D01*
X015054Y009902D02*
X013400Y009902D01*
X013338Y009803D02*
X015166Y009803D01*
X015235Y009705D02*
X013239Y009705D01*
X013029Y009606D02*
X015031Y009606D01*
X014932Y009508D02*
X007850Y009508D01*
X007850Y009606D02*
X012271Y009606D01*
X012061Y009705D02*
X007850Y009705D01*
X007871Y009803D02*
X011962Y009803D01*
X011900Y009902D02*
X007903Y009902D01*
X007903Y010000D02*
X011859Y010000D01*
X011843Y010099D02*
X007903Y010099D01*
X007903Y010197D02*
X011843Y010197D01*
X011858Y010296D02*
X007903Y010296D01*
X007903Y010394D02*
X011898Y010394D01*
X011958Y010493D02*
X007873Y010493D01*
X007850Y010591D02*
X012056Y010591D01*
X012076Y010690D02*
X007850Y010690D01*
X007850Y010788D02*
X011977Y010788D01*
X011906Y010887D02*
X007850Y010887D01*
X007850Y010985D02*
X011866Y010985D01*
X011843Y011084D02*
X007850Y011084D01*
X007850Y011182D02*
X011843Y011182D01*
X011851Y011281D02*
X007850Y011281D01*
X007850Y011379D02*
X011892Y011379D01*
X011943Y011478D02*
X007850Y011478D01*
X007850Y011576D02*
X012041Y011576D01*
X012224Y011675D02*
X007850Y011675D01*
X007850Y009409D02*
X014870Y009409D01*
X014829Y009311D02*
X007850Y009311D01*
X007850Y009212D02*
X014809Y009212D01*
X014809Y009114D02*
X007850Y009114D01*
X007850Y009015D02*
X014818Y009015D01*
X014859Y008917D02*
X007850Y008917D01*
X007850Y008818D02*
X014907Y008818D01*
X015005Y008720D02*
X007850Y008720D01*
X007850Y008621D02*
X015046Y008621D01*
X014947Y008523D02*
X007850Y008523D01*
X007850Y008424D02*
X014876Y008424D01*
X014835Y008326D02*
X007850Y008326D01*
X007879Y008227D02*
X014809Y008227D01*
X014809Y008129D02*
X013187Y008129D01*
X013220Y008115D02*
X013018Y008199D01*
X012282Y008199D01*
X012080Y008115D01*
X011926Y007961D01*
X011843Y007759D01*
X011843Y007541D01*
X011926Y007339D01*
X012080Y007185D01*
X012164Y007150D01*
X012080Y007115D01*
X011926Y006961D01*
X011843Y006759D01*
X011843Y006541D01*
X011926Y006339D01*
X012080Y006185D01*
X012282Y006101D01*
X013018Y006101D01*
X013220Y006185D01*
X013374Y006339D01*
X013457Y006541D01*
X013457Y006759D01*
X013374Y006961D01*
X013220Y007115D01*
X013136Y007150D01*
X013220Y007185D01*
X013374Y007339D01*
X013457Y007541D01*
X013457Y007759D01*
X013374Y007961D01*
X013220Y008115D01*
X013305Y008030D02*
X014812Y008030D01*
X014853Y007932D02*
X013386Y007932D01*
X013427Y007833D02*
X014894Y007833D01*
X014990Y007735D02*
X013457Y007735D01*
X013457Y007636D02*
X015070Y007636D01*
X014962Y007538D02*
X013456Y007538D01*
X013415Y007439D02*
X014882Y007439D01*
X014841Y007341D02*
X013374Y007341D01*
X013277Y007242D02*
X014809Y007242D01*
X014809Y007144D02*
X013151Y007144D01*
X013290Y007045D02*
X014809Y007045D01*
X014847Y006947D02*
X013380Y006947D01*
X013421Y006848D02*
X014887Y006848D01*
X014975Y006750D02*
X013457Y006750D01*
X013457Y006651D02*
X015101Y006651D01*
X014977Y006553D02*
X013457Y006553D01*
X013422Y006454D02*
X014888Y006454D01*
X014847Y006356D02*
X013381Y006356D01*
X013292Y006257D02*
X014809Y006257D01*
X014809Y006159D02*
X013156Y006159D01*
X012144Y006159D02*
X011778Y006159D01*
X011679Y006257D02*
X012008Y006257D01*
X011919Y006356D02*
X011600Y006356D01*
X011600Y006454D02*
X011878Y006454D01*
X011843Y006553D02*
X011600Y006553D01*
X011600Y006651D02*
X011843Y006651D01*
X011843Y006750D02*
X011600Y006750D01*
X011600Y006848D02*
X011879Y006848D01*
X011920Y006947D02*
X011600Y006947D01*
X011600Y007045D02*
X012010Y007045D01*
X012149Y007144D02*
X011600Y007144D01*
X011599Y007242D02*
X012023Y007242D01*
X011925Y007341D02*
X011558Y007341D01*
X011497Y007439D02*
X011885Y007439D01*
X011844Y007538D02*
X011390Y007538D01*
X011843Y007636D02*
X009460Y007636D01*
X008840Y007636D02*
X007903Y007636D01*
X007903Y007735D02*
X011843Y007735D01*
X011873Y007833D02*
X007903Y007833D01*
X007903Y007932D02*
X011914Y007932D01*
X011995Y008030D02*
X007903Y008030D01*
X007903Y008129D02*
X012113Y008129D01*
X010700Y006651D02*
X009429Y006651D01*
X008871Y006651D02*
X006653Y006651D01*
X006653Y006553D02*
X010700Y006553D01*
X010700Y006454D02*
X006653Y006454D01*
X006643Y006356D02*
X010700Y006356D01*
X010700Y006257D02*
X006592Y006257D01*
X006447Y006159D02*
X010700Y006159D01*
X010700Y006060D02*
X010769Y005895D01*
X010801Y005863D02*
X001653Y005863D01*
X001653Y005765D02*
X010899Y005765D01*
X010998Y005666D02*
X001653Y005666D01*
X001653Y005568D02*
X011096Y005568D01*
X011195Y005469D02*
X001653Y005469D01*
X001649Y005371D02*
X011293Y005371D01*
X011392Y005272D02*
X001607Y005272D01*
X001483Y005174D02*
X014200Y005174D01*
X014200Y005075D02*
X013800Y005075D01*
X013960Y004977D02*
X014200Y004977D01*
X014200Y004878D02*
X014043Y004878D01*
X014083Y004780D02*
X014200Y004780D01*
X014200Y004681D02*
X014100Y004681D01*
X014100Y004583D02*
X014200Y004583D01*
X014200Y004484D02*
X014100Y004484D01*
X014100Y004386D02*
X014200Y004386D01*
X014200Y004287D02*
X014100Y004287D01*
X014100Y004189D02*
X014200Y004189D01*
X014200Y004090D02*
X014100Y004090D01*
X014100Y003992D02*
X014200Y003992D01*
X014200Y003893D02*
X014100Y003893D01*
X014100Y003795D02*
X014200Y003795D01*
X014200Y003696D02*
X014100Y003696D01*
X014100Y003598D02*
X014200Y003598D01*
X014225Y003499D02*
X014100Y003499D01*
X014100Y003401D02*
X014266Y003401D01*
X014362Y003302D02*
X014100Y003302D01*
X014100Y003204D02*
X014552Y003204D01*
X014100Y003105D02*
X015030Y003105D01*
X015176Y002120D02*
X013457Y002120D01*
X013457Y002219D02*
X013516Y002219D01*
X013449Y002022D02*
X015215Y002022D01*
X015183Y002008D02*
X015117Y001964D01*
X015060Y001908D01*
X015016Y001842D01*
X014986Y001768D01*
X014972Y001698D01*
X015602Y001698D01*
X015602Y002054D01*
X015335Y002054D01*
X015256Y002039D01*
X015183Y002008D01*
X015076Y001923D02*
X013409Y001923D01*
X013359Y001825D02*
X015009Y001825D01*
X014977Y001726D02*
X013261Y001726D01*
X013081Y001628D02*
X013819Y001628D01*
X014481Y001628D02*
X015602Y001628D01*
X015602Y001602D02*
X015602Y001698D01*
X015698Y001698D01*
X015698Y002054D01*
X015965Y002054D01*
X016044Y002039D01*
X016117Y002008D01*
X016183Y001964D01*
X016240Y001908D01*
X016284Y001842D01*
X016314Y001768D01*
X016328Y001698D01*
X015698Y001698D01*
X015698Y001602D01*
X016328Y001602D01*
X016314Y001532D01*
X016284Y001458D01*
X016240Y001392D01*
X016183Y001336D01*
X016117Y001292D01*
X016044Y001261D01*
X015965Y001246D01*
X015698Y001246D01*
X015698Y001602D01*
X015602Y001602D01*
X015602Y001246D01*
X015335Y001246D01*
X015256Y001261D01*
X015183Y001292D01*
X015117Y001336D01*
X015060Y001392D01*
X015016Y001458D01*
X014986Y001532D01*
X014972Y001602D01*
X015602Y001602D01*
X015602Y001529D02*
X015698Y001529D01*
X015698Y001431D02*
X015602Y001431D01*
X015602Y001332D02*
X015698Y001332D01*
X015698Y001628D02*
X017352Y001628D01*
X017352Y001726D02*
X016323Y001726D01*
X016291Y001825D02*
X017352Y001825D01*
X017352Y001923D02*
X016224Y001923D01*
X016085Y002022D02*
X017352Y002022D01*
X017352Y002120D02*
X016124Y002120D01*
X016294Y002219D02*
X017352Y002219D01*
X017352Y002317D02*
X016392Y002317D01*
X016441Y002416D02*
X017352Y002416D01*
X017352Y002514D02*
X016481Y002514D01*
X016491Y002613D02*
X017352Y002613D01*
X017352Y002711D02*
X016491Y002711D01*
X016472Y002810D02*
X017352Y002810D01*
X017352Y002908D02*
X016431Y002908D01*
X016369Y003007D02*
X017352Y003007D01*
X017352Y003105D02*
X016270Y003105D01*
X016279Y003204D02*
X017352Y003204D01*
X017352Y003302D02*
X016377Y003302D01*
X016434Y003401D02*
X017352Y003401D01*
X017352Y003499D02*
X016475Y003499D01*
X016491Y003598D02*
X017352Y003598D01*
X017352Y003696D02*
X016491Y003696D01*
X016478Y003795D02*
X017352Y003795D01*
X017352Y003893D02*
X016437Y003893D01*
X016384Y003992D02*
X017352Y003992D01*
X017352Y004090D02*
X016285Y004090D01*
X016103Y004189D02*
X017352Y004189D01*
X017352Y004287D02*
X015100Y004287D01*
X015100Y004189D02*
X015197Y004189D01*
X015100Y004386D02*
X017352Y004386D01*
X017352Y004484D02*
X015100Y004484D01*
X015100Y004583D02*
X017352Y004583D01*
X017352Y004681D02*
X015100Y004681D01*
X015100Y004780D02*
X017352Y004780D01*
X017352Y004878D02*
X015100Y004878D01*
X015100Y004977D02*
X017352Y004977D01*
X017352Y005075D02*
X015100Y005075D01*
X015100Y005174D02*
X017352Y005174D01*
X017352Y005272D02*
X015100Y005272D01*
X015100Y005371D02*
X017352Y005371D01*
X017352Y005469D02*
X015100Y005469D01*
X015100Y005568D02*
X017352Y005568D01*
X017352Y005666D02*
X016235Y005666D01*
X016340Y005765D02*
X017352Y005765D01*
X017352Y005863D02*
X016419Y005863D01*
X016460Y005962D02*
X017352Y005962D01*
X017352Y006060D02*
X016491Y006060D01*
X016491Y006159D02*
X017352Y006159D01*
X017352Y006257D02*
X016491Y006257D01*
X016453Y006356D02*
X017352Y006356D01*
X017352Y006454D02*
X016412Y006454D01*
X016323Y006553D02*
X017352Y006553D01*
X017352Y006651D02*
X016199Y006651D01*
X016325Y006750D02*
X017352Y006750D01*
X017352Y006848D02*
X016413Y006848D01*
X016453Y006947D02*
X017352Y006947D01*
X017352Y007045D02*
X016491Y007045D01*
X016491Y007144D02*
X017352Y007144D01*
X017352Y007242D02*
X016491Y007242D01*
X016459Y007341D02*
X017352Y007341D01*
X017352Y007439D02*
X016418Y007439D01*
X016338Y007538D02*
X017352Y007538D01*
X017352Y007636D02*
X016230Y007636D01*
X016310Y007735D02*
X017352Y007735D01*
X017352Y007833D02*
X016406Y007833D01*
X016447Y007932D02*
X017352Y007932D01*
X017352Y008030D02*
X016488Y008030D01*
X016491Y008129D02*
X017352Y008129D01*
X017352Y008227D02*
X016491Y008227D01*
X016465Y008326D02*
X017352Y008326D01*
X017352Y008424D02*
X016424Y008424D01*
X016353Y008523D02*
X017352Y008523D01*
X017352Y008621D02*
X016254Y008621D01*
X016295Y008720D02*
X017352Y008720D01*
X017352Y008818D02*
X016393Y008818D01*
X016441Y008917D02*
X017352Y008917D01*
X017352Y009015D02*
X016482Y009015D01*
X016491Y009114D02*
X017352Y009114D01*
X017352Y009212D02*
X016491Y009212D01*
X016471Y009311D02*
X017352Y009311D01*
X017352Y009409D02*
X016430Y009409D01*
X016368Y009508D02*
X017352Y009508D01*
X017352Y009606D02*
X016269Y009606D01*
X016065Y009705D02*
X017352Y009705D01*
X017352Y009803D02*
X016134Y009803D01*
X016246Y009902D02*
X017352Y009902D01*
X017352Y010000D02*
X016301Y010000D01*
X015698Y010000D02*
X015602Y010000D01*
X015602Y009902D02*
X015698Y009902D01*
X015698Y009803D02*
X015602Y009803D01*
X015602Y010099D02*
X015698Y010099D01*
X015698Y010296D02*
X015602Y010296D01*
X015602Y010394D02*
X015698Y010394D01*
X015698Y010493D02*
X015602Y010493D01*
X017352Y015615D02*
X000440Y015615D01*
X000440Y015713D02*
X017352Y015713D01*
X008702Y007538D02*
X007864Y007538D01*
X008715Y006750D02*
X006653Y006750D01*
X005853Y006159D02*
X004717Y006159D01*
X004832Y006257D02*
X005708Y006257D01*
X003583Y006159D02*
X001520Y006159D01*
X001520Y006257D02*
X003468Y006257D01*
X003384Y006356D02*
X001520Y006356D01*
X001520Y006454D02*
X003343Y006454D01*
X003309Y006553D02*
X001520Y006553D01*
X001520Y006651D02*
X003309Y006651D01*
X003309Y006750D02*
X001520Y006750D01*
X003265Y000643D02*
X017352Y000643D01*
X017352Y000741D02*
X014576Y000741D01*
X014636Y000840D02*
X017352Y000840D01*
X017352Y000938D02*
X014653Y000938D01*
X014653Y001037D02*
X017352Y001037D01*
X017352Y001135D02*
X014653Y001135D01*
X014653Y001234D02*
X017352Y001234D01*
X017352Y001332D02*
X016177Y001332D01*
X016265Y001431D02*
X017352Y001431D01*
X017352Y001529D02*
X016313Y001529D01*
X015698Y001726D02*
X015602Y001726D01*
X015602Y001825D02*
X015698Y001825D01*
X015698Y001923D02*
X015602Y001923D01*
X015602Y002022D02*
X015698Y002022D01*
X014987Y001529D02*
X014606Y001529D01*
X014648Y001431D02*
X015035Y001431D01*
X015123Y001332D02*
X014653Y001332D01*
X013200Y003696D02*
X013024Y003696D01*
X013200Y004189D02*
X008770Y004189D01*
X003111Y000544D02*
X017352Y000544D01*
X017352Y000446D02*
X002958Y000446D01*
D16*
X005900Y001150D02*
X014150Y001150D01*
X013650Y002650D02*
X015650Y002650D01*
X015650Y003650D02*
X014650Y003650D01*
X014650Y005650D01*
X011650Y005650D01*
X011150Y006150D01*
X011150Y007150D01*
X009150Y007150D01*
X007400Y007900D02*
X007400Y010150D01*
X007400Y013650D01*
X008150Y013650D01*
X008400Y004650D02*
X013650Y004650D01*
X013650Y002650D01*
X005900Y002150D02*
X005900Y001150D01*
M02*
