%
M48
M72
T01C0.0236
T02C0.0360
T03C0.0394
T04C0.1181
%
T01
X4650Y3520
X5900Y2150
X8350Y2700
X8400Y4650
X6650Y5900
X6150Y6650
X7400Y7900
X8150Y9150
X7400Y10150
X6650Y10650
X6150Y11650
X8150Y13650
X8650Y14650
X6150Y14650
X2150Y10150
X1150Y7650
X2400Y7400
X1150Y5650
X1650Y4650
X9150Y7150
X10150Y9150
X14150Y1150
T02
X12650Y2150
X12650Y3150
X12650Y6650
X12650Y7650
X12650Y10150
X12650Y11150
T03
X15650Y10150
X15650Y9150
X15650Y8150
X15650Y7150
X15650Y6150
X15650Y3650
X15650Y2650
X15650Y1650
X4150Y6650
X4150Y7650
X4150Y8650
X4150Y9650
X4150Y10650
T04
X2150Y2150
X15150Y13650
M30
