G75*
%MOIN*%
%OFA0B0*%
%FSLAX24Y24*%
%IPPOS*%
%LPD*%
%AMOC8*
5,1,8,0,0,1.08239X$1,22.5*
%
%ADD10C,0.1240*%
%ADD11C,0.0577*%
%ADD12C,0.0610*%
%ADD13R,0.0484X0.0484*%
D10*
X002150Y002150D03*
X015150Y013650D03*
D11*
X012909Y011150D02*
X012391Y011150D01*
X012391Y010150D02*
X012909Y010150D01*
X012909Y007650D02*
X012391Y007650D01*
X012391Y006650D02*
X012909Y006650D01*
X012909Y003150D02*
X012391Y003150D01*
X012391Y002150D02*
X012909Y002150D01*
D12*
X015374Y001650D02*
X015926Y001650D01*
X015926Y002650D02*
X015374Y002650D01*
X015374Y003650D02*
X015926Y003650D01*
X015926Y006150D02*
X015374Y006150D01*
X015374Y007150D02*
X015926Y007150D01*
X015926Y008150D02*
X015374Y008150D01*
X015374Y009150D02*
X015926Y009150D01*
X015926Y010150D02*
X015374Y010150D01*
X004426Y009650D02*
X003874Y009650D01*
X003874Y008650D02*
X004426Y008650D01*
X004426Y007650D02*
X003874Y007650D01*
X003874Y006650D02*
X004426Y006650D01*
X004426Y010650D02*
X003874Y010650D01*
D13*
X002150Y010150D03*
X001150Y007650D03*
X002400Y007400D03*
X001150Y005650D03*
X001650Y004650D03*
X004650Y003520D03*
X005900Y002150D03*
X008350Y002700D03*
X008400Y004650D03*
X006650Y005900D03*
X006150Y006650D03*
X007400Y007900D03*
X008150Y009150D03*
X007400Y010150D03*
X006650Y010650D03*
X006150Y011650D03*
X008150Y013650D03*
X008650Y014650D03*
X006150Y014650D03*
X010150Y009150D03*
X009150Y007150D03*
X014150Y001150D03*
M02*
