G75*
%MOIN*%
%OFA0B0*%
%FSLAX25Y25*%
%IPPOS*%
%LPD*%
%AMOC8*
5,1,8,0,0,1.08239X$1,22.5*
%
%ADD10C,0.05543*%
%ADD11C,0.05937*%
%ADD12C,0.06000*%
%ADD13C,0.05937*%
%ADD14C,0.01200*%
%ADD15C,0.02800*%
%ADD16C,0.05000*%
%ADD17C,0.03200*%
%ADD18C,0.01600*%
D10*
X0061500Y0136006D03*
X0071500Y0136006D03*
X0161500Y0136006D03*
X0171500Y0136006D03*
X0261500Y0133506D03*
X0271500Y0133506D03*
D11*
X0282750Y0311788D02*
X0282750Y0317725D01*
X0292750Y0317725D02*
X0292750Y0311788D01*
X0302750Y0311788D02*
X0302750Y0317725D01*
X0266500Y0359038D02*
X0266500Y0364975D01*
X0256500Y0364975D02*
X0256500Y0359038D01*
X0221500Y0361475D02*
X0221500Y0355538D01*
X0211500Y0355538D02*
X0211500Y0361475D01*
X0201500Y0361475D02*
X0201500Y0355538D01*
X0202750Y0320225D02*
X0202750Y0314288D01*
X0192750Y0314288D02*
X0192750Y0320225D01*
X0182750Y0320225D02*
X0182750Y0314288D01*
X0220250Y0311788D02*
X0220250Y0317725D01*
X0230250Y0317725D02*
X0230250Y0311788D01*
X0240250Y0311788D02*
X0240250Y0317725D01*
X0166500Y0361538D02*
X0166500Y0367475D01*
X0156500Y0367475D02*
X0156500Y0361538D01*
X0121500Y0363975D02*
X0121500Y0358038D01*
X0111500Y0358038D02*
X0111500Y0363975D01*
X0101500Y0363975D02*
X0101500Y0358038D01*
X0102750Y0320225D02*
X0102750Y0314288D01*
X0092750Y0314288D02*
X0092750Y0320225D01*
X0082750Y0320225D02*
X0082750Y0314288D01*
X0120250Y0314288D02*
X0120250Y0320225D01*
X0130250Y0320225D02*
X0130250Y0314288D01*
X0140250Y0314288D02*
X0140250Y0320225D01*
X0066500Y0361538D02*
X0066500Y0367475D01*
X0056500Y0367475D02*
X0056500Y0361538D01*
X0040250Y0320225D02*
X0040250Y0314288D01*
X0030250Y0314288D02*
X0030250Y0320225D01*
X0020250Y0320225D02*
X0020250Y0314288D01*
D12*
X0025250Y0296506D02*
X0025250Y0290506D01*
X0035250Y0290506D02*
X0035250Y0296506D01*
X0045250Y0296506D02*
X0045250Y0290506D01*
X0077750Y0288006D02*
X0077750Y0294006D01*
X0087750Y0294006D02*
X0087750Y0288006D01*
X0097750Y0288006D02*
X0097750Y0294006D01*
X0125250Y0296506D02*
X0125250Y0290506D01*
X0135250Y0290506D02*
X0135250Y0296506D01*
X0145250Y0296506D02*
X0145250Y0290506D01*
X0177750Y0288006D02*
X0177750Y0294006D01*
X0187750Y0294006D02*
X0187750Y0288006D01*
X0197750Y0288006D02*
X0197750Y0294006D01*
X0225250Y0294006D02*
X0225250Y0288006D01*
X0235250Y0288006D02*
X0235250Y0294006D01*
X0245250Y0294006D02*
X0245250Y0288006D01*
X0277750Y0285506D02*
X0277750Y0291506D01*
X0287750Y0291506D02*
X0287750Y0285506D01*
X0297750Y0285506D02*
X0297750Y0291506D01*
D13*
X0252750Y0304756D03*
X0252750Y0324756D03*
X0152750Y0327256D03*
X0152750Y0307256D03*
X0052750Y0307256D03*
X0052750Y0327256D03*
D14*
X0006500Y0383506D02*
X0006500Y0093506D01*
X0321500Y0093506D01*
X0321500Y0383506D01*
X0006500Y0383506D01*
X0006500Y0383340D02*
X0321500Y0383340D01*
X0321500Y0382142D02*
X0006500Y0382142D01*
X0006500Y0380943D02*
X0321500Y0380943D01*
X0321500Y0379745D02*
X0006500Y0379745D01*
X0006500Y0378546D02*
X0321500Y0378546D01*
X0321500Y0377348D02*
X0231260Y0377348D01*
X0231458Y0377149D02*
X0230643Y0377965D01*
X0229577Y0378406D01*
X0043173Y0378406D01*
X0042107Y0377965D01*
X0041291Y0377149D01*
X0032791Y0368649D01*
X0032350Y0367583D01*
X0032350Y0338458D01*
X0028607Y0334715D01*
X0027791Y0333899D01*
X0027350Y0332833D01*
X0027350Y0323361D01*
X0026631Y0322643D01*
X0025981Y0321074D01*
X0025981Y0313439D01*
X0026450Y0312308D01*
X0026450Y0309000D01*
X0027029Y0307604D01*
X0031450Y0303182D01*
X0031450Y0298569D01*
X0030950Y0297362D01*
X0030950Y0289651D01*
X0031605Y0288071D01*
X0032350Y0287325D01*
X0032350Y0287208D01*
X0031549Y0286406D01*
X0026588Y0286406D01*
X0027686Y0286861D01*
X0028895Y0288071D01*
X0029550Y0289651D01*
X0029550Y0297362D01*
X0028895Y0298942D01*
X0027686Y0300152D01*
X0026105Y0300806D01*
X0024395Y0300806D01*
X0022814Y0300152D01*
X0021605Y0298942D01*
X0020950Y0297362D01*
X0020950Y0289651D01*
X0021605Y0288071D01*
X0022814Y0286861D01*
X0024168Y0286300D01*
X0023357Y0285965D01*
X0019607Y0282215D01*
X0018791Y0281399D01*
X0018350Y0280333D01*
X0018350Y0263929D01*
X0018791Y0262864D01*
X0027791Y0253864D01*
X0028607Y0253048D01*
X0029673Y0252606D01*
X0056327Y0252606D01*
X0057393Y0253048D01*
X0057643Y0253298D01*
X0066458Y0262114D01*
X0066900Y0263179D01*
X0066900Y0272833D01*
X0066458Y0273899D01*
X0065643Y0274715D01*
X0064577Y0275156D01*
X0063423Y0275156D01*
X0062357Y0274715D01*
X0061541Y0273899D01*
X0061100Y0272833D01*
X0061100Y0264958D01*
X0054549Y0258406D01*
X0031451Y0258406D01*
X0024150Y0265708D01*
X0024150Y0278555D01*
X0024600Y0279005D01*
X0024600Y0278179D01*
X0025041Y0277114D01*
X0025857Y0276298D01*
X0026923Y0275856D01*
X0084850Y0275856D01*
X0084850Y0264179D01*
X0085291Y0263114D01*
X0086107Y0262298D01*
X0096107Y0252298D01*
X0096107Y0252298D01*
X0097350Y0251055D01*
X0097350Y0209179D01*
X0097600Y0208576D01*
X0097600Y0165429D01*
X0098041Y0164364D01*
X0098857Y0163548D01*
X0099923Y0163106D01*
X0101077Y0163106D01*
X0102143Y0163548D01*
X0102958Y0164364D01*
X0103400Y0165429D01*
X0103400Y0210083D01*
X0103150Y0210687D01*
X0103150Y0252833D01*
X0102708Y0253899D01*
X0100208Y0256399D01*
X0090650Y0265958D01*
X0090650Y0279177D01*
X0090689Y0279625D01*
X0090650Y0279750D01*
X0090650Y0284825D01*
X0091395Y0285571D01*
X0092050Y0287151D01*
X0092050Y0294862D01*
X0091550Y0296069D01*
X0091550Y0303182D01*
X0094000Y0305632D01*
X0093950Y0305512D01*
X0093950Y0296069D01*
X0093450Y0294862D01*
X0093450Y0287151D01*
X0094105Y0285571D01*
X0095314Y0284361D01*
X0096895Y0283706D01*
X0098605Y0283706D01*
X0100186Y0284361D01*
X0101395Y0285571D01*
X0102050Y0287151D01*
X0102050Y0294862D01*
X0101550Y0296069D01*
X0101550Y0303182D01*
X0105971Y0307604D01*
X0106550Y0309000D01*
X0106550Y0312308D01*
X0107018Y0313439D01*
X0107018Y0321074D01*
X0106369Y0322643D01*
X0105168Y0323843D01*
X0103599Y0324493D01*
X0101901Y0324493D01*
X0100332Y0323843D01*
X0099131Y0322643D01*
X0098481Y0321074D01*
X0098481Y0313439D01*
X0098950Y0312308D01*
X0098950Y0311330D01*
X0096500Y0308881D01*
X0096550Y0309000D01*
X0096550Y0312308D01*
X0097018Y0313439D01*
X0097018Y0321074D01*
X0096369Y0322643D01*
X0095650Y0323361D01*
X0095650Y0330333D01*
X0095208Y0331399D01*
X0094393Y0332215D01*
X0086893Y0339715D01*
X0085827Y0340156D01*
X0084673Y0340156D01*
X0083607Y0339715D01*
X0082791Y0338899D01*
X0082350Y0337833D01*
X0082350Y0336679D01*
X0082791Y0335614D01*
X0089850Y0328555D01*
X0089850Y0323361D01*
X0089131Y0322643D01*
X0088481Y0321074D01*
X0088481Y0313439D01*
X0088950Y0312308D01*
X0088950Y0311330D01*
X0084529Y0306909D01*
X0083950Y0305512D01*
X0083950Y0296069D01*
X0083450Y0294862D01*
X0083450Y0287151D01*
X0084105Y0285571D01*
X0084850Y0284825D01*
X0084850Y0281656D01*
X0035001Y0281656D01*
X0035208Y0281864D01*
X0036893Y0283548D01*
X0037708Y0284364D01*
X0038150Y0285429D01*
X0038150Y0287325D01*
X0038895Y0288071D01*
X0039550Y0289651D01*
X0039550Y0297362D01*
X0039050Y0298569D01*
X0039050Y0305512D01*
X0038471Y0306909D01*
X0037403Y0307978D01*
X0034050Y0311330D01*
X0034050Y0312308D01*
X0034518Y0313439D01*
X0034518Y0321074D01*
X0033869Y0322643D01*
X0033150Y0323361D01*
X0033150Y0331055D01*
X0037708Y0335614D01*
X0038150Y0336679D01*
X0038150Y0365805D01*
X0044951Y0372606D01*
X0098600Y0372606D01*
X0098600Y0367111D01*
X0097881Y0366393D01*
X0097231Y0364824D01*
X0097231Y0357189D01*
X0097881Y0355620D01*
X0099082Y0354419D01*
X0100651Y0353769D01*
X0102349Y0353769D01*
X0103918Y0354419D01*
X0105119Y0355620D01*
X0105768Y0357189D01*
X0105768Y0364824D01*
X0105119Y0366393D01*
X0104400Y0367111D01*
X0104400Y0372606D01*
X0138600Y0372606D01*
X0138600Y0347208D01*
X0132791Y0341399D01*
X0132350Y0340333D01*
X0132350Y0338458D01*
X0128607Y0334715D01*
X0127791Y0333899D01*
X0127350Y0332833D01*
X0127350Y0323361D01*
X0126631Y0322643D01*
X0125981Y0321074D01*
X0125981Y0313439D01*
X0126450Y0312308D01*
X0126450Y0309000D01*
X0127029Y0307604D01*
X0131450Y0303182D01*
X0131450Y0298569D01*
X0130950Y0297362D01*
X0130950Y0289651D01*
X0131605Y0288071D01*
X0132350Y0287325D01*
X0132350Y0287208D01*
X0131549Y0286406D01*
X0126588Y0286406D01*
X0127686Y0286861D01*
X0128895Y0288071D01*
X0129550Y0289651D01*
X0129550Y0297362D01*
X0128895Y0298942D01*
X0127686Y0300152D01*
X0126105Y0300806D01*
X0124395Y0300806D01*
X0122814Y0300152D01*
X0121605Y0298942D01*
X0120950Y0297362D01*
X0120950Y0289651D01*
X0121605Y0288071D01*
X0122814Y0286861D01*
X0124168Y0286300D01*
X0123357Y0285965D01*
X0119607Y0282215D01*
X0118791Y0281399D01*
X0118350Y0280333D01*
X0118350Y0263929D01*
X0118791Y0262864D01*
X0127791Y0253864D01*
X0128607Y0253048D01*
X0129673Y0252606D01*
X0156327Y0252606D01*
X0157393Y0253048D01*
X0158458Y0254114D01*
X0166458Y0262114D01*
X0166900Y0263179D01*
X0166900Y0272833D01*
X0166458Y0273899D01*
X0165643Y0274715D01*
X0164577Y0275156D01*
X0163423Y0275156D01*
X0162357Y0274715D01*
X0161541Y0273899D01*
X0161100Y0272833D01*
X0161100Y0264958D01*
X0154549Y0258406D01*
X0131451Y0258406D01*
X0124150Y0265708D01*
X0124150Y0278555D01*
X0124600Y0279005D01*
X0124600Y0278179D01*
X0125041Y0277114D01*
X0125857Y0276298D01*
X0126923Y0275856D01*
X0184850Y0275856D01*
X0184850Y0264179D01*
X0185291Y0263114D01*
X0186107Y0262298D01*
X0195291Y0253114D01*
X0197350Y0251055D01*
X0197350Y0209179D01*
X0197600Y0208576D01*
X0197600Y0165429D01*
X0198041Y0164364D01*
X0198857Y0163548D01*
X0199923Y0163106D01*
X0201077Y0163106D01*
X0202143Y0163548D01*
X0202958Y0164364D01*
X0203400Y0165429D01*
X0203400Y0210083D01*
X0203150Y0210687D01*
X0203150Y0252833D01*
X0202708Y0253899D01*
X0199393Y0257215D01*
X0199393Y0257215D01*
X0190650Y0265958D01*
X0190650Y0279177D01*
X0190689Y0279625D01*
X0190650Y0279750D01*
X0190650Y0284825D01*
X0191395Y0285571D01*
X0192050Y0287151D01*
X0192050Y0294862D01*
X0191550Y0296069D01*
X0191550Y0303182D01*
X0194000Y0305632D01*
X0193950Y0305512D01*
X0193950Y0296069D01*
X0193450Y0294862D01*
X0193450Y0287151D01*
X0194105Y0285571D01*
X0195314Y0284361D01*
X0196895Y0283706D01*
X0198605Y0283706D01*
X0200186Y0284361D01*
X0201395Y0285571D01*
X0202050Y0287151D01*
X0202050Y0294862D01*
X0201550Y0296069D01*
X0201550Y0303182D01*
X0205971Y0307604D01*
X0206550Y0309000D01*
X0206550Y0312308D01*
X0207018Y0313439D01*
X0207018Y0321074D01*
X0206369Y0322643D01*
X0205168Y0323843D01*
X0203599Y0324493D01*
X0201901Y0324493D01*
X0200332Y0323843D01*
X0199131Y0322643D01*
X0198481Y0321074D01*
X0198481Y0313439D01*
X0198950Y0312308D01*
X0198950Y0311330D01*
X0196500Y0308881D01*
X0196550Y0309000D01*
X0196550Y0312308D01*
X0197018Y0313439D01*
X0197018Y0321074D01*
X0196369Y0322643D01*
X0195650Y0323361D01*
X0195650Y0330333D01*
X0195208Y0331399D01*
X0194393Y0332215D01*
X0186893Y0339715D01*
X0185827Y0340156D01*
X0184673Y0340156D01*
X0183607Y0339715D01*
X0182791Y0338899D01*
X0182350Y0337833D01*
X0182350Y0336679D01*
X0182791Y0335614D01*
X0189850Y0328555D01*
X0189850Y0323361D01*
X0189131Y0322643D01*
X0188481Y0321074D01*
X0188481Y0313439D01*
X0188950Y0312308D01*
X0188950Y0311330D01*
X0184529Y0306909D01*
X0183950Y0305512D01*
X0183950Y0296069D01*
X0183450Y0294862D01*
X0183450Y0287151D01*
X0184105Y0285571D01*
X0184850Y0284825D01*
X0184850Y0281656D01*
X0135001Y0281656D01*
X0135208Y0281864D01*
X0137708Y0284364D01*
X0138150Y0285429D01*
X0138150Y0287325D01*
X0138895Y0288071D01*
X0139550Y0289651D01*
X0139550Y0297362D01*
X0139050Y0298569D01*
X0139050Y0305512D01*
X0138471Y0306909D01*
X0137403Y0307978D01*
X0134050Y0311330D01*
X0134050Y0312308D01*
X0134518Y0313439D01*
X0134518Y0321074D01*
X0133869Y0322643D01*
X0133150Y0323361D01*
X0133150Y0331055D01*
X0136893Y0334798D01*
X0137708Y0335614D01*
X0137958Y0335864D01*
X0138400Y0336929D01*
X0138400Y0338083D01*
X0138189Y0338594D01*
X0143143Y0343548D01*
X0143958Y0344364D01*
X0144400Y0345429D01*
X0144400Y0372606D01*
X0198600Y0372606D01*
X0198600Y0364611D01*
X0197881Y0363893D01*
X0197231Y0362324D01*
X0197231Y0354689D01*
X0197881Y0353120D01*
X0199082Y0351919D01*
X0200651Y0351269D01*
X0202349Y0351269D01*
X0203918Y0351919D01*
X0205119Y0353120D01*
X0205768Y0354689D01*
X0205768Y0362324D01*
X0205119Y0363893D01*
X0204400Y0364611D01*
X0204400Y0372606D01*
X0227799Y0372606D01*
X0232350Y0368055D01*
X0232350Y0335958D01*
X0228607Y0332215D01*
X0227791Y0331399D01*
X0227350Y0330333D01*
X0227350Y0320861D01*
X0226631Y0320143D01*
X0225981Y0318574D01*
X0225981Y0310939D01*
X0226450Y0309808D01*
X0226450Y0306500D01*
X0227029Y0305104D01*
X0231450Y0300682D01*
X0231450Y0296069D01*
X0230950Y0294862D01*
X0230950Y0287151D01*
X0231605Y0285571D01*
X0232350Y0284825D01*
X0232350Y0284708D01*
X0231549Y0283906D01*
X0226588Y0283906D01*
X0227686Y0284361D01*
X0228895Y0285571D01*
X0229550Y0287151D01*
X0229550Y0294862D01*
X0228895Y0296442D01*
X0227686Y0297652D01*
X0226105Y0298306D01*
X0224395Y0298306D01*
X0222814Y0297652D01*
X0221605Y0296442D01*
X0220950Y0294862D01*
X0220950Y0287151D01*
X0221605Y0285571D01*
X0222814Y0284361D01*
X0224168Y0283800D01*
X0223357Y0283465D01*
X0219607Y0279715D01*
X0218791Y0278899D01*
X0218350Y0277833D01*
X0218350Y0261429D01*
X0218791Y0260364D01*
X0227791Y0251364D01*
X0228607Y0250548D01*
X0229673Y0250106D01*
X0256327Y0250106D01*
X0257393Y0250548D01*
X0258458Y0251614D01*
X0266458Y0259614D01*
X0266900Y0260679D01*
X0266900Y0270333D01*
X0266458Y0271399D01*
X0265643Y0272215D01*
X0264577Y0272656D01*
X0263423Y0272656D01*
X0262357Y0272215D01*
X0261541Y0271399D01*
X0261100Y0270333D01*
X0261100Y0262458D01*
X0254549Y0255906D01*
X0231451Y0255906D01*
X0224150Y0263208D01*
X0224150Y0276055D01*
X0224600Y0276505D01*
X0224600Y0275679D01*
X0225041Y0274614D01*
X0225857Y0273798D01*
X0226923Y0273356D01*
X0284850Y0273356D01*
X0284850Y0261679D01*
X0285291Y0260614D01*
X0286107Y0259798D01*
X0296107Y0249798D01*
X0296107Y0249798D01*
X0297350Y0248555D01*
X0297350Y0206679D01*
X0297600Y0206076D01*
X0297600Y0162929D01*
X0298041Y0161864D01*
X0298857Y0161048D01*
X0299923Y0160606D01*
X0301077Y0160606D01*
X0302143Y0161048D01*
X0302958Y0161864D01*
X0303400Y0162929D01*
X0303400Y0207583D01*
X0303150Y0208187D01*
X0303150Y0250333D01*
X0302708Y0251399D01*
X0300208Y0253899D01*
X0290650Y0263458D01*
X0290650Y0276677D01*
X0290689Y0277125D01*
X0290650Y0277250D01*
X0290650Y0282325D01*
X0291395Y0283071D01*
X0292050Y0284651D01*
X0292050Y0292362D01*
X0291550Y0293569D01*
X0291550Y0300682D01*
X0294000Y0303132D01*
X0293950Y0303012D01*
X0293950Y0293569D01*
X0293450Y0292362D01*
X0293450Y0284651D01*
X0294105Y0283071D01*
X0295314Y0281861D01*
X0296895Y0281206D01*
X0298605Y0281206D01*
X0300186Y0281861D01*
X0301395Y0283071D01*
X0302050Y0284651D01*
X0302050Y0292362D01*
X0301550Y0293569D01*
X0301550Y0300682D01*
X0305971Y0305104D01*
X0306550Y0306500D01*
X0306550Y0309808D01*
X0307018Y0310939D01*
X0307018Y0318574D01*
X0306369Y0320143D01*
X0305168Y0321343D01*
X0303599Y0321993D01*
X0301901Y0321993D01*
X0300332Y0321343D01*
X0299131Y0320143D01*
X0298481Y0318574D01*
X0298481Y0310939D01*
X0298950Y0309808D01*
X0298950Y0308830D01*
X0296500Y0306381D01*
X0296550Y0306500D01*
X0296550Y0309808D01*
X0297018Y0310939D01*
X0297018Y0318574D01*
X0296369Y0320143D01*
X0295650Y0320861D01*
X0295650Y0327833D01*
X0295208Y0328899D01*
X0294393Y0329715D01*
X0286893Y0337215D01*
X0285827Y0337656D01*
X0284673Y0337656D01*
X0283607Y0337215D01*
X0282791Y0336399D01*
X0282350Y0335333D01*
X0282350Y0334179D01*
X0282791Y0333114D01*
X0289850Y0326055D01*
X0289850Y0320861D01*
X0289131Y0320143D01*
X0288481Y0318574D01*
X0288481Y0310939D01*
X0288950Y0309808D01*
X0288950Y0308830D01*
X0284529Y0304409D01*
X0283950Y0303012D01*
X0283950Y0293569D01*
X0283450Y0292362D01*
X0283450Y0284651D01*
X0284105Y0283071D01*
X0284850Y0282325D01*
X0284850Y0279156D01*
X0235001Y0279156D01*
X0235208Y0279364D01*
X0237708Y0281864D01*
X0238150Y0282929D01*
X0238150Y0284825D01*
X0238895Y0285571D01*
X0239550Y0287151D01*
X0239550Y0294862D01*
X0239050Y0296069D01*
X0239050Y0303012D01*
X0238471Y0304409D01*
X0234050Y0308830D01*
X0234050Y0309808D01*
X0234518Y0310939D01*
X0234518Y0318574D01*
X0233869Y0320143D01*
X0233150Y0320861D01*
X0233150Y0328555D01*
X0236893Y0332298D01*
X0237708Y0333114D01*
X0238150Y0334179D01*
X0238150Y0369833D01*
X0237708Y0370899D01*
X0231458Y0377149D01*
X0232458Y0376149D02*
X0321500Y0376149D01*
X0321500Y0374951D02*
X0233657Y0374951D01*
X0234856Y0373752D02*
X0321500Y0373752D01*
X0321500Y0372553D02*
X0236054Y0372553D01*
X0237253Y0371355D02*
X0321500Y0371355D01*
X0321500Y0370156D02*
X0238016Y0370156D01*
X0238150Y0368958D02*
X0254962Y0368958D01*
X0255651Y0369243D02*
X0254082Y0368593D01*
X0252881Y0367393D01*
X0252231Y0365824D01*
X0252231Y0358189D01*
X0252881Y0356620D01*
X0254082Y0355419D01*
X0255651Y0354769D01*
X0257349Y0354769D01*
X0258918Y0355419D01*
X0260119Y0356620D01*
X0260768Y0358189D01*
X0260768Y0365824D01*
X0260119Y0367393D01*
X0258918Y0368593D01*
X0257349Y0369243D01*
X0255651Y0369243D01*
X0258038Y0368958D02*
X0264254Y0368958D01*
X0264106Y0368882D02*
X0263524Y0368459D01*
X0263015Y0367951D01*
X0262593Y0367369D01*
X0262266Y0366728D01*
X0262044Y0366045D01*
X0261931Y0365334D01*
X0261931Y0362391D01*
X0266116Y0362391D01*
X0266116Y0369539D01*
X0265430Y0369431D01*
X0264746Y0369209D01*
X0264106Y0368882D01*
X0262876Y0367759D02*
X0259752Y0367759D01*
X0260463Y0366561D02*
X0262212Y0366561D01*
X0261936Y0365362D02*
X0260768Y0365362D01*
X0260768Y0364164D02*
X0261931Y0364164D01*
X0261931Y0362965D02*
X0260768Y0362965D01*
X0260768Y0361767D02*
X0266116Y0361767D01*
X0266116Y0361622D02*
X0261931Y0361622D01*
X0261931Y0358678D01*
X0262044Y0357968D01*
X0262266Y0357284D01*
X0262593Y0356643D01*
X0263015Y0356062D01*
X0263524Y0355553D01*
X0264106Y0355130D01*
X0264746Y0354804D01*
X0265430Y0354582D01*
X0266116Y0354473D01*
X0266116Y0361622D01*
X0266884Y0361622D01*
X0266884Y0354473D01*
X0267570Y0354582D01*
X0268254Y0354804D01*
X0268894Y0355130D01*
X0269476Y0355553D01*
X0269985Y0356062D01*
X0270407Y0356643D01*
X0270734Y0357284D01*
X0270956Y0357968D01*
X0271068Y0358678D01*
X0271068Y0361622D01*
X0266884Y0361622D01*
X0266884Y0362391D01*
X0266116Y0362391D01*
X0266116Y0361622D01*
X0266884Y0361767D02*
X0321500Y0361767D01*
X0321500Y0362965D02*
X0271068Y0362965D01*
X0271068Y0362391D02*
X0271068Y0365334D01*
X0270956Y0366045D01*
X0270734Y0366728D01*
X0270407Y0367369D01*
X0269985Y0367951D01*
X0269476Y0368459D01*
X0268894Y0368882D01*
X0268254Y0369209D01*
X0267570Y0369431D01*
X0266884Y0369539D01*
X0266884Y0362391D01*
X0271068Y0362391D01*
X0271068Y0364164D02*
X0321500Y0364164D01*
X0321500Y0365362D02*
X0271064Y0365362D01*
X0270788Y0366561D02*
X0321500Y0366561D01*
X0321500Y0367759D02*
X0270124Y0367759D01*
X0268746Y0368958D02*
X0321500Y0368958D01*
X0321500Y0360568D02*
X0271068Y0360568D01*
X0271068Y0359370D02*
X0321500Y0359370D01*
X0321500Y0358171D02*
X0270988Y0358171D01*
X0270575Y0356973D02*
X0321500Y0356973D01*
X0321500Y0355774D02*
X0269697Y0355774D01*
X0267532Y0354576D02*
X0321500Y0354576D01*
X0321500Y0353377D02*
X0238150Y0353377D01*
X0238150Y0352179D02*
X0321500Y0352179D01*
X0321500Y0350980D02*
X0238150Y0350980D01*
X0238150Y0349782D02*
X0321500Y0349782D01*
X0321500Y0348583D02*
X0238150Y0348583D01*
X0238150Y0347385D02*
X0321500Y0347385D01*
X0321500Y0346186D02*
X0238150Y0346186D01*
X0238150Y0344988D02*
X0321500Y0344988D01*
X0321500Y0343789D02*
X0238150Y0343789D01*
X0238150Y0342591D02*
X0321500Y0342591D01*
X0321500Y0341392D02*
X0238150Y0341392D01*
X0238150Y0340194D02*
X0321500Y0340194D01*
X0321500Y0338995D02*
X0238150Y0338995D01*
X0238150Y0337797D02*
X0321500Y0337797D01*
X0321500Y0336598D02*
X0287509Y0336598D01*
X0288708Y0335400D02*
X0321500Y0335400D01*
X0321500Y0334201D02*
X0289906Y0334201D01*
X0291105Y0333003D02*
X0321500Y0333003D01*
X0321500Y0331804D02*
X0292303Y0331804D01*
X0293502Y0330606D02*
X0321500Y0330606D01*
X0321500Y0329407D02*
X0294700Y0329407D01*
X0295494Y0328209D02*
X0321500Y0328209D01*
X0321500Y0327010D02*
X0295650Y0327010D01*
X0295650Y0325812D02*
X0321500Y0325812D01*
X0321500Y0324613D02*
X0295650Y0324613D01*
X0295650Y0323415D02*
X0321500Y0323415D01*
X0321500Y0322216D02*
X0295650Y0322216D01*
X0295650Y0321017D02*
X0300006Y0321017D01*
X0298997Y0319819D02*
X0296503Y0319819D01*
X0296999Y0318620D02*
X0298501Y0318620D01*
X0298481Y0317422D02*
X0297018Y0317422D01*
X0297018Y0316223D02*
X0298481Y0316223D01*
X0298481Y0315025D02*
X0297018Y0315025D01*
X0297018Y0313826D02*
X0298481Y0313826D01*
X0298481Y0312628D02*
X0297018Y0312628D01*
X0297018Y0311429D02*
X0298481Y0311429D01*
X0298775Y0310231D02*
X0296725Y0310231D01*
X0296550Y0309032D02*
X0298950Y0309032D01*
X0297954Y0307834D02*
X0296550Y0307834D01*
X0296550Y0306635D02*
X0296755Y0306635D01*
X0293961Y0303040D02*
X0293908Y0303040D01*
X0293950Y0301841D02*
X0292709Y0301841D01*
X0291550Y0300643D02*
X0293950Y0300643D01*
X0293950Y0299444D02*
X0291550Y0299444D01*
X0291550Y0298246D02*
X0293950Y0298246D01*
X0293950Y0297047D02*
X0291550Y0297047D01*
X0291550Y0295849D02*
X0293950Y0295849D01*
X0293950Y0294650D02*
X0291550Y0294650D01*
X0291598Y0293452D02*
X0293902Y0293452D01*
X0293450Y0292253D02*
X0292050Y0292253D01*
X0292050Y0291055D02*
X0293450Y0291055D01*
X0293450Y0289856D02*
X0292050Y0289856D01*
X0292050Y0288658D02*
X0293450Y0288658D01*
X0293450Y0287459D02*
X0292050Y0287459D01*
X0292050Y0286261D02*
X0293450Y0286261D01*
X0293450Y0285062D02*
X0292050Y0285062D01*
X0291724Y0283864D02*
X0293776Y0283864D01*
X0294510Y0282665D02*
X0290990Y0282665D01*
X0290650Y0281467D02*
X0296266Y0281467D01*
X0299234Y0281467D02*
X0321500Y0281467D01*
X0321500Y0282665D02*
X0300990Y0282665D01*
X0301724Y0283864D02*
X0321500Y0283864D01*
X0321500Y0285062D02*
X0302050Y0285062D01*
X0302050Y0286261D02*
X0321500Y0286261D01*
X0321500Y0287459D02*
X0302050Y0287459D01*
X0302050Y0288658D02*
X0321500Y0288658D01*
X0321500Y0289856D02*
X0302050Y0289856D01*
X0302050Y0291055D02*
X0321500Y0291055D01*
X0321500Y0292253D02*
X0302050Y0292253D01*
X0301598Y0293452D02*
X0321500Y0293452D01*
X0321500Y0294650D02*
X0301550Y0294650D01*
X0301550Y0295849D02*
X0321500Y0295849D01*
X0321500Y0297047D02*
X0301550Y0297047D01*
X0301550Y0298246D02*
X0321500Y0298246D01*
X0321500Y0299444D02*
X0301550Y0299444D01*
X0301550Y0300643D02*
X0321500Y0300643D01*
X0321500Y0301841D02*
X0302709Y0301841D01*
X0303908Y0303040D02*
X0321500Y0303040D01*
X0321500Y0304238D02*
X0305106Y0304238D01*
X0306109Y0305437D02*
X0321500Y0305437D01*
X0321500Y0306635D02*
X0306550Y0306635D01*
X0306550Y0307834D02*
X0321500Y0307834D01*
X0321500Y0309032D02*
X0306550Y0309032D01*
X0306725Y0310231D02*
X0321500Y0310231D01*
X0321500Y0311429D02*
X0307018Y0311429D01*
X0307018Y0312628D02*
X0321500Y0312628D01*
X0321500Y0313826D02*
X0307018Y0313826D01*
X0307018Y0315025D02*
X0321500Y0315025D01*
X0321500Y0316223D02*
X0307018Y0316223D01*
X0307018Y0317422D02*
X0321500Y0317422D01*
X0321500Y0318620D02*
X0306999Y0318620D01*
X0306503Y0319819D02*
X0321500Y0319819D01*
X0321500Y0321017D02*
X0305494Y0321017D01*
X0289850Y0321017D02*
X0285494Y0321017D01*
X0285168Y0321343D02*
X0286369Y0320143D01*
X0287018Y0318574D01*
X0287018Y0310939D01*
X0286369Y0309370D01*
X0285168Y0308169D01*
X0284850Y0308037D01*
X0284850Y0306386D01*
X0279850Y0301386D01*
X0279850Y0295291D01*
X0280186Y0295152D01*
X0281395Y0293942D01*
X0282050Y0292362D01*
X0282050Y0284651D01*
X0281395Y0283071D01*
X0280186Y0281861D01*
X0278605Y0281206D01*
X0276895Y0281206D01*
X0275314Y0281861D01*
X0274105Y0283071D01*
X0273450Y0284651D01*
X0273450Y0292362D01*
X0274105Y0293942D01*
X0275314Y0295152D01*
X0275650Y0295291D01*
X0275650Y0303126D01*
X0276880Y0304356D01*
X0280587Y0308063D01*
X0280332Y0308169D01*
X0279131Y0309370D01*
X0278481Y0310939D01*
X0278481Y0318574D01*
X0279131Y0320143D01*
X0280332Y0321343D01*
X0281901Y0321993D01*
X0283599Y0321993D01*
X0285168Y0321343D01*
X0286503Y0319819D02*
X0288997Y0319819D01*
X0288501Y0318620D02*
X0286999Y0318620D01*
X0287018Y0317422D02*
X0288481Y0317422D01*
X0288481Y0316223D02*
X0287018Y0316223D01*
X0287018Y0315025D02*
X0288481Y0315025D01*
X0288481Y0313826D02*
X0287018Y0313826D01*
X0287018Y0312628D02*
X0288481Y0312628D01*
X0288481Y0311429D02*
X0287018Y0311429D01*
X0286725Y0310231D02*
X0288775Y0310231D01*
X0288950Y0309032D02*
X0286031Y0309032D01*
X0284850Y0307834D02*
X0287954Y0307834D01*
X0286755Y0306635D02*
X0284850Y0306635D01*
X0285557Y0305437D02*
X0283900Y0305437D01*
X0284458Y0304238D02*
X0282702Y0304238D01*
X0281503Y0303040D02*
X0283961Y0303040D01*
X0283950Y0301841D02*
X0280305Y0301841D01*
X0279850Y0300643D02*
X0283950Y0300643D01*
X0283950Y0299444D02*
X0279850Y0299444D01*
X0279850Y0298246D02*
X0283950Y0298246D01*
X0283950Y0297047D02*
X0279850Y0297047D01*
X0279850Y0295849D02*
X0283950Y0295849D01*
X0283950Y0294650D02*
X0280687Y0294650D01*
X0281598Y0293452D02*
X0283902Y0293452D01*
X0283450Y0292253D02*
X0282050Y0292253D01*
X0282050Y0291055D02*
X0283450Y0291055D01*
X0283450Y0289856D02*
X0282050Y0289856D01*
X0282050Y0288658D02*
X0283450Y0288658D01*
X0283450Y0287459D02*
X0282050Y0287459D01*
X0282050Y0286261D02*
X0283450Y0286261D01*
X0283450Y0285062D02*
X0282050Y0285062D01*
X0281724Y0283864D02*
X0283776Y0283864D01*
X0284510Y0282665D02*
X0280990Y0282665D01*
X0279234Y0281467D02*
X0284850Y0281467D01*
X0284850Y0280268D02*
X0254580Y0280268D01*
X0254279Y0279967D02*
X0255039Y0280727D01*
X0255450Y0281719D01*
X0255450Y0282793D01*
X0255039Y0283786D01*
X0254850Y0283975D01*
X0254850Y0291386D01*
X0261120Y0297656D01*
X0262350Y0298886D01*
X0262350Y0318126D01*
X0256887Y0323589D01*
X0257018Y0323907D01*
X0257018Y0325605D01*
X0256369Y0327174D01*
X0255168Y0328375D01*
X0253599Y0329025D01*
X0251901Y0329025D01*
X0250332Y0328375D01*
X0249131Y0327174D01*
X0248481Y0325605D01*
X0248481Y0323907D01*
X0249131Y0322338D01*
X0250332Y0321138D01*
X0251901Y0320488D01*
X0253599Y0320488D01*
X0253917Y0320619D01*
X0258150Y0316386D01*
X0258150Y0300626D01*
X0250650Y0293126D01*
X0250650Y0283975D01*
X0250461Y0283786D01*
X0250050Y0282793D01*
X0250050Y0281719D01*
X0250461Y0280727D01*
X0251221Y0279967D01*
X0252213Y0279556D01*
X0253287Y0279556D01*
X0254279Y0279967D01*
X0255345Y0281467D02*
X0276266Y0281467D01*
X0274510Y0282665D02*
X0255450Y0282665D01*
X0254961Y0283864D02*
X0273776Y0283864D01*
X0273450Y0285062D02*
X0254850Y0285062D01*
X0254850Y0286261D02*
X0273450Y0286261D01*
X0273450Y0287459D02*
X0254850Y0287459D01*
X0254850Y0288658D02*
X0273450Y0288658D01*
X0273450Y0289856D02*
X0254850Y0289856D01*
X0254850Y0291055D02*
X0273450Y0291055D01*
X0273450Y0292253D02*
X0255717Y0292253D01*
X0256915Y0293452D02*
X0273902Y0293452D01*
X0274813Y0294650D02*
X0258114Y0294650D01*
X0259312Y0295849D02*
X0275650Y0295849D01*
X0275650Y0297047D02*
X0260511Y0297047D01*
X0261709Y0298246D02*
X0275650Y0298246D01*
X0275650Y0299444D02*
X0262350Y0299444D01*
X0262350Y0300643D02*
X0275650Y0300643D01*
X0275650Y0301841D02*
X0262350Y0301841D01*
X0262350Y0303040D02*
X0275650Y0303040D01*
X0276762Y0304238D02*
X0262350Y0304238D01*
X0262350Y0305437D02*
X0277961Y0305437D01*
X0279159Y0306635D02*
X0262350Y0306635D01*
X0262350Y0307834D02*
X0280358Y0307834D01*
X0279469Y0309032D02*
X0262350Y0309032D01*
X0262350Y0310231D02*
X0278775Y0310231D01*
X0278481Y0311429D02*
X0262350Y0311429D01*
X0262350Y0312628D02*
X0278481Y0312628D01*
X0278481Y0313826D02*
X0262350Y0313826D01*
X0262350Y0315025D02*
X0278481Y0315025D01*
X0278481Y0316223D02*
X0262350Y0316223D01*
X0262350Y0317422D02*
X0278481Y0317422D01*
X0278501Y0318620D02*
X0261856Y0318620D01*
X0260657Y0319819D02*
X0278997Y0319819D01*
X0280006Y0321017D02*
X0259459Y0321017D01*
X0258260Y0322216D02*
X0289850Y0322216D01*
X0289850Y0323415D02*
X0257062Y0323415D01*
X0257018Y0324613D02*
X0289850Y0324613D01*
X0289850Y0325812D02*
X0256933Y0325812D01*
X0256437Y0327010D02*
X0288895Y0327010D01*
X0287697Y0328209D02*
X0255334Y0328209D01*
X0250166Y0328209D02*
X0233150Y0328209D01*
X0233150Y0327010D02*
X0249063Y0327010D01*
X0248567Y0325812D02*
X0233150Y0325812D01*
X0233150Y0324613D02*
X0248481Y0324613D01*
X0248686Y0323415D02*
X0233150Y0323415D01*
X0233150Y0322216D02*
X0249254Y0322216D01*
X0250622Y0321017D02*
X0242994Y0321017D01*
X0242668Y0321343D02*
X0243869Y0320143D01*
X0244518Y0318574D01*
X0244518Y0310939D01*
X0243869Y0309370D01*
X0242668Y0308169D01*
X0241099Y0307519D01*
X0239401Y0307519D01*
X0237832Y0308169D01*
X0236631Y0309370D01*
X0235981Y0310939D01*
X0235981Y0318574D01*
X0236631Y0320143D01*
X0237832Y0321343D01*
X0239401Y0321993D01*
X0241099Y0321993D01*
X0242668Y0321343D01*
X0244003Y0319819D02*
X0254717Y0319819D01*
X0255916Y0318620D02*
X0244499Y0318620D01*
X0244518Y0317422D02*
X0257114Y0317422D01*
X0258150Y0316223D02*
X0244518Y0316223D01*
X0244518Y0315025D02*
X0258150Y0315025D01*
X0258150Y0313826D02*
X0244518Y0313826D01*
X0244518Y0312628D02*
X0258150Y0312628D01*
X0258150Y0311429D02*
X0244518Y0311429D01*
X0244225Y0310231D02*
X0258150Y0310231D01*
X0258150Y0309032D02*
X0243531Y0309032D01*
X0241859Y0307834D02*
X0249791Y0307834D01*
X0250332Y0308375D02*
X0249131Y0307174D01*
X0248481Y0305605D01*
X0248481Y0303907D01*
X0249131Y0302338D01*
X0250332Y0301138D01*
X0251901Y0300488D01*
X0253599Y0300488D01*
X0255168Y0301138D01*
X0256369Y0302338D01*
X0257018Y0303907D01*
X0257018Y0305605D01*
X0256369Y0307174D01*
X0255168Y0308375D01*
X0253599Y0309025D01*
X0251901Y0309025D01*
X0250332Y0308375D01*
X0248908Y0306635D02*
X0236245Y0306635D01*
X0237443Y0305437D02*
X0248481Y0305437D01*
X0248481Y0304238D02*
X0238542Y0304238D01*
X0239039Y0303040D02*
X0248841Y0303040D01*
X0249628Y0301841D02*
X0239050Y0301841D01*
X0239050Y0300643D02*
X0251527Y0300643D01*
X0253973Y0300643D02*
X0258150Y0300643D01*
X0258150Y0301841D02*
X0255872Y0301841D01*
X0256659Y0303040D02*
X0258150Y0303040D01*
X0258150Y0304238D02*
X0257018Y0304238D01*
X0257018Y0305437D02*
X0258150Y0305437D01*
X0258150Y0306635D02*
X0256592Y0306635D01*
X0255709Y0307834D02*
X0258150Y0307834D01*
X0256968Y0299444D02*
X0239050Y0299444D01*
X0239050Y0298246D02*
X0244249Y0298246D01*
X0244395Y0298306D02*
X0242814Y0297652D01*
X0241605Y0296442D01*
X0240950Y0294862D01*
X0240950Y0287151D01*
X0241605Y0285571D01*
X0242814Y0284361D01*
X0244395Y0283706D01*
X0246105Y0283706D01*
X0247686Y0284361D01*
X0248895Y0285571D01*
X0249550Y0287151D01*
X0249550Y0294862D01*
X0248895Y0296442D01*
X0247686Y0297652D01*
X0246105Y0298306D01*
X0244395Y0298306D01*
X0246251Y0298246D02*
X0255770Y0298246D01*
X0254571Y0297047D02*
X0248290Y0297047D01*
X0249141Y0295849D02*
X0253373Y0295849D01*
X0252174Y0294650D02*
X0249550Y0294650D01*
X0249550Y0293452D02*
X0250976Y0293452D01*
X0250650Y0292253D02*
X0249550Y0292253D01*
X0249550Y0291055D02*
X0250650Y0291055D01*
X0250650Y0289856D02*
X0249550Y0289856D01*
X0249550Y0288658D02*
X0250650Y0288658D01*
X0250650Y0287459D02*
X0249550Y0287459D01*
X0249181Y0286261D02*
X0250650Y0286261D01*
X0250650Y0285062D02*
X0248387Y0285062D01*
X0246485Y0283864D02*
X0250539Y0283864D01*
X0250050Y0282665D02*
X0238041Y0282665D01*
X0238150Y0283864D02*
X0244015Y0283864D01*
X0242113Y0285062D02*
X0238387Y0285062D01*
X0239181Y0286261D02*
X0241319Y0286261D01*
X0240950Y0287459D02*
X0239550Y0287459D01*
X0239550Y0288658D02*
X0240950Y0288658D01*
X0240950Y0289856D02*
X0239550Y0289856D01*
X0239550Y0291055D02*
X0240950Y0291055D01*
X0240950Y0292253D02*
X0239550Y0292253D01*
X0239550Y0293452D02*
X0240950Y0293452D01*
X0240950Y0294650D02*
X0239550Y0294650D01*
X0239141Y0295849D02*
X0241359Y0295849D01*
X0242210Y0297047D02*
X0239050Y0297047D01*
X0231450Y0297047D02*
X0228290Y0297047D01*
X0229141Y0295849D02*
X0231359Y0295849D01*
X0230950Y0294650D02*
X0229550Y0294650D01*
X0229550Y0293452D02*
X0230950Y0293452D01*
X0230950Y0292253D02*
X0229550Y0292253D01*
X0229550Y0291055D02*
X0230950Y0291055D01*
X0230950Y0289856D02*
X0229550Y0289856D01*
X0229550Y0288658D02*
X0230950Y0288658D01*
X0230950Y0287459D02*
X0229550Y0287459D01*
X0229181Y0286261D02*
X0231319Y0286261D01*
X0232113Y0285062D02*
X0228387Y0285062D01*
X0224015Y0283864D02*
X0198985Y0283864D01*
X0200887Y0285062D02*
X0222113Y0285062D01*
X0221319Y0286261D02*
X0201681Y0286261D01*
X0202050Y0287459D02*
X0220950Y0287459D01*
X0220950Y0288658D02*
X0202050Y0288658D01*
X0202050Y0289856D02*
X0220950Y0289856D01*
X0220950Y0291055D02*
X0202050Y0291055D01*
X0202050Y0292253D02*
X0220950Y0292253D01*
X0220950Y0293452D02*
X0202050Y0293452D01*
X0202050Y0294650D02*
X0220950Y0294650D01*
X0221359Y0295849D02*
X0201641Y0295849D01*
X0201550Y0297047D02*
X0222210Y0297047D01*
X0224249Y0298246D02*
X0201550Y0298246D01*
X0201550Y0299444D02*
X0231450Y0299444D01*
X0231450Y0298246D02*
X0226251Y0298246D01*
X0229092Y0303040D02*
X0201550Y0303040D01*
X0201550Y0301841D02*
X0230291Y0301841D01*
X0231450Y0300643D02*
X0201550Y0300643D01*
X0202606Y0304238D02*
X0227894Y0304238D01*
X0226891Y0305437D02*
X0203805Y0305437D01*
X0205003Y0306635D02*
X0226450Y0306635D01*
X0226450Y0307834D02*
X0221859Y0307834D01*
X0221099Y0307519D02*
X0222668Y0308169D01*
X0223869Y0309370D01*
X0224518Y0310939D01*
X0224518Y0318574D01*
X0223869Y0320143D01*
X0222668Y0321343D01*
X0221099Y0321993D01*
X0219401Y0321993D01*
X0217832Y0321343D01*
X0216631Y0320143D01*
X0215981Y0318574D01*
X0215981Y0310939D01*
X0216631Y0309370D01*
X0217832Y0308169D01*
X0219401Y0307519D01*
X0221099Y0307519D01*
X0218641Y0307834D02*
X0206067Y0307834D01*
X0206550Y0309032D02*
X0216969Y0309032D01*
X0216275Y0310231D02*
X0206550Y0310231D01*
X0206550Y0311429D02*
X0215981Y0311429D01*
X0215981Y0312628D02*
X0206683Y0312628D01*
X0207018Y0313826D02*
X0215981Y0313826D01*
X0215981Y0315025D02*
X0207018Y0315025D01*
X0207018Y0316223D02*
X0215981Y0316223D01*
X0215981Y0317422D02*
X0207018Y0317422D01*
X0207018Y0318620D02*
X0216001Y0318620D01*
X0216497Y0319819D02*
X0207018Y0319819D01*
X0207018Y0321017D02*
X0217506Y0321017D01*
X0222994Y0321017D02*
X0227350Y0321017D01*
X0227350Y0322216D02*
X0206545Y0322216D01*
X0205597Y0323415D02*
X0227350Y0323415D01*
X0227350Y0324613D02*
X0195650Y0324613D01*
X0195650Y0323415D02*
X0199903Y0323415D01*
X0198955Y0322216D02*
X0196545Y0322216D01*
X0197018Y0321017D02*
X0198481Y0321017D01*
X0198481Y0319819D02*
X0197018Y0319819D01*
X0197018Y0318620D02*
X0198481Y0318620D01*
X0198481Y0317422D02*
X0197018Y0317422D01*
X0197018Y0316223D02*
X0198481Y0316223D01*
X0198481Y0315025D02*
X0197018Y0315025D01*
X0197018Y0313826D02*
X0198481Y0313826D01*
X0198817Y0312628D02*
X0196683Y0312628D01*
X0196550Y0311429D02*
X0198950Y0311429D01*
X0197851Y0310231D02*
X0196550Y0310231D01*
X0196550Y0309032D02*
X0196652Y0309032D01*
X0193950Y0305437D02*
X0193805Y0305437D01*
X0193950Y0304238D02*
X0192606Y0304238D01*
X0191550Y0303040D02*
X0193950Y0303040D01*
X0193950Y0301841D02*
X0191550Y0301841D01*
X0191550Y0300643D02*
X0193950Y0300643D01*
X0193950Y0299444D02*
X0191550Y0299444D01*
X0191550Y0298246D02*
X0193950Y0298246D01*
X0193950Y0297047D02*
X0191550Y0297047D01*
X0191641Y0295849D02*
X0193859Y0295849D01*
X0193450Y0294650D02*
X0192050Y0294650D01*
X0192050Y0293452D02*
X0193450Y0293452D01*
X0193450Y0292253D02*
X0192050Y0292253D01*
X0192050Y0291055D02*
X0193450Y0291055D01*
X0193450Y0289856D02*
X0192050Y0289856D01*
X0192050Y0288658D02*
X0193450Y0288658D01*
X0193450Y0287459D02*
X0192050Y0287459D01*
X0191681Y0286261D02*
X0193819Y0286261D01*
X0194613Y0285062D02*
X0190887Y0285062D01*
X0190650Y0283864D02*
X0196515Y0283864D01*
X0190650Y0282665D02*
X0222558Y0282665D01*
X0221359Y0281467D02*
X0190650Y0281467D01*
X0190650Y0280268D02*
X0220161Y0280268D01*
X0218962Y0279070D02*
X0190650Y0279070D01*
X0190650Y0277871D02*
X0218366Y0277871D01*
X0218350Y0276673D02*
X0190650Y0276673D01*
X0190650Y0275474D02*
X0218350Y0275474D01*
X0218350Y0274276D02*
X0199973Y0274276D01*
X0200080Y0274169D02*
X0199662Y0274587D01*
X0199171Y0274915D01*
X0198625Y0275141D01*
X0198045Y0275256D01*
X0197750Y0275256D01*
X0197455Y0275256D01*
X0196875Y0275141D01*
X0196329Y0274915D01*
X0195838Y0274587D01*
X0195420Y0274169D01*
X0195091Y0273677D01*
X0194865Y0273131D01*
X0194750Y0272552D01*
X0194750Y0272256D01*
X0194750Y0271961D01*
X0194865Y0271381D01*
X0195091Y0270835D01*
X0195420Y0270344D01*
X0195838Y0269926D01*
X0196329Y0269598D01*
X0196875Y0269372D01*
X0197455Y0269256D01*
X0197750Y0269256D01*
X0198045Y0269256D01*
X0198625Y0269372D01*
X0199171Y0269598D01*
X0199662Y0269926D01*
X0200080Y0270344D01*
X0200409Y0270835D01*
X0200635Y0271381D01*
X0200750Y0271961D01*
X0200750Y0272256D01*
X0197750Y0272256D01*
X0197750Y0269256D01*
X0197750Y0272256D01*
X0197750Y0272256D01*
X0197750Y0272256D01*
X0194750Y0272256D01*
X0197750Y0272256D01*
X0197750Y0272256D01*
X0200750Y0272256D01*
X0200750Y0272552D01*
X0200635Y0273131D01*
X0200409Y0273677D01*
X0200080Y0274169D01*
X0200646Y0273077D02*
X0212859Y0273077D01*
X0212920Y0273169D02*
X0212591Y0272677D01*
X0212365Y0272131D01*
X0212250Y0271552D01*
X0212250Y0271256D01*
X0212250Y0270961D01*
X0212365Y0270381D01*
X0212591Y0269835D01*
X0212920Y0269344D01*
X0213338Y0268926D01*
X0213829Y0268598D01*
X0214375Y0268372D01*
X0214955Y0268256D01*
X0215250Y0268256D01*
X0215545Y0268256D01*
X0216125Y0268372D01*
X0216671Y0268598D01*
X0217162Y0268926D01*
X0217580Y0269344D01*
X0217909Y0269835D01*
X0218135Y0270381D01*
X0218250Y0270961D01*
X0218250Y0271256D01*
X0215250Y0271256D01*
X0215250Y0268256D01*
X0215250Y0271256D01*
X0215250Y0271256D01*
X0215250Y0271256D01*
X0212250Y0271256D01*
X0215250Y0271256D01*
X0215250Y0271256D01*
X0218250Y0271256D01*
X0218250Y0271552D01*
X0218135Y0272131D01*
X0217909Y0272677D01*
X0217580Y0273169D01*
X0217162Y0273587D01*
X0216671Y0273915D01*
X0216125Y0274141D01*
X0215545Y0274256D01*
X0215250Y0274256D01*
X0214955Y0274256D01*
X0214375Y0274141D01*
X0213829Y0273915D01*
X0213338Y0273587D01*
X0212920Y0273169D01*
X0212315Y0271879D02*
X0200734Y0271879D01*
X0200305Y0270680D02*
X0212306Y0270680D01*
X0212828Y0269482D02*
X0198890Y0269482D01*
X0197750Y0269482D02*
X0197750Y0269482D01*
X0196610Y0269482D02*
X0190650Y0269482D01*
X0190650Y0270680D02*
X0195195Y0270680D01*
X0194766Y0271879D02*
X0190650Y0271879D01*
X0190650Y0273077D02*
X0194854Y0273077D01*
X0195527Y0274276D02*
X0190650Y0274276D01*
X0184850Y0274276D02*
X0166082Y0274276D01*
X0166799Y0273077D02*
X0184850Y0273077D01*
X0184850Y0271879D02*
X0166900Y0271879D01*
X0166900Y0270680D02*
X0184850Y0270680D01*
X0184850Y0269482D02*
X0166900Y0269482D01*
X0166900Y0268283D02*
X0184850Y0268283D01*
X0184850Y0267084D02*
X0166900Y0267084D01*
X0166900Y0265886D02*
X0184850Y0265886D01*
X0184850Y0264687D02*
X0166900Y0264687D01*
X0166900Y0263489D02*
X0185136Y0263489D01*
X0186115Y0262290D02*
X0166532Y0262290D01*
X0165437Y0261092D02*
X0187313Y0261092D01*
X0188512Y0259893D02*
X0164238Y0259893D01*
X0163040Y0258695D02*
X0189710Y0258695D01*
X0190909Y0257496D02*
X0171474Y0257496D01*
X0171671Y0257415D02*
X0171125Y0257641D01*
X0170545Y0257756D01*
X0170250Y0257756D01*
X0169955Y0257756D01*
X0169375Y0257641D01*
X0168829Y0257415D01*
X0168338Y0257087D01*
X0167920Y0256669D01*
X0167591Y0256177D01*
X0167365Y0255631D01*
X0167250Y0255052D01*
X0167250Y0254756D01*
X0167250Y0254461D01*
X0167365Y0253881D01*
X0167591Y0253335D01*
X0167920Y0252844D01*
X0168338Y0252426D01*
X0168829Y0252098D01*
X0169375Y0251872D01*
X0169955Y0251756D01*
X0170250Y0251756D01*
X0170545Y0251756D01*
X0171125Y0251872D01*
X0171671Y0252098D01*
X0172162Y0252426D01*
X0172580Y0252844D01*
X0172909Y0253335D01*
X0173135Y0253881D01*
X0173250Y0254461D01*
X0173250Y0254756D01*
X0170250Y0254756D01*
X0170250Y0251756D01*
X0170250Y0254756D01*
X0170250Y0254756D01*
X0170250Y0254756D01*
X0167250Y0254756D01*
X0170250Y0254756D01*
X0170250Y0254756D01*
X0173250Y0254756D01*
X0173250Y0255052D01*
X0173135Y0255631D01*
X0172909Y0256177D01*
X0172580Y0256669D01*
X0172162Y0257087D01*
X0171671Y0257415D01*
X0170250Y0257496D02*
X0170250Y0257496D01*
X0170250Y0257756D02*
X0170250Y0254756D01*
X0170250Y0254756D01*
X0170250Y0257756D01*
X0169026Y0257496D02*
X0161841Y0257496D01*
X0160643Y0256298D02*
X0167672Y0256298D01*
X0167259Y0255099D02*
X0159444Y0255099D01*
X0158458Y0254114D02*
X0158458Y0254114D01*
X0158246Y0253901D02*
X0167361Y0253901D01*
X0168061Y0252702D02*
X0156559Y0252702D01*
X0154837Y0258695D02*
X0131163Y0258695D01*
X0129964Y0259893D02*
X0156036Y0259893D01*
X0157234Y0261092D02*
X0128766Y0261092D01*
X0127567Y0262290D02*
X0158433Y0262290D01*
X0159631Y0263489D02*
X0126369Y0263489D01*
X0125170Y0264687D02*
X0160830Y0264687D01*
X0161100Y0265886D02*
X0124150Y0265886D01*
X0124150Y0267084D02*
X0161100Y0267084D01*
X0161100Y0268283D02*
X0124150Y0268283D01*
X0124150Y0269482D02*
X0154860Y0269482D01*
X0155125Y0269372D02*
X0155705Y0269256D01*
X0156000Y0269256D01*
X0156295Y0269256D01*
X0156875Y0269372D01*
X0157421Y0269598D01*
X0157912Y0269926D01*
X0158330Y0270344D01*
X0158659Y0270835D01*
X0158885Y0271381D01*
X0159000Y0271961D01*
X0159000Y0272256D01*
X0156000Y0272256D01*
X0156000Y0269256D01*
X0156000Y0272256D01*
X0156000Y0272256D01*
X0156000Y0272256D01*
X0153000Y0272256D01*
X0153000Y0271961D01*
X0153115Y0271381D01*
X0153341Y0270835D01*
X0153670Y0270344D01*
X0154088Y0269926D01*
X0154579Y0269598D01*
X0155125Y0269372D01*
X0156000Y0269482D02*
X0156000Y0269482D01*
X0157140Y0269482D02*
X0161100Y0269482D01*
X0161100Y0270680D02*
X0158555Y0270680D01*
X0158984Y0271879D02*
X0161100Y0271879D01*
X0161201Y0273077D02*
X0158896Y0273077D01*
X0158885Y0273131D02*
X0158659Y0273677D01*
X0158330Y0274169D01*
X0157912Y0274587D01*
X0157421Y0274915D01*
X0156875Y0275141D01*
X0156295Y0275256D01*
X0156000Y0275256D01*
X0155705Y0275256D01*
X0155125Y0275141D01*
X0154579Y0274915D01*
X0154088Y0274587D01*
X0153670Y0274169D01*
X0153341Y0273677D01*
X0153115Y0273131D01*
X0153000Y0272552D01*
X0153000Y0272256D01*
X0156000Y0272256D01*
X0156000Y0272256D01*
X0159000Y0272256D01*
X0159000Y0272552D01*
X0158885Y0273131D01*
X0158223Y0274276D02*
X0161918Y0274276D01*
X0156000Y0274276D02*
X0156000Y0274276D01*
X0156000Y0275256D02*
X0156000Y0272256D01*
X0156000Y0272256D01*
X0156000Y0275256D01*
X0156000Y0273077D02*
X0156000Y0273077D01*
X0156000Y0271879D02*
X0156000Y0271879D01*
X0156000Y0270680D02*
X0156000Y0270680D01*
X0153445Y0270680D02*
X0124150Y0270680D01*
X0124150Y0271879D02*
X0153016Y0271879D01*
X0153104Y0273077D02*
X0124150Y0273077D01*
X0124150Y0274276D02*
X0153777Y0274276D01*
X0153287Y0282056D02*
X0154279Y0282467D01*
X0155039Y0283227D01*
X0155450Y0284219D01*
X0155450Y0285293D01*
X0155039Y0286286D01*
X0154850Y0286475D01*
X0154850Y0293886D01*
X0161120Y0300156D01*
X0162350Y0301386D01*
X0162350Y0320626D01*
X0156887Y0326089D01*
X0157018Y0326407D01*
X0157018Y0328105D01*
X0156369Y0329674D01*
X0155168Y0330875D01*
X0153599Y0331525D01*
X0151901Y0331525D01*
X0150332Y0330875D01*
X0149131Y0329674D01*
X0148481Y0328105D01*
X0148481Y0326407D01*
X0149131Y0324838D01*
X0150332Y0323638D01*
X0151901Y0322988D01*
X0153599Y0322988D01*
X0153917Y0323119D01*
X0158150Y0318886D01*
X0158150Y0303126D01*
X0150650Y0295626D01*
X0150650Y0286475D01*
X0150461Y0286286D01*
X0150050Y0285293D01*
X0150050Y0284219D01*
X0150461Y0283227D01*
X0151221Y0282467D01*
X0152213Y0282056D01*
X0153287Y0282056D01*
X0154477Y0282665D02*
X0184850Y0282665D01*
X0184850Y0283864D02*
X0178985Y0283864D01*
X0178605Y0283706D02*
X0180186Y0284361D01*
X0181395Y0285571D01*
X0182050Y0287151D01*
X0182050Y0294862D01*
X0181395Y0296442D01*
X0180186Y0297652D01*
X0179850Y0297791D01*
X0179850Y0303886D01*
X0184850Y0308886D01*
X0184850Y0310537D01*
X0185168Y0310669D01*
X0186369Y0311870D01*
X0187018Y0313439D01*
X0187018Y0321074D01*
X0186369Y0322643D01*
X0185168Y0323843D01*
X0183599Y0324493D01*
X0181901Y0324493D01*
X0180332Y0323843D01*
X0179131Y0322643D01*
X0178481Y0321074D01*
X0178481Y0313439D01*
X0179131Y0311870D01*
X0180332Y0310669D01*
X0180587Y0310563D01*
X0176880Y0306856D01*
X0175650Y0305626D01*
X0175650Y0297791D01*
X0175314Y0297652D01*
X0174105Y0296442D01*
X0173450Y0294862D01*
X0173450Y0287151D01*
X0174105Y0285571D01*
X0175314Y0284361D01*
X0176895Y0283706D01*
X0178605Y0283706D01*
X0176515Y0283864D02*
X0155303Y0283864D01*
X0155450Y0285062D02*
X0174613Y0285062D01*
X0173819Y0286261D02*
X0155049Y0286261D01*
X0154850Y0287459D02*
X0173450Y0287459D01*
X0173450Y0288658D02*
X0154850Y0288658D01*
X0154850Y0289856D02*
X0173450Y0289856D01*
X0173450Y0291055D02*
X0154850Y0291055D01*
X0154850Y0292253D02*
X0173450Y0292253D01*
X0173450Y0293452D02*
X0154850Y0293452D01*
X0155614Y0294650D02*
X0173450Y0294650D01*
X0173859Y0295849D02*
X0156812Y0295849D01*
X0158011Y0297047D02*
X0174710Y0297047D01*
X0175650Y0298246D02*
X0159209Y0298246D01*
X0160408Y0299444D02*
X0175650Y0299444D01*
X0175650Y0300643D02*
X0161606Y0300643D01*
X0161120Y0300156D02*
X0161120Y0300156D01*
X0162350Y0301841D02*
X0175650Y0301841D01*
X0175650Y0303040D02*
X0162350Y0303040D01*
X0162350Y0304238D02*
X0175650Y0304238D01*
X0175650Y0305437D02*
X0162350Y0305437D01*
X0162350Y0306635D02*
X0176659Y0306635D01*
X0177858Y0307834D02*
X0162350Y0307834D01*
X0162350Y0309032D02*
X0179056Y0309032D01*
X0180255Y0310231D02*
X0162350Y0310231D01*
X0162350Y0311429D02*
X0179572Y0311429D01*
X0178817Y0312628D02*
X0162350Y0312628D01*
X0162350Y0313826D02*
X0178481Y0313826D01*
X0178481Y0315025D02*
X0162350Y0315025D01*
X0162350Y0316223D02*
X0178481Y0316223D01*
X0178481Y0317422D02*
X0162350Y0317422D01*
X0162350Y0318620D02*
X0178481Y0318620D01*
X0178481Y0319819D02*
X0162350Y0319819D01*
X0161959Y0321017D02*
X0178481Y0321017D01*
X0178955Y0322216D02*
X0160760Y0322216D01*
X0159562Y0323415D02*
X0179903Y0323415D01*
X0185597Y0323415D02*
X0189850Y0323415D01*
X0189850Y0324613D02*
X0158363Y0324613D01*
X0157165Y0325812D02*
X0189850Y0325812D01*
X0189850Y0327010D02*
X0157018Y0327010D01*
X0156976Y0328209D02*
X0189850Y0328209D01*
X0188998Y0329407D02*
X0156479Y0329407D01*
X0155437Y0330606D02*
X0187799Y0330606D01*
X0186601Y0331804D02*
X0133899Y0331804D01*
X0133150Y0330606D02*
X0150063Y0330606D01*
X0149021Y0329407D02*
X0133150Y0329407D01*
X0133150Y0328209D02*
X0148524Y0328209D01*
X0148481Y0327010D02*
X0133150Y0327010D01*
X0133150Y0325812D02*
X0148728Y0325812D01*
X0149357Y0324613D02*
X0133150Y0324613D01*
X0133150Y0323415D02*
X0137403Y0323415D01*
X0137832Y0323843D02*
X0136631Y0322643D01*
X0135981Y0321074D01*
X0135981Y0313439D01*
X0136631Y0311870D01*
X0137832Y0310669D01*
X0139401Y0310019D01*
X0141099Y0310019D01*
X0142668Y0310669D01*
X0143869Y0311870D01*
X0144518Y0313439D01*
X0144518Y0321074D01*
X0143869Y0322643D01*
X0142668Y0323843D01*
X0141099Y0324493D01*
X0139401Y0324493D01*
X0137832Y0323843D01*
X0136455Y0322216D02*
X0134045Y0322216D01*
X0134518Y0321017D02*
X0135981Y0321017D01*
X0135981Y0319819D02*
X0134518Y0319819D01*
X0134518Y0318620D02*
X0135981Y0318620D01*
X0135981Y0317422D02*
X0134518Y0317422D01*
X0134518Y0316223D02*
X0135981Y0316223D01*
X0135981Y0315025D02*
X0134518Y0315025D01*
X0134518Y0313826D02*
X0135981Y0313826D01*
X0136317Y0312628D02*
X0134183Y0312628D01*
X0134050Y0311429D02*
X0137072Y0311429D01*
X0138890Y0310231D02*
X0135149Y0310231D01*
X0136348Y0309032D02*
X0148865Y0309032D01*
X0149131Y0309674D02*
X0148481Y0308105D01*
X0148481Y0306407D01*
X0149131Y0304838D01*
X0150332Y0303638D01*
X0151901Y0302988D01*
X0153599Y0302988D01*
X0155168Y0303638D01*
X0156369Y0304838D01*
X0157018Y0306407D01*
X0157018Y0308105D01*
X0156369Y0309674D01*
X0155168Y0310875D01*
X0153599Y0311525D01*
X0151901Y0311525D01*
X0150332Y0310875D01*
X0149131Y0309674D01*
X0149688Y0310231D02*
X0141610Y0310231D01*
X0143428Y0311429D02*
X0151671Y0311429D01*
X0153829Y0311429D02*
X0158150Y0311429D01*
X0158150Y0310231D02*
X0155812Y0310231D01*
X0156635Y0309032D02*
X0158150Y0309032D01*
X0158150Y0307834D02*
X0157018Y0307834D01*
X0157018Y0306635D02*
X0158150Y0306635D01*
X0158150Y0305437D02*
X0156617Y0305437D01*
X0155769Y0304238D02*
X0158150Y0304238D01*
X0158064Y0303040D02*
X0153725Y0303040D01*
X0151775Y0303040D02*
X0139050Y0303040D01*
X0139050Y0304238D02*
X0149731Y0304238D01*
X0148883Y0305437D02*
X0139050Y0305437D01*
X0138585Y0306635D02*
X0148481Y0306635D01*
X0148481Y0307834D02*
X0137546Y0307834D01*
X0139050Y0301841D02*
X0156865Y0301841D01*
X0155667Y0300643D02*
X0146500Y0300643D01*
X0146105Y0300806D02*
X0144395Y0300806D01*
X0142814Y0300152D01*
X0141605Y0298942D01*
X0140950Y0297362D01*
X0140950Y0289651D01*
X0141605Y0288071D01*
X0142814Y0286861D01*
X0144395Y0286206D01*
X0146105Y0286206D01*
X0147686Y0286861D01*
X0148895Y0288071D01*
X0149550Y0289651D01*
X0149550Y0297362D01*
X0148895Y0298942D01*
X0147686Y0300152D01*
X0146105Y0300806D01*
X0144000Y0300643D02*
X0139050Y0300643D01*
X0139050Y0299444D02*
X0142107Y0299444D01*
X0141316Y0298246D02*
X0139184Y0298246D01*
X0139550Y0297047D02*
X0140950Y0297047D01*
X0140950Y0295849D02*
X0139550Y0295849D01*
X0139550Y0294650D02*
X0140950Y0294650D01*
X0140950Y0293452D02*
X0139550Y0293452D01*
X0139550Y0292253D02*
X0140950Y0292253D01*
X0140950Y0291055D02*
X0139550Y0291055D01*
X0139550Y0289856D02*
X0140950Y0289856D01*
X0141361Y0288658D02*
X0139139Y0288658D01*
X0138284Y0287459D02*
X0142216Y0287459D01*
X0144263Y0286261D02*
X0138150Y0286261D01*
X0137998Y0285062D02*
X0150050Y0285062D01*
X0150197Y0283864D02*
X0137209Y0283864D01*
X0136010Y0282665D02*
X0151023Y0282665D01*
X0150451Y0286261D02*
X0146237Y0286261D01*
X0148284Y0287459D02*
X0150650Y0287459D01*
X0150650Y0288658D02*
X0149139Y0288658D01*
X0149550Y0289856D02*
X0150650Y0289856D01*
X0150650Y0291055D02*
X0149550Y0291055D01*
X0149550Y0292253D02*
X0150650Y0292253D01*
X0150650Y0293452D02*
X0149550Y0293452D01*
X0149550Y0294650D02*
X0150650Y0294650D01*
X0150873Y0295849D02*
X0149550Y0295849D01*
X0149550Y0297047D02*
X0152071Y0297047D01*
X0153270Y0298246D02*
X0149184Y0298246D01*
X0148393Y0299444D02*
X0154468Y0299444D01*
X0158150Y0312628D02*
X0144183Y0312628D01*
X0144518Y0313826D02*
X0158150Y0313826D01*
X0158150Y0315025D02*
X0144518Y0315025D01*
X0144518Y0316223D02*
X0158150Y0316223D01*
X0158150Y0317422D02*
X0144518Y0317422D01*
X0144518Y0318620D02*
X0158150Y0318620D01*
X0157217Y0319819D02*
X0144518Y0319819D01*
X0144518Y0321017D02*
X0156019Y0321017D01*
X0154820Y0322216D02*
X0144045Y0322216D01*
X0143097Y0323415D02*
X0150871Y0323415D01*
X0137495Y0335400D02*
X0183005Y0335400D01*
X0182384Y0336598D02*
X0138263Y0336598D01*
X0138400Y0337797D02*
X0182350Y0337797D01*
X0182888Y0338995D02*
X0138590Y0338995D01*
X0139789Y0340194D02*
X0232350Y0340194D01*
X0232350Y0341392D02*
X0140987Y0341392D01*
X0142186Y0342591D02*
X0232350Y0342591D01*
X0232350Y0343789D02*
X0143384Y0343789D01*
X0144217Y0344988D02*
X0232350Y0344988D01*
X0232350Y0346186D02*
X0144400Y0346186D01*
X0144400Y0347385D02*
X0232350Y0347385D01*
X0232350Y0348583D02*
X0144400Y0348583D01*
X0144400Y0349782D02*
X0232350Y0349782D01*
X0232350Y0350980D02*
X0211929Y0350980D01*
X0211884Y0350980D02*
X0211116Y0350980D01*
X0211116Y0350973D02*
X0211116Y0358122D01*
X0211884Y0358122D01*
X0211884Y0350973D01*
X0212570Y0351082D01*
X0213254Y0351304D01*
X0213894Y0351630D01*
X0214476Y0352053D01*
X0214985Y0352562D01*
X0215407Y0353143D01*
X0215734Y0353784D01*
X0215956Y0354468D01*
X0216068Y0355178D01*
X0216068Y0358122D01*
X0211884Y0358122D01*
X0211884Y0358891D01*
X0211116Y0358891D01*
X0211116Y0366039D01*
X0210430Y0365931D01*
X0209746Y0365709D01*
X0209106Y0365382D01*
X0208524Y0364959D01*
X0208015Y0364451D01*
X0207593Y0363869D01*
X0207266Y0363228D01*
X0207044Y0362545D01*
X0206931Y0361834D01*
X0206931Y0358891D01*
X0211116Y0358891D01*
X0211116Y0358122D01*
X0206931Y0358122D01*
X0206931Y0355178D01*
X0207044Y0354468D01*
X0207266Y0353784D01*
X0207593Y0353143D01*
X0208015Y0352562D01*
X0208524Y0352053D01*
X0209106Y0351630D01*
X0209746Y0351304D01*
X0210430Y0351082D01*
X0211116Y0350973D01*
X0211071Y0350980D02*
X0144400Y0350980D01*
X0144400Y0352179D02*
X0198822Y0352179D01*
X0197775Y0353377D02*
X0144400Y0353377D01*
X0144400Y0354576D02*
X0197278Y0354576D01*
X0197231Y0355774D02*
X0144400Y0355774D01*
X0144400Y0356973D02*
X0197231Y0356973D01*
X0197231Y0358171D02*
X0169594Y0358171D01*
X0169476Y0358053D02*
X0169985Y0358562D01*
X0170407Y0359143D01*
X0170734Y0359784D01*
X0170956Y0360468D01*
X0171068Y0361178D01*
X0171068Y0364122D01*
X0166884Y0364122D01*
X0166884Y0356973D01*
X0167570Y0357082D01*
X0168254Y0357304D01*
X0168894Y0357630D01*
X0169476Y0358053D01*
X0170523Y0359370D02*
X0197231Y0359370D01*
X0197231Y0360568D02*
X0170972Y0360568D01*
X0171068Y0361767D02*
X0197231Y0361767D01*
X0197497Y0362965D02*
X0171068Y0362965D01*
X0171068Y0364891D02*
X0171068Y0367834D01*
X0170956Y0368545D01*
X0170734Y0369228D01*
X0170407Y0369869D01*
X0169985Y0370451D01*
X0169476Y0370959D01*
X0168894Y0371382D01*
X0168254Y0371709D01*
X0167570Y0371931D01*
X0166884Y0372039D01*
X0166884Y0364891D01*
X0166116Y0364891D01*
X0166116Y0372039D01*
X0165430Y0371931D01*
X0164746Y0371709D01*
X0164106Y0371382D01*
X0163524Y0370959D01*
X0163015Y0370451D01*
X0162593Y0369869D01*
X0162266Y0369228D01*
X0162044Y0368545D01*
X0161931Y0367834D01*
X0161931Y0364891D01*
X0166116Y0364891D01*
X0166116Y0364122D01*
X0166884Y0364122D01*
X0166884Y0364891D01*
X0171068Y0364891D01*
X0171068Y0365362D02*
X0198600Y0365362D01*
X0198600Y0366561D02*
X0171068Y0366561D01*
X0171068Y0367759D02*
X0198600Y0367759D01*
X0198600Y0368958D02*
X0170822Y0368958D01*
X0170199Y0370156D02*
X0198600Y0370156D01*
X0198600Y0371355D02*
X0168932Y0371355D01*
X0166884Y0371355D02*
X0166116Y0371355D01*
X0166116Y0370156D02*
X0166884Y0370156D01*
X0166884Y0368958D02*
X0166116Y0368958D01*
X0166116Y0367759D02*
X0166884Y0367759D01*
X0166884Y0366561D02*
X0166116Y0366561D01*
X0166116Y0365362D02*
X0166884Y0365362D01*
X0166884Y0364164D02*
X0198153Y0364164D01*
X0204400Y0365362D02*
X0209078Y0365362D01*
X0207807Y0364164D02*
X0204847Y0364164D01*
X0205503Y0362965D02*
X0207181Y0362965D01*
X0206931Y0361767D02*
X0205768Y0361767D01*
X0205768Y0360568D02*
X0206931Y0360568D01*
X0206931Y0359370D02*
X0205768Y0359370D01*
X0205768Y0358171D02*
X0211116Y0358171D01*
X0211884Y0358171D02*
X0217231Y0358171D01*
X0217231Y0356973D02*
X0216068Y0356973D01*
X0216068Y0355774D02*
X0217231Y0355774D01*
X0217231Y0354689D02*
X0217881Y0353120D01*
X0219082Y0351919D01*
X0220651Y0351269D01*
X0222349Y0351269D01*
X0223918Y0351919D01*
X0225119Y0353120D01*
X0225768Y0354689D01*
X0225768Y0362324D01*
X0225119Y0363893D01*
X0223918Y0365093D01*
X0222349Y0365743D01*
X0220651Y0365743D01*
X0219082Y0365093D01*
X0217881Y0363893D01*
X0217231Y0362324D01*
X0217231Y0354689D01*
X0217278Y0354576D02*
X0215973Y0354576D01*
X0215527Y0353377D02*
X0217775Y0353377D01*
X0218822Y0352179D02*
X0214602Y0352179D01*
X0211884Y0352179D02*
X0211116Y0352179D01*
X0211116Y0353377D02*
X0211884Y0353377D01*
X0211884Y0354576D02*
X0211116Y0354576D01*
X0211116Y0355774D02*
X0211884Y0355774D01*
X0211884Y0356973D02*
X0211116Y0356973D01*
X0211884Y0358891D02*
X0216068Y0358891D01*
X0216068Y0361834D01*
X0215956Y0362545D01*
X0215734Y0363228D01*
X0215407Y0363869D01*
X0214985Y0364451D01*
X0214476Y0364959D01*
X0213894Y0365382D01*
X0213254Y0365709D01*
X0212570Y0365931D01*
X0211884Y0366039D01*
X0211884Y0358891D01*
X0211884Y0359370D02*
X0211116Y0359370D01*
X0211116Y0360568D02*
X0211884Y0360568D01*
X0211884Y0361767D02*
X0211116Y0361767D01*
X0211116Y0362965D02*
X0211884Y0362965D01*
X0211884Y0364164D02*
X0211116Y0364164D01*
X0211116Y0365362D02*
X0211884Y0365362D01*
X0213922Y0365362D02*
X0219731Y0365362D01*
X0218153Y0364164D02*
X0215193Y0364164D01*
X0215819Y0362965D02*
X0217497Y0362965D01*
X0217231Y0361767D02*
X0216068Y0361767D01*
X0216068Y0360568D02*
X0217231Y0360568D01*
X0217231Y0359370D02*
X0216068Y0359370D01*
X0206931Y0356973D02*
X0205768Y0356973D01*
X0205768Y0355774D02*
X0206931Y0355774D01*
X0207027Y0354576D02*
X0205722Y0354576D01*
X0205225Y0353377D02*
X0207473Y0353377D01*
X0208398Y0352179D02*
X0204178Y0352179D01*
X0204400Y0366561D02*
X0232350Y0366561D01*
X0232350Y0367759D02*
X0204400Y0367759D01*
X0204400Y0368958D02*
X0231447Y0368958D01*
X0230249Y0370156D02*
X0204400Y0370156D01*
X0204400Y0371355D02*
X0229050Y0371355D01*
X0227852Y0372553D02*
X0204400Y0372553D01*
X0198600Y0372553D02*
X0144400Y0372553D01*
X0144400Y0371355D02*
X0154713Y0371355D01*
X0154082Y0371093D02*
X0155651Y0371743D01*
X0157349Y0371743D01*
X0158918Y0371093D01*
X0160119Y0369893D01*
X0160768Y0368324D01*
X0160768Y0360689D01*
X0160119Y0359120D01*
X0158918Y0357919D01*
X0157349Y0357269D01*
X0155651Y0357269D01*
X0154082Y0357919D01*
X0152881Y0359120D01*
X0152231Y0360689D01*
X0152231Y0368324D01*
X0152881Y0369893D01*
X0154082Y0371093D01*
X0153145Y0370156D02*
X0144400Y0370156D01*
X0144400Y0368958D02*
X0152494Y0368958D01*
X0152231Y0367759D02*
X0144400Y0367759D01*
X0144400Y0366561D02*
X0152231Y0366561D01*
X0152231Y0365362D02*
X0144400Y0365362D01*
X0144400Y0364164D02*
X0152231Y0364164D01*
X0152231Y0362965D02*
X0144400Y0362965D01*
X0144400Y0361767D02*
X0152231Y0361767D01*
X0152281Y0360568D02*
X0144400Y0360568D01*
X0144400Y0359370D02*
X0152778Y0359370D01*
X0153830Y0358171D02*
X0144400Y0358171D01*
X0138600Y0358171D02*
X0125768Y0358171D01*
X0125768Y0357189D02*
X0125768Y0364824D01*
X0125119Y0366393D01*
X0123918Y0367593D01*
X0122349Y0368243D01*
X0120651Y0368243D01*
X0119082Y0367593D01*
X0117881Y0366393D01*
X0117231Y0364824D01*
X0117231Y0357189D01*
X0117881Y0355620D01*
X0119082Y0354419D01*
X0120651Y0353769D01*
X0122349Y0353769D01*
X0123918Y0354419D01*
X0125119Y0355620D01*
X0125768Y0357189D01*
X0125679Y0356973D02*
X0138600Y0356973D01*
X0138600Y0355774D02*
X0125183Y0355774D01*
X0124075Y0354576D02*
X0138600Y0354576D01*
X0138600Y0353377D02*
X0038150Y0353377D01*
X0038150Y0352179D02*
X0138600Y0352179D01*
X0138600Y0350980D02*
X0038150Y0350980D01*
X0038150Y0349782D02*
X0138600Y0349782D01*
X0138600Y0348583D02*
X0038150Y0348583D01*
X0038150Y0347385D02*
X0138600Y0347385D01*
X0137579Y0346186D02*
X0038150Y0346186D01*
X0038150Y0344988D02*
X0136380Y0344988D01*
X0135182Y0343789D02*
X0038150Y0343789D01*
X0038150Y0342591D02*
X0133983Y0342591D01*
X0132789Y0341392D02*
X0038150Y0341392D01*
X0038150Y0340194D02*
X0132350Y0340194D01*
X0132350Y0338995D02*
X0087612Y0338995D01*
X0088811Y0337797D02*
X0131689Y0337797D01*
X0130491Y0336598D02*
X0090009Y0336598D01*
X0091208Y0335400D02*
X0129292Y0335400D01*
X0128094Y0334201D02*
X0092406Y0334201D01*
X0093605Y0333003D02*
X0127420Y0333003D01*
X0127350Y0331804D02*
X0094803Y0331804D01*
X0095537Y0330606D02*
X0127350Y0330606D01*
X0127350Y0329407D02*
X0095650Y0329407D01*
X0095650Y0328209D02*
X0127350Y0328209D01*
X0127350Y0327010D02*
X0095650Y0327010D01*
X0095650Y0325812D02*
X0127350Y0325812D01*
X0127350Y0324613D02*
X0095650Y0324613D01*
X0095650Y0323415D02*
X0099903Y0323415D01*
X0098955Y0322216D02*
X0096545Y0322216D01*
X0097018Y0321017D02*
X0098481Y0321017D01*
X0098481Y0319819D02*
X0097018Y0319819D01*
X0097018Y0318620D02*
X0098481Y0318620D01*
X0098481Y0317422D02*
X0097018Y0317422D01*
X0097018Y0316223D02*
X0098481Y0316223D01*
X0098481Y0315025D02*
X0097018Y0315025D01*
X0097018Y0313826D02*
X0098481Y0313826D01*
X0098817Y0312628D02*
X0096683Y0312628D01*
X0096550Y0311429D02*
X0098950Y0311429D01*
X0097851Y0310231D02*
X0096550Y0310231D01*
X0096550Y0309032D02*
X0096652Y0309032D01*
X0093950Y0305437D02*
X0093805Y0305437D01*
X0093950Y0304238D02*
X0092606Y0304238D01*
X0091550Y0303040D02*
X0093950Y0303040D01*
X0093950Y0301841D02*
X0091550Y0301841D01*
X0091550Y0300643D02*
X0093950Y0300643D01*
X0093950Y0299444D02*
X0091550Y0299444D01*
X0091550Y0298246D02*
X0093950Y0298246D01*
X0093950Y0297047D02*
X0091550Y0297047D01*
X0091641Y0295849D02*
X0093859Y0295849D01*
X0093450Y0294650D02*
X0092050Y0294650D01*
X0092050Y0293452D02*
X0093450Y0293452D01*
X0093450Y0292253D02*
X0092050Y0292253D01*
X0092050Y0291055D02*
X0093450Y0291055D01*
X0093450Y0289856D02*
X0092050Y0289856D01*
X0092050Y0288658D02*
X0093450Y0288658D01*
X0093450Y0287459D02*
X0092050Y0287459D01*
X0091681Y0286261D02*
X0093819Y0286261D01*
X0094613Y0285062D02*
X0090887Y0285062D01*
X0090650Y0283864D02*
X0096515Y0283864D01*
X0098985Y0283864D02*
X0121256Y0283864D01*
X0122455Y0285062D02*
X0100887Y0285062D01*
X0101681Y0286261D02*
X0124072Y0286261D01*
X0122216Y0287459D02*
X0102050Y0287459D01*
X0102050Y0288658D02*
X0121361Y0288658D01*
X0120950Y0289856D02*
X0102050Y0289856D01*
X0102050Y0291055D02*
X0120950Y0291055D01*
X0120950Y0292253D02*
X0102050Y0292253D01*
X0102050Y0293452D02*
X0120950Y0293452D01*
X0120950Y0294650D02*
X0102050Y0294650D01*
X0101641Y0295849D02*
X0120950Y0295849D01*
X0120950Y0297047D02*
X0101550Y0297047D01*
X0101550Y0298246D02*
X0121316Y0298246D01*
X0122107Y0299444D02*
X0101550Y0299444D01*
X0101550Y0300643D02*
X0124000Y0300643D01*
X0126500Y0300643D02*
X0131450Y0300643D01*
X0131450Y0301841D02*
X0101550Y0301841D01*
X0101550Y0303040D02*
X0131450Y0303040D01*
X0130394Y0304238D02*
X0102606Y0304238D01*
X0103805Y0305437D02*
X0129195Y0305437D01*
X0127997Y0306635D02*
X0105003Y0306635D01*
X0106067Y0307834D02*
X0126933Y0307834D01*
X0126450Y0309032D02*
X0106550Y0309032D01*
X0106550Y0310231D02*
X0118890Y0310231D01*
X0119401Y0310019D02*
X0121099Y0310019D01*
X0122668Y0310669D01*
X0123869Y0311870D01*
X0124518Y0313439D01*
X0124518Y0321074D01*
X0123869Y0322643D01*
X0122668Y0323843D01*
X0121099Y0324493D01*
X0119401Y0324493D01*
X0117832Y0323843D01*
X0116631Y0322643D01*
X0115981Y0321074D01*
X0115981Y0313439D01*
X0116631Y0311870D01*
X0117832Y0310669D01*
X0119401Y0310019D01*
X0121610Y0310231D02*
X0126450Y0310231D01*
X0126450Y0311429D02*
X0123428Y0311429D01*
X0124183Y0312628D02*
X0126317Y0312628D01*
X0125981Y0313826D02*
X0124518Y0313826D01*
X0124518Y0315025D02*
X0125981Y0315025D01*
X0125981Y0316223D02*
X0124518Y0316223D01*
X0124518Y0317422D02*
X0125981Y0317422D01*
X0125981Y0318620D02*
X0124518Y0318620D01*
X0124518Y0319819D02*
X0125981Y0319819D01*
X0125981Y0321017D02*
X0124518Y0321017D01*
X0124045Y0322216D02*
X0126455Y0322216D01*
X0127350Y0323415D02*
X0123097Y0323415D01*
X0117403Y0323415D02*
X0105597Y0323415D01*
X0106545Y0322216D02*
X0116455Y0322216D01*
X0115981Y0321017D02*
X0107018Y0321017D01*
X0107018Y0319819D02*
X0115981Y0319819D01*
X0115981Y0318620D02*
X0107018Y0318620D01*
X0107018Y0317422D02*
X0115981Y0317422D01*
X0115981Y0316223D02*
X0107018Y0316223D01*
X0107018Y0315025D02*
X0115981Y0315025D01*
X0115981Y0313826D02*
X0107018Y0313826D01*
X0106683Y0312628D02*
X0116317Y0312628D01*
X0117072Y0311429D02*
X0106550Y0311429D01*
X0088950Y0311429D02*
X0085928Y0311429D01*
X0086369Y0311870D02*
X0087018Y0313439D01*
X0087018Y0321074D01*
X0086369Y0322643D01*
X0085168Y0323843D01*
X0083599Y0324493D01*
X0081901Y0324493D01*
X0080332Y0323843D01*
X0079131Y0322643D01*
X0078481Y0321074D01*
X0078481Y0313439D01*
X0079131Y0311870D01*
X0080332Y0310669D01*
X0080587Y0310563D01*
X0076880Y0306856D01*
X0075650Y0305626D01*
X0075650Y0297791D01*
X0075314Y0297652D01*
X0074105Y0296442D01*
X0073450Y0294862D01*
X0073450Y0287151D01*
X0074105Y0285571D01*
X0075314Y0284361D01*
X0076895Y0283706D01*
X0078605Y0283706D01*
X0080186Y0284361D01*
X0081395Y0285571D01*
X0082050Y0287151D01*
X0082050Y0294862D01*
X0081395Y0296442D01*
X0080186Y0297652D01*
X0079850Y0297791D01*
X0079850Y0303886D01*
X0084850Y0308886D01*
X0084850Y0310537D01*
X0085168Y0310669D01*
X0086369Y0311870D01*
X0086683Y0312628D02*
X0088817Y0312628D01*
X0088481Y0313826D02*
X0087018Y0313826D01*
X0087018Y0315025D02*
X0088481Y0315025D01*
X0088481Y0316223D02*
X0087018Y0316223D01*
X0087018Y0317422D02*
X0088481Y0317422D01*
X0088481Y0318620D02*
X0087018Y0318620D01*
X0087018Y0319819D02*
X0088481Y0319819D01*
X0088481Y0321017D02*
X0087018Y0321017D01*
X0086545Y0322216D02*
X0088955Y0322216D01*
X0089850Y0323415D02*
X0085597Y0323415D01*
X0089850Y0324613D02*
X0058363Y0324613D01*
X0057165Y0325812D02*
X0089850Y0325812D01*
X0089850Y0327010D02*
X0057018Y0327010D01*
X0057018Y0326407D02*
X0056887Y0326089D01*
X0062350Y0320626D01*
X0062350Y0301386D01*
X0061120Y0300156D01*
X0054850Y0293886D01*
X0054850Y0286475D01*
X0055039Y0286286D01*
X0055450Y0285293D01*
X0055450Y0284219D01*
X0055039Y0283227D01*
X0054279Y0282467D01*
X0053287Y0282056D01*
X0052213Y0282056D01*
X0051221Y0282467D01*
X0050461Y0283227D01*
X0050050Y0284219D01*
X0050050Y0285293D01*
X0050461Y0286286D01*
X0050650Y0286475D01*
X0050650Y0295626D01*
X0058150Y0303126D01*
X0058150Y0318886D01*
X0053917Y0323119D01*
X0053599Y0322988D01*
X0051901Y0322988D01*
X0050332Y0323638D01*
X0049131Y0324838D01*
X0048481Y0326407D01*
X0048481Y0328105D01*
X0049131Y0329674D01*
X0050332Y0330875D01*
X0051901Y0331525D01*
X0053599Y0331525D01*
X0055168Y0330875D01*
X0056369Y0329674D01*
X0057018Y0328105D01*
X0057018Y0326407D01*
X0056976Y0328209D02*
X0089850Y0328209D01*
X0088998Y0329407D02*
X0056479Y0329407D01*
X0055437Y0330606D02*
X0087799Y0330606D01*
X0086601Y0331804D02*
X0033899Y0331804D01*
X0033150Y0330606D02*
X0050063Y0330606D01*
X0049021Y0329407D02*
X0033150Y0329407D01*
X0033150Y0328209D02*
X0048524Y0328209D01*
X0048481Y0327010D02*
X0033150Y0327010D01*
X0033150Y0325812D02*
X0048728Y0325812D01*
X0049357Y0324613D02*
X0033150Y0324613D01*
X0033150Y0323415D02*
X0037403Y0323415D01*
X0037832Y0323843D02*
X0036631Y0322643D01*
X0035981Y0321074D01*
X0035981Y0313439D01*
X0036631Y0311870D01*
X0037832Y0310669D01*
X0039401Y0310019D01*
X0041099Y0310019D01*
X0042668Y0310669D01*
X0043869Y0311870D01*
X0044518Y0313439D01*
X0044518Y0321074D01*
X0043869Y0322643D01*
X0042668Y0323843D01*
X0041099Y0324493D01*
X0039401Y0324493D01*
X0037832Y0323843D01*
X0036455Y0322216D02*
X0034045Y0322216D01*
X0034518Y0321017D02*
X0035981Y0321017D01*
X0035981Y0319819D02*
X0034518Y0319819D01*
X0034518Y0318620D02*
X0035981Y0318620D01*
X0035981Y0317422D02*
X0034518Y0317422D01*
X0034518Y0316223D02*
X0035981Y0316223D01*
X0035981Y0315025D02*
X0034518Y0315025D01*
X0034518Y0313826D02*
X0035981Y0313826D01*
X0036317Y0312628D02*
X0034183Y0312628D01*
X0034050Y0311429D02*
X0037072Y0311429D01*
X0038890Y0310231D02*
X0035149Y0310231D01*
X0036348Y0309032D02*
X0048865Y0309032D01*
X0049131Y0309674D02*
X0048481Y0308105D01*
X0048481Y0306407D01*
X0049131Y0304838D01*
X0050332Y0303638D01*
X0051901Y0302988D01*
X0053599Y0302988D01*
X0055168Y0303638D01*
X0056369Y0304838D01*
X0057018Y0306407D01*
X0057018Y0308105D01*
X0056369Y0309674D01*
X0055168Y0310875D01*
X0053599Y0311525D01*
X0051901Y0311525D01*
X0050332Y0310875D01*
X0049131Y0309674D01*
X0049688Y0310231D02*
X0041610Y0310231D01*
X0043428Y0311429D02*
X0051671Y0311429D01*
X0053829Y0311429D02*
X0058150Y0311429D01*
X0058150Y0310231D02*
X0055812Y0310231D01*
X0056635Y0309032D02*
X0058150Y0309032D01*
X0058150Y0307834D02*
X0057018Y0307834D01*
X0057018Y0306635D02*
X0058150Y0306635D01*
X0058150Y0305437D02*
X0056617Y0305437D01*
X0055769Y0304238D02*
X0058150Y0304238D01*
X0058064Y0303040D02*
X0053725Y0303040D01*
X0051775Y0303040D02*
X0039050Y0303040D01*
X0039050Y0304238D02*
X0049731Y0304238D01*
X0048883Y0305437D02*
X0039050Y0305437D01*
X0038585Y0306635D02*
X0048481Y0306635D01*
X0048481Y0307834D02*
X0037546Y0307834D01*
X0039050Y0301841D02*
X0056865Y0301841D01*
X0055667Y0300643D02*
X0046500Y0300643D01*
X0046105Y0300806D02*
X0044395Y0300806D01*
X0042814Y0300152D01*
X0041605Y0298942D01*
X0040950Y0297362D01*
X0040950Y0289651D01*
X0041605Y0288071D01*
X0042814Y0286861D01*
X0044395Y0286206D01*
X0046105Y0286206D01*
X0047686Y0286861D01*
X0048895Y0288071D01*
X0049550Y0289651D01*
X0049550Y0297362D01*
X0048895Y0298942D01*
X0047686Y0300152D01*
X0046105Y0300806D01*
X0044000Y0300643D02*
X0039050Y0300643D01*
X0039050Y0299444D02*
X0042107Y0299444D01*
X0041316Y0298246D02*
X0039184Y0298246D01*
X0039550Y0297047D02*
X0040950Y0297047D01*
X0040950Y0295849D02*
X0039550Y0295849D01*
X0039550Y0294650D02*
X0040950Y0294650D01*
X0040950Y0293452D02*
X0039550Y0293452D01*
X0039550Y0292253D02*
X0040950Y0292253D01*
X0040950Y0291055D02*
X0039550Y0291055D01*
X0039550Y0289856D02*
X0040950Y0289856D01*
X0041361Y0288658D02*
X0039139Y0288658D01*
X0038284Y0287459D02*
X0042216Y0287459D01*
X0044263Y0286261D02*
X0038150Y0286261D01*
X0037998Y0285062D02*
X0050050Y0285062D01*
X0050197Y0283864D02*
X0037209Y0283864D01*
X0036893Y0283548D02*
X0036893Y0283548D01*
X0036010Y0282665D02*
X0051023Y0282665D01*
X0054477Y0282665D02*
X0084850Y0282665D01*
X0084850Y0283864D02*
X0078985Y0283864D01*
X0080887Y0285062D02*
X0084613Y0285062D01*
X0083819Y0286261D02*
X0081681Y0286261D01*
X0082050Y0287459D02*
X0083450Y0287459D01*
X0083450Y0288658D02*
X0082050Y0288658D01*
X0082050Y0289856D02*
X0083450Y0289856D01*
X0083450Y0291055D02*
X0082050Y0291055D01*
X0082050Y0292253D02*
X0083450Y0292253D01*
X0083450Y0293452D02*
X0082050Y0293452D01*
X0082050Y0294650D02*
X0083450Y0294650D01*
X0083859Y0295849D02*
X0081641Y0295849D01*
X0080790Y0297047D02*
X0083950Y0297047D01*
X0083950Y0298246D02*
X0079850Y0298246D01*
X0079850Y0299444D02*
X0083950Y0299444D01*
X0083950Y0300643D02*
X0079850Y0300643D01*
X0079850Y0301841D02*
X0083950Y0301841D01*
X0083950Y0303040D02*
X0079850Y0303040D01*
X0080202Y0304238D02*
X0083950Y0304238D01*
X0083950Y0305437D02*
X0081400Y0305437D01*
X0082599Y0306635D02*
X0084415Y0306635D01*
X0083797Y0307834D02*
X0085454Y0307834D01*
X0084850Y0309032D02*
X0086652Y0309032D01*
X0087851Y0310231D02*
X0084850Y0310231D01*
X0080255Y0310231D02*
X0062350Y0310231D01*
X0062350Y0311429D02*
X0079572Y0311429D01*
X0078817Y0312628D02*
X0062350Y0312628D01*
X0062350Y0313826D02*
X0078481Y0313826D01*
X0078481Y0315025D02*
X0062350Y0315025D01*
X0062350Y0316223D02*
X0078481Y0316223D01*
X0078481Y0317422D02*
X0062350Y0317422D01*
X0062350Y0318620D02*
X0078481Y0318620D01*
X0078481Y0319819D02*
X0062350Y0319819D01*
X0061959Y0321017D02*
X0078481Y0321017D01*
X0078955Y0322216D02*
X0060760Y0322216D01*
X0059562Y0323415D02*
X0079903Y0323415D01*
X0085402Y0333003D02*
X0035098Y0333003D01*
X0036296Y0334201D02*
X0084204Y0334201D01*
X0083005Y0335400D02*
X0037495Y0335400D01*
X0038116Y0336598D02*
X0082384Y0336598D01*
X0082350Y0337797D02*
X0038150Y0337797D01*
X0038150Y0338995D02*
X0082888Y0338995D01*
X0098925Y0354576D02*
X0038150Y0354576D01*
X0038150Y0355774D02*
X0097817Y0355774D01*
X0097321Y0356973D02*
X0038150Y0356973D01*
X0038150Y0358171D02*
X0053830Y0358171D01*
X0054082Y0357919D02*
X0055651Y0357269D01*
X0057349Y0357269D01*
X0058918Y0357919D01*
X0060119Y0359120D01*
X0060768Y0360689D01*
X0060768Y0368324D01*
X0060119Y0369893D01*
X0058918Y0371093D01*
X0057349Y0371743D01*
X0055651Y0371743D01*
X0054082Y0371093D01*
X0052881Y0369893D01*
X0052231Y0368324D01*
X0052231Y0360689D01*
X0052881Y0359120D01*
X0054082Y0357919D01*
X0052778Y0359370D02*
X0038150Y0359370D01*
X0038150Y0360568D02*
X0052281Y0360568D01*
X0052231Y0361767D02*
X0038150Y0361767D01*
X0038150Y0362965D02*
X0052231Y0362965D01*
X0052231Y0364164D02*
X0038150Y0364164D01*
X0038150Y0365362D02*
X0052231Y0365362D01*
X0052231Y0366561D02*
X0038906Y0366561D01*
X0040104Y0367759D02*
X0052231Y0367759D01*
X0052494Y0368958D02*
X0041303Y0368958D01*
X0042501Y0370156D02*
X0053145Y0370156D01*
X0054713Y0371355D02*
X0043700Y0371355D01*
X0044898Y0372553D02*
X0098600Y0372553D01*
X0098600Y0371355D02*
X0068932Y0371355D01*
X0068894Y0371382D02*
X0068254Y0371709D01*
X0067570Y0371931D01*
X0066884Y0372039D01*
X0066884Y0364891D01*
X0066116Y0364891D01*
X0066116Y0372039D01*
X0065430Y0371931D01*
X0064746Y0371709D01*
X0064106Y0371382D01*
X0063524Y0370959D01*
X0063015Y0370451D01*
X0062593Y0369869D01*
X0062266Y0369228D01*
X0062044Y0368545D01*
X0061931Y0367834D01*
X0061931Y0364891D01*
X0066116Y0364891D01*
X0066116Y0364122D01*
X0066884Y0364122D01*
X0066884Y0356973D01*
X0067570Y0357082D01*
X0068254Y0357304D01*
X0068894Y0357630D01*
X0069476Y0358053D01*
X0069985Y0358562D01*
X0070407Y0359143D01*
X0070734Y0359784D01*
X0070956Y0360468D01*
X0071068Y0361178D01*
X0071068Y0364122D01*
X0066884Y0364122D01*
X0066884Y0364891D01*
X0071068Y0364891D01*
X0071068Y0367834D01*
X0070956Y0368545D01*
X0070734Y0369228D01*
X0070407Y0369869D01*
X0069985Y0370451D01*
X0069476Y0370959D01*
X0068894Y0371382D01*
X0070199Y0370156D02*
X0098600Y0370156D01*
X0098600Y0368958D02*
X0070822Y0368958D01*
X0071068Y0367759D02*
X0098600Y0367759D01*
X0098050Y0366561D02*
X0071068Y0366561D01*
X0071068Y0365362D02*
X0097455Y0365362D01*
X0097231Y0364164D02*
X0066884Y0364164D01*
X0066116Y0364164D02*
X0060768Y0364164D01*
X0061931Y0364122D02*
X0061931Y0361178D01*
X0062044Y0360468D01*
X0062266Y0359784D01*
X0062593Y0359143D01*
X0063015Y0358562D01*
X0063524Y0358053D01*
X0064106Y0357630D01*
X0064746Y0357304D01*
X0065430Y0357082D01*
X0066116Y0356973D01*
X0066116Y0364122D01*
X0061931Y0364122D01*
X0061931Y0362965D02*
X0060768Y0362965D01*
X0060768Y0361767D02*
X0061931Y0361767D01*
X0062028Y0360568D02*
X0060719Y0360568D01*
X0060222Y0359370D02*
X0062477Y0359370D01*
X0063406Y0358171D02*
X0059170Y0358171D01*
X0066116Y0358171D02*
X0066884Y0358171D01*
X0066884Y0359370D02*
X0066116Y0359370D01*
X0066116Y0360568D02*
X0066884Y0360568D01*
X0066884Y0361767D02*
X0066116Y0361767D01*
X0066116Y0362965D02*
X0066884Y0362965D01*
X0066884Y0365362D02*
X0066116Y0365362D01*
X0066116Y0366561D02*
X0066884Y0366561D01*
X0066884Y0367759D02*
X0066116Y0367759D01*
X0066116Y0368958D02*
X0066884Y0368958D01*
X0066884Y0370156D02*
X0066116Y0370156D01*
X0066116Y0371355D02*
X0066884Y0371355D01*
X0064068Y0371355D02*
X0058287Y0371355D01*
X0059855Y0370156D02*
X0062801Y0370156D01*
X0062178Y0368958D02*
X0060506Y0368958D01*
X0060768Y0367759D02*
X0061931Y0367759D01*
X0061931Y0366561D02*
X0060768Y0366561D01*
X0060768Y0365362D02*
X0061931Y0365362D01*
X0071068Y0362965D02*
X0097231Y0362965D01*
X0097231Y0361767D02*
X0071068Y0361767D01*
X0070972Y0360568D02*
X0097231Y0360568D01*
X0097231Y0359370D02*
X0070523Y0359370D01*
X0069594Y0358171D02*
X0097231Y0358171D01*
X0104075Y0354576D02*
X0108501Y0354576D01*
X0108524Y0354553D02*
X0109106Y0354130D01*
X0109746Y0353804D01*
X0110430Y0353582D01*
X0111116Y0353473D01*
X0111116Y0360622D01*
X0111884Y0360622D01*
X0111884Y0353473D01*
X0112570Y0353582D01*
X0113254Y0353804D01*
X0113894Y0354130D01*
X0114476Y0354553D01*
X0114985Y0355062D01*
X0115407Y0355643D01*
X0115734Y0356284D01*
X0115956Y0356968D01*
X0116068Y0357678D01*
X0116068Y0360622D01*
X0111884Y0360622D01*
X0111884Y0361391D01*
X0111116Y0361391D01*
X0111116Y0368539D01*
X0110430Y0368431D01*
X0109746Y0368209D01*
X0109106Y0367882D01*
X0108524Y0367459D01*
X0108015Y0366951D01*
X0107593Y0366369D01*
X0107266Y0365728D01*
X0107044Y0365045D01*
X0106931Y0364334D01*
X0106931Y0361391D01*
X0111116Y0361391D01*
X0111116Y0360622D01*
X0106931Y0360622D01*
X0106931Y0357678D01*
X0107044Y0356968D01*
X0107266Y0356284D01*
X0107593Y0355643D01*
X0108015Y0355062D01*
X0108524Y0354553D01*
X0107526Y0355774D02*
X0105183Y0355774D01*
X0105679Y0356973D02*
X0107043Y0356973D01*
X0106931Y0358171D02*
X0105768Y0358171D01*
X0105768Y0359370D02*
X0106931Y0359370D01*
X0106931Y0360568D02*
X0105768Y0360568D01*
X0105768Y0361767D02*
X0106931Y0361767D01*
X0106931Y0362965D02*
X0105768Y0362965D01*
X0105768Y0364164D02*
X0106931Y0364164D01*
X0107147Y0365362D02*
X0105545Y0365362D01*
X0104950Y0366561D02*
X0107732Y0366561D01*
X0108937Y0367759D02*
X0104400Y0367759D01*
X0104400Y0368958D02*
X0138600Y0368958D01*
X0138600Y0370156D02*
X0104400Y0370156D01*
X0104400Y0371355D02*
X0138600Y0371355D01*
X0138600Y0372553D02*
X0104400Y0372553D01*
X0111116Y0367759D02*
X0111884Y0367759D01*
X0111884Y0368539D02*
X0111884Y0361391D01*
X0116068Y0361391D01*
X0116068Y0364334D01*
X0115956Y0365045D01*
X0115734Y0365728D01*
X0115407Y0366369D01*
X0114985Y0366951D01*
X0114476Y0367459D01*
X0113894Y0367882D01*
X0113254Y0368209D01*
X0112570Y0368431D01*
X0111884Y0368539D01*
X0111884Y0366561D02*
X0111116Y0366561D01*
X0111116Y0365362D02*
X0111884Y0365362D01*
X0111884Y0364164D02*
X0111116Y0364164D01*
X0111116Y0362965D02*
X0111884Y0362965D01*
X0111884Y0361767D02*
X0111116Y0361767D01*
X0111116Y0360568D02*
X0111884Y0360568D01*
X0111884Y0359370D02*
X0111116Y0359370D01*
X0111116Y0358171D02*
X0111884Y0358171D01*
X0111884Y0356973D02*
X0111116Y0356973D01*
X0111116Y0355774D02*
X0111884Y0355774D01*
X0111884Y0354576D02*
X0111116Y0354576D01*
X0114499Y0354576D02*
X0118925Y0354576D01*
X0117817Y0355774D02*
X0115474Y0355774D01*
X0115957Y0356973D02*
X0117321Y0356973D01*
X0117231Y0358171D02*
X0116068Y0358171D01*
X0116068Y0359370D02*
X0117231Y0359370D01*
X0117231Y0360568D02*
X0116068Y0360568D01*
X0116068Y0361767D02*
X0117231Y0361767D01*
X0117231Y0362965D02*
X0116068Y0362965D01*
X0116068Y0364164D02*
X0117231Y0364164D01*
X0117455Y0365362D02*
X0115853Y0365362D01*
X0115268Y0366561D02*
X0118050Y0366561D01*
X0119483Y0367759D02*
X0114063Y0367759D01*
X0123517Y0367759D02*
X0138600Y0367759D01*
X0138600Y0366561D02*
X0124950Y0366561D01*
X0125545Y0365362D02*
X0138600Y0365362D01*
X0138600Y0364164D02*
X0125768Y0364164D01*
X0125768Y0362965D02*
X0138600Y0362965D01*
X0138600Y0361767D02*
X0125768Y0361767D01*
X0125768Y0360568D02*
X0138600Y0360568D01*
X0138600Y0359370D02*
X0125768Y0359370D01*
X0136893Y0334798D02*
X0136893Y0334798D01*
X0136296Y0334201D02*
X0184204Y0334201D01*
X0185402Y0333003D02*
X0135098Y0333003D01*
X0159170Y0358171D02*
X0163406Y0358171D01*
X0163524Y0358053D02*
X0164106Y0357630D01*
X0164746Y0357304D01*
X0165430Y0357082D01*
X0166116Y0356973D01*
X0166116Y0364122D01*
X0161931Y0364122D01*
X0161931Y0361178D01*
X0162044Y0360468D01*
X0162266Y0359784D01*
X0162593Y0359143D01*
X0163015Y0358562D01*
X0163524Y0358053D01*
X0162477Y0359370D02*
X0160222Y0359370D01*
X0160719Y0360568D02*
X0162028Y0360568D01*
X0161931Y0361767D02*
X0160768Y0361767D01*
X0160768Y0362965D02*
X0161931Y0362965D01*
X0160768Y0364164D02*
X0166116Y0364164D01*
X0166116Y0362965D02*
X0166884Y0362965D01*
X0166884Y0361767D02*
X0166116Y0361767D01*
X0166116Y0360568D02*
X0166884Y0360568D01*
X0166884Y0359370D02*
X0166116Y0359370D01*
X0166116Y0358171D02*
X0166884Y0358171D01*
X0161931Y0365362D02*
X0160768Y0365362D01*
X0160768Y0366561D02*
X0161931Y0366561D01*
X0161931Y0367759D02*
X0160768Y0367759D01*
X0160506Y0368958D02*
X0162178Y0368958D01*
X0162801Y0370156D02*
X0159855Y0370156D01*
X0158287Y0371355D02*
X0164068Y0371355D01*
X0187612Y0338995D02*
X0232350Y0338995D01*
X0232350Y0337797D02*
X0188811Y0337797D01*
X0190009Y0336598D02*
X0232350Y0336598D01*
X0231792Y0335400D02*
X0191208Y0335400D01*
X0192406Y0334201D02*
X0230594Y0334201D01*
X0229395Y0333003D02*
X0193605Y0333003D01*
X0194803Y0331804D02*
X0228197Y0331804D01*
X0228607Y0332215D02*
X0228607Y0332215D01*
X0227463Y0330606D02*
X0195537Y0330606D01*
X0195650Y0329407D02*
X0227350Y0329407D01*
X0227350Y0328209D02*
X0195650Y0328209D01*
X0195650Y0327010D02*
X0227350Y0327010D01*
X0227350Y0325812D02*
X0195650Y0325812D01*
X0188955Y0322216D02*
X0186545Y0322216D01*
X0187018Y0321017D02*
X0188481Y0321017D01*
X0188481Y0319819D02*
X0187018Y0319819D01*
X0187018Y0318620D02*
X0188481Y0318620D01*
X0188481Y0317422D02*
X0187018Y0317422D01*
X0187018Y0316223D02*
X0188481Y0316223D01*
X0188481Y0315025D02*
X0187018Y0315025D01*
X0187018Y0313826D02*
X0188481Y0313826D01*
X0188817Y0312628D02*
X0186683Y0312628D01*
X0185928Y0311429D02*
X0188950Y0311429D01*
X0187851Y0310231D02*
X0184850Y0310231D01*
X0184850Y0309032D02*
X0186652Y0309032D01*
X0185454Y0307834D02*
X0183797Y0307834D01*
X0184415Y0306635D02*
X0182599Y0306635D01*
X0181400Y0305437D02*
X0183950Y0305437D01*
X0183950Y0304238D02*
X0180202Y0304238D01*
X0179850Y0303040D02*
X0183950Y0303040D01*
X0183950Y0301841D02*
X0179850Y0301841D01*
X0179850Y0300643D02*
X0183950Y0300643D01*
X0183950Y0299444D02*
X0179850Y0299444D01*
X0179850Y0298246D02*
X0183950Y0298246D01*
X0183950Y0297047D02*
X0180790Y0297047D01*
X0181641Y0295849D02*
X0183859Y0295849D01*
X0183450Y0294650D02*
X0182050Y0294650D01*
X0182050Y0293452D02*
X0183450Y0293452D01*
X0183450Y0292253D02*
X0182050Y0292253D01*
X0182050Y0291055D02*
X0183450Y0291055D01*
X0183450Y0289856D02*
X0182050Y0289856D01*
X0182050Y0288658D02*
X0183450Y0288658D01*
X0183450Y0287459D02*
X0182050Y0287459D01*
X0181681Y0286261D02*
X0183819Y0286261D01*
X0184613Y0285062D02*
X0180887Y0285062D01*
X0184850Y0275474D02*
X0124150Y0275474D01*
X0124150Y0276673D02*
X0125482Y0276673D01*
X0124728Y0277871D02*
X0124150Y0277871D01*
X0118350Y0277871D02*
X0090650Y0277871D01*
X0090650Y0276673D02*
X0114534Y0276673D01*
X0114375Y0276641D02*
X0113829Y0276415D01*
X0113338Y0276087D01*
X0112920Y0275669D01*
X0112591Y0275177D01*
X0112365Y0274631D01*
X0112250Y0274052D01*
X0112250Y0273756D01*
X0112250Y0273461D01*
X0112365Y0272881D01*
X0112591Y0272335D01*
X0112920Y0271844D01*
X0113338Y0271426D01*
X0113829Y0271098D01*
X0114375Y0270872D01*
X0114955Y0270756D01*
X0115250Y0270756D01*
X0115545Y0270756D01*
X0116125Y0270872D01*
X0116671Y0271098D01*
X0117162Y0271426D01*
X0117580Y0271844D01*
X0117909Y0272335D01*
X0118135Y0272881D01*
X0118250Y0273461D01*
X0118250Y0273756D01*
X0115250Y0273756D01*
X0115250Y0270756D01*
X0115250Y0273756D01*
X0115250Y0273756D01*
X0115250Y0273756D01*
X0112250Y0273756D01*
X0115250Y0273756D01*
X0115250Y0273756D01*
X0118250Y0273756D01*
X0118250Y0274052D01*
X0118135Y0274631D01*
X0117909Y0275177D01*
X0117580Y0275669D01*
X0117162Y0276087D01*
X0116671Y0276415D01*
X0116125Y0276641D01*
X0115545Y0276756D01*
X0115250Y0276756D01*
X0114955Y0276756D01*
X0114375Y0276641D01*
X0115250Y0276673D02*
X0115250Y0276673D01*
X0115250Y0276756D02*
X0115250Y0273756D01*
X0115250Y0273756D01*
X0115250Y0276756D01*
X0115966Y0276673D02*
X0118350Y0276673D01*
X0118350Y0275474D02*
X0117710Y0275474D01*
X0118205Y0274276D02*
X0118350Y0274276D01*
X0118350Y0273077D02*
X0118174Y0273077D01*
X0118350Y0271879D02*
X0117603Y0271879D01*
X0118350Y0270680D02*
X0100305Y0270680D01*
X0100409Y0270835D02*
X0100635Y0271381D01*
X0100750Y0271961D01*
X0100750Y0272256D01*
X0097750Y0272256D01*
X0097750Y0269256D01*
X0098045Y0269256D01*
X0098625Y0269372D01*
X0099171Y0269598D01*
X0099662Y0269926D01*
X0100080Y0270344D01*
X0100409Y0270835D01*
X0100734Y0271879D02*
X0112897Y0271879D01*
X0112326Y0273077D02*
X0100646Y0273077D01*
X0100635Y0273131D02*
X0100409Y0273677D01*
X0100080Y0274169D01*
X0099662Y0274587D01*
X0099171Y0274915D01*
X0098625Y0275141D01*
X0098045Y0275256D01*
X0097750Y0275256D01*
X0097455Y0275256D01*
X0096875Y0275141D01*
X0096329Y0274915D01*
X0095838Y0274587D01*
X0095420Y0274169D01*
X0095091Y0273677D01*
X0094865Y0273131D01*
X0094750Y0272552D01*
X0094750Y0272256D01*
X0094750Y0271961D01*
X0094865Y0271381D01*
X0095091Y0270835D01*
X0095420Y0270344D01*
X0095838Y0269926D01*
X0096329Y0269598D01*
X0096875Y0269372D01*
X0097455Y0269256D01*
X0097750Y0269256D01*
X0097750Y0272256D01*
X0097750Y0272256D01*
X0097750Y0272256D01*
X0094750Y0272256D01*
X0097750Y0272256D01*
X0097750Y0272256D01*
X0100750Y0272256D01*
X0100750Y0272552D01*
X0100635Y0273131D01*
X0099973Y0274276D02*
X0112295Y0274276D01*
X0112790Y0275474D02*
X0090650Y0275474D01*
X0090650Y0274276D02*
X0095527Y0274276D01*
X0094854Y0273077D02*
X0090650Y0273077D01*
X0090650Y0271879D02*
X0094766Y0271879D01*
X0095195Y0270680D02*
X0090650Y0270680D01*
X0090650Y0269482D02*
X0096610Y0269482D01*
X0097750Y0269482D02*
X0097750Y0269482D01*
X0098890Y0269482D02*
X0118350Y0269482D01*
X0118350Y0268283D02*
X0090650Y0268283D01*
X0090650Y0267084D02*
X0118350Y0267084D01*
X0118350Y0265886D02*
X0090722Y0265886D01*
X0091920Y0264687D02*
X0118350Y0264687D01*
X0118532Y0263489D02*
X0093119Y0263489D01*
X0094317Y0262290D02*
X0119365Y0262290D01*
X0120563Y0261092D02*
X0095516Y0261092D01*
X0096714Y0259893D02*
X0121762Y0259893D01*
X0122960Y0258695D02*
X0097913Y0258695D01*
X0099111Y0257496D02*
X0119026Y0257496D01*
X0118829Y0257415D02*
X0118338Y0257087D01*
X0117920Y0256669D01*
X0117591Y0256177D01*
X0117365Y0255631D01*
X0117250Y0255052D01*
X0117250Y0254756D01*
X0117250Y0254461D01*
X0117365Y0253881D01*
X0117591Y0253335D01*
X0117920Y0252844D01*
X0118338Y0252426D01*
X0118829Y0252098D01*
X0119375Y0251872D01*
X0119955Y0251756D01*
X0120250Y0251756D01*
X0120545Y0251756D01*
X0121125Y0251872D01*
X0121671Y0252098D01*
X0122162Y0252426D01*
X0122580Y0252844D01*
X0122909Y0253335D01*
X0123135Y0253881D01*
X0123250Y0254461D01*
X0123250Y0254756D01*
X0120250Y0254756D01*
X0120250Y0251756D01*
X0120250Y0254756D01*
X0120250Y0254756D01*
X0120250Y0254756D01*
X0117250Y0254756D01*
X0120250Y0254756D01*
X0120250Y0254756D01*
X0123250Y0254756D01*
X0123250Y0255052D01*
X0123135Y0255631D01*
X0122909Y0256177D01*
X0122580Y0256669D01*
X0122162Y0257087D01*
X0121671Y0257415D01*
X0121125Y0257641D01*
X0120545Y0257756D01*
X0120250Y0257756D01*
X0119955Y0257756D01*
X0119375Y0257641D01*
X0118829Y0257415D01*
X0120250Y0257496D02*
X0120250Y0257496D01*
X0120250Y0257756D02*
X0120250Y0254756D01*
X0120250Y0254756D01*
X0120250Y0257756D01*
X0121474Y0257496D02*
X0124159Y0257496D01*
X0125357Y0256298D02*
X0122828Y0256298D01*
X0123241Y0255099D02*
X0126556Y0255099D01*
X0127754Y0253901D02*
X0123139Y0253901D01*
X0122439Y0252702D02*
X0129441Y0252702D01*
X0120250Y0252702D02*
X0120250Y0252702D01*
X0120250Y0253901D02*
X0120250Y0253901D01*
X0120250Y0255099D02*
X0120250Y0255099D01*
X0120250Y0256298D02*
X0120250Y0256298D01*
X0117672Y0256298D02*
X0100310Y0256298D01*
X0100208Y0256399D02*
X0100208Y0256399D01*
X0101508Y0255099D02*
X0117259Y0255099D01*
X0117361Y0253901D02*
X0102707Y0253901D01*
X0103150Y0252702D02*
X0118061Y0252702D01*
X0103150Y0251504D02*
X0196901Y0251504D01*
X0197350Y0250305D02*
X0103150Y0250305D01*
X0103150Y0249107D02*
X0197350Y0249107D01*
X0197350Y0247908D02*
X0103150Y0247908D01*
X0103150Y0246710D02*
X0197350Y0246710D01*
X0197350Y0245511D02*
X0103150Y0245511D01*
X0103150Y0244313D02*
X0197350Y0244313D01*
X0197350Y0243114D02*
X0103150Y0243114D01*
X0103150Y0241916D02*
X0197350Y0241916D01*
X0197350Y0240717D02*
X0103150Y0240717D01*
X0103150Y0239519D02*
X0197350Y0239519D01*
X0197350Y0238320D02*
X0160929Y0238320D01*
X0160912Y0238337D02*
X0160421Y0238665D01*
X0159875Y0238891D01*
X0159295Y0239006D01*
X0159000Y0239006D01*
X0158705Y0239006D01*
X0158125Y0238891D01*
X0157579Y0238665D01*
X0157088Y0238337D01*
X0156670Y0237919D01*
X0156341Y0237427D01*
X0156115Y0236881D01*
X0156000Y0236302D01*
X0156000Y0236006D01*
X0156000Y0235711D01*
X0156115Y0235131D01*
X0156341Y0234585D01*
X0156670Y0234094D01*
X0157088Y0233676D01*
X0157579Y0233348D01*
X0158125Y0233122D01*
X0158705Y0233006D01*
X0159000Y0233006D01*
X0159295Y0233006D01*
X0159875Y0233122D01*
X0160421Y0233348D01*
X0160912Y0233676D01*
X0161330Y0234094D01*
X0161659Y0234585D01*
X0161885Y0235131D01*
X0162000Y0235711D01*
X0162000Y0236006D01*
X0159000Y0236006D01*
X0159000Y0233006D01*
X0159000Y0236006D01*
X0159000Y0236006D01*
X0159000Y0236006D01*
X0156000Y0236006D01*
X0159000Y0236006D01*
X0159000Y0236006D01*
X0162000Y0236006D01*
X0162000Y0236302D01*
X0161885Y0236881D01*
X0161659Y0237427D01*
X0161330Y0237919D01*
X0160912Y0238337D01*
X0161785Y0237122D02*
X0197350Y0237122D01*
X0197350Y0235923D02*
X0162000Y0235923D01*
X0161716Y0234725D02*
X0197350Y0234725D01*
X0197350Y0233526D02*
X0160688Y0233526D01*
X0159000Y0233526D02*
X0159000Y0233526D01*
X0159000Y0234725D02*
X0159000Y0234725D01*
X0159000Y0235923D02*
X0159000Y0235923D01*
X0159000Y0236006D02*
X0159000Y0239006D01*
X0159000Y0236006D01*
X0159000Y0236006D01*
X0159000Y0237122D02*
X0159000Y0237122D01*
X0159000Y0238320D02*
X0159000Y0238320D01*
X0157071Y0238320D02*
X0103150Y0238320D01*
X0103150Y0237122D02*
X0156215Y0237122D01*
X0156000Y0235923D02*
X0103150Y0235923D01*
X0103150Y0234725D02*
X0156284Y0234725D01*
X0157312Y0233526D02*
X0103150Y0233526D01*
X0103150Y0232328D02*
X0197350Y0232328D01*
X0197350Y0231129D02*
X0103150Y0231129D01*
X0103150Y0229931D02*
X0197350Y0229931D01*
X0197350Y0228732D02*
X0103150Y0228732D01*
X0103150Y0227534D02*
X0171877Y0227534D01*
X0172173Y0227656D02*
X0171107Y0227215D01*
X0170291Y0226399D01*
X0169850Y0225333D01*
X0169850Y0224179D01*
X0170291Y0223114D01*
X0177350Y0216055D01*
X0177350Y0200429D01*
X0177791Y0199364D01*
X0178607Y0198548D01*
X0179673Y0198106D01*
X0180827Y0198106D01*
X0181893Y0198548D01*
X0182708Y0199364D01*
X0183150Y0200429D01*
X0183150Y0217833D01*
X0182708Y0218899D01*
X0174393Y0227215D01*
X0173327Y0227656D01*
X0172173Y0227656D01*
X0173623Y0227534D02*
X0197350Y0227534D01*
X0197350Y0226335D02*
X0175272Y0226335D01*
X0176471Y0225137D02*
X0197350Y0225137D01*
X0197350Y0223938D02*
X0177669Y0223938D01*
X0178868Y0222740D02*
X0197350Y0222740D01*
X0197350Y0221541D02*
X0180066Y0221541D01*
X0181265Y0220343D02*
X0197350Y0220343D01*
X0197350Y0219144D02*
X0182463Y0219144D01*
X0183103Y0217946D02*
X0197350Y0217946D01*
X0197350Y0216747D02*
X0183150Y0216747D01*
X0183150Y0215548D02*
X0197350Y0215548D01*
X0197350Y0214350D02*
X0183150Y0214350D01*
X0183150Y0213151D02*
X0197350Y0213151D01*
X0197350Y0211953D02*
X0183150Y0211953D01*
X0183150Y0210754D02*
X0197350Y0210754D01*
X0197350Y0209556D02*
X0183150Y0209556D01*
X0183150Y0208357D02*
X0197600Y0208357D01*
X0197600Y0207159D02*
X0183150Y0207159D01*
X0183150Y0205960D02*
X0197600Y0205960D01*
X0197600Y0204762D02*
X0183150Y0204762D01*
X0183150Y0203563D02*
X0197600Y0203563D01*
X0197600Y0202365D02*
X0183150Y0202365D01*
X0183150Y0201166D02*
X0197600Y0201166D01*
X0197600Y0199968D02*
X0182959Y0199968D01*
X0182114Y0198769D02*
X0197600Y0198769D01*
X0197600Y0197571D02*
X0176100Y0197571D01*
X0176100Y0198769D02*
X0178386Y0198769D01*
X0177541Y0199968D02*
X0176100Y0199968D01*
X0176100Y0200538D02*
X0176289Y0200727D01*
X0176700Y0201719D01*
X0176700Y0202793D01*
X0176289Y0203786D01*
X0175529Y0204545D01*
X0174537Y0204956D01*
X0173463Y0204956D01*
X0172471Y0204545D01*
X0171711Y0203786D01*
X0171300Y0202793D01*
X0171300Y0201719D01*
X0171711Y0200727D01*
X0171900Y0200538D01*
X0171900Y0175225D01*
X0171711Y0175036D01*
X0171300Y0174043D01*
X0171300Y0172969D01*
X0171711Y0171977D01*
X0172471Y0171217D01*
X0173463Y0170806D01*
X0174537Y0170806D01*
X0175529Y0171217D01*
X0176289Y0171977D01*
X0176700Y0172969D01*
X0176700Y0174043D01*
X0176289Y0175036D01*
X0176100Y0175225D01*
X0176100Y0200538D01*
X0176471Y0201166D02*
X0177350Y0201166D01*
X0177350Y0202365D02*
X0176700Y0202365D01*
X0176381Y0203563D02*
X0177350Y0203563D01*
X0177350Y0204762D02*
X0175006Y0204762D01*
X0172994Y0204762D02*
X0103400Y0204762D01*
X0103400Y0205960D02*
X0177350Y0205960D01*
X0177350Y0207159D02*
X0103400Y0207159D01*
X0103400Y0208357D02*
X0177350Y0208357D01*
X0177350Y0209556D02*
X0103400Y0209556D01*
X0103150Y0210754D02*
X0177350Y0210754D01*
X0177350Y0211953D02*
X0103150Y0211953D01*
X0103150Y0213151D02*
X0108749Y0213151D01*
X0108829Y0213098D02*
X0109375Y0212872D01*
X0109955Y0212756D01*
X0110250Y0212756D01*
X0110545Y0212756D01*
X0111125Y0212872D01*
X0111671Y0213098D01*
X0112162Y0213426D01*
X0112580Y0213844D01*
X0112909Y0214335D01*
X0113135Y0214881D01*
X0113250Y0215461D01*
X0113250Y0215756D01*
X0110250Y0215756D01*
X0110250Y0212756D01*
X0110250Y0215756D01*
X0110250Y0215756D01*
X0110250Y0215756D01*
X0107250Y0215756D01*
X0107250Y0215461D01*
X0107365Y0214881D01*
X0107591Y0214335D01*
X0107920Y0213844D01*
X0108338Y0213426D01*
X0108829Y0213098D01*
X0110250Y0213151D02*
X0110250Y0213151D01*
X0110250Y0214350D02*
X0110250Y0214350D01*
X0110250Y0215548D02*
X0110250Y0215548D01*
X0110250Y0215756D02*
X0110250Y0215756D01*
X0113250Y0215756D01*
X0113250Y0216052D01*
X0113135Y0216631D01*
X0112909Y0217177D01*
X0112580Y0217669D01*
X0112162Y0218087D01*
X0111671Y0218415D01*
X0111125Y0218641D01*
X0110545Y0218756D01*
X0110250Y0218756D01*
X0109955Y0218756D01*
X0109375Y0218641D01*
X0108829Y0218415D01*
X0108338Y0218087D01*
X0107920Y0217669D01*
X0107591Y0217177D01*
X0107365Y0216631D01*
X0107250Y0216052D01*
X0107250Y0215756D01*
X0110250Y0215756D01*
X0110250Y0218756D01*
X0110250Y0215756D01*
X0110250Y0215756D01*
X0110250Y0216747D02*
X0110250Y0216747D01*
X0110250Y0217946D02*
X0110250Y0217946D01*
X0112303Y0217946D02*
X0175460Y0217946D01*
X0174261Y0219144D02*
X0103150Y0219144D01*
X0103150Y0217946D02*
X0108197Y0217946D01*
X0107413Y0216747D02*
X0103150Y0216747D01*
X0103150Y0215548D02*
X0107250Y0215548D01*
X0107585Y0214350D02*
X0103150Y0214350D01*
X0097350Y0214350D02*
X0083150Y0214350D01*
X0083150Y0215548D02*
X0097350Y0215548D01*
X0097350Y0216747D02*
X0083150Y0216747D01*
X0083150Y0217833D02*
X0082708Y0218899D01*
X0074393Y0227215D01*
X0073327Y0227656D01*
X0072173Y0227656D01*
X0071107Y0227215D01*
X0070291Y0226399D01*
X0069850Y0225333D01*
X0069850Y0224179D01*
X0070291Y0223114D01*
X0077350Y0216055D01*
X0077350Y0200429D01*
X0077791Y0199364D01*
X0078607Y0198548D01*
X0079673Y0198106D01*
X0080827Y0198106D01*
X0081893Y0198548D01*
X0082708Y0199364D01*
X0083150Y0200429D01*
X0083150Y0217833D01*
X0083103Y0217946D02*
X0097350Y0217946D01*
X0097350Y0219144D02*
X0082463Y0219144D01*
X0081265Y0220343D02*
X0097350Y0220343D01*
X0097350Y0221541D02*
X0080066Y0221541D01*
X0078868Y0222740D02*
X0097350Y0222740D01*
X0097350Y0223938D02*
X0077669Y0223938D01*
X0076471Y0225137D02*
X0097350Y0225137D01*
X0097350Y0226335D02*
X0075272Y0226335D01*
X0073623Y0227534D02*
X0097350Y0227534D01*
X0097350Y0228732D02*
X0006500Y0228732D01*
X0006500Y0227534D02*
X0071877Y0227534D01*
X0070265Y0226335D02*
X0006500Y0226335D01*
X0006500Y0225137D02*
X0069850Y0225137D01*
X0069950Y0223938D02*
X0006500Y0223938D01*
X0006500Y0222740D02*
X0070666Y0222740D01*
X0071864Y0221541D02*
X0006500Y0221541D01*
X0006500Y0220343D02*
X0073063Y0220343D01*
X0074261Y0219144D02*
X0006500Y0219144D01*
X0006500Y0217946D02*
X0075460Y0217946D01*
X0076658Y0216747D02*
X0006500Y0216747D01*
X0006500Y0215548D02*
X0077350Y0215548D01*
X0077350Y0214350D02*
X0006500Y0214350D01*
X0006500Y0213151D02*
X0077350Y0213151D01*
X0077350Y0211953D02*
X0006500Y0211953D01*
X0006500Y0210754D02*
X0077350Y0210754D01*
X0077350Y0209556D02*
X0006500Y0209556D01*
X0006500Y0208357D02*
X0077350Y0208357D01*
X0077350Y0207159D02*
X0006500Y0207159D01*
X0006500Y0205960D02*
X0077350Y0205960D01*
X0077350Y0204762D02*
X0075006Y0204762D01*
X0074537Y0204956D02*
X0073463Y0204956D01*
X0072471Y0204545D01*
X0071711Y0203786D01*
X0071300Y0202793D01*
X0071300Y0201719D01*
X0071711Y0200727D01*
X0071900Y0200538D01*
X0071900Y0175225D01*
X0071711Y0175036D01*
X0071300Y0174043D01*
X0071300Y0172969D01*
X0071711Y0171977D01*
X0072471Y0171217D01*
X0073463Y0170806D01*
X0074537Y0170806D01*
X0075529Y0171217D01*
X0076289Y0171977D01*
X0076700Y0172969D01*
X0076700Y0174043D01*
X0076289Y0175036D01*
X0076100Y0175225D01*
X0076100Y0200538D01*
X0076289Y0200727D01*
X0076700Y0201719D01*
X0076700Y0202793D01*
X0076289Y0203786D01*
X0075529Y0204545D01*
X0074537Y0204956D01*
X0072994Y0204762D02*
X0006500Y0204762D01*
X0006500Y0203563D02*
X0071619Y0203563D01*
X0071300Y0202365D02*
X0006500Y0202365D01*
X0006500Y0201166D02*
X0071529Y0201166D01*
X0071900Y0199968D02*
X0006500Y0199968D01*
X0006500Y0198769D02*
X0071900Y0198769D01*
X0071900Y0197571D02*
X0006500Y0197571D01*
X0006500Y0196372D02*
X0071900Y0196372D01*
X0071900Y0195174D02*
X0064149Y0195174D01*
X0064171Y0195165D02*
X0063625Y0195391D01*
X0063045Y0195506D01*
X0062750Y0195506D01*
X0062455Y0195506D01*
X0061875Y0195391D01*
X0061329Y0195165D01*
X0060838Y0194837D01*
X0060420Y0194419D01*
X0060091Y0193927D01*
X0059865Y0193381D01*
X0059750Y0192802D01*
X0059750Y0192506D01*
X0059750Y0192211D01*
X0059865Y0191631D01*
X0060091Y0191085D01*
X0060420Y0190594D01*
X0060838Y0190176D01*
X0061329Y0189848D01*
X0061875Y0189622D01*
X0062455Y0189506D01*
X0062750Y0189506D01*
X0063045Y0189506D01*
X0063625Y0189622D01*
X0064171Y0189848D01*
X0064662Y0190176D01*
X0065080Y0190594D01*
X0065409Y0191085D01*
X0065635Y0191631D01*
X0065750Y0192211D01*
X0065750Y0192506D01*
X0062750Y0192506D01*
X0062750Y0189506D01*
X0062750Y0192506D01*
X0062750Y0192506D01*
X0062750Y0192506D01*
X0059750Y0192506D01*
X0062750Y0192506D01*
X0062750Y0192506D01*
X0065750Y0192506D01*
X0065750Y0192802D01*
X0065635Y0193381D01*
X0065409Y0193927D01*
X0065080Y0194419D01*
X0064662Y0194837D01*
X0064171Y0195165D01*
X0062750Y0195174D02*
X0062750Y0195174D01*
X0062750Y0195506D02*
X0062750Y0192506D01*
X0062750Y0192506D01*
X0062750Y0195506D01*
X0061351Y0195174D02*
X0006500Y0195174D01*
X0006500Y0193975D02*
X0060123Y0193975D01*
X0059750Y0192777D02*
X0006500Y0192777D01*
X0006500Y0191578D02*
X0059887Y0191578D01*
X0060634Y0190380D02*
X0006500Y0190380D01*
X0006500Y0189181D02*
X0071900Y0189181D01*
X0071900Y0187983D02*
X0006500Y0187983D01*
X0006500Y0186784D02*
X0071900Y0186784D01*
X0071900Y0185586D02*
X0006500Y0185586D01*
X0006500Y0184387D02*
X0071900Y0184387D01*
X0071900Y0183189D02*
X0006500Y0183189D01*
X0006500Y0181990D02*
X0071900Y0181990D01*
X0071900Y0180792D02*
X0006500Y0180792D01*
X0006500Y0179593D02*
X0071900Y0179593D01*
X0071900Y0178395D02*
X0006500Y0178395D01*
X0006500Y0177196D02*
X0071900Y0177196D01*
X0071900Y0175998D02*
X0006500Y0175998D01*
X0006500Y0174799D02*
X0071613Y0174799D01*
X0071300Y0173601D02*
X0006500Y0173601D01*
X0006500Y0172402D02*
X0071535Y0172402D01*
X0072504Y0171204D02*
X0006500Y0171204D01*
X0006500Y0170005D02*
X0083779Y0170005D01*
X0084977Y0171204D02*
X0075496Y0171204D01*
X0076465Y0172402D02*
X0086176Y0172402D01*
X0087374Y0173601D02*
X0076700Y0173601D01*
X0076387Y0174799D02*
X0088150Y0174799D01*
X0088150Y0174376D02*
X0078730Y0164956D01*
X0078463Y0164956D01*
X0077471Y0164545D01*
X0076711Y0163786D01*
X0076300Y0162793D01*
X0076300Y0161719D01*
X0076711Y0160727D01*
X0077471Y0159967D01*
X0078463Y0159556D01*
X0079537Y0159556D01*
X0080529Y0159967D01*
X0081289Y0160727D01*
X0081700Y0161719D01*
X0081700Y0161986D01*
X0092350Y0172636D01*
X0092350Y0183038D01*
X0092539Y0183227D01*
X0092950Y0184219D01*
X0092950Y0185293D01*
X0092539Y0186286D01*
X0091779Y0187045D01*
X0090787Y0187456D01*
X0089713Y0187456D01*
X0088721Y0187045D01*
X0087961Y0186286D01*
X0087550Y0185293D01*
X0087550Y0184219D01*
X0087961Y0183227D01*
X0088150Y0183038D01*
X0088150Y0174376D01*
X0088150Y0175998D02*
X0076100Y0175998D01*
X0076100Y0177196D02*
X0088150Y0177196D01*
X0088150Y0178395D02*
X0076100Y0178395D01*
X0076100Y0179593D02*
X0088150Y0179593D01*
X0088150Y0180792D02*
X0076100Y0180792D01*
X0076100Y0181990D02*
X0088150Y0181990D01*
X0087999Y0183189D02*
X0076100Y0183189D01*
X0076100Y0184387D02*
X0087550Y0184387D01*
X0087671Y0185586D02*
X0076100Y0185586D01*
X0076100Y0186784D02*
X0088460Y0186784D01*
X0092040Y0186784D02*
X0097600Y0186784D01*
X0097600Y0185586D02*
X0092829Y0185586D01*
X0092950Y0184387D02*
X0097600Y0184387D01*
X0097600Y0183189D02*
X0092501Y0183189D01*
X0092350Y0181990D02*
X0097600Y0181990D01*
X0097600Y0180792D02*
X0092350Y0180792D01*
X0092350Y0179593D02*
X0097600Y0179593D01*
X0097600Y0178395D02*
X0092350Y0178395D01*
X0092350Y0177196D02*
X0097600Y0177196D01*
X0097600Y0175998D02*
X0092350Y0175998D01*
X0092350Y0174799D02*
X0097600Y0174799D01*
X0097600Y0173601D02*
X0092350Y0173601D01*
X0092116Y0172402D02*
X0097600Y0172402D01*
X0097600Y0171204D02*
X0090917Y0171204D01*
X0089719Y0170005D02*
X0097600Y0170005D01*
X0097600Y0168807D02*
X0088520Y0168807D01*
X0087322Y0167608D02*
X0097600Y0167608D01*
X0097600Y0166410D02*
X0086123Y0166410D01*
X0084925Y0165211D02*
X0097690Y0165211D01*
X0098393Y0164013D02*
X0083726Y0164013D01*
X0082528Y0162814D02*
X0176309Y0162814D01*
X0176300Y0162793D02*
X0176300Y0161719D01*
X0176711Y0160727D01*
X0177471Y0159967D01*
X0178463Y0159556D01*
X0179537Y0159556D01*
X0180529Y0159967D01*
X0181289Y0160727D01*
X0181700Y0161719D01*
X0181700Y0161986D01*
X0192350Y0172636D01*
X0192350Y0183038D01*
X0192539Y0183227D01*
X0192950Y0184219D01*
X0192950Y0185293D01*
X0192539Y0186286D01*
X0191779Y0187045D01*
X0190787Y0187456D01*
X0189713Y0187456D01*
X0188721Y0187045D01*
X0187961Y0186286D01*
X0187550Y0185293D01*
X0187550Y0184219D01*
X0187961Y0183227D01*
X0188150Y0183038D01*
X0188150Y0174376D01*
X0178730Y0164956D01*
X0178463Y0164956D01*
X0177471Y0164545D01*
X0176711Y0163786D01*
X0176300Y0162793D01*
X0176343Y0161615D02*
X0081657Y0161615D01*
X0080979Y0160417D02*
X0177021Y0160417D01*
X0176938Y0164013D02*
X0102607Y0164013D01*
X0103310Y0165211D02*
X0178985Y0165211D01*
X0180183Y0166410D02*
X0103400Y0166410D01*
X0103400Y0167608D02*
X0181382Y0167608D01*
X0182580Y0168807D02*
X0103400Y0168807D01*
X0103400Y0170005D02*
X0110759Y0170005D01*
X0110838Y0169926D02*
X0111329Y0169598D01*
X0111875Y0169372D01*
X0112455Y0169256D01*
X0112750Y0169256D01*
X0113045Y0169256D01*
X0113625Y0169372D01*
X0114171Y0169598D01*
X0114662Y0169926D01*
X0115080Y0170344D01*
X0115409Y0170835D01*
X0115635Y0171381D01*
X0115750Y0171961D01*
X0115750Y0172256D01*
X0112750Y0172256D01*
X0112750Y0169256D01*
X0112750Y0172256D01*
X0112750Y0172256D01*
X0112750Y0172256D01*
X0109750Y0172256D01*
X0109750Y0171961D01*
X0109865Y0171381D01*
X0110091Y0170835D01*
X0110420Y0170344D01*
X0110838Y0169926D01*
X0109939Y0171204D02*
X0103400Y0171204D01*
X0103400Y0172402D02*
X0109750Y0172402D01*
X0109750Y0172256D02*
X0112750Y0172256D01*
X0112750Y0172256D01*
X0115750Y0172256D01*
X0115750Y0172552D01*
X0115635Y0173131D01*
X0115409Y0173677D01*
X0115080Y0174169D01*
X0114662Y0174587D01*
X0114171Y0174915D01*
X0113625Y0175141D01*
X0113045Y0175256D01*
X0112750Y0175256D01*
X0112455Y0175256D01*
X0111875Y0175141D01*
X0111329Y0174915D01*
X0110838Y0174587D01*
X0110420Y0174169D01*
X0110091Y0173677D01*
X0109865Y0173131D01*
X0109750Y0172552D01*
X0109750Y0172256D01*
X0110060Y0173601D02*
X0103400Y0173601D01*
X0103400Y0174799D02*
X0111156Y0174799D01*
X0112750Y0174799D02*
X0112750Y0174799D01*
X0112750Y0175256D02*
X0112750Y0172256D01*
X0112750Y0172256D01*
X0112750Y0175256D01*
X0112750Y0173601D02*
X0112750Y0173601D01*
X0112750Y0172402D02*
X0112750Y0172402D01*
X0112750Y0171204D02*
X0112750Y0171204D01*
X0112750Y0170005D02*
X0112750Y0170005D01*
X0114741Y0170005D02*
X0183779Y0170005D01*
X0184977Y0171204D02*
X0175496Y0171204D01*
X0176465Y0172402D02*
X0186176Y0172402D01*
X0187374Y0173601D02*
X0176700Y0173601D01*
X0176387Y0174799D02*
X0188150Y0174799D01*
X0188150Y0175998D02*
X0176100Y0175998D01*
X0176100Y0177196D02*
X0188150Y0177196D01*
X0188150Y0178395D02*
X0176100Y0178395D01*
X0176100Y0179593D02*
X0188150Y0179593D01*
X0188150Y0180792D02*
X0176100Y0180792D01*
X0176100Y0181990D02*
X0188150Y0181990D01*
X0187999Y0183189D02*
X0176100Y0183189D01*
X0176100Y0184387D02*
X0187550Y0184387D01*
X0187671Y0185586D02*
X0176100Y0185586D01*
X0176100Y0186784D02*
X0188460Y0186784D01*
X0192040Y0186784D02*
X0197600Y0186784D01*
X0197600Y0185586D02*
X0192829Y0185586D01*
X0192950Y0184387D02*
X0197600Y0184387D01*
X0197600Y0183189D02*
X0192501Y0183189D01*
X0192350Y0181990D02*
X0197600Y0181990D01*
X0197600Y0180792D02*
X0192350Y0180792D01*
X0192350Y0179593D02*
X0197600Y0179593D01*
X0197600Y0178395D02*
X0192350Y0178395D01*
X0192350Y0177196D02*
X0197600Y0177196D01*
X0197600Y0175998D02*
X0192350Y0175998D01*
X0192350Y0174799D02*
X0197600Y0174799D01*
X0197600Y0173601D02*
X0192350Y0173601D01*
X0192116Y0172402D02*
X0197600Y0172402D01*
X0197600Y0171204D02*
X0190917Y0171204D01*
X0189719Y0170005D02*
X0197600Y0170005D01*
X0197600Y0168807D02*
X0188520Y0168807D01*
X0187322Y0167608D02*
X0197600Y0167608D01*
X0197600Y0166410D02*
X0186123Y0166410D01*
X0184925Y0165211D02*
X0197690Y0165211D01*
X0198393Y0164013D02*
X0183726Y0164013D01*
X0182528Y0162814D02*
X0279088Y0162814D01*
X0278730Y0162456D02*
X0278463Y0162456D01*
X0277471Y0162045D01*
X0276711Y0161286D01*
X0276300Y0160293D01*
X0276300Y0159219D01*
X0276711Y0158227D01*
X0277471Y0157467D01*
X0278463Y0157056D01*
X0279537Y0157056D01*
X0280529Y0157467D01*
X0281289Y0158227D01*
X0281700Y0159219D01*
X0281700Y0159486D01*
X0292350Y0170136D01*
X0292350Y0180538D01*
X0292539Y0180727D01*
X0292950Y0181719D01*
X0292950Y0182793D01*
X0292539Y0183786D01*
X0291779Y0184545D01*
X0290787Y0184956D01*
X0289713Y0184956D01*
X0288721Y0184545D01*
X0287961Y0183786D01*
X0287550Y0182793D01*
X0287550Y0181719D01*
X0287961Y0180727D01*
X0288150Y0180538D01*
X0288150Y0171876D01*
X0278730Y0162456D01*
X0277041Y0161615D02*
X0181657Y0161615D01*
X0180979Y0160417D02*
X0276351Y0160417D01*
X0276300Y0159218D02*
X0006500Y0159218D01*
X0006500Y0158020D02*
X0276918Y0158020D01*
X0281082Y0158020D02*
X0321500Y0158020D01*
X0321500Y0159218D02*
X0281700Y0159218D01*
X0282631Y0160417D02*
X0321500Y0160417D01*
X0321500Y0161615D02*
X0302710Y0161615D01*
X0303352Y0162814D02*
X0321500Y0162814D01*
X0321500Y0164013D02*
X0303400Y0164013D01*
X0303400Y0165211D02*
X0321500Y0165211D01*
X0321500Y0166410D02*
X0303400Y0166410D01*
X0303400Y0167608D02*
X0310656Y0167608D01*
X0310838Y0167426D02*
X0311329Y0167098D01*
X0311875Y0166872D01*
X0312455Y0166756D01*
X0312750Y0166756D01*
X0313045Y0166756D01*
X0313625Y0166872D01*
X0314171Y0167098D01*
X0314662Y0167426D01*
X0315080Y0167844D01*
X0315409Y0168335D01*
X0315635Y0168881D01*
X0315750Y0169461D01*
X0315750Y0169756D01*
X0312750Y0169756D01*
X0312750Y0166756D01*
X0312750Y0169756D01*
X0312750Y0169756D01*
X0312750Y0169756D01*
X0309750Y0169756D01*
X0309750Y0169461D01*
X0309865Y0168881D01*
X0310091Y0168335D01*
X0310420Y0167844D01*
X0310838Y0167426D01*
X0309896Y0168807D02*
X0303400Y0168807D01*
X0303400Y0170005D02*
X0309750Y0170005D01*
X0309750Y0170052D02*
X0309750Y0169756D01*
X0312750Y0169756D01*
X0312750Y0169756D01*
X0315750Y0169756D01*
X0315750Y0170052D01*
X0315635Y0170631D01*
X0315409Y0171177D01*
X0315080Y0171669D01*
X0314662Y0172087D01*
X0314171Y0172415D01*
X0313625Y0172641D01*
X0313045Y0172756D01*
X0312750Y0172756D01*
X0312455Y0172756D01*
X0311875Y0172641D01*
X0311329Y0172415D01*
X0310838Y0172087D01*
X0310420Y0171669D01*
X0310091Y0171177D01*
X0309865Y0170631D01*
X0309750Y0170052D01*
X0310109Y0171204D02*
X0303400Y0171204D01*
X0303400Y0172402D02*
X0311310Y0172402D01*
X0312750Y0172402D02*
X0312750Y0172402D01*
X0312750Y0172756D02*
X0312750Y0169756D01*
X0312750Y0169756D01*
X0312750Y0172756D01*
X0314190Y0172402D02*
X0321500Y0172402D01*
X0321500Y0171204D02*
X0315391Y0171204D01*
X0315750Y0170005D02*
X0321500Y0170005D01*
X0321500Y0168807D02*
X0315604Y0168807D01*
X0314844Y0167608D02*
X0321500Y0167608D01*
X0321500Y0173601D02*
X0303400Y0173601D01*
X0303400Y0174799D02*
X0321500Y0174799D01*
X0321500Y0175998D02*
X0303400Y0175998D01*
X0303400Y0177196D02*
X0321500Y0177196D01*
X0321500Y0178395D02*
X0303400Y0178395D01*
X0303400Y0179593D02*
X0321500Y0179593D01*
X0321500Y0180792D02*
X0303400Y0180792D01*
X0303400Y0181990D02*
X0321500Y0181990D01*
X0321500Y0183189D02*
X0303400Y0183189D01*
X0303400Y0184387D02*
X0321500Y0184387D01*
X0321500Y0185586D02*
X0303400Y0185586D01*
X0303400Y0186784D02*
X0321500Y0186784D01*
X0321500Y0187983D02*
X0303400Y0187983D01*
X0303400Y0189181D02*
X0321500Y0189181D01*
X0321500Y0190380D02*
X0303400Y0190380D01*
X0303400Y0191578D02*
X0321500Y0191578D01*
X0321500Y0192777D02*
X0303400Y0192777D01*
X0303400Y0193975D02*
X0321500Y0193975D01*
X0321500Y0195174D02*
X0303400Y0195174D01*
X0303400Y0196372D02*
X0321500Y0196372D01*
X0321500Y0197571D02*
X0303400Y0197571D01*
X0303400Y0198769D02*
X0321500Y0198769D01*
X0321500Y0199968D02*
X0303400Y0199968D01*
X0303400Y0201166D02*
X0321500Y0201166D01*
X0321500Y0202365D02*
X0303400Y0202365D01*
X0303400Y0203563D02*
X0321500Y0203563D01*
X0321500Y0204762D02*
X0303400Y0204762D01*
X0303400Y0205960D02*
X0321500Y0205960D01*
X0321500Y0207159D02*
X0303400Y0207159D01*
X0303150Y0208357D02*
X0321500Y0208357D01*
X0321500Y0209556D02*
X0303150Y0209556D01*
X0303150Y0210754D02*
X0308594Y0210754D01*
X0308829Y0210598D02*
X0308338Y0210926D01*
X0307920Y0211344D01*
X0307591Y0211835D01*
X0307365Y0212381D01*
X0307250Y0212961D01*
X0307250Y0213256D01*
X0310250Y0213256D01*
X0310250Y0210256D01*
X0310545Y0210256D01*
X0311125Y0210372D01*
X0311671Y0210598D01*
X0312162Y0210926D01*
X0312580Y0211344D01*
X0312909Y0211835D01*
X0313135Y0212381D01*
X0313250Y0212961D01*
X0313250Y0213256D01*
X0310250Y0213256D01*
X0310250Y0213256D01*
X0310250Y0210256D01*
X0309955Y0210256D01*
X0309375Y0210372D01*
X0308829Y0210598D01*
X0310250Y0210754D02*
X0310250Y0210754D01*
X0310250Y0211953D02*
X0310250Y0211953D01*
X0310250Y0213151D02*
X0310250Y0213151D01*
X0310250Y0213256D02*
X0310250Y0213256D01*
X0310250Y0213256D01*
X0313250Y0213256D01*
X0313250Y0213552D01*
X0313135Y0214131D01*
X0312909Y0214677D01*
X0312580Y0215169D01*
X0312162Y0215587D01*
X0311671Y0215915D01*
X0311125Y0216141D01*
X0310545Y0216256D01*
X0310250Y0216256D01*
X0309955Y0216256D01*
X0309375Y0216141D01*
X0308829Y0215915D01*
X0308338Y0215587D01*
X0307920Y0215169D01*
X0307591Y0214677D01*
X0307365Y0214131D01*
X0307250Y0213552D01*
X0307250Y0213256D01*
X0310250Y0213256D01*
X0310250Y0216256D01*
X0310250Y0213256D01*
X0310250Y0213256D01*
X0310250Y0214350D02*
X0310250Y0214350D01*
X0310250Y0215548D02*
X0310250Y0215548D01*
X0312200Y0215548D02*
X0321500Y0215548D01*
X0321500Y0214350D02*
X0313044Y0214350D01*
X0313250Y0213151D02*
X0321500Y0213151D01*
X0321500Y0211953D02*
X0312957Y0211953D01*
X0311906Y0210754D02*
X0321500Y0210754D01*
X0321500Y0216747D02*
X0303150Y0216747D01*
X0303150Y0215548D02*
X0308300Y0215548D01*
X0307456Y0214350D02*
X0303150Y0214350D01*
X0303150Y0213151D02*
X0307250Y0213151D01*
X0307543Y0211953D02*
X0303150Y0211953D01*
X0303150Y0217946D02*
X0321500Y0217946D01*
X0321500Y0219144D02*
X0303150Y0219144D01*
X0303150Y0220343D02*
X0321500Y0220343D01*
X0321500Y0221541D02*
X0303150Y0221541D01*
X0303150Y0222740D02*
X0321500Y0222740D01*
X0321500Y0223938D02*
X0303150Y0223938D01*
X0303150Y0225137D02*
X0321500Y0225137D01*
X0321500Y0226335D02*
X0303150Y0226335D01*
X0303150Y0227534D02*
X0321500Y0227534D01*
X0321500Y0228732D02*
X0303150Y0228732D01*
X0303150Y0229931D02*
X0321500Y0229931D01*
X0321500Y0231129D02*
X0303150Y0231129D01*
X0303150Y0232328D02*
X0321500Y0232328D01*
X0321500Y0233526D02*
X0303150Y0233526D01*
X0303150Y0234725D02*
X0321500Y0234725D01*
X0321500Y0235923D02*
X0303150Y0235923D01*
X0303150Y0237122D02*
X0321500Y0237122D01*
X0321500Y0238320D02*
X0303150Y0238320D01*
X0303150Y0239519D02*
X0321500Y0239519D01*
X0321500Y0240717D02*
X0303150Y0240717D01*
X0303150Y0241916D02*
X0321500Y0241916D01*
X0321500Y0243114D02*
X0303150Y0243114D01*
X0303150Y0244313D02*
X0321500Y0244313D01*
X0321500Y0245511D02*
X0303150Y0245511D01*
X0303150Y0246710D02*
X0321500Y0246710D01*
X0321500Y0247908D02*
X0303150Y0247908D01*
X0303150Y0249107D02*
X0321500Y0249107D01*
X0321500Y0250305D02*
X0303150Y0250305D01*
X0302604Y0251504D02*
X0321500Y0251504D01*
X0321500Y0252702D02*
X0301405Y0252702D01*
X0300208Y0253899D02*
X0300208Y0253899D01*
X0300207Y0253901D02*
X0321500Y0253901D01*
X0321500Y0255099D02*
X0299008Y0255099D01*
X0297810Y0256298D02*
X0321500Y0256298D01*
X0321500Y0257496D02*
X0296611Y0257496D01*
X0295413Y0258695D02*
X0321500Y0258695D01*
X0321500Y0259893D02*
X0294214Y0259893D01*
X0293016Y0261092D02*
X0321500Y0261092D01*
X0321500Y0262290D02*
X0291817Y0262290D01*
X0290650Y0263489D02*
X0321500Y0263489D01*
X0321500Y0264687D02*
X0290650Y0264687D01*
X0290650Y0265886D02*
X0321500Y0265886D01*
X0321500Y0267084D02*
X0299139Y0267084D01*
X0299171Y0267098D02*
X0299662Y0267426D01*
X0300080Y0267844D01*
X0300409Y0268335D01*
X0300635Y0268881D01*
X0300750Y0269461D01*
X0300750Y0269756D01*
X0297750Y0269756D01*
X0297750Y0266756D01*
X0298045Y0266756D01*
X0298625Y0266872D01*
X0299171Y0267098D01*
X0297750Y0267084D02*
X0297750Y0267084D01*
X0297750Y0266756D02*
X0297750Y0269756D01*
X0297750Y0269756D01*
X0297750Y0269756D01*
X0294750Y0269756D01*
X0294750Y0269461D01*
X0294865Y0268881D01*
X0295091Y0268335D01*
X0295420Y0267844D01*
X0295838Y0267426D01*
X0296329Y0267098D01*
X0296875Y0266872D01*
X0297455Y0266756D01*
X0297750Y0266756D01*
X0296361Y0267084D02*
X0290650Y0267084D01*
X0290650Y0268283D02*
X0295126Y0268283D01*
X0294750Y0269482D02*
X0290650Y0269482D01*
X0290650Y0270680D02*
X0294885Y0270680D01*
X0294865Y0270631D02*
X0294750Y0270052D01*
X0294750Y0269756D01*
X0297750Y0269756D01*
X0297750Y0269756D01*
X0300750Y0269756D01*
X0300750Y0270052D01*
X0300635Y0270631D01*
X0300409Y0271177D01*
X0300080Y0271669D01*
X0299662Y0272087D01*
X0299171Y0272415D01*
X0298625Y0272641D01*
X0298045Y0272756D01*
X0297750Y0272756D01*
X0297455Y0272756D01*
X0296875Y0272641D01*
X0296329Y0272415D01*
X0295838Y0272087D01*
X0295420Y0271669D01*
X0295091Y0271177D01*
X0294865Y0270631D01*
X0295630Y0271879D02*
X0290650Y0271879D01*
X0290650Y0273077D02*
X0321500Y0273077D01*
X0321500Y0271879D02*
X0299870Y0271879D01*
X0300615Y0270680D02*
X0321500Y0270680D01*
X0321500Y0269482D02*
X0300750Y0269482D01*
X0300374Y0268283D02*
X0321500Y0268283D01*
X0321500Y0274276D02*
X0290650Y0274276D01*
X0290650Y0275474D02*
X0321500Y0275474D01*
X0321500Y0276673D02*
X0290650Y0276673D01*
X0290650Y0277871D02*
X0321500Y0277871D01*
X0321500Y0279070D02*
X0290650Y0279070D01*
X0290650Y0280268D02*
X0321500Y0280268D01*
X0297750Y0272756D02*
X0297750Y0269756D01*
X0297750Y0272756D01*
X0297750Y0271879D02*
X0297750Y0271879D01*
X0297750Y0270680D02*
X0297750Y0270680D01*
X0297750Y0269756D02*
X0297750Y0269756D01*
X0297750Y0269482D02*
X0297750Y0269482D01*
X0297750Y0268283D02*
X0297750Y0268283D01*
X0287210Y0258695D02*
X0265540Y0258695D01*
X0266574Y0259893D02*
X0286012Y0259893D01*
X0285093Y0261092D02*
X0266900Y0261092D01*
X0266900Y0262290D02*
X0284850Y0262290D01*
X0284850Y0263489D02*
X0266900Y0263489D01*
X0266900Y0264687D02*
X0284850Y0264687D01*
X0284850Y0265886D02*
X0266900Y0265886D01*
X0266900Y0267084D02*
X0284850Y0267084D01*
X0284850Y0268283D02*
X0266900Y0268283D01*
X0266900Y0269482D02*
X0284850Y0269482D01*
X0284850Y0270680D02*
X0266756Y0270680D01*
X0265979Y0271879D02*
X0284850Y0271879D01*
X0284850Y0273077D02*
X0224150Y0273077D01*
X0224150Y0271879D02*
X0253880Y0271879D01*
X0254088Y0272087D02*
X0253670Y0271669D01*
X0253341Y0271177D01*
X0253115Y0270631D01*
X0253000Y0270052D01*
X0253000Y0269756D01*
X0253000Y0269461D01*
X0253115Y0268881D01*
X0253341Y0268335D01*
X0253670Y0267844D01*
X0254088Y0267426D01*
X0254579Y0267098D01*
X0255125Y0266872D01*
X0255705Y0266756D01*
X0256000Y0266756D01*
X0256295Y0266756D01*
X0256875Y0266872D01*
X0257421Y0267098D01*
X0257912Y0267426D01*
X0258330Y0267844D01*
X0258659Y0268335D01*
X0258885Y0268881D01*
X0259000Y0269461D01*
X0259000Y0269756D01*
X0256000Y0269756D01*
X0256000Y0266756D01*
X0256000Y0269756D01*
X0256000Y0269756D01*
X0256000Y0269756D01*
X0253000Y0269756D01*
X0256000Y0269756D01*
X0256000Y0269756D01*
X0259000Y0269756D01*
X0259000Y0270052D01*
X0258885Y0270631D01*
X0258659Y0271177D01*
X0258330Y0271669D01*
X0257912Y0272087D01*
X0257421Y0272415D01*
X0256875Y0272641D01*
X0256295Y0272756D01*
X0256000Y0272756D01*
X0255705Y0272756D01*
X0255125Y0272641D01*
X0254579Y0272415D01*
X0254088Y0272087D01*
X0253135Y0270680D02*
X0224150Y0270680D01*
X0224150Y0269482D02*
X0253000Y0269482D01*
X0253376Y0268283D02*
X0224150Y0268283D01*
X0224150Y0267084D02*
X0254611Y0267084D01*
X0256000Y0267084D02*
X0256000Y0267084D01*
X0256000Y0268283D02*
X0256000Y0268283D01*
X0256000Y0269482D02*
X0256000Y0269482D01*
X0256000Y0269756D02*
X0256000Y0272756D01*
X0256000Y0269756D01*
X0256000Y0269756D01*
X0256000Y0270680D02*
X0256000Y0270680D01*
X0256000Y0271879D02*
X0256000Y0271879D01*
X0258120Y0271879D02*
X0262021Y0271879D01*
X0261244Y0270680D02*
X0258865Y0270680D01*
X0259000Y0269482D02*
X0261100Y0269482D01*
X0261100Y0268283D02*
X0258624Y0268283D01*
X0257389Y0267084D02*
X0261100Y0267084D01*
X0261100Y0265886D02*
X0224150Y0265886D01*
X0224150Y0264687D02*
X0261100Y0264687D01*
X0261100Y0263489D02*
X0224150Y0263489D01*
X0225067Y0262290D02*
X0260933Y0262290D01*
X0259734Y0261092D02*
X0226266Y0261092D01*
X0227464Y0259893D02*
X0258536Y0259893D01*
X0257337Y0258695D02*
X0228663Y0258695D01*
X0229861Y0257496D02*
X0256139Y0257496D01*
X0254940Y0256298D02*
X0231060Y0256298D01*
X0226453Y0252702D02*
X0223220Y0252702D01*
X0223250Y0252552D02*
X0223135Y0253131D01*
X0222909Y0253677D01*
X0222580Y0254169D01*
X0222162Y0254587D01*
X0221671Y0254915D01*
X0221125Y0255141D01*
X0220545Y0255256D01*
X0220250Y0255256D01*
X0219955Y0255256D01*
X0219375Y0255141D01*
X0218829Y0254915D01*
X0218338Y0254587D01*
X0217920Y0254169D01*
X0217591Y0253677D01*
X0217365Y0253131D01*
X0217250Y0252552D01*
X0217250Y0252256D01*
X0217250Y0251961D01*
X0217365Y0251381D01*
X0217591Y0250835D01*
X0217920Y0250344D01*
X0218338Y0249926D01*
X0218829Y0249598D01*
X0219375Y0249372D01*
X0219955Y0249256D01*
X0220250Y0249256D01*
X0220545Y0249256D01*
X0221125Y0249372D01*
X0221671Y0249598D01*
X0222162Y0249926D01*
X0222580Y0250344D01*
X0222909Y0250835D01*
X0223135Y0251381D01*
X0223250Y0251961D01*
X0223250Y0252256D01*
X0220250Y0252256D01*
X0220250Y0249256D01*
X0220250Y0252256D01*
X0220250Y0252256D01*
X0220250Y0252256D01*
X0217250Y0252256D01*
X0220250Y0252256D01*
X0220250Y0252256D01*
X0223250Y0252256D01*
X0223250Y0252552D01*
X0223159Y0251504D02*
X0227651Y0251504D01*
X0229193Y0250305D02*
X0222542Y0250305D01*
X0220250Y0250305D02*
X0220250Y0250305D01*
X0220250Y0251504D02*
X0220250Y0251504D01*
X0220250Y0252256D02*
X0220250Y0255256D01*
X0220250Y0252256D01*
X0220250Y0252256D01*
X0220250Y0252702D02*
X0220250Y0252702D01*
X0220250Y0253901D02*
X0220250Y0253901D01*
X0220250Y0255099D02*
X0220250Y0255099D01*
X0221226Y0255099D02*
X0224056Y0255099D01*
X0225254Y0253901D02*
X0222759Y0253901D01*
X0222857Y0256298D02*
X0200310Y0256298D01*
X0201508Y0255099D02*
X0219274Y0255099D01*
X0217741Y0253901D02*
X0202707Y0253901D01*
X0203150Y0252702D02*
X0217280Y0252702D01*
X0217341Y0251504D02*
X0203150Y0251504D01*
X0203150Y0250305D02*
X0217958Y0250305D01*
X0221659Y0257496D02*
X0199111Y0257496D01*
X0197913Y0258695D02*
X0220460Y0258695D01*
X0219262Y0259893D02*
X0196714Y0259893D01*
X0195516Y0261092D02*
X0218490Y0261092D01*
X0218350Y0262290D02*
X0194317Y0262290D01*
X0193119Y0263489D02*
X0218350Y0263489D01*
X0218350Y0264687D02*
X0191920Y0264687D01*
X0190722Y0265886D02*
X0218350Y0265886D01*
X0218350Y0267084D02*
X0190650Y0267084D01*
X0190650Y0268283D02*
X0214820Y0268283D01*
X0215250Y0268283D02*
X0215250Y0268283D01*
X0215680Y0268283D02*
X0218350Y0268283D01*
X0218350Y0269482D02*
X0217672Y0269482D01*
X0218194Y0270680D02*
X0218350Y0270680D01*
X0218350Y0271879D02*
X0218185Y0271879D01*
X0218350Y0273077D02*
X0217641Y0273077D01*
X0215250Y0273077D02*
X0215250Y0273077D01*
X0215250Y0274256D02*
X0215250Y0271256D01*
X0215250Y0271256D01*
X0215250Y0274256D01*
X0215250Y0271879D02*
X0215250Y0271879D01*
X0215250Y0270680D02*
X0215250Y0270680D01*
X0215250Y0269482D02*
X0215250Y0269482D01*
X0224150Y0274276D02*
X0225380Y0274276D01*
X0224685Y0275474D02*
X0224150Y0275474D01*
X0236113Y0280268D02*
X0250920Y0280268D01*
X0250155Y0281467D02*
X0237312Y0281467D01*
X0238641Y0307834D02*
X0235046Y0307834D01*
X0234050Y0309032D02*
X0236969Y0309032D01*
X0236275Y0310231D02*
X0234225Y0310231D01*
X0234518Y0311429D02*
X0235981Y0311429D01*
X0235981Y0312628D02*
X0234518Y0312628D01*
X0234518Y0313826D02*
X0235981Y0313826D01*
X0235981Y0315025D02*
X0234518Y0315025D01*
X0234518Y0316223D02*
X0235981Y0316223D01*
X0235981Y0317422D02*
X0234518Y0317422D01*
X0234499Y0318620D02*
X0236001Y0318620D01*
X0236497Y0319819D02*
X0234003Y0319819D01*
X0233150Y0321017D02*
X0237506Y0321017D01*
X0234002Y0329407D02*
X0286498Y0329407D01*
X0285299Y0330606D02*
X0235200Y0330606D01*
X0236399Y0331804D02*
X0284101Y0331804D01*
X0282902Y0333003D02*
X0237598Y0333003D01*
X0236893Y0332298D02*
X0236893Y0332298D01*
X0238150Y0334201D02*
X0282350Y0334201D01*
X0282378Y0335400D02*
X0238150Y0335400D01*
X0238150Y0336598D02*
X0282991Y0336598D01*
X0266884Y0354576D02*
X0266116Y0354576D01*
X0265468Y0354576D02*
X0238150Y0354576D01*
X0238150Y0355774D02*
X0253727Y0355774D01*
X0252735Y0356973D02*
X0238150Y0356973D01*
X0238150Y0358171D02*
X0252239Y0358171D01*
X0252231Y0359370D02*
X0238150Y0359370D01*
X0238150Y0360568D02*
X0252231Y0360568D01*
X0252231Y0361767D02*
X0238150Y0361767D01*
X0238150Y0362965D02*
X0252231Y0362965D01*
X0252231Y0364164D02*
X0238150Y0364164D01*
X0238150Y0365362D02*
X0252231Y0365362D01*
X0252537Y0366561D02*
X0238150Y0366561D01*
X0238150Y0367759D02*
X0253248Y0367759D01*
X0260768Y0360568D02*
X0261931Y0360568D01*
X0261931Y0359370D02*
X0260768Y0359370D01*
X0260761Y0358171D02*
X0262012Y0358171D01*
X0262425Y0356973D02*
X0260265Y0356973D01*
X0259273Y0355774D02*
X0263303Y0355774D01*
X0266116Y0355774D02*
X0266884Y0355774D01*
X0266884Y0356973D02*
X0266116Y0356973D01*
X0266116Y0358171D02*
X0266884Y0358171D01*
X0266884Y0359370D02*
X0266116Y0359370D01*
X0266116Y0360568D02*
X0266884Y0360568D01*
X0266884Y0362965D02*
X0266116Y0362965D01*
X0266116Y0364164D02*
X0266884Y0364164D01*
X0266884Y0365362D02*
X0266116Y0365362D01*
X0266116Y0366561D02*
X0266884Y0366561D01*
X0266884Y0367759D02*
X0266116Y0367759D01*
X0266116Y0368958D02*
X0266884Y0368958D01*
X0232350Y0365362D02*
X0223269Y0365362D01*
X0224847Y0364164D02*
X0232350Y0364164D01*
X0232350Y0362965D02*
X0225503Y0362965D01*
X0225768Y0361767D02*
X0232350Y0361767D01*
X0232350Y0360568D02*
X0225768Y0360568D01*
X0225768Y0359370D02*
X0232350Y0359370D01*
X0232350Y0358171D02*
X0225768Y0358171D01*
X0225768Y0356973D02*
X0232350Y0356973D01*
X0232350Y0355774D02*
X0225768Y0355774D01*
X0225722Y0354576D02*
X0232350Y0354576D01*
X0232350Y0353377D02*
X0225225Y0353377D01*
X0224178Y0352179D02*
X0232350Y0352179D01*
X0226497Y0319819D02*
X0224003Y0319819D01*
X0224499Y0318620D02*
X0226001Y0318620D01*
X0225981Y0317422D02*
X0224518Y0317422D01*
X0224518Y0316223D02*
X0225981Y0316223D01*
X0225981Y0315025D02*
X0224518Y0315025D01*
X0224518Y0313826D02*
X0225981Y0313826D01*
X0225981Y0312628D02*
X0224518Y0312628D01*
X0224518Y0311429D02*
X0225981Y0311429D01*
X0226275Y0310231D02*
X0224225Y0310231D01*
X0223531Y0309032D02*
X0226450Y0309032D01*
X0197750Y0275256D02*
X0197750Y0272256D01*
X0197750Y0275256D01*
X0197750Y0274276D02*
X0197750Y0274276D01*
X0197750Y0273077D02*
X0197750Y0273077D01*
X0197750Y0272256D02*
X0197750Y0272256D01*
X0197750Y0271879D02*
X0197750Y0271879D01*
X0197750Y0270680D02*
X0197750Y0270680D01*
X0192107Y0256298D02*
X0172828Y0256298D01*
X0173241Y0255099D02*
X0193306Y0255099D01*
X0194504Y0253901D02*
X0173139Y0253901D01*
X0172439Y0252702D02*
X0195703Y0252702D01*
X0195291Y0253114D02*
X0195291Y0253114D01*
X0203150Y0249107D02*
X0296798Y0249107D01*
X0297350Y0247908D02*
X0203150Y0247908D01*
X0203150Y0246710D02*
X0297350Y0246710D01*
X0297350Y0245511D02*
X0203150Y0245511D01*
X0203150Y0244313D02*
X0297350Y0244313D01*
X0297350Y0243114D02*
X0203150Y0243114D01*
X0203150Y0241916D02*
X0297350Y0241916D01*
X0297350Y0240717D02*
X0203150Y0240717D01*
X0203150Y0239519D02*
X0297350Y0239519D01*
X0297350Y0238320D02*
X0203150Y0238320D01*
X0203150Y0237122D02*
X0297350Y0237122D01*
X0297350Y0235923D02*
X0260783Y0235923D01*
X0260912Y0235837D02*
X0260421Y0236165D01*
X0259875Y0236391D01*
X0259295Y0236506D01*
X0259000Y0236506D01*
X0258705Y0236506D01*
X0258125Y0236391D01*
X0257579Y0236165D01*
X0257088Y0235837D01*
X0256670Y0235419D01*
X0256341Y0234927D01*
X0256115Y0234381D01*
X0256000Y0233802D01*
X0256000Y0233506D01*
X0256000Y0233211D01*
X0256115Y0232631D01*
X0256341Y0232085D01*
X0256670Y0231594D01*
X0257088Y0231176D01*
X0257579Y0230848D01*
X0258125Y0230622D01*
X0258705Y0230506D01*
X0259000Y0230506D01*
X0259295Y0230506D01*
X0259875Y0230622D01*
X0260421Y0230848D01*
X0260912Y0231176D01*
X0261330Y0231594D01*
X0261659Y0232085D01*
X0261885Y0232631D01*
X0262000Y0233211D01*
X0262000Y0233506D01*
X0259000Y0233506D01*
X0259000Y0230506D01*
X0259000Y0233506D01*
X0259000Y0233506D01*
X0259000Y0233506D01*
X0256000Y0233506D01*
X0259000Y0233506D01*
X0259000Y0233506D01*
X0262000Y0233506D01*
X0262000Y0233802D01*
X0261885Y0234381D01*
X0261659Y0234927D01*
X0261330Y0235419D01*
X0260912Y0235837D01*
X0261742Y0234725D02*
X0297350Y0234725D01*
X0297350Y0233526D02*
X0262000Y0233526D01*
X0261759Y0232328D02*
X0297350Y0232328D01*
X0297350Y0231129D02*
X0260842Y0231129D01*
X0259000Y0231129D02*
X0259000Y0231129D01*
X0259000Y0232328D02*
X0259000Y0232328D01*
X0259000Y0233506D02*
X0259000Y0236506D01*
X0259000Y0233506D01*
X0259000Y0233506D01*
X0259000Y0233526D02*
X0259000Y0233526D01*
X0259000Y0234725D02*
X0259000Y0234725D01*
X0259000Y0235923D02*
X0259000Y0235923D01*
X0257217Y0235923D02*
X0203150Y0235923D01*
X0203150Y0234725D02*
X0256258Y0234725D01*
X0256000Y0233526D02*
X0203150Y0233526D01*
X0203150Y0232328D02*
X0256241Y0232328D01*
X0257158Y0231129D02*
X0203150Y0231129D01*
X0203150Y0229931D02*
X0297350Y0229931D01*
X0297350Y0228732D02*
X0203150Y0228732D01*
X0203150Y0227534D02*
X0297350Y0227534D01*
X0297350Y0226335D02*
X0203150Y0226335D01*
X0203150Y0225137D02*
X0272126Y0225137D01*
X0272173Y0225156D02*
X0271107Y0224715D01*
X0270291Y0223899D01*
X0269850Y0222833D01*
X0269850Y0221679D01*
X0270291Y0220614D01*
X0277350Y0213555D01*
X0277350Y0197929D01*
X0277791Y0196864D01*
X0278607Y0196048D01*
X0279673Y0195606D01*
X0280827Y0195606D01*
X0281893Y0196048D01*
X0282708Y0196864D01*
X0283150Y0197929D01*
X0283150Y0215333D01*
X0282708Y0216399D01*
X0274393Y0224715D01*
X0273327Y0225156D01*
X0272173Y0225156D01*
X0273374Y0225137D02*
X0297350Y0225137D01*
X0297350Y0223938D02*
X0275169Y0223938D01*
X0276368Y0222740D02*
X0297350Y0222740D01*
X0297350Y0221541D02*
X0277566Y0221541D01*
X0278765Y0220343D02*
X0297350Y0220343D01*
X0297350Y0219144D02*
X0279963Y0219144D01*
X0281162Y0217946D02*
X0297350Y0217946D01*
X0297350Y0216747D02*
X0282360Y0216747D01*
X0283061Y0215548D02*
X0297350Y0215548D01*
X0297350Y0214350D02*
X0283150Y0214350D01*
X0283150Y0213151D02*
X0297350Y0213151D01*
X0297350Y0211953D02*
X0283150Y0211953D01*
X0283150Y0210754D02*
X0297350Y0210754D01*
X0297350Y0209556D02*
X0283150Y0209556D01*
X0283150Y0208357D02*
X0297350Y0208357D01*
X0297350Y0207159D02*
X0283150Y0207159D01*
X0283150Y0205960D02*
X0297600Y0205960D01*
X0297600Y0204762D02*
X0283150Y0204762D01*
X0283150Y0203563D02*
X0297600Y0203563D01*
X0297600Y0202365D02*
X0283150Y0202365D01*
X0283150Y0201166D02*
X0297600Y0201166D01*
X0297600Y0199968D02*
X0283150Y0199968D01*
X0283150Y0198769D02*
X0297600Y0198769D01*
X0297600Y0197571D02*
X0283001Y0197571D01*
X0282217Y0196372D02*
X0297600Y0196372D01*
X0297600Y0195174D02*
X0276100Y0195174D01*
X0276100Y0196372D02*
X0278283Y0196372D01*
X0277499Y0197571D02*
X0276100Y0197571D01*
X0276100Y0198038D02*
X0276289Y0198227D01*
X0276700Y0199219D01*
X0276700Y0200293D01*
X0276289Y0201286D01*
X0275529Y0202045D01*
X0274537Y0202456D01*
X0273463Y0202456D01*
X0272471Y0202045D01*
X0271711Y0201286D01*
X0271300Y0200293D01*
X0271300Y0199219D01*
X0271711Y0198227D01*
X0271900Y0198038D01*
X0271900Y0172725D01*
X0271711Y0172536D01*
X0271300Y0171543D01*
X0271300Y0170469D01*
X0271711Y0169477D01*
X0272471Y0168717D01*
X0273463Y0168306D01*
X0274537Y0168306D01*
X0275529Y0168717D01*
X0276289Y0169477D01*
X0276700Y0170469D01*
X0276700Y0171543D01*
X0276289Y0172536D01*
X0276100Y0172725D01*
X0276100Y0198038D01*
X0276514Y0198769D02*
X0277350Y0198769D01*
X0277350Y0199968D02*
X0276700Y0199968D01*
X0276338Y0201166D02*
X0277350Y0201166D01*
X0277350Y0202365D02*
X0274758Y0202365D01*
X0273242Y0202365D02*
X0203400Y0202365D01*
X0203400Y0203563D02*
X0277350Y0203563D01*
X0277350Y0204762D02*
X0203400Y0204762D01*
X0203400Y0205960D02*
X0277350Y0205960D01*
X0277350Y0207159D02*
X0203400Y0207159D01*
X0203400Y0208357D02*
X0277350Y0208357D01*
X0277350Y0209556D02*
X0203400Y0209556D01*
X0203150Y0210754D02*
X0277350Y0210754D01*
X0277350Y0211953D02*
X0203150Y0211953D01*
X0203150Y0213151D02*
X0208749Y0213151D01*
X0208829Y0213098D02*
X0209375Y0212872D01*
X0209955Y0212756D01*
X0210250Y0212756D01*
X0210545Y0212756D01*
X0211125Y0212872D01*
X0211671Y0213098D01*
X0212162Y0213426D01*
X0212580Y0213844D01*
X0212909Y0214335D01*
X0213135Y0214881D01*
X0213250Y0215461D01*
X0213250Y0215756D01*
X0210250Y0215756D01*
X0210250Y0212756D01*
X0210250Y0215756D01*
X0210250Y0215756D01*
X0210250Y0215756D01*
X0207250Y0215756D01*
X0207250Y0215461D01*
X0207365Y0214881D01*
X0207591Y0214335D01*
X0207920Y0213844D01*
X0208338Y0213426D01*
X0208829Y0213098D01*
X0210250Y0213151D02*
X0210250Y0213151D01*
X0210250Y0214350D02*
X0210250Y0214350D01*
X0210250Y0215548D02*
X0210250Y0215548D01*
X0210250Y0215756D02*
X0210250Y0215756D01*
X0213250Y0215756D01*
X0213250Y0216052D01*
X0213135Y0216631D01*
X0212909Y0217177D01*
X0212580Y0217669D01*
X0212162Y0218087D01*
X0211671Y0218415D01*
X0211125Y0218641D01*
X0210545Y0218756D01*
X0210250Y0218756D01*
X0209955Y0218756D01*
X0209375Y0218641D01*
X0208829Y0218415D01*
X0208338Y0218087D01*
X0207920Y0217669D01*
X0207591Y0217177D01*
X0207365Y0216631D01*
X0207250Y0216052D01*
X0207250Y0215756D01*
X0210250Y0215756D01*
X0210250Y0218756D01*
X0210250Y0215756D01*
X0210250Y0215756D01*
X0210250Y0216747D02*
X0210250Y0216747D01*
X0210250Y0217946D02*
X0210250Y0217946D01*
X0212303Y0217946D02*
X0272960Y0217946D01*
X0271761Y0219144D02*
X0203150Y0219144D01*
X0203150Y0217946D02*
X0208197Y0217946D01*
X0207413Y0216747D02*
X0203150Y0216747D01*
X0203150Y0215548D02*
X0207250Y0215548D01*
X0207585Y0214350D02*
X0203150Y0214350D01*
X0203150Y0220343D02*
X0270563Y0220343D01*
X0269907Y0221541D02*
X0203150Y0221541D01*
X0203150Y0222740D02*
X0269850Y0222740D01*
X0270331Y0223938D02*
X0203150Y0223938D01*
X0213087Y0216747D02*
X0274158Y0216747D01*
X0275357Y0215548D02*
X0213250Y0215548D01*
X0212915Y0214350D02*
X0276555Y0214350D01*
X0277350Y0213151D02*
X0211751Y0213151D01*
X0203400Y0201166D02*
X0271662Y0201166D01*
X0271300Y0199968D02*
X0203400Y0199968D01*
X0203400Y0198769D02*
X0271486Y0198769D01*
X0271900Y0197571D02*
X0203400Y0197571D01*
X0203400Y0196372D02*
X0271900Y0196372D01*
X0271900Y0195174D02*
X0203400Y0195174D01*
X0203400Y0193975D02*
X0271900Y0193975D01*
X0271900Y0192777D02*
X0263901Y0192777D01*
X0264171Y0192665D02*
X0263625Y0192891D01*
X0263045Y0193006D01*
X0262750Y0193006D01*
X0262455Y0193006D01*
X0261875Y0192891D01*
X0261329Y0192665D01*
X0260838Y0192337D01*
X0260420Y0191919D01*
X0260091Y0191427D01*
X0259865Y0190881D01*
X0259750Y0190302D01*
X0259750Y0190006D01*
X0259750Y0189711D01*
X0259865Y0189131D01*
X0260091Y0188585D01*
X0260420Y0188094D01*
X0260838Y0187676D01*
X0261329Y0187348D01*
X0261875Y0187122D01*
X0262455Y0187006D01*
X0262750Y0187006D01*
X0263045Y0187006D01*
X0263625Y0187122D01*
X0264171Y0187348D01*
X0264662Y0187676D01*
X0265080Y0188094D01*
X0265409Y0188585D01*
X0265635Y0189131D01*
X0265750Y0189711D01*
X0265750Y0190006D01*
X0262750Y0190006D01*
X0262750Y0187006D01*
X0262750Y0190006D01*
X0262750Y0190006D01*
X0262750Y0190006D01*
X0259750Y0190006D01*
X0262750Y0190006D01*
X0262750Y0190006D01*
X0265750Y0190006D01*
X0265750Y0190302D01*
X0265635Y0190881D01*
X0265409Y0191427D01*
X0265080Y0191919D01*
X0264662Y0192337D01*
X0264171Y0192665D01*
X0262750Y0192777D02*
X0262750Y0192777D01*
X0262750Y0193006D02*
X0262750Y0190006D01*
X0262750Y0190006D01*
X0262750Y0193006D01*
X0261599Y0192777D02*
X0203400Y0192777D01*
X0203400Y0191578D02*
X0260192Y0191578D01*
X0259766Y0190380D02*
X0203400Y0190380D01*
X0203400Y0189181D02*
X0259855Y0189181D01*
X0260531Y0187983D02*
X0203400Y0187983D01*
X0203400Y0186784D02*
X0271900Y0186784D01*
X0271900Y0185586D02*
X0203400Y0185586D01*
X0203400Y0184387D02*
X0271900Y0184387D01*
X0271900Y0183189D02*
X0203400Y0183189D01*
X0203400Y0181990D02*
X0271900Y0181990D01*
X0271900Y0180792D02*
X0203400Y0180792D01*
X0203400Y0179593D02*
X0271900Y0179593D01*
X0271900Y0178395D02*
X0203400Y0178395D01*
X0203400Y0177196D02*
X0271900Y0177196D01*
X0271900Y0175998D02*
X0203400Y0175998D01*
X0203400Y0174799D02*
X0211156Y0174799D01*
X0211329Y0174915D02*
X0210838Y0174587D01*
X0210420Y0174169D01*
X0210091Y0173677D01*
X0209865Y0173131D01*
X0209750Y0172552D01*
X0209750Y0172256D01*
X0209750Y0171961D01*
X0209865Y0171381D01*
X0210091Y0170835D01*
X0210420Y0170344D01*
X0210838Y0169926D01*
X0211329Y0169598D01*
X0211875Y0169372D01*
X0212455Y0169256D01*
X0212750Y0169256D01*
X0213045Y0169256D01*
X0213625Y0169372D01*
X0214171Y0169598D01*
X0214662Y0169926D01*
X0215080Y0170344D01*
X0215409Y0170835D01*
X0215635Y0171381D01*
X0215750Y0171961D01*
X0215750Y0172256D01*
X0212750Y0172256D01*
X0212750Y0169256D01*
X0212750Y0172256D01*
X0212750Y0172256D01*
X0212750Y0172256D01*
X0209750Y0172256D01*
X0212750Y0172256D01*
X0212750Y0172256D01*
X0215750Y0172256D01*
X0215750Y0172552D01*
X0215635Y0173131D01*
X0215409Y0173677D01*
X0215080Y0174169D01*
X0214662Y0174587D01*
X0214171Y0174915D01*
X0213625Y0175141D01*
X0213045Y0175256D01*
X0212750Y0175256D01*
X0212455Y0175256D01*
X0211875Y0175141D01*
X0211329Y0174915D01*
X0212750Y0174799D02*
X0212750Y0174799D01*
X0212750Y0175256D02*
X0212750Y0172256D01*
X0212750Y0172256D01*
X0212750Y0175256D01*
X0212750Y0173601D02*
X0212750Y0173601D01*
X0212750Y0172402D02*
X0212750Y0172402D01*
X0212750Y0171204D02*
X0212750Y0171204D01*
X0212750Y0170005D02*
X0212750Y0170005D01*
X0214741Y0170005D02*
X0271492Y0170005D01*
X0271300Y0171204D02*
X0215561Y0171204D01*
X0215750Y0172402D02*
X0271656Y0172402D01*
X0271900Y0173601D02*
X0215440Y0173601D01*
X0214344Y0174799D02*
X0271900Y0174799D01*
X0272381Y0168807D02*
X0203400Y0168807D01*
X0203400Y0170005D02*
X0210759Y0170005D01*
X0209939Y0171204D02*
X0203400Y0171204D01*
X0203400Y0172402D02*
X0209750Y0172402D01*
X0210060Y0173601D02*
X0203400Y0173601D01*
X0203400Y0167608D02*
X0283882Y0167608D01*
X0285080Y0168807D02*
X0275619Y0168807D01*
X0276508Y0170005D02*
X0286279Y0170005D01*
X0287477Y0171204D02*
X0276700Y0171204D01*
X0276344Y0172402D02*
X0288150Y0172402D01*
X0288150Y0173601D02*
X0276100Y0173601D01*
X0276100Y0174799D02*
X0288150Y0174799D01*
X0288150Y0175998D02*
X0276100Y0175998D01*
X0276100Y0177196D02*
X0288150Y0177196D01*
X0288150Y0178395D02*
X0276100Y0178395D01*
X0276100Y0179593D02*
X0288150Y0179593D01*
X0287934Y0180792D02*
X0276100Y0180792D01*
X0276100Y0181990D02*
X0287550Y0181990D01*
X0287714Y0183189D02*
X0276100Y0183189D01*
X0276100Y0184387D02*
X0288563Y0184387D01*
X0291937Y0184387D02*
X0297600Y0184387D01*
X0297600Y0183189D02*
X0292786Y0183189D01*
X0292950Y0181990D02*
X0297600Y0181990D01*
X0297600Y0180792D02*
X0292566Y0180792D01*
X0292350Y0179593D02*
X0297600Y0179593D01*
X0297600Y0178395D02*
X0292350Y0178395D01*
X0292350Y0177196D02*
X0297600Y0177196D01*
X0297600Y0175998D02*
X0292350Y0175998D01*
X0292350Y0174799D02*
X0297600Y0174799D01*
X0297600Y0173601D02*
X0292350Y0173601D01*
X0292350Y0172402D02*
X0297600Y0172402D01*
X0297600Y0171204D02*
X0292350Y0171204D01*
X0292219Y0170005D02*
X0297600Y0170005D01*
X0297600Y0168807D02*
X0291020Y0168807D01*
X0289822Y0167608D02*
X0297600Y0167608D01*
X0297600Y0166410D02*
X0288623Y0166410D01*
X0287425Y0165211D02*
X0297600Y0165211D01*
X0297600Y0164013D02*
X0286226Y0164013D01*
X0285028Y0162814D02*
X0297648Y0162814D01*
X0298290Y0161615D02*
X0283829Y0161615D01*
X0280286Y0164013D02*
X0202607Y0164013D01*
X0203310Y0165211D02*
X0281485Y0165211D01*
X0282683Y0166410D02*
X0203400Y0166410D01*
X0203455Y0152756D02*
X0202875Y0152641D01*
X0202329Y0152415D01*
X0201838Y0152087D01*
X0201420Y0151669D01*
X0201091Y0151177D01*
X0200865Y0150631D01*
X0200750Y0150052D01*
X0200750Y0149756D01*
X0200750Y0149461D01*
X0200865Y0148881D01*
X0201091Y0148335D01*
X0201420Y0147844D01*
X0201838Y0147426D01*
X0202329Y0147098D01*
X0202875Y0146872D01*
X0203455Y0146756D01*
X0203750Y0146756D01*
X0204045Y0146756D01*
X0204625Y0146872D01*
X0205171Y0147098D01*
X0205662Y0147426D01*
X0206080Y0147844D01*
X0206409Y0148335D01*
X0206635Y0148881D01*
X0206750Y0149461D01*
X0206750Y0149756D01*
X0203750Y0149756D01*
X0203750Y0146756D01*
X0203750Y0149756D01*
X0203750Y0149756D01*
X0203750Y0149756D01*
X0200750Y0149756D01*
X0203750Y0149756D01*
X0203750Y0149756D01*
X0206750Y0149756D01*
X0206750Y0150052D01*
X0206635Y0150631D01*
X0206409Y0151177D01*
X0206080Y0151669D01*
X0205662Y0152087D01*
X0205171Y0152415D01*
X0204625Y0152641D01*
X0204045Y0152756D01*
X0203750Y0152756D01*
X0203455Y0152756D01*
X0203750Y0152756D02*
X0203750Y0149756D01*
X0203750Y0149756D01*
X0203750Y0152756D01*
X0203750Y0152027D02*
X0203750Y0152027D01*
X0203750Y0150829D02*
X0203750Y0150829D01*
X0203750Y0149630D02*
X0203750Y0149630D01*
X0203750Y0148432D02*
X0203750Y0148432D01*
X0203750Y0147233D02*
X0203750Y0147233D01*
X0205374Y0147233D02*
X0268750Y0147233D01*
X0268750Y0147256D02*
X0268750Y0146961D01*
X0268865Y0146381D01*
X0269091Y0145835D01*
X0269420Y0145344D01*
X0269838Y0144926D01*
X0270329Y0144598D01*
X0270875Y0144372D01*
X0271455Y0144256D01*
X0271750Y0144256D01*
X0272045Y0144256D01*
X0272625Y0144372D01*
X0273171Y0144598D01*
X0273662Y0144926D01*
X0274080Y0145344D01*
X0274409Y0145835D01*
X0274635Y0146381D01*
X0274750Y0146961D01*
X0274750Y0147256D01*
X0271750Y0147256D01*
X0271750Y0144256D01*
X0271750Y0147256D01*
X0271750Y0147256D01*
X0271750Y0147256D01*
X0268750Y0147256D01*
X0271750Y0147256D01*
X0271750Y0147256D01*
X0274750Y0147256D01*
X0274750Y0147552D01*
X0274635Y0148131D01*
X0274409Y0148677D01*
X0274080Y0149169D01*
X0273662Y0149587D01*
X0273171Y0149915D01*
X0272625Y0150141D01*
X0272045Y0150256D01*
X0271750Y0150256D01*
X0271455Y0150256D01*
X0270875Y0150141D01*
X0270329Y0149915D01*
X0269838Y0149587D01*
X0269420Y0149169D01*
X0269091Y0148677D01*
X0268865Y0148131D01*
X0268750Y0147552D01*
X0268750Y0147256D01*
X0268990Y0148432D02*
X0206449Y0148432D01*
X0206750Y0149630D02*
X0269903Y0149630D01*
X0271750Y0149630D02*
X0271750Y0149630D01*
X0271750Y0150256D02*
X0271750Y0147256D01*
X0271750Y0147256D01*
X0271750Y0150256D01*
X0271750Y0148432D02*
X0271750Y0148432D01*
X0271750Y0147233D02*
X0271750Y0147233D01*
X0271750Y0146035D02*
X0271750Y0146035D01*
X0271750Y0144836D02*
X0271750Y0144836D01*
X0273528Y0144836D02*
X0301972Y0144836D01*
X0301838Y0144926D02*
X0302329Y0144598D01*
X0302875Y0144372D01*
X0303455Y0144256D01*
X0303750Y0144256D01*
X0304045Y0144256D01*
X0304625Y0144372D01*
X0305171Y0144598D01*
X0305662Y0144926D01*
X0306080Y0145344D01*
X0306409Y0145835D01*
X0306635Y0146381D01*
X0306750Y0146961D01*
X0306750Y0147256D01*
X0303750Y0147256D01*
X0303750Y0144256D01*
X0303750Y0147256D01*
X0303750Y0147256D01*
X0303750Y0147256D01*
X0300750Y0147256D01*
X0300750Y0146961D01*
X0300865Y0146381D01*
X0301091Y0145835D01*
X0301420Y0145344D01*
X0301838Y0144926D01*
X0301009Y0146035D02*
X0274491Y0146035D01*
X0274750Y0147233D02*
X0300750Y0147233D01*
X0300750Y0147256D02*
X0303750Y0147256D01*
X0303750Y0147256D01*
X0306750Y0147256D01*
X0306750Y0147552D01*
X0306635Y0148131D01*
X0306409Y0148677D01*
X0306080Y0149169D01*
X0305662Y0149587D01*
X0305171Y0149915D01*
X0304625Y0150141D01*
X0304045Y0150256D01*
X0303750Y0150256D01*
X0303455Y0150256D01*
X0302875Y0150141D01*
X0302329Y0149915D01*
X0301838Y0149587D01*
X0301420Y0149169D01*
X0301091Y0148677D01*
X0300865Y0148131D01*
X0300750Y0147552D01*
X0300750Y0147256D01*
X0300990Y0148432D02*
X0274510Y0148432D01*
X0273597Y0149630D02*
X0301903Y0149630D01*
X0303750Y0149630D02*
X0303750Y0149630D01*
X0303750Y0150256D02*
X0303750Y0147256D01*
X0303750Y0147256D01*
X0303750Y0150256D01*
X0303750Y0148432D02*
X0303750Y0148432D01*
X0303750Y0147233D02*
X0303750Y0147233D01*
X0303750Y0146035D02*
X0303750Y0146035D01*
X0303750Y0144836D02*
X0303750Y0144836D01*
X0305528Y0144836D02*
X0321500Y0144836D01*
X0321500Y0143638D02*
X0006500Y0143638D01*
X0006500Y0144836D02*
X0269972Y0144836D01*
X0269009Y0146035D02*
X0006500Y0146035D01*
X0006500Y0147233D02*
X0070126Y0147233D01*
X0070329Y0147098D02*
X0070875Y0146872D01*
X0071455Y0146756D01*
X0071750Y0146756D01*
X0072045Y0146756D01*
X0072625Y0146872D01*
X0073171Y0147098D01*
X0073662Y0147426D01*
X0074080Y0147844D01*
X0074409Y0148335D01*
X0074635Y0148881D01*
X0074750Y0149461D01*
X0074750Y0149756D01*
X0071750Y0149756D01*
X0071750Y0146756D01*
X0071750Y0149756D01*
X0071750Y0149756D01*
X0071750Y0149756D01*
X0068750Y0149756D01*
X0068750Y0149461D01*
X0068865Y0148881D01*
X0069091Y0148335D01*
X0069420Y0147844D01*
X0069838Y0147426D01*
X0070329Y0147098D01*
X0071750Y0147233D02*
X0071750Y0147233D01*
X0071750Y0148432D02*
X0071750Y0148432D01*
X0071750Y0149630D02*
X0071750Y0149630D01*
X0071750Y0149756D02*
X0071750Y0149756D01*
X0074750Y0149756D01*
X0074750Y0150052D01*
X0074635Y0150631D01*
X0074409Y0151177D01*
X0074080Y0151669D01*
X0073662Y0152087D01*
X0073171Y0152415D01*
X0072625Y0152641D01*
X0072045Y0152756D01*
X0071750Y0152756D01*
X0071455Y0152756D01*
X0070875Y0152641D01*
X0070329Y0152415D01*
X0069838Y0152087D01*
X0069420Y0151669D01*
X0069091Y0151177D01*
X0068865Y0150631D01*
X0068750Y0150052D01*
X0068750Y0149756D01*
X0071750Y0149756D01*
X0071750Y0152756D01*
X0071750Y0149756D01*
X0071750Y0149756D01*
X0071750Y0150829D02*
X0071750Y0150829D01*
X0071750Y0152027D02*
X0071750Y0152027D01*
X0073722Y0152027D02*
X0101778Y0152027D01*
X0101838Y0152087D02*
X0101420Y0151669D01*
X0101091Y0151177D01*
X0100865Y0150631D01*
X0100750Y0150052D01*
X0100750Y0149756D01*
X0100750Y0149461D01*
X0100865Y0148881D01*
X0101091Y0148335D01*
X0101420Y0147844D01*
X0101838Y0147426D01*
X0102329Y0147098D01*
X0102875Y0146872D01*
X0103455Y0146756D01*
X0103750Y0146756D01*
X0104045Y0146756D01*
X0104625Y0146872D01*
X0105171Y0147098D01*
X0105662Y0147426D01*
X0106080Y0147844D01*
X0106409Y0148335D01*
X0106635Y0148881D01*
X0106750Y0149461D01*
X0106750Y0149756D01*
X0103750Y0149756D01*
X0103750Y0146756D01*
X0103750Y0149756D01*
X0103750Y0149756D01*
X0103750Y0149756D01*
X0100750Y0149756D01*
X0103750Y0149756D01*
X0103750Y0149756D01*
X0106750Y0149756D01*
X0106750Y0150052D01*
X0106635Y0150631D01*
X0106409Y0151177D01*
X0106080Y0151669D01*
X0105662Y0152087D01*
X0105171Y0152415D01*
X0104625Y0152641D01*
X0104045Y0152756D01*
X0103750Y0152756D01*
X0103455Y0152756D01*
X0102875Y0152641D01*
X0102329Y0152415D01*
X0101838Y0152087D01*
X0100947Y0150829D02*
X0074553Y0150829D01*
X0074750Y0149630D02*
X0100750Y0149630D01*
X0101051Y0148432D02*
X0074449Y0148432D01*
X0073374Y0147233D02*
X0102126Y0147233D01*
X0103750Y0147233D02*
X0103750Y0147233D01*
X0103750Y0148432D02*
X0103750Y0148432D01*
X0103750Y0149630D02*
X0103750Y0149630D01*
X0103750Y0149756D02*
X0103750Y0152756D01*
X0103750Y0149756D01*
X0103750Y0149756D01*
X0103750Y0150829D02*
X0103750Y0150829D01*
X0103750Y0152027D02*
X0103750Y0152027D01*
X0105722Y0152027D02*
X0169778Y0152027D01*
X0169838Y0152087D02*
X0169420Y0151669D01*
X0169091Y0151177D01*
X0168865Y0150631D01*
X0168750Y0150052D01*
X0168750Y0149756D01*
X0168750Y0149461D01*
X0168865Y0148881D01*
X0169091Y0148335D01*
X0169420Y0147844D01*
X0169838Y0147426D01*
X0170329Y0147098D01*
X0170875Y0146872D01*
X0171455Y0146756D01*
X0171750Y0146756D01*
X0172045Y0146756D01*
X0172625Y0146872D01*
X0173171Y0147098D01*
X0173662Y0147426D01*
X0174080Y0147844D01*
X0174409Y0148335D01*
X0174635Y0148881D01*
X0174750Y0149461D01*
X0174750Y0149756D01*
X0171750Y0149756D01*
X0171750Y0146756D01*
X0171750Y0149756D01*
X0171750Y0149756D01*
X0171750Y0149756D01*
X0168750Y0149756D01*
X0171750Y0149756D01*
X0171750Y0149756D01*
X0174750Y0149756D01*
X0174750Y0150052D01*
X0174635Y0150631D01*
X0174409Y0151177D01*
X0174080Y0151669D01*
X0173662Y0152087D01*
X0173171Y0152415D01*
X0172625Y0152641D01*
X0172045Y0152756D01*
X0171750Y0152756D01*
X0171455Y0152756D01*
X0170875Y0152641D01*
X0170329Y0152415D01*
X0169838Y0152087D01*
X0168947Y0150829D02*
X0106553Y0150829D01*
X0106750Y0149630D02*
X0168750Y0149630D01*
X0169051Y0148432D02*
X0106449Y0148432D01*
X0105374Y0147233D02*
X0170126Y0147233D01*
X0171750Y0147233D02*
X0171750Y0147233D01*
X0171750Y0148432D02*
X0171750Y0148432D01*
X0171750Y0149630D02*
X0171750Y0149630D01*
X0171750Y0149756D02*
X0171750Y0152756D01*
X0171750Y0149756D01*
X0171750Y0149756D01*
X0171750Y0150829D02*
X0171750Y0150829D01*
X0171750Y0152027D02*
X0171750Y0152027D01*
X0173722Y0152027D02*
X0201778Y0152027D01*
X0200947Y0150829D02*
X0174553Y0150829D01*
X0174750Y0149630D02*
X0200750Y0149630D01*
X0201051Y0148432D02*
X0174449Y0148432D01*
X0173374Y0147233D02*
X0202126Y0147233D01*
X0206553Y0150829D02*
X0321500Y0150829D01*
X0321500Y0152027D02*
X0205722Y0152027D01*
X0184636Y0120700D02*
X0182601Y0121543D01*
X0180399Y0121543D01*
X0178364Y0120700D01*
X0176806Y0119143D01*
X0175963Y0117108D01*
X0175963Y0114905D01*
X0176806Y0112870D01*
X0178364Y0111312D01*
X0180399Y0110469D01*
X0182601Y0110469D01*
X0184636Y0111312D01*
X0186194Y0112870D01*
X0187037Y0114905D01*
X0187037Y0117108D01*
X0186194Y0119143D01*
X0184636Y0120700D01*
X0184236Y0120866D02*
X0321500Y0120866D01*
X0321500Y0119668D02*
X0185669Y0119668D01*
X0186473Y0118469D02*
X0239012Y0118469D01*
X0238364Y0118200D02*
X0236806Y0116643D01*
X0235963Y0114608D01*
X0235963Y0112405D01*
X0236806Y0110370D01*
X0238364Y0108812D01*
X0240399Y0107969D01*
X0242601Y0107969D01*
X0244636Y0108812D01*
X0246194Y0110370D01*
X0247037Y0112405D01*
X0247037Y0114608D01*
X0246194Y0116643D01*
X0244636Y0118200D01*
X0242601Y0119043D01*
X0240399Y0119043D01*
X0238364Y0118200D01*
X0237434Y0117271D02*
X0186970Y0117271D01*
X0187037Y0116072D02*
X0236570Y0116072D01*
X0236073Y0114874D02*
X0187024Y0114874D01*
X0186528Y0113675D02*
X0235963Y0113675D01*
X0235963Y0112477D02*
X0185801Y0112477D01*
X0184554Y0111278D02*
X0236430Y0111278D01*
X0237096Y0110080D02*
X0006500Y0110080D01*
X0006500Y0111278D02*
X0038446Y0111278D01*
X0038364Y0111312D02*
X0040399Y0110469D01*
X0042601Y0110469D01*
X0044636Y0111312D01*
X0046194Y0112870D01*
X0047037Y0114905D01*
X0047037Y0117108D01*
X0046194Y0119143D01*
X0044636Y0120700D01*
X0042601Y0121543D01*
X0040399Y0121543D01*
X0038364Y0120700D01*
X0036806Y0119143D01*
X0035963Y0117108D01*
X0035963Y0114905D01*
X0036806Y0112870D01*
X0038364Y0111312D01*
X0037199Y0112477D02*
X0006500Y0112477D01*
X0006500Y0113675D02*
X0036472Y0113675D01*
X0035976Y0114874D02*
X0006500Y0114874D01*
X0006500Y0116072D02*
X0035963Y0116072D01*
X0036030Y0117271D02*
X0006500Y0117271D01*
X0006500Y0118469D02*
X0036527Y0118469D01*
X0037331Y0119668D02*
X0006500Y0119668D01*
X0006500Y0120866D02*
X0038764Y0120866D01*
X0044236Y0120866D02*
X0078764Y0120866D01*
X0078364Y0120700D02*
X0080399Y0121543D01*
X0082601Y0121543D01*
X0084636Y0120700D01*
X0086194Y0119143D01*
X0087037Y0117108D01*
X0087037Y0114905D01*
X0086194Y0112870D01*
X0084636Y0111312D01*
X0082601Y0110469D01*
X0080399Y0110469D01*
X0078364Y0111312D01*
X0076806Y0112870D01*
X0075963Y0114905D01*
X0075963Y0117108D01*
X0076806Y0119143D01*
X0078364Y0120700D01*
X0077331Y0119668D02*
X0045669Y0119668D01*
X0046473Y0118469D02*
X0076527Y0118469D01*
X0076030Y0117271D02*
X0046970Y0117271D01*
X0047037Y0116072D02*
X0075963Y0116072D01*
X0075976Y0114874D02*
X0047024Y0114874D01*
X0046528Y0113675D02*
X0076472Y0113675D01*
X0077199Y0112477D02*
X0045801Y0112477D01*
X0044554Y0111278D02*
X0078446Y0111278D01*
X0084554Y0111278D02*
X0138446Y0111278D01*
X0138364Y0111312D02*
X0140399Y0110469D01*
X0142601Y0110469D01*
X0144636Y0111312D01*
X0146194Y0112870D01*
X0147037Y0114905D01*
X0147037Y0117108D01*
X0146194Y0119143D01*
X0144636Y0120700D01*
X0142601Y0121543D01*
X0140399Y0121543D01*
X0138364Y0120700D01*
X0136806Y0119143D01*
X0135963Y0117108D01*
X0135963Y0114905D01*
X0136806Y0112870D01*
X0138364Y0111312D01*
X0137199Y0112477D02*
X0085801Y0112477D01*
X0086528Y0113675D02*
X0136472Y0113675D01*
X0135976Y0114874D02*
X0087024Y0114874D01*
X0087037Y0116072D02*
X0135963Y0116072D01*
X0136030Y0117271D02*
X0086970Y0117271D01*
X0086473Y0118469D02*
X0136527Y0118469D01*
X0137331Y0119668D02*
X0085669Y0119668D01*
X0084236Y0120866D02*
X0138764Y0120866D01*
X0144236Y0120866D02*
X0178764Y0120866D01*
X0177331Y0119668D02*
X0145669Y0119668D01*
X0146473Y0118469D02*
X0176527Y0118469D01*
X0176030Y0117271D02*
X0146970Y0117271D01*
X0147037Y0116072D02*
X0175963Y0116072D01*
X0175976Y0114874D02*
X0147024Y0114874D01*
X0146528Y0113675D02*
X0176472Y0113675D01*
X0177199Y0112477D02*
X0145801Y0112477D01*
X0144554Y0111278D02*
X0178446Y0111278D01*
X0172310Y0131935D02*
X0173806Y0132555D01*
X0174952Y0133700D01*
X0175572Y0135196D01*
X0175572Y0136816D01*
X0174952Y0138313D01*
X0173806Y0139458D01*
X0172310Y0140078D01*
X0170690Y0140078D01*
X0169194Y0139458D01*
X0168048Y0138313D01*
X0167428Y0136816D01*
X0167428Y0135196D01*
X0168048Y0133700D01*
X0169194Y0132555D01*
X0170690Y0131935D01*
X0172310Y0131935D01*
X0174103Y0132851D02*
X0257428Y0132851D01*
X0257428Y0132696D02*
X0258048Y0131200D01*
X0259194Y0130055D01*
X0260690Y0129435D01*
X0262310Y0129435D01*
X0263806Y0130055D01*
X0264952Y0131200D01*
X0265572Y0132696D01*
X0265572Y0134316D01*
X0264952Y0135813D01*
X0263806Y0136958D01*
X0262310Y0137578D01*
X0260690Y0137578D01*
X0259194Y0136958D01*
X0258048Y0135813D01*
X0257428Y0134316D01*
X0257428Y0132696D01*
X0257861Y0131653D02*
X0006500Y0131653D01*
X0006500Y0132851D02*
X0058897Y0132851D01*
X0059194Y0132555D02*
X0058048Y0133700D01*
X0057428Y0135196D01*
X0057428Y0136816D01*
X0058048Y0138313D01*
X0059194Y0139458D01*
X0060690Y0140078D01*
X0062310Y0140078D01*
X0063806Y0139458D01*
X0064952Y0138313D01*
X0065572Y0136816D01*
X0065572Y0135196D01*
X0064952Y0133700D01*
X0063806Y0132555D01*
X0062310Y0131935D01*
X0060690Y0131935D01*
X0059194Y0132555D01*
X0057903Y0134050D02*
X0006500Y0134050D01*
X0006500Y0135248D02*
X0057428Y0135248D01*
X0057428Y0136447D02*
X0006500Y0136447D01*
X0006500Y0137645D02*
X0057772Y0137645D01*
X0058579Y0138844D02*
X0006500Y0138844D01*
X0006500Y0140042D02*
X0060604Y0140042D01*
X0062396Y0140042D02*
X0070604Y0140042D01*
X0070690Y0140078D02*
X0069194Y0139458D01*
X0068048Y0138313D01*
X0067428Y0136816D01*
X0067428Y0135196D01*
X0068048Y0133700D01*
X0069194Y0132555D01*
X0070690Y0131935D01*
X0072310Y0131935D01*
X0073806Y0132555D01*
X0074952Y0133700D01*
X0075572Y0135196D01*
X0075572Y0136816D01*
X0074952Y0138313D01*
X0073806Y0139458D01*
X0072310Y0140078D01*
X0070690Y0140078D01*
X0072396Y0140042D02*
X0160604Y0140042D01*
X0160690Y0140078D02*
X0159194Y0139458D01*
X0158048Y0138313D01*
X0157428Y0136816D01*
X0157428Y0135196D01*
X0158048Y0133700D01*
X0159194Y0132555D01*
X0160690Y0131935D01*
X0162310Y0131935D01*
X0163806Y0132555D01*
X0164952Y0133700D01*
X0165572Y0135196D01*
X0165572Y0136816D01*
X0164952Y0138313D01*
X0163806Y0139458D01*
X0162310Y0140078D01*
X0160690Y0140078D01*
X0162396Y0140042D02*
X0170604Y0140042D01*
X0172396Y0140042D02*
X0321500Y0140042D01*
X0321500Y0138844D02*
X0174421Y0138844D01*
X0175228Y0137645D02*
X0321500Y0137645D01*
X0321500Y0136447D02*
X0274318Y0136447D01*
X0273806Y0136958D02*
X0274952Y0135813D01*
X0275572Y0134316D01*
X0275572Y0132696D01*
X0274952Y0131200D01*
X0273806Y0130055D01*
X0272310Y0129435D01*
X0270690Y0129435D01*
X0269194Y0130055D01*
X0268048Y0131200D01*
X0267428Y0132696D01*
X0267428Y0134316D01*
X0268048Y0135813D01*
X0269194Y0136958D01*
X0270690Y0137578D01*
X0272310Y0137578D01*
X0273806Y0136958D01*
X0275186Y0135248D02*
X0321500Y0135248D01*
X0321500Y0134050D02*
X0275572Y0134050D01*
X0275572Y0132851D02*
X0321500Y0132851D01*
X0321500Y0131653D02*
X0275139Y0131653D01*
X0274206Y0130454D02*
X0321500Y0130454D01*
X0321500Y0129256D02*
X0006500Y0129256D01*
X0006500Y0130454D02*
X0258794Y0130454D01*
X0257428Y0134050D02*
X0175097Y0134050D01*
X0175572Y0135248D02*
X0257814Y0135248D01*
X0258682Y0136447D02*
X0175572Y0136447D01*
X0168579Y0138844D02*
X0164421Y0138844D01*
X0165228Y0137645D02*
X0167772Y0137645D01*
X0167428Y0136447D02*
X0165572Y0136447D01*
X0165572Y0135248D02*
X0167428Y0135248D01*
X0167903Y0134050D02*
X0165097Y0134050D01*
X0164103Y0132851D02*
X0168897Y0132851D01*
X0158897Y0132851D02*
X0074103Y0132851D01*
X0075097Y0134050D02*
X0157903Y0134050D01*
X0157428Y0135248D02*
X0075572Y0135248D01*
X0075572Y0136447D02*
X0157428Y0136447D01*
X0157772Y0137645D02*
X0075228Y0137645D01*
X0074421Y0138844D02*
X0158579Y0138844D01*
X0172504Y0171204D02*
X0115561Y0171204D01*
X0115750Y0172402D02*
X0171535Y0172402D01*
X0171300Y0173601D02*
X0115440Y0173601D01*
X0114344Y0174799D02*
X0137278Y0174799D01*
X0137088Y0174926D02*
X0137579Y0174598D01*
X0138125Y0174372D01*
X0138705Y0174256D01*
X0139000Y0174256D01*
X0139295Y0174256D01*
X0139875Y0174372D01*
X0140421Y0174598D01*
X0140912Y0174926D01*
X0141330Y0175344D01*
X0141659Y0175835D01*
X0141885Y0176381D01*
X0142000Y0176961D01*
X0142000Y0177256D01*
X0139000Y0177256D01*
X0139000Y0174256D01*
X0139000Y0177256D01*
X0139000Y0177256D01*
X0139000Y0177256D01*
X0136000Y0177256D01*
X0136000Y0176961D01*
X0136115Y0176381D01*
X0136341Y0175835D01*
X0136670Y0175344D01*
X0137088Y0174926D01*
X0136274Y0175998D02*
X0103400Y0175998D01*
X0103400Y0177196D02*
X0136000Y0177196D01*
X0136000Y0177256D02*
X0139000Y0177256D01*
X0139000Y0177256D01*
X0142000Y0177256D01*
X0142000Y0177552D01*
X0141885Y0178131D01*
X0141659Y0178677D01*
X0141330Y0179169D01*
X0140912Y0179587D01*
X0140421Y0179915D01*
X0139875Y0180141D01*
X0139295Y0180256D01*
X0139000Y0180256D01*
X0138705Y0180256D01*
X0138125Y0180141D01*
X0137579Y0179915D01*
X0137088Y0179587D01*
X0136670Y0179169D01*
X0136341Y0178677D01*
X0136115Y0178131D01*
X0136000Y0177552D01*
X0136000Y0177256D01*
X0136224Y0178395D02*
X0103400Y0178395D01*
X0103400Y0179593D02*
X0137098Y0179593D01*
X0139000Y0179593D02*
X0139000Y0179593D01*
X0139000Y0180256D02*
X0139000Y0177256D01*
X0139000Y0177256D01*
X0139000Y0180256D01*
X0139000Y0178395D02*
X0139000Y0178395D01*
X0139000Y0177196D02*
X0139000Y0177196D01*
X0139000Y0175998D02*
X0139000Y0175998D01*
X0139000Y0174799D02*
X0139000Y0174799D01*
X0140722Y0174799D02*
X0171613Y0174799D01*
X0171900Y0175998D02*
X0141726Y0175998D01*
X0142000Y0177196D02*
X0171900Y0177196D01*
X0171900Y0178395D02*
X0141776Y0178395D01*
X0140902Y0179593D02*
X0171900Y0179593D01*
X0171900Y0180792D02*
X0103400Y0180792D01*
X0103400Y0181990D02*
X0171900Y0181990D01*
X0171900Y0183189D02*
X0152537Y0183189D01*
X0152375Y0183122D02*
X0152921Y0183348D01*
X0153412Y0183676D01*
X0153830Y0184094D01*
X0154159Y0184585D01*
X0154385Y0185131D01*
X0154500Y0185711D01*
X0154500Y0186006D01*
X0151500Y0186006D01*
X0151500Y0183006D01*
X0151795Y0183006D01*
X0152375Y0183122D01*
X0151500Y0183189D02*
X0151500Y0183189D01*
X0151500Y0183006D02*
X0151500Y0186006D01*
X0151500Y0186006D01*
X0151500Y0186006D01*
X0148500Y0186006D01*
X0148500Y0185711D01*
X0148615Y0185131D01*
X0148841Y0184585D01*
X0149170Y0184094D01*
X0149588Y0183676D01*
X0150079Y0183348D01*
X0150625Y0183122D01*
X0151205Y0183006D01*
X0151500Y0183006D01*
X0150463Y0183189D02*
X0127537Y0183189D01*
X0127375Y0183122D02*
X0127921Y0183348D01*
X0128412Y0183676D01*
X0128830Y0184094D01*
X0129159Y0184585D01*
X0129385Y0185131D01*
X0129500Y0185711D01*
X0129500Y0186006D01*
X0126500Y0186006D01*
X0126500Y0183006D01*
X0126795Y0183006D01*
X0127375Y0183122D01*
X0126500Y0183189D02*
X0126500Y0183189D01*
X0126500Y0183006D02*
X0126500Y0186006D01*
X0126500Y0186006D01*
X0126500Y0186006D01*
X0123500Y0186006D01*
X0123500Y0185711D01*
X0123615Y0185131D01*
X0123841Y0184585D01*
X0124170Y0184094D01*
X0124588Y0183676D01*
X0125079Y0183348D01*
X0125625Y0183122D01*
X0126205Y0183006D01*
X0126500Y0183006D01*
X0125463Y0183189D02*
X0103400Y0183189D01*
X0103400Y0184387D02*
X0123974Y0184387D01*
X0123525Y0185586D02*
X0103400Y0185586D01*
X0103400Y0186784D02*
X0123596Y0186784D01*
X0123615Y0186881D02*
X0123500Y0186302D01*
X0123500Y0186006D01*
X0126500Y0186006D01*
X0126500Y0186006D01*
X0129500Y0186006D01*
X0129500Y0186302D01*
X0129385Y0186881D01*
X0129159Y0187427D01*
X0128830Y0187919D01*
X0128412Y0188337D01*
X0127921Y0188665D01*
X0127375Y0188891D01*
X0126795Y0189006D01*
X0126500Y0189006D01*
X0126205Y0189006D01*
X0125625Y0188891D01*
X0125079Y0188665D01*
X0124588Y0188337D01*
X0124170Y0187919D01*
X0123841Y0187427D01*
X0123615Y0186881D01*
X0124234Y0187983D02*
X0103400Y0187983D01*
X0103400Y0189181D02*
X0171900Y0189181D01*
X0171900Y0187983D02*
X0153766Y0187983D01*
X0153830Y0187919D02*
X0153412Y0188337D01*
X0152921Y0188665D01*
X0152375Y0188891D01*
X0151795Y0189006D01*
X0151500Y0189006D01*
X0151205Y0189006D01*
X0150625Y0188891D01*
X0150079Y0188665D01*
X0149588Y0188337D01*
X0149170Y0187919D01*
X0148841Y0187427D01*
X0148615Y0186881D01*
X0148500Y0186302D01*
X0148500Y0186006D01*
X0151500Y0186006D01*
X0151500Y0186006D01*
X0154500Y0186006D01*
X0154500Y0186302D01*
X0154385Y0186881D01*
X0154159Y0187427D01*
X0153830Y0187919D01*
X0154404Y0186784D02*
X0171900Y0186784D01*
X0171900Y0185586D02*
X0154475Y0185586D01*
X0154026Y0184387D02*
X0171900Y0184387D01*
X0176100Y0187983D02*
X0197600Y0187983D01*
X0197600Y0189181D02*
X0176100Y0189181D01*
X0176100Y0190380D02*
X0197600Y0190380D01*
X0197600Y0191578D02*
X0176100Y0191578D01*
X0176100Y0192777D02*
X0197600Y0192777D01*
X0197600Y0193975D02*
X0176100Y0193975D01*
X0176100Y0195174D02*
X0197600Y0195174D01*
X0197600Y0196372D02*
X0176100Y0196372D01*
X0171900Y0196372D02*
X0141528Y0196372D01*
X0141659Y0196177D02*
X0141330Y0196669D01*
X0140912Y0197087D01*
X0140421Y0197415D01*
X0139875Y0197641D01*
X0139295Y0197756D01*
X0139000Y0197756D01*
X0138705Y0197756D01*
X0138125Y0197641D01*
X0137579Y0197415D01*
X0137088Y0197087D01*
X0136670Y0196669D01*
X0136341Y0196177D01*
X0136115Y0195631D01*
X0136000Y0195052D01*
X0136000Y0194756D01*
X0136000Y0194461D01*
X0136115Y0193881D01*
X0136341Y0193335D01*
X0136670Y0192844D01*
X0137088Y0192426D01*
X0137579Y0192098D01*
X0138125Y0191872D01*
X0138705Y0191756D01*
X0139000Y0191756D01*
X0139295Y0191756D01*
X0139875Y0191872D01*
X0140421Y0192098D01*
X0140912Y0192426D01*
X0141330Y0192844D01*
X0141659Y0193335D01*
X0141885Y0193881D01*
X0142000Y0194461D01*
X0142000Y0194756D01*
X0139000Y0194756D01*
X0139000Y0191756D01*
X0139000Y0194756D01*
X0139000Y0194756D01*
X0139000Y0194756D01*
X0136000Y0194756D01*
X0139000Y0194756D01*
X0139000Y0194756D01*
X0142000Y0194756D01*
X0142000Y0195052D01*
X0141885Y0195631D01*
X0141659Y0196177D01*
X0141976Y0195174D02*
X0161351Y0195174D01*
X0161329Y0195165D02*
X0160838Y0194837D01*
X0160420Y0194419D01*
X0160091Y0193927D01*
X0159865Y0193381D01*
X0159750Y0192802D01*
X0159750Y0192506D01*
X0159750Y0192211D01*
X0159865Y0191631D01*
X0160091Y0191085D01*
X0160420Y0190594D01*
X0160838Y0190176D01*
X0161329Y0189848D01*
X0161875Y0189622D01*
X0162455Y0189506D01*
X0162750Y0189506D01*
X0163045Y0189506D01*
X0163625Y0189622D01*
X0164171Y0189848D01*
X0164662Y0190176D01*
X0165080Y0190594D01*
X0165409Y0191085D01*
X0165635Y0191631D01*
X0165750Y0192211D01*
X0165750Y0192506D01*
X0162750Y0192506D01*
X0162750Y0189506D01*
X0162750Y0192506D01*
X0162750Y0192506D01*
X0162750Y0192506D01*
X0159750Y0192506D01*
X0162750Y0192506D01*
X0162750Y0192506D01*
X0165750Y0192506D01*
X0165750Y0192802D01*
X0165635Y0193381D01*
X0165409Y0193927D01*
X0165080Y0194419D01*
X0164662Y0194837D01*
X0164171Y0195165D01*
X0163625Y0195391D01*
X0163045Y0195506D01*
X0162750Y0195506D01*
X0162455Y0195506D01*
X0161875Y0195391D01*
X0161329Y0195165D01*
X0162750Y0195174D02*
X0162750Y0195174D01*
X0162750Y0195506D02*
X0162750Y0192506D01*
X0162750Y0192506D01*
X0162750Y0195506D01*
X0164149Y0195174D02*
X0171900Y0195174D01*
X0171900Y0193975D02*
X0165377Y0193975D01*
X0165750Y0192777D02*
X0171900Y0192777D01*
X0171900Y0191578D02*
X0165613Y0191578D01*
X0164866Y0190380D02*
X0171900Y0190380D01*
X0171900Y0197571D02*
X0140044Y0197571D01*
X0139000Y0197571D02*
X0139000Y0197571D01*
X0139000Y0197756D02*
X0139000Y0194756D01*
X0139000Y0194756D01*
X0139000Y0197756D01*
X0137956Y0197571D02*
X0103400Y0197571D01*
X0103400Y0198769D02*
X0171900Y0198769D01*
X0171900Y0199968D02*
X0103400Y0199968D01*
X0103400Y0201166D02*
X0171529Y0201166D01*
X0171300Y0202365D02*
X0103400Y0202365D01*
X0103400Y0203563D02*
X0171619Y0203563D01*
X0177350Y0213151D02*
X0111751Y0213151D01*
X0112915Y0214350D02*
X0177350Y0214350D01*
X0177350Y0215548D02*
X0113250Y0215548D01*
X0113087Y0216747D02*
X0176658Y0216747D01*
X0173063Y0220343D02*
X0103150Y0220343D01*
X0103150Y0221541D02*
X0171864Y0221541D01*
X0170666Y0222740D02*
X0103150Y0222740D01*
X0103150Y0223938D02*
X0169950Y0223938D01*
X0169850Y0225137D02*
X0103150Y0225137D01*
X0103150Y0226335D02*
X0170265Y0226335D01*
X0170250Y0252702D02*
X0170250Y0252702D01*
X0170250Y0253901D02*
X0170250Y0253901D01*
X0170250Y0255099D02*
X0170250Y0255099D01*
X0170250Y0256298D02*
X0170250Y0256298D01*
X0132216Y0287459D02*
X0128284Y0287459D01*
X0129139Y0288658D02*
X0131361Y0288658D01*
X0130950Y0289856D02*
X0129550Y0289856D01*
X0129550Y0291055D02*
X0130950Y0291055D01*
X0130950Y0292253D02*
X0129550Y0292253D01*
X0129550Y0293452D02*
X0130950Y0293452D01*
X0130950Y0294650D02*
X0129550Y0294650D01*
X0129550Y0295849D02*
X0130950Y0295849D01*
X0130950Y0297047D02*
X0129550Y0297047D01*
X0129184Y0298246D02*
X0131316Y0298246D01*
X0131450Y0299444D02*
X0128393Y0299444D01*
X0120058Y0282665D02*
X0090650Y0282665D01*
X0090650Y0281467D02*
X0118859Y0281467D01*
X0118350Y0280268D02*
X0090650Y0280268D01*
X0090650Y0279070D02*
X0118350Y0279070D01*
X0115250Y0275474D02*
X0115250Y0275474D01*
X0115250Y0274276D02*
X0115250Y0274276D01*
X0115250Y0273077D02*
X0115250Y0273077D01*
X0115250Y0271879D02*
X0115250Y0271879D01*
X0097750Y0271879D02*
X0097750Y0271879D01*
X0097750Y0272256D02*
X0097750Y0275256D01*
X0097750Y0272256D01*
X0097750Y0272256D01*
X0097750Y0273077D02*
X0097750Y0273077D01*
X0097750Y0274276D02*
X0097750Y0274276D01*
X0097750Y0270680D02*
X0097750Y0270680D01*
X0087313Y0261092D02*
X0065437Y0261092D01*
X0066532Y0262290D02*
X0086115Y0262290D01*
X0085136Y0263489D02*
X0066900Y0263489D01*
X0066900Y0264687D02*
X0084850Y0264687D01*
X0084850Y0265886D02*
X0066900Y0265886D01*
X0066900Y0267084D02*
X0084850Y0267084D01*
X0084850Y0268283D02*
X0066900Y0268283D01*
X0066900Y0269482D02*
X0084850Y0269482D01*
X0084850Y0270680D02*
X0066900Y0270680D01*
X0066900Y0271879D02*
X0084850Y0271879D01*
X0084850Y0273077D02*
X0066799Y0273077D01*
X0066082Y0274276D02*
X0084850Y0274276D01*
X0084850Y0275474D02*
X0024150Y0275474D01*
X0024150Y0274276D02*
X0053777Y0274276D01*
X0053670Y0274169D02*
X0053341Y0273677D01*
X0053115Y0273131D01*
X0053000Y0272552D01*
X0053000Y0272256D01*
X0053000Y0271961D01*
X0053115Y0271381D01*
X0053341Y0270835D01*
X0053670Y0270344D01*
X0054088Y0269926D01*
X0054579Y0269598D01*
X0055125Y0269372D01*
X0055705Y0269256D01*
X0056000Y0269256D01*
X0056295Y0269256D01*
X0056875Y0269372D01*
X0057421Y0269598D01*
X0057912Y0269926D01*
X0058330Y0270344D01*
X0058659Y0270835D01*
X0058885Y0271381D01*
X0059000Y0271961D01*
X0059000Y0272256D01*
X0056000Y0272256D01*
X0056000Y0269256D01*
X0056000Y0272256D01*
X0056000Y0272256D01*
X0056000Y0272256D01*
X0053000Y0272256D01*
X0056000Y0272256D01*
X0056000Y0272256D01*
X0059000Y0272256D01*
X0059000Y0272552D01*
X0058885Y0273131D01*
X0058659Y0273677D01*
X0058330Y0274169D01*
X0057912Y0274587D01*
X0057421Y0274915D01*
X0056875Y0275141D01*
X0056295Y0275256D01*
X0056000Y0275256D01*
X0055705Y0275256D01*
X0055125Y0275141D01*
X0054579Y0274915D01*
X0054088Y0274587D01*
X0053670Y0274169D01*
X0053104Y0273077D02*
X0024150Y0273077D01*
X0024150Y0271879D02*
X0053016Y0271879D01*
X0053445Y0270680D02*
X0024150Y0270680D01*
X0024150Y0269482D02*
X0054860Y0269482D01*
X0056000Y0269482D02*
X0056000Y0269482D01*
X0057140Y0269482D02*
X0061100Y0269482D01*
X0061100Y0270680D02*
X0058555Y0270680D01*
X0058984Y0271879D02*
X0061100Y0271879D01*
X0061201Y0273077D02*
X0058896Y0273077D01*
X0058223Y0274276D02*
X0061918Y0274276D01*
X0056000Y0274276D02*
X0056000Y0274276D01*
X0056000Y0275256D02*
X0056000Y0272256D01*
X0056000Y0272256D01*
X0056000Y0275256D01*
X0056000Y0273077D02*
X0056000Y0273077D01*
X0056000Y0271879D02*
X0056000Y0271879D01*
X0056000Y0270680D02*
X0056000Y0270680D01*
X0061100Y0268283D02*
X0024150Y0268283D01*
X0024150Y0267084D02*
X0061100Y0267084D01*
X0061100Y0265886D02*
X0024150Y0265886D01*
X0025170Y0264687D02*
X0060830Y0264687D01*
X0059631Y0263489D02*
X0026369Y0263489D01*
X0027567Y0262290D02*
X0058433Y0262290D01*
X0057234Y0261092D02*
X0028766Y0261092D01*
X0029964Y0259893D02*
X0056036Y0259893D01*
X0054837Y0258695D02*
X0031163Y0258695D01*
X0026556Y0255099D02*
X0023241Y0255099D01*
X0023250Y0255052D02*
X0023135Y0255631D01*
X0022909Y0256177D01*
X0022580Y0256669D01*
X0022162Y0257087D01*
X0021671Y0257415D01*
X0021125Y0257641D01*
X0020545Y0257756D01*
X0020250Y0257756D01*
X0019955Y0257756D01*
X0019375Y0257641D01*
X0018829Y0257415D01*
X0018338Y0257087D01*
X0017920Y0256669D01*
X0017591Y0256177D01*
X0017365Y0255631D01*
X0017250Y0255052D01*
X0017250Y0254756D01*
X0017250Y0254461D01*
X0017365Y0253881D01*
X0017591Y0253335D01*
X0017920Y0252844D01*
X0018338Y0252426D01*
X0018829Y0252098D01*
X0019375Y0251872D01*
X0019955Y0251756D01*
X0020250Y0251756D01*
X0020545Y0251756D01*
X0021125Y0251872D01*
X0021671Y0252098D01*
X0022162Y0252426D01*
X0022580Y0252844D01*
X0022909Y0253335D01*
X0023135Y0253881D01*
X0023250Y0254461D01*
X0023250Y0254756D01*
X0020250Y0254756D01*
X0020250Y0251756D01*
X0020250Y0254756D01*
X0020250Y0254756D01*
X0020250Y0254756D01*
X0017250Y0254756D01*
X0020250Y0254756D01*
X0020250Y0254756D01*
X0023250Y0254756D01*
X0023250Y0255052D01*
X0023139Y0253901D02*
X0027754Y0253901D01*
X0029441Y0252702D02*
X0022439Y0252702D01*
X0020250Y0252702D02*
X0020250Y0252702D01*
X0020250Y0253901D02*
X0020250Y0253901D01*
X0020250Y0254756D02*
X0020250Y0257756D01*
X0020250Y0254756D01*
X0020250Y0254756D01*
X0020250Y0255099D02*
X0020250Y0255099D01*
X0020250Y0256298D02*
X0020250Y0256298D01*
X0020250Y0257496D02*
X0020250Y0257496D01*
X0021474Y0257496D02*
X0024159Y0257496D01*
X0025357Y0256298D02*
X0022828Y0256298D01*
X0022960Y0258695D02*
X0006500Y0258695D01*
X0006500Y0259893D02*
X0021762Y0259893D01*
X0020563Y0261092D02*
X0006500Y0261092D01*
X0006500Y0262290D02*
X0019365Y0262290D01*
X0018532Y0263489D02*
X0006500Y0263489D01*
X0006500Y0264687D02*
X0018350Y0264687D01*
X0018350Y0265886D02*
X0006500Y0265886D01*
X0006500Y0267084D02*
X0018350Y0267084D01*
X0018350Y0268283D02*
X0006500Y0268283D01*
X0006500Y0269482D02*
X0018350Y0269482D01*
X0018350Y0270680D02*
X0006500Y0270680D01*
X0006500Y0271879D02*
X0012897Y0271879D01*
X0012920Y0271844D02*
X0013338Y0271426D01*
X0013829Y0271098D01*
X0014375Y0270872D01*
X0014955Y0270756D01*
X0015250Y0270756D01*
X0015545Y0270756D01*
X0016125Y0270872D01*
X0016671Y0271098D01*
X0017162Y0271426D01*
X0017580Y0271844D01*
X0017909Y0272335D01*
X0018135Y0272881D01*
X0018250Y0273461D01*
X0018250Y0273756D01*
X0015250Y0273756D01*
X0015250Y0270756D01*
X0015250Y0273756D01*
X0015250Y0273756D01*
X0015250Y0273756D01*
X0012250Y0273756D01*
X0012250Y0273461D01*
X0012365Y0272881D01*
X0012591Y0272335D01*
X0012920Y0271844D01*
X0012326Y0273077D02*
X0006500Y0273077D01*
X0006500Y0274276D02*
X0012295Y0274276D01*
X0012250Y0274052D02*
X0012250Y0273756D01*
X0015250Y0273756D01*
X0015250Y0273756D01*
X0018250Y0273756D01*
X0018250Y0274052D01*
X0018135Y0274631D01*
X0017909Y0275177D01*
X0017580Y0275669D01*
X0017162Y0276087D01*
X0016671Y0276415D01*
X0016125Y0276641D01*
X0015545Y0276756D01*
X0015250Y0276756D01*
X0014955Y0276756D01*
X0014375Y0276641D01*
X0013829Y0276415D01*
X0013338Y0276087D01*
X0012920Y0275669D01*
X0012591Y0275177D01*
X0012365Y0274631D01*
X0012250Y0274052D01*
X0012790Y0275474D02*
X0006500Y0275474D01*
X0006500Y0276673D02*
X0014534Y0276673D01*
X0015250Y0276673D02*
X0015250Y0276673D01*
X0015250Y0276756D02*
X0015250Y0273756D01*
X0015250Y0273756D01*
X0015250Y0276756D01*
X0015966Y0276673D02*
X0018350Y0276673D01*
X0018350Y0277871D02*
X0006500Y0277871D01*
X0006500Y0279070D02*
X0018350Y0279070D01*
X0018350Y0280268D02*
X0006500Y0280268D01*
X0006500Y0281467D02*
X0018859Y0281467D01*
X0019607Y0282215D02*
X0019607Y0282215D01*
X0020058Y0282665D02*
X0006500Y0282665D01*
X0006500Y0283864D02*
X0021256Y0283864D01*
X0022455Y0285062D02*
X0006500Y0285062D01*
X0006500Y0286261D02*
X0024072Y0286261D01*
X0022216Y0287459D02*
X0006500Y0287459D01*
X0006500Y0288658D02*
X0021361Y0288658D01*
X0020950Y0289856D02*
X0006500Y0289856D01*
X0006500Y0291055D02*
X0020950Y0291055D01*
X0020950Y0292253D02*
X0006500Y0292253D01*
X0006500Y0293452D02*
X0020950Y0293452D01*
X0020950Y0294650D02*
X0006500Y0294650D01*
X0006500Y0295849D02*
X0020950Y0295849D01*
X0020950Y0297047D02*
X0006500Y0297047D01*
X0006500Y0298246D02*
X0021316Y0298246D01*
X0022107Y0299444D02*
X0006500Y0299444D01*
X0006500Y0300643D02*
X0024000Y0300643D01*
X0026500Y0300643D02*
X0031450Y0300643D01*
X0031450Y0301841D02*
X0006500Y0301841D01*
X0006500Y0303040D02*
X0031450Y0303040D01*
X0030394Y0304238D02*
X0006500Y0304238D01*
X0006500Y0305437D02*
X0029195Y0305437D01*
X0027997Y0306635D02*
X0006500Y0306635D01*
X0006500Y0307834D02*
X0026933Y0307834D01*
X0026450Y0309032D02*
X0006500Y0309032D01*
X0006500Y0310231D02*
X0018890Y0310231D01*
X0019401Y0310019D02*
X0021099Y0310019D01*
X0022668Y0310669D01*
X0023869Y0311870D01*
X0024518Y0313439D01*
X0024518Y0321074D01*
X0023869Y0322643D01*
X0022668Y0323843D01*
X0021099Y0324493D01*
X0019401Y0324493D01*
X0017832Y0323843D01*
X0016631Y0322643D01*
X0015981Y0321074D01*
X0015981Y0313439D01*
X0016631Y0311870D01*
X0017832Y0310669D01*
X0019401Y0310019D01*
X0021610Y0310231D02*
X0026450Y0310231D01*
X0026450Y0311429D02*
X0023428Y0311429D01*
X0024183Y0312628D02*
X0026317Y0312628D01*
X0025981Y0313826D02*
X0024518Y0313826D01*
X0024518Y0315025D02*
X0025981Y0315025D01*
X0025981Y0316223D02*
X0024518Y0316223D01*
X0024518Y0317422D02*
X0025981Y0317422D01*
X0025981Y0318620D02*
X0024518Y0318620D01*
X0024518Y0319819D02*
X0025981Y0319819D01*
X0025981Y0321017D02*
X0024518Y0321017D01*
X0024045Y0322216D02*
X0026455Y0322216D01*
X0027350Y0323415D02*
X0023097Y0323415D01*
X0027350Y0324613D02*
X0006500Y0324613D01*
X0006500Y0323415D02*
X0017403Y0323415D01*
X0016455Y0322216D02*
X0006500Y0322216D01*
X0006500Y0321017D02*
X0015981Y0321017D01*
X0015981Y0319819D02*
X0006500Y0319819D01*
X0006500Y0318620D02*
X0015981Y0318620D01*
X0015981Y0317422D02*
X0006500Y0317422D01*
X0006500Y0316223D02*
X0015981Y0316223D01*
X0015981Y0315025D02*
X0006500Y0315025D01*
X0006500Y0313826D02*
X0015981Y0313826D01*
X0016317Y0312628D02*
X0006500Y0312628D01*
X0006500Y0311429D02*
X0017072Y0311429D01*
X0028393Y0299444D02*
X0031450Y0299444D01*
X0031316Y0298246D02*
X0029184Y0298246D01*
X0029550Y0297047D02*
X0030950Y0297047D01*
X0030950Y0295849D02*
X0029550Y0295849D01*
X0029550Y0294650D02*
X0030950Y0294650D01*
X0030950Y0293452D02*
X0029550Y0293452D01*
X0029550Y0292253D02*
X0030950Y0292253D01*
X0030950Y0291055D02*
X0029550Y0291055D01*
X0029550Y0289856D02*
X0030950Y0289856D01*
X0031361Y0288658D02*
X0029139Y0288658D01*
X0028284Y0287459D02*
X0032216Y0287459D01*
X0035208Y0281864D02*
X0035208Y0281864D01*
X0025482Y0276673D02*
X0024150Y0276673D01*
X0024150Y0277871D02*
X0024728Y0277871D01*
X0018350Y0275474D02*
X0017710Y0275474D01*
X0018205Y0274276D02*
X0018350Y0274276D01*
X0018350Y0273077D02*
X0018174Y0273077D01*
X0018350Y0271879D02*
X0017603Y0271879D01*
X0015250Y0271879D02*
X0015250Y0271879D01*
X0015250Y0273077D02*
X0015250Y0273077D01*
X0015250Y0274276D02*
X0015250Y0274276D01*
X0015250Y0275474D02*
X0015250Y0275474D01*
X0019026Y0257496D02*
X0006500Y0257496D01*
X0006500Y0256298D02*
X0017672Y0256298D01*
X0017259Y0255099D02*
X0006500Y0255099D01*
X0006500Y0253901D02*
X0017361Y0253901D01*
X0018061Y0252702D02*
X0006500Y0252702D01*
X0006500Y0251504D02*
X0096901Y0251504D01*
X0097350Y0250305D02*
X0006500Y0250305D01*
X0006500Y0249107D02*
X0097350Y0249107D01*
X0097350Y0247908D02*
X0006500Y0247908D01*
X0006500Y0246710D02*
X0097350Y0246710D01*
X0097350Y0245511D02*
X0006500Y0245511D01*
X0006500Y0244313D02*
X0097350Y0244313D01*
X0097350Y0243114D02*
X0006500Y0243114D01*
X0006500Y0241916D02*
X0097350Y0241916D01*
X0097350Y0240717D02*
X0006500Y0240717D01*
X0006500Y0239519D02*
X0097350Y0239519D01*
X0097350Y0238320D02*
X0060929Y0238320D01*
X0060912Y0238337D02*
X0060421Y0238665D01*
X0059875Y0238891D01*
X0059295Y0239006D01*
X0059000Y0239006D01*
X0058705Y0239006D01*
X0058125Y0238891D01*
X0057579Y0238665D01*
X0057088Y0238337D01*
X0056670Y0237919D01*
X0056341Y0237427D01*
X0056115Y0236881D01*
X0056000Y0236302D01*
X0056000Y0236006D01*
X0056000Y0235711D01*
X0056115Y0235131D01*
X0056341Y0234585D01*
X0056670Y0234094D01*
X0057088Y0233676D01*
X0057579Y0233348D01*
X0058125Y0233122D01*
X0058705Y0233006D01*
X0059000Y0233006D01*
X0059295Y0233006D01*
X0059875Y0233122D01*
X0060421Y0233348D01*
X0060912Y0233676D01*
X0061330Y0234094D01*
X0061659Y0234585D01*
X0061885Y0235131D01*
X0062000Y0235711D01*
X0062000Y0236006D01*
X0059000Y0236006D01*
X0059000Y0233006D01*
X0059000Y0236006D01*
X0059000Y0236006D01*
X0059000Y0236006D01*
X0056000Y0236006D01*
X0059000Y0236006D01*
X0059000Y0236006D01*
X0062000Y0236006D01*
X0062000Y0236302D01*
X0061885Y0236881D01*
X0061659Y0237427D01*
X0061330Y0237919D01*
X0060912Y0238337D01*
X0061785Y0237122D02*
X0097350Y0237122D01*
X0097350Y0235923D02*
X0062000Y0235923D01*
X0061716Y0234725D02*
X0097350Y0234725D01*
X0097350Y0233526D02*
X0060688Y0233526D01*
X0059000Y0233526D02*
X0059000Y0233526D01*
X0059000Y0234725D02*
X0059000Y0234725D01*
X0059000Y0235923D02*
X0059000Y0235923D01*
X0059000Y0236006D02*
X0059000Y0239006D01*
X0059000Y0236006D01*
X0059000Y0236006D01*
X0059000Y0237122D02*
X0059000Y0237122D01*
X0059000Y0238320D02*
X0059000Y0238320D01*
X0057071Y0238320D02*
X0006500Y0238320D01*
X0006500Y0237122D02*
X0056215Y0237122D01*
X0056000Y0235923D02*
X0006500Y0235923D01*
X0006500Y0234725D02*
X0056284Y0234725D01*
X0057312Y0233526D02*
X0006500Y0233526D01*
X0006500Y0232328D02*
X0097350Y0232328D01*
X0097350Y0231129D02*
X0006500Y0231129D01*
X0006500Y0229931D02*
X0097350Y0229931D01*
X0097350Y0213151D02*
X0083150Y0213151D01*
X0083150Y0211953D02*
X0097350Y0211953D01*
X0097350Y0210754D02*
X0083150Y0210754D01*
X0083150Y0209556D02*
X0097350Y0209556D01*
X0097600Y0208357D02*
X0083150Y0208357D01*
X0083150Y0207159D02*
X0097600Y0207159D01*
X0097600Y0205960D02*
X0083150Y0205960D01*
X0083150Y0204762D02*
X0097600Y0204762D01*
X0097600Y0203563D02*
X0083150Y0203563D01*
X0083150Y0202365D02*
X0097600Y0202365D01*
X0097600Y0201166D02*
X0083150Y0201166D01*
X0082959Y0199968D02*
X0097600Y0199968D01*
X0097600Y0198769D02*
X0082114Y0198769D01*
X0078386Y0198769D02*
X0076100Y0198769D01*
X0076100Y0197571D02*
X0097600Y0197571D01*
X0097600Y0196372D02*
X0076100Y0196372D01*
X0076100Y0195174D02*
X0097600Y0195174D01*
X0097600Y0193975D02*
X0076100Y0193975D01*
X0076100Y0192777D02*
X0097600Y0192777D01*
X0097600Y0191578D02*
X0076100Y0191578D01*
X0076100Y0190380D02*
X0097600Y0190380D01*
X0097600Y0189181D02*
X0076100Y0189181D01*
X0076100Y0187983D02*
X0097600Y0187983D01*
X0103400Y0190380D02*
X0160634Y0190380D01*
X0159887Y0191578D02*
X0103400Y0191578D01*
X0103400Y0192777D02*
X0136737Y0192777D01*
X0136097Y0193975D02*
X0103400Y0193975D01*
X0103400Y0195174D02*
X0136024Y0195174D01*
X0136472Y0196372D02*
X0103400Y0196372D01*
X0126500Y0189006D02*
X0126500Y0186006D01*
X0126500Y0186006D01*
X0126500Y0189006D01*
X0126500Y0187983D02*
X0126500Y0187983D01*
X0126500Y0186784D02*
X0126500Y0186784D01*
X0126500Y0185586D02*
X0126500Y0185586D01*
X0126500Y0184387D02*
X0126500Y0184387D01*
X0129026Y0184387D02*
X0148974Y0184387D01*
X0148525Y0185586D02*
X0129475Y0185586D01*
X0129404Y0186784D02*
X0148596Y0186784D01*
X0149234Y0187983D02*
X0128766Y0187983D01*
X0139000Y0192777D02*
X0139000Y0192777D01*
X0139000Y0193975D02*
X0139000Y0193975D01*
X0139000Y0195174D02*
X0139000Y0195174D01*
X0139000Y0196372D02*
X0139000Y0196372D01*
X0141903Y0193975D02*
X0160123Y0193975D01*
X0159750Y0192777D02*
X0141263Y0192777D01*
X0151500Y0189006D02*
X0151500Y0186006D01*
X0151500Y0186006D01*
X0151500Y0189006D01*
X0151500Y0187983D02*
X0151500Y0187983D01*
X0151500Y0186784D02*
X0151500Y0186784D01*
X0151500Y0185586D02*
X0151500Y0185586D01*
X0151500Y0184387D02*
X0151500Y0184387D01*
X0162750Y0190380D02*
X0162750Y0190380D01*
X0162750Y0191578D02*
X0162750Y0191578D01*
X0162750Y0192777D02*
X0162750Y0192777D01*
X0162750Y0193975D02*
X0162750Y0193975D01*
X0095703Y0252702D02*
X0072439Y0252702D01*
X0072580Y0252844D02*
X0072909Y0253335D01*
X0073135Y0253881D01*
X0073250Y0254461D01*
X0073250Y0254756D01*
X0070250Y0254756D01*
X0070250Y0251756D01*
X0070545Y0251756D01*
X0071125Y0251872D01*
X0071671Y0252098D01*
X0072162Y0252426D01*
X0072580Y0252844D01*
X0073139Y0253901D02*
X0094504Y0253901D01*
X0093306Y0255099D02*
X0073241Y0255099D01*
X0073250Y0255052D02*
X0073135Y0255631D01*
X0072909Y0256177D01*
X0072580Y0256669D01*
X0072162Y0257087D01*
X0071671Y0257415D01*
X0071125Y0257641D01*
X0070545Y0257756D01*
X0070250Y0257756D01*
X0069955Y0257756D01*
X0069375Y0257641D01*
X0068829Y0257415D01*
X0068338Y0257087D01*
X0067920Y0256669D01*
X0067591Y0256177D01*
X0067365Y0255631D01*
X0067250Y0255052D01*
X0067250Y0254756D01*
X0067250Y0254461D01*
X0067365Y0253881D01*
X0067591Y0253335D01*
X0067920Y0252844D01*
X0068338Y0252426D01*
X0068829Y0252098D01*
X0069375Y0251872D01*
X0069955Y0251756D01*
X0070250Y0251756D01*
X0070250Y0254756D01*
X0070250Y0254756D01*
X0070250Y0254756D01*
X0067250Y0254756D01*
X0070250Y0254756D01*
X0070250Y0254756D01*
X0073250Y0254756D01*
X0073250Y0255052D01*
X0072828Y0256298D02*
X0092107Y0256298D01*
X0090909Y0257496D02*
X0071474Y0257496D01*
X0070250Y0257496D02*
X0070250Y0257496D01*
X0070250Y0257756D02*
X0070250Y0254756D01*
X0070250Y0254756D01*
X0070250Y0257756D01*
X0069026Y0257496D02*
X0061841Y0257496D01*
X0060643Y0256298D02*
X0067672Y0256298D01*
X0067259Y0255099D02*
X0059444Y0255099D01*
X0058246Y0253901D02*
X0067361Y0253901D01*
X0068061Y0252702D02*
X0056559Y0252702D01*
X0057643Y0253298D02*
X0057643Y0253298D01*
X0063040Y0258695D02*
X0089710Y0258695D01*
X0088512Y0259893D02*
X0064238Y0259893D01*
X0070250Y0256298D02*
X0070250Y0256298D01*
X0070250Y0255099D02*
X0070250Y0255099D01*
X0070250Y0253901D02*
X0070250Y0253901D01*
X0070250Y0252702D02*
X0070250Y0252702D01*
X0076515Y0283864D02*
X0055303Y0283864D01*
X0055450Y0285062D02*
X0074613Y0285062D01*
X0073819Y0286261D02*
X0055049Y0286261D01*
X0054850Y0287459D02*
X0073450Y0287459D01*
X0073450Y0288658D02*
X0054850Y0288658D01*
X0054850Y0289856D02*
X0073450Y0289856D01*
X0073450Y0291055D02*
X0054850Y0291055D01*
X0054850Y0292253D02*
X0073450Y0292253D01*
X0073450Y0293452D02*
X0054850Y0293452D01*
X0055614Y0294650D02*
X0073450Y0294650D01*
X0073859Y0295849D02*
X0056812Y0295849D01*
X0058011Y0297047D02*
X0074710Y0297047D01*
X0075650Y0298246D02*
X0059209Y0298246D01*
X0060408Y0299444D02*
X0075650Y0299444D01*
X0075650Y0300643D02*
X0061606Y0300643D01*
X0062350Y0301841D02*
X0075650Y0301841D01*
X0075650Y0303040D02*
X0062350Y0303040D01*
X0062350Y0304238D02*
X0075650Y0304238D01*
X0075650Y0305437D02*
X0062350Y0305437D01*
X0062350Y0306635D02*
X0076659Y0306635D01*
X0077858Y0307834D02*
X0062350Y0307834D01*
X0062350Y0309032D02*
X0079056Y0309032D01*
X0058150Y0312628D02*
X0044183Y0312628D01*
X0044518Y0313826D02*
X0058150Y0313826D01*
X0058150Y0315025D02*
X0044518Y0315025D01*
X0044518Y0316223D02*
X0058150Y0316223D01*
X0058150Y0317422D02*
X0044518Y0317422D01*
X0044518Y0318620D02*
X0058150Y0318620D01*
X0057217Y0319819D02*
X0044518Y0319819D01*
X0044518Y0321017D02*
X0056019Y0321017D01*
X0054820Y0322216D02*
X0044045Y0322216D01*
X0043097Y0323415D02*
X0050871Y0323415D01*
X0031689Y0337797D02*
X0006500Y0337797D01*
X0006500Y0338995D02*
X0032350Y0338995D01*
X0032350Y0340194D02*
X0006500Y0340194D01*
X0006500Y0341392D02*
X0032350Y0341392D01*
X0032350Y0342591D02*
X0006500Y0342591D01*
X0006500Y0343789D02*
X0032350Y0343789D01*
X0032350Y0344988D02*
X0006500Y0344988D01*
X0006500Y0346186D02*
X0032350Y0346186D01*
X0032350Y0347385D02*
X0006500Y0347385D01*
X0006500Y0348583D02*
X0032350Y0348583D01*
X0032350Y0349782D02*
X0006500Y0349782D01*
X0006500Y0350980D02*
X0032350Y0350980D01*
X0032350Y0352179D02*
X0006500Y0352179D01*
X0006500Y0353377D02*
X0032350Y0353377D01*
X0032350Y0354576D02*
X0006500Y0354576D01*
X0006500Y0355774D02*
X0032350Y0355774D01*
X0032350Y0356973D02*
X0006500Y0356973D01*
X0006500Y0358171D02*
X0032350Y0358171D01*
X0032350Y0359370D02*
X0006500Y0359370D01*
X0006500Y0360568D02*
X0032350Y0360568D01*
X0032350Y0361767D02*
X0006500Y0361767D01*
X0006500Y0362965D02*
X0032350Y0362965D01*
X0032350Y0364164D02*
X0006500Y0364164D01*
X0006500Y0365362D02*
X0032350Y0365362D01*
X0032350Y0366561D02*
X0006500Y0366561D01*
X0006500Y0367759D02*
X0032423Y0367759D01*
X0033100Y0368958D02*
X0006500Y0368958D01*
X0006500Y0370156D02*
X0034299Y0370156D01*
X0035497Y0371355D02*
X0006500Y0371355D01*
X0006500Y0372553D02*
X0036696Y0372553D01*
X0037894Y0373752D02*
X0006500Y0373752D01*
X0006500Y0374951D02*
X0039093Y0374951D01*
X0040291Y0376149D02*
X0006500Y0376149D01*
X0006500Y0377348D02*
X0041490Y0377348D01*
X0030491Y0336598D02*
X0006500Y0336598D01*
X0006500Y0335400D02*
X0029292Y0335400D01*
X0028094Y0334201D02*
X0006500Y0334201D01*
X0006500Y0333003D02*
X0027420Y0333003D01*
X0027350Y0331804D02*
X0006500Y0331804D01*
X0006500Y0330606D02*
X0027350Y0330606D01*
X0027350Y0329407D02*
X0006500Y0329407D01*
X0006500Y0328209D02*
X0027350Y0328209D01*
X0027350Y0327010D02*
X0006500Y0327010D01*
X0006500Y0325812D02*
X0027350Y0325812D01*
X0048393Y0299444D02*
X0054468Y0299444D01*
X0053270Y0298246D02*
X0049184Y0298246D01*
X0049550Y0297047D02*
X0052071Y0297047D01*
X0050873Y0295849D02*
X0049550Y0295849D01*
X0049550Y0294650D02*
X0050650Y0294650D01*
X0050650Y0293452D02*
X0049550Y0293452D01*
X0049550Y0292253D02*
X0050650Y0292253D01*
X0050650Y0291055D02*
X0049550Y0291055D01*
X0049550Y0289856D02*
X0050650Y0289856D01*
X0050650Y0288658D02*
X0049139Y0288658D01*
X0048284Y0287459D02*
X0050650Y0287459D01*
X0050451Y0286261D02*
X0046237Y0286261D01*
X0076381Y0203563D02*
X0077350Y0203563D01*
X0077350Y0202365D02*
X0076700Y0202365D01*
X0076471Y0201166D02*
X0077350Y0201166D01*
X0077541Y0199968D02*
X0076100Y0199968D01*
X0071900Y0193975D02*
X0065377Y0193975D01*
X0065750Y0192777D02*
X0071900Y0192777D01*
X0071900Y0191578D02*
X0065613Y0191578D01*
X0064866Y0190380D02*
X0071900Y0190380D01*
X0062750Y0190380D02*
X0062750Y0190380D01*
X0062750Y0191578D02*
X0062750Y0191578D01*
X0062750Y0192777D02*
X0062750Y0192777D01*
X0062750Y0193975D02*
X0062750Y0193975D01*
X0082580Y0168807D02*
X0006500Y0168807D01*
X0006500Y0167608D02*
X0081382Y0167608D01*
X0080183Y0166410D02*
X0006500Y0166410D01*
X0006500Y0165211D02*
X0078985Y0165211D01*
X0076938Y0164013D02*
X0006500Y0164013D01*
X0006500Y0162814D02*
X0076309Y0162814D01*
X0076343Y0161615D02*
X0006500Y0161615D01*
X0006500Y0160417D02*
X0077021Y0160417D01*
X0069778Y0152027D02*
X0006500Y0152027D01*
X0006500Y0150829D02*
X0068947Y0150829D01*
X0068750Y0149630D02*
X0006500Y0149630D01*
X0006500Y0148432D02*
X0069051Y0148432D01*
X0068579Y0138844D02*
X0064421Y0138844D01*
X0065228Y0137645D02*
X0067772Y0137645D01*
X0067428Y0136447D02*
X0065572Y0136447D01*
X0065572Y0135248D02*
X0067428Y0135248D01*
X0067903Y0134050D02*
X0065097Y0134050D01*
X0064103Y0132851D02*
X0068897Y0132851D01*
X0006500Y0128057D02*
X0321500Y0128057D01*
X0321500Y0126859D02*
X0006500Y0126859D01*
X0006500Y0125660D02*
X0321500Y0125660D01*
X0321500Y0124462D02*
X0006500Y0124462D01*
X0006500Y0123263D02*
X0321500Y0123263D01*
X0321500Y0122065D02*
X0006500Y0122065D01*
X0006500Y0108881D02*
X0238295Y0108881D01*
X0244705Y0108881D02*
X0278295Y0108881D01*
X0278364Y0108812D02*
X0280399Y0107969D01*
X0282601Y0107969D01*
X0284636Y0108812D01*
X0286194Y0110370D01*
X0287037Y0112405D01*
X0287037Y0114608D01*
X0286194Y0116643D01*
X0284636Y0118200D01*
X0282601Y0119043D01*
X0280399Y0119043D01*
X0278364Y0118200D01*
X0276806Y0116643D01*
X0275963Y0114608D01*
X0275963Y0112405D01*
X0276806Y0110370D01*
X0278364Y0108812D01*
X0277096Y0110080D02*
X0245904Y0110080D01*
X0246570Y0111278D02*
X0276430Y0111278D01*
X0275963Y0112477D02*
X0247037Y0112477D01*
X0247037Y0113675D02*
X0275963Y0113675D01*
X0276073Y0114874D02*
X0246927Y0114874D01*
X0246430Y0116072D02*
X0276570Y0116072D01*
X0277434Y0117271D02*
X0245566Y0117271D01*
X0243988Y0118469D02*
X0279012Y0118469D01*
X0283988Y0118469D02*
X0321500Y0118469D01*
X0321500Y0117271D02*
X0285566Y0117271D01*
X0286430Y0116072D02*
X0321500Y0116072D01*
X0321500Y0114874D02*
X0286927Y0114874D01*
X0287037Y0113675D02*
X0321500Y0113675D01*
X0321500Y0112477D02*
X0287037Y0112477D01*
X0286570Y0111278D02*
X0321500Y0111278D01*
X0321500Y0110080D02*
X0285904Y0110080D01*
X0284705Y0108881D02*
X0321500Y0108881D01*
X0321500Y0107682D02*
X0006500Y0107682D01*
X0006500Y0106484D02*
X0321500Y0106484D01*
X0321500Y0105285D02*
X0006500Y0105285D01*
X0006500Y0104087D02*
X0321500Y0104087D01*
X0321500Y0102888D02*
X0006500Y0102888D01*
X0006500Y0101690D02*
X0321500Y0101690D01*
X0321500Y0100491D02*
X0006500Y0100491D01*
X0006500Y0099293D02*
X0321500Y0099293D01*
X0321500Y0098094D02*
X0006500Y0098094D01*
X0006500Y0096896D02*
X0321500Y0096896D01*
X0321500Y0095697D02*
X0006500Y0095697D01*
X0006500Y0094499D02*
X0321500Y0094499D01*
X0321500Y0141241D02*
X0006500Y0141241D01*
X0006500Y0142439D02*
X0321500Y0142439D01*
X0321500Y0146035D02*
X0306491Y0146035D01*
X0306750Y0147233D02*
X0321500Y0147233D01*
X0321500Y0148432D02*
X0306510Y0148432D01*
X0305597Y0149630D02*
X0321500Y0149630D01*
X0321500Y0153226D02*
X0006500Y0153226D01*
X0006500Y0154424D02*
X0321500Y0154424D01*
X0321500Y0155623D02*
X0006500Y0155623D01*
X0006500Y0156821D02*
X0321500Y0156821D01*
X0312750Y0167608D02*
X0312750Y0167608D01*
X0312750Y0168807D02*
X0312750Y0168807D01*
X0312750Y0170005D02*
X0312750Y0170005D01*
X0312750Y0171204D02*
X0312750Y0171204D01*
X0297600Y0185586D02*
X0276100Y0185586D01*
X0276100Y0186784D02*
X0297600Y0186784D01*
X0297600Y0187983D02*
X0276100Y0187983D01*
X0276100Y0189181D02*
X0297600Y0189181D01*
X0297600Y0190380D02*
X0276100Y0190380D01*
X0276100Y0191578D02*
X0297600Y0191578D01*
X0297600Y0192777D02*
X0276100Y0192777D01*
X0276100Y0193975D02*
X0297600Y0193975D01*
X0271900Y0191578D02*
X0265308Y0191578D01*
X0265734Y0190380D02*
X0271900Y0190380D01*
X0271900Y0189181D02*
X0265645Y0189181D01*
X0264969Y0187983D02*
X0271900Y0187983D01*
X0262750Y0187983D02*
X0262750Y0187983D01*
X0262750Y0189181D02*
X0262750Y0189181D01*
X0262750Y0190380D02*
X0262750Y0190380D01*
X0262750Y0191578D02*
X0262750Y0191578D01*
X0269955Y0249256D02*
X0270250Y0249256D01*
X0270545Y0249256D01*
X0271125Y0249372D01*
X0271671Y0249598D01*
X0272162Y0249926D01*
X0272580Y0250344D01*
X0272909Y0250835D01*
X0273135Y0251381D01*
X0273250Y0251961D01*
X0273250Y0252256D01*
X0270250Y0252256D01*
X0270250Y0249256D01*
X0270250Y0252256D01*
X0270250Y0252256D01*
X0270250Y0252256D01*
X0267250Y0252256D01*
X0267250Y0251961D01*
X0267365Y0251381D01*
X0267591Y0250835D01*
X0267920Y0250344D01*
X0268338Y0249926D01*
X0268829Y0249598D01*
X0269375Y0249372D01*
X0269955Y0249256D01*
X0270250Y0250305D02*
X0270250Y0250305D01*
X0270250Y0251504D02*
X0270250Y0251504D01*
X0270250Y0252256D02*
X0270250Y0252256D01*
X0273250Y0252256D01*
X0273250Y0252552D01*
X0273135Y0253131D01*
X0272909Y0253677D01*
X0272580Y0254169D01*
X0272162Y0254587D01*
X0271671Y0254915D01*
X0271125Y0255141D01*
X0270545Y0255256D01*
X0270250Y0255256D01*
X0269955Y0255256D01*
X0269375Y0255141D01*
X0268829Y0254915D01*
X0268338Y0254587D01*
X0267920Y0254169D01*
X0267591Y0253677D01*
X0267365Y0253131D01*
X0267250Y0252552D01*
X0267250Y0252256D01*
X0270250Y0252256D01*
X0270250Y0255256D01*
X0270250Y0252256D01*
X0270250Y0252256D01*
X0270250Y0252702D02*
X0270250Y0252702D01*
X0270250Y0253901D02*
X0270250Y0253901D01*
X0270250Y0255099D02*
X0270250Y0255099D01*
X0271226Y0255099D02*
X0290806Y0255099D01*
X0292004Y0253901D02*
X0272759Y0253901D01*
X0273220Y0252702D02*
X0293203Y0252702D01*
X0294401Y0251504D02*
X0273159Y0251504D01*
X0272542Y0250305D02*
X0295600Y0250305D01*
X0289607Y0256298D02*
X0263143Y0256298D01*
X0264341Y0257496D02*
X0288409Y0257496D01*
X0269274Y0255099D02*
X0261944Y0255099D01*
X0260746Y0253901D02*
X0267741Y0253901D01*
X0267280Y0252702D02*
X0259547Y0252702D01*
X0258458Y0251614D02*
X0258458Y0251614D01*
X0258349Y0251504D02*
X0267341Y0251504D01*
X0267958Y0250305D02*
X0256807Y0250305D01*
X0264318Y0136447D02*
X0268682Y0136447D01*
X0267814Y0135248D02*
X0265186Y0135248D01*
X0265572Y0134050D02*
X0267428Y0134050D01*
X0267428Y0132851D02*
X0265572Y0132851D01*
X0265139Y0131653D02*
X0267861Y0131653D01*
X0268794Y0130454D02*
X0264206Y0130454D01*
D15*
X0271750Y0147256D03*
X0279000Y0159756D03*
X0274000Y0171006D03*
X0290250Y0182256D03*
X0280250Y0198506D03*
X0274000Y0199756D03*
X0262750Y0190006D03*
X0272750Y0222256D03*
X0259000Y0233506D03*
X0256000Y0253256D03*
X0270250Y0252256D03*
X0264000Y0269756D03*
X0256000Y0269756D03*
X0252750Y0282256D03*
X0227500Y0276256D03*
X0215250Y0271256D03*
X0197750Y0272256D03*
X0197750Y0254756D03*
X0220250Y0252256D03*
X0210250Y0215756D03*
X0200250Y0209756D03*
X0190250Y0184756D03*
X0180250Y0201006D03*
X0174000Y0202256D03*
X0162750Y0192506D03*
X0151500Y0186006D03*
X0139000Y0177256D03*
X0126500Y0186006D03*
X0139000Y0194756D03*
X0112750Y0172256D03*
X0100500Y0166006D03*
X0103750Y0149756D03*
X0079000Y0162256D03*
X0074000Y0173506D03*
X0090250Y0184756D03*
X0080250Y0201006D03*
X0074000Y0202256D03*
X0062750Y0192506D03*
X0072750Y0224756D03*
X0059000Y0236006D03*
X0056000Y0255756D03*
X0070250Y0254756D03*
X0064000Y0272256D03*
X0056000Y0272256D03*
X0052750Y0284756D03*
X0027500Y0278756D03*
X0015250Y0273756D03*
X0020250Y0254756D03*
X0035250Y0337256D03*
X0085250Y0337256D03*
X0127500Y0278756D03*
X0115250Y0273756D03*
X0120250Y0254756D03*
X0097750Y0254756D03*
X0097750Y0272256D03*
X0110250Y0215756D03*
X0100250Y0209756D03*
X0071750Y0149756D03*
X0159000Y0236006D03*
X0172750Y0224756D03*
X0170250Y0254756D03*
X0156000Y0255756D03*
X0156000Y0272256D03*
X0164000Y0272256D03*
X0152750Y0284756D03*
X0135250Y0337256D03*
X0185250Y0337256D03*
X0235250Y0334756D03*
X0285250Y0334756D03*
X0297750Y0269756D03*
X0297750Y0252256D03*
X0310250Y0213256D03*
X0300250Y0207256D03*
X0312750Y0169756D03*
X0300500Y0163506D03*
X0303750Y0147256D03*
X0212750Y0172256D03*
X0200500Y0166006D03*
X0203750Y0149756D03*
X0179000Y0162256D03*
X0174000Y0173506D03*
X0171750Y0149756D03*
D16*
X0287750Y0288506D02*
X0287750Y0302256D01*
X0292750Y0307256D01*
X0292750Y0314756D01*
X0302750Y0314756D02*
X0302750Y0307256D01*
X0297750Y0302256D01*
X0297750Y0288506D01*
X0235250Y0291006D02*
X0235250Y0302256D01*
X0230250Y0307256D01*
X0230250Y0314756D01*
X0202750Y0317256D02*
X0202750Y0309756D01*
X0197750Y0304756D01*
X0197750Y0291006D01*
X0187750Y0291006D02*
X0187750Y0304756D01*
X0192750Y0309756D01*
X0192750Y0317256D01*
X0135250Y0304756D02*
X0135250Y0293506D01*
X0135250Y0304756D02*
X0130250Y0309756D01*
X0130250Y0317256D01*
X0102750Y0317256D02*
X0102750Y0309756D01*
X0097750Y0304756D01*
X0097750Y0291006D01*
X0087750Y0291006D02*
X0087750Y0304756D01*
X0092750Y0309756D01*
X0092750Y0317256D01*
X0035250Y0304756D02*
X0035250Y0293506D01*
X0035250Y0304756D02*
X0030250Y0309756D01*
X0030250Y0317256D01*
D17*
X0030250Y0332256D01*
X0035250Y0337256D01*
X0035250Y0367006D01*
X0043750Y0375506D01*
X0100802Y0375506D01*
X0101500Y0374808D01*
X0101500Y0361006D01*
X0100802Y0375506D02*
X0141281Y0375506D01*
X0141500Y0375287D01*
X0141500Y0346006D01*
X0135250Y0339756D01*
X0135250Y0337256D01*
X0135500Y0337506D01*
X0135250Y0337256D02*
X0130250Y0332256D01*
X0130250Y0317256D01*
X0135250Y0293506D02*
X0135250Y0286006D01*
X0132750Y0283506D01*
X0125000Y0283506D01*
X0121250Y0279756D01*
X0121250Y0264506D01*
X0130250Y0255506D01*
X0155750Y0255506D01*
X0156000Y0255756D01*
X0164000Y0263756D01*
X0164000Y0272256D01*
X0187702Y0278756D02*
X0187750Y0279305D01*
X0187750Y0291006D01*
X0187750Y0279305D02*
X0187750Y0264756D01*
X0197750Y0254756D01*
X0200250Y0252256D01*
X0200250Y0209756D01*
X0200500Y0209506D01*
X0200500Y0166006D01*
X0180250Y0201006D02*
X0180250Y0217256D01*
X0172750Y0224756D01*
X0187702Y0278756D02*
X0127500Y0278756D01*
X0100250Y0252256D02*
X0097750Y0254756D01*
X0087750Y0264756D01*
X0087750Y0279305D01*
X0087702Y0278756D01*
X0027500Y0278756D01*
X0025000Y0283506D02*
X0021250Y0279756D01*
X0021250Y0264506D01*
X0030250Y0255506D01*
X0055750Y0255506D01*
X0056000Y0255756D01*
X0064000Y0263756D01*
X0064000Y0272256D01*
X0087750Y0279305D02*
X0087750Y0291006D01*
X0092750Y0317256D02*
X0092750Y0329756D01*
X0085250Y0337256D01*
X0035250Y0293506D02*
X0035250Y0286006D01*
X0032750Y0283506D01*
X0025000Y0283506D01*
X0072750Y0224756D02*
X0080250Y0217256D01*
X0080250Y0201006D01*
X0100250Y0209756D02*
X0100250Y0252256D01*
X0100250Y0209756D02*
X0100500Y0209506D01*
X0100500Y0166006D01*
X0221250Y0262006D02*
X0230250Y0253006D01*
X0255750Y0253006D01*
X0256000Y0253256D01*
X0264000Y0261256D01*
X0264000Y0269756D01*
X0287702Y0276256D02*
X0287750Y0276805D01*
X0287750Y0288506D01*
X0287750Y0276805D02*
X0287750Y0262256D01*
X0297750Y0252256D01*
X0300250Y0249756D01*
X0300250Y0207256D01*
X0300500Y0207006D01*
X0300500Y0163506D01*
X0280250Y0198506D02*
X0280250Y0214756D01*
X0272750Y0222256D01*
X0287702Y0276256D02*
X0227500Y0276256D01*
X0225000Y0281006D02*
X0221250Y0277256D01*
X0221250Y0262006D01*
X0225000Y0281006D02*
X0232750Y0281006D01*
X0235250Y0283506D01*
X0235250Y0291006D01*
X0230250Y0314756D02*
X0230250Y0329756D01*
X0235250Y0334756D01*
X0235250Y0369256D01*
X0229000Y0375506D01*
X0202141Y0375506D01*
X0201500Y0374866D01*
X0201500Y0358506D01*
X0202141Y0375506D02*
X0141281Y0375506D01*
X0185250Y0337256D02*
X0192750Y0329756D01*
X0192750Y0317256D01*
X0285250Y0334756D02*
X0292750Y0327256D01*
X0292750Y0314756D01*
D18*
X0282750Y0314756D02*
X0282750Y0307256D01*
X0277750Y0302256D01*
X0277750Y0288506D01*
X0260250Y0299756D02*
X0260250Y0317256D01*
X0252750Y0324756D01*
X0260250Y0299756D02*
X0252750Y0292256D01*
X0252750Y0282256D01*
X0274000Y0199756D02*
X0274000Y0171006D01*
X0279000Y0159756D02*
X0290250Y0171006D01*
X0290250Y0182256D01*
X0190250Y0184756D02*
X0190250Y0173506D01*
X0179000Y0162256D01*
X0174000Y0173506D02*
X0174000Y0202256D01*
X0152750Y0284756D02*
X0152750Y0294756D01*
X0160250Y0302256D01*
X0160250Y0319756D01*
X0152750Y0327256D01*
X0177750Y0304756D02*
X0177750Y0291006D01*
X0177750Y0304756D02*
X0182750Y0309756D01*
X0182750Y0317256D01*
X0082750Y0317256D02*
X0082750Y0309756D01*
X0077750Y0304756D01*
X0077750Y0291006D01*
X0060250Y0302256D02*
X0060250Y0319756D01*
X0052750Y0327256D01*
X0060250Y0302256D02*
X0052750Y0294756D01*
X0052750Y0284756D01*
X0074000Y0202256D02*
X0074000Y0173506D01*
X0079000Y0162256D02*
X0090250Y0173506D01*
X0090250Y0184756D01*
M02*
