%
M48
M72
T01C0.01200
T02C0.03543
T03C0.03937
T04C0.04000
T05C0.07874
%
T01
X71750Y149756
X79000Y162256
X74000Y173506
X90250Y184756
X80250Y201006
X74000Y202256
X62750Y192506
X72750Y224756
X59000Y236006
X56000Y255756
X70250Y254756
X64000Y272256
X56000Y272256
X52750Y284756
X27500Y278756
X15250Y273756
X20250Y254756
X35250Y337256
X85250Y337256
X127500Y278756
X115250Y273756
X120250Y254756
X97750Y254756
X97750Y272256
X110250Y215756
X100250Y209756
X126500Y186006
X139000Y177256
X151500Y186006
X162750Y192506
X174000Y202256
X180250Y201006
X190250Y184756
X174000Y173506
X179000Y162256
X171750Y149756
X200500Y166006
X212750Y172256
X203750Y149756
X200250Y209756
X210250Y215756
X220250Y252256
X215250Y271256
X227500Y276256
X252750Y282256
X256000Y269756
X264000Y269756
X256000Y253256
X270250Y252256
X259000Y233506
X272750Y222256
X274000Y199756
X280250Y198506
X290250Y182256
X274000Y171006
X279000Y159756
X271750Y147256
X300500Y163506
X312750Y169756
X303750Y147256
X262750Y190006
X300250Y207256
X310250Y213256
X297750Y252256
X297750Y269756
X285250Y334756
X235250Y334756
X185250Y337256
X152750Y284756
X156000Y272256
X164000Y272256
X156000Y255756
X170250Y254756
X159000Y236006
X172750Y224756
X197750Y254756
X197750Y272256
X135250Y337256
X139000Y194756
X112750Y172256
X100500Y166006
X103750Y149756
T02
X71500Y136006
X61500Y136006
X161500Y136006
X171500Y136006
X261500Y133506
X271500Y133506
T03
X252750Y304756
X240250Y314756
X230250Y314756
X220250Y314756
X202750Y317256
X192750Y317256
X182750Y317256
X152750Y307256
X140250Y317256
X130250Y317256
X120250Y317256
X102750Y317256
X92750Y317256
X82750Y317256
X52750Y307256
X40250Y317256
X30250Y317256
X20250Y317256
X52750Y327256
X56500Y364506
X66500Y364506
X101500Y361006
X111500Y361006
X121500Y361006
X152750Y327256
X156500Y364506
X166500Y364506
X201500Y358506
X211500Y358506
X221500Y358506
X252750Y324756
X282750Y314756
X292750Y314756
X302750Y314756
X266500Y362006
X256500Y362006
T04
X245250Y291006
X235250Y291006
X225250Y291006
X197750Y291006
X187750Y291006
X177750Y291006
X145250Y293506
X135250Y293506
X125250Y293506
X97750Y291006
X87750Y291006
X77750Y291006
X45250Y293506
X35250Y293506
X25250Y293506
X277750Y288506
X287750Y288506
X297750Y288506
T05
X41500Y116006
X81500Y116006
X141500Y116006
X181500Y116006
X241500Y113506
X281500Y113506
M30
