G75*
%MOIN*%
%OFA0B0*%
%FSLAX25Y25*%
%IPPOS*%
%LPD*%
%AMOC8*
5,1,8,0,0,1.08239X$1,22.5*
%
%ADD10C,0.00400*%
%ADD11C,0.00600*%
%ADD12C,0.00800*%
%ADD13C,0.09921*%
%ADD14C,0.00500*%
%ADD15C,0.01000*%
%ADD16R,0.03543X0.05315*%
%ADD17R,0.42000X0.03000*%
%ADD18R,0.07500X0.02000*%
%ADD19R,0.03000X0.02000*%
%ADD20C,0.00200*%
D10*
X0011065Y0118456D02*
X0012933Y0118456D01*
X0013400Y0118923D01*
X0013400Y0119857D01*
X0012933Y0120325D01*
X0012933Y0121403D02*
X0013400Y0121870D01*
X0013400Y0122804D01*
X0012933Y0123271D01*
X0013400Y0124349D02*
X0010598Y0124349D01*
X0011532Y0125283D01*
X0010598Y0126218D01*
X0013400Y0126218D01*
X0013867Y0127296D02*
X0013867Y0129164D01*
X0012933Y0130242D02*
X0013400Y0130709D01*
X0013400Y0131644D01*
X0012933Y0132111D01*
X0011065Y0132111D01*
X0012933Y0130242D01*
X0011065Y0130242D01*
X0010598Y0130709D01*
X0010598Y0131644D01*
X0011065Y0132111D01*
X0011065Y0133189D02*
X0010598Y0133656D01*
X0010598Y0134590D01*
X0011065Y0135057D01*
X0012933Y0133189D01*
X0013400Y0133656D01*
X0013400Y0134590D01*
X0012933Y0135057D01*
X0011065Y0135057D01*
X0011065Y0136135D02*
X0010598Y0136602D01*
X0010598Y0137537D01*
X0011065Y0138004D01*
X0012933Y0136135D01*
X0013400Y0136602D01*
X0013400Y0137537D01*
X0012933Y0138004D01*
X0011065Y0138004D01*
X0011065Y0139082D02*
X0011532Y0139082D01*
X0011999Y0139549D01*
X0011999Y0140950D01*
X0012933Y0140950D02*
X0011065Y0140950D01*
X0010598Y0140483D01*
X0010598Y0139549D01*
X0011065Y0139082D01*
X0012933Y0139082D02*
X0013400Y0139549D01*
X0013400Y0140483D01*
X0012933Y0140950D01*
X0016332Y0140974D02*
X0016332Y0139573D01*
X0018200Y0139573D01*
X0017733Y0138495D02*
X0016799Y0138495D01*
X0016332Y0138028D01*
X0016332Y0137094D01*
X0016799Y0136626D01*
X0017733Y0136626D01*
X0018200Y0137094D01*
X0018200Y0138028D01*
X0017733Y0138495D01*
X0016332Y0140974D02*
X0016799Y0141441D01*
X0018200Y0141441D01*
X0018200Y0145466D02*
X0015398Y0145466D01*
X0015398Y0146867D01*
X0015865Y0147334D01*
X0016332Y0147334D01*
X0016799Y0146867D01*
X0016799Y0145466D01*
X0018200Y0145466D02*
X0018200Y0146867D01*
X0017733Y0147334D01*
X0017266Y0147334D01*
X0016799Y0146867D01*
X0016332Y0148413D02*
X0016332Y0148880D01*
X0018200Y0148880D01*
X0018200Y0148413D02*
X0018200Y0149347D01*
X0018200Y0150377D02*
X0018200Y0151778D01*
X0017733Y0152245D01*
X0016799Y0152245D01*
X0016332Y0151778D01*
X0016332Y0150377D01*
X0019134Y0150377D01*
X0017733Y0153323D02*
X0018200Y0153790D01*
X0018200Y0154725D01*
X0017733Y0155192D01*
X0016799Y0155192D01*
X0016332Y0154725D01*
X0016332Y0153790D01*
X0016799Y0153323D01*
X0017733Y0153323D01*
X0018200Y0156270D02*
X0018200Y0157204D01*
X0018200Y0156737D02*
X0015398Y0156737D01*
X0015398Y0156270D01*
X0016332Y0158701D02*
X0016332Y0159635D01*
X0016799Y0160103D01*
X0018200Y0160103D01*
X0018200Y0158701D01*
X0017733Y0158234D01*
X0017266Y0158701D01*
X0017266Y0160103D01*
X0017266Y0161181D02*
X0016332Y0162115D01*
X0016332Y0162582D01*
X0016332Y0161181D02*
X0018200Y0161181D01*
X0017733Y0166583D02*
X0015865Y0166583D01*
X0015398Y0167050D01*
X0015398Y0167984D01*
X0015865Y0168451D01*
X0016332Y0169529D02*
X0017733Y0169529D01*
X0018200Y0169996D01*
X0018200Y0171398D01*
X0016332Y0171398D01*
X0016332Y0172476D02*
X0018200Y0172476D01*
X0017266Y0172476D02*
X0016332Y0173410D01*
X0016332Y0173877D01*
X0016332Y0174931D02*
X0018200Y0174931D01*
X0017266Y0174931D02*
X0016332Y0175865D01*
X0016332Y0176332D01*
X0016799Y0177387D02*
X0016332Y0177854D01*
X0016332Y0178788D01*
X0016799Y0179255D01*
X0017266Y0179255D01*
X0017266Y0177387D01*
X0017733Y0177387D02*
X0016799Y0177387D01*
X0017733Y0177387D02*
X0018200Y0177854D01*
X0018200Y0178788D01*
X0018200Y0180333D02*
X0016332Y0180333D01*
X0016332Y0181734D01*
X0016799Y0182201D01*
X0018200Y0182201D01*
X0017733Y0183747D02*
X0015865Y0183747D01*
X0016332Y0183280D02*
X0016332Y0184214D01*
X0017733Y0183747D02*
X0018200Y0184214D01*
X0018200Y0188191D02*
X0015398Y0188191D01*
X0015398Y0189592D01*
X0015865Y0190059D01*
X0017733Y0190059D01*
X0018200Y0189592D01*
X0018200Y0188191D01*
X0018200Y0191137D02*
X0016332Y0191137D01*
X0017266Y0191137D02*
X0016332Y0192071D01*
X0016332Y0192538D01*
X0016332Y0193592D02*
X0016332Y0194060D01*
X0018200Y0194060D01*
X0018200Y0194527D02*
X0018200Y0193592D01*
X0016332Y0195557D02*
X0018200Y0196491D01*
X0016332Y0197425D01*
X0016799Y0198503D02*
X0016332Y0198970D01*
X0016332Y0199905D01*
X0016799Y0200372D01*
X0017266Y0200372D01*
X0017266Y0198503D01*
X0017733Y0198503D02*
X0016799Y0198503D01*
X0017733Y0198503D02*
X0018200Y0198970D01*
X0018200Y0199905D01*
X0018200Y0201450D02*
X0016332Y0201450D01*
X0017266Y0201450D02*
X0016332Y0202384D01*
X0016332Y0202851D01*
X0016332Y0206852D02*
X0015398Y0207786D01*
X0016332Y0206852D02*
X0017266Y0206852D01*
X0018200Y0207786D01*
X0018200Y0208816D02*
X0016332Y0210684D01*
X0015865Y0211763D02*
X0015398Y0212230D01*
X0015398Y0213164D01*
X0015865Y0213631D01*
X0016332Y0213631D01*
X0016799Y0213164D01*
X0017266Y0213631D01*
X0017733Y0213631D01*
X0018200Y0213164D01*
X0018200Y0212230D01*
X0017733Y0211763D01*
X0018200Y0210684D02*
X0016332Y0208816D01*
X0016799Y0212697D02*
X0016799Y0213164D01*
X0018200Y0214709D02*
X0017266Y0215643D01*
X0016332Y0215643D01*
X0015398Y0214709D01*
X0015398Y0194060D02*
X0014931Y0194060D01*
X0017733Y0168451D02*
X0018200Y0167984D01*
X0018200Y0167050D01*
X0017733Y0166583D01*
X0015398Y0148880D02*
X0014931Y0148880D01*
X0024998Y0142423D02*
X0025465Y0142423D01*
X0027333Y0140555D01*
X0027800Y0140555D01*
X0027800Y0139477D02*
X0027800Y0137609D01*
X0027800Y0138543D02*
X0024998Y0138543D01*
X0025932Y0137609D01*
X0025465Y0136530D02*
X0027333Y0134662D01*
X0027800Y0135129D01*
X0027800Y0136063D01*
X0027333Y0136530D01*
X0025465Y0136530D01*
X0024998Y0136063D01*
X0024998Y0135129D01*
X0025465Y0134662D01*
X0027333Y0134662D01*
X0027800Y0133584D02*
X0027800Y0131716D01*
X0025932Y0133584D01*
X0025465Y0133584D01*
X0024998Y0133117D01*
X0024998Y0132183D01*
X0025465Y0131716D01*
X0023000Y0131668D02*
X0022533Y0131201D01*
X0020665Y0131201D01*
X0021132Y0131668D02*
X0021132Y0130733D01*
X0021132Y0129236D02*
X0023000Y0129236D01*
X0023000Y0128769D02*
X0023000Y0129703D01*
X0021132Y0129236D02*
X0021132Y0128769D01*
X0020198Y0129236D02*
X0019731Y0129236D01*
X0020198Y0127691D02*
X0020198Y0125823D01*
X0023000Y0125823D01*
X0021599Y0125823D02*
X0021599Y0126757D01*
X0018200Y0127272D02*
X0018200Y0128673D01*
X0018200Y0129751D02*
X0018200Y0130685D01*
X0018200Y0130218D02*
X0016332Y0130218D01*
X0016332Y0129751D01*
X0015398Y0130218D02*
X0014931Y0130218D01*
X0016332Y0128673D02*
X0016332Y0127272D01*
X0016799Y0126805D01*
X0017733Y0126805D01*
X0018200Y0127272D01*
X0017266Y0125727D02*
X0017266Y0123858D01*
X0017733Y0123858D02*
X0016799Y0123858D01*
X0016332Y0124325D01*
X0016332Y0125259D01*
X0016799Y0125727D01*
X0017266Y0125727D01*
X0018200Y0125259D02*
X0018200Y0124325D01*
X0017733Y0123858D01*
X0016332Y0122804D02*
X0016332Y0122337D01*
X0017266Y0121403D01*
X0018200Y0121403D02*
X0016332Y0121403D01*
X0015865Y0120325D02*
X0016799Y0120325D01*
X0017266Y0119857D01*
X0017266Y0118456D01*
X0018200Y0118456D02*
X0015398Y0118456D01*
X0015398Y0119857D01*
X0015865Y0120325D01*
X0012933Y0121403D02*
X0011065Y0121403D01*
X0010598Y0121870D01*
X0010598Y0122804D01*
X0011065Y0123271D01*
X0011065Y0120325D02*
X0010598Y0119857D01*
X0010598Y0118923D01*
X0011065Y0118456D01*
X0020198Y0118456D02*
X0023000Y0120325D01*
X0020198Y0120325D01*
X0020198Y0118456D02*
X0023000Y0118456D01*
X0024998Y0119390D02*
X0025932Y0120325D01*
X0027800Y0120325D01*
X0027333Y0121403D02*
X0025932Y0121403D01*
X0026399Y0120325D02*
X0026399Y0118456D01*
X0025932Y0118456D02*
X0027800Y0118456D01*
X0025932Y0118456D02*
X0024998Y0119390D01*
X0023000Y0121403D02*
X0022533Y0121403D01*
X0022533Y0121870D01*
X0023000Y0121870D01*
X0023000Y0121403D01*
X0025932Y0123271D02*
X0027800Y0123271D01*
X0027800Y0121870D01*
X0027333Y0121403D01*
X0027333Y0124349D02*
X0027800Y0124816D01*
X0027800Y0126218D01*
X0028267Y0126218D02*
X0025932Y0126218D01*
X0025932Y0124816D01*
X0026399Y0124349D01*
X0027333Y0124349D01*
X0028734Y0125283D02*
X0028734Y0125751D01*
X0028267Y0126218D01*
X0027800Y0127296D02*
X0027800Y0127763D01*
X0027333Y0127763D01*
X0027333Y0127296D01*
X0027800Y0127296D01*
X0022533Y0132698D02*
X0023000Y0133165D01*
X0023000Y0134566D01*
X0023000Y0135644D02*
X0020198Y0135644D01*
X0021132Y0136111D02*
X0021132Y0137046D01*
X0021599Y0137513D01*
X0023000Y0137513D01*
X0021599Y0135644D02*
X0021132Y0136111D01*
X0021132Y0134566D02*
X0021132Y0133165D01*
X0021599Y0132698D01*
X0022533Y0132698D01*
X0018200Y0133117D02*
X0018200Y0131716D01*
X0017266Y0132183D02*
X0016799Y0131716D01*
X0016332Y0132183D01*
X0016332Y0133584D01*
X0017266Y0133117D02*
X0017266Y0132183D01*
X0017266Y0133117D02*
X0017733Y0133584D01*
X0018200Y0133117D01*
X0018200Y0134662D02*
X0018200Y0135596D01*
X0018200Y0135129D02*
X0016332Y0135129D01*
X0016332Y0134662D01*
X0015398Y0135129D02*
X0014931Y0135129D01*
X0012933Y0136135D02*
X0011065Y0136135D01*
X0011065Y0133189D02*
X0012933Y0133189D01*
X0024998Y0140555D02*
X0024998Y0142423D01*
X0033950Y0144456D02*
X0035818Y0147259D01*
X0036897Y0146325D02*
X0037831Y0147259D01*
X0037831Y0144456D01*
X0036897Y0144456D02*
X0038765Y0144456D01*
X0035818Y0144456D02*
X0033950Y0147259D01*
X0050700Y0155173D02*
X0051167Y0154706D01*
X0052101Y0154706D01*
X0052568Y0155173D01*
X0053647Y0155173D02*
X0054114Y0154706D01*
X0055048Y0154706D01*
X0055515Y0155173D01*
X0055515Y0155640D01*
X0055048Y0156107D01*
X0054581Y0156107D01*
X0055048Y0156107D02*
X0055515Y0156575D01*
X0055515Y0157042D01*
X0055048Y0157509D01*
X0054114Y0157509D01*
X0053647Y0157042D01*
X0052568Y0157042D02*
X0052101Y0157509D01*
X0051167Y0157509D01*
X0050700Y0157042D01*
X0050700Y0155173D01*
X0053450Y0149759D02*
X0054851Y0149759D01*
X0055318Y0149292D01*
X0055318Y0148357D01*
X0054851Y0147890D01*
X0053450Y0147890D01*
X0053450Y0146956D02*
X0053450Y0149759D01*
X0054384Y0147890D02*
X0055318Y0146956D01*
X0056397Y0148357D02*
X0058265Y0148357D01*
X0057798Y0146956D02*
X0057798Y0149759D01*
X0056397Y0148357D01*
X0060450Y0147890D02*
X0061851Y0147890D01*
X0062318Y0148357D01*
X0062318Y0149292D01*
X0061851Y0149759D01*
X0060450Y0149759D01*
X0060450Y0146956D01*
X0061384Y0147890D02*
X0062318Y0146956D01*
X0063397Y0146956D02*
X0065265Y0148825D01*
X0065265Y0149292D01*
X0064798Y0149759D01*
X0063864Y0149759D01*
X0063397Y0149292D01*
X0063397Y0146956D02*
X0065265Y0146956D01*
X0065101Y0154706D02*
X0065568Y0155173D01*
X0065101Y0154706D02*
X0064167Y0154706D01*
X0063700Y0155173D01*
X0063700Y0157042D01*
X0064167Y0157509D01*
X0065101Y0157509D01*
X0065568Y0157042D01*
X0066647Y0157042D02*
X0067114Y0157509D01*
X0068048Y0157509D01*
X0068515Y0157042D01*
X0068515Y0156575D01*
X0066647Y0154706D01*
X0068515Y0154706D01*
X0062265Y0155173D02*
X0061798Y0154706D01*
X0060864Y0154706D01*
X0060397Y0155173D01*
X0059318Y0154706D02*
X0058384Y0155640D01*
X0058851Y0155640D02*
X0057450Y0155640D01*
X0057450Y0154706D02*
X0057450Y0157509D01*
X0058851Y0157509D01*
X0059318Y0157042D01*
X0059318Y0156107D01*
X0058851Y0155640D01*
X0060397Y0157042D02*
X0060864Y0157509D01*
X0061798Y0157509D01*
X0062265Y0157042D01*
X0062265Y0156575D01*
X0061798Y0156107D01*
X0062265Y0155640D01*
X0062265Y0155173D01*
X0061798Y0156107D02*
X0061331Y0156107D01*
X0061581Y0160956D02*
X0061581Y0163759D01*
X0060647Y0162825D01*
X0059568Y0163292D02*
X0059101Y0163759D01*
X0058167Y0163759D01*
X0057700Y0163292D01*
X0057700Y0161423D01*
X0058167Y0160956D01*
X0059101Y0160956D01*
X0059568Y0161423D01*
X0060647Y0160956D02*
X0062515Y0160956D01*
X0064965Y0166956D02*
X0066833Y0166956D01*
X0067300Y0167423D01*
X0067300Y0168357D01*
X0066833Y0168825D01*
X0067300Y0169903D02*
X0065432Y0171771D01*
X0064965Y0171771D01*
X0064498Y0171304D01*
X0064498Y0170370D01*
X0064965Y0169903D01*
X0064965Y0168825D02*
X0064498Y0168357D01*
X0064498Y0167423D01*
X0064965Y0166956D01*
X0067300Y0169903D02*
X0067300Y0171771D01*
X0066833Y0172849D02*
X0064965Y0174718D01*
X0066833Y0174718D01*
X0067300Y0174251D01*
X0067300Y0173316D01*
X0066833Y0172849D01*
X0064965Y0172849D01*
X0064498Y0173316D01*
X0064498Y0174251D01*
X0064965Y0174718D01*
X0068748Y0174968D02*
X0069215Y0174033D01*
X0070149Y0173099D01*
X0070149Y0174501D01*
X0070616Y0174968D01*
X0071083Y0174968D01*
X0071550Y0174501D01*
X0071550Y0173566D01*
X0071083Y0173099D01*
X0070149Y0173099D01*
X0070616Y0172021D02*
X0071083Y0172021D01*
X0071550Y0171554D01*
X0071550Y0170620D01*
X0071083Y0170153D01*
X0071550Y0169075D02*
X0070616Y0168140D01*
X0070616Y0168607D02*
X0070616Y0167206D01*
X0071550Y0167206D02*
X0068748Y0167206D01*
X0068748Y0168607D01*
X0069215Y0169075D01*
X0070149Y0169075D01*
X0070616Y0168607D01*
X0069215Y0170153D02*
X0068748Y0170620D01*
X0068748Y0171554D01*
X0069215Y0172021D01*
X0069682Y0172021D01*
X0070149Y0171554D01*
X0070616Y0172021D01*
X0070149Y0171554D02*
X0070149Y0171087D01*
X0069101Y0196456D02*
X0068167Y0196456D01*
X0067700Y0196923D01*
X0067700Y0198792D01*
X0068167Y0199259D01*
X0069101Y0199259D01*
X0069568Y0198792D01*
X0070647Y0197857D02*
X0072515Y0197857D01*
X0073593Y0198325D02*
X0074060Y0197857D01*
X0075461Y0197857D01*
X0075461Y0196923D02*
X0075461Y0198792D01*
X0074994Y0199259D01*
X0074060Y0199259D01*
X0073593Y0198792D01*
X0073593Y0198325D01*
X0073593Y0196923D02*
X0074060Y0196456D01*
X0074994Y0196456D01*
X0075461Y0196923D01*
X0072048Y0196456D02*
X0072048Y0199259D01*
X0070647Y0197857D01*
X0069568Y0196923D02*
X0069101Y0196456D01*
X0076167Y0206206D02*
X0077101Y0206206D01*
X0077568Y0206673D01*
X0078647Y0206206D02*
X0080515Y0208075D01*
X0080515Y0208542D01*
X0080048Y0209009D01*
X0079114Y0209009D01*
X0078647Y0208542D01*
X0077568Y0208542D02*
X0077101Y0209009D01*
X0076167Y0209009D01*
X0075700Y0208542D01*
X0075700Y0206673D01*
X0076167Y0206206D01*
X0078647Y0206206D02*
X0080515Y0206206D01*
X0081593Y0206206D02*
X0083461Y0206206D01*
X0082527Y0206206D02*
X0082527Y0209009D01*
X0081593Y0208075D01*
X0097200Y0202259D02*
X0098601Y0202259D01*
X0099068Y0201792D01*
X0099068Y0200857D01*
X0098601Y0200390D01*
X0097200Y0200390D01*
X0097200Y0199456D02*
X0097200Y0202259D01*
X0098134Y0200390D02*
X0099068Y0199456D01*
X0100147Y0199923D02*
X0100614Y0199456D01*
X0101548Y0199456D01*
X0102015Y0199923D01*
X0102015Y0200390D01*
X0101548Y0200857D01*
X0101081Y0200857D01*
X0101548Y0200857D02*
X0102015Y0201325D01*
X0102015Y0201792D01*
X0101548Y0202259D01*
X0100614Y0202259D01*
X0100147Y0201792D01*
X0103093Y0202259D02*
X0104961Y0202259D01*
X0104961Y0201792D01*
X0103093Y0199923D01*
X0103093Y0199456D01*
X0102331Y0194509D02*
X0101397Y0193575D01*
X0102331Y0194509D02*
X0102331Y0191706D01*
X0101397Y0191706D02*
X0103265Y0191706D01*
X0100318Y0192173D02*
X0100318Y0194509D01*
X0098450Y0194509D02*
X0098450Y0192173D01*
X0098917Y0191706D01*
X0099851Y0191706D01*
X0100318Y0192173D01*
X0106698Y0185411D02*
X0107165Y0185878D01*
X0107632Y0185878D01*
X0108099Y0185411D01*
X0108099Y0184477D01*
X0107632Y0184010D01*
X0107165Y0184010D01*
X0106698Y0184477D01*
X0106698Y0185411D01*
X0108099Y0185411D02*
X0108566Y0185878D01*
X0109033Y0185878D01*
X0109500Y0185411D01*
X0109500Y0184477D01*
X0109033Y0184010D01*
X0108566Y0184010D01*
X0108099Y0184477D01*
X0107632Y0182932D02*
X0107165Y0182932D01*
X0106698Y0182464D01*
X0106698Y0181530D01*
X0107165Y0181063D01*
X0107165Y0179985D02*
X0108099Y0179985D01*
X0108566Y0179518D01*
X0108566Y0178117D01*
X0108566Y0179051D02*
X0109500Y0179985D01*
X0109500Y0181063D02*
X0107632Y0182932D01*
X0109500Y0182932D02*
X0109500Y0181063D01*
X0107165Y0179985D02*
X0106698Y0179518D01*
X0106698Y0178117D01*
X0109500Y0178117D01*
X0109515Y0168009D02*
X0107647Y0168009D01*
X0107647Y0166607D01*
X0108581Y0167075D01*
X0109048Y0167075D01*
X0109515Y0166607D01*
X0109515Y0165673D01*
X0109048Y0165206D01*
X0108114Y0165206D01*
X0107647Y0165673D01*
X0106568Y0165673D02*
X0106101Y0165206D01*
X0105167Y0165206D01*
X0104700Y0165673D01*
X0104700Y0167542D01*
X0105167Y0168009D01*
X0106101Y0168009D01*
X0106568Y0167542D01*
X0110593Y0167542D02*
X0111060Y0168009D01*
X0111994Y0168009D01*
X0112461Y0167542D01*
X0112461Y0167075D01*
X0110593Y0165206D01*
X0112461Y0165206D01*
X0133950Y0147259D02*
X0135818Y0144456D01*
X0136897Y0144456D02*
X0138765Y0144456D01*
X0137831Y0144456D02*
X0137831Y0147259D01*
X0136897Y0146325D01*
X0135818Y0147259D02*
X0133950Y0144456D01*
X0139843Y0144923D02*
X0140310Y0144456D01*
X0141244Y0144456D01*
X0141711Y0144923D01*
X0141711Y0145390D01*
X0141244Y0145857D01*
X0140777Y0145857D01*
X0141244Y0145857D02*
X0141711Y0146325D01*
X0141711Y0146792D01*
X0141244Y0147259D01*
X0140310Y0147259D01*
X0139843Y0146792D01*
X0142667Y0154706D02*
X0143601Y0154706D01*
X0144068Y0155173D01*
X0145147Y0155173D02*
X0145614Y0154706D01*
X0146548Y0154706D01*
X0147015Y0155173D01*
X0147015Y0156107D01*
X0146548Y0156575D01*
X0146081Y0156575D01*
X0145147Y0156107D01*
X0145147Y0157509D01*
X0147015Y0157509D01*
X0148093Y0157042D02*
X0148093Y0156575D01*
X0148560Y0156107D01*
X0149961Y0156107D01*
X0149961Y0155173D02*
X0149961Y0157042D01*
X0149494Y0157509D01*
X0148560Y0157509D01*
X0148093Y0157042D01*
X0148093Y0155173D02*
X0148560Y0154706D01*
X0149494Y0154706D01*
X0149961Y0155173D01*
X0151450Y0154706D02*
X0151450Y0157509D01*
X0152851Y0157509D01*
X0153318Y0157042D01*
X0153318Y0156107D01*
X0152851Y0155640D01*
X0151450Y0155640D01*
X0152384Y0155640D02*
X0153318Y0154706D01*
X0154397Y0155173D02*
X0154864Y0154706D01*
X0155798Y0154706D01*
X0156265Y0155173D01*
X0156265Y0155640D01*
X0155798Y0156107D01*
X0155331Y0156107D01*
X0155798Y0156107D02*
X0156265Y0156575D01*
X0156265Y0157042D01*
X0155798Y0157509D01*
X0154864Y0157509D01*
X0154397Y0157042D01*
X0157343Y0157042D02*
X0157810Y0157509D01*
X0158744Y0157509D01*
X0159211Y0157042D01*
X0157343Y0155173D01*
X0157810Y0154706D01*
X0158744Y0154706D01*
X0159211Y0155173D01*
X0159211Y0157042D01*
X0160450Y0157042D02*
X0160450Y0155173D01*
X0160917Y0154706D01*
X0161851Y0154706D01*
X0162318Y0155173D01*
X0163397Y0155173D02*
X0163864Y0154706D01*
X0164798Y0154706D01*
X0165265Y0155173D01*
X0165265Y0156107D01*
X0164798Y0156575D01*
X0164331Y0156575D01*
X0163397Y0156107D01*
X0163397Y0157509D01*
X0165265Y0157509D01*
X0166343Y0157042D02*
X0166343Y0156575D01*
X0166810Y0156107D01*
X0167744Y0156107D01*
X0168211Y0155640D01*
X0168211Y0155173D01*
X0167744Y0154706D01*
X0166810Y0154706D01*
X0166343Y0155173D01*
X0166343Y0155640D01*
X0166810Y0156107D01*
X0167744Y0156107D02*
X0168211Y0156575D01*
X0168211Y0157042D01*
X0167744Y0157509D01*
X0166810Y0157509D01*
X0166343Y0157042D01*
X0162318Y0157042D02*
X0161851Y0157509D01*
X0160917Y0157509D01*
X0160450Y0157042D01*
X0157343Y0157042D02*
X0157343Y0155173D01*
X0158027Y0149759D02*
X0157093Y0148825D01*
X0156015Y0148825D02*
X0155548Y0148357D01*
X0156015Y0147890D01*
X0156015Y0147423D01*
X0155548Y0146956D01*
X0154614Y0146956D01*
X0154147Y0147423D01*
X0153068Y0146956D02*
X0152134Y0147890D01*
X0152601Y0147890D02*
X0151200Y0147890D01*
X0151200Y0146956D02*
X0151200Y0149759D01*
X0152601Y0149759D01*
X0153068Y0149292D01*
X0153068Y0148357D01*
X0152601Y0147890D01*
X0154147Y0149292D02*
X0154614Y0149759D01*
X0155548Y0149759D01*
X0156015Y0149292D01*
X0156015Y0148825D01*
X0155548Y0148357D02*
X0155081Y0148357D01*
X0157093Y0146956D02*
X0158961Y0146956D01*
X0158027Y0146956D02*
X0158027Y0149759D01*
X0160450Y0149759D02*
X0161851Y0149759D01*
X0162318Y0149292D01*
X0162318Y0148357D01*
X0161851Y0147890D01*
X0160450Y0147890D01*
X0160450Y0146956D02*
X0160450Y0149759D01*
X0161384Y0147890D02*
X0162318Y0146956D01*
X0163397Y0146956D02*
X0165265Y0148825D01*
X0165265Y0149292D01*
X0164798Y0149759D01*
X0163864Y0149759D01*
X0163397Y0149292D01*
X0163397Y0146956D02*
X0165265Y0146956D01*
X0166343Y0147423D02*
X0166810Y0146956D01*
X0167744Y0146956D01*
X0168211Y0147423D01*
X0168211Y0149292D01*
X0167744Y0149759D01*
X0166810Y0149759D01*
X0166343Y0149292D01*
X0166343Y0148825D01*
X0166810Y0148357D01*
X0168211Y0148357D01*
X0163593Y0160956D02*
X0163593Y0161423D01*
X0165461Y0163292D01*
X0165461Y0163759D01*
X0163593Y0163759D01*
X0162515Y0163759D02*
X0160647Y0163759D01*
X0160647Y0162357D01*
X0161581Y0162825D01*
X0162048Y0162825D01*
X0162515Y0162357D01*
X0162515Y0161423D01*
X0162048Y0160956D01*
X0161114Y0160956D01*
X0160647Y0161423D01*
X0159568Y0161423D02*
X0159101Y0160956D01*
X0158167Y0160956D01*
X0157700Y0161423D01*
X0157700Y0163292D01*
X0158167Y0163759D01*
X0159101Y0163759D01*
X0159568Y0163292D01*
X0164498Y0167423D02*
X0164498Y0168357D01*
X0164965Y0168825D01*
X0165899Y0169903D02*
X0165899Y0171304D01*
X0166366Y0171771D01*
X0166833Y0171771D01*
X0167300Y0171304D01*
X0167300Y0170370D01*
X0166833Y0169903D01*
X0165899Y0169903D01*
X0164965Y0170837D01*
X0164498Y0171771D01*
X0164965Y0172849D02*
X0164498Y0173316D01*
X0164498Y0174251D01*
X0164965Y0174718D01*
X0166833Y0172849D01*
X0167300Y0173316D01*
X0167300Y0174251D01*
X0166833Y0174718D01*
X0164965Y0174718D01*
X0164965Y0172849D02*
X0166833Y0172849D01*
X0168748Y0173566D02*
X0168748Y0174501D01*
X0169215Y0174968D01*
X0169682Y0174968D01*
X0170149Y0174501D01*
X0170616Y0174968D01*
X0171083Y0174968D01*
X0171550Y0174501D01*
X0171550Y0173566D01*
X0171083Y0173099D01*
X0171083Y0172021D02*
X0171550Y0171554D01*
X0171550Y0170620D01*
X0171083Y0170153D01*
X0171550Y0169075D02*
X0170616Y0168140D01*
X0170616Y0168607D02*
X0170616Y0167206D01*
X0171550Y0167206D02*
X0168748Y0167206D01*
X0168748Y0168607D01*
X0169215Y0169075D01*
X0170149Y0169075D01*
X0170616Y0168607D01*
X0169215Y0170153D02*
X0168748Y0170620D01*
X0168748Y0171554D01*
X0169215Y0172021D01*
X0169682Y0172021D01*
X0170149Y0171554D01*
X0170616Y0172021D01*
X0171083Y0172021D01*
X0170149Y0171554D02*
X0170149Y0171087D01*
X0169215Y0173099D02*
X0168748Y0173566D01*
X0170149Y0174033D02*
X0170149Y0174501D01*
X0166833Y0168825D02*
X0167300Y0168357D01*
X0167300Y0167423D01*
X0166833Y0166956D01*
X0164965Y0166956D01*
X0164498Y0167423D01*
X0144068Y0157042D02*
X0143601Y0157509D01*
X0142667Y0157509D01*
X0142200Y0157042D01*
X0142200Y0155173D01*
X0142667Y0154706D01*
X0142961Y0177456D02*
X0141093Y0177456D01*
X0142027Y0177456D02*
X0142027Y0180259D01*
X0141093Y0179325D01*
X0140015Y0179792D02*
X0140015Y0178857D01*
X0139548Y0178390D01*
X0138147Y0178390D01*
X0138147Y0177456D02*
X0138147Y0180259D01*
X0139548Y0180259D01*
X0140015Y0179792D01*
X0137068Y0180259D02*
X0135200Y0180259D01*
X0136134Y0180259D02*
X0136134Y0177456D01*
X0127601Y0191022D02*
X0128068Y0191489D01*
X0128068Y0193825D01*
X0126667Y0193825D01*
X0126200Y0193357D01*
X0126200Y0192423D01*
X0126667Y0191956D01*
X0128068Y0191956D01*
X0127601Y0191022D02*
X0127134Y0191022D01*
X0129147Y0191956D02*
X0129147Y0193825D01*
X0130548Y0193825D01*
X0131015Y0193357D01*
X0131015Y0191956D01*
X0132093Y0192423D02*
X0132093Y0193357D01*
X0132560Y0193825D01*
X0133961Y0193825D01*
X0133961Y0194759D02*
X0133961Y0191956D01*
X0132560Y0191956D01*
X0132093Y0192423D01*
X0110461Y0208706D02*
X0108593Y0208706D01*
X0109527Y0208706D02*
X0109527Y0211509D01*
X0108593Y0210575D01*
X0107515Y0210107D02*
X0107515Y0209173D01*
X0107048Y0208706D01*
X0106114Y0208706D01*
X0105647Y0209173D01*
X0105647Y0210107D02*
X0106581Y0210575D01*
X0107048Y0210575D01*
X0107515Y0210107D01*
X0107515Y0211509D02*
X0105647Y0211509D01*
X0105647Y0210107D01*
X0104568Y0209173D02*
X0104101Y0208706D01*
X0103167Y0208706D01*
X0102700Y0209173D01*
X0102700Y0211042D01*
X0103167Y0211509D01*
X0104101Y0211509D01*
X0104568Y0211042D01*
X0103601Y0224456D02*
X0104068Y0224923D01*
X0103601Y0224456D02*
X0102667Y0224456D01*
X0102200Y0224923D01*
X0102200Y0226792D01*
X0102667Y0227259D01*
X0103601Y0227259D01*
X0104068Y0226792D01*
X0105147Y0225857D02*
X0107015Y0225857D01*
X0106548Y0224456D02*
X0106548Y0227259D01*
X0105147Y0225857D01*
X0098048Y0243206D02*
X0098515Y0243673D01*
X0098515Y0245542D01*
X0098048Y0246009D01*
X0097114Y0246009D01*
X0096647Y0245542D01*
X0096647Y0245075D01*
X0097114Y0244607D01*
X0098515Y0244607D01*
X0098048Y0243206D02*
X0097114Y0243206D01*
X0096647Y0243673D01*
X0095568Y0243206D02*
X0094634Y0244140D01*
X0095101Y0244140D02*
X0093700Y0244140D01*
X0093700Y0243206D02*
X0093700Y0246009D01*
X0095101Y0246009D01*
X0095568Y0245542D01*
X0095568Y0244607D01*
X0095101Y0244140D01*
X0074265Y0249673D02*
X0073798Y0249206D01*
X0072864Y0249206D01*
X0072397Y0249673D01*
X0071318Y0249673D02*
X0070851Y0249206D01*
X0069917Y0249206D01*
X0069450Y0249673D01*
X0069450Y0252009D01*
X0071318Y0252009D02*
X0071318Y0249673D01*
X0072397Y0251542D02*
X0072864Y0252009D01*
X0073798Y0252009D01*
X0074265Y0251542D01*
X0074265Y0251075D01*
X0073798Y0250607D01*
X0074265Y0250140D01*
X0074265Y0249673D01*
X0073798Y0250607D02*
X0073331Y0250607D01*
X0071244Y0243009D02*
X0071711Y0242542D01*
X0069843Y0240673D01*
X0070310Y0240206D01*
X0071244Y0240206D01*
X0071711Y0240673D01*
X0071711Y0242542D01*
X0071244Y0243009D02*
X0070310Y0243009D01*
X0069843Y0242542D01*
X0069843Y0240673D01*
X0068765Y0240673D02*
X0068298Y0240206D01*
X0067364Y0240206D01*
X0066897Y0240673D01*
X0066897Y0241607D02*
X0067831Y0242075D01*
X0068298Y0242075D01*
X0068765Y0241607D01*
X0068765Y0240673D01*
X0066897Y0241607D02*
X0066897Y0243009D01*
X0068765Y0243009D01*
X0065818Y0242542D02*
X0065351Y0243009D01*
X0064417Y0243009D01*
X0063950Y0242542D01*
X0063950Y0240673D01*
X0064417Y0240206D01*
X0065351Y0240206D01*
X0065818Y0240673D01*
X0064833Y0248706D02*
X0065300Y0249173D01*
X0065300Y0250107D01*
X0064833Y0250575D01*
X0064833Y0251653D02*
X0065300Y0252120D01*
X0065300Y0253054D01*
X0064833Y0253521D01*
X0063899Y0253521D01*
X0063432Y0253054D01*
X0063432Y0252587D01*
X0063899Y0251653D01*
X0062498Y0251653D01*
X0062498Y0253521D01*
X0062498Y0254599D02*
X0063899Y0254599D01*
X0063432Y0255533D01*
X0063432Y0256001D01*
X0063899Y0256468D01*
X0064833Y0256468D01*
X0065300Y0256001D01*
X0065300Y0255066D01*
X0064833Y0254599D01*
X0062498Y0254599D02*
X0062498Y0256468D01*
X0062965Y0250575D02*
X0062498Y0250107D01*
X0062498Y0249173D01*
X0062965Y0248706D01*
X0064833Y0248706D01*
X0058515Y0250673D02*
X0058048Y0250206D01*
X0057114Y0250206D01*
X0056647Y0250673D01*
X0056647Y0251607D02*
X0057581Y0252075D01*
X0058048Y0252075D01*
X0058515Y0251607D01*
X0058515Y0250673D01*
X0056647Y0251607D02*
X0056647Y0253009D01*
X0058515Y0253009D01*
X0055568Y0252542D02*
X0055101Y0253009D01*
X0054167Y0253009D01*
X0053700Y0252542D01*
X0053700Y0250673D01*
X0054167Y0250206D01*
X0055101Y0250206D01*
X0055568Y0250673D01*
X0043765Y0246357D02*
X0041897Y0246357D01*
X0043298Y0247759D01*
X0043298Y0244956D01*
X0040818Y0245423D02*
X0040818Y0247759D01*
X0038950Y0247759D02*
X0038950Y0245423D01*
X0039417Y0244956D01*
X0040351Y0244956D01*
X0040818Y0245423D01*
X0041560Y0231759D02*
X0041093Y0231292D01*
X0041560Y0231759D02*
X0042494Y0231759D01*
X0042961Y0231292D01*
X0042961Y0230825D01*
X0041093Y0228956D01*
X0042961Y0228956D01*
X0040015Y0230357D02*
X0039548Y0229890D01*
X0038147Y0229890D01*
X0038147Y0228956D02*
X0038147Y0231759D01*
X0039548Y0231759D01*
X0040015Y0231292D01*
X0040015Y0230357D01*
X0037068Y0231759D02*
X0035200Y0231759D01*
X0036134Y0231759D02*
X0036134Y0228956D01*
X0028050Y0251956D02*
X0025248Y0251956D01*
X0025248Y0253357D01*
X0025715Y0253825D01*
X0026649Y0253825D01*
X0027116Y0253357D01*
X0027116Y0251956D01*
X0027116Y0252890D02*
X0028050Y0253825D01*
X0028050Y0254903D02*
X0028050Y0256771D01*
X0028050Y0255837D02*
X0025248Y0255837D01*
X0026182Y0254903D01*
X0016300Y0260956D02*
X0013498Y0260956D01*
X0013498Y0262357D01*
X0013965Y0262825D01*
X0014899Y0262825D01*
X0015366Y0262357D01*
X0015366Y0260956D01*
X0015366Y0261890D02*
X0016300Y0262825D01*
X0015833Y0263903D02*
X0016300Y0264370D01*
X0016300Y0265304D01*
X0015833Y0265771D01*
X0014899Y0265771D01*
X0014432Y0265304D01*
X0014432Y0264837D01*
X0014899Y0263903D01*
X0013498Y0263903D01*
X0013498Y0265771D01*
X0019667Y0277956D02*
X0020601Y0277956D01*
X0021068Y0278423D01*
X0022147Y0278423D02*
X0022614Y0277956D01*
X0023548Y0277956D01*
X0024015Y0278423D01*
X0024015Y0278890D01*
X0023548Y0279357D01*
X0022147Y0279357D01*
X0022147Y0278423D01*
X0022147Y0279357D02*
X0023081Y0280292D01*
X0024015Y0280759D01*
X0021068Y0280292D02*
X0020601Y0280759D01*
X0019667Y0280759D01*
X0019200Y0280292D01*
X0019200Y0278423D01*
X0019667Y0277956D01*
X0014622Y0291806D02*
X0012753Y0291806D01*
X0013688Y0291806D02*
X0013688Y0294609D01*
X0012753Y0293675D01*
X0011675Y0294142D02*
X0011675Y0292273D01*
X0011208Y0291806D01*
X0010274Y0291806D01*
X0009807Y0292273D01*
X0009807Y0294142D01*
X0010274Y0294609D01*
X0011208Y0294609D01*
X0011675Y0294142D01*
X0010741Y0292740D02*
X0011675Y0291806D01*
X0015700Y0330956D02*
X0018102Y0334559D01*
X0019383Y0332758D02*
X0021185Y0332758D01*
X0021785Y0332157D01*
X0021785Y0331557D01*
X0021185Y0330956D01*
X0019984Y0330956D01*
X0019383Y0331557D01*
X0019383Y0332758D01*
X0020584Y0333959D01*
X0021785Y0334559D01*
X0018102Y0330956D02*
X0015700Y0334559D01*
X0040950Y0364206D02*
X0041884Y0364206D01*
X0041417Y0364206D02*
X0041417Y0367009D01*
X0040950Y0367009D02*
X0041884Y0367009D01*
X0042914Y0365607D02*
X0042914Y0364673D01*
X0043381Y0364206D01*
X0044316Y0364206D01*
X0044783Y0364673D01*
X0044783Y0365607D01*
X0044316Y0366075D01*
X0043381Y0366075D01*
X0042914Y0365607D01*
X0045861Y0366075D02*
X0045861Y0364673D01*
X0046328Y0364206D01*
X0047729Y0364206D01*
X0047729Y0366075D01*
X0048807Y0366075D02*
X0049742Y0366075D01*
X0049274Y0366542D02*
X0049274Y0364673D01*
X0049742Y0364206D01*
X0059200Y0378456D02*
X0061068Y0381259D01*
X0062147Y0380792D02*
X0062614Y0381259D01*
X0063548Y0381259D01*
X0064015Y0380792D01*
X0064015Y0380325D01*
X0062147Y0378456D01*
X0064015Y0378456D01*
X0061068Y0378456D02*
X0059200Y0381259D01*
X0073917Y0366075D02*
X0073450Y0365607D01*
X0073450Y0364673D01*
X0073917Y0364206D01*
X0075318Y0364206D01*
X0075318Y0363739D02*
X0075318Y0366075D01*
X0073917Y0366075D01*
X0076397Y0366075D02*
X0077798Y0366075D01*
X0078265Y0365607D01*
X0078265Y0364206D01*
X0079343Y0364673D02*
X0079343Y0365607D01*
X0079810Y0366075D01*
X0081211Y0366075D01*
X0081211Y0367009D02*
X0081211Y0364206D01*
X0079810Y0364206D01*
X0079343Y0364673D01*
X0076397Y0364206D02*
X0076397Y0366075D01*
X0075318Y0363739D02*
X0074851Y0363272D01*
X0074384Y0363272D01*
X0088200Y0363559D02*
X0090602Y0359956D01*
X0091883Y0360557D02*
X0092484Y0359956D01*
X0093685Y0359956D01*
X0094285Y0360557D01*
X0094285Y0361758D01*
X0093685Y0362358D01*
X0093084Y0362358D01*
X0091883Y0361758D01*
X0091883Y0363559D01*
X0094285Y0363559D01*
X0090602Y0363559D02*
X0088200Y0359956D01*
X0093417Y0345259D02*
X0092950Y0344792D01*
X0092950Y0342923D01*
X0093417Y0342456D01*
X0094351Y0342456D01*
X0094818Y0342923D01*
X0095897Y0342923D02*
X0097765Y0344792D01*
X0097765Y0345259D01*
X0095897Y0345259D01*
X0094818Y0344792D02*
X0094351Y0345259D01*
X0093417Y0345259D01*
X0095897Y0342923D02*
X0095897Y0342456D01*
X0096364Y0337759D02*
X0097298Y0337759D01*
X0097765Y0337292D01*
X0097765Y0336825D01*
X0097298Y0336357D01*
X0096364Y0336357D01*
X0095897Y0336825D01*
X0095897Y0337292D01*
X0096364Y0337759D01*
X0096364Y0336357D02*
X0095897Y0335890D01*
X0095897Y0335423D01*
X0096364Y0334956D01*
X0097298Y0334956D01*
X0097765Y0335423D01*
X0097765Y0335890D01*
X0097298Y0336357D01*
X0094818Y0335423D02*
X0094351Y0334956D01*
X0093417Y0334956D01*
X0092950Y0335423D01*
X0092950Y0337292D01*
X0093417Y0337759D01*
X0094351Y0337759D01*
X0094818Y0337292D01*
X0094548Y0333759D02*
X0093147Y0332357D01*
X0095015Y0332357D01*
X0094548Y0330956D02*
X0094548Y0333759D01*
X0092068Y0333759D02*
X0090200Y0330956D01*
X0092068Y0330956D02*
X0090200Y0333759D01*
X0073934Y0342110D02*
X0073467Y0341643D01*
X0072533Y0341643D01*
X0072066Y0342110D01*
X0070988Y0342110D02*
X0070988Y0343979D01*
X0070520Y0344446D01*
X0069119Y0344446D01*
X0069119Y0341643D01*
X0070520Y0341643D01*
X0070988Y0342110D01*
X0072066Y0343979D02*
X0072533Y0344446D01*
X0073467Y0344446D01*
X0073934Y0343979D01*
X0073934Y0343512D01*
X0073467Y0343045D01*
X0073934Y0342577D01*
X0073934Y0342110D01*
X0073467Y0343045D02*
X0073000Y0343045D01*
X0070265Y0318509D02*
X0069331Y0318042D01*
X0068397Y0317107D01*
X0069798Y0317107D01*
X0070265Y0316640D01*
X0070265Y0316173D01*
X0069798Y0315706D01*
X0068864Y0315706D01*
X0068397Y0316173D01*
X0068397Y0317107D01*
X0067318Y0317107D02*
X0066851Y0316640D01*
X0065450Y0316640D01*
X0065450Y0315706D02*
X0065450Y0318509D01*
X0066851Y0318509D01*
X0067318Y0318042D01*
X0067318Y0317107D01*
X0066384Y0316640D02*
X0067318Y0315706D01*
X0055015Y0316673D02*
X0055015Y0318542D01*
X0054548Y0319009D01*
X0053614Y0319009D01*
X0053147Y0318542D01*
X0053147Y0316673D01*
X0053614Y0316206D01*
X0054548Y0316206D01*
X0055015Y0316673D01*
X0052068Y0316206D02*
X0051134Y0317140D01*
X0051601Y0317140D02*
X0050200Y0317140D01*
X0050200Y0316206D02*
X0050200Y0319009D01*
X0051601Y0319009D01*
X0052068Y0318542D01*
X0052068Y0317607D01*
X0051601Y0317140D01*
X0051434Y0341643D02*
X0049566Y0341643D01*
X0050500Y0341643D02*
X0050500Y0344446D01*
X0049566Y0343512D01*
X0048488Y0343979D02*
X0048488Y0342110D01*
X0048020Y0341643D01*
X0046619Y0341643D01*
X0046619Y0344446D01*
X0048020Y0344446D01*
X0048488Y0343979D01*
X0059884Y0283759D02*
X0060818Y0283759D01*
X0060351Y0283759D02*
X0060351Y0281423D01*
X0059884Y0280956D01*
X0059417Y0280956D01*
X0058950Y0281423D01*
X0061897Y0280956D02*
X0063765Y0280956D01*
X0062831Y0280956D02*
X0062831Y0283759D01*
X0061897Y0282825D01*
X0068998Y0278001D02*
X0069465Y0278468D01*
X0069932Y0278468D01*
X0070399Y0278001D01*
X0070866Y0278468D01*
X0071333Y0278468D01*
X0071800Y0278001D01*
X0071800Y0277066D01*
X0071333Y0276599D01*
X0071333Y0275521D02*
X0071800Y0275054D01*
X0071800Y0274120D01*
X0071333Y0273653D01*
X0070399Y0273653D02*
X0069932Y0274587D01*
X0069932Y0275054D01*
X0070399Y0275521D01*
X0071333Y0275521D01*
X0070399Y0273653D02*
X0068998Y0273653D01*
X0068998Y0275521D01*
X0069465Y0276599D02*
X0068998Y0277066D01*
X0068998Y0278001D01*
X0070399Y0278001D02*
X0070399Y0277533D01*
X0071333Y0272575D02*
X0071800Y0272107D01*
X0071800Y0271173D01*
X0071333Y0270706D01*
X0069465Y0270706D01*
X0068998Y0271173D01*
X0068998Y0272107D01*
X0069465Y0272575D01*
X0096248Y0275173D02*
X0096715Y0274706D01*
X0098583Y0274706D01*
X0099050Y0275173D01*
X0099050Y0276107D01*
X0098583Y0276575D01*
X0098583Y0277653D02*
X0099050Y0278120D01*
X0099050Y0279054D01*
X0098583Y0279521D01*
X0097649Y0279521D01*
X0097182Y0279054D01*
X0097182Y0278587D01*
X0097649Y0277653D01*
X0096248Y0277653D01*
X0096248Y0279521D01*
X0097649Y0280599D02*
X0097649Y0282468D01*
X0099050Y0282001D02*
X0096248Y0282001D01*
X0097649Y0280599D01*
X0096715Y0276575D02*
X0096248Y0276107D01*
X0096248Y0275173D01*
X0102498Y0275521D02*
X0102498Y0273653D01*
X0103899Y0273653D01*
X0103432Y0274587D01*
X0103432Y0275054D01*
X0103899Y0275521D01*
X0104833Y0275521D01*
X0105300Y0275054D01*
X0105300Y0274120D01*
X0104833Y0273653D01*
X0104833Y0272575D02*
X0105300Y0272107D01*
X0105300Y0271173D01*
X0104833Y0270706D01*
X0102965Y0270706D01*
X0102498Y0271173D01*
X0102498Y0272107D01*
X0102965Y0272575D01*
X0103899Y0276599D02*
X0103899Y0278001D01*
X0104366Y0278468D01*
X0104833Y0278468D01*
X0105300Y0278001D01*
X0105300Y0277066D01*
X0104833Y0276599D01*
X0103899Y0276599D01*
X0102965Y0277533D01*
X0102498Y0278468D01*
X0102417Y0280156D02*
X0101950Y0280623D01*
X0101950Y0282492D01*
X0102417Y0282959D01*
X0103351Y0282959D01*
X0103818Y0282492D01*
X0103818Y0280623D01*
X0103351Y0280156D01*
X0102417Y0280156D01*
X0102884Y0281090D02*
X0103818Y0280156D01*
X0104897Y0280156D02*
X0106765Y0282025D01*
X0106765Y0282492D01*
X0106298Y0282959D01*
X0105364Y0282959D01*
X0104897Y0282492D01*
X0104897Y0280156D02*
X0106765Y0280156D01*
X0113450Y0280373D02*
X0113917Y0279906D01*
X0114851Y0279906D01*
X0115318Y0280373D01*
X0115318Y0282242D01*
X0114851Y0282709D01*
X0113917Y0282709D01*
X0113450Y0282242D01*
X0113450Y0280373D01*
X0114384Y0280840D02*
X0115318Y0279906D01*
X0116397Y0279906D02*
X0116397Y0280373D01*
X0118265Y0282242D01*
X0118265Y0282709D01*
X0116397Y0282709D01*
X0119200Y0280292D02*
X0119200Y0278423D01*
X0119667Y0277956D01*
X0120601Y0277956D01*
X0121068Y0278423D01*
X0122147Y0278423D02*
X0122614Y0277956D01*
X0123548Y0277956D01*
X0124015Y0278423D01*
X0124015Y0278890D01*
X0123548Y0279357D01*
X0122147Y0279357D01*
X0122147Y0278423D01*
X0122147Y0279357D02*
X0123081Y0280292D01*
X0124015Y0280759D01*
X0125093Y0279357D02*
X0126961Y0279357D01*
X0126494Y0277956D02*
X0126494Y0280759D01*
X0125093Y0279357D01*
X0121068Y0280292D02*
X0120601Y0280759D01*
X0119667Y0280759D01*
X0119200Y0280292D01*
X0115833Y0267718D02*
X0113965Y0267718D01*
X0113498Y0267251D01*
X0113498Y0266316D01*
X0113965Y0265849D01*
X0114432Y0265849D01*
X0114899Y0266316D01*
X0114899Y0267718D01*
X0115833Y0267718D02*
X0116300Y0267251D01*
X0116300Y0266316D01*
X0115833Y0265849D01*
X0115833Y0264771D02*
X0116300Y0264304D01*
X0116300Y0263370D01*
X0115833Y0262903D01*
X0116300Y0261825D02*
X0115366Y0260890D01*
X0115366Y0261357D02*
X0115366Y0259956D01*
X0116300Y0259956D02*
X0113498Y0259956D01*
X0113498Y0261357D01*
X0113965Y0261825D01*
X0114899Y0261825D01*
X0115366Y0261357D01*
X0113965Y0262903D02*
X0113498Y0263370D01*
X0113498Y0264304D01*
X0113965Y0264771D01*
X0114432Y0264771D01*
X0114899Y0264304D01*
X0115366Y0264771D01*
X0115833Y0264771D01*
X0114899Y0264304D02*
X0114899Y0263837D01*
X0124998Y0256001D02*
X0125465Y0256468D01*
X0125932Y0256468D01*
X0126399Y0256001D01*
X0126399Y0255066D01*
X0125932Y0254599D01*
X0125465Y0254599D01*
X0124998Y0255066D01*
X0124998Y0256001D01*
X0126399Y0256001D02*
X0126866Y0256468D01*
X0127333Y0256468D01*
X0127800Y0256001D01*
X0127800Y0255066D01*
X0127333Y0254599D01*
X0126866Y0254599D01*
X0126399Y0255066D01*
X0126866Y0253521D02*
X0127333Y0253521D01*
X0127800Y0253054D01*
X0127800Y0252120D01*
X0127333Y0251653D01*
X0127800Y0250575D02*
X0126866Y0249640D01*
X0126866Y0250107D02*
X0126866Y0248706D01*
X0127800Y0248706D02*
X0124998Y0248706D01*
X0124998Y0250107D01*
X0125465Y0250575D01*
X0126399Y0250575D01*
X0126866Y0250107D01*
X0125465Y0251653D02*
X0124998Y0252120D01*
X0124998Y0253054D01*
X0125465Y0253521D01*
X0125932Y0253521D01*
X0126399Y0253054D01*
X0126866Y0253521D01*
X0126399Y0253054D02*
X0126399Y0252587D01*
X0136950Y0247509D02*
X0136950Y0245173D01*
X0137417Y0244706D01*
X0138351Y0244706D01*
X0138818Y0245173D01*
X0138818Y0247509D01*
X0139897Y0246575D02*
X0140831Y0247509D01*
X0140831Y0244706D01*
X0139897Y0244706D02*
X0141765Y0244706D01*
X0142843Y0245173D02*
X0143310Y0244706D01*
X0144244Y0244706D01*
X0144711Y0245173D01*
X0144711Y0245640D01*
X0144244Y0246107D01*
X0142843Y0246107D01*
X0142843Y0245173D01*
X0142843Y0246107D02*
X0143777Y0247042D01*
X0144711Y0247509D01*
X0154748Y0247107D02*
X0154748Y0246173D01*
X0155215Y0245706D01*
X0157083Y0245706D01*
X0157550Y0246173D01*
X0157550Y0247107D01*
X0157083Y0247575D01*
X0157083Y0248653D02*
X0157550Y0249120D01*
X0157550Y0250054D01*
X0157083Y0250521D01*
X0156616Y0250521D01*
X0156149Y0250054D01*
X0156149Y0248653D01*
X0157083Y0248653D01*
X0156149Y0248653D02*
X0155215Y0249587D01*
X0154748Y0250521D01*
X0155215Y0251599D02*
X0154748Y0252066D01*
X0154748Y0253001D01*
X0155215Y0253468D01*
X0155682Y0253468D01*
X0156149Y0253001D01*
X0156616Y0253468D01*
X0157083Y0253468D01*
X0157550Y0253001D01*
X0157550Y0252066D01*
X0157083Y0251599D01*
X0156149Y0252533D02*
X0156149Y0253001D01*
X0155215Y0247575D02*
X0154748Y0247107D01*
X0162498Y0249173D02*
X0162965Y0248706D01*
X0164833Y0248706D01*
X0165300Y0249173D01*
X0165300Y0250107D01*
X0164833Y0250575D01*
X0163899Y0251653D02*
X0163899Y0253521D01*
X0164833Y0254599D02*
X0162965Y0256468D01*
X0162498Y0256468D01*
X0162498Y0254599D01*
X0162498Y0253054D02*
X0163899Y0251653D01*
X0162965Y0250575D02*
X0162498Y0250107D01*
X0162498Y0249173D01*
X0162498Y0253054D02*
X0165300Y0253054D01*
X0165300Y0254599D02*
X0164833Y0254599D01*
X0169450Y0252009D02*
X0169450Y0249673D01*
X0169917Y0249206D01*
X0170851Y0249206D01*
X0171318Y0249673D01*
X0171318Y0252009D01*
X0172397Y0251075D02*
X0173331Y0252009D01*
X0173331Y0249206D01*
X0172397Y0249206D02*
X0174265Y0249206D01*
X0175343Y0249673D02*
X0175810Y0249206D01*
X0176744Y0249206D01*
X0177211Y0249673D01*
X0177211Y0250140D01*
X0176744Y0250607D01*
X0176277Y0250607D01*
X0176744Y0250607D02*
X0177211Y0251075D01*
X0177211Y0251542D01*
X0176744Y0252009D01*
X0175810Y0252009D01*
X0175343Y0251542D01*
X0171244Y0243009D02*
X0170310Y0243009D01*
X0169843Y0242542D01*
X0168765Y0241607D02*
X0166897Y0241607D01*
X0168298Y0243009D01*
X0168298Y0240206D01*
X0169843Y0240206D02*
X0171711Y0242075D01*
X0171711Y0242542D01*
X0171244Y0243009D01*
X0171711Y0240206D02*
X0169843Y0240206D01*
X0165818Y0240673D02*
X0165351Y0240206D01*
X0164417Y0240206D01*
X0163950Y0240673D01*
X0163950Y0242542D01*
X0164417Y0243009D01*
X0165351Y0243009D01*
X0165818Y0242542D01*
X0168450Y0230509D02*
X0168450Y0228173D01*
X0168917Y0227706D01*
X0169851Y0227706D01*
X0170318Y0228173D01*
X0170318Y0230509D01*
X0171397Y0229575D02*
X0172331Y0230509D01*
X0172331Y0227706D01*
X0171397Y0227706D02*
X0173265Y0227706D01*
X0174343Y0228173D02*
X0174810Y0227706D01*
X0175744Y0227706D01*
X0176211Y0228173D01*
X0176211Y0229107D01*
X0175744Y0229575D01*
X0175277Y0229575D01*
X0174343Y0229107D01*
X0174343Y0230509D01*
X0176211Y0230509D01*
X0176167Y0209259D02*
X0175700Y0208792D01*
X0175700Y0206923D01*
X0176167Y0206456D01*
X0177101Y0206456D01*
X0177568Y0206923D01*
X0178647Y0206923D02*
X0179114Y0206456D01*
X0180048Y0206456D01*
X0180515Y0206923D01*
X0180515Y0207390D01*
X0180048Y0207857D01*
X0178647Y0207857D01*
X0178647Y0206923D01*
X0178647Y0207857D02*
X0179581Y0208792D01*
X0180515Y0209259D01*
X0181593Y0208325D02*
X0182527Y0209259D01*
X0182527Y0206456D01*
X0181593Y0206456D02*
X0183461Y0206456D01*
X0177568Y0208792D02*
X0177101Y0209259D01*
X0176167Y0209259D01*
X0174527Y0199259D02*
X0174527Y0196456D01*
X0173593Y0196456D02*
X0175461Y0196456D01*
X0173593Y0198325D02*
X0174527Y0199259D01*
X0172515Y0197857D02*
X0170647Y0197857D01*
X0172048Y0199259D01*
X0172048Y0196456D01*
X0169568Y0196923D02*
X0169101Y0196456D01*
X0168167Y0196456D01*
X0167700Y0196923D01*
X0167700Y0198792D01*
X0168167Y0199259D01*
X0169101Y0199259D01*
X0169568Y0198792D01*
X0142494Y0228956D02*
X0141560Y0228956D01*
X0141093Y0229423D01*
X0141093Y0229890D01*
X0141560Y0230357D01*
X0142494Y0230357D01*
X0142961Y0229890D01*
X0142961Y0229423D01*
X0142494Y0228956D01*
X0142494Y0230357D02*
X0142961Y0230825D01*
X0142961Y0231292D01*
X0142494Y0231759D01*
X0141560Y0231759D01*
X0141093Y0231292D01*
X0141093Y0230825D01*
X0141560Y0230357D01*
X0140015Y0230357D02*
X0139548Y0229890D01*
X0138147Y0229890D01*
X0138147Y0228956D02*
X0138147Y0231759D01*
X0139548Y0231759D01*
X0140015Y0231292D01*
X0140015Y0230357D01*
X0137068Y0231759D02*
X0135200Y0231759D01*
X0136134Y0231759D02*
X0136134Y0228956D01*
X0169465Y0270706D02*
X0171333Y0270706D01*
X0171800Y0271173D01*
X0171800Y0272107D01*
X0171333Y0272575D01*
X0170399Y0273653D02*
X0170399Y0275521D01*
X0170399Y0276599D02*
X0169932Y0277533D01*
X0169932Y0278001D01*
X0170399Y0278468D01*
X0171333Y0278468D01*
X0171800Y0278001D01*
X0171800Y0277066D01*
X0171333Y0276599D01*
X0170399Y0276599D02*
X0168998Y0276599D01*
X0168998Y0278468D01*
X0168998Y0275054D02*
X0170399Y0273653D01*
X0169465Y0272575D02*
X0168998Y0272107D01*
X0168998Y0271173D01*
X0169465Y0270706D01*
X0168998Y0275054D02*
X0171800Y0275054D01*
X0163298Y0280956D02*
X0163298Y0283759D01*
X0161897Y0282357D01*
X0163765Y0282357D01*
X0160818Y0283759D02*
X0159884Y0283759D01*
X0160351Y0283759D02*
X0160351Y0281423D01*
X0159884Y0280956D01*
X0159417Y0280956D01*
X0158950Y0281423D01*
X0165450Y0315706D02*
X0165450Y0318509D01*
X0166851Y0318509D01*
X0167318Y0318042D01*
X0167318Y0317107D01*
X0166851Y0316640D01*
X0165450Y0316640D01*
X0166384Y0316640D02*
X0167318Y0315706D01*
X0168397Y0317107D02*
X0170265Y0317107D01*
X0171343Y0316173D02*
X0171810Y0315706D01*
X0172744Y0315706D01*
X0173211Y0316173D01*
X0173211Y0318042D01*
X0171343Y0316173D01*
X0171343Y0318042D01*
X0171810Y0318509D01*
X0172744Y0318509D01*
X0173211Y0318042D01*
X0169798Y0318509D02*
X0169798Y0315706D01*
X0168397Y0317107D02*
X0169798Y0318509D01*
X0157961Y0318542D02*
X0157961Y0318075D01*
X0157494Y0317607D01*
X0157961Y0317140D01*
X0157961Y0316673D01*
X0157494Y0316206D01*
X0156560Y0316206D01*
X0156093Y0316673D01*
X0155015Y0316673D02*
X0155015Y0318542D01*
X0154548Y0319009D01*
X0153614Y0319009D01*
X0153147Y0318542D01*
X0153147Y0316673D01*
X0153614Y0316206D01*
X0154548Y0316206D01*
X0155015Y0316673D01*
X0156093Y0318542D02*
X0156560Y0319009D01*
X0157494Y0319009D01*
X0157961Y0318542D01*
X0157494Y0317607D02*
X0157027Y0317607D01*
X0152068Y0317607D02*
X0151601Y0317140D01*
X0150200Y0317140D01*
X0150200Y0316206D02*
X0150200Y0319009D01*
X0151601Y0319009D01*
X0152068Y0318542D01*
X0152068Y0317607D01*
X0151134Y0317140D02*
X0152068Y0316206D01*
X0134461Y0331173D02*
X0134461Y0331640D01*
X0133994Y0332107D01*
X0132593Y0332107D01*
X0132593Y0331173D01*
X0133060Y0330706D01*
X0133994Y0330706D01*
X0134461Y0331173D01*
X0132593Y0332107D02*
X0133527Y0333042D01*
X0134461Y0333509D01*
X0130581Y0333509D02*
X0130581Y0330706D01*
X0129647Y0330706D02*
X0131515Y0330706D01*
X0129647Y0332575D02*
X0130581Y0333509D01*
X0128568Y0333509D02*
X0126700Y0330706D01*
X0128568Y0330706D02*
X0126700Y0333509D01*
X0126101Y0335206D02*
X0126568Y0335673D01*
X0126101Y0335206D02*
X0125167Y0335206D01*
X0124700Y0335673D01*
X0124700Y0337542D01*
X0125167Y0338009D01*
X0126101Y0338009D01*
X0126568Y0337542D01*
X0127647Y0337542D02*
X0127647Y0337075D01*
X0128114Y0336607D01*
X0129515Y0336607D01*
X0129515Y0335673D02*
X0129515Y0337542D01*
X0129048Y0338009D01*
X0128114Y0338009D01*
X0127647Y0337542D01*
X0127647Y0335673D02*
X0128114Y0335206D01*
X0129048Y0335206D01*
X0129515Y0335673D01*
X0129515Y0342206D02*
X0127647Y0342206D01*
X0129515Y0344075D01*
X0129515Y0344542D01*
X0129048Y0345009D01*
X0128114Y0345009D01*
X0127647Y0344542D01*
X0126568Y0344542D02*
X0126101Y0345009D01*
X0125167Y0345009D01*
X0124700Y0344542D01*
X0124700Y0342673D01*
X0125167Y0342206D01*
X0126101Y0342206D01*
X0126568Y0342673D01*
X0130593Y0343607D02*
X0132461Y0343607D01*
X0131994Y0342206D02*
X0131994Y0345009D01*
X0130593Y0343607D01*
X0146869Y0344196D02*
X0146869Y0341393D01*
X0148270Y0341393D01*
X0148738Y0341860D01*
X0148738Y0343729D01*
X0148270Y0344196D01*
X0146869Y0344196D01*
X0149816Y0344196D02*
X0151684Y0344196D01*
X0151684Y0343729D01*
X0149816Y0341860D01*
X0149816Y0341393D01*
X0169119Y0341643D02*
X0170520Y0341643D01*
X0170988Y0342110D01*
X0170988Y0343979D01*
X0170520Y0344446D01*
X0169119Y0344446D01*
X0169119Y0341643D01*
X0172066Y0342110D02*
X0172066Y0342577D01*
X0172533Y0343045D01*
X0173467Y0343045D01*
X0173934Y0342577D01*
X0173934Y0342110D01*
X0173467Y0341643D01*
X0172533Y0341643D01*
X0172066Y0342110D01*
X0172533Y0343045D02*
X0172066Y0343512D01*
X0172066Y0343979D01*
X0172533Y0344446D01*
X0173467Y0344446D01*
X0173934Y0343979D01*
X0173934Y0343512D01*
X0173467Y0343045D01*
X0174384Y0363272D02*
X0174851Y0363272D01*
X0175318Y0363739D01*
X0175318Y0366075D01*
X0173917Y0366075D01*
X0173450Y0365607D01*
X0173450Y0364673D01*
X0173917Y0364206D01*
X0175318Y0364206D01*
X0176397Y0364206D02*
X0176397Y0366075D01*
X0177798Y0366075D01*
X0178265Y0365607D01*
X0178265Y0364206D01*
X0179343Y0364673D02*
X0179343Y0365607D01*
X0179810Y0366075D01*
X0181211Y0366075D01*
X0181211Y0367009D02*
X0181211Y0364206D01*
X0179810Y0364206D01*
X0179343Y0364673D01*
X0189200Y0366456D02*
X0191602Y0370059D01*
X0192883Y0370059D02*
X0195285Y0370059D01*
X0195285Y0369459D01*
X0192883Y0367057D01*
X0192883Y0366456D01*
X0191602Y0366456D02*
X0189200Y0370059D01*
X0166494Y0378456D02*
X0166494Y0381259D01*
X0165093Y0379857D01*
X0166961Y0379857D01*
X0164015Y0378456D02*
X0162147Y0378456D01*
X0163081Y0378456D02*
X0163081Y0381259D01*
X0162147Y0380325D01*
X0161068Y0381259D02*
X0159200Y0378456D01*
X0161068Y0378456D02*
X0159200Y0381259D01*
X0149274Y0366542D02*
X0149274Y0364673D01*
X0149742Y0364206D01*
X0149742Y0366075D02*
X0148807Y0366075D01*
X0147729Y0366075D02*
X0147729Y0364206D01*
X0146328Y0364206D01*
X0145861Y0364673D01*
X0145861Y0366075D01*
X0144783Y0365607D02*
X0144316Y0366075D01*
X0143381Y0366075D01*
X0142914Y0365607D01*
X0142914Y0364673D01*
X0143381Y0364206D01*
X0144316Y0364206D01*
X0144783Y0364673D01*
X0144783Y0365607D01*
X0141884Y0364206D02*
X0140950Y0364206D01*
X0141417Y0364206D02*
X0141417Y0367009D01*
X0140950Y0367009D02*
X0141884Y0367009D01*
X0201950Y0334009D02*
X0203818Y0331206D01*
X0204897Y0331206D02*
X0206765Y0331206D01*
X0205831Y0331206D02*
X0205831Y0334009D01*
X0204897Y0333075D01*
X0203818Y0334009D02*
X0201950Y0331206D01*
X0207843Y0331673D02*
X0208310Y0331206D01*
X0209244Y0331206D01*
X0209711Y0331673D01*
X0209711Y0332607D01*
X0209244Y0333075D01*
X0208777Y0333075D01*
X0207843Y0332607D01*
X0207843Y0334009D01*
X0209711Y0334009D01*
X0215700Y0332059D02*
X0218102Y0328456D01*
X0219383Y0328456D02*
X0221785Y0328456D01*
X0220584Y0328456D02*
X0220584Y0332059D01*
X0219383Y0330858D01*
X0218102Y0332059D02*
X0215700Y0328456D01*
X0223066Y0328456D02*
X0225468Y0330858D01*
X0225468Y0331459D01*
X0224868Y0332059D01*
X0223667Y0332059D01*
X0223066Y0331459D01*
X0223066Y0328456D02*
X0225468Y0328456D01*
X0246619Y0339143D02*
X0248020Y0339143D01*
X0248488Y0339610D01*
X0248488Y0341479D01*
X0248020Y0341946D01*
X0246619Y0341946D01*
X0246619Y0339143D01*
X0249566Y0339610D02*
X0250033Y0339143D01*
X0250967Y0339143D01*
X0251434Y0339610D01*
X0251434Y0340545D01*
X0250967Y0341012D01*
X0250500Y0341012D01*
X0249566Y0340545D01*
X0249566Y0341946D01*
X0251434Y0341946D01*
X0249742Y0361706D02*
X0249274Y0362173D01*
X0249274Y0364042D01*
X0248807Y0363575D02*
X0249742Y0363575D01*
X0247729Y0363575D02*
X0247729Y0361706D01*
X0246328Y0361706D01*
X0245861Y0362173D01*
X0245861Y0363575D01*
X0244783Y0363107D02*
X0244316Y0363575D01*
X0243381Y0363575D01*
X0242914Y0363107D01*
X0242914Y0362173D01*
X0243381Y0361706D01*
X0244316Y0361706D01*
X0244783Y0362173D01*
X0244783Y0363107D01*
X0241884Y0361706D02*
X0240950Y0361706D01*
X0241417Y0361706D02*
X0241417Y0364509D01*
X0240950Y0364509D02*
X0241884Y0364509D01*
X0259200Y0375956D02*
X0261068Y0378759D01*
X0262147Y0377825D02*
X0263081Y0378759D01*
X0263081Y0375956D01*
X0262147Y0375956D02*
X0264015Y0375956D01*
X0265093Y0376423D02*
X0266961Y0378292D01*
X0266961Y0376423D01*
X0266494Y0375956D01*
X0265560Y0375956D01*
X0265093Y0376423D01*
X0265093Y0378292D01*
X0265560Y0378759D01*
X0266494Y0378759D01*
X0266961Y0378292D01*
X0261068Y0375956D02*
X0259200Y0378759D01*
X0273917Y0363575D02*
X0273450Y0363107D01*
X0273450Y0362173D01*
X0273917Y0361706D01*
X0275318Y0361706D01*
X0275318Y0361239D02*
X0275318Y0363575D01*
X0273917Y0363575D01*
X0276397Y0363575D02*
X0276397Y0361706D01*
X0275318Y0361239D02*
X0274851Y0360772D01*
X0274384Y0360772D01*
X0276397Y0363575D02*
X0277798Y0363575D01*
X0278265Y0363107D01*
X0278265Y0361706D01*
X0279343Y0362173D02*
X0279343Y0363107D01*
X0279810Y0363575D01*
X0281211Y0363575D01*
X0281211Y0364509D02*
X0281211Y0361706D01*
X0279810Y0361706D01*
X0279343Y0362173D01*
X0273934Y0341696D02*
X0273000Y0341229D01*
X0272066Y0340295D01*
X0273467Y0340295D01*
X0273934Y0339827D01*
X0273934Y0339360D01*
X0273467Y0338893D01*
X0272533Y0338893D01*
X0272066Y0339360D01*
X0272066Y0340295D01*
X0270988Y0341229D02*
X0270520Y0341696D01*
X0269119Y0341696D01*
X0269119Y0338893D01*
X0270520Y0338893D01*
X0270988Y0339360D01*
X0270988Y0341229D01*
X0271343Y0316009D02*
X0273211Y0316009D01*
X0273211Y0315542D01*
X0271343Y0313673D01*
X0271343Y0313206D01*
X0270265Y0313206D02*
X0268397Y0313206D01*
X0270265Y0315075D01*
X0270265Y0315542D01*
X0269798Y0316009D01*
X0268864Y0316009D01*
X0268397Y0315542D01*
X0267318Y0315542D02*
X0267318Y0314607D01*
X0266851Y0314140D01*
X0265450Y0314140D01*
X0265450Y0313206D02*
X0265450Y0316009D01*
X0266851Y0316009D01*
X0267318Y0315542D01*
X0266384Y0314140D02*
X0267318Y0313206D01*
X0257961Y0313706D02*
X0256093Y0313706D01*
X0257961Y0315575D01*
X0257961Y0316042D01*
X0257494Y0316509D01*
X0256560Y0316509D01*
X0256093Y0316042D01*
X0255015Y0316042D02*
X0255015Y0314173D01*
X0254548Y0313706D01*
X0253614Y0313706D01*
X0253147Y0314173D01*
X0253147Y0316042D01*
X0253614Y0316509D01*
X0254548Y0316509D01*
X0255015Y0316042D01*
X0252068Y0316042D02*
X0252068Y0315107D01*
X0251601Y0314640D01*
X0250200Y0314640D01*
X0250200Y0313706D02*
X0250200Y0316509D01*
X0251601Y0316509D01*
X0252068Y0316042D01*
X0251134Y0314640D02*
X0252068Y0313706D01*
X0259884Y0281259D02*
X0260818Y0281259D01*
X0260351Y0281259D02*
X0260351Y0278923D01*
X0259884Y0278456D01*
X0259417Y0278456D01*
X0258950Y0278923D01*
X0261897Y0278923D02*
X0262364Y0278456D01*
X0263298Y0278456D01*
X0263765Y0278923D01*
X0263765Y0279390D01*
X0263298Y0279857D01*
X0262831Y0279857D01*
X0263298Y0279857D02*
X0263765Y0280325D01*
X0263765Y0280792D01*
X0263298Y0281259D01*
X0262364Y0281259D01*
X0261897Y0280792D01*
X0268998Y0275501D02*
X0268998Y0274566D01*
X0269465Y0274099D01*
X0269932Y0274099D01*
X0270399Y0274566D01*
X0270399Y0275968D01*
X0271333Y0275968D02*
X0269465Y0275968D01*
X0268998Y0275501D01*
X0271333Y0275968D02*
X0271800Y0275501D01*
X0271800Y0274566D01*
X0271333Y0274099D01*
X0271800Y0273021D02*
X0271800Y0271153D01*
X0269932Y0273021D01*
X0269465Y0273021D01*
X0268998Y0272554D01*
X0268998Y0271620D01*
X0269465Y0271153D01*
X0269465Y0270075D02*
X0268998Y0269607D01*
X0268998Y0268673D01*
X0269465Y0268206D01*
X0271333Y0268206D01*
X0271800Y0268673D01*
X0271800Y0269607D01*
X0271333Y0270075D01*
X0265300Y0253968D02*
X0265300Y0252099D01*
X0265300Y0253033D02*
X0262498Y0253033D01*
X0263432Y0252099D01*
X0263432Y0251021D02*
X0263899Y0250554D01*
X0264366Y0251021D01*
X0264833Y0251021D01*
X0265300Y0250554D01*
X0265300Y0249620D01*
X0264833Y0249153D01*
X0264833Y0248075D02*
X0265300Y0247607D01*
X0265300Y0246673D01*
X0264833Y0246206D01*
X0262965Y0246206D01*
X0262498Y0246673D01*
X0262498Y0247607D01*
X0262965Y0248075D01*
X0262965Y0249153D02*
X0262498Y0249620D01*
X0262498Y0250554D01*
X0262965Y0251021D01*
X0263432Y0251021D01*
X0263899Y0250554D02*
X0263899Y0250087D01*
X0269450Y0248009D02*
X0269450Y0245673D01*
X0269917Y0245206D01*
X0270851Y0245206D01*
X0271318Y0245673D01*
X0271318Y0248009D01*
X0272397Y0247542D02*
X0272397Y0247075D01*
X0272864Y0246607D01*
X0274265Y0246607D01*
X0274265Y0245673D02*
X0274265Y0247542D01*
X0273798Y0248009D01*
X0272864Y0248009D01*
X0272397Y0247542D01*
X0272397Y0245673D02*
X0272864Y0245206D01*
X0273798Y0245206D01*
X0274265Y0245673D01*
X0271711Y0240509D02*
X0270777Y0240042D01*
X0269843Y0239107D01*
X0271244Y0239107D01*
X0271711Y0238640D01*
X0271711Y0238173D01*
X0271244Y0237706D01*
X0270310Y0237706D01*
X0269843Y0238173D01*
X0269843Y0239107D01*
X0268765Y0239575D02*
X0266897Y0237706D01*
X0268765Y0237706D01*
X0268765Y0239575D02*
X0268765Y0240042D01*
X0268298Y0240509D01*
X0267364Y0240509D01*
X0266897Y0240042D01*
X0265818Y0240042D02*
X0265351Y0240509D01*
X0264417Y0240509D01*
X0263950Y0240042D01*
X0263950Y0238173D01*
X0264417Y0237706D01*
X0265351Y0237706D01*
X0265818Y0238173D01*
X0257550Y0243673D02*
X0257550Y0244607D01*
X0257083Y0245075D01*
X0257083Y0246153D02*
X0257550Y0246620D01*
X0257550Y0247554D01*
X0257083Y0248021D01*
X0256616Y0248021D01*
X0256149Y0247554D01*
X0256149Y0247087D01*
X0256149Y0247554D02*
X0255682Y0248021D01*
X0255215Y0248021D01*
X0254748Y0247554D01*
X0254748Y0246620D01*
X0255215Y0246153D01*
X0255215Y0245075D02*
X0254748Y0244607D01*
X0254748Y0243673D01*
X0255215Y0243206D01*
X0257083Y0243206D01*
X0257550Y0243673D01*
X0257083Y0249099D02*
X0257550Y0249566D01*
X0257550Y0250501D01*
X0257083Y0250968D01*
X0255215Y0250968D01*
X0254748Y0250501D01*
X0254748Y0249566D01*
X0255215Y0249099D01*
X0255682Y0249099D01*
X0256149Y0249566D01*
X0256149Y0250968D01*
X0244711Y0245042D02*
X0244244Y0245509D01*
X0243310Y0245509D01*
X0242843Y0245042D01*
X0244711Y0245042D02*
X0244711Y0244575D01*
X0242843Y0242706D01*
X0244711Y0242706D01*
X0241765Y0242706D02*
X0239897Y0242706D01*
X0240831Y0242706D02*
X0240831Y0245509D01*
X0239897Y0244575D01*
X0238818Y0245509D02*
X0238818Y0243173D01*
X0238351Y0242706D01*
X0237417Y0242706D01*
X0236950Y0243173D01*
X0236950Y0245509D01*
X0228050Y0245956D02*
X0225248Y0245956D01*
X0225248Y0247357D01*
X0225715Y0247825D01*
X0226649Y0247825D01*
X0227116Y0247357D01*
X0227116Y0245956D01*
X0227116Y0246890D02*
X0228050Y0247825D01*
X0228050Y0248903D02*
X0226182Y0250771D01*
X0225715Y0250771D01*
X0225248Y0250304D01*
X0225248Y0249370D01*
X0225715Y0248903D01*
X0228050Y0248903D02*
X0228050Y0250771D01*
X0227583Y0251849D02*
X0228050Y0252316D01*
X0228050Y0253251D01*
X0227583Y0253718D01*
X0226649Y0253718D01*
X0226182Y0253251D01*
X0226182Y0252783D01*
X0226649Y0251849D01*
X0225248Y0251849D01*
X0225248Y0253718D01*
X0216050Y0257456D02*
X0213248Y0257456D01*
X0213248Y0258857D01*
X0213715Y0259325D01*
X0214649Y0259325D01*
X0215116Y0258857D01*
X0215116Y0257456D01*
X0215116Y0258390D02*
X0216050Y0259325D01*
X0216050Y0260403D02*
X0214182Y0262271D01*
X0213715Y0262271D01*
X0213248Y0261804D01*
X0213248Y0260870D01*
X0213715Y0260403D01*
X0216050Y0260403D02*
X0216050Y0262271D01*
X0215583Y0263349D02*
X0216050Y0263816D01*
X0216050Y0264751D01*
X0215583Y0265218D01*
X0215116Y0265218D01*
X0214649Y0264751D01*
X0214649Y0263349D01*
X0215583Y0263349D01*
X0214649Y0263349D02*
X0213715Y0264283D01*
X0213248Y0265218D01*
X0217417Y0275206D02*
X0218351Y0275206D01*
X0218818Y0275673D01*
X0219897Y0276607D02*
X0221298Y0278009D01*
X0221298Y0275206D01*
X0221765Y0276607D02*
X0219897Y0276607D01*
X0218818Y0277542D02*
X0218351Y0278009D01*
X0217417Y0278009D01*
X0216950Y0277542D01*
X0216950Y0275673D01*
X0217417Y0275206D01*
X0215298Y0277656D02*
X0214364Y0277656D01*
X0213897Y0278123D01*
X0213897Y0279057D02*
X0214831Y0279525D01*
X0215298Y0279525D01*
X0215765Y0279057D01*
X0215765Y0278123D01*
X0215298Y0277656D01*
X0213897Y0279057D02*
X0213897Y0280459D01*
X0215765Y0280459D01*
X0212818Y0279992D02*
X0212818Y0278123D01*
X0212351Y0277656D01*
X0211417Y0277656D01*
X0210950Y0278123D01*
X0210950Y0279992D01*
X0211417Y0280459D01*
X0212351Y0280459D01*
X0212818Y0279992D01*
X0211884Y0278590D02*
X0212818Y0277656D01*
X0206515Y0280873D02*
X0206048Y0280406D01*
X0205114Y0280406D01*
X0204647Y0280873D01*
X0204647Y0281340D01*
X0205114Y0281807D01*
X0206048Y0281807D01*
X0206515Y0281340D01*
X0206515Y0280873D01*
X0206048Y0281807D02*
X0206515Y0282275D01*
X0206515Y0282742D01*
X0206048Y0283209D01*
X0205114Y0283209D01*
X0204647Y0282742D01*
X0204647Y0282275D01*
X0205114Y0281807D01*
X0203568Y0280873D02*
X0203101Y0280406D01*
X0202167Y0280406D01*
X0201700Y0280873D01*
X0201700Y0282742D01*
X0202167Y0283209D01*
X0203101Y0283209D01*
X0203568Y0282742D01*
X0203568Y0280873D01*
X0203568Y0280406D02*
X0202634Y0281340D01*
X0202965Y0278468D02*
X0203432Y0278468D01*
X0203899Y0278001D01*
X0203899Y0277066D01*
X0203432Y0276599D01*
X0202965Y0276599D01*
X0202498Y0277066D01*
X0202498Y0278001D01*
X0202965Y0278468D01*
X0203899Y0278001D02*
X0204366Y0278468D01*
X0204833Y0278468D01*
X0205300Y0278001D01*
X0205300Y0277066D01*
X0204833Y0276599D01*
X0204366Y0276599D01*
X0203899Y0277066D01*
X0203899Y0275521D02*
X0203899Y0273653D01*
X0202498Y0275054D01*
X0205300Y0275054D01*
X0204833Y0272575D02*
X0205300Y0272107D01*
X0205300Y0271173D01*
X0204833Y0270706D01*
X0202965Y0270706D01*
X0202498Y0271173D01*
X0202498Y0272107D01*
X0202965Y0272575D01*
X0199050Y0275673D02*
X0199050Y0276607D01*
X0198583Y0277075D01*
X0197649Y0278153D02*
X0197649Y0280021D01*
X0197649Y0281099D02*
X0196715Y0282033D01*
X0196248Y0282968D01*
X0197649Y0282501D02*
X0197649Y0281099D01*
X0198583Y0281099D01*
X0199050Y0281566D01*
X0199050Y0282501D01*
X0198583Y0282968D01*
X0198116Y0282968D01*
X0197649Y0282501D01*
X0199050Y0279554D02*
X0196248Y0279554D01*
X0197649Y0278153D01*
X0196715Y0277075D02*
X0196248Y0276607D01*
X0196248Y0275673D01*
X0196715Y0275206D01*
X0198583Y0275206D01*
X0199050Y0275673D01*
X0222843Y0275673D02*
X0224711Y0277542D01*
X0224711Y0275673D01*
X0224244Y0275206D01*
X0223310Y0275206D01*
X0222843Y0275673D01*
X0222843Y0277542D01*
X0223310Y0278009D01*
X0224244Y0278009D01*
X0224711Y0277542D01*
X0201461Y0246009D02*
X0199593Y0246009D01*
X0199593Y0244607D01*
X0200527Y0245075D01*
X0200994Y0245075D01*
X0201461Y0244607D01*
X0201461Y0243673D01*
X0200994Y0243206D01*
X0200060Y0243206D01*
X0199593Y0243673D01*
X0198515Y0243673D02*
X0198048Y0243206D01*
X0197114Y0243206D01*
X0196647Y0243673D01*
X0195568Y0243206D02*
X0194634Y0244140D01*
X0195101Y0244140D02*
X0193700Y0244140D01*
X0193700Y0243206D02*
X0193700Y0246009D01*
X0195101Y0246009D01*
X0195568Y0245542D01*
X0195568Y0244607D01*
X0195101Y0244140D01*
X0196647Y0245542D02*
X0197114Y0246009D01*
X0198048Y0246009D01*
X0198515Y0245542D01*
X0198515Y0245075D01*
X0198048Y0244607D01*
X0198515Y0244140D01*
X0198515Y0243673D01*
X0198048Y0244607D02*
X0197581Y0244607D01*
X0202667Y0227259D02*
X0202200Y0226792D01*
X0202200Y0224923D01*
X0202667Y0224456D01*
X0203601Y0224456D01*
X0204068Y0224923D01*
X0205147Y0224923D02*
X0205614Y0224456D01*
X0206548Y0224456D01*
X0207015Y0224923D01*
X0207015Y0225390D01*
X0206548Y0225857D01*
X0205147Y0225857D01*
X0205147Y0224923D01*
X0205147Y0225857D02*
X0206081Y0226792D01*
X0207015Y0227259D01*
X0208093Y0226792D02*
X0208560Y0227259D01*
X0209494Y0227259D01*
X0209961Y0226792D01*
X0209961Y0226325D01*
X0208093Y0224456D01*
X0209961Y0224456D01*
X0204068Y0226792D02*
X0203601Y0227259D01*
X0202667Y0227259D01*
X0204167Y0211509D02*
X0203700Y0211042D01*
X0203700Y0209173D01*
X0204167Y0208706D01*
X0205101Y0208706D01*
X0205568Y0209173D01*
X0206647Y0210107D02*
X0208048Y0211509D01*
X0208048Y0208706D01*
X0208515Y0210107D02*
X0206647Y0210107D01*
X0205568Y0211042D02*
X0205101Y0211509D01*
X0204167Y0211509D01*
X0209593Y0211042D02*
X0210060Y0211509D01*
X0210994Y0211509D01*
X0211461Y0211042D01*
X0211461Y0210575D01*
X0210994Y0210107D01*
X0211461Y0209640D01*
X0211461Y0209173D01*
X0210994Y0208706D01*
X0210060Y0208706D01*
X0209593Y0209173D01*
X0210527Y0210107D02*
X0210994Y0210107D01*
X0204494Y0202259D02*
X0203093Y0200857D01*
X0204961Y0200857D01*
X0204494Y0199456D02*
X0204494Y0202259D01*
X0202015Y0201792D02*
X0202015Y0201325D01*
X0201548Y0200857D01*
X0202015Y0200390D01*
X0202015Y0199923D01*
X0201548Y0199456D01*
X0200614Y0199456D01*
X0200147Y0199923D01*
X0199068Y0199456D02*
X0198134Y0200390D01*
X0198601Y0200390D02*
X0197200Y0200390D01*
X0197200Y0199456D02*
X0197200Y0202259D01*
X0198601Y0202259D01*
X0199068Y0201792D01*
X0199068Y0200857D01*
X0198601Y0200390D01*
X0200147Y0201792D02*
X0200614Y0202259D01*
X0201548Y0202259D01*
X0202015Y0201792D01*
X0201548Y0200857D02*
X0201081Y0200857D01*
X0200318Y0194509D02*
X0200318Y0192173D01*
X0199851Y0191706D01*
X0198917Y0191706D01*
X0198450Y0192173D01*
X0198450Y0194509D01*
X0201397Y0193575D02*
X0202331Y0194509D01*
X0202331Y0191706D01*
X0201397Y0191706D02*
X0203265Y0191706D01*
X0204343Y0193107D02*
X0206211Y0193107D01*
X0205744Y0191706D02*
X0205744Y0194509D01*
X0204343Y0193107D01*
X0207165Y0185878D02*
X0206698Y0185411D01*
X0206698Y0184477D01*
X0207165Y0184010D01*
X0207165Y0182932D02*
X0207632Y0182932D01*
X0208099Y0182464D01*
X0208566Y0182932D01*
X0209033Y0182932D01*
X0209500Y0182464D01*
X0209500Y0181530D01*
X0209033Y0181063D01*
X0209500Y0179985D02*
X0208566Y0179051D01*
X0208566Y0179518D02*
X0208566Y0178117D01*
X0209500Y0178117D02*
X0206698Y0178117D01*
X0206698Y0179518D01*
X0207165Y0179985D01*
X0208099Y0179985D01*
X0208566Y0179518D01*
X0207165Y0181063D02*
X0206698Y0181530D01*
X0206698Y0182464D01*
X0207165Y0182932D01*
X0208099Y0182464D02*
X0208099Y0181997D01*
X0209500Y0184010D02*
X0207632Y0185878D01*
X0207165Y0185878D01*
X0209500Y0185878D02*
X0209500Y0184010D01*
X0209048Y0168009D02*
X0207647Y0166607D01*
X0209515Y0166607D01*
X0210593Y0166607D02*
X0211994Y0168009D01*
X0211994Y0165206D01*
X0212461Y0166607D02*
X0210593Y0166607D01*
X0209048Y0165206D02*
X0209048Y0168009D01*
X0206568Y0167542D02*
X0206101Y0168009D01*
X0205167Y0168009D01*
X0204700Y0167542D01*
X0204700Y0165673D01*
X0205167Y0165206D01*
X0206101Y0165206D01*
X0206568Y0165673D01*
X0233950Y0144759D02*
X0235818Y0141956D01*
X0236897Y0142423D02*
X0237364Y0141956D01*
X0238298Y0141956D01*
X0238765Y0142423D01*
X0238765Y0144292D01*
X0238298Y0144759D01*
X0237364Y0144759D01*
X0236897Y0144292D01*
X0236897Y0143825D01*
X0237364Y0143357D01*
X0238765Y0143357D01*
X0235818Y0144759D02*
X0233950Y0141956D01*
X0242917Y0151956D02*
X0242450Y0152423D01*
X0242450Y0154292D01*
X0242917Y0154759D01*
X0243851Y0154759D01*
X0244318Y0154292D01*
X0245397Y0154292D02*
X0245864Y0154759D01*
X0246798Y0154759D01*
X0247265Y0154292D01*
X0247265Y0153825D01*
X0246798Y0153357D01*
X0247265Y0152890D01*
X0247265Y0152423D01*
X0246798Y0151956D01*
X0245864Y0151956D01*
X0245397Y0152423D01*
X0244318Y0152423D02*
X0243851Y0151956D01*
X0242917Y0151956D01*
X0246331Y0153357D02*
X0246798Y0153357D01*
X0248343Y0153357D02*
X0249277Y0153825D01*
X0249744Y0153825D01*
X0250211Y0153357D01*
X0250211Y0152423D01*
X0249744Y0151956D01*
X0248810Y0151956D01*
X0248343Y0152423D01*
X0248343Y0153357D02*
X0248343Y0154759D01*
X0250211Y0154759D01*
X0251700Y0154759D02*
X0253101Y0154759D01*
X0253568Y0154292D01*
X0253568Y0153357D01*
X0253101Y0152890D01*
X0251700Y0152890D01*
X0251700Y0151956D02*
X0251700Y0154759D01*
X0252634Y0152890D02*
X0253568Y0151956D01*
X0254647Y0151956D02*
X0256515Y0151956D01*
X0255581Y0151956D02*
X0255581Y0154759D01*
X0254647Y0153825D01*
X0257593Y0153825D02*
X0258060Y0153357D01*
X0259461Y0153357D01*
X0259461Y0152423D02*
X0259461Y0154292D01*
X0258994Y0154759D01*
X0258060Y0154759D01*
X0257593Y0154292D01*
X0257593Y0153825D01*
X0257593Y0152423D02*
X0258060Y0151956D01*
X0258994Y0151956D01*
X0259461Y0152423D01*
X0260950Y0152423D02*
X0261417Y0151956D01*
X0262351Y0151956D01*
X0262818Y0152423D01*
X0263897Y0152423D02*
X0264364Y0151956D01*
X0265298Y0151956D01*
X0265765Y0152423D01*
X0265765Y0152890D01*
X0265298Y0153357D01*
X0264831Y0153357D01*
X0265298Y0153357D02*
X0265765Y0153825D01*
X0265765Y0154292D01*
X0265298Y0154759D01*
X0264364Y0154759D01*
X0263897Y0154292D01*
X0262818Y0154292D02*
X0262351Y0154759D01*
X0261417Y0154759D01*
X0260950Y0154292D01*
X0260950Y0152423D01*
X0261114Y0158456D02*
X0260647Y0158923D01*
X0261114Y0158456D02*
X0262048Y0158456D01*
X0262515Y0158923D01*
X0262515Y0159390D01*
X0262048Y0159857D01*
X0261581Y0159857D01*
X0262048Y0159857D02*
X0262515Y0160325D01*
X0262515Y0160792D01*
X0262048Y0161259D01*
X0261114Y0161259D01*
X0260647Y0160792D01*
X0259568Y0160792D02*
X0259101Y0161259D01*
X0258167Y0161259D01*
X0257700Y0160792D01*
X0257700Y0158923D01*
X0258167Y0158456D01*
X0259101Y0158456D01*
X0259568Y0158923D01*
X0263593Y0158923D02*
X0264060Y0158456D01*
X0264994Y0158456D01*
X0265461Y0158923D01*
X0265461Y0159390D01*
X0264994Y0159857D01*
X0264527Y0159857D01*
X0264994Y0159857D02*
X0265461Y0160325D01*
X0265461Y0160792D01*
X0264994Y0161259D01*
X0264060Y0161259D01*
X0263593Y0160792D01*
X0264965Y0164456D02*
X0266833Y0164456D01*
X0267300Y0164923D01*
X0267300Y0165857D01*
X0266833Y0166325D01*
X0266833Y0167403D02*
X0267300Y0167870D01*
X0267300Y0168804D01*
X0266833Y0169271D01*
X0266366Y0169271D01*
X0265899Y0168804D01*
X0265899Y0168337D01*
X0265899Y0168804D02*
X0265432Y0169271D01*
X0264965Y0169271D01*
X0264498Y0168804D01*
X0264498Y0167870D01*
X0264965Y0167403D01*
X0264965Y0166325D02*
X0264498Y0165857D01*
X0264498Y0164923D01*
X0264965Y0164456D01*
X0268748Y0164706D02*
X0268748Y0166107D01*
X0269215Y0166575D01*
X0270149Y0166575D01*
X0270616Y0166107D01*
X0270616Y0164706D01*
X0271550Y0164706D02*
X0268748Y0164706D01*
X0270616Y0165640D02*
X0271550Y0166575D01*
X0271550Y0167653D02*
X0269682Y0169521D01*
X0269215Y0169521D01*
X0268748Y0169054D01*
X0268748Y0168120D01*
X0269215Y0167653D01*
X0271550Y0167653D02*
X0271550Y0169521D01*
X0271550Y0170599D02*
X0269682Y0172468D01*
X0269215Y0172468D01*
X0268748Y0172001D01*
X0268748Y0171066D01*
X0269215Y0170599D01*
X0267300Y0170816D02*
X0267300Y0171751D01*
X0266833Y0172218D01*
X0266366Y0172218D01*
X0265899Y0171751D01*
X0265899Y0170349D01*
X0266833Y0170349D01*
X0267300Y0170816D01*
X0265899Y0170349D02*
X0264965Y0171283D01*
X0264498Y0172218D01*
X0271550Y0172468D02*
X0271550Y0170599D01*
X0268244Y0154759D02*
X0266843Y0153357D01*
X0268711Y0153357D01*
X0268244Y0151956D02*
X0268244Y0154759D01*
X0267744Y0147259D02*
X0268211Y0146792D01*
X0268211Y0146325D01*
X0267744Y0145857D01*
X0266810Y0145857D01*
X0266343Y0146325D01*
X0266343Y0146792D01*
X0266810Y0147259D01*
X0267744Y0147259D01*
X0267744Y0145857D02*
X0268211Y0145390D01*
X0268211Y0144923D01*
X0267744Y0144456D01*
X0266810Y0144456D01*
X0266343Y0144923D01*
X0266343Y0145390D01*
X0266810Y0145857D01*
X0265265Y0144456D02*
X0263397Y0144456D01*
X0264331Y0144456D02*
X0264331Y0147259D01*
X0263397Y0146325D01*
X0262318Y0146792D02*
X0262318Y0145857D01*
X0261851Y0145390D01*
X0260450Y0145390D01*
X0260450Y0144456D02*
X0260450Y0147259D01*
X0261851Y0147259D01*
X0262318Y0146792D01*
X0261384Y0145390D02*
X0262318Y0144456D01*
X0258211Y0144923D02*
X0257744Y0144456D01*
X0256810Y0144456D01*
X0256343Y0144923D01*
X0258211Y0146792D01*
X0258211Y0144923D01*
X0256343Y0144923D02*
X0256343Y0146792D01*
X0256810Y0147259D01*
X0257744Y0147259D01*
X0258211Y0146792D01*
X0255265Y0146792D02*
X0254798Y0147259D01*
X0253864Y0147259D01*
X0253397Y0146792D01*
X0252318Y0146792D02*
X0252318Y0145857D01*
X0251851Y0145390D01*
X0250450Y0145390D01*
X0250450Y0144456D02*
X0250450Y0147259D01*
X0251851Y0147259D01*
X0252318Y0146792D01*
X0251384Y0145390D02*
X0252318Y0144456D01*
X0253397Y0144456D02*
X0255265Y0146325D01*
X0255265Y0146792D01*
X0255265Y0144456D02*
X0253397Y0144456D01*
X0268167Y0193956D02*
X0269101Y0193956D01*
X0269568Y0194423D01*
X0270647Y0193956D02*
X0272515Y0195825D01*
X0272515Y0196292D01*
X0272048Y0196759D01*
X0271114Y0196759D01*
X0270647Y0196292D01*
X0269568Y0196292D02*
X0269101Y0196759D01*
X0268167Y0196759D01*
X0267700Y0196292D01*
X0267700Y0194423D01*
X0268167Y0193956D01*
X0270647Y0193956D02*
X0272515Y0193956D01*
X0273593Y0194423D02*
X0274060Y0193956D01*
X0274994Y0193956D01*
X0275461Y0194423D01*
X0275461Y0195357D01*
X0274994Y0195825D01*
X0274527Y0195825D01*
X0273593Y0195357D01*
X0273593Y0196759D01*
X0275461Y0196759D01*
X0276167Y0203706D02*
X0277101Y0203706D01*
X0277568Y0204173D01*
X0278647Y0204173D02*
X0279114Y0203706D01*
X0280048Y0203706D01*
X0280515Y0204173D01*
X0280515Y0204640D01*
X0280048Y0205107D01*
X0279581Y0205107D01*
X0280048Y0205107D02*
X0280515Y0205575D01*
X0280515Y0206042D01*
X0280048Y0206509D01*
X0279114Y0206509D01*
X0278647Y0206042D01*
X0277568Y0206042D02*
X0277101Y0206509D01*
X0276167Y0206509D01*
X0275700Y0206042D01*
X0275700Y0204173D01*
X0276167Y0203706D01*
X0281593Y0203706D02*
X0281593Y0204173D01*
X0283461Y0206042D01*
X0283461Y0206509D01*
X0281593Y0206509D01*
X0297200Y0199759D02*
X0297200Y0196956D01*
X0297200Y0197890D02*
X0298601Y0197890D01*
X0299068Y0198357D01*
X0299068Y0199292D01*
X0298601Y0199759D01*
X0297200Y0199759D01*
X0298134Y0197890D02*
X0299068Y0196956D01*
X0300147Y0196956D02*
X0302015Y0198825D01*
X0302015Y0199292D01*
X0301548Y0199759D01*
X0300614Y0199759D01*
X0300147Y0199292D01*
X0300147Y0196956D02*
X0302015Y0196956D01*
X0303093Y0197423D02*
X0303560Y0196956D01*
X0304494Y0196956D01*
X0304961Y0197423D01*
X0304961Y0197890D01*
X0304494Y0198357D01*
X0304027Y0198357D01*
X0304494Y0198357D02*
X0304961Y0198825D01*
X0304961Y0199292D01*
X0304494Y0199759D01*
X0303560Y0199759D01*
X0303093Y0199292D01*
X0303167Y0206206D02*
X0304101Y0206206D01*
X0304568Y0206673D01*
X0305647Y0206206D02*
X0307515Y0208075D01*
X0307515Y0208542D01*
X0307048Y0209009D01*
X0306114Y0209009D01*
X0305647Y0208542D01*
X0304568Y0208542D02*
X0304101Y0209009D01*
X0303167Y0209009D01*
X0302700Y0208542D01*
X0302700Y0206673D01*
X0303167Y0206206D01*
X0305647Y0206206D02*
X0307515Y0206206D01*
X0308593Y0206206D02*
X0308593Y0206673D01*
X0310461Y0208542D01*
X0310461Y0209009D01*
X0308593Y0209009D01*
X0308560Y0221956D02*
X0308093Y0222423D01*
X0308093Y0222890D01*
X0308560Y0223357D01*
X0309494Y0223357D01*
X0309961Y0222890D01*
X0309961Y0222423D01*
X0309494Y0221956D01*
X0308560Y0221956D01*
X0308560Y0223357D02*
X0308093Y0223825D01*
X0308093Y0224292D01*
X0308560Y0224759D01*
X0309494Y0224759D01*
X0309961Y0224292D01*
X0309961Y0223825D01*
X0309494Y0223357D01*
X0307015Y0222890D02*
X0307015Y0222423D01*
X0306548Y0221956D01*
X0305614Y0221956D01*
X0305147Y0222423D01*
X0304068Y0222423D02*
X0303601Y0221956D01*
X0302667Y0221956D01*
X0302200Y0222423D01*
X0302200Y0224292D01*
X0302667Y0224759D01*
X0303601Y0224759D01*
X0304068Y0224292D01*
X0305147Y0224292D02*
X0305614Y0224759D01*
X0306548Y0224759D01*
X0307015Y0224292D01*
X0307015Y0223825D01*
X0306548Y0223357D01*
X0307015Y0222890D01*
X0306548Y0223357D02*
X0306081Y0223357D01*
X0300994Y0240706D02*
X0300994Y0243509D01*
X0299593Y0242107D01*
X0301461Y0242107D01*
X0298515Y0242575D02*
X0298515Y0243042D01*
X0298048Y0243509D01*
X0297114Y0243509D01*
X0296647Y0243042D01*
X0295568Y0243042D02*
X0295568Y0242107D01*
X0295101Y0241640D01*
X0293700Y0241640D01*
X0293700Y0240706D02*
X0293700Y0243509D01*
X0295101Y0243509D01*
X0295568Y0243042D01*
X0294634Y0241640D02*
X0295568Y0240706D01*
X0296647Y0240706D02*
X0298515Y0242575D01*
X0298515Y0240706D02*
X0296647Y0240706D01*
X0276211Y0225206D02*
X0274343Y0225206D01*
X0275277Y0225206D02*
X0275277Y0228009D01*
X0274343Y0227075D01*
X0273265Y0225206D02*
X0271397Y0225206D01*
X0272331Y0225206D02*
X0272331Y0228009D01*
X0271397Y0227075D01*
X0270318Y0228009D02*
X0270318Y0225673D01*
X0269851Y0225206D01*
X0268917Y0225206D01*
X0268450Y0225673D01*
X0268450Y0228009D01*
X0242961Y0227390D02*
X0242494Y0227857D01*
X0241093Y0227857D01*
X0241093Y0226923D01*
X0241560Y0226456D01*
X0242494Y0226456D01*
X0242961Y0226923D01*
X0242961Y0227390D01*
X0242027Y0228792D02*
X0242961Y0229259D01*
X0242027Y0228792D02*
X0241093Y0227857D01*
X0240015Y0227857D02*
X0239548Y0227390D01*
X0238147Y0227390D01*
X0238147Y0226456D02*
X0238147Y0229259D01*
X0239548Y0229259D01*
X0240015Y0228792D01*
X0240015Y0227857D01*
X0237068Y0229259D02*
X0235200Y0229259D01*
X0236134Y0229259D02*
X0236134Y0226456D01*
X0298450Y0192509D02*
X0298450Y0190173D01*
X0298917Y0189706D01*
X0299851Y0189706D01*
X0300318Y0190173D01*
X0300318Y0192509D01*
X0301397Y0191575D02*
X0302331Y0192509D01*
X0302331Y0189706D01*
X0301397Y0189706D02*
X0303265Y0189706D01*
X0304343Y0190173D02*
X0306211Y0192042D01*
X0306211Y0190173D01*
X0305744Y0189706D01*
X0304810Y0189706D01*
X0304343Y0190173D01*
X0304343Y0192042D01*
X0304810Y0192509D01*
X0305744Y0192509D01*
X0306211Y0192042D01*
X0309500Y0183378D02*
X0309500Y0181510D01*
X0309500Y0182444D02*
X0306698Y0182444D01*
X0307632Y0181510D01*
X0307632Y0180432D02*
X0307165Y0180432D01*
X0306698Y0179964D01*
X0306698Y0179030D01*
X0307165Y0178563D01*
X0307165Y0177485D02*
X0308099Y0177485D01*
X0308566Y0177018D01*
X0308566Y0175617D01*
X0308566Y0176551D02*
X0309500Y0177485D01*
X0309500Y0178563D02*
X0307632Y0180432D01*
X0309500Y0180432D02*
X0309500Y0178563D01*
X0307165Y0177485D02*
X0306698Y0177018D01*
X0306698Y0175617D01*
X0309500Y0175617D01*
X0309048Y0165509D02*
X0308114Y0165509D01*
X0307647Y0165042D01*
X0306568Y0165042D02*
X0306101Y0165509D01*
X0305167Y0165509D01*
X0304700Y0165042D01*
X0304700Y0163173D01*
X0305167Y0162706D01*
X0306101Y0162706D01*
X0306568Y0163173D01*
X0307647Y0162706D02*
X0309515Y0164575D01*
X0309515Y0165042D01*
X0309048Y0165509D01*
X0310593Y0165042D02*
X0310593Y0164575D01*
X0311060Y0164107D01*
X0311994Y0164107D01*
X0312461Y0163640D01*
X0312461Y0163173D01*
X0311994Y0162706D01*
X0311060Y0162706D01*
X0310593Y0163173D01*
X0310593Y0163640D01*
X0311060Y0164107D01*
X0311994Y0164107D02*
X0312461Y0164575D01*
X0312461Y0165042D01*
X0311994Y0165509D01*
X0311060Y0165509D01*
X0310593Y0165042D01*
X0309515Y0162706D02*
X0307647Y0162706D01*
X0304833Y0268206D02*
X0305300Y0268673D01*
X0305300Y0269607D01*
X0304833Y0270075D01*
X0304833Y0271153D02*
X0305300Y0271620D01*
X0305300Y0272554D01*
X0304833Y0273021D01*
X0304366Y0273021D01*
X0303899Y0272554D01*
X0303899Y0272087D01*
X0303899Y0272554D02*
X0303432Y0273021D01*
X0302965Y0273021D01*
X0302498Y0272554D01*
X0302498Y0271620D01*
X0302965Y0271153D01*
X0302965Y0270075D02*
X0302498Y0269607D01*
X0302498Y0268673D01*
X0302965Y0268206D01*
X0304833Y0268206D01*
X0299050Y0272673D02*
X0299050Y0273607D01*
X0298583Y0274075D01*
X0298583Y0275153D02*
X0299050Y0275620D01*
X0299050Y0276554D01*
X0298583Y0277021D01*
X0298116Y0277021D01*
X0297649Y0276554D01*
X0297649Y0276087D01*
X0297649Y0276554D02*
X0297182Y0277021D01*
X0296715Y0277021D01*
X0296248Y0276554D01*
X0296248Y0275620D01*
X0296715Y0275153D01*
X0296715Y0274075D02*
X0296248Y0273607D01*
X0296248Y0272673D01*
X0296715Y0272206D01*
X0298583Y0272206D01*
X0299050Y0272673D01*
X0302498Y0274566D02*
X0302965Y0274099D01*
X0302498Y0274566D02*
X0302498Y0275501D01*
X0302965Y0275968D01*
X0303432Y0275968D01*
X0305300Y0274099D01*
X0305300Y0275968D01*
X0299050Y0278566D02*
X0298583Y0278099D01*
X0296715Y0279968D01*
X0298583Y0279968D01*
X0299050Y0279501D01*
X0299050Y0278566D01*
X0298583Y0278099D02*
X0296715Y0278099D01*
X0296248Y0278566D01*
X0296248Y0279501D01*
X0296715Y0279968D01*
X0309450Y0288373D02*
X0309917Y0287906D01*
X0310851Y0287906D01*
X0311318Y0288373D01*
X0311318Y0290242D01*
X0310851Y0290709D01*
X0309917Y0290709D01*
X0309450Y0290242D01*
X0309450Y0288373D01*
X0310384Y0288840D02*
X0311318Y0287906D01*
X0312397Y0288373D02*
X0312397Y0289307D01*
X0313798Y0289307D01*
X0314265Y0288840D01*
X0314265Y0288373D01*
X0313798Y0287906D01*
X0312864Y0287906D01*
X0312397Y0288373D01*
X0312397Y0289307D02*
X0313331Y0290242D01*
X0314265Y0290709D01*
X0309711Y0328706D02*
X0307843Y0328706D01*
X0308777Y0328706D02*
X0308777Y0331509D01*
X0307843Y0330575D01*
X0306765Y0328706D02*
X0304897Y0328706D01*
X0305831Y0328706D02*
X0305831Y0331509D01*
X0304897Y0330575D01*
X0303818Y0331509D02*
X0301950Y0328706D01*
X0303818Y0328706D02*
X0301950Y0331509D01*
X0073265Y0230042D02*
X0072798Y0230509D01*
X0071864Y0230509D01*
X0071397Y0230042D01*
X0070318Y0230509D02*
X0070318Y0228173D01*
X0069851Y0227706D01*
X0068917Y0227706D01*
X0068450Y0228173D01*
X0068450Y0230509D01*
X0071397Y0227706D02*
X0073265Y0229575D01*
X0073265Y0230042D01*
X0073265Y0227706D02*
X0071397Y0227706D01*
D11*
X0069250Y0284006D02*
X0068250Y0285006D01*
X0067750Y0296506D01*
X0065500Y0296506D02*
X0065500Y0285506D01*
X0065498Y0285446D01*
X0065493Y0285385D01*
X0065484Y0285326D01*
X0065471Y0285267D01*
X0065455Y0285208D01*
X0065435Y0285151D01*
X0065412Y0285096D01*
X0065385Y0285041D01*
X0065356Y0284989D01*
X0065323Y0284938D01*
X0065287Y0284889D01*
X0065249Y0284843D01*
X0065207Y0284799D01*
X0065163Y0284757D01*
X0065117Y0284719D01*
X0065068Y0284683D01*
X0065017Y0284650D01*
X0064965Y0284621D01*
X0064910Y0284594D01*
X0064855Y0284571D01*
X0064798Y0284551D01*
X0064739Y0284535D01*
X0064680Y0284522D01*
X0064621Y0284513D01*
X0064560Y0284508D01*
X0064500Y0284506D01*
X0058500Y0284506D01*
X0058440Y0284508D01*
X0058379Y0284513D01*
X0058320Y0284522D01*
X0058261Y0284535D01*
X0058202Y0284551D01*
X0058145Y0284571D01*
X0058090Y0284594D01*
X0058035Y0284621D01*
X0057983Y0284650D01*
X0057932Y0284683D01*
X0057883Y0284719D01*
X0057837Y0284757D01*
X0057793Y0284799D01*
X0057751Y0284843D01*
X0057713Y0284889D01*
X0057677Y0284938D01*
X0057644Y0284989D01*
X0057615Y0285041D01*
X0057588Y0285096D01*
X0057565Y0285151D01*
X0057545Y0285208D01*
X0057529Y0285267D01*
X0057516Y0285326D01*
X0057507Y0285385D01*
X0057502Y0285446D01*
X0057500Y0285506D01*
X0057500Y0296506D01*
X0057502Y0296566D01*
X0057507Y0296627D01*
X0057516Y0296686D01*
X0057529Y0296745D01*
X0057545Y0296804D01*
X0057565Y0296861D01*
X0057588Y0296916D01*
X0057615Y0296971D01*
X0057644Y0297023D01*
X0057677Y0297074D01*
X0057713Y0297123D01*
X0057751Y0297169D01*
X0057793Y0297213D01*
X0057837Y0297255D01*
X0057883Y0297293D01*
X0057932Y0297329D01*
X0057983Y0297362D01*
X0058035Y0297391D01*
X0058090Y0297418D01*
X0058145Y0297441D01*
X0058202Y0297461D01*
X0058261Y0297477D01*
X0058320Y0297490D01*
X0058379Y0297499D01*
X0058440Y0297504D01*
X0058500Y0297506D01*
X0064500Y0297506D01*
X0064560Y0297504D01*
X0064621Y0297499D01*
X0064680Y0297490D01*
X0064739Y0297477D01*
X0064798Y0297461D01*
X0064855Y0297441D01*
X0064910Y0297418D01*
X0064965Y0297391D01*
X0065017Y0297362D01*
X0065068Y0297329D01*
X0065117Y0297293D01*
X0065163Y0297255D01*
X0065207Y0297213D01*
X0065249Y0297169D01*
X0065287Y0297123D01*
X0065323Y0297074D01*
X0065356Y0297023D01*
X0065385Y0296971D01*
X0065412Y0296916D01*
X0065435Y0296861D01*
X0065455Y0296804D01*
X0065471Y0296745D01*
X0065484Y0296686D01*
X0065493Y0296627D01*
X0065498Y0296566D01*
X0065500Y0296506D01*
X0057750Y0302256D02*
X0047750Y0302256D01*
X0047750Y0332256D01*
X0057750Y0332256D01*
X0057750Y0302256D01*
X0054750Y0299506D02*
X0055250Y0288006D01*
X0051950Y0298106D02*
X0051952Y0298169D01*
X0051958Y0298231D01*
X0051968Y0298293D01*
X0051981Y0298355D01*
X0051999Y0298415D01*
X0052020Y0298474D01*
X0052045Y0298532D01*
X0052074Y0298588D01*
X0052106Y0298642D01*
X0052141Y0298694D01*
X0052179Y0298743D01*
X0052221Y0298791D01*
X0052265Y0298835D01*
X0052313Y0298877D01*
X0052362Y0298915D01*
X0052414Y0298950D01*
X0052468Y0298982D01*
X0052524Y0299011D01*
X0052582Y0299036D01*
X0052641Y0299057D01*
X0052701Y0299075D01*
X0052763Y0299088D01*
X0052825Y0299098D01*
X0052887Y0299104D01*
X0052950Y0299106D01*
X0053013Y0299104D01*
X0053075Y0299098D01*
X0053137Y0299088D01*
X0053199Y0299075D01*
X0053259Y0299057D01*
X0053318Y0299036D01*
X0053376Y0299011D01*
X0053432Y0298982D01*
X0053486Y0298950D01*
X0053538Y0298915D01*
X0053587Y0298877D01*
X0053635Y0298835D01*
X0053679Y0298791D01*
X0053721Y0298743D01*
X0053759Y0298694D01*
X0053794Y0298642D01*
X0053826Y0298588D01*
X0053855Y0298532D01*
X0053880Y0298474D01*
X0053901Y0298415D01*
X0053919Y0298355D01*
X0053932Y0298293D01*
X0053942Y0298231D01*
X0053948Y0298169D01*
X0053950Y0298106D01*
X0053948Y0298043D01*
X0053942Y0297981D01*
X0053932Y0297919D01*
X0053919Y0297857D01*
X0053901Y0297797D01*
X0053880Y0297738D01*
X0053855Y0297680D01*
X0053826Y0297624D01*
X0053794Y0297570D01*
X0053759Y0297518D01*
X0053721Y0297469D01*
X0053679Y0297421D01*
X0053635Y0297377D01*
X0053587Y0297335D01*
X0053538Y0297297D01*
X0053486Y0297262D01*
X0053432Y0297230D01*
X0053376Y0297201D01*
X0053318Y0297176D01*
X0053259Y0297155D01*
X0053199Y0297137D01*
X0053137Y0297124D01*
X0053075Y0297114D01*
X0053013Y0297108D01*
X0052950Y0297106D01*
X0052887Y0297108D01*
X0052825Y0297114D01*
X0052763Y0297124D01*
X0052701Y0297137D01*
X0052641Y0297155D01*
X0052582Y0297176D01*
X0052524Y0297201D01*
X0052468Y0297230D01*
X0052414Y0297262D01*
X0052362Y0297297D01*
X0052313Y0297335D01*
X0052265Y0297377D01*
X0052221Y0297421D01*
X0052179Y0297469D01*
X0052141Y0297518D01*
X0052106Y0297570D01*
X0052074Y0297624D01*
X0052045Y0297680D01*
X0052020Y0297738D01*
X0051999Y0297797D01*
X0051981Y0297857D01*
X0051968Y0297919D01*
X0051958Y0297981D01*
X0051952Y0298043D01*
X0051950Y0298106D01*
X0053750Y0300506D02*
X0054750Y0299506D01*
X0053750Y0300506D02*
X0016750Y0300506D01*
X0015750Y0299506D01*
X0015250Y0288006D01*
X0061951Y0307957D02*
X0061951Y0326654D01*
X0073549Y0326654D02*
X0073549Y0307957D01*
X0069050Y0286406D02*
X0069052Y0286469D01*
X0069058Y0286531D01*
X0069068Y0286593D01*
X0069081Y0286655D01*
X0069099Y0286715D01*
X0069120Y0286774D01*
X0069145Y0286832D01*
X0069174Y0286888D01*
X0069206Y0286942D01*
X0069241Y0286994D01*
X0069279Y0287043D01*
X0069321Y0287091D01*
X0069365Y0287135D01*
X0069413Y0287177D01*
X0069462Y0287215D01*
X0069514Y0287250D01*
X0069568Y0287282D01*
X0069624Y0287311D01*
X0069682Y0287336D01*
X0069741Y0287357D01*
X0069801Y0287375D01*
X0069863Y0287388D01*
X0069925Y0287398D01*
X0069987Y0287404D01*
X0070050Y0287406D01*
X0070113Y0287404D01*
X0070175Y0287398D01*
X0070237Y0287388D01*
X0070299Y0287375D01*
X0070359Y0287357D01*
X0070418Y0287336D01*
X0070476Y0287311D01*
X0070532Y0287282D01*
X0070586Y0287250D01*
X0070638Y0287215D01*
X0070687Y0287177D01*
X0070735Y0287135D01*
X0070779Y0287091D01*
X0070821Y0287043D01*
X0070859Y0286994D01*
X0070894Y0286942D01*
X0070926Y0286888D01*
X0070955Y0286832D01*
X0070980Y0286774D01*
X0071001Y0286715D01*
X0071019Y0286655D01*
X0071032Y0286593D01*
X0071042Y0286531D01*
X0071048Y0286469D01*
X0071050Y0286406D01*
X0071048Y0286343D01*
X0071042Y0286281D01*
X0071032Y0286219D01*
X0071019Y0286157D01*
X0071001Y0286097D01*
X0070980Y0286038D01*
X0070955Y0285980D01*
X0070926Y0285924D01*
X0070894Y0285870D01*
X0070859Y0285818D01*
X0070821Y0285769D01*
X0070779Y0285721D01*
X0070735Y0285677D01*
X0070687Y0285635D01*
X0070638Y0285597D01*
X0070586Y0285562D01*
X0070532Y0285530D01*
X0070476Y0285501D01*
X0070418Y0285476D01*
X0070359Y0285455D01*
X0070299Y0285437D01*
X0070237Y0285424D01*
X0070175Y0285414D01*
X0070113Y0285408D01*
X0070050Y0285406D01*
X0069987Y0285408D01*
X0069925Y0285414D01*
X0069863Y0285424D01*
X0069801Y0285437D01*
X0069741Y0285455D01*
X0069682Y0285476D01*
X0069624Y0285501D01*
X0069568Y0285530D01*
X0069514Y0285562D01*
X0069462Y0285597D01*
X0069413Y0285635D01*
X0069365Y0285677D01*
X0069321Y0285721D01*
X0069279Y0285769D01*
X0069241Y0285818D01*
X0069206Y0285870D01*
X0069174Y0285924D01*
X0069145Y0285980D01*
X0069120Y0286038D01*
X0069099Y0286097D01*
X0069081Y0286157D01*
X0069068Y0286219D01*
X0069058Y0286281D01*
X0069052Y0286343D01*
X0069050Y0286406D01*
X0069250Y0284006D02*
X0106250Y0284006D01*
X0107250Y0285006D01*
X0107750Y0296506D01*
X0115750Y0299506D02*
X0115250Y0288006D01*
X0115750Y0299506D02*
X0116750Y0300506D01*
X0153750Y0300506D01*
X0154750Y0299506D01*
X0155250Y0288006D01*
X0157500Y0285506D02*
X0157500Y0296506D01*
X0157502Y0296566D01*
X0157507Y0296627D01*
X0157516Y0296686D01*
X0157529Y0296745D01*
X0157545Y0296804D01*
X0157565Y0296861D01*
X0157588Y0296916D01*
X0157615Y0296971D01*
X0157644Y0297023D01*
X0157677Y0297074D01*
X0157713Y0297123D01*
X0157751Y0297169D01*
X0157793Y0297213D01*
X0157837Y0297255D01*
X0157883Y0297293D01*
X0157932Y0297329D01*
X0157983Y0297362D01*
X0158035Y0297391D01*
X0158090Y0297418D01*
X0158145Y0297441D01*
X0158202Y0297461D01*
X0158261Y0297477D01*
X0158320Y0297490D01*
X0158379Y0297499D01*
X0158440Y0297504D01*
X0158500Y0297506D01*
X0164500Y0297506D01*
X0164560Y0297504D01*
X0164621Y0297499D01*
X0164680Y0297490D01*
X0164739Y0297477D01*
X0164798Y0297461D01*
X0164855Y0297441D01*
X0164910Y0297418D01*
X0164965Y0297391D01*
X0165017Y0297362D01*
X0165068Y0297329D01*
X0165117Y0297293D01*
X0165163Y0297255D01*
X0165207Y0297213D01*
X0165249Y0297169D01*
X0165287Y0297123D01*
X0165323Y0297074D01*
X0165356Y0297023D01*
X0165385Y0296971D01*
X0165412Y0296916D01*
X0165435Y0296861D01*
X0165455Y0296804D01*
X0165471Y0296745D01*
X0165484Y0296686D01*
X0165493Y0296627D01*
X0165498Y0296566D01*
X0165500Y0296506D01*
X0165500Y0285506D01*
X0165498Y0285446D01*
X0165493Y0285385D01*
X0165484Y0285326D01*
X0165471Y0285267D01*
X0165455Y0285208D01*
X0165435Y0285151D01*
X0165412Y0285096D01*
X0165385Y0285041D01*
X0165356Y0284989D01*
X0165323Y0284938D01*
X0165287Y0284889D01*
X0165249Y0284843D01*
X0165207Y0284799D01*
X0165163Y0284757D01*
X0165117Y0284719D01*
X0165068Y0284683D01*
X0165017Y0284650D01*
X0164965Y0284621D01*
X0164910Y0284594D01*
X0164855Y0284571D01*
X0164798Y0284551D01*
X0164739Y0284535D01*
X0164680Y0284522D01*
X0164621Y0284513D01*
X0164560Y0284508D01*
X0164500Y0284506D01*
X0158500Y0284506D01*
X0158440Y0284508D01*
X0158379Y0284513D01*
X0158320Y0284522D01*
X0158261Y0284535D01*
X0158202Y0284551D01*
X0158145Y0284571D01*
X0158090Y0284594D01*
X0158035Y0284621D01*
X0157983Y0284650D01*
X0157932Y0284683D01*
X0157883Y0284719D01*
X0157837Y0284757D01*
X0157793Y0284799D01*
X0157751Y0284843D01*
X0157713Y0284889D01*
X0157677Y0284938D01*
X0157644Y0284989D01*
X0157615Y0285041D01*
X0157588Y0285096D01*
X0157565Y0285151D01*
X0157545Y0285208D01*
X0157529Y0285267D01*
X0157516Y0285326D01*
X0157507Y0285385D01*
X0157502Y0285446D01*
X0157500Y0285506D01*
X0168250Y0285006D02*
X0167750Y0296506D01*
X0161951Y0307957D02*
X0161951Y0326654D01*
X0157750Y0332256D02*
X0157750Y0302256D01*
X0147750Y0302256D01*
X0147750Y0332256D01*
X0157750Y0332256D01*
X0173549Y0326654D02*
X0173549Y0307957D01*
X0169050Y0286406D02*
X0169052Y0286469D01*
X0169058Y0286531D01*
X0169068Y0286593D01*
X0169081Y0286655D01*
X0169099Y0286715D01*
X0169120Y0286774D01*
X0169145Y0286832D01*
X0169174Y0286888D01*
X0169206Y0286942D01*
X0169241Y0286994D01*
X0169279Y0287043D01*
X0169321Y0287091D01*
X0169365Y0287135D01*
X0169413Y0287177D01*
X0169462Y0287215D01*
X0169514Y0287250D01*
X0169568Y0287282D01*
X0169624Y0287311D01*
X0169682Y0287336D01*
X0169741Y0287357D01*
X0169801Y0287375D01*
X0169863Y0287388D01*
X0169925Y0287398D01*
X0169987Y0287404D01*
X0170050Y0287406D01*
X0170113Y0287404D01*
X0170175Y0287398D01*
X0170237Y0287388D01*
X0170299Y0287375D01*
X0170359Y0287357D01*
X0170418Y0287336D01*
X0170476Y0287311D01*
X0170532Y0287282D01*
X0170586Y0287250D01*
X0170638Y0287215D01*
X0170687Y0287177D01*
X0170735Y0287135D01*
X0170779Y0287091D01*
X0170821Y0287043D01*
X0170859Y0286994D01*
X0170894Y0286942D01*
X0170926Y0286888D01*
X0170955Y0286832D01*
X0170980Y0286774D01*
X0171001Y0286715D01*
X0171019Y0286655D01*
X0171032Y0286593D01*
X0171042Y0286531D01*
X0171048Y0286469D01*
X0171050Y0286406D01*
X0171048Y0286343D01*
X0171042Y0286281D01*
X0171032Y0286219D01*
X0171019Y0286157D01*
X0171001Y0286097D01*
X0170980Y0286038D01*
X0170955Y0285980D01*
X0170926Y0285924D01*
X0170894Y0285870D01*
X0170859Y0285818D01*
X0170821Y0285769D01*
X0170779Y0285721D01*
X0170735Y0285677D01*
X0170687Y0285635D01*
X0170638Y0285597D01*
X0170586Y0285562D01*
X0170532Y0285530D01*
X0170476Y0285501D01*
X0170418Y0285476D01*
X0170359Y0285455D01*
X0170299Y0285437D01*
X0170237Y0285424D01*
X0170175Y0285414D01*
X0170113Y0285408D01*
X0170050Y0285406D01*
X0169987Y0285408D01*
X0169925Y0285414D01*
X0169863Y0285424D01*
X0169801Y0285437D01*
X0169741Y0285455D01*
X0169682Y0285476D01*
X0169624Y0285501D01*
X0169568Y0285530D01*
X0169514Y0285562D01*
X0169462Y0285597D01*
X0169413Y0285635D01*
X0169365Y0285677D01*
X0169321Y0285721D01*
X0169279Y0285769D01*
X0169241Y0285818D01*
X0169206Y0285870D01*
X0169174Y0285924D01*
X0169145Y0285980D01*
X0169120Y0286038D01*
X0169099Y0286097D01*
X0169081Y0286157D01*
X0169068Y0286219D01*
X0169058Y0286281D01*
X0169052Y0286343D01*
X0169050Y0286406D01*
X0168250Y0285006D02*
X0169250Y0284006D01*
X0206250Y0284006D01*
X0207250Y0285006D01*
X0207750Y0296506D01*
X0215750Y0297006D02*
X0216750Y0298006D01*
X0253750Y0298006D01*
X0254750Y0297006D01*
X0255250Y0285506D01*
X0257500Y0283006D02*
X0257500Y0294006D01*
X0257502Y0294066D01*
X0257507Y0294127D01*
X0257516Y0294186D01*
X0257529Y0294245D01*
X0257545Y0294304D01*
X0257565Y0294361D01*
X0257588Y0294416D01*
X0257615Y0294471D01*
X0257644Y0294523D01*
X0257677Y0294574D01*
X0257713Y0294623D01*
X0257751Y0294669D01*
X0257793Y0294713D01*
X0257837Y0294755D01*
X0257883Y0294793D01*
X0257932Y0294829D01*
X0257983Y0294862D01*
X0258035Y0294891D01*
X0258090Y0294918D01*
X0258145Y0294941D01*
X0258202Y0294961D01*
X0258261Y0294977D01*
X0258320Y0294990D01*
X0258379Y0294999D01*
X0258440Y0295004D01*
X0258500Y0295006D01*
X0264500Y0295006D01*
X0264560Y0295004D01*
X0264621Y0294999D01*
X0264680Y0294990D01*
X0264739Y0294977D01*
X0264798Y0294961D01*
X0264855Y0294941D01*
X0264910Y0294918D01*
X0264965Y0294891D01*
X0265017Y0294862D01*
X0265068Y0294829D01*
X0265117Y0294793D01*
X0265163Y0294755D01*
X0265207Y0294713D01*
X0265249Y0294669D01*
X0265287Y0294623D01*
X0265323Y0294574D01*
X0265356Y0294523D01*
X0265385Y0294471D01*
X0265412Y0294416D01*
X0265435Y0294361D01*
X0265455Y0294304D01*
X0265471Y0294245D01*
X0265484Y0294186D01*
X0265493Y0294127D01*
X0265498Y0294066D01*
X0265500Y0294006D01*
X0265500Y0283006D01*
X0265498Y0282946D01*
X0265493Y0282885D01*
X0265484Y0282826D01*
X0265471Y0282767D01*
X0265455Y0282708D01*
X0265435Y0282651D01*
X0265412Y0282596D01*
X0265385Y0282541D01*
X0265356Y0282489D01*
X0265323Y0282438D01*
X0265287Y0282389D01*
X0265249Y0282343D01*
X0265207Y0282299D01*
X0265163Y0282257D01*
X0265117Y0282219D01*
X0265068Y0282183D01*
X0265017Y0282150D01*
X0264965Y0282121D01*
X0264910Y0282094D01*
X0264855Y0282071D01*
X0264798Y0282051D01*
X0264739Y0282035D01*
X0264680Y0282022D01*
X0264621Y0282013D01*
X0264560Y0282008D01*
X0264500Y0282006D01*
X0258500Y0282006D01*
X0258440Y0282008D01*
X0258379Y0282013D01*
X0258320Y0282022D01*
X0258261Y0282035D01*
X0258202Y0282051D01*
X0258145Y0282071D01*
X0258090Y0282094D01*
X0258035Y0282121D01*
X0257983Y0282150D01*
X0257932Y0282183D01*
X0257883Y0282219D01*
X0257837Y0282257D01*
X0257793Y0282299D01*
X0257751Y0282343D01*
X0257713Y0282389D01*
X0257677Y0282438D01*
X0257644Y0282489D01*
X0257615Y0282541D01*
X0257588Y0282596D01*
X0257565Y0282651D01*
X0257545Y0282708D01*
X0257529Y0282767D01*
X0257516Y0282826D01*
X0257507Y0282885D01*
X0257502Y0282946D01*
X0257500Y0283006D01*
X0268250Y0282506D02*
X0267750Y0294006D01*
X0269050Y0283906D02*
X0269052Y0283969D01*
X0269058Y0284031D01*
X0269068Y0284093D01*
X0269081Y0284155D01*
X0269099Y0284215D01*
X0269120Y0284274D01*
X0269145Y0284332D01*
X0269174Y0284388D01*
X0269206Y0284442D01*
X0269241Y0284494D01*
X0269279Y0284543D01*
X0269321Y0284591D01*
X0269365Y0284635D01*
X0269413Y0284677D01*
X0269462Y0284715D01*
X0269514Y0284750D01*
X0269568Y0284782D01*
X0269624Y0284811D01*
X0269682Y0284836D01*
X0269741Y0284857D01*
X0269801Y0284875D01*
X0269863Y0284888D01*
X0269925Y0284898D01*
X0269987Y0284904D01*
X0270050Y0284906D01*
X0270113Y0284904D01*
X0270175Y0284898D01*
X0270237Y0284888D01*
X0270299Y0284875D01*
X0270359Y0284857D01*
X0270418Y0284836D01*
X0270476Y0284811D01*
X0270532Y0284782D01*
X0270586Y0284750D01*
X0270638Y0284715D01*
X0270687Y0284677D01*
X0270735Y0284635D01*
X0270779Y0284591D01*
X0270821Y0284543D01*
X0270859Y0284494D01*
X0270894Y0284442D01*
X0270926Y0284388D01*
X0270955Y0284332D01*
X0270980Y0284274D01*
X0271001Y0284215D01*
X0271019Y0284155D01*
X0271032Y0284093D01*
X0271042Y0284031D01*
X0271048Y0283969D01*
X0271050Y0283906D01*
X0271048Y0283843D01*
X0271042Y0283781D01*
X0271032Y0283719D01*
X0271019Y0283657D01*
X0271001Y0283597D01*
X0270980Y0283538D01*
X0270955Y0283480D01*
X0270926Y0283424D01*
X0270894Y0283370D01*
X0270859Y0283318D01*
X0270821Y0283269D01*
X0270779Y0283221D01*
X0270735Y0283177D01*
X0270687Y0283135D01*
X0270638Y0283097D01*
X0270586Y0283062D01*
X0270532Y0283030D01*
X0270476Y0283001D01*
X0270418Y0282976D01*
X0270359Y0282955D01*
X0270299Y0282937D01*
X0270237Y0282924D01*
X0270175Y0282914D01*
X0270113Y0282908D01*
X0270050Y0282906D01*
X0269987Y0282908D01*
X0269925Y0282914D01*
X0269863Y0282924D01*
X0269801Y0282937D01*
X0269741Y0282955D01*
X0269682Y0282976D01*
X0269624Y0283001D01*
X0269568Y0283030D01*
X0269514Y0283062D01*
X0269462Y0283097D01*
X0269413Y0283135D01*
X0269365Y0283177D01*
X0269321Y0283221D01*
X0269279Y0283269D01*
X0269241Y0283318D01*
X0269206Y0283370D01*
X0269174Y0283424D01*
X0269145Y0283480D01*
X0269120Y0283538D01*
X0269099Y0283597D01*
X0269081Y0283657D01*
X0269068Y0283719D01*
X0269058Y0283781D01*
X0269052Y0283843D01*
X0269050Y0283906D01*
X0268250Y0282506D02*
X0269250Y0281506D01*
X0306250Y0281506D01*
X0307250Y0282506D01*
X0307750Y0294006D01*
X0273549Y0305457D02*
X0273549Y0324154D01*
X0261951Y0324154D02*
X0261951Y0305457D01*
X0257750Y0299756D02*
X0247750Y0299756D01*
X0247750Y0329756D01*
X0257750Y0329756D01*
X0257750Y0299756D01*
X0251950Y0295606D02*
X0251952Y0295669D01*
X0251958Y0295731D01*
X0251968Y0295793D01*
X0251981Y0295855D01*
X0251999Y0295915D01*
X0252020Y0295974D01*
X0252045Y0296032D01*
X0252074Y0296088D01*
X0252106Y0296142D01*
X0252141Y0296194D01*
X0252179Y0296243D01*
X0252221Y0296291D01*
X0252265Y0296335D01*
X0252313Y0296377D01*
X0252362Y0296415D01*
X0252414Y0296450D01*
X0252468Y0296482D01*
X0252524Y0296511D01*
X0252582Y0296536D01*
X0252641Y0296557D01*
X0252701Y0296575D01*
X0252763Y0296588D01*
X0252825Y0296598D01*
X0252887Y0296604D01*
X0252950Y0296606D01*
X0253013Y0296604D01*
X0253075Y0296598D01*
X0253137Y0296588D01*
X0253199Y0296575D01*
X0253259Y0296557D01*
X0253318Y0296536D01*
X0253376Y0296511D01*
X0253432Y0296482D01*
X0253486Y0296450D01*
X0253538Y0296415D01*
X0253587Y0296377D01*
X0253635Y0296335D01*
X0253679Y0296291D01*
X0253721Y0296243D01*
X0253759Y0296194D01*
X0253794Y0296142D01*
X0253826Y0296088D01*
X0253855Y0296032D01*
X0253880Y0295974D01*
X0253901Y0295915D01*
X0253919Y0295855D01*
X0253932Y0295793D01*
X0253942Y0295731D01*
X0253948Y0295669D01*
X0253950Y0295606D01*
X0253948Y0295543D01*
X0253942Y0295481D01*
X0253932Y0295419D01*
X0253919Y0295357D01*
X0253901Y0295297D01*
X0253880Y0295238D01*
X0253855Y0295180D01*
X0253826Y0295124D01*
X0253794Y0295070D01*
X0253759Y0295018D01*
X0253721Y0294969D01*
X0253679Y0294921D01*
X0253635Y0294877D01*
X0253587Y0294835D01*
X0253538Y0294797D01*
X0253486Y0294762D01*
X0253432Y0294730D01*
X0253376Y0294701D01*
X0253318Y0294676D01*
X0253259Y0294655D01*
X0253199Y0294637D01*
X0253137Y0294624D01*
X0253075Y0294614D01*
X0253013Y0294608D01*
X0252950Y0294606D01*
X0252887Y0294608D01*
X0252825Y0294614D01*
X0252763Y0294624D01*
X0252701Y0294637D01*
X0252641Y0294655D01*
X0252582Y0294676D01*
X0252524Y0294701D01*
X0252468Y0294730D01*
X0252414Y0294762D01*
X0252362Y0294797D01*
X0252313Y0294835D01*
X0252265Y0294877D01*
X0252221Y0294921D01*
X0252179Y0294969D01*
X0252141Y0295018D01*
X0252106Y0295070D01*
X0252074Y0295124D01*
X0252045Y0295180D01*
X0252020Y0295238D01*
X0251999Y0295297D01*
X0251981Y0295357D01*
X0251968Y0295419D01*
X0251958Y0295481D01*
X0251952Y0295543D01*
X0251950Y0295606D01*
X0215750Y0297006D02*
X0215250Y0285506D01*
X0151950Y0298106D02*
X0151952Y0298169D01*
X0151958Y0298231D01*
X0151968Y0298293D01*
X0151981Y0298355D01*
X0151999Y0298415D01*
X0152020Y0298474D01*
X0152045Y0298532D01*
X0152074Y0298588D01*
X0152106Y0298642D01*
X0152141Y0298694D01*
X0152179Y0298743D01*
X0152221Y0298791D01*
X0152265Y0298835D01*
X0152313Y0298877D01*
X0152362Y0298915D01*
X0152414Y0298950D01*
X0152468Y0298982D01*
X0152524Y0299011D01*
X0152582Y0299036D01*
X0152641Y0299057D01*
X0152701Y0299075D01*
X0152763Y0299088D01*
X0152825Y0299098D01*
X0152887Y0299104D01*
X0152950Y0299106D01*
X0153013Y0299104D01*
X0153075Y0299098D01*
X0153137Y0299088D01*
X0153199Y0299075D01*
X0153259Y0299057D01*
X0153318Y0299036D01*
X0153376Y0299011D01*
X0153432Y0298982D01*
X0153486Y0298950D01*
X0153538Y0298915D01*
X0153587Y0298877D01*
X0153635Y0298835D01*
X0153679Y0298791D01*
X0153721Y0298743D01*
X0153759Y0298694D01*
X0153794Y0298642D01*
X0153826Y0298588D01*
X0153855Y0298532D01*
X0153880Y0298474D01*
X0153901Y0298415D01*
X0153919Y0298355D01*
X0153932Y0298293D01*
X0153942Y0298231D01*
X0153948Y0298169D01*
X0153950Y0298106D01*
X0153948Y0298043D01*
X0153942Y0297981D01*
X0153932Y0297919D01*
X0153919Y0297857D01*
X0153901Y0297797D01*
X0153880Y0297738D01*
X0153855Y0297680D01*
X0153826Y0297624D01*
X0153794Y0297570D01*
X0153759Y0297518D01*
X0153721Y0297469D01*
X0153679Y0297421D01*
X0153635Y0297377D01*
X0153587Y0297335D01*
X0153538Y0297297D01*
X0153486Y0297262D01*
X0153432Y0297230D01*
X0153376Y0297201D01*
X0153318Y0297176D01*
X0153259Y0297155D01*
X0153199Y0297137D01*
X0153137Y0297124D01*
X0153075Y0297114D01*
X0153013Y0297108D01*
X0152950Y0297106D01*
X0152887Y0297108D01*
X0152825Y0297114D01*
X0152763Y0297124D01*
X0152701Y0297137D01*
X0152641Y0297155D01*
X0152582Y0297176D01*
X0152524Y0297201D01*
X0152468Y0297230D01*
X0152414Y0297262D01*
X0152362Y0297297D01*
X0152313Y0297335D01*
X0152265Y0297377D01*
X0152221Y0297421D01*
X0152179Y0297469D01*
X0152141Y0297518D01*
X0152106Y0297570D01*
X0152074Y0297624D01*
X0152045Y0297680D01*
X0152020Y0297738D01*
X0151999Y0297797D01*
X0151981Y0297857D01*
X0151968Y0297919D01*
X0151958Y0297981D01*
X0151952Y0298043D01*
X0151950Y0298106D01*
X0197018Y0373790D02*
X0197018Y0376726D01*
X0195550Y0375258D02*
X0198486Y0375258D01*
X0209362Y0373790D02*
X0212298Y0376726D01*
X0212298Y0373790D01*
X0211564Y0373056D01*
X0210096Y0373056D01*
X0209362Y0373790D01*
X0209362Y0376726D01*
X0210096Y0377460D01*
X0211564Y0377460D01*
X0212298Y0376726D01*
X0223174Y0375258D02*
X0226109Y0375258D01*
X0126859Y0377258D02*
X0123924Y0377258D01*
X0113048Y0375790D02*
X0112314Y0375056D01*
X0110846Y0375056D01*
X0110112Y0375790D01*
X0113048Y0378726D01*
X0113048Y0375790D01*
X0113048Y0378726D02*
X0112314Y0379460D01*
X0110846Y0379460D01*
X0110112Y0378726D01*
X0110112Y0375790D01*
X0099236Y0377258D02*
X0096300Y0377258D01*
X0097768Y0378726D02*
X0097768Y0375790D01*
D12*
X0042209Y0052522D02*
X0042209Y0003900D01*
X0080791Y0003900D01*
X0080791Y0052424D01*
X0086697Y0052916D02*
X0036303Y0052916D01*
X0036303Y0087069D01*
X0032858Y0087365D02*
X0090142Y0087365D01*
X0090142Y0143073D01*
X0032858Y0143073D01*
X0032858Y0087365D01*
X0086697Y0086971D02*
X0086697Y0052916D01*
X0132858Y0087365D02*
X0190142Y0087365D01*
X0190142Y0143073D01*
X0132858Y0143073D01*
X0132858Y0087365D01*
X0136303Y0087069D02*
X0136303Y0052916D01*
X0186697Y0052916D01*
X0186697Y0086971D01*
X0180791Y0052424D02*
X0180791Y0003900D01*
X0142209Y0003900D01*
X0142209Y0052522D01*
X0232858Y0084865D02*
X0290142Y0084865D01*
X0290142Y0140573D01*
X0232858Y0140573D01*
X0232858Y0084865D01*
X0236303Y0084569D02*
X0236303Y0050416D01*
X0286697Y0050416D01*
X0286697Y0084471D01*
X0280791Y0049924D02*
X0280791Y0001400D01*
X0242209Y0001400D01*
X0242209Y0050022D01*
X0278301Y0172276D02*
X0278301Y0174244D01*
X0297199Y0174244D01*
X0297199Y0172276D01*
X0278301Y0172276D01*
X0278301Y0174244D02*
X0278301Y0187237D01*
X0297199Y0187237D01*
X0297199Y0174244D01*
X0293449Y0216026D02*
X0274551Y0216026D01*
X0274551Y0217994D01*
X0293449Y0217994D01*
X0293449Y0216026D01*
X0293449Y0217994D02*
X0293449Y0230987D01*
X0274551Y0230987D01*
X0274551Y0217994D01*
X0274551Y0253526D02*
X0274551Y0255494D01*
X0293449Y0255494D01*
X0293449Y0253526D01*
X0274551Y0253526D01*
X0274551Y0255494D02*
X0274551Y0268487D01*
X0293449Y0268487D01*
X0293449Y0255494D01*
X0250949Y0253526D02*
X0232051Y0253526D01*
X0232051Y0266518D01*
X0250949Y0266518D01*
X0250949Y0253526D01*
X0250949Y0266518D02*
X0250949Y0268487D01*
X0232051Y0268487D01*
X0232051Y0266518D01*
X0193449Y0270987D02*
X0193449Y0257994D01*
X0174551Y0257994D01*
X0174551Y0270987D01*
X0193449Y0270987D01*
X0193449Y0257994D02*
X0193449Y0256026D01*
X0174551Y0256026D01*
X0174551Y0257994D01*
X0150949Y0256026D02*
X0132051Y0256026D01*
X0132051Y0269018D01*
X0150949Y0269018D01*
X0150949Y0256026D01*
X0150949Y0269018D02*
X0150949Y0270987D01*
X0132051Y0270987D01*
X0132051Y0269018D01*
X0093449Y0270987D02*
X0093449Y0257994D01*
X0074551Y0257994D01*
X0074551Y0270987D01*
X0093449Y0270987D01*
X0093449Y0257994D02*
X0093449Y0256026D01*
X0074551Y0256026D01*
X0074551Y0257994D01*
X0050949Y0256026D02*
X0032051Y0256026D01*
X0032051Y0269018D01*
X0050949Y0269018D01*
X0050949Y0256026D01*
X0050949Y0269018D02*
X0050949Y0270987D01*
X0032051Y0270987D01*
X0032051Y0269018D01*
X0074551Y0233487D02*
X0074551Y0220494D01*
X0093449Y0220494D01*
X0093449Y0218526D01*
X0074551Y0218526D01*
X0074551Y0220494D01*
X0074551Y0233487D02*
X0093449Y0233487D01*
X0093449Y0220494D01*
X0097199Y0189737D02*
X0078301Y0189737D01*
X0078301Y0176744D01*
X0097199Y0176744D01*
X0097199Y0174776D01*
X0078301Y0174776D01*
X0078301Y0176744D01*
X0097199Y0176744D02*
X0097199Y0189737D01*
X0174551Y0218526D02*
X0174551Y0220494D01*
X0193449Y0220494D01*
X0193449Y0218526D01*
X0174551Y0218526D01*
X0174551Y0220494D02*
X0174551Y0233487D01*
X0193449Y0233487D01*
X0193449Y0220494D01*
X0197199Y0189737D02*
X0178301Y0189737D01*
X0178301Y0176744D01*
X0197199Y0176744D01*
X0197199Y0174776D01*
X0178301Y0174776D01*
X0178301Y0176744D01*
X0197199Y0176744D02*
X0197199Y0189737D01*
D13*
X0161500Y0021754D03*
X0261500Y0019254D03*
X0061500Y0021754D03*
D14*
X0075500Y0145506D02*
X0075500Y0151506D01*
X0087500Y0151506D01*
X0087500Y0145506D01*
X0075500Y0145506D01*
X0081250Y0153006D02*
X0069250Y0153006D01*
X0069250Y0159006D01*
X0081250Y0159006D01*
X0081250Y0153006D01*
X0081750Y0153006D02*
X0081750Y0159006D01*
X0093750Y0159006D01*
X0093750Y0153006D01*
X0081750Y0153006D01*
X0081750Y0159256D02*
X0081750Y0165256D01*
X0093750Y0165256D01*
X0093750Y0159256D01*
X0081750Y0159256D01*
X0088250Y0151506D02*
X0100250Y0151506D01*
X0100250Y0145506D01*
X0088250Y0145506D01*
X0088250Y0151506D01*
X0094250Y0153006D02*
X0094250Y0159006D01*
X0106250Y0159006D01*
X0106250Y0153006D01*
X0094250Y0153006D01*
X0098000Y0169256D02*
X0098000Y0175256D01*
X0110000Y0175256D01*
X0110000Y0169256D01*
X0098000Y0169256D01*
X0099750Y0176256D02*
X0099750Y0188256D01*
X0105750Y0188256D01*
X0105750Y0176256D01*
X0099750Y0176256D01*
X0096250Y0198006D02*
X0084250Y0198006D01*
X0084250Y0204006D01*
X0096250Y0204006D01*
X0096250Y0198006D01*
X0096250Y0204256D02*
X0096250Y0210256D01*
X0084250Y0210256D01*
X0084250Y0204256D01*
X0096250Y0204256D01*
X0095500Y0212756D02*
X0095500Y0218756D01*
X0107500Y0218756D01*
X0107500Y0212756D01*
X0095500Y0212756D01*
X0094750Y0220006D02*
X0100750Y0220006D01*
X0100750Y0232006D01*
X0094750Y0232006D01*
X0094750Y0220006D01*
X0092500Y0241756D02*
X0080500Y0241756D01*
X0080500Y0247756D01*
X0092500Y0247756D01*
X0092500Y0241756D01*
X0094750Y0257506D02*
X0094750Y0269506D01*
X0100750Y0269506D01*
X0100750Y0257506D01*
X0094750Y0257506D01*
X0101000Y0257506D02*
X0101000Y0269506D01*
X0107000Y0269506D01*
X0107000Y0257506D01*
X0101000Y0257506D01*
X0117250Y0257506D02*
X0117250Y0269506D01*
X0123250Y0269506D01*
X0123250Y0257506D01*
X0117250Y0257506D01*
X0123500Y0257506D02*
X0123500Y0269506D01*
X0129500Y0269506D01*
X0129500Y0257506D01*
X0123500Y0257506D01*
X0118000Y0270756D02*
X0118000Y0276756D01*
X0130000Y0276756D01*
X0130000Y0270756D01*
X0118000Y0270756D01*
X0130500Y0242756D02*
X0130500Y0232756D01*
X0147500Y0232756D01*
X0147500Y0242756D01*
X0130500Y0242756D01*
X0153000Y0257256D02*
X0153000Y0269256D01*
X0159000Y0269256D01*
X0159000Y0257256D01*
X0153000Y0257256D01*
X0161000Y0257506D02*
X0161000Y0269506D01*
X0167000Y0269506D01*
X0167000Y0257506D01*
X0161000Y0257506D01*
X0167250Y0257506D02*
X0167250Y0269506D01*
X0173250Y0269506D01*
X0173250Y0257506D01*
X0167250Y0257506D01*
X0180500Y0247756D02*
X0180500Y0241756D01*
X0192500Y0241756D01*
X0192500Y0247756D01*
X0180500Y0247756D01*
X0173750Y0239006D02*
X0173750Y0233006D01*
X0161750Y0233006D01*
X0161750Y0239006D01*
X0173750Y0239006D01*
X0194750Y0232006D02*
X0194750Y0220006D01*
X0200750Y0220006D01*
X0200750Y0232006D01*
X0194750Y0232006D01*
X0195500Y0218756D02*
X0207500Y0218756D01*
X0207500Y0212756D01*
X0195500Y0212756D01*
X0195500Y0218756D01*
X0196250Y0210256D02*
X0184250Y0210256D01*
X0184250Y0204256D01*
X0196250Y0204256D01*
X0196250Y0210256D01*
X0196250Y0204006D02*
X0196250Y0198006D01*
X0184250Y0198006D01*
X0184250Y0204006D01*
X0196250Y0204006D01*
X0199750Y0188256D02*
X0205750Y0188256D01*
X0205750Y0176256D01*
X0199750Y0176256D01*
X0199750Y0188256D01*
X0198000Y0175256D02*
X0210000Y0175256D01*
X0210000Y0169256D01*
X0198000Y0169256D01*
X0198000Y0175256D01*
X0193750Y0165256D02*
X0193750Y0159256D01*
X0181750Y0159256D01*
X0181750Y0165256D01*
X0193750Y0165256D01*
X0193750Y0159006D02*
X0193750Y0153006D01*
X0181750Y0153006D01*
X0181750Y0159006D01*
X0193750Y0159006D01*
X0194250Y0159006D02*
X0206250Y0159006D01*
X0206250Y0153006D01*
X0194250Y0153006D01*
X0194250Y0159006D01*
X0188250Y0151506D02*
X0200250Y0151506D01*
X0200250Y0145506D01*
X0188250Y0145506D01*
X0188250Y0151506D01*
X0187500Y0151506D02*
X0187500Y0145506D01*
X0175500Y0145506D01*
X0175500Y0151506D01*
X0187500Y0151506D01*
X0181250Y0153006D02*
X0181250Y0159006D01*
X0169250Y0159006D01*
X0169250Y0153006D01*
X0181250Y0153006D01*
X0177000Y0176256D02*
X0171000Y0176256D01*
X0171000Y0188256D01*
X0177000Y0188256D01*
X0177000Y0176256D01*
X0169500Y0176256D02*
X0163500Y0176256D01*
X0163500Y0188256D01*
X0169500Y0188256D01*
X0169500Y0176256D01*
X0165500Y0189506D02*
X0165500Y0195506D01*
X0177500Y0195506D01*
X0177500Y0189506D01*
X0165500Y0189506D01*
X0147500Y0191006D02*
X0147500Y0181006D01*
X0130500Y0181006D01*
X0130500Y0191006D01*
X0147500Y0191006D01*
X0194750Y0257506D02*
X0194750Y0269506D01*
X0200750Y0269506D01*
X0200750Y0257506D01*
X0194750Y0257506D01*
X0201000Y0257506D02*
X0201000Y0269506D01*
X0207000Y0269506D01*
X0207000Y0257506D01*
X0201000Y0257506D01*
X0217250Y0255006D02*
X0217250Y0267006D01*
X0223250Y0267006D01*
X0223250Y0255006D01*
X0217250Y0255006D01*
X0223500Y0255006D02*
X0223500Y0267006D01*
X0229500Y0267006D01*
X0229500Y0255006D01*
X0223500Y0255006D01*
X0218000Y0268256D02*
X0218000Y0274256D01*
X0230000Y0274256D01*
X0230000Y0268256D01*
X0218000Y0268256D01*
X0230500Y0240256D02*
X0230500Y0230256D01*
X0247500Y0230256D01*
X0247500Y0240256D01*
X0230500Y0240256D01*
X0253000Y0254756D02*
X0253000Y0266756D01*
X0259000Y0266756D01*
X0259000Y0254756D01*
X0253000Y0254756D01*
X0261000Y0255006D02*
X0261000Y0267006D01*
X0267000Y0267006D01*
X0267000Y0255006D01*
X0261000Y0255006D01*
X0267250Y0255006D02*
X0267250Y0267006D01*
X0273250Y0267006D01*
X0273250Y0255006D01*
X0267250Y0255006D01*
X0280500Y0245256D02*
X0280500Y0239256D01*
X0292500Y0239256D01*
X0292500Y0245256D01*
X0280500Y0245256D01*
X0273750Y0236506D02*
X0273750Y0230506D01*
X0261750Y0230506D01*
X0261750Y0236506D01*
X0273750Y0236506D01*
X0294750Y0229506D02*
X0294750Y0217506D01*
X0300750Y0217506D01*
X0300750Y0229506D01*
X0294750Y0229506D01*
X0295500Y0216256D02*
X0307500Y0216256D01*
X0307500Y0210256D01*
X0295500Y0210256D01*
X0295500Y0216256D01*
X0296250Y0207756D02*
X0296250Y0201756D01*
X0284250Y0201756D01*
X0284250Y0207756D01*
X0296250Y0207756D01*
X0296250Y0201506D02*
X0296250Y0195506D01*
X0284250Y0195506D01*
X0284250Y0201506D01*
X0296250Y0201506D01*
X0299750Y0185756D02*
X0305750Y0185756D01*
X0305750Y0173756D01*
X0299750Y0173756D01*
X0299750Y0185756D01*
X0298000Y0172756D02*
X0310000Y0172756D01*
X0310000Y0166756D01*
X0298000Y0166756D01*
X0298000Y0172756D01*
X0293750Y0162756D02*
X0293750Y0156756D01*
X0281750Y0156756D01*
X0281750Y0162756D01*
X0293750Y0162756D01*
X0293750Y0156506D02*
X0293750Y0150506D01*
X0281750Y0150506D01*
X0281750Y0156506D01*
X0293750Y0156506D01*
X0294250Y0156506D02*
X0306250Y0156506D01*
X0306250Y0150506D01*
X0294250Y0150506D01*
X0294250Y0156506D01*
X0288250Y0149006D02*
X0300250Y0149006D01*
X0300250Y0143006D01*
X0288250Y0143006D01*
X0288250Y0149006D01*
X0287500Y0149006D02*
X0287500Y0143006D01*
X0275500Y0143006D01*
X0275500Y0149006D01*
X0287500Y0149006D01*
X0281250Y0150506D02*
X0281250Y0156506D01*
X0269250Y0156506D01*
X0269250Y0150506D01*
X0281250Y0150506D01*
X0277000Y0173756D02*
X0271000Y0173756D01*
X0271000Y0185756D01*
X0277000Y0185756D01*
X0277000Y0173756D01*
X0269500Y0173756D02*
X0263500Y0173756D01*
X0263500Y0185756D01*
X0269500Y0185756D01*
X0269500Y0173756D01*
X0265500Y0187006D02*
X0265500Y0193006D01*
X0277500Y0193006D01*
X0277500Y0187006D01*
X0265500Y0187006D01*
X0294750Y0255006D02*
X0294750Y0267006D01*
X0300750Y0267006D01*
X0300750Y0255006D01*
X0294750Y0255006D01*
X0301000Y0255006D02*
X0301000Y0267006D01*
X0307000Y0267006D01*
X0307000Y0255006D01*
X0301000Y0255006D01*
X0123750Y0333256D02*
X0111750Y0333256D01*
X0111750Y0339256D01*
X0123750Y0339256D01*
X0123750Y0333256D01*
X0123750Y0340756D02*
X0111750Y0340756D01*
X0111750Y0346756D01*
X0123750Y0346756D01*
X0123750Y0340756D01*
X0110750Y0340756D02*
X0098750Y0340756D01*
X0098750Y0346756D01*
X0110750Y0346756D01*
X0110750Y0340756D01*
X0110750Y0339256D02*
X0110750Y0333256D01*
X0098750Y0333256D01*
X0098750Y0339256D01*
X0110750Y0339256D01*
X0073250Y0269506D02*
X0067250Y0269506D01*
X0067250Y0257506D01*
X0073250Y0257506D01*
X0073250Y0269506D01*
X0067000Y0269506D02*
X0061000Y0269506D01*
X0061000Y0257506D01*
X0067000Y0257506D01*
X0067000Y0269506D01*
X0059000Y0269256D02*
X0059000Y0257256D01*
X0053000Y0257256D01*
X0053000Y0269256D01*
X0059000Y0269256D01*
X0047500Y0242756D02*
X0047500Y0232756D01*
X0030500Y0232756D01*
X0030500Y0242756D01*
X0047500Y0242756D01*
X0061750Y0239006D02*
X0061750Y0233006D01*
X0073750Y0233006D01*
X0073750Y0239006D01*
X0061750Y0239006D01*
X0030000Y0270756D02*
X0030000Y0276756D01*
X0018000Y0276756D01*
X0018000Y0270756D01*
X0030000Y0270756D01*
X0029500Y0269506D02*
X0023500Y0269506D01*
X0023500Y0257506D01*
X0029500Y0257506D01*
X0029500Y0269506D01*
X0023250Y0269506D02*
X0017250Y0269506D01*
X0017250Y0257506D01*
X0023250Y0257506D01*
X0023250Y0269506D01*
X0065500Y0195506D02*
X0077500Y0195506D01*
X0077500Y0189506D01*
X0065500Y0189506D01*
X0065500Y0195506D01*
X0063500Y0188256D02*
X0069500Y0188256D01*
X0069500Y0176256D01*
X0063500Y0176256D01*
X0063500Y0188256D01*
X0071000Y0188256D02*
X0077000Y0188256D01*
X0077000Y0176256D01*
X0071000Y0176256D01*
X0071000Y0188256D01*
D15*
X0077750Y0304756D02*
X0077750Y0322256D01*
X0107750Y0322256D01*
X0107750Y0304756D01*
X0077750Y0304756D01*
X0077750Y0322256D02*
X0077750Y0329756D01*
X0107750Y0329756D01*
X0107750Y0322256D01*
X0115250Y0322256D02*
X0145250Y0322256D01*
X0145250Y0304756D01*
X0115250Y0304756D01*
X0115250Y0322256D01*
X0115250Y0329756D01*
X0145250Y0329756D01*
X0145250Y0322256D01*
X0144669Y0334500D02*
X0144669Y0340012D01*
X0153331Y0340012D01*
X0153331Y0334500D01*
X0144669Y0334500D01*
X0151500Y0352006D02*
X0151500Y0369506D01*
X0171500Y0369506D01*
X0171500Y0352006D01*
X0151500Y0352006D01*
X0151500Y0369506D02*
X0151500Y0377006D01*
X0171500Y0377006D01*
X0171500Y0369506D01*
X0196500Y0371006D02*
X0196500Y0363506D01*
X0226500Y0363506D01*
X0226500Y0346006D01*
X0196500Y0346006D01*
X0196500Y0363506D01*
X0196500Y0371006D02*
X0226500Y0371006D01*
X0226500Y0363506D01*
X0251500Y0367006D02*
X0251500Y0349506D01*
X0271500Y0349506D01*
X0271500Y0367006D01*
X0251500Y0367006D01*
X0251500Y0374506D01*
X0271500Y0374506D01*
X0271500Y0367006D01*
X0267169Y0337512D02*
X0267169Y0332000D01*
X0275831Y0332000D01*
X0275831Y0337512D01*
X0267169Y0337512D01*
X0277750Y0327256D02*
X0277750Y0319756D01*
X0307750Y0319756D01*
X0307750Y0302256D01*
X0277750Y0302256D01*
X0277750Y0319756D01*
X0277750Y0327256D02*
X0307750Y0327256D01*
X0307750Y0319756D01*
X0253331Y0332000D02*
X0244669Y0332000D01*
X0244669Y0337512D01*
X0253331Y0337512D01*
X0253331Y0332000D01*
X0245250Y0327256D02*
X0245250Y0319756D01*
X0215250Y0319756D01*
X0215250Y0327256D01*
X0245250Y0327256D01*
X0245250Y0319756D02*
X0245250Y0302256D01*
X0215250Y0302256D01*
X0215250Y0319756D01*
X0207750Y0322256D02*
X0177750Y0322256D01*
X0177750Y0329756D01*
X0207750Y0329756D01*
X0207750Y0322256D01*
X0207750Y0304756D01*
X0177750Y0304756D01*
X0177750Y0322256D01*
X0175831Y0334500D02*
X0167169Y0334500D01*
X0167169Y0340012D01*
X0175831Y0340012D01*
X0175831Y0334500D01*
X0126500Y0348506D02*
X0096500Y0348506D01*
X0096500Y0366006D01*
X0126500Y0366006D01*
X0126500Y0348506D01*
X0126500Y0366006D02*
X0126500Y0373506D01*
X0096500Y0373506D01*
X0096500Y0366006D01*
X0075831Y0340012D02*
X0075831Y0334500D01*
X0067169Y0334500D01*
X0067169Y0340012D01*
X0075831Y0340012D01*
X0071500Y0352006D02*
X0051500Y0352006D01*
X0051500Y0369506D01*
X0071500Y0369506D01*
X0071500Y0352006D01*
X0071500Y0369506D02*
X0071500Y0377006D01*
X0051500Y0377006D01*
X0051500Y0369506D01*
X0053331Y0340012D02*
X0044669Y0340012D01*
X0044669Y0334500D01*
X0053331Y0334500D01*
X0053331Y0340012D01*
X0045250Y0329756D02*
X0045250Y0322256D01*
X0015250Y0322256D01*
X0015250Y0329756D01*
X0045250Y0329756D01*
X0045250Y0322256D02*
X0045250Y0304756D01*
X0015250Y0304756D01*
X0015250Y0322256D01*
D16*
X0046638Y0337355D03*
X0069138Y0337355D03*
X0146638Y0337355D03*
X0169138Y0337355D03*
X0246638Y0334855D03*
X0269138Y0334855D03*
D17*
X0287750Y0297006D03*
X0235250Y0282506D03*
X0187750Y0299506D03*
X0135250Y0285006D03*
X0087750Y0299506D03*
X0035250Y0285006D03*
D18*
X0018000Y0287506D03*
X0052500Y0287506D03*
X0070500Y0297006D03*
X0105000Y0297006D03*
X0118000Y0287506D03*
X0152500Y0287506D03*
X0170500Y0297006D03*
X0205000Y0297006D03*
X0218000Y0285006D03*
X0252500Y0285006D03*
X0270500Y0294506D03*
X0305000Y0294506D03*
D19*
X0292750Y0294506D03*
X0282750Y0294506D03*
X0240250Y0285006D03*
X0230250Y0285006D03*
X0192750Y0297006D03*
X0182750Y0297006D03*
X0140250Y0287506D03*
X0130250Y0287506D03*
X0092750Y0297006D03*
X0082750Y0297006D03*
X0040250Y0287506D03*
X0030250Y0287506D03*
D20*
X0059943Y0301615D02*
X0075557Y0301615D01*
X0075557Y0332898D01*
X0059943Y0332898D01*
X0059943Y0301615D01*
X0159943Y0301615D02*
X0175557Y0301615D01*
X0175557Y0332898D01*
X0159943Y0332898D01*
X0159943Y0301615D01*
X0259943Y0299115D02*
X0275557Y0299115D01*
X0275557Y0330398D01*
X0259943Y0330398D01*
X0259943Y0299115D01*
M02*
