%
M48
M72
T01C0.02362
T02C0.03150
T03C0.03937
T04C0.04000
T05C0.08661
T06C0.13000
%
T01
X81709Y102554
X66945Y156688
X77772Y191137
X88598Y193105
X116157Y193105
X144701Y193105
X115173Y208853
X87614Y208853
X153559Y228538
X160449Y252160
X145685Y256097
X160449Y262003
X126984Y261019
X235252Y240349
X260843Y226570
X286433Y267908
X392732Y220664
X404543Y224601
X396669Y189168
X392724Y174778
X420291Y166530
X438008Y168499
X272370Y129924
X154543Y156688
T02
X223441Y134050
X233441Y134050
X420291Y134050
X430291Y134050
X518717Y134050
X528717Y134050
T03
X133874Y232396
X133874Y242396
T04
X286236Y219412
X286236Y209412
X286236Y199412
X286236Y189412
X286236Y179412
X286236Y169412
X286236Y159412
X286236Y149412
X286236Y139412
X286236Y129412
X286236Y119412
X286236Y109412
X356236Y109412
X356236Y119412
X356236Y129412
X356236Y139412
X356236Y149412
X356236Y159412
X356236Y169412
X356236Y179412
X356236Y189412
X356236Y199412
X356236Y209412
X356236Y219412
X124804Y140471
X114004Y140471
X103204Y140471
X92404Y140471
X81604Y140471
X70804Y140471
X60004Y140471
X49204Y140471
X54604Y130471
X65404Y130471
X76204Y130471
X87004Y130471
X97804Y130471
X108604Y130471
X119404Y130471
T05
X203441Y114050
X243441Y114050
X400291Y114050
X440291Y114050
X498717Y114050
X538717Y114050
T06
X152604Y135471
X21404Y135471
M30
