G75*
%MOIN*%
%OFA0B0*%
%FSLAX25Y25*%
%IPPOS*%
%LPD*%
%AMOC8*
5,1,8,0,0,1.08239X$1,22.5*
%
%ADD10R,0.04800X0.04800*%
%ADD11C,0.08200*%
%ADD12R,0.06800X0.05800*%
%ADD13R,0.02178X0.05328*%
%ADD14OC8,0.06800*%
%ADD15C,0.20800*%
%ADD16R,0.05599X0.09599*%
%ADD17R,0.14973X0.09461*%
%ADD18R,0.06312X0.04737*%
%ADD19R,0.09461X0.07887*%
%ADD20R,0.05524X0.04737*%
%ADD21R,0.03517X0.04698*%
%ADD22R,0.03162X0.05524*%
%ADD23C,0.05950*%
%ADD24C,0.13461*%
%ADD25C,0.06737*%
%ADD26C,0.04762*%
D10*
X0264354Y0115424D03*
X0264354Y0122424D03*
X0267185Y0149404D03*
X0274185Y0149404D03*
X0274185Y0179326D03*
X0267185Y0179326D03*
X0267185Y0189365D03*
X0274185Y0189365D03*
X0274185Y0199404D03*
X0267185Y0199404D03*
X0267185Y0209444D03*
X0274185Y0209444D03*
X0274185Y0219404D03*
X0267185Y0219404D03*
X0267185Y0226333D03*
X0274185Y0226333D03*
X0395630Y0209345D03*
X0395630Y0202948D03*
X0402630Y0202948D03*
X0409465Y0202400D03*
X0409465Y0196605D03*
X0402575Y0196605D03*
X0402575Y0189605D03*
X0409465Y0189605D03*
X0417339Y0180857D03*
X0424228Y0180857D03*
X0431118Y0180857D03*
X0438008Y0180857D03*
X0438008Y0173857D03*
X0431118Y0173857D03*
X0424228Y0173857D03*
X0417339Y0173857D03*
X0414933Y0166530D03*
X0407933Y0166530D03*
X0401154Y0166530D03*
X0394154Y0166530D03*
X0397654Y0160188D03*
X0404543Y0160188D03*
X0411433Y0160188D03*
X0411433Y0153188D03*
X0404543Y0153188D03*
X0397654Y0153188D03*
X0398224Y0174778D03*
X0398224Y0181778D03*
X0402630Y0209345D03*
X0409465Y0209400D03*
X0413205Y0231928D03*
X0413205Y0238928D03*
X0518717Y0161172D03*
X0518717Y0154172D03*
X0154543Y0163030D03*
X0154543Y0170030D03*
X0154543Y0176810D03*
X0154543Y0183810D03*
X0128516Y0195074D03*
X0121516Y0195074D03*
X0100957Y0195074D03*
X0093957Y0195074D03*
X0066945Y0183810D03*
X0066945Y0176810D03*
X0066945Y0170030D03*
X0066945Y0163030D03*
X0106768Y0213227D03*
X0106768Y0220227D03*
X0133874Y0220227D03*
X0133874Y0213227D03*
X0153559Y0233896D03*
X0153559Y0240896D03*
X0153559Y0247676D03*
X0153559Y0254676D03*
X0154106Y0262003D03*
X0147106Y0262003D03*
X0147106Y0268893D03*
X0154106Y0268893D03*
D11*
X0286236Y0219412D03*
X0286236Y0209412D03*
X0286236Y0199412D03*
X0286236Y0189412D03*
X0286236Y0179412D03*
X0286236Y0169412D03*
X0286236Y0159412D03*
X0286236Y0149412D03*
X0286236Y0139412D03*
X0286236Y0129412D03*
X0286236Y0119412D03*
X0286236Y0109412D03*
X0356236Y0109412D03*
X0356236Y0119412D03*
X0356236Y0129412D03*
X0356236Y0139412D03*
X0356236Y0149412D03*
X0356236Y0159412D03*
X0356236Y0169412D03*
X0356236Y0179412D03*
X0356236Y0189412D03*
X0356236Y0199412D03*
X0356236Y0209412D03*
X0356236Y0219412D03*
D12*
X0272370Y0122924D03*
X0272370Y0114924D03*
D13*
X0404425Y0174432D03*
X0406984Y0174432D03*
X0409543Y0174432D03*
X0409543Y0181125D03*
X0404425Y0181125D03*
D14*
X0124804Y0140471D03*
X0114004Y0140471D03*
X0103204Y0140471D03*
X0092404Y0140471D03*
X0081604Y0140471D03*
X0070804Y0140471D03*
X0060004Y0140471D03*
X0049204Y0140471D03*
X0054604Y0130471D03*
X0065404Y0130471D03*
X0076204Y0130471D03*
X0087004Y0130471D03*
X0097804Y0130471D03*
X0108604Y0130471D03*
X0119404Y0130471D03*
D15*
X0152604Y0135471D03*
X0021404Y0135471D03*
D16*
X0088358Y0185621D03*
X0097457Y0185621D03*
X0106555Y0185621D03*
X0115917Y0185621D03*
X0125016Y0185621D03*
X0134114Y0185621D03*
D17*
X0125016Y0161219D03*
X0097457Y0161219D03*
D18*
X0160055Y0233656D03*
X0168717Y0237396D03*
X0160055Y0241137D03*
D19*
X0144701Y0183459D03*
X0144701Y0163381D03*
X0077772Y0163381D03*
X0077772Y0183459D03*
D20*
X0093520Y0200979D03*
X0101394Y0204916D03*
X0093520Y0208853D03*
X0121079Y0208853D03*
X0128953Y0204916D03*
X0121079Y0200979D03*
D21*
X0133677Y0251963D03*
X0141157Y0251963D03*
X0141157Y0262160D03*
X0137417Y0262160D03*
X0133677Y0262160D03*
D22*
X0409465Y0225806D03*
X0413205Y0225806D03*
X0416945Y0225806D03*
X0416945Y0215522D03*
X0409465Y0215522D03*
D23*
X0420291Y0136625D02*
X0420291Y0131475D01*
X0430291Y0131475D02*
X0430291Y0136625D01*
X0518717Y0136625D02*
X0518717Y0131475D01*
X0528717Y0131475D02*
X0528717Y0136625D01*
X0233441Y0136625D02*
X0233441Y0131475D01*
X0223441Y0131475D02*
X0223441Y0136625D01*
D24*
X0243441Y0114050D03*
X0203441Y0114050D03*
X0400291Y0114050D03*
X0440291Y0114050D03*
X0498717Y0114050D03*
X0538717Y0114050D03*
D25*
X0136843Y0232396D02*
X0130906Y0232396D01*
X0130906Y0242396D02*
X0136843Y0242396D01*
D26*
X0081709Y0102554D03*
X0066945Y0156688D03*
X0077772Y0191137D03*
X0088598Y0193105D03*
X0116157Y0193105D03*
X0144701Y0193105D03*
X0115173Y0208853D03*
X0087614Y0208853D03*
X0153559Y0228538D03*
X0160449Y0252160D03*
X0145685Y0256097D03*
X0160449Y0262003D03*
X0126984Y0261019D03*
X0235252Y0240349D03*
X0260843Y0226570D03*
X0286433Y0267908D03*
X0392732Y0220664D03*
X0404543Y0224601D03*
X0396669Y0189168D03*
X0392724Y0174778D03*
X0420291Y0166530D03*
X0438008Y0168499D03*
X0272370Y0129924D03*
X0154543Y0156688D03*
M02*
