G75*
%MOIN*%
%OFA0B0*%
%FSLAX25Y25*%
%IPPOS*%
%LPD*%
%AMOC8*
5,1,8,0,0,1.08239X$1,22.5*
%
%ADD10C,0.08200*%
%ADD11OC8,0.06800*%
%ADD12C,0.20800*%
%ADD13C,0.05950*%
%ADD14C,0.13461*%
%ADD15C,0.06737*%
%ADD16C,0.04762*%
D10*
X0286236Y0109412D03*
X0286236Y0119412D03*
X0286236Y0129412D03*
X0286236Y0139412D03*
X0286236Y0149412D03*
X0286236Y0159412D03*
X0286236Y0169412D03*
X0286236Y0179412D03*
X0286236Y0189412D03*
X0286236Y0199412D03*
X0286236Y0209412D03*
X0286236Y0219412D03*
X0356236Y0219412D03*
X0356236Y0209412D03*
X0356236Y0199412D03*
X0356236Y0189412D03*
X0356236Y0179412D03*
X0356236Y0169412D03*
X0356236Y0159412D03*
X0356236Y0149412D03*
X0356236Y0139412D03*
X0356236Y0129412D03*
X0356236Y0119412D03*
X0356236Y0109412D03*
D11*
X0124804Y0140471D03*
X0114004Y0140471D03*
X0103204Y0140471D03*
X0092404Y0140471D03*
X0081604Y0140471D03*
X0070804Y0140471D03*
X0060004Y0140471D03*
X0049204Y0140471D03*
X0054604Y0130471D03*
X0065404Y0130471D03*
X0076204Y0130471D03*
X0087004Y0130471D03*
X0097804Y0130471D03*
X0108604Y0130471D03*
X0119404Y0130471D03*
D12*
X0152604Y0135471D03*
X0021404Y0135471D03*
D13*
X0223441Y0136625D02*
X0223441Y0131475D01*
X0233441Y0131475D02*
X0233441Y0136625D01*
X0420291Y0136625D02*
X0420291Y0131475D01*
X0430291Y0131475D02*
X0430291Y0136625D01*
X0518717Y0136625D02*
X0518717Y0131475D01*
X0528717Y0131475D02*
X0528717Y0136625D01*
D14*
X0538717Y0114050D03*
X0498717Y0114050D03*
X0440291Y0114050D03*
X0400291Y0114050D03*
X0243441Y0114050D03*
X0203441Y0114050D03*
D15*
X0136843Y0232396D02*
X0130906Y0232396D01*
X0130906Y0242396D02*
X0136843Y0242396D01*
D16*
X0081709Y0102554D03*
X0066945Y0156688D03*
X0077772Y0191137D03*
X0088598Y0193105D03*
X0116157Y0193105D03*
X0144701Y0193105D03*
X0115173Y0208853D03*
X0087614Y0208853D03*
X0153559Y0228538D03*
X0160449Y0252160D03*
X0145685Y0256097D03*
X0160449Y0262003D03*
X0126984Y0261019D03*
X0235252Y0240349D03*
X0260843Y0226570D03*
X0286433Y0267908D03*
X0392732Y0220664D03*
X0404543Y0224601D03*
X0396669Y0189168D03*
X0392724Y0174778D03*
X0420291Y0166530D03*
X0438008Y0168499D03*
X0272370Y0129924D03*
X0154543Y0156688D03*
M02*
