G75*
%MOIN*%
%OFA0B0*%
%FSLAX25Y25*%
%IPPOS*%
%LPD*%
%AMOC8*
5,1,8,0,0,1.08239X$1,22.5*
%
%ADD10C,0.00500*%
%ADD11C,0.00400*%
%ADD12C,0.01200*%
%ADD13C,0.00800*%
%ADD14C,0.00600*%
%ADD15R,0.01000X0.09500*%
%ADD16R,0.04000X0.06500*%
%ADD17R,1.55000X0.02000*%
%ADD18R,1.06000X0.03000*%
%ADD19R,0.03200X0.28500*%
%ADD20R,0.03200X0.18500*%
%ADD21C,0.01000*%
%ADD22R,0.08268X0.01181*%
%ADD23C,0.00039*%
%ADD24C,0.00295*%
%ADD25R,0.07000X0.01200*%
%ADD26C,0.00200*%
D10*
X0040754Y0097221D02*
X0040754Y0101725D01*
X0042255Y0100224D01*
X0043756Y0101725D01*
X0043756Y0097221D01*
X0045358Y0097221D02*
X0048360Y0097221D01*
X0046859Y0097221D02*
X0046859Y0101725D01*
X0045358Y0100224D01*
X0049962Y0099473D02*
X0049962Y0101725D01*
X0052964Y0101725D01*
X0052214Y0100224D02*
X0052964Y0099473D01*
X0052964Y0097972D01*
X0052214Y0097221D01*
X0050712Y0097221D01*
X0049962Y0097972D01*
X0049962Y0099473D02*
X0051463Y0100224D01*
X0052214Y0100224D01*
X0018255Y0113325D02*
X0016754Y0114826D01*
X0016754Y0114076D01*
X0016003Y0114076D01*
X0016003Y0114826D01*
X0016754Y0114826D01*
X0016003Y0116394D02*
X0016754Y0117145D01*
X0016754Y0118646D01*
X0016003Y0119397D01*
X0014502Y0119397D01*
X0013751Y0118646D01*
X0013751Y0117896D01*
X0014502Y0116394D01*
X0012250Y0116394D01*
X0012250Y0119397D01*
X0014502Y0120998D02*
X0014502Y0124001D01*
X0012250Y0123250D02*
X0014502Y0120998D01*
X0016754Y0123250D02*
X0012250Y0123250D01*
X0013001Y0111724D02*
X0012250Y0110973D01*
X0012250Y0109472D01*
X0013001Y0108721D01*
X0013001Y0111724D02*
X0013751Y0111724D01*
X0016754Y0108721D01*
X0016754Y0111724D01*
X0040754Y0128472D02*
X0041505Y0127721D01*
X0043006Y0127721D01*
X0043756Y0128472D01*
X0043756Y0131474D01*
X0043006Y0132225D01*
X0041505Y0132225D01*
X0040754Y0131474D01*
X0040754Y0130724D01*
X0041505Y0129973D01*
X0043756Y0129973D01*
X0043756Y0138221D02*
X0040754Y0138221D01*
X0042255Y0138221D02*
X0042255Y0142725D01*
X0040754Y0141224D01*
X0063945Y0160530D02*
X0069945Y0160530D01*
X0069945Y0172530D01*
X0063945Y0172530D01*
X0063945Y0160530D01*
X0063945Y0174310D02*
X0063945Y0186310D01*
X0069945Y0186310D01*
X0069945Y0174310D01*
X0063945Y0174310D01*
X0091457Y0192074D02*
X0091457Y0198074D01*
X0103457Y0198074D01*
X0103457Y0192074D01*
X0091457Y0192074D01*
X0119016Y0192074D02*
X0119016Y0198074D01*
X0131016Y0198074D01*
X0131016Y0192074D01*
X0119016Y0192074D01*
X0109768Y0210727D02*
X0103768Y0210727D01*
X0103768Y0222727D01*
X0109768Y0222727D01*
X0109768Y0210727D01*
X0130874Y0210727D02*
X0130874Y0222727D01*
X0136874Y0222727D01*
X0136874Y0210727D01*
X0130874Y0210727D01*
X0150559Y0231396D02*
X0150559Y0243396D01*
X0156559Y0243396D01*
X0156559Y0231396D01*
X0150559Y0231396D01*
X0150559Y0245176D02*
X0156559Y0245176D01*
X0156559Y0257176D01*
X0150559Y0257176D01*
X0150559Y0245176D01*
X0143008Y0253932D02*
X0143008Y0260231D01*
X0144606Y0259003D02*
X0144606Y0265003D01*
X0156606Y0265003D01*
X0156606Y0259003D01*
X0144606Y0259003D01*
X0131827Y0260231D02*
X0131827Y0253932D01*
X0144606Y0265893D02*
X0144606Y0271893D01*
X0156606Y0271893D01*
X0156606Y0265893D01*
X0144606Y0265893D01*
X0264685Y0229333D02*
X0264685Y0223333D01*
X0276685Y0223333D01*
X0276685Y0229333D01*
X0264685Y0229333D01*
X0264685Y0222404D02*
X0276685Y0222404D01*
X0276685Y0216404D01*
X0264685Y0216404D01*
X0264685Y0222404D01*
X0264685Y0212444D02*
X0276685Y0212444D01*
X0276685Y0206444D01*
X0264685Y0206444D01*
X0264685Y0212444D01*
X0264685Y0202404D02*
X0276685Y0202404D01*
X0276685Y0196404D01*
X0264685Y0196404D01*
X0264685Y0202404D01*
X0264685Y0192365D02*
X0276685Y0192365D01*
X0276685Y0186365D01*
X0264685Y0186365D01*
X0264685Y0192365D01*
X0264685Y0182326D02*
X0264685Y0176326D01*
X0276685Y0176326D01*
X0276685Y0182326D01*
X0264685Y0182326D01*
X0264685Y0152404D02*
X0264685Y0146404D01*
X0276685Y0146404D01*
X0276685Y0152404D01*
X0264685Y0152404D01*
X0252941Y0145750D02*
X0252941Y0091250D01*
X0193941Y0091250D01*
X0193941Y0145750D01*
X0252941Y0145750D01*
X0240566Y0147020D02*
X0239982Y0147604D01*
X0239982Y0149940D01*
X0239398Y0149356D02*
X0240566Y0149356D01*
X0238050Y0149356D02*
X0238050Y0147020D01*
X0236299Y0147020D01*
X0235715Y0147604D01*
X0235715Y0149356D01*
X0234367Y0148772D02*
X0234367Y0147604D01*
X0233783Y0147020D01*
X0232616Y0147020D01*
X0232032Y0147604D01*
X0232032Y0148772D01*
X0232616Y0149356D01*
X0233783Y0149356D01*
X0234367Y0148772D01*
X0227031Y0149356D02*
X0226447Y0149356D01*
X0225280Y0148188D01*
X0225280Y0147020D02*
X0225280Y0149356D01*
X0223932Y0148772D02*
X0223932Y0148188D01*
X0221596Y0148188D01*
X0221596Y0147604D02*
X0221596Y0148772D01*
X0222180Y0149356D01*
X0223348Y0149356D01*
X0223932Y0148772D01*
X0223348Y0147020D02*
X0222180Y0147020D01*
X0221596Y0147604D01*
X0220249Y0147020D02*
X0218497Y0147020D01*
X0217913Y0147604D01*
X0217913Y0148772D01*
X0218497Y0149356D01*
X0220249Y0149356D01*
X0220249Y0146437D01*
X0219665Y0145853D01*
X0219081Y0145853D01*
X0216565Y0146437D02*
X0216565Y0149356D01*
X0214814Y0149356D01*
X0214230Y0148772D01*
X0214230Y0147604D01*
X0214814Y0147020D01*
X0216565Y0147020D01*
X0216565Y0146437D02*
X0215982Y0145853D01*
X0215398Y0145853D01*
X0212942Y0147020D02*
X0211775Y0147020D01*
X0212359Y0147020D02*
X0212359Y0149356D01*
X0211775Y0149356D01*
X0212359Y0150523D02*
X0212359Y0151107D01*
X0210457Y0149356D02*
X0209873Y0149356D01*
X0208705Y0148188D01*
X0208705Y0147020D02*
X0208705Y0149356D01*
X0207418Y0149356D02*
X0206250Y0149356D01*
X0206834Y0149940D02*
X0206834Y0147604D01*
X0207418Y0147020D01*
X0192898Y0144660D02*
X0192315Y0145244D01*
X0191147Y0145244D01*
X0190563Y0144660D01*
X0189215Y0145244D02*
X0186880Y0141741D01*
X0189215Y0141741D02*
X0186880Y0145244D01*
X0190563Y0141741D02*
X0192898Y0144076D01*
X0192898Y0144660D01*
X0192898Y0141741D02*
X0190563Y0141741D01*
X0157543Y0160530D02*
X0151543Y0160530D01*
X0151543Y0172530D01*
X0157543Y0172530D01*
X0157543Y0160530D01*
X0157543Y0174310D02*
X0151543Y0174310D01*
X0151543Y0186310D01*
X0157543Y0186310D01*
X0157543Y0174310D01*
X0133006Y0142725D02*
X0133756Y0141974D01*
X0133756Y0141224D01*
X0133006Y0140473D01*
X0131505Y0140473D01*
X0130754Y0141224D01*
X0130754Y0141974D01*
X0131505Y0142725D01*
X0133006Y0142725D01*
X0133006Y0140473D02*
X0133756Y0139723D01*
X0133756Y0138972D01*
X0133006Y0138221D01*
X0131505Y0138221D01*
X0130754Y0138972D01*
X0130754Y0139723D01*
X0131505Y0140473D01*
X0131255Y0132725D02*
X0131255Y0128221D01*
X0129754Y0128221D02*
X0132756Y0128221D01*
X0134358Y0128972D02*
X0135109Y0128221D01*
X0136610Y0128221D01*
X0137360Y0128972D01*
X0137360Y0130473D01*
X0136610Y0131224D01*
X0135859Y0131224D01*
X0134358Y0130473D01*
X0134358Y0132725D01*
X0137360Y0132725D01*
X0131255Y0132725D02*
X0129754Y0131224D01*
X0261354Y0124924D02*
X0261354Y0112924D01*
X0267354Y0112924D01*
X0267354Y0124924D01*
X0261354Y0124924D01*
X0268370Y0126924D02*
X0276370Y0126924D01*
X0276370Y0110924D01*
X0268370Y0110924D01*
X0268370Y0126924D01*
X0363303Y0100388D02*
X0363303Y0097469D01*
X0363887Y0096885D01*
X0365054Y0096885D01*
X0365638Y0097469D01*
X0365638Y0100388D01*
X0366986Y0099805D02*
X0367570Y0100388D01*
X0368737Y0100388D01*
X0369321Y0099805D01*
X0369321Y0099221D01*
X0368737Y0098637D01*
X0369321Y0098053D01*
X0369321Y0097469D01*
X0368737Y0096885D01*
X0367570Y0096885D01*
X0366986Y0097469D01*
X0368154Y0098637D02*
X0368737Y0098637D01*
X0390791Y0091250D02*
X0449791Y0091250D01*
X0449791Y0145750D01*
X0390791Y0145750D01*
X0390791Y0091250D01*
X0389165Y0141741D02*
X0389165Y0145244D01*
X0387413Y0143492D01*
X0389749Y0143492D01*
X0386066Y0141741D02*
X0383730Y0145244D01*
X0386066Y0145244D02*
X0383730Y0141741D01*
X0394654Y0150688D02*
X0400654Y0150688D01*
X0400654Y0162688D01*
X0394654Y0162688D01*
X0394654Y0150688D01*
X0401543Y0150688D02*
X0407543Y0150688D01*
X0407543Y0162688D01*
X0401543Y0162688D01*
X0401543Y0150688D01*
X0408433Y0150688D02*
X0414433Y0150688D01*
X0414433Y0162688D01*
X0408433Y0162688D01*
X0408433Y0150688D01*
X0417864Y0149356D02*
X0417864Y0147020D01*
X0419032Y0147020D02*
X0419032Y0148772D01*
X0419616Y0149356D01*
X0420199Y0148772D01*
X0420199Y0147020D01*
X0421547Y0147020D02*
X0422715Y0147020D01*
X0422131Y0147020D02*
X0422131Y0149356D01*
X0421547Y0149356D01*
X0422131Y0150523D02*
X0422131Y0151107D01*
X0424003Y0148772D02*
X0424003Y0147604D01*
X0424587Y0147020D01*
X0426338Y0147020D01*
X0427686Y0147020D02*
X0427686Y0149356D01*
X0428854Y0149356D02*
X0429437Y0149356D01*
X0428854Y0149356D02*
X0427686Y0148188D01*
X0426338Y0149356D02*
X0424587Y0149356D01*
X0424003Y0148772D01*
X0419032Y0148772D02*
X0418448Y0149356D01*
X0417864Y0149356D01*
X0430755Y0148772D02*
X0430755Y0147604D01*
X0431339Y0147020D01*
X0432507Y0147020D01*
X0433090Y0147604D01*
X0433090Y0148772D01*
X0432507Y0149356D01*
X0431339Y0149356D01*
X0430755Y0148772D01*
X0434438Y0149356D02*
X0436190Y0149356D01*
X0436774Y0148772D01*
X0436774Y0147604D01*
X0436190Y0147020D01*
X0434438Y0147020D01*
X0434438Y0145853D02*
X0434438Y0149356D01*
X0438121Y0148772D02*
X0438705Y0149356D01*
X0439873Y0149356D01*
X0440457Y0148772D01*
X0440457Y0147020D01*
X0441805Y0147604D02*
X0441805Y0148772D01*
X0442388Y0149356D01*
X0443556Y0149356D01*
X0444140Y0148772D01*
X0444140Y0147604D01*
X0443556Y0147020D01*
X0442388Y0147020D01*
X0441805Y0147604D01*
X0445488Y0147020D02*
X0445488Y0149356D01*
X0447239Y0149356D01*
X0447823Y0148772D01*
X0447823Y0147020D01*
X0449171Y0147604D02*
X0449171Y0148772D01*
X0449755Y0149356D01*
X0450922Y0149356D01*
X0451506Y0148772D01*
X0451506Y0148188D01*
X0449171Y0148188D01*
X0449171Y0147604D02*
X0449755Y0147020D01*
X0450922Y0147020D01*
X0438121Y0147020D02*
X0438121Y0150523D01*
X0417433Y0163530D02*
X0417433Y0169530D01*
X0405433Y0169530D01*
X0405433Y0163530D01*
X0417433Y0163530D01*
X0403654Y0163530D02*
X0403654Y0169530D01*
X0391654Y0169530D01*
X0391654Y0163530D01*
X0403654Y0163530D01*
X0401224Y0172278D02*
X0395224Y0172278D01*
X0395224Y0184278D01*
X0401224Y0184278D01*
X0401224Y0172278D01*
X0414339Y0171357D02*
X0414339Y0183357D01*
X0420339Y0183357D01*
X0420339Y0171357D01*
X0414339Y0171357D01*
X0421228Y0171357D02*
X0427228Y0171357D01*
X0427228Y0183357D01*
X0421228Y0183357D01*
X0421228Y0171357D01*
X0428118Y0171357D02*
X0434118Y0171357D01*
X0434118Y0183357D01*
X0428118Y0183357D01*
X0428118Y0171357D01*
X0435008Y0171357D02*
X0435008Y0183357D01*
X0441008Y0183357D01*
X0441008Y0171357D01*
X0435008Y0171357D01*
X0412111Y0183213D02*
X0409776Y0183213D01*
X0410943Y0183213D02*
X0410943Y0186716D01*
X0409776Y0185549D01*
X0408428Y0186716D02*
X0408428Y0183797D01*
X0407844Y0183213D01*
X0406676Y0183213D01*
X0406092Y0183797D01*
X0406092Y0186716D01*
X0406465Y0187105D02*
X0406465Y0199105D01*
X0412465Y0199105D01*
X0412465Y0187105D01*
X0406465Y0187105D01*
X0405575Y0187105D02*
X0399575Y0187105D01*
X0399575Y0199105D01*
X0405575Y0199105D01*
X0405575Y0187105D01*
X0406465Y0199900D02*
X0412465Y0199900D01*
X0412465Y0211900D01*
X0406465Y0211900D01*
X0406465Y0199900D01*
X0405130Y0199948D02*
X0393130Y0199948D01*
X0393130Y0205948D01*
X0405130Y0205948D01*
X0405130Y0199948D01*
X0405130Y0206345D02*
X0393130Y0206345D01*
X0393130Y0212345D01*
X0405130Y0212345D01*
X0405130Y0206345D01*
X0410205Y0229428D02*
X0410205Y0241428D01*
X0416205Y0241428D01*
X0416205Y0229428D01*
X0410205Y0229428D01*
X0472982Y0251351D02*
X0472982Y0253687D01*
X0474150Y0254854D01*
X0475318Y0253687D01*
X0475318Y0251351D01*
X0476665Y0251935D02*
X0477249Y0251351D01*
X0479001Y0251351D01*
X0479001Y0253687D01*
X0480349Y0253103D02*
X0480349Y0251935D01*
X0480932Y0251351D01*
X0482684Y0251351D01*
X0482684Y0250767D02*
X0482684Y0253687D01*
X0480932Y0253687D01*
X0480349Y0253103D01*
X0481516Y0250184D02*
X0482100Y0250184D01*
X0482684Y0250767D01*
X0484032Y0251351D02*
X0484616Y0251351D01*
X0484616Y0251935D01*
X0484032Y0251935D01*
X0484032Y0251351D01*
X0489556Y0251351D02*
X0491892Y0253687D01*
X0491892Y0254270D01*
X0491308Y0254854D01*
X0490140Y0254854D01*
X0489556Y0254270D01*
X0489556Y0251351D02*
X0491892Y0251351D01*
X0493240Y0251935D02*
X0495575Y0254270D01*
X0495575Y0251935D01*
X0494991Y0251351D01*
X0493823Y0251351D01*
X0493240Y0251935D01*
X0493240Y0254270D01*
X0493823Y0254854D01*
X0494991Y0254854D01*
X0495575Y0254270D01*
X0496923Y0253687D02*
X0498090Y0254854D01*
X0498090Y0251351D01*
X0496923Y0251351D02*
X0499258Y0251351D01*
X0500606Y0251351D02*
X0500606Y0251935D01*
X0502941Y0254270D01*
X0502941Y0254854D01*
X0500606Y0254854D01*
X0496803Y0257351D02*
X0496803Y0259103D01*
X0496219Y0259687D01*
X0495051Y0259687D01*
X0494467Y0259103D01*
X0493119Y0259687D02*
X0491368Y0259687D01*
X0490784Y0259103D01*
X0490784Y0257935D01*
X0491368Y0257351D01*
X0493119Y0257351D01*
X0494467Y0257351D02*
X0494467Y0260854D01*
X0495635Y0262184D02*
X0496219Y0262184D01*
X0496803Y0262767D01*
X0496803Y0265687D01*
X0498150Y0265103D02*
X0498150Y0263935D01*
X0498734Y0263351D01*
X0499902Y0263351D01*
X0500486Y0263935D01*
X0500486Y0265103D01*
X0499902Y0265687D01*
X0498734Y0265687D01*
X0498150Y0265103D01*
X0496803Y0263351D02*
X0495051Y0263351D01*
X0494467Y0263935D01*
X0494467Y0265687D01*
X0493149Y0265687D02*
X0492566Y0265687D01*
X0491398Y0264519D01*
X0491398Y0263351D02*
X0491398Y0265687D01*
X0490050Y0266270D02*
X0489466Y0266854D01*
X0488299Y0266854D01*
X0487715Y0266270D01*
X0487715Y0263935D01*
X0488299Y0263351D01*
X0489466Y0263351D01*
X0490050Y0263935D01*
X0488913Y0260270D02*
X0488913Y0257935D01*
X0489496Y0257351D01*
X0489496Y0259687D02*
X0488329Y0259687D01*
X0486457Y0259687D02*
X0486457Y0257351D01*
X0485873Y0257351D02*
X0487041Y0257351D01*
X0486457Y0259687D02*
X0485873Y0259687D01*
X0486457Y0260854D02*
X0486457Y0261438D01*
X0484525Y0260854D02*
X0482190Y0260854D01*
X0482190Y0257351D01*
X0482190Y0259103D02*
X0483358Y0259103D01*
X0477249Y0257935D02*
X0477249Y0257351D01*
X0476665Y0257351D01*
X0476665Y0257935D01*
X0477249Y0257935D01*
X0475318Y0257351D02*
X0475318Y0260854D01*
X0472982Y0260854D02*
X0472982Y0257351D01*
X0475318Y0257351D02*
X0472982Y0260854D01*
X0472982Y0263351D02*
X0472982Y0266854D01*
X0475318Y0266854D01*
X0476665Y0266854D02*
X0476665Y0265103D01*
X0477833Y0265687D01*
X0478417Y0265687D01*
X0479001Y0265103D01*
X0479001Y0263935D01*
X0478417Y0263351D01*
X0477249Y0263351D01*
X0476665Y0263935D01*
X0474150Y0265103D02*
X0472982Y0265103D01*
X0476665Y0266854D02*
X0479001Y0266854D01*
X0480349Y0266270D02*
X0480932Y0266854D01*
X0482100Y0266854D01*
X0482684Y0266270D01*
X0480349Y0263935D01*
X0480932Y0263351D01*
X0482100Y0263351D01*
X0482684Y0263935D01*
X0482684Y0266270D01*
X0480349Y0266270D02*
X0480349Y0263935D01*
X0480349Y0269351D02*
X0480349Y0272854D01*
X0481516Y0271687D01*
X0482684Y0272854D01*
X0482684Y0269351D01*
X0484032Y0268767D02*
X0486367Y0268767D01*
X0487715Y0269935D02*
X0490050Y0272270D01*
X0490050Y0269935D01*
X0489466Y0269351D01*
X0488299Y0269351D01*
X0487715Y0269935D01*
X0487715Y0272270D01*
X0488299Y0272854D01*
X0489466Y0272854D01*
X0490050Y0272270D01*
X0491398Y0272270D02*
X0491982Y0272854D01*
X0493149Y0272854D01*
X0493733Y0272270D01*
X0491398Y0269935D01*
X0491982Y0269351D01*
X0493149Y0269351D01*
X0493733Y0269935D01*
X0493733Y0272270D01*
X0495081Y0272270D02*
X0495665Y0272854D01*
X0496833Y0272854D01*
X0497416Y0272270D01*
X0495081Y0269935D01*
X0495665Y0269351D01*
X0496833Y0269351D01*
X0497416Y0269935D01*
X0497416Y0272270D01*
X0498764Y0272854D02*
X0501100Y0272854D01*
X0501100Y0272270D01*
X0498764Y0269935D01*
X0498764Y0269351D01*
X0495081Y0269935D02*
X0495081Y0272270D01*
X0491398Y0272270D02*
X0491398Y0269935D01*
X0501834Y0265103D02*
X0501834Y0263935D01*
X0502417Y0263351D01*
X0504169Y0263351D01*
X0505517Y0263935D02*
X0506101Y0263351D01*
X0507268Y0263351D01*
X0507852Y0263935D01*
X0507852Y0265103D01*
X0507268Y0265687D01*
X0506101Y0265687D01*
X0505517Y0265103D01*
X0505517Y0263935D01*
X0504169Y0265687D02*
X0502417Y0265687D01*
X0501834Y0265103D01*
X0507298Y0269351D02*
X0508466Y0271687D01*
X0509814Y0272270D02*
X0510398Y0272854D01*
X0511565Y0272854D01*
X0512149Y0272270D01*
X0512149Y0271687D01*
X0509814Y0269351D01*
X0512149Y0269351D01*
X0512883Y0266854D02*
X0513467Y0266854D01*
X0513467Y0263351D01*
X0512883Y0263351D02*
X0514051Y0263351D01*
X0515338Y0263935D02*
X0515338Y0265103D01*
X0515922Y0265687D01*
X0517090Y0265687D01*
X0517674Y0265103D01*
X0517674Y0264519D01*
X0515338Y0264519D01*
X0515338Y0263935D02*
X0515922Y0263351D01*
X0517090Y0263351D01*
X0519022Y0263351D02*
X0519022Y0265687D01*
X0520189Y0265687D02*
X0519022Y0264519D01*
X0520189Y0265687D02*
X0520773Y0265687D01*
X0525774Y0266270D02*
X0525774Y0263935D01*
X0526358Y0263351D01*
X0527525Y0263351D01*
X0528109Y0263935D01*
X0529457Y0263935D02*
X0530041Y0263351D01*
X0531209Y0263351D01*
X0531792Y0263935D01*
X0531792Y0265103D01*
X0531209Y0265687D01*
X0530041Y0265687D01*
X0529457Y0265103D01*
X0529457Y0263935D01*
X0528109Y0266270D02*
X0527525Y0266854D01*
X0526358Y0266854D01*
X0525774Y0266270D01*
X0533140Y0265687D02*
X0533140Y0263351D01*
X0533140Y0265687D02*
X0534892Y0265687D01*
X0535476Y0265103D01*
X0535476Y0263351D01*
X0537407Y0263935D02*
X0537407Y0266270D01*
X0536823Y0265687D02*
X0537991Y0265687D01*
X0539279Y0265687D02*
X0539279Y0263351D01*
X0539279Y0264519D02*
X0540447Y0265687D01*
X0541030Y0265687D01*
X0542348Y0265103D02*
X0542348Y0263935D01*
X0542932Y0263351D01*
X0544100Y0263351D01*
X0544683Y0263935D01*
X0544683Y0265103D01*
X0544100Y0265687D01*
X0542932Y0265687D01*
X0542348Y0265103D01*
X0546031Y0266854D02*
X0546615Y0266854D01*
X0546615Y0263351D01*
X0546031Y0263351D02*
X0547199Y0263351D01*
X0537991Y0263351D02*
X0537407Y0263935D01*
X0511535Y0263935D02*
X0511535Y0265103D01*
X0510951Y0265687D01*
X0509784Y0265687D01*
X0509200Y0265103D01*
X0509200Y0263935D01*
X0509784Y0263351D01*
X0510951Y0263351D01*
X0511535Y0263935D01*
X0507298Y0269351D02*
X0506131Y0271687D01*
X0479001Y0272270D02*
X0478417Y0272854D01*
X0477249Y0272854D01*
X0476665Y0272270D01*
X0476665Y0269935D01*
X0477249Y0269351D01*
X0478417Y0269351D01*
X0479001Y0269935D01*
X0475318Y0269935D02*
X0474734Y0269351D01*
X0473566Y0269351D01*
X0472982Y0269935D01*
X0472982Y0272270D01*
X0473566Y0272854D01*
X0474734Y0272854D01*
X0475318Y0272270D01*
X0476665Y0253687D02*
X0476665Y0251935D01*
X0475318Y0253103D02*
X0472982Y0253103D01*
X0515717Y0163672D02*
X0521717Y0163672D01*
X0521717Y0151672D01*
X0515717Y0151672D01*
X0515717Y0163672D01*
X0514258Y0159520D02*
X0513090Y0159520D01*
X0512506Y0158936D01*
X0514258Y0159520D02*
X0514841Y0158936D01*
X0514841Y0158352D01*
X0512506Y0156017D01*
X0514841Y0156017D01*
X0511158Y0156017D02*
X0508823Y0156017D01*
X0509991Y0156017D02*
X0509991Y0159520D01*
X0508823Y0158352D01*
X0507475Y0158936D02*
X0507475Y0157768D01*
X0506891Y0157184D01*
X0505140Y0157184D01*
X0506307Y0157184D02*
X0507475Y0156017D01*
X0505140Y0156017D02*
X0505140Y0159520D01*
X0506891Y0159520D01*
X0507475Y0158936D01*
X0508892Y0150523D02*
X0509476Y0150523D01*
X0509476Y0147020D01*
X0508892Y0147020D02*
X0510060Y0147020D01*
X0511347Y0147604D02*
X0511931Y0147020D01*
X0513683Y0147020D01*
X0513683Y0149356D01*
X0515030Y0149356D02*
X0515030Y0147020D01*
X0516198Y0147020D02*
X0516198Y0148772D01*
X0516782Y0149356D01*
X0517366Y0148772D01*
X0517366Y0147020D01*
X0518714Y0147604D02*
X0518714Y0148772D01*
X0519297Y0149356D01*
X0520465Y0149356D01*
X0521049Y0148772D01*
X0521049Y0148188D01*
X0518714Y0148188D01*
X0518714Y0147604D02*
X0519297Y0147020D01*
X0520465Y0147020D01*
X0516198Y0148772D02*
X0515614Y0149356D01*
X0515030Y0149356D01*
X0511347Y0149356D02*
X0511347Y0147604D01*
X0507544Y0147604D02*
X0507544Y0148772D01*
X0506960Y0149356D01*
X0505793Y0149356D01*
X0505209Y0148772D01*
X0505209Y0147604D01*
X0505793Y0147020D01*
X0506960Y0147020D01*
X0507544Y0147604D01*
X0503861Y0149356D02*
X0502693Y0147020D01*
X0501526Y0149356D01*
X0489217Y0145750D02*
X0489217Y0091250D01*
X0548217Y0091250D01*
X0548217Y0145750D01*
X0489217Y0145750D01*
X0488174Y0145244D02*
X0485839Y0145244D01*
X0485839Y0143492D01*
X0487006Y0144076D01*
X0487590Y0144076D01*
X0488174Y0143492D01*
X0488174Y0142325D01*
X0487590Y0141741D01*
X0486422Y0141741D01*
X0485839Y0142325D01*
X0484491Y0141741D02*
X0482156Y0145244D01*
X0484491Y0145244D02*
X0482156Y0141741D01*
X0526080Y0147604D02*
X0526664Y0147020D01*
X0527831Y0147020D01*
X0528415Y0147604D01*
X0528415Y0148772D01*
X0527831Y0149356D01*
X0526664Y0149356D01*
X0526080Y0148772D01*
X0526080Y0147604D01*
X0529763Y0147604D02*
X0530347Y0147020D01*
X0532098Y0147020D01*
X0532098Y0149356D01*
X0533446Y0149356D02*
X0534614Y0149356D01*
X0534030Y0149940D02*
X0534030Y0147604D01*
X0534614Y0147020D01*
X0529763Y0147604D02*
X0529763Y0149356D01*
D11*
X0439918Y0185382D02*
X0439918Y0186317D01*
X0439451Y0186784D01*
X0439918Y0187862D02*
X0438050Y0189730D01*
X0437583Y0189730D01*
X0437116Y0189263D01*
X0437116Y0188329D01*
X0437583Y0187862D01*
X0437583Y0186784D02*
X0437116Y0186317D01*
X0437116Y0185382D01*
X0437583Y0184915D01*
X0439451Y0184915D01*
X0439918Y0185382D01*
X0439918Y0187862D02*
X0439918Y0189730D01*
X0439451Y0190808D02*
X0437583Y0192677D01*
X0439451Y0192677D01*
X0439918Y0192210D01*
X0439918Y0191275D01*
X0439451Y0190808D01*
X0437583Y0190808D01*
X0437116Y0191275D01*
X0437116Y0192210D01*
X0437583Y0192677D01*
X0432044Y0192677D02*
X0432044Y0190808D01*
X0432044Y0191743D02*
X0429242Y0191743D01*
X0430176Y0190808D01*
X0430176Y0189730D02*
X0430643Y0189263D01*
X0431110Y0189730D01*
X0431577Y0189730D01*
X0432044Y0189263D01*
X0432044Y0188329D01*
X0431577Y0187862D01*
X0432044Y0186784D02*
X0431110Y0185849D01*
X0431110Y0186317D02*
X0431110Y0184915D01*
X0432044Y0184915D02*
X0429242Y0184915D01*
X0429242Y0186317D01*
X0429709Y0186784D01*
X0430643Y0186784D01*
X0431110Y0186317D01*
X0429709Y0187862D02*
X0429242Y0188329D01*
X0429242Y0189263D01*
X0429709Y0189730D01*
X0430176Y0189730D01*
X0430643Y0189263D02*
X0430643Y0188796D01*
X0425654Y0189230D02*
X0425654Y0187362D01*
X0423786Y0189230D01*
X0423319Y0189230D01*
X0422852Y0188763D01*
X0422852Y0187829D01*
X0423319Y0187362D01*
X0423319Y0186284D02*
X0422852Y0185817D01*
X0422852Y0184882D01*
X0423319Y0184415D01*
X0425187Y0184415D01*
X0425654Y0184882D01*
X0425654Y0185817D01*
X0425187Y0186284D01*
X0425654Y0190308D02*
X0425654Y0192177D01*
X0425654Y0191243D02*
X0422852Y0191243D01*
X0423786Y0190308D01*
X0418479Y0193289D02*
X0416611Y0193289D01*
X0417545Y0193289D02*
X0417545Y0196092D01*
X0416611Y0195158D01*
X0415533Y0195625D02*
X0415533Y0194691D01*
X0415066Y0194223D01*
X0413665Y0194223D01*
X0413665Y0193289D02*
X0413665Y0196092D01*
X0415066Y0196092D01*
X0415533Y0195625D01*
X0414599Y0194223D02*
X0415533Y0193289D01*
X0416379Y0189230D02*
X0416379Y0187362D01*
X0414978Y0188763D01*
X0417780Y0188763D01*
X0417780Y0186284D02*
X0416846Y0185349D01*
X0416846Y0185817D02*
X0416846Y0184415D01*
X0417780Y0184415D02*
X0414978Y0184415D01*
X0414978Y0185817D01*
X0415445Y0186284D01*
X0416379Y0186284D01*
X0416846Y0185817D01*
X0398121Y0193758D02*
X0396253Y0193758D01*
X0398121Y0195626D01*
X0398121Y0196093D01*
X0397654Y0196560D01*
X0396720Y0196560D01*
X0396253Y0196093D01*
X0395175Y0196093D02*
X0395175Y0195159D01*
X0394707Y0194692D01*
X0393306Y0194692D01*
X0393306Y0193758D02*
X0393306Y0196560D01*
X0394707Y0196560D01*
X0395175Y0196093D01*
X0394240Y0194692D02*
X0395175Y0193758D01*
X0391756Y0201742D02*
X0391756Y0204545D01*
X0390355Y0203143D01*
X0392223Y0203143D01*
X0389277Y0202209D02*
X0388810Y0201742D01*
X0387876Y0201742D01*
X0387409Y0202209D01*
X0387409Y0204077D01*
X0387876Y0204545D01*
X0388810Y0204545D01*
X0389277Y0204077D01*
X0389277Y0208140D02*
X0388343Y0209074D01*
X0388810Y0209074D02*
X0387409Y0209074D01*
X0387409Y0208140D02*
X0387409Y0210942D01*
X0388810Y0210942D01*
X0389277Y0210475D01*
X0389277Y0209541D01*
X0388810Y0209074D01*
X0390355Y0209541D02*
X0391289Y0210008D01*
X0391756Y0210008D01*
X0392223Y0209541D01*
X0392223Y0208607D01*
X0391756Y0208140D01*
X0390822Y0208140D01*
X0390355Y0208607D01*
X0390355Y0209541D02*
X0390355Y0210942D01*
X0392223Y0210942D01*
X0413665Y0206451D02*
X0413665Y0204583D01*
X0414132Y0204116D01*
X0415066Y0204116D01*
X0415533Y0204583D01*
X0416611Y0204583D02*
X0417078Y0204116D01*
X0418012Y0204116D01*
X0418479Y0204583D01*
X0418479Y0205050D01*
X0418012Y0205517D01*
X0417545Y0205517D01*
X0418012Y0205517D02*
X0418479Y0205984D01*
X0418479Y0206451D01*
X0418012Y0206919D01*
X0417078Y0206919D01*
X0416611Y0206451D01*
X0415533Y0206451D02*
X0415066Y0206919D01*
X0414132Y0206919D01*
X0413665Y0206451D01*
X0420848Y0219793D02*
X0421782Y0219793D01*
X0422249Y0220260D01*
X0422249Y0222596D01*
X0423328Y0222129D02*
X0423795Y0222596D01*
X0424729Y0222596D01*
X0425196Y0222129D01*
X0425196Y0221662D01*
X0423328Y0219793D01*
X0425196Y0219793D01*
X0420848Y0219793D02*
X0420381Y0220260D01*
X0420381Y0222596D01*
X0420072Y0234112D02*
X0420072Y0234579D01*
X0421940Y0236448D01*
X0421940Y0236915D01*
X0420072Y0236915D01*
X0418993Y0236448D02*
X0418526Y0236915D01*
X0417592Y0236915D01*
X0417125Y0236448D01*
X0417125Y0234579D01*
X0417592Y0234112D01*
X0418526Y0234112D01*
X0418993Y0234579D01*
X0394192Y0183718D02*
X0392324Y0183718D01*
X0392324Y0182317D01*
X0393258Y0182784D01*
X0393725Y0182784D01*
X0394192Y0182317D01*
X0394192Y0181382D01*
X0393725Y0180915D01*
X0392791Y0180915D01*
X0392324Y0181382D01*
X0391245Y0181382D02*
X0390778Y0180915D01*
X0389844Y0180915D01*
X0389377Y0181382D01*
X0389377Y0183251D01*
X0389844Y0183718D01*
X0390778Y0183718D01*
X0391245Y0183251D01*
X0389868Y0167627D02*
X0388934Y0167627D01*
X0388467Y0167160D01*
X0388467Y0166693D01*
X0388934Y0166226D01*
X0390335Y0166226D01*
X0390335Y0167160D02*
X0389868Y0167627D01*
X0390335Y0167160D02*
X0390335Y0165292D01*
X0389868Y0164825D01*
X0388934Y0164825D01*
X0388467Y0165292D01*
X0387389Y0164825D02*
X0385521Y0164825D01*
X0387389Y0166693D01*
X0387389Y0167160D01*
X0386922Y0167627D01*
X0385988Y0167627D01*
X0385521Y0167160D01*
X0384442Y0167160D02*
X0384442Y0166226D01*
X0383975Y0165759D01*
X0382574Y0165759D01*
X0383508Y0165759D02*
X0384442Y0164825D01*
X0382574Y0164825D02*
X0382574Y0167627D01*
X0383975Y0167627D01*
X0384442Y0167160D01*
X0386165Y0158033D02*
X0387566Y0158033D01*
X0388033Y0157566D01*
X0388033Y0156632D01*
X0387566Y0156164D01*
X0386165Y0156164D01*
X0386165Y0155230D02*
X0386165Y0158033D01*
X0387099Y0156164D02*
X0388033Y0155230D01*
X0389111Y0155230D02*
X0390979Y0155230D01*
X0390045Y0155230D02*
X0390045Y0158033D01*
X0389111Y0157099D01*
X0392058Y0157566D02*
X0392058Y0155697D01*
X0393926Y0157566D01*
X0393926Y0155697D01*
X0393459Y0155230D01*
X0392525Y0155230D01*
X0392058Y0155697D01*
X0392058Y0157566D02*
X0392525Y0158033D01*
X0393459Y0158033D01*
X0393926Y0157566D01*
X0401960Y0149168D02*
X0401960Y0147300D01*
X0402427Y0146833D01*
X0403361Y0146833D01*
X0403828Y0147300D01*
X0404906Y0146833D02*
X0406775Y0148701D01*
X0406775Y0149168D01*
X0406308Y0149635D01*
X0405373Y0149635D01*
X0404906Y0149168D01*
X0403828Y0149168D02*
X0403361Y0149635D01*
X0402427Y0149635D01*
X0401960Y0149168D01*
X0404906Y0146833D02*
X0406775Y0146833D01*
X0415464Y0155272D02*
X0415931Y0154805D01*
X0416865Y0154805D01*
X0417332Y0155272D01*
X0418410Y0154805D02*
X0420279Y0154805D01*
X0419344Y0154805D02*
X0419344Y0157608D01*
X0418410Y0156673D01*
X0417332Y0157140D02*
X0416865Y0157608D01*
X0415931Y0157608D01*
X0415464Y0157140D01*
X0415464Y0155272D01*
X0417507Y0159904D02*
X0417507Y0162706D01*
X0418908Y0162706D01*
X0419375Y0162239D01*
X0419375Y0161305D01*
X0418908Y0160838D01*
X0417507Y0160838D01*
X0418441Y0160838D02*
X0419375Y0159904D01*
X0420454Y0160371D02*
X0420921Y0159904D01*
X0421855Y0159904D01*
X0422322Y0160371D01*
X0422322Y0160838D01*
X0421855Y0161305D01*
X0421388Y0161305D01*
X0421855Y0161305D02*
X0422322Y0161772D01*
X0422322Y0162239D01*
X0421855Y0162706D01*
X0420921Y0162706D01*
X0420454Y0162239D01*
X0423400Y0162239D02*
X0423867Y0162706D01*
X0424801Y0162706D01*
X0425268Y0162239D01*
X0423400Y0160371D01*
X0423867Y0159904D01*
X0424801Y0159904D01*
X0425268Y0160371D01*
X0425268Y0162239D01*
X0423400Y0162239D02*
X0423400Y0160371D01*
X0275646Y0142778D02*
X0273778Y0142778D01*
X0274712Y0142778D02*
X0274712Y0145580D01*
X0273778Y0144646D01*
X0272700Y0142778D02*
X0270832Y0142778D01*
X0271766Y0142778D02*
X0271766Y0145580D01*
X0270832Y0144646D01*
X0269753Y0145113D02*
X0269753Y0144179D01*
X0269286Y0143712D01*
X0267885Y0143712D01*
X0268819Y0143712D02*
X0269753Y0142778D01*
X0267885Y0142778D02*
X0267885Y0145580D01*
X0269286Y0145580D01*
X0269753Y0145113D01*
X0266863Y0111993D02*
X0267330Y0111525D01*
X0267330Y0111058D01*
X0266863Y0110591D01*
X0265929Y0110591D01*
X0265461Y0111058D01*
X0265461Y0111525D01*
X0265929Y0111993D01*
X0266863Y0111993D01*
X0266863Y0110591D02*
X0267330Y0110124D01*
X0267330Y0109657D01*
X0266863Y0109190D01*
X0265929Y0109190D01*
X0265461Y0109657D01*
X0265461Y0110124D01*
X0265929Y0110591D01*
X0264383Y0109657D02*
X0263916Y0109190D01*
X0262982Y0109190D01*
X0262515Y0109657D01*
X0262515Y0111525D01*
X0262982Y0111993D01*
X0263916Y0111993D01*
X0264383Y0111525D01*
X0270980Y0109633D02*
X0270980Y0107764D01*
X0271447Y0107297D01*
X0272382Y0107297D01*
X0272849Y0107764D01*
X0273927Y0107764D02*
X0274394Y0107297D01*
X0275328Y0107297D01*
X0275795Y0107764D01*
X0275795Y0109633D01*
X0275328Y0110100D01*
X0274394Y0110100D01*
X0273927Y0109633D01*
X0273927Y0109166D01*
X0274394Y0108698D01*
X0275795Y0108698D01*
X0272849Y0109633D02*
X0272382Y0110100D01*
X0271447Y0110100D01*
X0270980Y0109633D01*
X0163385Y0165792D02*
X0162918Y0165325D01*
X0161984Y0165325D01*
X0161517Y0165792D01*
X0161984Y0166726D02*
X0163385Y0166726D01*
X0163385Y0167660D02*
X0162918Y0168127D01*
X0161984Y0168127D01*
X0161517Y0167660D01*
X0161517Y0167193D01*
X0161984Y0166726D01*
X0160438Y0166726D02*
X0159971Y0166259D01*
X0158570Y0166259D01*
X0159504Y0166259D02*
X0160438Y0165325D01*
X0160438Y0166726D02*
X0160438Y0167660D01*
X0159971Y0168127D01*
X0158570Y0168127D01*
X0158570Y0165325D01*
X0163385Y0165792D02*
X0163385Y0167660D01*
X0146729Y0158454D02*
X0145328Y0157053D01*
X0147196Y0157053D01*
X0146729Y0155652D02*
X0146729Y0158454D01*
X0144249Y0157987D02*
X0144249Y0156119D01*
X0143782Y0155652D01*
X0142381Y0155652D01*
X0142381Y0158454D01*
X0143782Y0158454D01*
X0144249Y0157987D01*
X0127905Y0154502D02*
X0127905Y0154035D01*
X0126036Y0152167D01*
X0127905Y0152167D01*
X0127905Y0154502D02*
X0127437Y0154969D01*
X0126503Y0154969D01*
X0126036Y0154502D01*
X0124958Y0154502D02*
X0124958Y0152634D01*
X0124491Y0152167D01*
X0123557Y0152167D01*
X0123090Y0152634D01*
X0123090Y0154502D01*
X0123557Y0154969D01*
X0124491Y0154969D01*
X0124958Y0154502D01*
X0124024Y0153101D02*
X0124958Y0152167D01*
X0100558Y0152508D02*
X0100091Y0152041D01*
X0099157Y0152041D01*
X0098690Y0152508D01*
X0097612Y0152508D02*
X0097145Y0152041D01*
X0096210Y0152041D01*
X0095743Y0152508D01*
X0095743Y0154376D01*
X0096210Y0154843D01*
X0097145Y0154843D01*
X0097612Y0154376D01*
X0097612Y0152508D01*
X0097612Y0152041D02*
X0096677Y0152975D01*
X0098690Y0154376D02*
X0099157Y0154843D01*
X0100091Y0154843D01*
X0100558Y0154376D01*
X0100558Y0153909D01*
X0100091Y0153442D01*
X0100558Y0152975D01*
X0100558Y0152508D01*
X0100091Y0153442D02*
X0099624Y0153442D01*
X0080267Y0156119D02*
X0079800Y0155652D01*
X0078866Y0155652D01*
X0078398Y0156119D01*
X0077320Y0156119D02*
X0077320Y0157987D01*
X0076853Y0158454D01*
X0075452Y0158454D01*
X0075452Y0155652D01*
X0076853Y0155652D01*
X0077320Y0156119D01*
X0078398Y0157987D02*
X0078866Y0158454D01*
X0079800Y0158454D01*
X0080267Y0157987D01*
X0080267Y0157520D01*
X0079800Y0157053D01*
X0080267Y0156586D01*
X0080267Y0156119D01*
X0079800Y0157053D02*
X0079333Y0157053D01*
X0062985Y0165792D02*
X0062518Y0165325D01*
X0061584Y0165325D01*
X0061117Y0165792D01*
X0060038Y0165325D02*
X0058170Y0165325D01*
X0059104Y0165325D02*
X0059104Y0168127D01*
X0058170Y0167193D01*
X0057092Y0166726D02*
X0056625Y0166259D01*
X0055224Y0166259D01*
X0056158Y0166259D02*
X0057092Y0165325D01*
X0057092Y0166726D02*
X0057092Y0167660D01*
X0056625Y0168127D01*
X0055224Y0168127D01*
X0055224Y0165325D01*
X0061117Y0167660D02*
X0061584Y0168127D01*
X0062518Y0168127D01*
X0062985Y0167660D01*
X0062985Y0167193D01*
X0062518Y0166726D01*
X0062985Y0166259D01*
X0062985Y0165792D01*
X0062518Y0166726D02*
X0062051Y0166726D01*
X0061746Y0178589D02*
X0061746Y0181391D01*
X0060812Y0180457D01*
X0059734Y0180924D02*
X0059267Y0181391D01*
X0057865Y0181391D01*
X0057865Y0178589D01*
X0059267Y0178589D01*
X0059734Y0179056D01*
X0059734Y0180924D01*
X0060812Y0178589D02*
X0062680Y0178589D01*
X0021974Y0152037D02*
X0021974Y0149234D01*
X0021040Y0149234D02*
X0022908Y0149234D01*
X0021040Y0151103D02*
X0021974Y0152037D01*
X0019962Y0152037D02*
X0018094Y0149234D01*
X0019962Y0149234D02*
X0018094Y0152037D01*
X0092625Y0211585D02*
X0092625Y0214387D01*
X0094026Y0214387D01*
X0094493Y0213920D01*
X0094493Y0212986D01*
X0094026Y0212519D01*
X0092625Y0212519D01*
X0093559Y0212519D02*
X0094493Y0211585D01*
X0095572Y0211585D02*
X0097440Y0211585D01*
X0096506Y0211585D02*
X0096506Y0214387D01*
X0095572Y0213453D01*
X0096555Y0216116D02*
X0097489Y0216116D01*
X0097956Y0216583D01*
X0097956Y0217050D01*
X0097489Y0217517D01*
X0096087Y0217517D01*
X0096087Y0216583D01*
X0096555Y0216116D01*
X0096087Y0217517D02*
X0097022Y0218451D01*
X0097956Y0218919D01*
X0095009Y0218451D02*
X0095009Y0216583D01*
X0094542Y0216116D01*
X0093141Y0216116D01*
X0093141Y0218919D01*
X0094542Y0218919D01*
X0095009Y0218451D01*
X0098985Y0214387D02*
X0098518Y0213920D01*
X0098518Y0213453D01*
X0098985Y0212986D01*
X0100386Y0212986D01*
X0100386Y0213920D02*
X0099919Y0214387D01*
X0098985Y0214387D01*
X0100386Y0213920D02*
X0100386Y0212052D01*
X0099919Y0211585D01*
X0098985Y0211585D01*
X0098518Y0212052D01*
X0103452Y0223848D02*
X0103452Y0226651D01*
X0104853Y0226651D01*
X0105320Y0226184D01*
X0105320Y0225250D01*
X0104853Y0224783D01*
X0103452Y0224783D01*
X0104386Y0224783D02*
X0105320Y0223848D01*
X0106398Y0223848D02*
X0108267Y0225717D01*
X0108267Y0226184D01*
X0107800Y0226651D01*
X0106866Y0226651D01*
X0106398Y0226184D01*
X0106398Y0223848D02*
X0108267Y0223848D01*
X0109345Y0224315D02*
X0111213Y0226184D01*
X0111213Y0224315D01*
X0110746Y0223848D01*
X0109812Y0223848D01*
X0109345Y0224315D01*
X0109345Y0226184D01*
X0109812Y0226651D01*
X0110746Y0226651D01*
X0111213Y0226184D01*
X0115216Y0235864D02*
X0117084Y0238667D01*
X0118162Y0238199D02*
X0118629Y0238667D01*
X0119563Y0238667D01*
X0120031Y0238199D01*
X0120031Y0237732D01*
X0119563Y0237265D01*
X0120031Y0236798D01*
X0120031Y0236331D01*
X0119563Y0235864D01*
X0118629Y0235864D01*
X0118162Y0236331D01*
X0117084Y0235864D02*
X0115216Y0238667D01*
X0119096Y0237265D02*
X0119563Y0237265D01*
X0147124Y0237308D02*
X0148058Y0236374D01*
X0147591Y0235295D02*
X0147124Y0234828D01*
X0147124Y0233894D01*
X0147591Y0233427D01*
X0149459Y0233427D01*
X0149926Y0233894D01*
X0149926Y0234828D01*
X0149459Y0235295D01*
X0149926Y0236374D02*
X0149926Y0238242D01*
X0149926Y0237308D02*
X0147124Y0237308D01*
X0148058Y0239320D02*
X0147124Y0240254D01*
X0149926Y0240254D01*
X0149926Y0239320D02*
X0149926Y0241188D01*
X0157586Y0246033D02*
X0157586Y0248836D01*
X0158987Y0248836D01*
X0159454Y0248369D01*
X0159454Y0247435D01*
X0158987Y0246968D01*
X0157586Y0246968D01*
X0158520Y0246968D02*
X0159454Y0246033D01*
X0160532Y0246033D02*
X0162401Y0246033D01*
X0161466Y0246033D02*
X0161466Y0248836D01*
X0160532Y0247902D01*
X0163479Y0247902D02*
X0163479Y0248369D01*
X0163946Y0248836D01*
X0164880Y0248836D01*
X0165347Y0248369D01*
X0165347Y0247902D01*
X0164880Y0247435D01*
X0163946Y0247435D01*
X0163479Y0247902D01*
X0163946Y0247435D02*
X0163479Y0246968D01*
X0163479Y0246501D01*
X0163946Y0246033D01*
X0164880Y0246033D01*
X0165347Y0246501D01*
X0165347Y0246968D01*
X0164880Y0247435D01*
X0165360Y0260797D02*
X0164425Y0261731D01*
X0164893Y0261731D02*
X0163491Y0261731D01*
X0163491Y0260797D02*
X0163491Y0263600D01*
X0164893Y0263600D01*
X0165360Y0263133D01*
X0165360Y0262198D01*
X0164893Y0261731D01*
X0166438Y0260797D02*
X0168306Y0262666D01*
X0168306Y0263133D01*
X0167839Y0263600D01*
X0166905Y0263600D01*
X0166438Y0263133D01*
X0166438Y0260797D02*
X0168306Y0260797D01*
X0169384Y0262198D02*
X0171253Y0262198D01*
X0170786Y0260797D02*
X0170786Y0263600D01*
X0169384Y0262198D01*
X0154520Y0273075D02*
X0154053Y0272608D01*
X0153119Y0272608D01*
X0152652Y0273075D01*
X0151574Y0272608D02*
X0149706Y0272608D01*
X0151574Y0274477D01*
X0151574Y0274944D01*
X0151107Y0275411D01*
X0150173Y0275411D01*
X0149706Y0274944D01*
X0148627Y0274944D02*
X0148627Y0274009D01*
X0148160Y0273542D01*
X0146759Y0273542D01*
X0146759Y0272608D02*
X0146759Y0275411D01*
X0148160Y0275411D01*
X0148627Y0274944D01*
X0147693Y0273542D02*
X0148627Y0272608D01*
X0152652Y0274944D02*
X0153119Y0275411D01*
X0154053Y0275411D01*
X0154520Y0274944D01*
X0154520Y0274477D01*
X0154053Y0274009D01*
X0154520Y0273542D01*
X0154520Y0273075D01*
X0154053Y0274009D02*
X0153586Y0274009D01*
X0133220Y0266714D02*
X0131351Y0266714D01*
X0132752Y0268115D01*
X0132752Y0265313D01*
X0130273Y0265780D02*
X0130273Y0268115D01*
X0128405Y0268115D02*
X0128405Y0265780D01*
X0128872Y0265313D01*
X0129806Y0265313D01*
X0130273Y0265780D01*
X0162007Y0230182D02*
X0163408Y0230182D01*
X0163875Y0229715D01*
X0163875Y0227847D01*
X0163408Y0227380D01*
X0162007Y0227380D01*
X0162007Y0230182D01*
X0164954Y0229715D02*
X0165421Y0230182D01*
X0166355Y0230182D01*
X0166822Y0229715D01*
X0166822Y0229248D01*
X0164954Y0227380D01*
X0166822Y0227380D01*
X0145662Y0217857D02*
X0145195Y0218324D01*
X0144261Y0218324D01*
X0143794Y0217857D01*
X0142716Y0217857D02*
X0142248Y0218324D01*
X0141314Y0218324D01*
X0140847Y0217857D01*
X0139769Y0217857D02*
X0139769Y0216923D01*
X0139302Y0216456D01*
X0137901Y0216456D01*
X0138835Y0216456D02*
X0139769Y0215522D01*
X0140847Y0215522D02*
X0142716Y0217390D01*
X0142716Y0217857D01*
X0142716Y0215522D02*
X0140847Y0215522D01*
X0139769Y0217857D02*
X0139302Y0218324D01*
X0137901Y0218324D01*
X0137901Y0215522D01*
X0143794Y0215522D02*
X0145662Y0217390D01*
X0145662Y0217857D01*
X0145662Y0215522D02*
X0143794Y0215522D01*
X0127946Y0211585D02*
X0126077Y0211585D01*
X0127011Y0211585D02*
X0127011Y0214387D01*
X0126077Y0213453D01*
X0124999Y0213453D02*
X0124999Y0213920D01*
X0124532Y0214387D01*
X0123598Y0214387D01*
X0123131Y0213920D01*
X0122053Y0213920D02*
X0121585Y0214387D01*
X0120184Y0214387D01*
X0120184Y0211585D01*
X0120184Y0212519D02*
X0121585Y0212519D01*
X0122053Y0212986D01*
X0122053Y0213920D01*
X0121684Y0215132D02*
X0123085Y0215132D01*
X0123553Y0215599D01*
X0123553Y0217467D01*
X0123085Y0217934D01*
X0121684Y0217934D01*
X0121684Y0215132D01*
X0121118Y0212519D02*
X0122053Y0211585D01*
X0123131Y0211585D02*
X0124999Y0213453D01*
X0125098Y0215132D02*
X0124631Y0215599D01*
X0125098Y0215132D02*
X0126032Y0215132D01*
X0126499Y0215599D01*
X0126499Y0216533D01*
X0126032Y0217000D01*
X0125565Y0217000D01*
X0124631Y0216533D01*
X0124631Y0217934D01*
X0126499Y0217934D01*
X0124999Y0211585D02*
X0123131Y0211585D01*
X0159114Y0184002D02*
X0160515Y0184002D01*
X0160982Y0183535D01*
X0160982Y0181667D01*
X0160515Y0181200D01*
X0159114Y0181200D01*
X0159114Y0184002D01*
X0162061Y0184002D02*
X0163929Y0184002D01*
X0163929Y0183535D01*
X0162061Y0181667D01*
X0162061Y0181200D01*
X0256011Y0218199D02*
X0256011Y0221001D01*
X0257412Y0221001D01*
X0257879Y0220534D01*
X0257879Y0219600D01*
X0257412Y0219133D01*
X0256011Y0219133D01*
X0256945Y0219133D02*
X0257879Y0218199D01*
X0258958Y0218199D02*
X0260826Y0218199D01*
X0259892Y0218199D02*
X0259892Y0221001D01*
X0258958Y0220067D01*
X0261904Y0219600D02*
X0263305Y0219600D01*
X0263772Y0219133D01*
X0263772Y0218666D01*
X0263305Y0218199D01*
X0262371Y0218199D01*
X0261904Y0218666D01*
X0261904Y0219600D01*
X0262838Y0220534D01*
X0263772Y0221001D01*
X0266838Y0230049D02*
X0266838Y0232852D01*
X0268239Y0232852D01*
X0268706Y0232385D01*
X0268706Y0231450D01*
X0268239Y0230983D01*
X0266838Y0230983D01*
X0267772Y0230983D02*
X0268706Y0230049D01*
X0269784Y0230049D02*
X0271653Y0230049D01*
X0270718Y0230049D02*
X0270718Y0232852D01*
X0269784Y0231917D01*
X0272731Y0232852D02*
X0274599Y0232852D01*
X0274599Y0232385D01*
X0272731Y0230516D01*
X0272731Y0230049D01*
X0262327Y0210844D02*
X0262794Y0210377D01*
X0262794Y0209910D01*
X0262327Y0209443D01*
X0262794Y0208975D01*
X0262794Y0208508D01*
X0262327Y0208041D01*
X0261393Y0208041D01*
X0260926Y0208508D01*
X0259848Y0208041D02*
X0258914Y0208975D01*
X0259381Y0208975D02*
X0257980Y0208975D01*
X0257980Y0208041D02*
X0257980Y0210844D01*
X0259381Y0210844D01*
X0259848Y0210377D01*
X0259848Y0209443D01*
X0259381Y0208975D01*
X0260926Y0210377D02*
X0261393Y0210844D01*
X0262327Y0210844D01*
X0262327Y0209443D02*
X0261860Y0209443D01*
X0262794Y0201198D02*
X0261860Y0200731D01*
X0260926Y0199797D01*
X0262327Y0199797D01*
X0262794Y0199330D01*
X0262794Y0198863D01*
X0262327Y0198396D01*
X0261393Y0198396D01*
X0260926Y0198863D01*
X0260926Y0199797D01*
X0259848Y0199797D02*
X0259381Y0199330D01*
X0257980Y0199330D01*
X0258914Y0199330D02*
X0259848Y0198396D01*
X0259848Y0199797D02*
X0259848Y0200731D01*
X0259381Y0201198D01*
X0257980Y0201198D01*
X0257980Y0198396D01*
X0257980Y0190568D02*
X0259381Y0190568D01*
X0259848Y0190101D01*
X0259848Y0189167D01*
X0259381Y0188700D01*
X0257980Y0188700D01*
X0258914Y0188700D02*
X0259848Y0187766D01*
X0260926Y0187766D02*
X0260926Y0188233D01*
X0262794Y0190101D01*
X0262794Y0190568D01*
X0260926Y0190568D01*
X0257980Y0190568D02*
X0257980Y0187766D01*
X0257980Y0180922D02*
X0259381Y0180922D01*
X0259848Y0180455D01*
X0259848Y0179521D01*
X0259381Y0179054D01*
X0257980Y0179054D01*
X0258914Y0179054D02*
X0259848Y0178120D01*
X0260926Y0178587D02*
X0260926Y0179054D01*
X0261393Y0179521D01*
X0262327Y0179521D01*
X0262794Y0179054D01*
X0262794Y0178587D01*
X0262327Y0178120D01*
X0261393Y0178120D01*
X0260926Y0178587D01*
X0261393Y0179521D02*
X0260926Y0179988D01*
X0260926Y0180455D01*
X0261393Y0180922D01*
X0262327Y0180922D01*
X0262794Y0180455D01*
X0262794Y0179988D01*
X0262327Y0179521D01*
X0257980Y0178120D02*
X0257980Y0180922D01*
D12*
X0281236Y0224412D02*
X0291236Y0224412D01*
X0291236Y0104412D01*
X0281236Y0104412D01*
X0281236Y0224412D01*
X0287236Y0236412D01*
X0355236Y0236412D01*
X0361236Y0224412D01*
X0351236Y0224412D01*
X0351236Y0104412D01*
X0361236Y0104412D01*
X0361236Y0224412D01*
X0361236Y0104412D02*
X0361236Y0092412D01*
X0337236Y0092412D01*
X0337236Y0084912D01*
X0305236Y0084912D01*
X0305236Y0092412D01*
X0281236Y0092412D01*
X0281236Y0104412D01*
D13*
X0402654Y0175810D02*
X0402654Y0179747D01*
X0411315Y0179747D02*
X0411315Y0175810D01*
X0137917Y0180420D02*
X0137917Y0166420D01*
X0112114Y0166420D01*
X0112114Y0180420D01*
X0137917Y0180420D01*
X0110358Y0180420D02*
X0110358Y0166420D01*
X0084555Y0166420D01*
X0084555Y0180420D01*
X0110358Y0180420D01*
X0101984Y0199404D02*
X0096669Y0199404D01*
X0101984Y0199404D02*
X0101984Y0202160D01*
X0101984Y0207672D02*
X0101984Y0210428D01*
X0096669Y0210428D01*
X0092929Y0206097D02*
X0092929Y0203735D01*
X0120488Y0203735D02*
X0120488Y0206097D01*
X0124228Y0210428D02*
X0129543Y0210428D01*
X0129543Y0207672D01*
X0129543Y0202160D02*
X0129543Y0199404D01*
X0124228Y0199404D01*
D14*
X0039004Y0066471D02*
X0038004Y0066471D01*
X0039004Y0066471D02*
X0135004Y0066471D01*
X0135004Y0087471D01*
X0136504Y0089471D02*
X0164504Y0089471D01*
X0164504Y0091471D01*
X0154504Y0091471D01*
X0154504Y0093471D01*
X0154504Y0094471D01*
X0144504Y0094471D01*
X0144504Y0093471D01*
X0144004Y0093471D01*
X0144004Y0102971D01*
X0144002Y0103069D01*
X0143996Y0103167D01*
X0143987Y0103265D01*
X0143973Y0103362D01*
X0143956Y0103459D01*
X0143935Y0103555D01*
X0143910Y0103650D01*
X0143882Y0103744D01*
X0143849Y0103836D01*
X0143814Y0103928D01*
X0143774Y0104018D01*
X0143732Y0104106D01*
X0143685Y0104193D01*
X0143636Y0104277D01*
X0143583Y0104360D01*
X0143527Y0104440D01*
X0143467Y0104519D01*
X0143405Y0104595D01*
X0143340Y0104668D01*
X0143272Y0104739D01*
X0143201Y0104807D01*
X0143128Y0104872D01*
X0143052Y0104934D01*
X0142973Y0104994D01*
X0142893Y0105050D01*
X0142810Y0105103D01*
X0142726Y0105152D01*
X0142639Y0105199D01*
X0142551Y0105241D01*
X0142461Y0105281D01*
X0142369Y0105316D01*
X0142277Y0105349D01*
X0142183Y0105377D01*
X0142088Y0105402D01*
X0141992Y0105423D01*
X0141895Y0105440D01*
X0141798Y0105454D01*
X0141700Y0105463D01*
X0141602Y0105469D01*
X0141504Y0105471D01*
X0141004Y0105471D02*
X0141004Y0145971D01*
X0143004Y0147971D01*
X0162004Y0147971D01*
X0164504Y0145471D01*
X0164504Y0105971D01*
X0144504Y0105971D01*
X0144504Y0105471D01*
X0141004Y0105471D01*
X0140004Y0105471D01*
X0034004Y0105471D01*
X0033004Y0105471D01*
X0033004Y0145971D01*
X0031004Y0147971D01*
X0011504Y0147971D01*
X0009504Y0145971D01*
X0009504Y0105971D01*
X0029504Y0105971D01*
X0029504Y0105471D01*
X0009504Y0105471D01*
X0009504Y0105971D01*
X0009504Y0105471D02*
X0009504Y0093471D01*
X0019504Y0093471D01*
X0019504Y0094471D01*
X0029504Y0094471D01*
X0029504Y0093471D01*
X0030004Y0093471D01*
X0030004Y0102971D01*
X0030006Y0103069D01*
X0030012Y0103167D01*
X0030021Y0103265D01*
X0030035Y0103362D01*
X0030052Y0103459D01*
X0030073Y0103555D01*
X0030098Y0103650D01*
X0030126Y0103744D01*
X0030159Y0103836D01*
X0030194Y0103928D01*
X0030234Y0104018D01*
X0030276Y0104106D01*
X0030323Y0104193D01*
X0030372Y0104277D01*
X0030425Y0104360D01*
X0030481Y0104440D01*
X0030541Y0104519D01*
X0030603Y0104595D01*
X0030668Y0104668D01*
X0030736Y0104739D01*
X0030807Y0104807D01*
X0030880Y0104872D01*
X0030956Y0104934D01*
X0031035Y0104994D01*
X0031115Y0105050D01*
X0031198Y0105103D01*
X0031282Y0105152D01*
X0031369Y0105199D01*
X0031457Y0105241D01*
X0031547Y0105281D01*
X0031639Y0105316D01*
X0031731Y0105349D01*
X0031825Y0105377D01*
X0031920Y0105402D01*
X0032016Y0105423D01*
X0032113Y0105440D01*
X0032210Y0105454D01*
X0032308Y0105463D01*
X0032406Y0105469D01*
X0032504Y0105471D01*
X0033004Y0105471D02*
X0029504Y0105471D01*
X0034004Y0105471D02*
X0034004Y0108471D01*
X0140004Y0108471D01*
X0140004Y0105471D01*
X0144504Y0105471D02*
X0164504Y0105471D01*
X0164504Y0105971D01*
X0164504Y0105471D02*
X0164504Y0093471D01*
X0164504Y0091471D01*
X0164504Y0093471D02*
X0154504Y0093471D01*
X0154504Y0091471D02*
X0144504Y0091471D01*
X0029504Y0091471D01*
X0029504Y0093471D01*
X0030004Y0093471D02*
X0144004Y0093471D01*
X0144504Y0093471D02*
X0144504Y0091471D01*
X0136504Y0089471D02*
X0037504Y0089471D01*
X0009504Y0089471D01*
X0009504Y0091471D01*
X0019504Y0091471D01*
X0029504Y0091471D01*
X0037504Y0089471D02*
X0037504Y0068471D01*
X0036004Y0068471D02*
X0036006Y0068384D01*
X0036012Y0068297D01*
X0036021Y0068210D01*
X0036034Y0068124D01*
X0036051Y0068038D01*
X0036072Y0067953D01*
X0036097Y0067870D01*
X0036125Y0067787D01*
X0036156Y0067706D01*
X0036191Y0067626D01*
X0036230Y0067548D01*
X0036272Y0067471D01*
X0036317Y0067396D01*
X0036366Y0067324D01*
X0036417Y0067253D01*
X0036472Y0067185D01*
X0036529Y0067120D01*
X0036590Y0067057D01*
X0036653Y0066996D01*
X0036718Y0066939D01*
X0036786Y0066884D01*
X0036857Y0066833D01*
X0036929Y0066784D01*
X0037004Y0066739D01*
X0037081Y0066697D01*
X0037159Y0066658D01*
X0037239Y0066623D01*
X0037320Y0066592D01*
X0037403Y0066564D01*
X0037486Y0066539D01*
X0037571Y0066518D01*
X0037657Y0066501D01*
X0037743Y0066488D01*
X0037830Y0066479D01*
X0037917Y0066473D01*
X0038004Y0066471D01*
X0039004Y0066471D02*
X0039004Y0087471D01*
X0036004Y0086971D02*
X0036004Y0068471D01*
X0051504Y0071471D02*
X0051504Y0080471D01*
X0060504Y0080471D01*
X0060504Y0071471D01*
X0059004Y0071471D01*
X0059004Y0078971D01*
X0053004Y0078971D01*
X0053004Y0071471D01*
X0051504Y0071471D01*
X0067004Y0071471D02*
X0067004Y0080471D01*
X0076004Y0080471D01*
X0076004Y0071471D01*
X0074504Y0071471D01*
X0074504Y0078971D01*
X0068504Y0078971D01*
X0068504Y0071471D01*
X0067004Y0071471D01*
X0082504Y0071471D02*
X0082504Y0080471D01*
X0091504Y0080471D01*
X0091504Y0071471D01*
X0090004Y0071471D01*
X0090004Y0078971D01*
X0084004Y0078971D01*
X0084004Y0071471D01*
X0082504Y0071471D01*
X0098004Y0071471D02*
X0098004Y0080471D01*
X0107004Y0080471D01*
X0107004Y0071471D01*
X0105504Y0071471D01*
X0105504Y0078971D01*
X0099504Y0078971D01*
X0099504Y0071471D01*
X0098004Y0071471D01*
X0113504Y0071471D02*
X0113504Y0080471D01*
X0122504Y0080471D01*
X0122504Y0071471D01*
X0121004Y0071471D01*
X0121004Y0078971D01*
X0115004Y0078971D01*
X0115004Y0071471D01*
X0113504Y0071471D01*
X0135004Y0066471D02*
X0136004Y0066471D01*
X0136091Y0066473D01*
X0136178Y0066479D01*
X0136265Y0066488D01*
X0136351Y0066501D01*
X0136437Y0066518D01*
X0136522Y0066539D01*
X0136605Y0066564D01*
X0136688Y0066592D01*
X0136769Y0066623D01*
X0136849Y0066658D01*
X0136927Y0066697D01*
X0137004Y0066739D01*
X0137079Y0066784D01*
X0137151Y0066833D01*
X0137222Y0066884D01*
X0137290Y0066939D01*
X0137355Y0066996D01*
X0137418Y0067057D01*
X0137479Y0067120D01*
X0137536Y0067185D01*
X0137591Y0067253D01*
X0137642Y0067324D01*
X0137691Y0067396D01*
X0137736Y0067471D01*
X0137778Y0067548D01*
X0137817Y0067626D01*
X0137852Y0067706D01*
X0137883Y0067787D01*
X0137911Y0067870D01*
X0137936Y0067953D01*
X0137957Y0068038D01*
X0137974Y0068124D01*
X0137987Y0068210D01*
X0137996Y0068297D01*
X0138002Y0068384D01*
X0138004Y0068471D01*
X0138004Y0086971D01*
X0138006Y0087069D01*
X0138012Y0087167D01*
X0138021Y0087265D01*
X0138035Y0087362D01*
X0138052Y0087459D01*
X0138073Y0087555D01*
X0138098Y0087650D01*
X0138126Y0087744D01*
X0138159Y0087836D01*
X0138194Y0087928D01*
X0138234Y0088018D01*
X0138276Y0088106D01*
X0138323Y0088193D01*
X0138372Y0088277D01*
X0138425Y0088360D01*
X0138481Y0088440D01*
X0138541Y0088519D01*
X0138603Y0088595D01*
X0138668Y0088668D01*
X0138736Y0088739D01*
X0138807Y0088807D01*
X0138880Y0088872D01*
X0138956Y0088934D01*
X0139035Y0088994D01*
X0139115Y0089050D01*
X0139198Y0089103D01*
X0139282Y0089152D01*
X0139369Y0089199D01*
X0139457Y0089241D01*
X0139547Y0089281D01*
X0139639Y0089316D01*
X0139731Y0089349D01*
X0139825Y0089377D01*
X0139920Y0089402D01*
X0140016Y0089423D01*
X0140113Y0089440D01*
X0140210Y0089454D01*
X0140308Y0089463D01*
X0140406Y0089469D01*
X0140504Y0089471D01*
X0136504Y0089471D02*
X0136504Y0068471D01*
X0036004Y0086971D02*
X0036002Y0087069D01*
X0035996Y0087167D01*
X0035987Y0087265D01*
X0035973Y0087362D01*
X0035956Y0087459D01*
X0035935Y0087555D01*
X0035910Y0087650D01*
X0035882Y0087744D01*
X0035849Y0087836D01*
X0035814Y0087928D01*
X0035774Y0088018D01*
X0035732Y0088106D01*
X0035685Y0088193D01*
X0035636Y0088277D01*
X0035583Y0088360D01*
X0035527Y0088440D01*
X0035467Y0088519D01*
X0035405Y0088595D01*
X0035340Y0088668D01*
X0035272Y0088739D01*
X0035201Y0088807D01*
X0035128Y0088872D01*
X0035052Y0088934D01*
X0034973Y0088994D01*
X0034893Y0089050D01*
X0034810Y0089103D01*
X0034726Y0089152D01*
X0034639Y0089199D01*
X0034551Y0089241D01*
X0034461Y0089281D01*
X0034369Y0089316D01*
X0034277Y0089349D01*
X0034183Y0089377D01*
X0034088Y0089402D01*
X0033992Y0089423D01*
X0033895Y0089440D01*
X0033798Y0089454D01*
X0033700Y0089463D01*
X0033602Y0089469D01*
X0033504Y0089471D01*
X0019504Y0091471D02*
X0019504Y0093471D01*
X0009504Y0093471D02*
X0009504Y0091471D01*
X0014904Y0135471D02*
X0014906Y0135632D01*
X0014912Y0135792D01*
X0014922Y0135953D01*
X0014936Y0136113D01*
X0014954Y0136273D01*
X0014975Y0136432D01*
X0015001Y0136591D01*
X0015031Y0136749D01*
X0015064Y0136906D01*
X0015102Y0137063D01*
X0015143Y0137218D01*
X0015188Y0137372D01*
X0015237Y0137525D01*
X0015290Y0137677D01*
X0015346Y0137828D01*
X0015407Y0137977D01*
X0015470Y0138125D01*
X0015538Y0138271D01*
X0015609Y0138415D01*
X0015683Y0138557D01*
X0015761Y0138698D01*
X0015843Y0138836D01*
X0015928Y0138973D01*
X0016016Y0139107D01*
X0016108Y0139239D01*
X0016203Y0139369D01*
X0016301Y0139497D01*
X0016402Y0139622D01*
X0016506Y0139744D01*
X0016613Y0139864D01*
X0016723Y0139981D01*
X0016836Y0140096D01*
X0016952Y0140207D01*
X0017071Y0140316D01*
X0017192Y0140421D01*
X0017316Y0140524D01*
X0017442Y0140624D01*
X0017570Y0140720D01*
X0017701Y0140813D01*
X0017835Y0140903D01*
X0017970Y0140990D01*
X0018108Y0141073D01*
X0018247Y0141153D01*
X0018389Y0141229D01*
X0018532Y0141302D01*
X0018677Y0141371D01*
X0018824Y0141437D01*
X0018972Y0141499D01*
X0019122Y0141557D01*
X0019273Y0141612D01*
X0019426Y0141663D01*
X0019580Y0141710D01*
X0019735Y0141753D01*
X0019891Y0141792D01*
X0020047Y0141828D01*
X0020205Y0141859D01*
X0020363Y0141887D01*
X0020522Y0141911D01*
X0020682Y0141931D01*
X0020842Y0141947D01*
X0021002Y0141959D01*
X0021163Y0141967D01*
X0021324Y0141971D01*
X0021484Y0141971D01*
X0021645Y0141967D01*
X0021806Y0141959D01*
X0021966Y0141947D01*
X0022126Y0141931D01*
X0022286Y0141911D01*
X0022445Y0141887D01*
X0022603Y0141859D01*
X0022761Y0141828D01*
X0022917Y0141792D01*
X0023073Y0141753D01*
X0023228Y0141710D01*
X0023382Y0141663D01*
X0023535Y0141612D01*
X0023686Y0141557D01*
X0023836Y0141499D01*
X0023984Y0141437D01*
X0024131Y0141371D01*
X0024276Y0141302D01*
X0024419Y0141229D01*
X0024561Y0141153D01*
X0024700Y0141073D01*
X0024838Y0140990D01*
X0024973Y0140903D01*
X0025107Y0140813D01*
X0025238Y0140720D01*
X0025366Y0140624D01*
X0025492Y0140524D01*
X0025616Y0140421D01*
X0025737Y0140316D01*
X0025856Y0140207D01*
X0025972Y0140096D01*
X0026085Y0139981D01*
X0026195Y0139864D01*
X0026302Y0139744D01*
X0026406Y0139622D01*
X0026507Y0139497D01*
X0026605Y0139369D01*
X0026700Y0139239D01*
X0026792Y0139107D01*
X0026880Y0138973D01*
X0026965Y0138836D01*
X0027047Y0138698D01*
X0027125Y0138557D01*
X0027199Y0138415D01*
X0027270Y0138271D01*
X0027338Y0138125D01*
X0027401Y0137977D01*
X0027462Y0137828D01*
X0027518Y0137677D01*
X0027571Y0137525D01*
X0027620Y0137372D01*
X0027665Y0137218D01*
X0027706Y0137063D01*
X0027744Y0136906D01*
X0027777Y0136749D01*
X0027807Y0136591D01*
X0027833Y0136432D01*
X0027854Y0136273D01*
X0027872Y0136113D01*
X0027886Y0135953D01*
X0027896Y0135792D01*
X0027902Y0135632D01*
X0027904Y0135471D01*
X0027902Y0135310D01*
X0027896Y0135150D01*
X0027886Y0134989D01*
X0027872Y0134829D01*
X0027854Y0134669D01*
X0027833Y0134510D01*
X0027807Y0134351D01*
X0027777Y0134193D01*
X0027744Y0134036D01*
X0027706Y0133879D01*
X0027665Y0133724D01*
X0027620Y0133570D01*
X0027571Y0133417D01*
X0027518Y0133265D01*
X0027462Y0133114D01*
X0027401Y0132965D01*
X0027338Y0132817D01*
X0027270Y0132671D01*
X0027199Y0132527D01*
X0027125Y0132385D01*
X0027047Y0132244D01*
X0026965Y0132106D01*
X0026880Y0131969D01*
X0026792Y0131835D01*
X0026700Y0131703D01*
X0026605Y0131573D01*
X0026507Y0131445D01*
X0026406Y0131320D01*
X0026302Y0131198D01*
X0026195Y0131078D01*
X0026085Y0130961D01*
X0025972Y0130846D01*
X0025856Y0130735D01*
X0025737Y0130626D01*
X0025616Y0130521D01*
X0025492Y0130418D01*
X0025366Y0130318D01*
X0025238Y0130222D01*
X0025107Y0130129D01*
X0024973Y0130039D01*
X0024838Y0129952D01*
X0024700Y0129869D01*
X0024561Y0129789D01*
X0024419Y0129713D01*
X0024276Y0129640D01*
X0024131Y0129571D01*
X0023984Y0129505D01*
X0023836Y0129443D01*
X0023686Y0129385D01*
X0023535Y0129330D01*
X0023382Y0129279D01*
X0023228Y0129232D01*
X0023073Y0129189D01*
X0022917Y0129150D01*
X0022761Y0129114D01*
X0022603Y0129083D01*
X0022445Y0129055D01*
X0022286Y0129031D01*
X0022126Y0129011D01*
X0021966Y0128995D01*
X0021806Y0128983D01*
X0021645Y0128975D01*
X0021484Y0128971D01*
X0021324Y0128971D01*
X0021163Y0128975D01*
X0021002Y0128983D01*
X0020842Y0128995D01*
X0020682Y0129011D01*
X0020522Y0129031D01*
X0020363Y0129055D01*
X0020205Y0129083D01*
X0020047Y0129114D01*
X0019891Y0129150D01*
X0019735Y0129189D01*
X0019580Y0129232D01*
X0019426Y0129279D01*
X0019273Y0129330D01*
X0019122Y0129385D01*
X0018972Y0129443D01*
X0018824Y0129505D01*
X0018677Y0129571D01*
X0018532Y0129640D01*
X0018389Y0129713D01*
X0018247Y0129789D01*
X0018108Y0129869D01*
X0017970Y0129952D01*
X0017835Y0130039D01*
X0017701Y0130129D01*
X0017570Y0130222D01*
X0017442Y0130318D01*
X0017316Y0130418D01*
X0017192Y0130521D01*
X0017071Y0130626D01*
X0016952Y0130735D01*
X0016836Y0130846D01*
X0016723Y0130961D01*
X0016613Y0131078D01*
X0016506Y0131198D01*
X0016402Y0131320D01*
X0016301Y0131445D01*
X0016203Y0131573D01*
X0016108Y0131703D01*
X0016016Y0131835D01*
X0015928Y0131969D01*
X0015843Y0132106D01*
X0015761Y0132244D01*
X0015683Y0132385D01*
X0015609Y0132527D01*
X0015538Y0132671D01*
X0015470Y0132817D01*
X0015407Y0132965D01*
X0015346Y0133114D01*
X0015290Y0133265D01*
X0015237Y0133417D01*
X0015188Y0133570D01*
X0015143Y0133724D01*
X0015102Y0133879D01*
X0015064Y0134036D01*
X0015031Y0134193D01*
X0015001Y0134351D01*
X0014975Y0134510D01*
X0014954Y0134669D01*
X0014936Y0134829D01*
X0014922Y0134989D01*
X0014912Y0135150D01*
X0014906Y0135310D01*
X0014904Y0135471D01*
X0146104Y0135471D02*
X0146106Y0135632D01*
X0146112Y0135792D01*
X0146122Y0135953D01*
X0146136Y0136113D01*
X0146154Y0136273D01*
X0146175Y0136432D01*
X0146201Y0136591D01*
X0146231Y0136749D01*
X0146264Y0136906D01*
X0146302Y0137063D01*
X0146343Y0137218D01*
X0146388Y0137372D01*
X0146437Y0137525D01*
X0146490Y0137677D01*
X0146546Y0137828D01*
X0146607Y0137977D01*
X0146670Y0138125D01*
X0146738Y0138271D01*
X0146809Y0138415D01*
X0146883Y0138557D01*
X0146961Y0138698D01*
X0147043Y0138836D01*
X0147128Y0138973D01*
X0147216Y0139107D01*
X0147308Y0139239D01*
X0147403Y0139369D01*
X0147501Y0139497D01*
X0147602Y0139622D01*
X0147706Y0139744D01*
X0147813Y0139864D01*
X0147923Y0139981D01*
X0148036Y0140096D01*
X0148152Y0140207D01*
X0148271Y0140316D01*
X0148392Y0140421D01*
X0148516Y0140524D01*
X0148642Y0140624D01*
X0148770Y0140720D01*
X0148901Y0140813D01*
X0149035Y0140903D01*
X0149170Y0140990D01*
X0149308Y0141073D01*
X0149447Y0141153D01*
X0149589Y0141229D01*
X0149732Y0141302D01*
X0149877Y0141371D01*
X0150024Y0141437D01*
X0150172Y0141499D01*
X0150322Y0141557D01*
X0150473Y0141612D01*
X0150626Y0141663D01*
X0150780Y0141710D01*
X0150935Y0141753D01*
X0151091Y0141792D01*
X0151247Y0141828D01*
X0151405Y0141859D01*
X0151563Y0141887D01*
X0151722Y0141911D01*
X0151882Y0141931D01*
X0152042Y0141947D01*
X0152202Y0141959D01*
X0152363Y0141967D01*
X0152524Y0141971D01*
X0152684Y0141971D01*
X0152845Y0141967D01*
X0153006Y0141959D01*
X0153166Y0141947D01*
X0153326Y0141931D01*
X0153486Y0141911D01*
X0153645Y0141887D01*
X0153803Y0141859D01*
X0153961Y0141828D01*
X0154117Y0141792D01*
X0154273Y0141753D01*
X0154428Y0141710D01*
X0154582Y0141663D01*
X0154735Y0141612D01*
X0154886Y0141557D01*
X0155036Y0141499D01*
X0155184Y0141437D01*
X0155331Y0141371D01*
X0155476Y0141302D01*
X0155619Y0141229D01*
X0155761Y0141153D01*
X0155900Y0141073D01*
X0156038Y0140990D01*
X0156173Y0140903D01*
X0156307Y0140813D01*
X0156438Y0140720D01*
X0156566Y0140624D01*
X0156692Y0140524D01*
X0156816Y0140421D01*
X0156937Y0140316D01*
X0157056Y0140207D01*
X0157172Y0140096D01*
X0157285Y0139981D01*
X0157395Y0139864D01*
X0157502Y0139744D01*
X0157606Y0139622D01*
X0157707Y0139497D01*
X0157805Y0139369D01*
X0157900Y0139239D01*
X0157992Y0139107D01*
X0158080Y0138973D01*
X0158165Y0138836D01*
X0158247Y0138698D01*
X0158325Y0138557D01*
X0158399Y0138415D01*
X0158470Y0138271D01*
X0158538Y0138125D01*
X0158601Y0137977D01*
X0158662Y0137828D01*
X0158718Y0137677D01*
X0158771Y0137525D01*
X0158820Y0137372D01*
X0158865Y0137218D01*
X0158906Y0137063D01*
X0158944Y0136906D01*
X0158977Y0136749D01*
X0159007Y0136591D01*
X0159033Y0136432D01*
X0159054Y0136273D01*
X0159072Y0136113D01*
X0159086Y0135953D01*
X0159096Y0135792D01*
X0159102Y0135632D01*
X0159104Y0135471D01*
X0159102Y0135310D01*
X0159096Y0135150D01*
X0159086Y0134989D01*
X0159072Y0134829D01*
X0159054Y0134669D01*
X0159033Y0134510D01*
X0159007Y0134351D01*
X0158977Y0134193D01*
X0158944Y0134036D01*
X0158906Y0133879D01*
X0158865Y0133724D01*
X0158820Y0133570D01*
X0158771Y0133417D01*
X0158718Y0133265D01*
X0158662Y0133114D01*
X0158601Y0132965D01*
X0158538Y0132817D01*
X0158470Y0132671D01*
X0158399Y0132527D01*
X0158325Y0132385D01*
X0158247Y0132244D01*
X0158165Y0132106D01*
X0158080Y0131969D01*
X0157992Y0131835D01*
X0157900Y0131703D01*
X0157805Y0131573D01*
X0157707Y0131445D01*
X0157606Y0131320D01*
X0157502Y0131198D01*
X0157395Y0131078D01*
X0157285Y0130961D01*
X0157172Y0130846D01*
X0157056Y0130735D01*
X0156937Y0130626D01*
X0156816Y0130521D01*
X0156692Y0130418D01*
X0156566Y0130318D01*
X0156438Y0130222D01*
X0156307Y0130129D01*
X0156173Y0130039D01*
X0156038Y0129952D01*
X0155900Y0129869D01*
X0155761Y0129789D01*
X0155619Y0129713D01*
X0155476Y0129640D01*
X0155331Y0129571D01*
X0155184Y0129505D01*
X0155036Y0129443D01*
X0154886Y0129385D01*
X0154735Y0129330D01*
X0154582Y0129279D01*
X0154428Y0129232D01*
X0154273Y0129189D01*
X0154117Y0129150D01*
X0153961Y0129114D01*
X0153803Y0129083D01*
X0153645Y0129055D01*
X0153486Y0129031D01*
X0153326Y0129011D01*
X0153166Y0128995D01*
X0153006Y0128983D01*
X0152845Y0128975D01*
X0152684Y0128971D01*
X0152524Y0128971D01*
X0152363Y0128975D01*
X0152202Y0128983D01*
X0152042Y0128995D01*
X0151882Y0129011D01*
X0151722Y0129031D01*
X0151563Y0129055D01*
X0151405Y0129083D01*
X0151247Y0129114D01*
X0151091Y0129150D01*
X0150935Y0129189D01*
X0150780Y0129232D01*
X0150626Y0129279D01*
X0150473Y0129330D01*
X0150322Y0129385D01*
X0150172Y0129443D01*
X0150024Y0129505D01*
X0149877Y0129571D01*
X0149732Y0129640D01*
X0149589Y0129713D01*
X0149447Y0129789D01*
X0149308Y0129869D01*
X0149170Y0129952D01*
X0149035Y0130039D01*
X0148901Y0130129D01*
X0148770Y0130222D01*
X0148642Y0130318D01*
X0148516Y0130418D01*
X0148392Y0130521D01*
X0148271Y0130626D01*
X0148152Y0130735D01*
X0148036Y0130846D01*
X0147923Y0130961D01*
X0147813Y0131078D01*
X0147706Y0131198D01*
X0147602Y0131320D01*
X0147501Y0131445D01*
X0147403Y0131573D01*
X0147308Y0131703D01*
X0147216Y0131835D01*
X0147128Y0131969D01*
X0147043Y0132106D01*
X0146961Y0132244D01*
X0146883Y0132385D01*
X0146809Y0132527D01*
X0146738Y0132671D01*
X0146670Y0132817D01*
X0146607Y0132965D01*
X0146546Y0133114D01*
X0146490Y0133265D01*
X0146437Y0133417D01*
X0146388Y0133570D01*
X0146343Y0133724D01*
X0146302Y0133879D01*
X0146264Y0134036D01*
X0146231Y0134193D01*
X0146201Y0134351D01*
X0146175Y0134510D01*
X0146154Y0134669D01*
X0146136Y0134829D01*
X0146122Y0134989D01*
X0146112Y0135150D01*
X0146106Y0135310D01*
X0146104Y0135471D01*
X0407126Y0217857D02*
X0407126Y0223467D01*
X0419283Y0223467D02*
X0419283Y0217857D01*
D15*
X0142004Y0098221D03*
X0032004Y0098221D03*
D16*
X0021204Y0108721D03*
X0152804Y0108721D03*
D17*
X0087004Y0090471D03*
D18*
X0087004Y0106971D03*
D19*
X0092404Y0122721D03*
X0103204Y0122721D03*
X0114004Y0122721D03*
X0124804Y0122721D03*
X0081604Y0122721D03*
X0070804Y0122721D03*
X0060004Y0122721D03*
X0049204Y0122721D03*
D20*
X0054604Y0117721D03*
X0065404Y0117721D03*
X0076204Y0117721D03*
X0087004Y0117721D03*
X0097804Y0117721D03*
X0108604Y0117721D03*
X0119404Y0117721D03*
D21*
X0141945Y0173223D02*
X0144701Y0178144D01*
X0147457Y0173223D01*
X0141945Y0173223D01*
X0080528Y0173223D02*
X0075016Y0173223D01*
X0077772Y0178144D01*
X0080528Y0173223D01*
X0121374Y0227396D02*
X0128874Y0227396D01*
X0128874Y0247396D01*
X0146374Y0247396D01*
X0146374Y0227396D01*
X0128874Y0227396D01*
X0121374Y0227396D02*
X0121374Y0247396D01*
X0128874Y0247396D01*
D22*
X0144701Y0178341D03*
X0077772Y0178341D03*
D23*
X0137417Y0262160D02*
X0137417Y0262200D01*
D24*
X0142417Y0259680D02*
X0132378Y0259680D01*
X0132378Y0254522D01*
X0142417Y0254522D01*
X0142417Y0259680D01*
D25*
X0154543Y0179710D03*
X0066945Y0179710D03*
D26*
X0070335Y0178112D02*
X0070335Y0175910D01*
X0070335Y0176644D02*
X0071803Y0178112D01*
X0070702Y0177011D02*
X0071803Y0175910D01*
X0157933Y0175910D02*
X0157933Y0178112D01*
X0158300Y0177011D02*
X0159401Y0175910D01*
X0157933Y0176644D02*
X0159401Y0178112D01*
M02*
