G75*
%MOIN*%
%OFA0B0*%
%FSLAX24Y24*%
%IPPOS*%
%LPD*%
%AMOC8*
5,1,8,0,0,1.08239X$1,22.5*
%
%ADD10C,0.0000*%
%ADD11R,0.0591X0.0512*%
%ADD12R,0.0512X0.0591*%
%ADD13OC8,0.0477*%
%ADD14R,0.0260X0.0800*%
%ADD15C,0.0557*%
%ADD16R,0.0140X0.0580*%
%ADD17OC8,0.0517*%
%ADD18C,0.0240*%
%ADD19R,0.0425X0.0425*%
%ADD20C,0.0120*%
%ADD21C,0.0100*%
%ADD22C,0.0160*%
D10*
X000150Y000150D02*
X000150Y039520D01*
X016142Y039520D01*
X016142Y000150D01*
X000150Y000150D01*
X014600Y002400D02*
X014602Y002447D01*
X014608Y002493D01*
X014618Y002539D01*
X014631Y002583D01*
X014649Y002627D01*
X014670Y002668D01*
X014694Y002708D01*
X014722Y002746D01*
X014753Y002781D01*
X014787Y002813D01*
X014823Y002842D01*
X014862Y002868D01*
X014902Y002891D01*
X014945Y002910D01*
X014989Y002926D01*
X015034Y002938D01*
X015080Y002946D01*
X015127Y002950D01*
X015173Y002950D01*
X015220Y002946D01*
X015266Y002938D01*
X015311Y002926D01*
X015355Y002910D01*
X015398Y002891D01*
X015438Y002868D01*
X015477Y002842D01*
X015513Y002813D01*
X015547Y002781D01*
X015578Y002746D01*
X015606Y002708D01*
X015630Y002668D01*
X015651Y002627D01*
X015669Y002583D01*
X015682Y002539D01*
X015692Y002493D01*
X015698Y002447D01*
X015700Y002400D01*
X015698Y002353D01*
X015692Y002307D01*
X015682Y002261D01*
X015669Y002217D01*
X015651Y002173D01*
X015630Y002132D01*
X015606Y002092D01*
X015578Y002054D01*
X015547Y002019D01*
X015513Y001987D01*
X015477Y001958D01*
X015438Y001932D01*
X015398Y001909D01*
X015355Y001890D01*
X015311Y001874D01*
X015266Y001862D01*
X015220Y001854D01*
X015173Y001850D01*
X015127Y001850D01*
X015080Y001854D01*
X015034Y001862D01*
X014989Y001874D01*
X014945Y001890D01*
X014902Y001909D01*
X014862Y001932D01*
X014823Y001958D01*
X014787Y001987D01*
X014753Y002019D01*
X014722Y002054D01*
X014694Y002092D01*
X014670Y002132D01*
X014649Y002173D01*
X014631Y002217D01*
X014618Y002261D01*
X014608Y002307D01*
X014602Y002353D01*
X014600Y002400D01*
X016250Y000210D02*
X016250Y039590D01*
X014600Y037400D02*
X014602Y037447D01*
X014608Y037493D01*
X014618Y037539D01*
X014631Y037583D01*
X014649Y037627D01*
X014670Y037668D01*
X014694Y037708D01*
X014722Y037746D01*
X014753Y037781D01*
X014787Y037813D01*
X014823Y037842D01*
X014862Y037868D01*
X014902Y037891D01*
X014945Y037910D01*
X014989Y037926D01*
X015034Y037938D01*
X015080Y037946D01*
X015127Y037950D01*
X015173Y037950D01*
X015220Y037946D01*
X015266Y037938D01*
X015311Y037926D01*
X015355Y037910D01*
X015398Y037891D01*
X015438Y037868D01*
X015477Y037842D01*
X015513Y037813D01*
X015547Y037781D01*
X015578Y037746D01*
X015606Y037708D01*
X015630Y037668D01*
X015651Y037627D01*
X015669Y037583D01*
X015682Y037539D01*
X015692Y037493D01*
X015698Y037447D01*
X015700Y037400D01*
X015698Y037353D01*
X015692Y037307D01*
X015682Y037261D01*
X015669Y037217D01*
X015651Y037173D01*
X015630Y037132D01*
X015606Y037092D01*
X015578Y037054D01*
X015547Y037019D01*
X015513Y036987D01*
X015477Y036958D01*
X015438Y036932D01*
X015398Y036909D01*
X015355Y036890D01*
X015311Y036874D01*
X015266Y036862D01*
X015220Y036854D01*
X015173Y036850D01*
X015127Y036850D01*
X015080Y036854D01*
X015034Y036862D01*
X014989Y036874D01*
X014945Y036890D01*
X014902Y036909D01*
X014862Y036932D01*
X014823Y036958D01*
X014787Y036987D01*
X014753Y037019D01*
X014722Y037054D01*
X014694Y037092D01*
X014670Y037132D01*
X014649Y037173D01*
X014631Y037217D01*
X014618Y037261D01*
X014608Y037307D01*
X014602Y037353D01*
X014600Y037400D01*
D11*
X012650Y033524D03*
X012650Y032776D03*
X008150Y032024D03*
X008150Y031276D03*
X008150Y025024D03*
X008150Y024276D03*
X005650Y018024D03*
X005650Y017276D03*
X003150Y021776D03*
X003150Y022524D03*
X003650Y033276D03*
X003650Y034024D03*
X013150Y019524D03*
X013150Y018776D03*
X006150Y011524D03*
X006150Y010776D03*
D12*
X006024Y012650D03*
X005276Y012650D03*
X004024Y018150D03*
X003276Y018150D03*
X003276Y020150D03*
X004024Y020150D03*
X007776Y022650D03*
X008524Y022650D03*
X012276Y028150D03*
X013024Y028150D03*
X012274Y030650D03*
X011526Y030650D03*
X004024Y036150D03*
X003276Y036150D03*
D13*
X005900Y023650D03*
X005900Y020650D03*
X008150Y014650D03*
X011150Y014650D03*
X011150Y015650D03*
X011150Y018650D03*
X012650Y020650D03*
X012650Y023650D03*
X011650Y025650D03*
X011650Y026650D03*
X012400Y026150D03*
D14*
X009650Y026940D03*
X009150Y026940D03*
X008650Y026940D03*
X008150Y026940D03*
X007650Y026940D03*
X007150Y026940D03*
X006650Y026940D03*
X006650Y029360D03*
X007150Y029360D03*
X007650Y029360D03*
X008150Y029360D03*
X008650Y029360D03*
X009150Y029360D03*
X009650Y029360D03*
X009400Y012360D03*
X008900Y012360D03*
X008400Y012360D03*
X007900Y012360D03*
X007400Y012360D03*
X007400Y009940D03*
X007900Y009940D03*
X008400Y009940D03*
X008900Y009940D03*
X009400Y009940D03*
X009900Y009940D03*
X010400Y009940D03*
X010900Y009940D03*
X010900Y012360D03*
X010400Y012360D03*
X009900Y012360D03*
D15*
X003929Y011150D02*
X003371Y011150D01*
X003371Y010150D02*
X003929Y010150D01*
X003929Y009150D02*
X003371Y009150D01*
X003371Y008150D02*
X003929Y008150D01*
X003929Y014150D02*
X003371Y014150D01*
X003371Y015150D02*
X003929Y015150D01*
X003929Y024650D02*
X003371Y024650D01*
X003371Y025650D02*
X003929Y025650D01*
X003929Y026650D02*
X003371Y026650D01*
X003371Y027650D02*
X003929Y027650D01*
X003929Y028650D02*
X003371Y028650D01*
X003371Y029650D02*
X003929Y029650D01*
X003929Y030650D02*
X003371Y030650D01*
X003371Y031650D02*
X003929Y031650D01*
D16*
X007500Y019760D03*
X007750Y019760D03*
X008010Y019760D03*
X008270Y019760D03*
X008520Y019760D03*
X008780Y019760D03*
X009030Y019760D03*
X009290Y019760D03*
X009550Y019760D03*
X009800Y019760D03*
X009800Y017540D03*
X009550Y017540D03*
X009290Y017540D03*
X009030Y017540D03*
X008780Y017540D03*
X008520Y017540D03*
X008270Y017540D03*
X008010Y017540D03*
X007750Y017540D03*
X007500Y017540D03*
D17*
X014150Y017400D03*
X014150Y016400D03*
X014150Y015400D03*
X014150Y014400D03*
X014150Y013400D03*
X014150Y012400D03*
X014150Y011400D03*
X014150Y010400D03*
X014150Y009400D03*
X014150Y008400D03*
X014150Y007400D03*
X014150Y006400D03*
X014150Y005400D03*
X014150Y004400D03*
X014150Y018400D03*
X014150Y019400D03*
X014150Y020400D03*
X014150Y021400D03*
X014150Y022400D03*
X014150Y023400D03*
X014150Y024400D03*
X014150Y025400D03*
X014150Y026400D03*
X014150Y027400D03*
X014150Y028400D03*
X014150Y029400D03*
X014150Y030400D03*
X014150Y031400D03*
X014150Y032400D03*
X014150Y033400D03*
X014150Y034400D03*
X014150Y035400D03*
D18*
X014900Y035400D01*
X015150Y035150D01*
X015150Y031150D01*
X014900Y030900D01*
X013150Y030900D01*
X012900Y030650D01*
X012274Y030650D01*
X012274Y028152D01*
X012276Y028150D01*
X012150Y028150D01*
X011650Y027650D01*
X011650Y026650D01*
X011150Y026150D02*
X011650Y025650D01*
X011650Y024150D01*
X011150Y023650D01*
X010650Y024400D02*
X010650Y032150D01*
X011276Y032776D01*
X012650Y032776D01*
X012650Y032650D01*
X012900Y032400D01*
X014150Y032400D01*
X013150Y030150D02*
X013024Y030024D01*
X013024Y028150D01*
X013024Y026524D01*
X012650Y026150D01*
X012400Y026150D01*
X011150Y026150D02*
X011150Y030524D01*
X011526Y030650D01*
X012650Y033524D02*
X012524Y033650D01*
X012650Y033524D02*
X012650Y035150D01*
X012900Y035400D01*
X014150Y035400D01*
X009650Y034150D02*
X009650Y030150D01*
X009400Y029900D01*
X009650Y029650D01*
X009650Y029360D01*
X009150Y029650D02*
X009400Y029900D01*
X009150Y029650D02*
X009150Y029360D01*
X008650Y029360D02*
X008650Y030150D01*
X009150Y030650D01*
X009150Y033400D01*
X005150Y033400D01*
X005150Y036150D01*
X004024Y036150D01*
X003276Y036150D02*
X002150Y036150D01*
X001650Y037150D02*
X005650Y037150D01*
X005650Y034150D01*
X009650Y034150D01*
X008150Y032024D02*
X006024Y032024D01*
X004650Y030650D01*
X003650Y030650D01*
X003650Y029650D02*
X003150Y029650D01*
X002650Y030150D01*
X002650Y032650D01*
X003150Y033150D01*
X003650Y033276D01*
X003650Y034024D02*
X002150Y034150D01*
X001150Y036650D02*
X001650Y037150D01*
X001150Y036650D02*
X001150Y019650D01*
X001650Y020150D02*
X001650Y018150D01*
X001650Y016650D01*
X001650Y018150D02*
X003276Y018150D01*
X004024Y018150D02*
X004650Y018150D01*
X004776Y018024D01*
X005650Y018024D01*
X005650Y017276D02*
X005650Y016150D01*
X004650Y015150D01*
X003650Y015150D01*
X004150Y012650D02*
X003650Y012150D01*
X003650Y011150D01*
X004150Y012650D02*
X005276Y012650D01*
X005276Y009524D01*
X005650Y009150D01*
X007150Y009150D01*
X007400Y009400D01*
X007400Y009940D01*
X007900Y009940D02*
X007900Y010400D01*
X007524Y010776D01*
X006150Y010776D01*
X006150Y011524D02*
X006024Y011650D01*
X006024Y012650D01*
X006524Y013150D01*
X006524Y019774D01*
X005150Y020650D02*
X005150Y023650D01*
X005650Y024150D01*
X005650Y025150D01*
X005150Y025650D01*
X003650Y025650D01*
X003650Y027650D02*
X002650Y027650D01*
X002650Y023650D01*
X002650Y023276D01*
X003150Y022524D01*
X003150Y021776D02*
X001650Y021650D01*
X001650Y020150D01*
X003276Y020150D01*
X004024Y020150D02*
X004650Y020150D01*
X005150Y020650D01*
X006400Y023900D02*
X006150Y024650D01*
X006150Y025650D01*
X005650Y026150D01*
X005650Y026650D01*
X005150Y027650D02*
X005650Y028150D01*
X007150Y028150D01*
X007650Y027650D01*
X007650Y026940D01*
X007150Y026940D02*
X007150Y026650D01*
X006900Y026400D01*
X006650Y026650D01*
X006650Y026940D01*
X006650Y028650D02*
X006150Y028650D01*
X005650Y029150D01*
X005150Y029650D02*
X003650Y029650D01*
X003650Y027650D02*
X005150Y027650D01*
X005150Y029650D02*
X006150Y030650D01*
X007150Y030650D01*
X007650Y030150D01*
X007650Y029360D01*
X007150Y029360D02*
X007150Y029650D01*
X006900Y029900D01*
X006650Y029650D01*
X006650Y029360D01*
X006650Y028650D01*
X008150Y029360D02*
X008150Y030150D01*
X008150Y031276D01*
X008150Y026940D02*
X008150Y025024D01*
X008150Y024276D02*
X008150Y023400D01*
X007900Y023400D01*
X007650Y023150D01*
X007650Y022776D01*
X007776Y022650D01*
X008524Y022650D02*
X008900Y022650D01*
X009400Y022900D01*
X010650Y024400D01*
X010650Y022650D02*
X010776Y022524D01*
X012776Y022524D01*
X013150Y022150D01*
X013150Y019524D01*
X014026Y019524D01*
X014150Y019400D01*
X013150Y018776D02*
X012650Y018150D01*
X012150Y018150D01*
X011150Y017150D01*
X011150Y015650D01*
X011150Y014650D01*
X011650Y014650D01*
X012150Y014150D01*
X012150Y010150D01*
X011650Y009650D01*
X010900Y009650D01*
X010900Y008650D01*
X008650Y008650D01*
X008650Y009150D01*
X008900Y009400D01*
X008900Y009940D01*
X008400Y009400D02*
X008650Y009150D01*
X008400Y009400D02*
X008400Y009940D01*
X007900Y009940D02*
X007900Y008900D01*
X007650Y008650D01*
X005150Y008650D01*
X004650Y009150D01*
X003650Y009150D01*
X006524Y013150D02*
X007150Y013150D01*
X007400Y012900D01*
X007400Y012360D01*
X010900Y009940D02*
X010900Y009650D01*
X010900Y008650D02*
X010900Y004400D01*
X009400Y026400D02*
X009650Y026650D01*
X009650Y026940D01*
X009150Y026650D02*
X009400Y026400D01*
X009150Y026650D02*
X009150Y026940D01*
D19*
X008650Y026150D03*
X009400Y025650D03*
X010150Y025150D03*
X011150Y023650D03*
X010650Y022650D03*
X009400Y021900D03*
X008400Y020900D03*
X007400Y020650D03*
X007900Y018650D03*
X008100Y016150D03*
X008650Y015150D03*
X009150Y015650D03*
X009400Y016650D03*
X010150Y018650D03*
X008150Y023400D03*
X006900Y025400D03*
X005650Y026650D03*
X005650Y029150D03*
X005150Y033400D03*
X002150Y034150D03*
X002150Y036150D03*
X008150Y030150D03*
X013150Y030150D03*
X005900Y019150D03*
X005650Y016150D03*
X007150Y013650D03*
X009400Y013400D03*
X010900Y004400D03*
X001650Y016650D03*
X001150Y019650D03*
X001650Y021650D03*
D20*
X007400Y020650D02*
X007750Y020550D01*
X007750Y019760D01*
X008010Y019760D02*
X008010Y020510D01*
X008400Y020900D01*
X008900Y020650D02*
X008520Y020270D01*
X008520Y019760D01*
X008270Y019280D02*
X008400Y019150D01*
X008650Y019150D01*
X008650Y018650D01*
X009030Y018270D01*
X009030Y017540D01*
X008780Y017540D02*
X008780Y016020D01*
X009150Y015650D01*
X008520Y015280D02*
X008520Y017540D01*
X008270Y017540D02*
X008270Y018270D01*
X008650Y018650D01*
X008650Y019150D02*
X008900Y019150D01*
X009030Y019280D01*
X009030Y019760D01*
X009290Y019760D02*
X009290Y021790D01*
X008900Y021400D02*
X008900Y020650D01*
X008900Y021400D02*
X008650Y021650D01*
X008650Y022524D01*
X008524Y022650D01*
X009650Y020650D02*
X009550Y020550D01*
X009550Y019760D01*
X009800Y019760D02*
X009800Y020300D01*
X009900Y020400D01*
X010400Y020400D01*
X010650Y020150D01*
X010150Y018650D02*
X009650Y018650D01*
X009550Y018550D01*
X009550Y017540D01*
X009800Y017540D02*
X009800Y015300D01*
X009290Y016760D02*
X009290Y017540D01*
X008270Y017540D02*
X008270Y016270D01*
X008100Y016150D01*
X007750Y015050D02*
X008150Y014650D01*
X007750Y015050D02*
X007750Y017540D01*
X008010Y017540D02*
X008010Y018540D01*
X008270Y019280D02*
X008270Y019760D01*
X007500Y017540D02*
X007500Y014300D01*
X007900Y013900D01*
D21*
X008870Y015653D02*
X008870Y016973D01*
X008902Y016960D01*
X008914Y016960D01*
X008897Y016920D01*
X008897Y016380D01*
X008942Y016273D01*
X009023Y016192D01*
X009130Y016147D01*
X009450Y016147D01*
X009450Y015473D01*
X009153Y015176D01*
X009153Y015420D01*
X009108Y015527D01*
X009027Y015608D01*
X008920Y015653D01*
X008870Y015653D01*
X008870Y015713D02*
X009450Y015713D01*
X009450Y015615D02*
X009012Y015615D01*
X009113Y015516D02*
X009450Y015516D01*
X009394Y015418D02*
X009153Y015418D01*
X009153Y015319D02*
X009296Y015319D01*
X009197Y015221D02*
X009153Y015221D01*
X008870Y015812D02*
X009450Y015812D01*
X009450Y015910D02*
X008870Y015910D01*
X008870Y016009D02*
X009450Y016009D01*
X009450Y016107D02*
X008870Y016107D01*
X008870Y016206D02*
X009009Y016206D01*
X008929Y016304D02*
X008870Y016304D01*
X008870Y016403D02*
X008897Y016403D01*
X008897Y016501D02*
X008870Y016501D01*
X008870Y016600D02*
X008897Y016600D01*
X008897Y016698D02*
X008870Y016698D01*
X008870Y016797D02*
X008897Y016797D01*
X008897Y016895D02*
X008870Y016895D01*
X009956Y014433D02*
X010848Y014433D01*
X010783Y014498D02*
X010998Y014283D01*
X011120Y014283D01*
X011120Y014620D01*
X011180Y014620D01*
X011180Y014680D01*
X011517Y014680D01*
X011517Y014802D01*
X011302Y015017D01*
X011180Y015017D01*
X011180Y014680D01*
X011120Y014680D01*
X011120Y015017D01*
X010998Y015017D01*
X010783Y014802D01*
X010783Y014680D01*
X011120Y014680D01*
X011120Y014620D01*
X010783Y014620D01*
X010783Y014498D01*
X010783Y014531D02*
X010054Y014531D01*
X010153Y014630D02*
X011120Y014630D01*
X011180Y014630D02*
X013604Y014630D01*
X013601Y014627D02*
X013601Y014173D01*
X013874Y013900D01*
X013601Y013627D01*
X013601Y013173D01*
X013874Y012900D01*
X013601Y012627D01*
X013601Y012173D01*
X013874Y011900D01*
X013601Y011627D01*
X013601Y011173D01*
X013874Y010900D01*
X013601Y010627D01*
X013601Y010173D01*
X013874Y009900D01*
X013601Y009627D01*
X013601Y009173D01*
X013874Y008900D01*
X013601Y008627D01*
X013601Y008173D01*
X013874Y007900D01*
X013601Y007627D01*
X013601Y007173D01*
X013874Y006900D01*
X013601Y006627D01*
X013601Y006173D01*
X013874Y005900D01*
X013601Y005627D01*
X013601Y005173D01*
X013923Y004851D01*
X014377Y004851D01*
X014699Y005173D01*
X014699Y005627D01*
X014426Y005900D01*
X014699Y006173D01*
X014699Y006627D01*
X014426Y006900D01*
X014699Y007173D01*
X014699Y007627D01*
X014426Y007900D01*
X014699Y008173D01*
X014699Y008627D01*
X014426Y008900D01*
X014699Y009173D01*
X014699Y009627D01*
X014426Y009900D01*
X014699Y010173D01*
X014699Y010627D01*
X014426Y010900D01*
X014699Y011173D01*
X014699Y011627D01*
X014426Y011900D01*
X014699Y012173D01*
X014699Y012627D01*
X014426Y012900D01*
X014699Y013173D01*
X014699Y013627D01*
X014426Y013900D01*
X014699Y014173D01*
X014699Y014627D01*
X014426Y014900D01*
X014699Y015173D01*
X014699Y015627D01*
X014426Y015900D01*
X014699Y016173D01*
X014699Y016627D01*
X014426Y016900D01*
X014699Y017173D01*
X014699Y017627D01*
X014426Y017900D01*
X014699Y018173D01*
X014699Y018627D01*
X014426Y018900D01*
X014699Y019173D01*
X014699Y019627D01*
X014426Y019900D01*
X014699Y020173D01*
X014699Y020627D01*
X014426Y020900D01*
X014699Y021173D01*
X014699Y021627D01*
X014426Y021900D01*
X014699Y022173D01*
X014699Y022627D01*
X014426Y022900D01*
X014699Y023173D01*
X014699Y023627D01*
X014426Y023900D01*
X014699Y024173D01*
X014699Y024627D01*
X014426Y024900D01*
X014699Y025173D01*
X014699Y025627D01*
X014426Y025900D01*
X014699Y026173D01*
X014699Y026627D01*
X014426Y026900D01*
X014699Y027173D01*
X014699Y027627D01*
X014426Y027900D01*
X014699Y028173D01*
X014699Y028627D01*
X014426Y028900D01*
X014699Y029173D01*
X014699Y029627D01*
X014426Y029900D01*
X014699Y030173D01*
X014699Y030627D01*
X014426Y030900D01*
X014699Y031173D01*
X014699Y031627D01*
X014426Y031900D01*
X014699Y032173D01*
X014699Y032627D01*
X014426Y032900D01*
X014699Y033173D01*
X014699Y033627D01*
X014426Y033900D01*
X014699Y034173D01*
X014699Y034627D01*
X014377Y034949D01*
X013923Y034949D01*
X013601Y034627D01*
X013601Y034173D01*
X013874Y033900D01*
X013601Y033627D01*
X013601Y033173D01*
X013874Y032900D01*
X013784Y032810D01*
X013235Y032810D01*
X013235Y033090D01*
X013191Y033196D01*
X013110Y033278D01*
X013074Y033292D01*
X013074Y033474D01*
X012700Y033474D01*
X012700Y033574D01*
X013074Y033574D01*
X013074Y033797D01*
X013065Y033830D01*
X013048Y033859D01*
X013024Y033883D01*
X012995Y033900D01*
X012962Y033909D01*
X012700Y033909D01*
X012700Y033574D01*
X012600Y033574D01*
X012600Y033474D01*
X012226Y033474D01*
X012226Y033292D01*
X012190Y033278D01*
X012109Y033196D01*
X012105Y033186D01*
X011194Y033186D01*
X011044Y033124D01*
X010418Y032498D01*
X010302Y032382D01*
X010240Y032232D01*
X010240Y025653D01*
X009903Y025653D01*
X009903Y025920D01*
X009858Y026027D01*
X009777Y026108D01*
X009770Y026111D01*
X009770Y026190D01*
X009830Y026250D01*
X009838Y026250D01*
X009944Y026294D01*
X010026Y026376D01*
X010070Y026482D01*
X010070Y027398D01*
X010026Y027504D01*
X009944Y027586D01*
X009838Y027630D01*
X009462Y027630D01*
X009400Y027604D01*
X009338Y027630D01*
X008962Y027630D01*
X008900Y027604D01*
X008838Y027630D01*
X008462Y027630D01*
X008400Y027604D01*
X008338Y027630D01*
X008060Y027630D01*
X008060Y027732D01*
X007998Y027882D01*
X007498Y028382D01*
X007382Y028498D01*
X007232Y028560D01*
X007056Y028560D01*
X007060Y028568D01*
X007060Y028670D01*
X007338Y028670D01*
X007400Y028696D01*
X007462Y028670D01*
X007838Y028670D01*
X007900Y028696D01*
X007962Y028670D01*
X008338Y028670D01*
X008400Y028696D01*
X008462Y028670D01*
X008838Y028670D01*
X008900Y028696D01*
X008962Y028670D01*
X009338Y028670D01*
X009400Y028696D01*
X009462Y028670D01*
X009838Y028670D01*
X009944Y028714D01*
X010026Y028796D01*
X010070Y028902D01*
X010070Y029818D01*
X010026Y029924D01*
X010008Y029942D01*
X010060Y030068D01*
X010060Y034232D01*
X009998Y034382D01*
X009882Y034498D01*
X009732Y034560D01*
X006060Y034560D01*
X006060Y037232D01*
X005998Y037382D01*
X005882Y037498D01*
X005732Y037560D01*
X001568Y037560D01*
X001418Y037498D01*
X001302Y037382D01*
X000802Y036882D01*
X000740Y036732D01*
X000740Y020075D01*
X000692Y020027D01*
X000647Y019920D01*
X000647Y019380D01*
X000692Y019273D01*
X000773Y019192D01*
X000880Y019147D01*
X001420Y019147D01*
X001527Y019192D01*
X001608Y019273D01*
X001653Y019380D01*
X001653Y019920D01*
X001608Y020027D01*
X001560Y020075D01*
X001560Y036480D01*
X001820Y036740D01*
X005240Y036740D01*
X005240Y036556D01*
X005232Y036560D01*
X004546Y036560D01*
X004526Y036610D01*
X004444Y036691D01*
X004338Y036735D01*
X003710Y036735D01*
X003604Y036691D01*
X003522Y036610D01*
X003508Y036574D01*
X003326Y036574D01*
X003326Y036200D01*
X003226Y036200D01*
X003226Y036574D01*
X003003Y036574D01*
X002970Y036565D01*
X002941Y036548D01*
X002917Y036524D01*
X002900Y036495D01*
X002891Y036462D01*
X002891Y036200D01*
X003226Y036200D01*
X003226Y036100D01*
X003326Y036100D01*
X003326Y035726D01*
X003508Y035726D01*
X003522Y035690D01*
X003604Y035609D01*
X003710Y035565D01*
X004338Y035565D01*
X004444Y035609D01*
X004526Y035690D01*
X004546Y035740D01*
X004740Y035740D01*
X004740Y033825D01*
X004692Y033777D01*
X004647Y033670D01*
X004647Y033130D01*
X004692Y033023D01*
X004773Y032942D01*
X004880Y032897D01*
X005420Y032897D01*
X005527Y032942D01*
X005575Y032990D01*
X008740Y032990D01*
X008740Y030820D01*
X008560Y030640D01*
X008560Y030754D01*
X008610Y030774D01*
X008691Y030856D01*
X008735Y030962D01*
X008735Y031590D01*
X008691Y031696D01*
X008610Y031778D01*
X008574Y031792D01*
X008574Y031974D01*
X008200Y031974D01*
X008200Y032074D01*
X008574Y032074D01*
X008574Y032297D01*
X008565Y032330D01*
X008548Y032359D01*
X008524Y032383D01*
X008495Y032400D01*
X008462Y032409D01*
X008200Y032409D01*
X008200Y032074D01*
X008100Y032074D01*
X008100Y031974D01*
X007726Y031974D01*
X007726Y031792D01*
X007690Y031778D01*
X007609Y031696D01*
X007565Y031590D01*
X007565Y030962D01*
X007609Y030856D01*
X007690Y030774D01*
X007740Y030754D01*
X007740Y030640D01*
X007498Y030882D01*
X007598Y030882D01*
X007596Y030784D02*
X007681Y030784D01*
X007695Y030685D02*
X007740Y030685D01*
X007565Y030981D02*
X007399Y030981D01*
X007382Y030998D02*
X007232Y031060D01*
X006068Y031060D01*
X005918Y030998D01*
X004980Y030060D01*
X004323Y030060D01*
X004251Y030132D01*
X004042Y030219D01*
X003258Y030219D01*
X003190Y030190D01*
X003060Y030320D01*
X003060Y030385D01*
X003060Y030385D01*
X003106Y030339D01*
X003158Y030301D01*
X003215Y030272D01*
X003276Y030253D01*
X003339Y030243D01*
X003600Y030243D01*
X003600Y030600D01*
X003700Y030600D01*
X003700Y030700D01*
X003600Y030700D01*
X003600Y031057D01*
X003339Y031057D01*
X003276Y031047D01*
X003215Y031028D01*
X003158Y030999D01*
X003106Y030961D01*
X003060Y030915D01*
X003060Y031163D01*
X003258Y031081D01*
X004042Y031081D01*
X004251Y031168D01*
X004411Y031328D01*
X004497Y031537D01*
X004497Y031763D01*
X004411Y031972D01*
X004251Y032132D01*
X004042Y032219D01*
X003258Y032219D01*
X003060Y032137D01*
X003060Y032480D01*
X003310Y032730D01*
X004003Y032730D01*
X004110Y032774D01*
X004191Y032856D01*
X004235Y032962D01*
X004235Y033590D01*
X004191Y033696D01*
X004110Y033778D01*
X004074Y033792D01*
X004074Y033974D01*
X003700Y033974D01*
X003700Y034074D01*
X004074Y034074D01*
X004074Y034297D01*
X004065Y034330D01*
X004048Y034359D01*
X004024Y034383D01*
X003995Y034400D01*
X003962Y034409D01*
X003700Y034409D01*
X003700Y034074D01*
X003600Y034074D01*
X003600Y033974D01*
X003226Y033974D01*
X003226Y033792D01*
X003190Y033778D01*
X003109Y033696D01*
X003065Y033590D01*
X003065Y033558D01*
X003021Y033540D01*
X002971Y033528D01*
X002946Y033509D01*
X002918Y033498D01*
X002881Y033461D01*
X002840Y033430D01*
X002824Y033404D01*
X002302Y032882D01*
X002240Y032732D01*
X002240Y030068D01*
X002302Y029918D01*
X002802Y029418D01*
X002887Y029333D01*
X002889Y029328D01*
X003049Y029168D01*
X003258Y029081D01*
X004042Y029081D01*
X004251Y029168D01*
X004323Y029240D01*
X005147Y029240D01*
X005147Y028880D01*
X005192Y028773D01*
X005273Y028692D01*
X005380Y028647D01*
X005573Y028647D01*
X005660Y028560D01*
X005568Y028560D01*
X005418Y028498D01*
X004980Y028060D01*
X004323Y028060D01*
X004251Y028132D01*
X004042Y028219D01*
X003258Y028219D01*
X003049Y028132D01*
X002977Y028060D01*
X002568Y028060D01*
X002418Y027998D01*
X002302Y027882D01*
X002240Y027732D01*
X002240Y023317D01*
X002232Y023277D01*
X002240Y023236D01*
X002240Y023194D01*
X002256Y023157D01*
X002263Y023117D01*
X002286Y023082D01*
X002302Y023044D01*
X002331Y023015D01*
X002565Y022664D01*
X002565Y022210D01*
X002609Y022104D01*
X002690Y022022D01*
X002726Y022008D01*
X002726Y021826D01*
X003100Y021826D01*
X003100Y021726D01*
X002726Y021726D01*
X002726Y021503D01*
X002735Y021470D01*
X002752Y021441D01*
X002776Y021417D01*
X002805Y021400D01*
X002838Y021391D01*
X003100Y021391D01*
X003100Y021726D01*
X003200Y021726D01*
X003200Y021826D01*
X003574Y021826D01*
X003574Y022008D01*
X003610Y022022D01*
X003691Y022104D01*
X003735Y022210D01*
X003735Y022838D01*
X003691Y022944D01*
X003610Y023026D01*
X003503Y023070D01*
X003279Y023070D01*
X003060Y023400D01*
X003060Y024385D01*
X003060Y024385D01*
X003106Y024339D01*
X003158Y024301D01*
X003215Y024272D01*
X003276Y024253D01*
X003339Y024243D01*
X003600Y024243D01*
X003600Y024600D01*
X003700Y024600D01*
X003700Y024700D01*
X003600Y024700D01*
X003600Y025057D01*
X003339Y025057D01*
X003276Y025047D01*
X003215Y025028D01*
X003158Y024999D01*
X003106Y024961D01*
X003060Y024915D01*
X003060Y025163D01*
X003258Y025081D01*
X004042Y025081D01*
X004251Y025168D01*
X004323Y025240D01*
X004980Y025240D01*
X005240Y024980D01*
X005240Y024320D01*
X004802Y023882D01*
X004740Y023732D01*
X004740Y020820D01*
X004527Y020607D01*
X004526Y020610D01*
X004444Y020691D01*
X004338Y020735D01*
X003710Y020735D01*
X003604Y020691D01*
X003522Y020610D01*
X003508Y020574D01*
X003326Y020574D01*
X003326Y020200D01*
X003226Y020200D01*
X003226Y020574D01*
X003003Y020574D01*
X002970Y020565D01*
X002941Y020548D01*
X002917Y020524D01*
X002900Y020495D01*
X002891Y020462D01*
X002891Y020200D01*
X003226Y020200D01*
X003226Y020100D01*
X003326Y020100D01*
X003326Y019726D01*
X003508Y019726D01*
X003522Y019690D01*
X003604Y019609D01*
X003710Y019565D01*
X004338Y019565D01*
X004444Y019609D01*
X004526Y019690D01*
X004546Y019740D01*
X004732Y019740D01*
X004882Y019802D01*
X005382Y020302D01*
X005441Y020361D01*
X005639Y020163D01*
X005586Y020110D01*
X005530Y019974D01*
X005530Y019611D01*
X005523Y019608D01*
X005442Y019527D01*
X005397Y019420D01*
X005397Y018880D01*
X005442Y018773D01*
X005523Y018692D01*
X005630Y018647D01*
X006114Y018647D01*
X006114Y018521D01*
X006110Y018526D01*
X006003Y018570D01*
X005297Y018570D01*
X005190Y018526D01*
X005109Y018444D01*
X005105Y018434D01*
X004946Y018434D01*
X004882Y018498D01*
X004732Y018560D01*
X004546Y018560D01*
X004526Y018610D01*
X004444Y018691D01*
X004338Y018735D01*
X003710Y018735D01*
X003604Y018691D01*
X003522Y018610D01*
X003508Y018574D01*
X003326Y018574D01*
X003326Y018200D01*
X003226Y018200D01*
X003226Y018574D01*
X003003Y018574D01*
X002970Y018565D01*
X002941Y018548D01*
X002917Y018524D01*
X002900Y018495D01*
X002891Y018462D01*
X002891Y018200D01*
X003226Y018200D01*
X003226Y018100D01*
X003326Y018100D01*
X003326Y017726D01*
X003508Y017726D01*
X003522Y017690D01*
X003604Y017609D01*
X003710Y017565D01*
X004338Y017565D01*
X004444Y017609D01*
X004526Y017690D01*
X004527Y017693D01*
X004544Y017676D01*
X004694Y017614D01*
X005075Y017614D01*
X005065Y017590D01*
X005065Y016962D01*
X005109Y016856D01*
X005190Y016774D01*
X005240Y016754D01*
X005240Y016575D01*
X005192Y016527D01*
X005147Y016420D01*
X005147Y016227D01*
X004480Y015560D01*
X004323Y015560D01*
X004251Y015632D01*
X004042Y015719D01*
X003258Y015719D01*
X003049Y015632D01*
X002889Y015472D01*
X002803Y015263D01*
X002803Y015037D01*
X002889Y014828D01*
X003049Y014668D01*
X003258Y014581D01*
X004042Y014581D01*
X004251Y014668D01*
X004323Y014740D01*
X004732Y014740D01*
X004882Y014802D01*
X004998Y014918D01*
X005727Y015647D01*
X005920Y015647D01*
X006027Y015692D01*
X006108Y015773D01*
X006114Y015787D01*
X006114Y013320D01*
X006029Y013235D01*
X005710Y013235D01*
X005650Y013210D01*
X005590Y013235D01*
X004962Y013235D01*
X004856Y013191D01*
X004774Y013110D01*
X004754Y013060D01*
X004068Y013060D01*
X003918Y012998D01*
X003418Y012498D01*
X003302Y012382D01*
X003240Y012232D01*
X003240Y011711D01*
X003049Y011632D01*
X002889Y011472D01*
X002803Y011263D01*
X002803Y011037D01*
X002889Y010828D01*
X003049Y010668D01*
X003258Y010581D01*
X004042Y010581D01*
X004251Y010668D01*
X004411Y010828D01*
X004497Y011037D01*
X004497Y011263D01*
X004411Y011472D01*
X004251Y011632D01*
X004060Y011711D01*
X004060Y011980D01*
X004320Y012240D01*
X004754Y012240D01*
X004774Y012190D01*
X004856Y012109D01*
X004866Y012105D01*
X004866Y009504D01*
X004732Y009560D01*
X004323Y009560D01*
X004251Y009632D01*
X004042Y009719D01*
X003258Y009719D01*
X003049Y009632D01*
X002889Y009472D01*
X002803Y009263D01*
X002803Y009037D01*
X002889Y008828D01*
X003049Y008668D01*
X003258Y008581D01*
X004042Y008581D01*
X004251Y008668D01*
X004323Y008740D01*
X004480Y008740D01*
X004918Y008302D01*
X005068Y008240D01*
X007732Y008240D01*
X007882Y008302D01*
X007998Y008418D01*
X008248Y008668D01*
X008310Y008818D01*
X013792Y008818D01*
X013857Y008917D02*
X008310Y008917D01*
X008310Y009015D02*
X013759Y009015D01*
X013660Y009114D02*
X008310Y009114D01*
X008310Y009212D02*
X013601Y009212D01*
X013601Y009311D02*
X010711Y009311D01*
X010694Y009294D02*
X010776Y009376D01*
X010791Y009411D01*
X010885Y009411D01*
X010885Y009925D01*
X010915Y009925D01*
X010915Y009955D01*
X010885Y009955D01*
X010885Y010469D01*
X010791Y010469D01*
X010776Y010504D01*
X010694Y010586D01*
X010588Y010630D01*
X010270Y010630D01*
X010270Y010974D01*
X010214Y011110D01*
X009964Y011360D01*
X009860Y011464D01*
X009724Y011520D01*
X008053Y011520D01*
X007903Y011670D01*
X008088Y011670D01*
X008150Y011696D01*
X008212Y011670D01*
X008588Y011670D01*
X008650Y011696D01*
X008712Y011670D01*
X009088Y011670D01*
X009150Y011696D01*
X009212Y011670D01*
X009588Y011670D01*
X009650Y011696D01*
X009712Y011670D01*
X010088Y011670D01*
X010150Y011696D01*
X010212Y011670D01*
X010588Y011670D01*
X010650Y011696D01*
X010712Y011670D01*
X011088Y011670D01*
X011194Y011714D01*
X011276Y011796D01*
X011320Y011902D01*
X011320Y012818D01*
X011276Y012924D01*
X011194Y013006D01*
X011088Y013050D01*
X010712Y013050D01*
X010650Y013024D01*
X010588Y013050D01*
X010212Y013050D01*
X010150Y013024D01*
X010088Y013050D01*
X009870Y013050D01*
X009903Y013130D01*
X009903Y013670D01*
X009858Y013777D01*
X009777Y013858D01*
X009670Y013903D01*
X009426Y013903D01*
X010902Y015379D01*
X010998Y015283D01*
X011120Y015283D01*
X011120Y015620D01*
X011180Y015620D01*
X011180Y015680D01*
X011120Y015680D01*
X011120Y016017D01*
X011020Y016017D01*
X011020Y018121D01*
X011369Y018121D01*
X011679Y018431D01*
X011679Y018869D01*
X011369Y019179D01*
X011020Y019179D01*
X011020Y020224D01*
X010964Y020360D01*
X010860Y020464D01*
X010811Y020484D01*
X010598Y020697D01*
X010470Y020750D01*
X010273Y020750D01*
X010360Y020836D01*
X010464Y020940D01*
X010520Y021076D01*
X010520Y021497D01*
X010803Y021780D01*
X012247Y021780D01*
X012280Y021747D01*
X012280Y021028D01*
X012121Y020869D01*
X012121Y020431D01*
X012431Y020121D01*
X012740Y020121D01*
X012740Y020046D01*
X012690Y020026D01*
X012609Y019944D01*
X012565Y019838D01*
X012565Y019210D01*
X012609Y019104D01*
X012690Y019022D01*
X012726Y019008D01*
X012726Y018826D01*
X013100Y018826D01*
X013100Y018726D01*
X012726Y018726D01*
X012726Y018503D01*
X012735Y018470D01*
X012752Y018441D01*
X012776Y018417D01*
X012805Y018400D01*
X012838Y018391D01*
X013100Y018391D01*
X013100Y018726D01*
X013200Y018726D01*
X013200Y018826D01*
X013574Y018826D01*
X013574Y019008D01*
X013610Y019022D01*
X013681Y019093D01*
X013874Y018900D01*
X013601Y018627D01*
X013601Y018173D01*
X013874Y017900D01*
X013601Y017627D01*
X013601Y017173D01*
X013874Y016900D01*
X013601Y016627D01*
X013601Y016173D01*
X013874Y015900D01*
X013601Y015627D01*
X013601Y015173D01*
X013874Y014900D01*
X013601Y014627D01*
X013601Y014531D02*
X011517Y014531D01*
X011517Y014498D02*
X011517Y014620D01*
X011180Y014620D01*
X011180Y014283D01*
X011302Y014283D01*
X011517Y014498D01*
X011452Y014433D02*
X013601Y014433D01*
X013601Y014334D02*
X011354Y014334D01*
X011180Y014334D02*
X011120Y014334D01*
X011120Y014433D02*
X011180Y014433D01*
X011180Y014531D02*
X011120Y014531D01*
X011120Y014728D02*
X011180Y014728D01*
X011180Y014827D02*
X011120Y014827D01*
X011120Y014925D02*
X011180Y014925D01*
X010905Y014925D02*
X010448Y014925D01*
X010350Y014827D02*
X010807Y014827D01*
X010783Y014728D02*
X010251Y014728D01*
X010547Y015024D02*
X013750Y015024D01*
X013652Y015122D02*
X010645Y015122D01*
X010744Y015221D02*
X013601Y015221D01*
X013601Y015319D02*
X011339Y015319D01*
X011302Y015283D02*
X011517Y015498D01*
X011517Y015620D01*
X011180Y015620D01*
X011180Y015283D01*
X011302Y015283D01*
X011180Y015319D02*
X011120Y015319D01*
X011120Y015418D02*
X011180Y015418D01*
X011180Y015516D02*
X011120Y015516D01*
X011120Y015615D02*
X011180Y015615D01*
X011180Y015680D02*
X011517Y015680D01*
X011517Y015802D01*
X011302Y016017D01*
X011180Y016017D01*
X011180Y015680D01*
X011180Y015713D02*
X011120Y015713D01*
X011120Y015812D02*
X011180Y015812D01*
X011180Y015910D02*
X011120Y015910D01*
X011120Y016009D02*
X011180Y016009D01*
X011311Y016009D02*
X013765Y016009D01*
X013667Y016107D02*
X011020Y016107D01*
X011020Y016206D02*
X013601Y016206D01*
X013601Y016304D02*
X011020Y016304D01*
X011020Y016403D02*
X013601Y016403D01*
X013601Y016501D02*
X011020Y016501D01*
X011020Y016600D02*
X013601Y016600D01*
X013672Y016698D02*
X011020Y016698D01*
X011020Y016797D02*
X013771Y016797D01*
X013869Y016895D02*
X011020Y016895D01*
X011020Y016994D02*
X013780Y016994D01*
X013682Y017092D02*
X011020Y017092D01*
X011020Y017191D02*
X013601Y017191D01*
X013601Y017289D02*
X011020Y017289D01*
X011020Y017388D02*
X013601Y017388D01*
X013601Y017486D02*
X011020Y017486D01*
X011020Y017585D02*
X013601Y017585D01*
X013657Y017683D02*
X011020Y017683D01*
X011020Y017782D02*
X013756Y017782D01*
X013854Y017880D02*
X011020Y017880D01*
X011020Y017979D02*
X013795Y017979D01*
X013697Y018077D02*
X011020Y018077D01*
X011423Y018176D02*
X013601Y018176D01*
X013601Y018274D02*
X011522Y018274D01*
X011620Y018373D02*
X013601Y018373D01*
X013548Y018441D02*
X013565Y018470D01*
X013574Y018503D01*
X013574Y018726D01*
X013200Y018726D01*
X013200Y018391D01*
X013462Y018391D01*
X013495Y018400D01*
X013524Y018417D01*
X013548Y018441D01*
X013565Y018471D02*
X013601Y018471D01*
X013601Y018570D02*
X013574Y018570D01*
X013574Y018668D02*
X013642Y018668D01*
X013741Y018767D02*
X013200Y018767D01*
X013200Y018668D02*
X013100Y018668D01*
X013100Y018570D02*
X013200Y018570D01*
X013200Y018471D02*
X013100Y018471D01*
X013100Y018767D02*
X011679Y018767D01*
X011679Y018865D02*
X012726Y018865D01*
X012726Y018964D02*
X011584Y018964D01*
X011486Y019062D02*
X012651Y019062D01*
X012585Y019161D02*
X011387Y019161D01*
X011679Y018668D02*
X012726Y018668D01*
X012726Y018570D02*
X011679Y018570D01*
X011679Y018471D02*
X012735Y018471D01*
X012565Y019259D02*
X011020Y019259D01*
X011020Y019358D02*
X012565Y019358D01*
X012565Y019456D02*
X011020Y019456D01*
X011020Y019555D02*
X012565Y019555D01*
X012565Y019653D02*
X011020Y019653D01*
X011020Y019752D02*
X012565Y019752D01*
X012570Y019850D02*
X011020Y019850D01*
X011020Y019949D02*
X012613Y019949D01*
X012740Y020047D02*
X011020Y020047D01*
X011020Y020146D02*
X012407Y020146D01*
X012308Y020244D02*
X011012Y020244D01*
X010971Y020343D02*
X012210Y020343D01*
X012121Y020441D02*
X010882Y020441D01*
X010755Y020540D02*
X012121Y020540D01*
X012121Y020638D02*
X010657Y020638D01*
X010502Y020737D02*
X012121Y020737D01*
X012121Y020835D02*
X010358Y020835D01*
X010457Y020934D02*
X012186Y020934D01*
X012280Y021032D02*
X010502Y021032D01*
X010520Y021131D02*
X012280Y021131D01*
X012280Y021229D02*
X010520Y021229D01*
X010520Y021328D02*
X012280Y021328D01*
X012280Y021426D02*
X010520Y021426D01*
X010548Y021525D02*
X012280Y021525D01*
X012280Y021623D02*
X010646Y021623D01*
X010745Y021722D02*
X012280Y021722D01*
X012858Y022934D02*
X011147Y022934D01*
X011108Y023027D01*
X011027Y023108D01*
X010933Y023147D01*
X011420Y023147D01*
X011527Y023192D01*
X011608Y023273D01*
X011653Y023380D01*
X011653Y023573D01*
X011998Y023918D01*
X012060Y024068D01*
X012060Y025312D01*
X012179Y025431D01*
X012179Y025624D01*
X012181Y025621D01*
X012619Y025621D01*
X012742Y025744D01*
X012882Y025802D01*
X012998Y025918D01*
X013372Y026292D01*
X013434Y026442D01*
X013434Y027605D01*
X013444Y027609D01*
X013526Y027690D01*
X013570Y027797D01*
X013570Y028503D01*
X013526Y028610D01*
X013444Y028691D01*
X013434Y028695D01*
X013434Y029653D01*
X013527Y029692D01*
X013608Y029773D01*
X013653Y029880D01*
X013653Y030121D01*
X013874Y029900D01*
X013601Y029627D01*
X013601Y029173D01*
X013874Y028900D01*
X013601Y028627D01*
X013601Y028173D01*
X013874Y027900D01*
X013601Y027627D01*
X013601Y027173D01*
X013874Y026900D01*
X013601Y026627D01*
X013601Y026173D01*
X013874Y025900D01*
X013601Y025627D01*
X013601Y025173D01*
X013874Y024900D01*
X013601Y024627D01*
X013601Y024173D01*
X013874Y023900D01*
X013601Y023627D01*
X013601Y023173D01*
X013874Y022900D01*
X013601Y022627D01*
X013601Y022173D01*
X013874Y021900D01*
X013601Y021627D01*
X013601Y021173D01*
X013874Y020900D01*
X013601Y020627D01*
X013601Y020173D01*
X013840Y019934D01*
X013695Y019934D01*
X013691Y019944D01*
X013610Y020026D01*
X013560Y020046D01*
X013560Y022232D01*
X013498Y022382D01*
X013382Y022498D01*
X013008Y022872D01*
X012858Y022934D01*
X012931Y022904D02*
X013870Y022904D01*
X013779Y022805D02*
X013075Y022805D01*
X013173Y022707D02*
X013681Y022707D01*
X013601Y022608D02*
X013272Y022608D01*
X013370Y022510D02*
X013601Y022510D01*
X013601Y022411D02*
X013469Y022411D01*
X013526Y022313D02*
X013601Y022313D01*
X013601Y022214D02*
X013560Y022214D01*
X013560Y022116D02*
X013658Y022116D01*
X013560Y022017D02*
X013757Y022017D01*
X013855Y021919D02*
X013560Y021919D01*
X013560Y021820D02*
X013794Y021820D01*
X013696Y021722D02*
X013560Y021722D01*
X013560Y021623D02*
X013601Y021623D01*
X013601Y021525D02*
X013560Y021525D01*
X013560Y021426D02*
X013601Y021426D01*
X013601Y021328D02*
X013560Y021328D01*
X013560Y021229D02*
X013601Y021229D01*
X013560Y021131D02*
X013643Y021131D01*
X013560Y021032D02*
X013742Y021032D01*
X013840Y020934D02*
X013560Y020934D01*
X013560Y020835D02*
X013809Y020835D01*
X013711Y020737D02*
X013560Y020737D01*
X013560Y020638D02*
X013612Y020638D01*
X013601Y020540D02*
X013560Y020540D01*
X013560Y020441D02*
X013601Y020441D01*
X013601Y020343D02*
X013560Y020343D01*
X013560Y020244D02*
X013601Y020244D01*
X013628Y020146D02*
X013560Y020146D01*
X013560Y020047D02*
X013727Y020047D01*
X013687Y019949D02*
X013825Y019949D01*
X013712Y019062D02*
X013649Y019062D01*
X013574Y018964D02*
X013810Y018964D01*
X013839Y018865D02*
X013574Y018865D01*
X014461Y018865D02*
X015852Y018865D01*
X015852Y018767D02*
X014559Y018767D01*
X014658Y018668D02*
X015852Y018668D01*
X015852Y018570D02*
X014699Y018570D01*
X014699Y018471D02*
X015852Y018471D01*
X015852Y018373D02*
X014699Y018373D01*
X014699Y018274D02*
X015852Y018274D01*
X015852Y018176D02*
X014699Y018176D01*
X014603Y018077D02*
X015852Y018077D01*
X015852Y017979D02*
X014505Y017979D01*
X014446Y017880D02*
X015852Y017880D01*
X015852Y017782D02*
X014544Y017782D01*
X014643Y017683D02*
X015852Y017683D01*
X015852Y017585D02*
X014699Y017585D01*
X014699Y017486D02*
X015852Y017486D01*
X015852Y017388D02*
X014699Y017388D01*
X014699Y017289D02*
X015852Y017289D01*
X015852Y017191D02*
X014699Y017191D01*
X014618Y017092D02*
X015852Y017092D01*
X015852Y016994D02*
X014520Y016994D01*
X014431Y016895D02*
X015852Y016895D01*
X015852Y016797D02*
X014529Y016797D01*
X014628Y016698D02*
X015852Y016698D01*
X015852Y016600D02*
X014699Y016600D01*
X014699Y016501D02*
X015852Y016501D01*
X015852Y016403D02*
X014699Y016403D01*
X014699Y016304D02*
X015852Y016304D01*
X015852Y016206D02*
X014699Y016206D01*
X014633Y016107D02*
X015852Y016107D01*
X015852Y016009D02*
X014535Y016009D01*
X014436Y015910D02*
X015852Y015910D01*
X015852Y015812D02*
X014514Y015812D01*
X014613Y015713D02*
X015852Y015713D01*
X015852Y015615D02*
X014699Y015615D01*
X014699Y015516D02*
X015852Y015516D01*
X015852Y015418D02*
X014699Y015418D01*
X014699Y015319D02*
X015852Y015319D01*
X015852Y015221D02*
X014699Y015221D01*
X014648Y015122D02*
X015852Y015122D01*
X015852Y015024D02*
X014550Y015024D01*
X014451Y014925D02*
X015852Y014925D01*
X015852Y014827D02*
X014499Y014827D01*
X014598Y014728D02*
X015852Y014728D01*
X015852Y014630D02*
X014696Y014630D01*
X014699Y014531D02*
X015852Y014531D01*
X015852Y014433D02*
X014699Y014433D01*
X014699Y014334D02*
X015852Y014334D01*
X015852Y014236D02*
X014699Y014236D01*
X014663Y014137D02*
X015852Y014137D01*
X015852Y014039D02*
X014565Y014039D01*
X014466Y013940D02*
X015852Y013940D01*
X015852Y013842D02*
X014484Y013842D01*
X014583Y013743D02*
X015852Y013743D01*
X015852Y013645D02*
X014681Y013645D01*
X014699Y013546D02*
X015852Y013546D01*
X015852Y013448D02*
X014699Y013448D01*
X014699Y013349D02*
X015852Y013349D01*
X015852Y013251D02*
X014699Y013251D01*
X014678Y013152D02*
X015852Y013152D01*
X015852Y013054D02*
X014580Y013054D01*
X014481Y012955D02*
X015852Y012955D01*
X015852Y012857D02*
X014470Y012857D01*
X014568Y012758D02*
X015852Y012758D01*
X015852Y012660D02*
X014667Y012660D01*
X014699Y012561D02*
X015852Y012561D01*
X015852Y012463D02*
X014699Y012463D01*
X014699Y012364D02*
X015852Y012364D01*
X015852Y012266D02*
X014699Y012266D01*
X014693Y012167D02*
X015852Y012167D01*
X015852Y012069D02*
X014595Y012069D01*
X014496Y011970D02*
X015852Y011970D01*
X015852Y011872D02*
X014455Y011872D01*
X014553Y011773D02*
X015852Y011773D01*
X015852Y011675D02*
X014652Y011675D01*
X014699Y011576D02*
X015852Y011576D01*
X015852Y011478D02*
X014699Y011478D01*
X014699Y011379D02*
X015852Y011379D01*
X015852Y011281D02*
X014699Y011281D01*
X014699Y011182D02*
X015852Y011182D01*
X015852Y011084D02*
X014610Y011084D01*
X014511Y010985D02*
X015852Y010985D01*
X015852Y010887D02*
X014440Y010887D01*
X014538Y010788D02*
X015852Y010788D01*
X015852Y010690D02*
X014637Y010690D01*
X014699Y010591D02*
X015852Y010591D01*
X015852Y010493D02*
X014699Y010493D01*
X014699Y010394D02*
X015852Y010394D01*
X015852Y010296D02*
X014699Y010296D01*
X014699Y010197D02*
X015852Y010197D01*
X015852Y010099D02*
X014625Y010099D01*
X014526Y010000D02*
X015852Y010000D01*
X015852Y009902D02*
X014428Y009902D01*
X014523Y009803D02*
X015852Y009803D01*
X015852Y009705D02*
X014622Y009705D01*
X014699Y009606D02*
X015852Y009606D01*
X015852Y009508D02*
X014699Y009508D01*
X014699Y009409D02*
X015852Y009409D01*
X015852Y009311D02*
X014699Y009311D01*
X014699Y009212D02*
X015852Y009212D01*
X015852Y009114D02*
X014640Y009114D01*
X014541Y009015D02*
X015852Y009015D01*
X015852Y008917D02*
X014443Y008917D01*
X014508Y008818D02*
X015852Y008818D01*
X015852Y008720D02*
X014607Y008720D01*
X014699Y008621D02*
X015852Y008621D01*
X015852Y008523D02*
X014699Y008523D01*
X014699Y008424D02*
X015852Y008424D01*
X015852Y008326D02*
X014699Y008326D01*
X014699Y008227D02*
X015852Y008227D01*
X015852Y008129D02*
X014655Y008129D01*
X014556Y008030D02*
X015852Y008030D01*
X015852Y007932D02*
X014458Y007932D01*
X014493Y007833D02*
X015852Y007833D01*
X015852Y007735D02*
X014592Y007735D01*
X014690Y007636D02*
X015852Y007636D01*
X015852Y007538D02*
X014699Y007538D01*
X014699Y007439D02*
X015852Y007439D01*
X015852Y007341D02*
X014699Y007341D01*
X014699Y007242D02*
X015852Y007242D01*
X015852Y007144D02*
X014670Y007144D01*
X014571Y007045D02*
X015852Y007045D01*
X015852Y006947D02*
X014473Y006947D01*
X014478Y006848D02*
X015852Y006848D01*
X015852Y006750D02*
X014577Y006750D01*
X014675Y006651D02*
X015852Y006651D01*
X015852Y006553D02*
X014699Y006553D01*
X014699Y006454D02*
X015852Y006454D01*
X015852Y006356D02*
X014699Y006356D01*
X014699Y006257D02*
X015852Y006257D01*
X015852Y006159D02*
X014685Y006159D01*
X014586Y006060D02*
X015852Y006060D01*
X015852Y005962D02*
X014488Y005962D01*
X014463Y005863D02*
X015852Y005863D01*
X015852Y005765D02*
X014562Y005765D01*
X014660Y005666D02*
X015852Y005666D01*
X015852Y005568D02*
X014699Y005568D01*
X014699Y005469D02*
X015852Y005469D01*
X015852Y005371D02*
X014699Y005371D01*
X014699Y005272D02*
X015852Y005272D01*
X015852Y005174D02*
X014699Y005174D01*
X014601Y005075D02*
X015852Y005075D01*
X015852Y004977D02*
X014503Y004977D01*
X014404Y004878D02*
X015852Y004878D01*
X015852Y004780D02*
X014318Y004780D01*
X014310Y004787D02*
X014190Y004787D01*
X014190Y004440D01*
X014537Y004440D01*
X014537Y004560D01*
X014310Y004787D01*
X014190Y004780D02*
X014110Y004780D01*
X014110Y004787D02*
X013990Y004787D01*
X013763Y004560D01*
X013763Y004440D01*
X014110Y004440D01*
X014110Y004787D01*
X014110Y004681D02*
X014190Y004681D01*
X014190Y004583D02*
X014110Y004583D01*
X014110Y004484D02*
X014190Y004484D01*
X014190Y004440D02*
X014110Y004440D01*
X014110Y004360D01*
X014190Y004360D01*
X014190Y004440D01*
X014190Y004386D02*
X015852Y004386D01*
X015852Y004484D02*
X014537Y004484D01*
X014515Y004583D02*
X015852Y004583D01*
X015852Y004681D02*
X014417Y004681D01*
X014537Y004360D02*
X014190Y004360D01*
X014190Y004013D01*
X014310Y004013D01*
X014537Y004240D01*
X014537Y004360D01*
X014537Y004287D02*
X015852Y004287D01*
X015852Y004189D02*
X014486Y004189D01*
X014388Y004090D02*
X015852Y004090D01*
X015852Y003992D02*
X000440Y003992D01*
X000440Y004090D02*
X013912Y004090D01*
X013990Y004013D02*
X014110Y004013D01*
X014110Y004360D01*
X013763Y004360D01*
X013763Y004240D01*
X013990Y004013D01*
X014110Y004090D02*
X014190Y004090D01*
X014190Y004189D02*
X014110Y004189D01*
X014110Y004287D02*
X014190Y004287D01*
X014110Y004386D02*
X000440Y004386D01*
X000440Y004484D02*
X013763Y004484D01*
X013785Y004583D02*
X000440Y004583D01*
X000440Y004681D02*
X013883Y004681D01*
X013982Y004780D02*
X000440Y004780D01*
X000440Y004878D02*
X013896Y004878D01*
X013797Y004977D02*
X000440Y004977D01*
X000440Y005075D02*
X013699Y005075D01*
X013601Y005174D02*
X000440Y005174D01*
X000440Y005272D02*
X013601Y005272D01*
X013601Y005371D02*
X000440Y005371D01*
X000440Y005469D02*
X013601Y005469D01*
X013601Y005568D02*
X000440Y005568D01*
X000440Y005666D02*
X013640Y005666D01*
X013738Y005765D02*
X000440Y005765D01*
X000440Y005863D02*
X013837Y005863D01*
X013812Y005962D02*
X000440Y005962D01*
X000440Y006060D02*
X013714Y006060D01*
X013615Y006159D02*
X000440Y006159D01*
X000440Y006257D02*
X013601Y006257D01*
X013601Y006356D02*
X000440Y006356D01*
X000440Y006454D02*
X013601Y006454D01*
X013601Y006553D02*
X000440Y006553D01*
X000440Y006651D02*
X013625Y006651D01*
X013723Y006750D02*
X000440Y006750D01*
X000440Y006848D02*
X013822Y006848D01*
X013827Y006947D02*
X000440Y006947D01*
X000440Y007045D02*
X013729Y007045D01*
X013630Y007144D02*
X000440Y007144D01*
X000440Y007242D02*
X013601Y007242D01*
X013601Y007341D02*
X000440Y007341D01*
X000440Y007439D02*
X013601Y007439D01*
X013601Y007538D02*
X000440Y007538D01*
X000440Y007636D02*
X013610Y007636D01*
X013708Y007735D02*
X000440Y007735D01*
X000440Y007833D02*
X003114Y007833D01*
X003106Y007839D02*
X003158Y007801D01*
X003215Y007772D01*
X003276Y007753D01*
X003339Y007743D01*
X003600Y007743D01*
X003600Y008100D01*
X003700Y008100D01*
X003700Y008200D01*
X003600Y008200D01*
X003600Y008557D01*
X003339Y008557D01*
X003276Y008547D01*
X003215Y008528D01*
X003158Y008499D01*
X003106Y008461D01*
X003060Y008415D01*
X003023Y008364D01*
X002994Y008306D01*
X002974Y008245D01*
X002967Y008200D01*
X003600Y008200D01*
X003600Y008100D01*
X002967Y008100D01*
X002974Y008055D01*
X002994Y007994D01*
X003023Y007936D01*
X003060Y007885D01*
X003106Y007839D01*
X003026Y007932D02*
X000440Y007932D01*
X000440Y008030D02*
X002982Y008030D01*
X002971Y008227D02*
X000440Y008227D01*
X000440Y008129D02*
X003600Y008129D01*
X003600Y008227D02*
X003700Y008227D01*
X003700Y008200D02*
X003700Y008557D01*
X003961Y008557D01*
X004024Y008547D01*
X004085Y008528D01*
X004142Y008499D01*
X004194Y008461D01*
X004240Y008415D01*
X004277Y008364D01*
X004306Y008306D01*
X004326Y008245D01*
X004333Y008200D01*
X003700Y008200D01*
X003700Y008129D02*
X013645Y008129D01*
X013601Y008227D02*
X004329Y008227D01*
X004297Y008326D02*
X004895Y008326D01*
X004796Y008424D02*
X004231Y008424D01*
X004095Y008523D02*
X004698Y008523D01*
X004599Y008621D02*
X004138Y008621D01*
X004303Y008720D02*
X004501Y008720D01*
X004333Y008100D02*
X003700Y008100D01*
X003700Y007743D01*
X003961Y007743D01*
X004024Y007753D01*
X004085Y007772D01*
X004142Y007801D01*
X004194Y007839D01*
X004240Y007885D01*
X004277Y007936D01*
X004306Y007994D01*
X004326Y008055D01*
X004333Y008100D01*
X004318Y008030D02*
X013744Y008030D01*
X013842Y007932D02*
X004274Y007932D01*
X004186Y007833D02*
X013807Y007833D01*
X013601Y008326D02*
X007905Y008326D01*
X008004Y008424D02*
X013601Y008424D01*
X013601Y008523D02*
X008102Y008523D01*
X008201Y008621D02*
X013601Y008621D01*
X013693Y008720D02*
X008269Y008720D01*
X008310Y008818D02*
X008310Y009411D01*
X008385Y009411D01*
X008385Y009925D01*
X008415Y009925D01*
X008415Y009955D01*
X008885Y009955D01*
X008885Y010469D01*
X008753Y010469D01*
X008720Y010460D01*
X008691Y010443D01*
X008667Y010419D01*
X008650Y010390D01*
X008633Y010419D01*
X008609Y010443D01*
X008580Y010460D01*
X008547Y010469D01*
X008415Y010469D01*
X008415Y009955D01*
X008385Y009955D01*
X008385Y010469D01*
X008310Y010469D01*
X008310Y010482D01*
X008248Y010632D01*
X008132Y010748D01*
X008100Y010780D01*
X009497Y010780D01*
X009530Y010747D01*
X009530Y010510D01*
X009524Y010504D01*
X009509Y010469D01*
X009415Y010469D01*
X009415Y009955D01*
X009385Y009955D01*
X009385Y010469D01*
X009253Y010469D01*
X009220Y010460D01*
X009191Y010443D01*
X009167Y010419D01*
X009150Y010390D01*
X009133Y010419D01*
X009109Y010443D01*
X009080Y010460D01*
X009047Y010469D01*
X008915Y010469D01*
X008915Y009955D01*
X009385Y009955D01*
X009385Y009925D01*
X009415Y009925D01*
X009415Y009411D01*
X009509Y009411D01*
X009524Y009376D01*
X009606Y009294D01*
X009712Y009250D01*
X010088Y009250D01*
X010150Y009276D01*
X010212Y009250D01*
X010588Y009250D01*
X010694Y009294D01*
X010790Y009409D02*
X013601Y009409D01*
X013601Y009508D02*
X011155Y009508D01*
X011159Y009523D02*
X011159Y009925D01*
X010915Y009925D01*
X010915Y009411D01*
X011047Y009411D01*
X011080Y009420D01*
X011109Y009437D01*
X011133Y009461D01*
X011150Y009490D01*
X011159Y009523D01*
X011159Y009606D02*
X013601Y009606D01*
X013678Y009705D02*
X011159Y009705D01*
X011159Y009803D02*
X013777Y009803D01*
X013872Y009902D02*
X011159Y009902D01*
X011159Y009955D02*
X010915Y009955D01*
X010915Y010469D01*
X011047Y010469D01*
X011080Y010460D01*
X011109Y010443D01*
X011133Y010419D01*
X011150Y010390D01*
X011159Y010357D01*
X011159Y009955D01*
X011159Y010000D02*
X013774Y010000D01*
X013675Y010099D02*
X011159Y010099D01*
X011159Y010197D02*
X013601Y010197D01*
X013601Y010296D02*
X011159Y010296D01*
X011147Y010394D02*
X013601Y010394D01*
X013601Y010493D02*
X010781Y010493D01*
X010682Y010591D02*
X013601Y010591D01*
X013663Y010690D02*
X010270Y010690D01*
X010270Y010788D02*
X013762Y010788D01*
X013860Y010887D02*
X010270Y010887D01*
X010265Y010985D02*
X013789Y010985D01*
X013690Y011084D02*
X010224Y011084D01*
X010141Y011182D02*
X013601Y011182D01*
X013601Y011281D02*
X010043Y011281D01*
X009944Y011379D02*
X013601Y011379D01*
X013601Y011478D02*
X009826Y011478D01*
X009701Y011675D02*
X009599Y011675D01*
X009201Y011675D02*
X009099Y011675D01*
X008701Y011675D02*
X008599Y011675D01*
X008201Y011675D02*
X008099Y011675D01*
X007997Y011576D02*
X013601Y011576D01*
X013648Y011675D02*
X011099Y011675D01*
X011253Y011773D02*
X013747Y011773D01*
X013845Y011872D02*
X011307Y011872D01*
X011320Y011970D02*
X013804Y011970D01*
X013705Y012069D02*
X011320Y012069D01*
X011320Y012167D02*
X013607Y012167D01*
X013601Y012266D02*
X011320Y012266D01*
X011320Y012364D02*
X013601Y012364D01*
X013601Y012463D02*
X011320Y012463D01*
X011320Y012561D02*
X013601Y012561D01*
X013633Y012660D02*
X011320Y012660D01*
X011320Y012758D02*
X013732Y012758D01*
X013830Y012857D02*
X011304Y012857D01*
X011245Y012955D02*
X013819Y012955D01*
X013720Y013054D02*
X009871Y013054D01*
X009903Y013152D02*
X013622Y013152D01*
X013601Y013251D02*
X009903Y013251D01*
X009903Y013349D02*
X013601Y013349D01*
X013601Y013448D02*
X009903Y013448D01*
X009903Y013546D02*
X013601Y013546D01*
X013618Y013645D02*
X009903Y013645D01*
X009872Y013743D02*
X013717Y013743D01*
X013815Y013842D02*
X009794Y013842D01*
X009562Y014039D02*
X013735Y014039D01*
X013637Y014137D02*
X009660Y014137D01*
X009759Y014236D02*
X013601Y014236D01*
X013834Y013940D02*
X009463Y013940D01*
X009857Y014334D02*
X010946Y014334D01*
X010961Y015319D02*
X010842Y015319D01*
X011437Y015418D02*
X013601Y015418D01*
X013601Y015516D02*
X011517Y015516D01*
X011517Y015615D02*
X013601Y015615D01*
X013687Y015713D02*
X011517Y015713D01*
X011508Y015812D02*
X013786Y015812D01*
X013864Y015910D02*
X011410Y015910D01*
X011395Y014925D02*
X013849Y014925D01*
X013801Y014827D02*
X011493Y014827D01*
X011517Y014728D02*
X013702Y014728D01*
X014490Y018964D02*
X015852Y018964D01*
X015852Y019062D02*
X014588Y019062D01*
X014687Y019161D02*
X015852Y019161D01*
X015852Y019259D02*
X014699Y019259D01*
X014699Y019358D02*
X015852Y019358D01*
X015852Y019456D02*
X014699Y019456D01*
X014699Y019555D02*
X015852Y019555D01*
X015852Y019653D02*
X014673Y019653D01*
X014574Y019752D02*
X015852Y019752D01*
X015852Y019850D02*
X014476Y019850D01*
X014475Y019949D02*
X015852Y019949D01*
X015852Y020047D02*
X014573Y020047D01*
X014672Y020146D02*
X015852Y020146D01*
X015852Y020244D02*
X014699Y020244D01*
X014699Y020343D02*
X015852Y020343D01*
X015852Y020441D02*
X014699Y020441D01*
X014699Y020540D02*
X015852Y020540D01*
X015852Y020638D02*
X014688Y020638D01*
X014589Y020737D02*
X015852Y020737D01*
X015852Y020835D02*
X014491Y020835D01*
X014460Y020934D02*
X015852Y020934D01*
X015852Y021032D02*
X014558Y021032D01*
X014657Y021131D02*
X015852Y021131D01*
X015852Y021229D02*
X014699Y021229D01*
X014699Y021328D02*
X015852Y021328D01*
X015852Y021426D02*
X014699Y021426D01*
X014699Y021525D02*
X015852Y021525D01*
X015852Y021623D02*
X014699Y021623D01*
X014604Y021722D02*
X015852Y021722D01*
X015852Y021820D02*
X014506Y021820D01*
X014445Y021919D02*
X015852Y021919D01*
X015852Y022017D02*
X014543Y022017D01*
X014642Y022116D02*
X015852Y022116D01*
X015852Y022214D02*
X014699Y022214D01*
X014699Y022313D02*
X015852Y022313D01*
X015852Y022411D02*
X014699Y022411D01*
X014699Y022510D02*
X015852Y022510D01*
X015852Y022608D02*
X014699Y022608D01*
X014619Y022707D02*
X015852Y022707D01*
X015852Y022805D02*
X014521Y022805D01*
X014430Y022904D02*
X015852Y022904D01*
X015852Y023002D02*
X014528Y023002D01*
X014627Y023101D02*
X015852Y023101D01*
X015852Y023199D02*
X014699Y023199D01*
X014699Y023298D02*
X015852Y023298D01*
X015852Y023396D02*
X014699Y023396D01*
X014699Y023495D02*
X015852Y023495D01*
X015852Y023593D02*
X014699Y023593D01*
X014634Y023692D02*
X015852Y023692D01*
X015852Y023790D02*
X014536Y023790D01*
X014437Y023889D02*
X015852Y023889D01*
X015852Y023987D02*
X014513Y023987D01*
X014612Y024086D02*
X015852Y024086D01*
X015852Y024184D02*
X014699Y024184D01*
X014699Y024283D02*
X015852Y024283D01*
X015852Y024381D02*
X014699Y024381D01*
X014699Y024480D02*
X015852Y024480D01*
X015852Y024578D02*
X014699Y024578D01*
X014649Y024677D02*
X015852Y024677D01*
X015852Y024775D02*
X014551Y024775D01*
X014452Y024874D02*
X015852Y024874D01*
X015852Y024972D02*
X014498Y024972D01*
X014597Y025071D02*
X015852Y025071D01*
X015852Y025169D02*
X014695Y025169D01*
X014699Y025268D02*
X015852Y025268D01*
X015852Y025366D02*
X014699Y025366D01*
X014699Y025465D02*
X015852Y025465D01*
X015852Y025563D02*
X014699Y025563D01*
X014664Y025662D02*
X015852Y025662D01*
X015852Y025760D02*
X014566Y025760D01*
X014467Y025859D02*
X015852Y025859D01*
X015852Y025957D02*
X014483Y025957D01*
X014582Y026056D02*
X015852Y026056D01*
X015852Y026154D02*
X014680Y026154D01*
X014699Y026253D02*
X015852Y026253D01*
X015852Y026351D02*
X014699Y026351D01*
X014699Y026450D02*
X015852Y026450D01*
X015852Y026548D02*
X014699Y026548D01*
X014679Y026647D02*
X015852Y026647D01*
X015852Y026745D02*
X014581Y026745D01*
X014482Y026844D02*
X015852Y026844D01*
X015852Y026942D02*
X014468Y026942D01*
X014567Y027041D02*
X015852Y027041D01*
X015852Y027139D02*
X014665Y027139D01*
X014699Y027238D02*
X015852Y027238D01*
X015852Y027336D02*
X014699Y027336D01*
X014699Y027435D02*
X015852Y027435D01*
X015852Y027533D02*
X014699Y027533D01*
X014694Y027632D02*
X015852Y027632D01*
X015852Y027730D02*
X014596Y027730D01*
X014497Y027829D02*
X015852Y027829D01*
X015852Y027927D02*
X014453Y027927D01*
X014552Y028026D02*
X015852Y028026D01*
X015852Y028124D02*
X014650Y028124D01*
X014699Y028223D02*
X015852Y028223D01*
X015852Y028321D02*
X014699Y028321D01*
X014699Y028420D02*
X015852Y028420D01*
X015852Y028518D02*
X014699Y028518D01*
X014699Y028617D02*
X015852Y028617D01*
X015852Y028715D02*
X014611Y028715D01*
X014512Y028814D02*
X015852Y028814D01*
X015852Y028912D02*
X014438Y028912D01*
X014537Y029011D02*
X015852Y029011D01*
X015852Y029109D02*
X014635Y029109D01*
X014699Y029208D02*
X015852Y029208D01*
X015852Y029306D02*
X014699Y029306D01*
X014699Y029405D02*
X015852Y029405D01*
X015852Y029503D02*
X014699Y029503D01*
X014699Y029602D02*
X015852Y029602D01*
X015852Y029700D02*
X014626Y029700D01*
X014527Y029799D02*
X015852Y029799D01*
X015852Y029897D02*
X014429Y029897D01*
X014522Y029996D02*
X015852Y029996D01*
X015852Y030094D02*
X014620Y030094D01*
X014699Y030193D02*
X015852Y030193D01*
X015852Y030291D02*
X014699Y030291D01*
X014699Y030390D02*
X015852Y030390D01*
X015852Y030488D02*
X014699Y030488D01*
X014699Y030587D02*
X015852Y030587D01*
X015852Y030685D02*
X014641Y030685D01*
X014542Y030784D02*
X015852Y030784D01*
X015852Y030882D02*
X014444Y030882D01*
X014507Y030981D02*
X015852Y030981D01*
X015852Y031079D02*
X014605Y031079D01*
X014699Y031178D02*
X015852Y031178D01*
X015852Y031276D02*
X014699Y031276D01*
X014699Y031375D02*
X015852Y031375D01*
X015852Y031473D02*
X014699Y031473D01*
X014699Y031572D02*
X015852Y031572D01*
X015852Y031670D02*
X014656Y031670D01*
X014557Y031769D02*
X015852Y031769D01*
X015852Y031867D02*
X014459Y031867D01*
X014492Y031966D02*
X015852Y031966D01*
X015852Y032064D02*
X014590Y032064D01*
X014689Y032163D02*
X015852Y032163D01*
X015852Y032261D02*
X014699Y032261D01*
X014699Y032360D02*
X015852Y032360D01*
X015852Y032458D02*
X014699Y032458D01*
X014699Y032557D02*
X015852Y032557D01*
X015852Y032655D02*
X014671Y032655D01*
X014572Y032754D02*
X015852Y032754D01*
X015852Y032852D02*
X014474Y032852D01*
X014477Y032951D02*
X015852Y032951D01*
X015852Y033049D02*
X014575Y033049D01*
X014674Y033148D02*
X015852Y033148D01*
X015852Y033246D02*
X014699Y033246D01*
X014699Y033345D02*
X015852Y033345D01*
X015852Y033443D02*
X014699Y033443D01*
X014699Y033542D02*
X015852Y033542D01*
X015852Y033640D02*
X014686Y033640D01*
X014587Y033739D02*
X015852Y033739D01*
X015852Y033837D02*
X014489Y033837D01*
X014462Y033936D02*
X015852Y033936D01*
X015852Y034034D02*
X014560Y034034D01*
X014659Y034133D02*
X015852Y034133D01*
X015852Y034231D02*
X014699Y034231D01*
X014699Y034330D02*
X015852Y034330D01*
X015852Y034428D02*
X014699Y034428D01*
X014699Y034527D02*
X015852Y034527D01*
X015852Y034625D02*
X014699Y034625D01*
X014602Y034724D02*
X015852Y034724D01*
X015852Y034822D02*
X014504Y034822D01*
X014405Y034921D02*
X015852Y034921D01*
X015852Y035019D02*
X014317Y035019D01*
X014310Y035013D02*
X014537Y035240D01*
X014537Y035360D01*
X014190Y035360D01*
X014190Y035440D01*
X014537Y035440D01*
X014537Y035560D01*
X014310Y035787D01*
X014190Y035787D01*
X014190Y035440D01*
X014110Y035440D01*
X014110Y035787D01*
X013990Y035787D01*
X013763Y035560D01*
X013763Y035440D01*
X014110Y035440D01*
X014110Y035360D01*
X014190Y035360D01*
X014190Y035013D01*
X014310Y035013D01*
X014190Y035019D02*
X014110Y035019D01*
X014110Y035013D02*
X014110Y035360D01*
X013763Y035360D01*
X013763Y035240D01*
X013990Y035013D01*
X014110Y035013D01*
X014110Y035118D02*
X014190Y035118D01*
X014190Y035216D02*
X014110Y035216D01*
X014110Y035315D02*
X014190Y035315D01*
X014190Y035413D02*
X015852Y035413D01*
X015852Y035315D02*
X014537Y035315D01*
X014514Y035216D02*
X015852Y035216D01*
X015852Y035118D02*
X014416Y035118D01*
X014537Y035512D02*
X015852Y035512D01*
X015852Y035610D02*
X014488Y035610D01*
X014389Y035709D02*
X015852Y035709D01*
X015852Y035807D02*
X006060Y035807D01*
X006060Y035709D02*
X013911Y035709D01*
X013812Y035610D02*
X006060Y035610D01*
X006060Y035512D02*
X013763Y035512D01*
X013763Y035315D02*
X006060Y035315D01*
X006060Y035413D02*
X014110Y035413D01*
X014110Y035512D02*
X014190Y035512D01*
X014190Y035610D02*
X014110Y035610D01*
X014110Y035709D02*
X014190Y035709D01*
X013983Y035019D02*
X006060Y035019D01*
X006060Y034921D02*
X013895Y034921D01*
X013796Y034822D02*
X006060Y034822D01*
X006060Y034724D02*
X013698Y034724D01*
X013601Y034625D02*
X006060Y034625D01*
X006060Y035118D02*
X013884Y035118D01*
X013786Y035216D02*
X006060Y035216D01*
X006060Y035906D02*
X015852Y035906D01*
X015852Y036004D02*
X006060Y036004D01*
X006060Y036103D02*
X015852Y036103D01*
X015852Y036201D02*
X006060Y036201D01*
X006060Y036300D02*
X015852Y036300D01*
X015852Y036398D02*
X006060Y036398D01*
X006060Y036497D02*
X015852Y036497D01*
X015852Y036595D02*
X015402Y036595D01*
X015317Y036560D02*
X015626Y036688D01*
X015852Y036914D01*
X015852Y002886D01*
X015626Y003112D01*
X015317Y003240D01*
X014983Y003240D01*
X014674Y003112D01*
X014438Y002876D01*
X014310Y002567D01*
X014310Y002233D01*
X014438Y001924D01*
X014674Y001688D01*
X014983Y001560D01*
X015317Y001560D01*
X015626Y001688D01*
X015852Y001914D01*
X015852Y000440D01*
X000440Y000440D01*
X000440Y039150D01*
X015852Y039150D01*
X015852Y037886D01*
X015626Y038112D01*
X015317Y038240D01*
X014983Y038240D01*
X014674Y038112D01*
X014438Y037876D01*
X014310Y037567D01*
X014310Y037233D01*
X014438Y036924D01*
X014674Y036688D01*
X014983Y036560D01*
X015317Y036560D01*
X015632Y036694D02*
X015852Y036694D01*
X015852Y036792D02*
X015730Y036792D01*
X015829Y036891D02*
X015852Y036891D01*
X015852Y037974D02*
X015764Y037974D01*
X015852Y038073D02*
X015665Y038073D01*
X015483Y038171D02*
X015852Y038171D01*
X015852Y038270D02*
X000440Y038270D01*
X000440Y038368D02*
X015852Y038368D01*
X015852Y038467D02*
X000440Y038467D01*
X000440Y038565D02*
X015852Y038565D01*
X015852Y038664D02*
X000440Y038664D01*
X000440Y038762D02*
X015852Y038762D01*
X015852Y038861D02*
X000440Y038861D01*
X000440Y038959D02*
X015852Y038959D01*
X015852Y039058D02*
X000440Y039058D01*
X000440Y038171D02*
X014817Y038171D01*
X014635Y038073D02*
X000440Y038073D01*
X000440Y037974D02*
X014536Y037974D01*
X014438Y037876D02*
X000440Y037876D01*
X000440Y037777D02*
X014397Y037777D01*
X014356Y037679D02*
X000440Y037679D01*
X000440Y037580D02*
X014315Y037580D01*
X014310Y037482D02*
X005898Y037482D01*
X005997Y037383D02*
X014310Y037383D01*
X014310Y037285D02*
X006038Y037285D01*
X006060Y037186D02*
X014329Y037186D01*
X014370Y037088D02*
X006060Y037088D01*
X006060Y036989D02*
X014411Y036989D01*
X014471Y036891D02*
X006060Y036891D01*
X006060Y036792D02*
X014570Y036792D01*
X014668Y036694D02*
X006060Y036694D01*
X006060Y036595D02*
X014898Y036595D01*
X013601Y034527D02*
X009812Y034527D01*
X009952Y034428D02*
X013601Y034428D01*
X013601Y034330D02*
X010019Y034330D01*
X010060Y034231D02*
X013601Y034231D01*
X013641Y034133D02*
X010060Y034133D01*
X010060Y034034D02*
X013740Y034034D01*
X013838Y033936D02*
X010060Y033936D01*
X010060Y033837D02*
X012239Y033837D01*
X012235Y033830D02*
X012226Y033797D01*
X012226Y033574D01*
X012600Y033574D01*
X012600Y033909D01*
X012338Y033909D01*
X012305Y033900D01*
X012276Y033883D01*
X012252Y033859D01*
X012235Y033830D01*
X012226Y033739D02*
X010060Y033739D01*
X010060Y033640D02*
X012226Y033640D01*
X012226Y033443D02*
X010060Y033443D01*
X010060Y033345D02*
X012226Y033345D01*
X012159Y033246D02*
X010060Y033246D01*
X010060Y033148D02*
X011102Y033148D01*
X010969Y033049D02*
X010060Y033049D01*
X010060Y032951D02*
X010871Y032951D01*
X010772Y032852D02*
X010060Y032852D01*
X010060Y032754D02*
X010674Y032754D01*
X010575Y032655D02*
X010060Y032655D01*
X010060Y032557D02*
X010477Y032557D01*
X010378Y032458D02*
X010060Y032458D01*
X010060Y032360D02*
X010293Y032360D01*
X010252Y032261D02*
X010060Y032261D01*
X010060Y032163D02*
X010240Y032163D01*
X010240Y032064D02*
X010060Y032064D01*
X010060Y031966D02*
X010240Y031966D01*
X010240Y031867D02*
X010060Y031867D01*
X010060Y031769D02*
X010240Y031769D01*
X010240Y031670D02*
X010060Y031670D01*
X010060Y031572D02*
X010240Y031572D01*
X010240Y031473D02*
X010060Y031473D01*
X010060Y031375D02*
X010240Y031375D01*
X010240Y031276D02*
X010060Y031276D01*
X010060Y031178D02*
X010240Y031178D01*
X010240Y031079D02*
X010060Y031079D01*
X010060Y030981D02*
X010240Y030981D01*
X010240Y030882D02*
X010060Y030882D01*
X010060Y030784D02*
X010240Y030784D01*
X010240Y030685D02*
X010060Y030685D01*
X010060Y030587D02*
X010240Y030587D01*
X010240Y030488D02*
X010060Y030488D01*
X010060Y030390D02*
X010240Y030390D01*
X010240Y030291D02*
X010060Y030291D01*
X010060Y030193D02*
X010240Y030193D01*
X010240Y030094D02*
X010060Y030094D01*
X010030Y029996D02*
X010240Y029996D01*
X010240Y029897D02*
X010037Y029897D01*
X010070Y029799D02*
X010240Y029799D01*
X010240Y029700D02*
X010070Y029700D01*
X010070Y029602D02*
X010240Y029602D01*
X010240Y029503D02*
X010070Y029503D01*
X010070Y029405D02*
X010240Y029405D01*
X010240Y029306D02*
X010070Y029306D01*
X010070Y029208D02*
X010240Y029208D01*
X010240Y029109D02*
X010070Y029109D01*
X010070Y029011D02*
X010240Y029011D01*
X010240Y028912D02*
X010070Y028912D01*
X010033Y028814D02*
X010240Y028814D01*
X010240Y028715D02*
X009945Y028715D01*
X010240Y028617D02*
X007060Y028617D01*
X007333Y028518D02*
X010240Y028518D01*
X010240Y028420D02*
X007460Y028420D01*
X007559Y028321D02*
X010240Y028321D01*
X010240Y028223D02*
X007657Y028223D01*
X007756Y028124D02*
X010240Y028124D01*
X010240Y028026D02*
X007854Y028026D01*
X007953Y027927D02*
X010240Y027927D01*
X010240Y027829D02*
X008020Y027829D01*
X008060Y027730D02*
X010240Y027730D01*
X010240Y027632D02*
X008060Y027632D01*
X007740Y026250D02*
X007462Y026250D01*
X007400Y026276D01*
X007338Y026250D01*
X007330Y026250D01*
X007270Y026190D01*
X007270Y025861D01*
X007277Y025858D01*
X007358Y025777D01*
X007403Y025670D01*
X007403Y025130D01*
X007358Y025023D01*
X007277Y024942D01*
X007170Y024897D01*
X006630Y024897D01*
X006560Y024926D01*
X006560Y024717D01*
X006815Y023952D01*
X006803Y023790D01*
X009608Y023790D01*
X009526Y023692D02*
X006770Y023692D01*
X006770Y023723D02*
X006803Y023790D01*
X006770Y023723D02*
X006770Y021793D01*
X006836Y021860D01*
X006940Y021964D01*
X007076Y022020D01*
X008300Y022020D01*
X008300Y022065D01*
X008210Y022065D01*
X008104Y022109D01*
X008022Y022190D01*
X008008Y022226D01*
X007826Y022226D01*
X007826Y022600D01*
X007726Y022600D01*
X007726Y022226D01*
X007503Y022226D01*
X007470Y022235D01*
X007441Y022252D01*
X007417Y022276D01*
X007400Y022305D01*
X007391Y022338D01*
X007391Y022600D01*
X007726Y022600D01*
X007726Y022700D01*
X007726Y023074D01*
X007503Y023074D01*
X007470Y023065D01*
X007441Y023048D01*
X007417Y023024D01*
X007400Y022995D01*
X007391Y022962D01*
X007391Y022700D01*
X007726Y022700D01*
X007826Y022700D01*
X007826Y023074D01*
X008008Y023074D01*
X008022Y023110D01*
X008104Y023191D01*
X008210Y023235D01*
X008838Y023235D01*
X008944Y023191D01*
X008985Y023151D01*
X009140Y023228D01*
X010240Y024548D01*
X010240Y024647D01*
X009880Y024647D01*
X009773Y024692D01*
X009692Y024773D01*
X009689Y024780D01*
X009303Y024780D01*
X009234Y024710D01*
X009098Y024654D01*
X008712Y024654D01*
X008691Y024604D01*
X008610Y024522D01*
X008574Y024508D01*
X008574Y024326D01*
X008200Y024326D01*
X008200Y024226D01*
X008574Y024226D01*
X008574Y024003D01*
X008565Y023970D01*
X008548Y023941D01*
X008524Y023917D01*
X008495Y023900D01*
X008462Y023891D01*
X008200Y023891D01*
X008200Y024226D01*
X008100Y024226D01*
X007726Y024226D01*
X007726Y024003D01*
X007735Y023970D01*
X007752Y023941D01*
X007776Y023917D01*
X007805Y023900D01*
X007838Y023891D01*
X008100Y023891D01*
X008100Y024226D01*
X008100Y024326D01*
X007726Y024326D01*
X007726Y024508D01*
X007690Y024522D01*
X007609Y024604D01*
X007565Y024710D01*
X007565Y025338D01*
X007609Y025444D01*
X007690Y025526D01*
X007740Y025546D01*
X007740Y026250D01*
X007740Y026154D02*
X007270Y026154D01*
X007270Y026056D02*
X007740Y026056D01*
X007740Y025957D02*
X007270Y025957D01*
X007277Y025859D02*
X007740Y025859D01*
X007740Y025760D02*
X007365Y025760D01*
X007403Y025662D02*
X007740Y025662D01*
X007740Y025563D02*
X007403Y025563D01*
X007403Y025465D02*
X007629Y025465D01*
X007577Y025366D02*
X007403Y025366D01*
X007403Y025268D02*
X007565Y025268D01*
X007565Y025169D02*
X007403Y025169D01*
X007378Y025071D02*
X007565Y025071D01*
X007565Y024972D02*
X007307Y024972D01*
X007565Y024874D02*
X006560Y024874D01*
X006560Y024775D02*
X007565Y024775D01*
X007579Y024677D02*
X006573Y024677D01*
X006606Y024578D02*
X007635Y024578D01*
X007726Y024480D02*
X006639Y024480D01*
X006672Y024381D02*
X007726Y024381D01*
X007726Y024184D02*
X006737Y024184D01*
X006705Y024283D02*
X008100Y024283D01*
X008100Y024184D02*
X008200Y024184D01*
X008200Y024086D02*
X008100Y024086D01*
X008100Y023987D02*
X008200Y023987D01*
X008200Y024283D02*
X010018Y024283D01*
X010101Y024381D02*
X008574Y024381D01*
X008574Y024480D02*
X010183Y024480D01*
X010240Y024578D02*
X008665Y024578D01*
X008574Y024184D02*
X009936Y024184D01*
X009854Y024086D02*
X008574Y024086D01*
X008570Y023987D02*
X009772Y023987D01*
X009690Y023889D02*
X006810Y023889D01*
X006803Y023987D02*
X007730Y023987D01*
X007726Y024086D02*
X006770Y024086D01*
X006770Y023593D02*
X009444Y023593D01*
X009362Y023495D02*
X006770Y023495D01*
X006770Y023396D02*
X009280Y023396D01*
X009198Y023298D02*
X006770Y023298D01*
X006770Y023199D02*
X008123Y023199D01*
X008019Y023101D02*
X006770Y023101D01*
X006770Y023002D02*
X007404Y023002D01*
X007391Y022904D02*
X006770Y022904D01*
X006770Y022805D02*
X007391Y022805D01*
X007391Y022707D02*
X006770Y022707D01*
X006770Y022608D02*
X007726Y022608D01*
X007726Y022510D02*
X007826Y022510D01*
X007826Y022411D02*
X007726Y022411D01*
X007726Y022313D02*
X007826Y022313D01*
X008012Y022214D02*
X006770Y022214D01*
X006770Y022116D02*
X008097Y022116D01*
X007826Y022707D02*
X007726Y022707D01*
X007726Y022805D02*
X007826Y022805D01*
X007826Y022904D02*
X007726Y022904D01*
X007726Y023002D02*
X007826Y023002D01*
X007391Y022510D02*
X006770Y022510D01*
X006770Y022411D02*
X007391Y022411D01*
X007398Y022313D02*
X006770Y022313D01*
X006770Y022017D02*
X007069Y022017D01*
X006895Y021919D02*
X006770Y021919D01*
X006770Y021820D02*
X006797Y021820D01*
X006030Y021820D02*
X005560Y021820D01*
X005560Y021722D02*
X006030Y021722D01*
X006030Y021623D02*
X005560Y021623D01*
X005560Y021525D02*
X006030Y021525D01*
X006030Y021426D02*
X005560Y021426D01*
X005560Y021328D02*
X006030Y021328D01*
X006030Y021229D02*
X005560Y021229D01*
X005560Y021131D02*
X005633Y021131D01*
X005681Y021179D02*
X006030Y021179D01*
X006030Y023283D01*
X005930Y023283D01*
X005930Y023620D01*
X005870Y023620D01*
X005870Y023283D01*
X005748Y023283D01*
X005560Y023470D01*
X005560Y021058D01*
X005681Y021179D01*
X005560Y021919D02*
X006030Y021919D01*
X006030Y022017D02*
X005560Y022017D01*
X005560Y022116D02*
X006030Y022116D01*
X006030Y022214D02*
X005560Y022214D01*
X005560Y022313D02*
X006030Y022313D01*
X006030Y022411D02*
X005560Y022411D01*
X005560Y022510D02*
X006030Y022510D01*
X006030Y022608D02*
X005560Y022608D01*
X005560Y022707D02*
X006030Y022707D01*
X006030Y022805D02*
X005560Y022805D01*
X005560Y022904D02*
X006030Y022904D01*
X006030Y023002D02*
X005560Y023002D01*
X005560Y023101D02*
X006030Y023101D01*
X006030Y023199D02*
X005560Y023199D01*
X005560Y023298D02*
X005733Y023298D01*
X005870Y023298D02*
X005930Y023298D01*
X005930Y023396D02*
X005870Y023396D01*
X005870Y023495D02*
X005930Y023495D01*
X005930Y023593D02*
X005870Y023593D01*
X005634Y023396D02*
X005560Y023396D01*
X005104Y024184D02*
X003060Y024184D01*
X003060Y024086D02*
X005006Y024086D01*
X004907Y023987D02*
X003060Y023987D01*
X003060Y023889D02*
X004809Y023889D01*
X004764Y023790D02*
X003060Y023790D01*
X003060Y023692D02*
X004740Y023692D01*
X004740Y023593D02*
X003060Y023593D01*
X003060Y023495D02*
X004740Y023495D01*
X004740Y023396D02*
X003063Y023396D01*
X003128Y023298D02*
X004740Y023298D01*
X004740Y023199D02*
X003194Y023199D01*
X003259Y023101D02*
X004740Y023101D01*
X004740Y023002D02*
X003633Y023002D01*
X003708Y022904D02*
X004740Y022904D01*
X004740Y022805D02*
X003735Y022805D01*
X003735Y022707D02*
X004740Y022707D01*
X004740Y022608D02*
X003735Y022608D01*
X003735Y022510D02*
X004740Y022510D01*
X004740Y022411D02*
X003735Y022411D01*
X003735Y022313D02*
X004740Y022313D01*
X004740Y022214D02*
X003735Y022214D01*
X003696Y022116D02*
X004740Y022116D01*
X004740Y022017D02*
X003597Y022017D01*
X003574Y021919D02*
X004740Y021919D01*
X004740Y021820D02*
X003200Y021820D01*
X003200Y021726D02*
X003574Y021726D01*
X003574Y021503D01*
X003565Y021470D01*
X003548Y021441D01*
X003524Y021417D01*
X003495Y021400D01*
X003462Y021391D01*
X003200Y021391D01*
X003200Y021726D01*
X003200Y021722D02*
X003100Y021722D01*
X003100Y021820D02*
X001560Y021820D01*
X001560Y021722D02*
X002726Y021722D01*
X002726Y021623D02*
X001560Y021623D01*
X001560Y021525D02*
X002726Y021525D01*
X002767Y021426D02*
X001560Y021426D01*
X001560Y021328D02*
X004740Y021328D01*
X004740Y021426D02*
X003533Y021426D01*
X003574Y021525D02*
X004740Y021525D01*
X004740Y021623D02*
X003574Y021623D01*
X003574Y021722D02*
X004740Y021722D01*
X004740Y021229D02*
X001560Y021229D01*
X001560Y021131D02*
X004740Y021131D01*
X004740Y021032D02*
X001560Y021032D01*
X001560Y020934D02*
X004740Y020934D01*
X004740Y020835D02*
X001560Y020835D01*
X001560Y020737D02*
X004657Y020737D01*
X004558Y020638D02*
X004497Y020638D01*
X004930Y019850D02*
X005530Y019850D01*
X005530Y019752D02*
X004759Y019752D01*
X004488Y019653D02*
X005530Y019653D01*
X005469Y019555D02*
X001653Y019555D01*
X001653Y019653D02*
X003560Y019653D01*
X003326Y019752D02*
X003226Y019752D01*
X003226Y019726D02*
X003226Y020100D01*
X002891Y020100D01*
X002891Y019838D01*
X002900Y019805D01*
X002917Y019776D01*
X002941Y019752D01*
X002970Y019735D01*
X003003Y019726D01*
X003226Y019726D01*
X003226Y019850D02*
X003326Y019850D01*
X003326Y019949D02*
X003226Y019949D01*
X003226Y020047D02*
X003326Y020047D01*
X003226Y020146D02*
X001560Y020146D01*
X001560Y020244D02*
X002891Y020244D01*
X002891Y020343D02*
X001560Y020343D01*
X001560Y020441D02*
X002891Y020441D01*
X002932Y020540D02*
X001560Y020540D01*
X001560Y020638D02*
X003551Y020638D01*
X003326Y020540D02*
X003226Y020540D01*
X003226Y020441D02*
X003326Y020441D01*
X003326Y020343D02*
X003226Y020343D01*
X003226Y020244D02*
X003326Y020244D01*
X002941Y019752D02*
X001653Y019752D01*
X001653Y019850D02*
X002891Y019850D01*
X002891Y019949D02*
X001641Y019949D01*
X001588Y020047D02*
X002891Y020047D01*
X003100Y021426D02*
X003200Y021426D01*
X003200Y021525D02*
X003100Y021525D01*
X003100Y021623D02*
X003200Y021623D01*
X002726Y021919D02*
X001560Y021919D01*
X001560Y022017D02*
X002703Y022017D01*
X002604Y022116D02*
X001560Y022116D01*
X001560Y022214D02*
X002565Y022214D01*
X002565Y022313D02*
X001560Y022313D01*
X001560Y022411D02*
X002565Y022411D01*
X002565Y022510D02*
X001560Y022510D01*
X001560Y022608D02*
X002565Y022608D01*
X002536Y022707D02*
X001560Y022707D01*
X001560Y022805D02*
X002471Y022805D01*
X002405Y022904D02*
X001560Y022904D01*
X001560Y023002D02*
X002340Y023002D01*
X002274Y023101D02*
X001560Y023101D01*
X001560Y023199D02*
X002240Y023199D01*
X002236Y023298D02*
X001560Y023298D01*
X001560Y023396D02*
X002240Y023396D01*
X002240Y023495D02*
X001560Y023495D01*
X001560Y023593D02*
X002240Y023593D01*
X002240Y023692D02*
X001560Y023692D01*
X001560Y023790D02*
X002240Y023790D01*
X002240Y023889D02*
X001560Y023889D01*
X001560Y023987D02*
X002240Y023987D01*
X002240Y024086D02*
X001560Y024086D01*
X001560Y024184D02*
X002240Y024184D01*
X002240Y024283D02*
X001560Y024283D01*
X001560Y024381D02*
X002240Y024381D01*
X002240Y024480D02*
X001560Y024480D01*
X001560Y024578D02*
X002240Y024578D01*
X002240Y024677D02*
X001560Y024677D01*
X001560Y024775D02*
X002240Y024775D01*
X002240Y024874D02*
X001560Y024874D01*
X001560Y024972D02*
X002240Y024972D01*
X002240Y025071D02*
X001560Y025071D01*
X001560Y025169D02*
X002240Y025169D01*
X002240Y025268D02*
X001560Y025268D01*
X001560Y025366D02*
X002240Y025366D01*
X002240Y025465D02*
X001560Y025465D01*
X001560Y025563D02*
X002240Y025563D01*
X002240Y025662D02*
X001560Y025662D01*
X001560Y025760D02*
X002240Y025760D01*
X002240Y025859D02*
X001560Y025859D01*
X001560Y025957D02*
X002240Y025957D01*
X002240Y026056D02*
X001560Y026056D01*
X001560Y026154D02*
X002240Y026154D01*
X002240Y026253D02*
X001560Y026253D01*
X001560Y026351D02*
X002240Y026351D01*
X002240Y026450D02*
X001560Y026450D01*
X001560Y026548D02*
X002240Y026548D01*
X002240Y026647D02*
X001560Y026647D01*
X001560Y026745D02*
X002240Y026745D01*
X002240Y026844D02*
X001560Y026844D01*
X001560Y026942D02*
X002240Y026942D01*
X002240Y027041D02*
X001560Y027041D01*
X001560Y027139D02*
X002240Y027139D01*
X002240Y027238D02*
X001560Y027238D01*
X001560Y027336D02*
X002240Y027336D01*
X002240Y027435D02*
X001560Y027435D01*
X001560Y027533D02*
X002240Y027533D01*
X002240Y027632D02*
X001560Y027632D01*
X001560Y027730D02*
X002240Y027730D01*
X002280Y027829D02*
X001560Y027829D01*
X001560Y027927D02*
X002347Y027927D01*
X002485Y028026D02*
X001560Y028026D01*
X001560Y028124D02*
X003041Y028124D01*
X003158Y028301D02*
X003215Y028272D01*
X003276Y028253D01*
X003339Y028243D01*
X003600Y028243D01*
X003600Y028600D01*
X003700Y028600D01*
X003700Y028700D01*
X003600Y028700D01*
X003600Y029057D01*
X003339Y029057D01*
X003276Y029047D01*
X003215Y029028D01*
X003158Y028999D01*
X003106Y028961D01*
X003060Y028915D01*
X003023Y028864D01*
X002994Y028806D01*
X002974Y028745D01*
X002967Y028700D01*
X003600Y028700D01*
X003600Y028600D01*
X002967Y028600D01*
X002974Y028555D01*
X002994Y028494D01*
X003023Y028436D01*
X003060Y028385D01*
X003106Y028339D01*
X003158Y028301D01*
X003131Y028321D02*
X001560Y028321D01*
X001560Y028223D02*
X005143Y028223D01*
X005241Y028321D02*
X004169Y028321D01*
X004194Y028339D02*
X004240Y028385D01*
X004277Y028436D01*
X004306Y028494D01*
X004326Y028555D01*
X004333Y028600D01*
X003700Y028600D01*
X003700Y028243D01*
X003961Y028243D01*
X004024Y028253D01*
X004085Y028272D01*
X004142Y028301D01*
X004194Y028339D01*
X004265Y028420D02*
X005340Y028420D01*
X005467Y028518D02*
X004314Y028518D01*
X004333Y028700D02*
X004326Y028745D01*
X004306Y028806D01*
X004277Y028864D01*
X004240Y028915D01*
X004194Y028961D01*
X004142Y028999D01*
X004085Y029028D01*
X004024Y029047D01*
X003961Y029057D01*
X003700Y029057D01*
X003700Y028700D01*
X004333Y028700D01*
X004331Y028715D02*
X005250Y028715D01*
X005175Y028814D02*
X004303Y028814D01*
X004242Y028912D02*
X005147Y028912D01*
X005147Y029011D02*
X004119Y029011D01*
X004109Y029109D02*
X005147Y029109D01*
X005147Y029208D02*
X004291Y029208D01*
X004289Y030094D02*
X005014Y030094D01*
X005113Y030193D02*
X004105Y030193D01*
X004085Y030272D02*
X004142Y030301D01*
X004194Y030339D01*
X004240Y030385D01*
X004277Y030436D01*
X004306Y030494D01*
X004326Y030555D01*
X004333Y030600D01*
X003700Y030600D01*
X003700Y030243D01*
X003961Y030243D01*
X004024Y030253D01*
X004085Y030272D01*
X004122Y030291D02*
X005211Y030291D01*
X005310Y030390D02*
X004243Y030390D01*
X004304Y030488D02*
X005408Y030488D01*
X005507Y030587D02*
X004331Y030587D01*
X004333Y030700D02*
X004326Y030745D01*
X004306Y030806D01*
X004277Y030864D01*
X004240Y030915D01*
X004194Y030961D01*
X004142Y030999D01*
X004085Y031028D01*
X004024Y031047D01*
X003961Y031057D01*
X003700Y031057D01*
X003700Y030700D01*
X004333Y030700D01*
X004314Y030784D02*
X005704Y030784D01*
X005802Y030882D02*
X004264Y030882D01*
X004167Y030981D02*
X005901Y030981D01*
X005605Y030685D02*
X003700Y030685D01*
X003700Y030587D02*
X003600Y030587D01*
X003600Y030488D02*
X003700Y030488D01*
X003700Y030390D02*
X003600Y030390D01*
X003600Y030291D02*
X003700Y030291D01*
X003700Y030784D02*
X003600Y030784D01*
X003600Y030882D02*
X003700Y030882D01*
X003700Y030981D02*
X003600Y030981D01*
X003133Y030981D02*
X003060Y030981D01*
X003060Y030915D02*
X003060Y030915D01*
X003060Y031079D02*
X007565Y031079D01*
X007565Y031178D02*
X004261Y031178D01*
X004359Y031276D02*
X007565Y031276D01*
X007565Y031375D02*
X004430Y031375D01*
X004471Y031473D02*
X007565Y031473D01*
X007565Y031572D02*
X004497Y031572D01*
X004497Y031670D02*
X007598Y031670D01*
X007681Y031769D02*
X004495Y031769D01*
X004454Y031867D02*
X007726Y031867D01*
X007726Y031966D02*
X004414Y031966D01*
X004319Y032064D02*
X008100Y032064D01*
X008100Y032074D02*
X007726Y032074D01*
X007726Y032297D01*
X007735Y032330D01*
X007752Y032359D01*
X007776Y032383D01*
X007805Y032400D01*
X007838Y032409D01*
X008100Y032409D01*
X008100Y032074D01*
X008100Y032163D02*
X008200Y032163D01*
X008200Y032261D02*
X008100Y032261D01*
X008100Y032360D02*
X008200Y032360D01*
X008200Y032064D02*
X008740Y032064D01*
X008740Y031966D02*
X008574Y031966D01*
X008574Y031867D02*
X008740Y031867D01*
X008740Y031769D02*
X008619Y031769D01*
X008702Y031670D02*
X008740Y031670D01*
X008735Y031572D02*
X008740Y031572D01*
X008735Y031473D02*
X008740Y031473D01*
X008735Y031375D02*
X008740Y031375D01*
X008735Y031276D02*
X008740Y031276D01*
X008735Y031178D02*
X008740Y031178D01*
X008735Y031079D02*
X008740Y031079D01*
X008735Y030981D02*
X008740Y030981D01*
X008740Y030882D02*
X008702Y030882D01*
X008704Y030784D02*
X008619Y030784D01*
X008605Y030685D02*
X008560Y030685D01*
X008574Y032163D02*
X008740Y032163D01*
X008740Y032261D02*
X008574Y032261D01*
X008548Y032360D02*
X008740Y032360D01*
X008740Y032458D02*
X003060Y032458D01*
X003060Y032360D02*
X007752Y032360D01*
X007726Y032261D02*
X003060Y032261D01*
X003060Y032163D02*
X003123Y032163D01*
X003136Y032557D02*
X008740Y032557D01*
X008740Y032655D02*
X003235Y032655D01*
X002765Y033345D02*
X001560Y033345D01*
X001560Y033443D02*
X002857Y033443D01*
X003024Y033542D02*
X001560Y033542D01*
X001560Y033640D02*
X003086Y033640D01*
X003151Y033739D02*
X001560Y033739D01*
X001560Y033837D02*
X003226Y033837D01*
X003226Y033936D02*
X001560Y033936D01*
X001560Y034034D02*
X003600Y034034D01*
X003600Y034074D02*
X003226Y034074D01*
X003226Y034297D01*
X003235Y034330D01*
X003252Y034359D01*
X003276Y034383D01*
X003305Y034400D01*
X003338Y034409D01*
X003600Y034409D01*
X003600Y034074D01*
X003600Y034133D02*
X003700Y034133D01*
X003700Y034231D02*
X003600Y034231D01*
X003600Y034330D02*
X003700Y034330D01*
X003700Y034034D02*
X004740Y034034D01*
X004740Y033936D02*
X004074Y033936D01*
X004074Y033837D02*
X004740Y033837D01*
X004676Y033739D02*
X004149Y033739D01*
X004214Y033640D02*
X004647Y033640D01*
X004647Y033542D02*
X004235Y033542D01*
X004235Y033443D02*
X004647Y033443D01*
X004647Y033345D02*
X004235Y033345D01*
X004235Y033246D02*
X004647Y033246D01*
X004647Y033148D02*
X004235Y033148D01*
X004235Y033049D02*
X004681Y033049D01*
X004764Y032951D02*
X004230Y032951D01*
X004187Y032852D02*
X008740Y032852D01*
X008740Y032754D02*
X004060Y032754D01*
X004177Y032163D02*
X007726Y032163D01*
X007382Y030998D02*
X007498Y030882D01*
X008740Y032951D02*
X005536Y032951D01*
X004740Y034133D02*
X004074Y034133D01*
X004074Y034231D02*
X004740Y034231D01*
X004740Y034330D02*
X004065Y034330D01*
X004740Y034428D02*
X001560Y034428D01*
X001560Y034330D02*
X003235Y034330D01*
X003226Y034231D02*
X001560Y034231D01*
X001560Y034133D02*
X003226Y034133D01*
X002666Y033246D02*
X001560Y033246D01*
X001560Y033148D02*
X002568Y033148D01*
X002469Y033049D02*
X001560Y033049D01*
X001560Y032951D02*
X002371Y032951D01*
X002290Y032852D02*
X001560Y032852D01*
X001560Y032754D02*
X002249Y032754D01*
X002240Y032655D02*
X001560Y032655D01*
X001560Y032557D02*
X002240Y032557D01*
X002240Y032458D02*
X001560Y032458D01*
X001560Y032360D02*
X002240Y032360D01*
X002240Y032261D02*
X001560Y032261D01*
X001560Y032163D02*
X002240Y032163D01*
X002240Y032064D02*
X001560Y032064D01*
X001560Y031966D02*
X002240Y031966D01*
X002240Y031867D02*
X001560Y031867D01*
X001560Y031769D02*
X002240Y031769D01*
X002240Y031670D02*
X001560Y031670D01*
X001560Y031572D02*
X002240Y031572D01*
X002240Y031473D02*
X001560Y031473D01*
X001560Y031375D02*
X002240Y031375D01*
X002240Y031276D02*
X001560Y031276D01*
X001560Y031178D02*
X002240Y031178D01*
X002240Y031079D02*
X001560Y031079D01*
X001560Y030981D02*
X002240Y030981D01*
X002240Y030882D02*
X001560Y030882D01*
X001560Y030784D02*
X002240Y030784D01*
X002240Y030685D02*
X001560Y030685D01*
X001560Y030587D02*
X002240Y030587D01*
X002240Y030488D02*
X001560Y030488D01*
X001560Y030390D02*
X002240Y030390D01*
X002240Y030291D02*
X001560Y030291D01*
X001560Y030193D02*
X002240Y030193D01*
X002240Y030094D02*
X001560Y030094D01*
X001560Y029996D02*
X002270Y029996D01*
X002323Y029897D02*
X001560Y029897D01*
X001560Y029799D02*
X002422Y029799D01*
X002520Y029700D02*
X001560Y029700D01*
X001560Y029602D02*
X002619Y029602D01*
X002717Y029503D02*
X001560Y029503D01*
X001560Y029405D02*
X002816Y029405D01*
X002911Y029306D02*
X001560Y029306D01*
X001560Y029208D02*
X003009Y029208D01*
X003191Y029109D02*
X001560Y029109D01*
X001560Y029011D02*
X003181Y029011D01*
X003058Y028912D02*
X001560Y028912D01*
X001560Y028814D02*
X002997Y028814D01*
X002969Y028715D02*
X001560Y028715D01*
X001560Y028617D02*
X003600Y028617D01*
X003600Y028715D02*
X003700Y028715D01*
X003700Y028617D02*
X005604Y028617D01*
X005044Y028124D02*
X004259Y028124D01*
X004323Y027240D02*
X005232Y027240D01*
X005382Y027302D01*
X005498Y027418D01*
X005820Y027740D01*
X006980Y027740D01*
X007090Y027630D01*
X006962Y027630D01*
X006900Y027604D01*
X006838Y027630D01*
X006462Y027630D01*
X006356Y027586D01*
X006274Y027504D01*
X006230Y027398D01*
X006230Y026482D01*
X006274Y026376D01*
X006356Y026294D01*
X006462Y026250D01*
X006470Y026250D01*
X006530Y026190D01*
X006530Y025861D01*
X006523Y025858D01*
X006512Y025847D01*
X006498Y025882D01*
X006108Y026272D01*
X006108Y026273D01*
X006153Y026380D01*
X006153Y026920D01*
X006108Y027027D01*
X006027Y027108D01*
X005920Y027153D01*
X005380Y027153D01*
X005273Y027108D01*
X005192Y027027D01*
X005147Y026920D01*
X005147Y026380D01*
X005192Y026273D01*
X005240Y026225D01*
X005240Y026068D01*
X005246Y026054D01*
X005232Y026060D01*
X004323Y026060D01*
X004251Y026132D01*
X004042Y026219D01*
X003258Y026219D01*
X003060Y026137D01*
X003060Y026385D01*
X003060Y026385D01*
X003106Y026339D01*
X003158Y026301D01*
X003215Y026272D01*
X003276Y026253D01*
X003339Y026243D01*
X003600Y026243D01*
X003600Y026600D01*
X003700Y026600D01*
X003700Y026700D01*
X003600Y026700D01*
X003600Y027057D01*
X003339Y027057D01*
X003276Y027047D01*
X003215Y027028D01*
X003158Y026999D01*
X003106Y026961D01*
X003060Y026915D01*
X003060Y027163D01*
X003258Y027081D01*
X004042Y027081D01*
X004251Y027168D01*
X004323Y027240D01*
X004321Y027238D02*
X006230Y027238D01*
X006230Y027336D02*
X005416Y027336D01*
X005514Y027435D02*
X006245Y027435D01*
X006303Y027533D02*
X005613Y027533D01*
X005711Y027632D02*
X007089Y027632D01*
X006990Y027730D02*
X005810Y027730D01*
X005953Y027139D02*
X006230Y027139D01*
X006230Y027041D02*
X006095Y027041D01*
X006144Y026942D02*
X006230Y026942D01*
X006230Y026844D02*
X006153Y026844D01*
X006153Y026745D02*
X006230Y026745D01*
X006230Y026647D02*
X006153Y026647D01*
X006153Y026548D02*
X006230Y026548D01*
X006244Y026450D02*
X006153Y026450D01*
X006141Y026351D02*
X006299Y026351D01*
X006456Y026253D02*
X006127Y026253D01*
X006226Y026154D02*
X006530Y026154D01*
X006530Y026056D02*
X006324Y026056D01*
X006423Y025957D02*
X006530Y025957D01*
X006523Y025859D02*
X006507Y025859D01*
X007344Y026253D02*
X007456Y026253D01*
X008925Y023199D02*
X009081Y023199D01*
X009152Y024677D02*
X009809Y024677D01*
X009691Y024775D02*
X009298Y024775D01*
X009903Y025662D02*
X010240Y025662D01*
X010240Y025760D02*
X009903Y025760D01*
X009903Y025859D02*
X010240Y025859D01*
X010240Y025957D02*
X009887Y025957D01*
X009830Y026056D02*
X010240Y026056D01*
X010240Y026154D02*
X009770Y026154D01*
X009844Y026253D02*
X010240Y026253D01*
X010240Y026351D02*
X010001Y026351D01*
X010056Y026450D02*
X010240Y026450D01*
X010240Y026548D02*
X010070Y026548D01*
X010070Y026647D02*
X010240Y026647D01*
X010240Y026745D02*
X010070Y026745D01*
X010070Y026844D02*
X010240Y026844D01*
X010240Y026942D02*
X010070Y026942D01*
X010070Y027041D02*
X010240Y027041D01*
X010240Y027139D02*
X010070Y027139D01*
X010070Y027238D02*
X010240Y027238D01*
X010240Y027336D02*
X010070Y027336D01*
X010055Y027435D02*
X010240Y027435D01*
X010240Y027533D02*
X009997Y027533D01*
X011560Y027533D02*
X012614Y027533D01*
X012614Y027605D02*
X012614Y026694D01*
X012599Y026679D01*
X012181Y026679D01*
X012017Y026515D01*
X012017Y026620D01*
X011680Y026620D01*
X011680Y026680D01*
X011620Y026680D01*
X011620Y027017D01*
X011560Y027017D01*
X011560Y030065D01*
X011840Y030065D01*
X011946Y030109D01*
X012028Y030190D01*
X012042Y030226D01*
X012224Y030226D01*
X012224Y030600D01*
X012324Y030600D01*
X012324Y030226D01*
X012547Y030226D01*
X012580Y030235D01*
X012609Y030252D01*
X012633Y030276D01*
X012647Y030301D01*
X012647Y030186D01*
X012614Y030106D01*
X012614Y028695D01*
X012604Y028691D01*
X012522Y028610D01*
X012508Y028574D01*
X012326Y028574D01*
X012326Y028200D01*
X012226Y028200D01*
X012226Y028574D01*
X012003Y028574D01*
X011970Y028565D01*
X011941Y028548D01*
X011917Y028524D01*
X011900Y028495D01*
X011891Y028462D01*
X011891Y028200D01*
X012226Y028200D01*
X012226Y028100D01*
X012326Y028100D01*
X012326Y027726D01*
X012508Y027726D01*
X012522Y027690D01*
X012604Y027609D01*
X012614Y027605D01*
X012581Y027632D02*
X011560Y027632D01*
X011560Y027730D02*
X011988Y027730D01*
X012003Y027726D02*
X012226Y027726D01*
X012226Y028100D01*
X011891Y028100D01*
X011891Y027838D01*
X011900Y027805D01*
X011917Y027776D01*
X011941Y027752D01*
X011970Y027735D01*
X012003Y027726D01*
X011894Y027829D02*
X011560Y027829D01*
X011560Y027927D02*
X011891Y027927D01*
X011891Y028026D02*
X011560Y028026D01*
X011560Y028124D02*
X012226Y028124D01*
X012226Y028026D02*
X012326Y028026D01*
X012326Y027927D02*
X012226Y027927D01*
X012226Y027829D02*
X012326Y027829D01*
X012326Y027730D02*
X012226Y027730D01*
X012614Y027435D02*
X011560Y027435D01*
X011560Y027336D02*
X012614Y027336D01*
X012614Y027238D02*
X011560Y027238D01*
X011560Y027139D02*
X012614Y027139D01*
X012614Y027041D02*
X011560Y027041D01*
X011620Y026942D02*
X011680Y026942D01*
X011680Y027017D02*
X011680Y026680D01*
X012017Y026680D01*
X012017Y026802D01*
X011802Y027017D01*
X011680Y027017D01*
X011680Y026844D02*
X011620Y026844D01*
X011620Y026745D02*
X011680Y026745D01*
X011680Y026647D02*
X012149Y026647D01*
X012050Y026548D02*
X012017Y026548D01*
X012017Y026745D02*
X012614Y026745D01*
X012614Y026844D02*
X011976Y026844D01*
X011878Y026942D02*
X012614Y026942D01*
X013037Y025957D02*
X013817Y025957D01*
X013833Y025859D02*
X012938Y025859D01*
X012780Y025760D02*
X013734Y025760D01*
X013636Y025662D02*
X012659Y025662D01*
X012179Y025563D02*
X013601Y025563D01*
X013601Y025465D02*
X012179Y025465D01*
X012114Y025366D02*
X013601Y025366D01*
X013601Y025268D02*
X012060Y025268D01*
X012060Y025169D02*
X013605Y025169D01*
X013703Y025071D02*
X012060Y025071D01*
X012060Y024972D02*
X013802Y024972D01*
X013848Y024874D02*
X012060Y024874D01*
X012060Y024775D02*
X013749Y024775D01*
X013651Y024677D02*
X012060Y024677D01*
X012060Y024578D02*
X013601Y024578D01*
X013601Y024480D02*
X012060Y024480D01*
X012060Y024381D02*
X013601Y024381D01*
X013601Y024283D02*
X012060Y024283D01*
X012060Y024184D02*
X013601Y024184D01*
X013688Y024086D02*
X012060Y024086D01*
X012026Y023987D02*
X012467Y023987D01*
X012498Y024017D02*
X012283Y023802D01*
X012283Y023680D01*
X012620Y023680D01*
X012620Y024017D01*
X012498Y024017D01*
X012620Y023987D02*
X012680Y023987D01*
X012680Y024017D02*
X012680Y023680D01*
X012620Y023680D01*
X012620Y023620D01*
X012283Y023620D01*
X012283Y023498D01*
X012498Y023283D01*
X012620Y023283D01*
X012620Y023620D01*
X012680Y023620D01*
X012680Y023680D01*
X013017Y023680D01*
X013017Y023802D01*
X012802Y024017D01*
X012680Y024017D01*
X012680Y023889D02*
X012620Y023889D01*
X012620Y023790D02*
X012680Y023790D01*
X012680Y023692D02*
X012620Y023692D01*
X012680Y023620D02*
X013017Y023620D01*
X013017Y023498D01*
X012802Y023283D01*
X012680Y023283D01*
X012680Y023620D01*
X012680Y023593D02*
X012620Y023593D01*
X012620Y023495D02*
X012680Y023495D01*
X012680Y023396D02*
X012620Y023396D01*
X012620Y023298D02*
X012680Y023298D01*
X012817Y023298D02*
X013601Y023298D01*
X013601Y023396D02*
X012916Y023396D01*
X013014Y023495D02*
X013601Y023495D01*
X013601Y023593D02*
X013017Y023593D01*
X013017Y023692D02*
X013666Y023692D01*
X013764Y023790D02*
X013017Y023790D01*
X012931Y023889D02*
X013863Y023889D01*
X013787Y023987D02*
X012833Y023987D01*
X012369Y023889D02*
X011968Y023889D01*
X011870Y023790D02*
X012283Y023790D01*
X012283Y023692D02*
X011771Y023692D01*
X011673Y023593D02*
X012283Y023593D01*
X012286Y023495D02*
X011653Y023495D01*
X011653Y023396D02*
X012384Y023396D01*
X012483Y023298D02*
X011619Y023298D01*
X011534Y023199D02*
X013601Y023199D01*
X013673Y023101D02*
X011035Y023101D01*
X011119Y023002D02*
X013772Y023002D01*
X013718Y026056D02*
X013135Y026056D01*
X013234Y026154D02*
X013620Y026154D01*
X013601Y026253D02*
X013332Y026253D01*
X013396Y026351D02*
X013601Y026351D01*
X013601Y026450D02*
X013434Y026450D01*
X013434Y026548D02*
X013601Y026548D01*
X013621Y026647D02*
X013434Y026647D01*
X013434Y026745D02*
X013719Y026745D01*
X013818Y026844D02*
X013434Y026844D01*
X013434Y026942D02*
X013832Y026942D01*
X013733Y027041D02*
X013434Y027041D01*
X013434Y027139D02*
X013635Y027139D01*
X013601Y027238D02*
X013434Y027238D01*
X013434Y027336D02*
X013601Y027336D01*
X013601Y027435D02*
X013434Y027435D01*
X013434Y027533D02*
X013601Y027533D01*
X013606Y027632D02*
X013467Y027632D01*
X013542Y027730D02*
X013704Y027730D01*
X013803Y027829D02*
X013570Y027829D01*
X013570Y027927D02*
X013847Y027927D01*
X013748Y028026D02*
X013570Y028026D01*
X013570Y028124D02*
X013650Y028124D01*
X013601Y028223D02*
X013570Y028223D01*
X013570Y028321D02*
X013601Y028321D01*
X013601Y028420D02*
X013570Y028420D01*
X013564Y028518D02*
X013601Y028518D01*
X013601Y028617D02*
X013519Y028617D01*
X013434Y028715D02*
X013689Y028715D01*
X013788Y028814D02*
X013434Y028814D01*
X013434Y028912D02*
X013862Y028912D01*
X013763Y029011D02*
X013434Y029011D01*
X013434Y029109D02*
X013665Y029109D01*
X013601Y029208D02*
X013434Y029208D01*
X013434Y029306D02*
X013601Y029306D01*
X013601Y029405D02*
X013434Y029405D01*
X013434Y029503D02*
X013601Y029503D01*
X013601Y029602D02*
X013434Y029602D01*
X013535Y029700D02*
X013674Y029700D01*
X013619Y029799D02*
X013773Y029799D01*
X013871Y029897D02*
X013653Y029897D01*
X013653Y029996D02*
X013778Y029996D01*
X013680Y030094D02*
X013653Y030094D01*
X013601Y030534D02*
X013527Y030608D01*
X013420Y030653D01*
X012880Y030653D01*
X012773Y030608D01*
X012692Y030527D01*
X012659Y030447D01*
X012659Y030600D01*
X012324Y030600D01*
X012324Y030700D01*
X012224Y030700D01*
X012224Y031074D01*
X012042Y031074D01*
X012028Y031110D01*
X011946Y031191D01*
X011840Y031235D01*
X011212Y031235D01*
X011106Y031191D01*
X011060Y031145D01*
X011060Y031980D01*
X011446Y032366D01*
X012105Y032366D01*
X012109Y032356D01*
X012190Y032274D01*
X012297Y032230D01*
X012490Y032230D01*
X012668Y032052D01*
X012818Y031990D01*
X013784Y031990D01*
X013874Y031900D01*
X013601Y031627D01*
X013601Y031173D01*
X013874Y030900D01*
X013601Y030627D01*
X013601Y030534D01*
X013601Y030587D02*
X013549Y030587D01*
X013659Y030685D02*
X012324Y030685D01*
X012324Y030700D02*
X012659Y030700D01*
X012659Y030962D01*
X012650Y030995D01*
X012633Y031024D01*
X012609Y031048D01*
X012580Y031065D01*
X012547Y031074D01*
X012324Y031074D01*
X012324Y030700D01*
X012324Y030784D02*
X012224Y030784D01*
X012224Y030882D02*
X012324Y030882D01*
X012324Y030981D02*
X012224Y030981D01*
X012040Y031079D02*
X013695Y031079D01*
X013601Y031178D02*
X011960Y031178D01*
X012224Y030587D02*
X012324Y030587D01*
X012324Y030488D02*
X012224Y030488D01*
X012224Y030390D02*
X012324Y030390D01*
X012324Y030291D02*
X012224Y030291D01*
X012029Y030193D02*
X012647Y030193D01*
X012642Y030291D02*
X012647Y030291D01*
X012659Y030488D02*
X012675Y030488D01*
X012659Y030587D02*
X012751Y030587D01*
X012659Y030784D02*
X013758Y030784D01*
X013856Y030882D02*
X012659Y030882D01*
X012654Y030981D02*
X013793Y030981D01*
X013601Y031276D02*
X011060Y031276D01*
X011060Y031178D02*
X011092Y031178D01*
X011060Y031375D02*
X013601Y031375D01*
X013601Y031473D02*
X011060Y031473D01*
X011060Y031572D02*
X013601Y031572D01*
X013644Y031670D02*
X011060Y031670D01*
X011060Y031769D02*
X013743Y031769D01*
X013841Y031867D02*
X011060Y031867D01*
X011060Y031966D02*
X013808Y031966D01*
X013826Y032852D02*
X013235Y032852D01*
X013235Y032951D02*
X013823Y032951D01*
X013725Y033049D02*
X013235Y033049D01*
X013211Y033148D02*
X013626Y033148D01*
X013601Y033246D02*
X013141Y033246D01*
X013074Y033345D02*
X013601Y033345D01*
X013601Y033443D02*
X013074Y033443D01*
X013074Y033640D02*
X013614Y033640D01*
X013601Y033542D02*
X012700Y033542D01*
X012700Y033640D02*
X012600Y033640D01*
X012600Y033542D02*
X010060Y033542D01*
X011144Y032064D02*
X012656Y032064D01*
X012558Y032163D02*
X011242Y032163D01*
X011341Y032261D02*
X012222Y032261D01*
X012107Y032360D02*
X011439Y032360D01*
X012600Y033739D02*
X012700Y033739D01*
X012700Y033837D02*
X012600Y033837D01*
X013061Y033837D02*
X013811Y033837D01*
X013713Y033739D02*
X013074Y033739D01*
X012614Y030094D02*
X011910Y030094D01*
X011560Y029996D02*
X012614Y029996D01*
X012614Y029897D02*
X011560Y029897D01*
X011560Y029799D02*
X012614Y029799D01*
X012614Y029700D02*
X011560Y029700D01*
X011560Y029602D02*
X012614Y029602D01*
X012614Y029503D02*
X011560Y029503D01*
X011560Y029405D02*
X012614Y029405D01*
X012614Y029306D02*
X011560Y029306D01*
X011560Y029208D02*
X012614Y029208D01*
X012614Y029109D02*
X011560Y029109D01*
X011560Y029011D02*
X012614Y029011D01*
X012614Y028912D02*
X011560Y028912D01*
X011560Y028814D02*
X012614Y028814D01*
X012614Y028715D02*
X011560Y028715D01*
X011560Y028617D02*
X012529Y028617D01*
X012326Y028518D02*
X012226Y028518D01*
X012226Y028420D02*
X012326Y028420D01*
X012326Y028321D02*
X012226Y028321D01*
X012226Y028223D02*
X012326Y028223D01*
X011891Y028223D02*
X011560Y028223D01*
X011560Y028321D02*
X011891Y028321D01*
X011891Y028420D02*
X011560Y028420D01*
X011560Y028518D02*
X011913Y028518D01*
X006114Y018570D02*
X006004Y018570D01*
X005580Y018668D02*
X004467Y018668D01*
X004542Y018570D02*
X005296Y018570D01*
X005136Y018471D02*
X004909Y018471D01*
X005403Y018865D02*
X000440Y018865D01*
X000440Y018767D02*
X005448Y018767D01*
X005397Y018964D02*
X000440Y018964D01*
X000440Y019062D02*
X005397Y019062D01*
X005397Y019161D02*
X001452Y019161D01*
X001594Y019259D02*
X005397Y019259D01*
X005397Y019358D02*
X001643Y019358D01*
X001653Y019456D02*
X005412Y019456D01*
X005530Y019949D02*
X005028Y019949D01*
X005127Y020047D02*
X005560Y020047D01*
X005622Y020146D02*
X005225Y020146D01*
X005324Y020244D02*
X005558Y020244D01*
X005460Y020343D02*
X005422Y020343D01*
X005065Y017585D02*
X004385Y017585D01*
X004518Y017683D02*
X004537Y017683D01*
X005065Y017486D02*
X000440Y017486D01*
X000440Y017388D02*
X005065Y017388D01*
X005065Y017289D02*
X000440Y017289D01*
X000440Y017191D02*
X005065Y017191D01*
X005065Y017092D02*
X000440Y017092D01*
X000440Y016994D02*
X005065Y016994D01*
X005093Y016895D02*
X000440Y016895D01*
X000440Y016797D02*
X005168Y016797D01*
X005240Y016698D02*
X000440Y016698D01*
X000440Y016600D02*
X005240Y016600D01*
X005181Y016501D02*
X000440Y016501D01*
X000440Y016403D02*
X005147Y016403D01*
X005147Y016304D02*
X000440Y016304D01*
X000440Y016206D02*
X005126Y016206D01*
X005027Y016107D02*
X000440Y016107D01*
X000440Y016009D02*
X004929Y016009D01*
X004830Y015910D02*
X000440Y015910D01*
X000440Y015812D02*
X004732Y015812D01*
X004633Y015713D02*
X004056Y015713D01*
X004269Y015615D02*
X004535Y015615D01*
X005005Y014925D02*
X006114Y014925D01*
X006114Y014827D02*
X004906Y014827D01*
X004998Y014918D02*
X004998Y014918D01*
X005103Y015024D02*
X006114Y015024D01*
X006114Y015122D02*
X005202Y015122D01*
X005300Y015221D02*
X006114Y015221D01*
X006114Y015319D02*
X005399Y015319D01*
X005497Y015418D02*
X006114Y015418D01*
X006114Y015516D02*
X005596Y015516D01*
X005694Y015615D02*
X006114Y015615D01*
X006114Y015713D02*
X006048Y015713D01*
X006114Y014728D02*
X004311Y014728D01*
X004158Y014630D02*
X006114Y014630D01*
X006114Y014531D02*
X004075Y014531D01*
X004085Y014528D02*
X004024Y014547D01*
X003961Y014557D01*
X003700Y014557D01*
X003700Y014200D01*
X003600Y014200D01*
X003600Y014557D01*
X003339Y014557D01*
X003276Y014547D01*
X003215Y014528D01*
X003158Y014499D01*
X003106Y014461D01*
X003060Y014415D01*
X003023Y014364D01*
X002994Y014306D01*
X002974Y014245D01*
X002967Y014200D01*
X003600Y014200D01*
X003600Y014100D01*
X003700Y014100D01*
X003700Y014200D01*
X004333Y014200D01*
X004326Y014245D01*
X004306Y014306D01*
X004277Y014364D01*
X004240Y014415D01*
X004194Y014461D01*
X004142Y014499D01*
X004085Y014528D01*
X004222Y014433D02*
X006114Y014433D01*
X006114Y014334D02*
X004292Y014334D01*
X004328Y014236D02*
X006114Y014236D01*
X006114Y014137D02*
X003700Y014137D01*
X003700Y014100D02*
X004333Y014100D01*
X004326Y014055D01*
X004306Y013994D01*
X004277Y013936D01*
X004240Y013885D01*
X004194Y013839D01*
X004142Y013801D01*
X004085Y013772D01*
X004024Y013753D01*
X003961Y013743D01*
X003700Y013743D01*
X003600Y013743D01*
X003600Y014100D01*
X002967Y014100D01*
X002974Y014055D01*
X002994Y013994D01*
X003023Y013936D01*
X003060Y013885D01*
X003106Y013839D01*
X003158Y013801D01*
X003215Y013772D01*
X003276Y013753D01*
X003339Y013743D01*
X003600Y013743D01*
X003600Y013842D02*
X003700Y013842D01*
X003700Y013940D02*
X003600Y013940D01*
X003600Y014039D02*
X003700Y014039D01*
X003700Y014100D02*
X003700Y013743D01*
X003964Y013743D02*
X006114Y013743D01*
X006114Y013645D02*
X000440Y013645D01*
X000440Y013743D02*
X003336Y013743D01*
X003103Y013842D02*
X000440Y013842D01*
X000440Y013940D02*
X003021Y013940D01*
X002979Y014039D02*
X000440Y014039D01*
X000440Y014137D02*
X003600Y014137D01*
X003600Y014236D02*
X003700Y014236D01*
X003700Y014334D02*
X003600Y014334D01*
X003600Y014433D02*
X003700Y014433D01*
X003700Y014531D02*
X003600Y014531D01*
X003225Y014531D02*
X000440Y014531D01*
X000440Y014433D02*
X003078Y014433D01*
X003008Y014334D02*
X000440Y014334D01*
X000440Y014236D02*
X002972Y014236D01*
X003142Y014630D02*
X000440Y014630D01*
X000440Y014728D02*
X002989Y014728D01*
X002890Y014827D02*
X000440Y014827D01*
X000440Y014925D02*
X002849Y014925D01*
X002808Y015024D02*
X000440Y015024D01*
X000440Y015122D02*
X002803Y015122D01*
X002803Y015221D02*
X000440Y015221D01*
X000440Y015319D02*
X002826Y015319D01*
X002866Y015418D02*
X000440Y015418D01*
X000440Y015516D02*
X002933Y015516D01*
X003031Y015615D02*
X000440Y015615D01*
X000440Y015713D02*
X003244Y015713D01*
X003663Y017585D02*
X000440Y017585D01*
X000440Y017683D02*
X003530Y017683D01*
X003326Y017782D02*
X003226Y017782D01*
X003226Y017726D02*
X003003Y017726D01*
X002970Y017735D01*
X002941Y017752D01*
X002917Y017776D01*
X002900Y017805D01*
X002891Y017838D01*
X002891Y018100D01*
X003226Y018100D01*
X003226Y017726D01*
X003226Y017880D02*
X003326Y017880D01*
X003326Y017979D02*
X003226Y017979D01*
X003226Y018077D02*
X003326Y018077D01*
X003226Y018176D02*
X000440Y018176D01*
X000440Y018274D02*
X002891Y018274D01*
X002891Y018373D02*
X000440Y018373D01*
X000440Y018471D02*
X002894Y018471D01*
X002986Y018570D02*
X000440Y018570D01*
X000440Y018668D02*
X003581Y018668D01*
X003326Y018570D02*
X003226Y018570D01*
X003226Y018471D02*
X003326Y018471D01*
X003326Y018373D02*
X003226Y018373D01*
X003226Y018274D02*
X003326Y018274D01*
X002914Y017782D02*
X000440Y017782D01*
X000440Y017880D02*
X002891Y017880D01*
X002891Y017979D02*
X000440Y017979D01*
X000440Y018077D02*
X002891Y018077D01*
X000848Y019161D02*
X000440Y019161D01*
X000440Y019259D02*
X000706Y019259D01*
X000657Y019358D02*
X000440Y019358D01*
X000440Y019456D02*
X000647Y019456D01*
X000647Y019555D02*
X000440Y019555D01*
X000440Y019653D02*
X000647Y019653D01*
X000647Y019752D02*
X000440Y019752D01*
X000440Y019850D02*
X000647Y019850D01*
X000659Y019949D02*
X000440Y019949D01*
X000440Y020047D02*
X000712Y020047D01*
X000740Y020146D02*
X000440Y020146D01*
X000440Y020244D02*
X000740Y020244D01*
X000740Y020343D02*
X000440Y020343D01*
X000440Y020441D02*
X000740Y020441D01*
X000740Y020540D02*
X000440Y020540D01*
X000440Y020638D02*
X000740Y020638D01*
X000740Y020737D02*
X000440Y020737D01*
X000440Y020835D02*
X000740Y020835D01*
X000740Y020934D02*
X000440Y020934D01*
X000440Y021032D02*
X000740Y021032D01*
X000740Y021131D02*
X000440Y021131D01*
X000440Y021229D02*
X000740Y021229D01*
X000740Y021328D02*
X000440Y021328D01*
X000440Y021426D02*
X000740Y021426D01*
X000740Y021525D02*
X000440Y021525D01*
X000440Y021623D02*
X000740Y021623D01*
X000740Y021722D02*
X000440Y021722D01*
X000440Y021820D02*
X000740Y021820D01*
X000740Y021919D02*
X000440Y021919D01*
X000440Y022017D02*
X000740Y022017D01*
X000740Y022116D02*
X000440Y022116D01*
X000440Y022214D02*
X000740Y022214D01*
X000740Y022313D02*
X000440Y022313D01*
X000440Y022411D02*
X000740Y022411D01*
X000740Y022510D02*
X000440Y022510D01*
X000440Y022608D02*
X000740Y022608D01*
X000740Y022707D02*
X000440Y022707D01*
X000440Y022805D02*
X000740Y022805D01*
X000740Y022904D02*
X000440Y022904D01*
X000440Y023002D02*
X000740Y023002D01*
X000740Y023101D02*
X000440Y023101D01*
X000440Y023199D02*
X000740Y023199D01*
X000740Y023298D02*
X000440Y023298D01*
X000440Y023396D02*
X000740Y023396D01*
X000740Y023495D02*
X000440Y023495D01*
X000440Y023593D02*
X000740Y023593D01*
X000740Y023692D02*
X000440Y023692D01*
X000440Y023790D02*
X000740Y023790D01*
X000740Y023889D02*
X000440Y023889D01*
X000440Y023987D02*
X000740Y023987D01*
X000740Y024086D02*
X000440Y024086D01*
X000440Y024184D02*
X000740Y024184D01*
X000740Y024283D02*
X000440Y024283D01*
X000440Y024381D02*
X000740Y024381D01*
X000740Y024480D02*
X000440Y024480D01*
X000440Y024578D02*
X000740Y024578D01*
X000740Y024677D02*
X000440Y024677D01*
X000440Y024775D02*
X000740Y024775D01*
X000740Y024874D02*
X000440Y024874D01*
X000440Y024972D02*
X000740Y024972D01*
X000740Y025071D02*
X000440Y025071D01*
X000440Y025169D02*
X000740Y025169D01*
X000740Y025268D02*
X000440Y025268D01*
X000440Y025366D02*
X000740Y025366D01*
X000740Y025465D02*
X000440Y025465D01*
X000440Y025563D02*
X000740Y025563D01*
X000740Y025662D02*
X000440Y025662D01*
X000440Y025760D02*
X000740Y025760D01*
X000740Y025859D02*
X000440Y025859D01*
X000440Y025957D02*
X000740Y025957D01*
X000740Y026056D02*
X000440Y026056D01*
X000440Y026154D02*
X000740Y026154D01*
X000740Y026253D02*
X000440Y026253D01*
X000440Y026351D02*
X000740Y026351D01*
X000740Y026450D02*
X000440Y026450D01*
X000440Y026548D02*
X000740Y026548D01*
X000740Y026647D02*
X000440Y026647D01*
X000440Y026745D02*
X000740Y026745D01*
X000740Y026844D02*
X000440Y026844D01*
X000440Y026942D02*
X000740Y026942D01*
X000740Y027041D02*
X000440Y027041D01*
X000440Y027139D02*
X000740Y027139D01*
X000740Y027238D02*
X000440Y027238D01*
X000440Y027336D02*
X000740Y027336D01*
X000740Y027435D02*
X000440Y027435D01*
X000440Y027533D02*
X000740Y027533D01*
X000740Y027632D02*
X000440Y027632D01*
X000440Y027730D02*
X000740Y027730D01*
X000740Y027829D02*
X000440Y027829D01*
X000440Y027927D02*
X000740Y027927D01*
X000740Y028026D02*
X000440Y028026D01*
X000440Y028124D02*
X000740Y028124D01*
X000740Y028223D02*
X000440Y028223D01*
X000440Y028321D02*
X000740Y028321D01*
X000740Y028420D02*
X000440Y028420D01*
X000440Y028518D02*
X000740Y028518D01*
X000740Y028617D02*
X000440Y028617D01*
X000440Y028715D02*
X000740Y028715D01*
X000740Y028814D02*
X000440Y028814D01*
X000440Y028912D02*
X000740Y028912D01*
X000740Y029011D02*
X000440Y029011D01*
X000440Y029109D02*
X000740Y029109D01*
X000740Y029208D02*
X000440Y029208D01*
X000440Y029306D02*
X000740Y029306D01*
X000740Y029405D02*
X000440Y029405D01*
X000440Y029503D02*
X000740Y029503D01*
X000740Y029602D02*
X000440Y029602D01*
X000440Y029700D02*
X000740Y029700D01*
X000740Y029799D02*
X000440Y029799D01*
X000440Y029897D02*
X000740Y029897D01*
X000740Y029996D02*
X000440Y029996D01*
X000440Y030094D02*
X000740Y030094D01*
X000740Y030193D02*
X000440Y030193D01*
X000440Y030291D02*
X000740Y030291D01*
X000740Y030390D02*
X000440Y030390D01*
X000440Y030488D02*
X000740Y030488D01*
X000740Y030587D02*
X000440Y030587D01*
X000440Y030685D02*
X000740Y030685D01*
X000740Y030784D02*
X000440Y030784D01*
X000440Y030882D02*
X000740Y030882D01*
X000740Y030981D02*
X000440Y030981D01*
X000440Y031079D02*
X000740Y031079D01*
X000740Y031178D02*
X000440Y031178D01*
X000440Y031276D02*
X000740Y031276D01*
X000740Y031375D02*
X000440Y031375D01*
X000440Y031473D02*
X000740Y031473D01*
X000740Y031572D02*
X000440Y031572D01*
X000440Y031670D02*
X000740Y031670D01*
X000740Y031769D02*
X000440Y031769D01*
X000440Y031867D02*
X000740Y031867D01*
X000740Y031966D02*
X000440Y031966D01*
X000440Y032064D02*
X000740Y032064D01*
X000740Y032163D02*
X000440Y032163D01*
X000440Y032261D02*
X000740Y032261D01*
X000740Y032360D02*
X000440Y032360D01*
X000440Y032458D02*
X000740Y032458D01*
X000740Y032557D02*
X000440Y032557D01*
X000440Y032655D02*
X000740Y032655D01*
X000740Y032754D02*
X000440Y032754D01*
X000440Y032852D02*
X000740Y032852D01*
X000740Y032951D02*
X000440Y032951D01*
X000440Y033049D02*
X000740Y033049D01*
X000740Y033148D02*
X000440Y033148D01*
X000440Y033246D02*
X000740Y033246D01*
X000740Y033345D02*
X000440Y033345D01*
X000440Y033443D02*
X000740Y033443D01*
X000740Y033542D02*
X000440Y033542D01*
X000440Y033640D02*
X000740Y033640D01*
X000740Y033739D02*
X000440Y033739D01*
X000440Y033837D02*
X000740Y033837D01*
X000740Y033936D02*
X000440Y033936D01*
X000440Y034034D02*
X000740Y034034D01*
X000740Y034133D02*
X000440Y034133D01*
X000440Y034231D02*
X000740Y034231D01*
X000740Y034330D02*
X000440Y034330D01*
X000440Y034428D02*
X000740Y034428D01*
X000740Y034527D02*
X000440Y034527D01*
X000440Y034625D02*
X000740Y034625D01*
X000740Y034724D02*
X000440Y034724D01*
X000440Y034822D02*
X000740Y034822D01*
X000740Y034921D02*
X000440Y034921D01*
X000440Y035019D02*
X000740Y035019D01*
X000740Y035118D02*
X000440Y035118D01*
X000440Y035216D02*
X000740Y035216D01*
X000740Y035315D02*
X000440Y035315D01*
X000440Y035413D02*
X000740Y035413D01*
X000740Y035512D02*
X000440Y035512D01*
X000440Y035610D02*
X000740Y035610D01*
X000740Y035709D02*
X000440Y035709D01*
X000440Y035807D02*
X000740Y035807D01*
X000740Y035906D02*
X000440Y035906D01*
X000440Y036004D02*
X000740Y036004D01*
X000740Y036103D02*
X000440Y036103D01*
X000440Y036201D02*
X000740Y036201D01*
X000740Y036300D02*
X000440Y036300D01*
X000440Y036398D02*
X000740Y036398D01*
X000740Y036497D02*
X000440Y036497D01*
X000440Y036595D02*
X000740Y036595D01*
X000740Y036694D02*
X000440Y036694D01*
X000440Y036792D02*
X000765Y036792D01*
X000811Y036891D02*
X000440Y036891D01*
X000440Y036989D02*
X000909Y036989D01*
X001008Y037088D02*
X000440Y037088D01*
X000440Y037186D02*
X001106Y037186D01*
X001205Y037285D02*
X000440Y037285D01*
X000440Y037383D02*
X001303Y037383D01*
X001402Y037482D02*
X000440Y037482D01*
X001576Y036497D02*
X002901Y036497D01*
X002891Y036398D02*
X001560Y036398D01*
X001560Y036300D02*
X002891Y036300D01*
X002891Y036201D02*
X001560Y036201D01*
X001560Y036103D02*
X003226Y036103D01*
X003226Y036100D02*
X002891Y036100D01*
X002891Y035838D01*
X002900Y035805D01*
X002917Y035776D01*
X002941Y035752D01*
X002970Y035735D01*
X003003Y035726D01*
X003226Y035726D01*
X003226Y036100D01*
X003226Y036004D02*
X003326Y036004D01*
X003326Y035906D02*
X003226Y035906D01*
X003226Y035807D02*
X003326Y035807D01*
X003515Y035709D02*
X001560Y035709D01*
X001560Y035807D02*
X002900Y035807D01*
X002891Y035906D02*
X001560Y035906D01*
X001560Y036004D02*
X002891Y036004D01*
X003226Y036201D02*
X003326Y036201D01*
X003326Y036300D02*
X003226Y036300D01*
X003226Y036398D02*
X003326Y036398D01*
X003326Y036497D02*
X003226Y036497D01*
X003516Y036595D02*
X001675Y036595D01*
X001773Y036694D02*
X003610Y036694D01*
X003603Y035610D02*
X001560Y035610D01*
X001560Y035512D02*
X004740Y035512D01*
X004740Y035610D02*
X004445Y035610D01*
X004533Y035709D02*
X004740Y035709D01*
X004740Y035413D02*
X001560Y035413D01*
X001560Y035315D02*
X004740Y035315D01*
X004740Y035216D02*
X001560Y035216D01*
X001560Y035118D02*
X004740Y035118D01*
X004740Y035019D02*
X001560Y035019D01*
X001560Y034921D02*
X004740Y034921D01*
X004740Y034822D02*
X001560Y034822D01*
X001560Y034724D02*
X004740Y034724D01*
X004740Y034625D02*
X001560Y034625D01*
X001560Y034527D02*
X004740Y034527D01*
X004532Y036595D02*
X005240Y036595D01*
X005240Y036694D02*
X004438Y036694D01*
X003178Y030291D02*
X003089Y030291D01*
X003187Y030193D02*
X003195Y030193D01*
X003600Y029011D02*
X003700Y029011D01*
X003700Y028912D02*
X003600Y028912D01*
X003600Y028814D02*
X003700Y028814D01*
X003700Y028518D02*
X003600Y028518D01*
X003600Y028420D02*
X003700Y028420D01*
X003700Y028321D02*
X003600Y028321D01*
X003035Y028420D02*
X001560Y028420D01*
X001560Y028518D02*
X002986Y028518D01*
X003060Y027139D02*
X003119Y027139D01*
X003060Y027041D02*
X003255Y027041D01*
X003087Y026942D02*
X003060Y026942D01*
X003060Y026915D02*
X003060Y026915D01*
X003060Y026351D02*
X003094Y026351D01*
X003060Y026253D02*
X003276Y026253D01*
X003102Y026154D02*
X003060Y026154D01*
X003060Y025071D02*
X005150Y025071D01*
X005240Y024972D02*
X004179Y024972D01*
X004194Y024961D02*
X004142Y024999D01*
X004085Y025028D01*
X004024Y025047D01*
X003961Y025057D01*
X003700Y025057D01*
X003700Y024700D01*
X004333Y024700D01*
X004326Y024745D01*
X004306Y024806D01*
X004277Y024864D01*
X004240Y024915D01*
X004194Y024961D01*
X004270Y024874D02*
X005240Y024874D01*
X005240Y024775D02*
X004317Y024775D01*
X004333Y024600D02*
X003700Y024600D01*
X003700Y024243D01*
X003961Y024243D01*
X004024Y024253D01*
X004085Y024272D01*
X004142Y024301D01*
X004194Y024339D01*
X004240Y024385D01*
X004277Y024436D01*
X004306Y024494D01*
X004326Y024555D01*
X004333Y024600D01*
X004330Y024578D02*
X005240Y024578D01*
X005240Y024480D02*
X004299Y024480D01*
X004236Y024381D02*
X005240Y024381D01*
X005203Y024283D02*
X004105Y024283D01*
X003700Y024283D02*
X003600Y024283D01*
X003600Y024381D02*
X003700Y024381D01*
X003700Y024480D02*
X003600Y024480D01*
X003600Y024578D02*
X003700Y024578D01*
X003700Y024677D02*
X005240Y024677D01*
X005051Y025169D02*
X004252Y025169D01*
X004198Y026154D02*
X005240Y026154D01*
X005242Y026056D02*
X005245Y026056D01*
X005212Y026253D02*
X004024Y026253D01*
X004085Y026272D01*
X004142Y026301D01*
X004194Y026339D01*
X004240Y026385D01*
X004277Y026436D01*
X004306Y026494D01*
X004326Y026555D01*
X004333Y026600D01*
X003700Y026600D01*
X003700Y026243D01*
X003961Y026243D01*
X004024Y026253D01*
X004206Y026351D02*
X005159Y026351D01*
X005147Y026450D02*
X004284Y026450D01*
X004324Y026548D02*
X005147Y026548D01*
X005147Y026647D02*
X003700Y026647D01*
X003700Y026700D02*
X004333Y026700D01*
X004326Y026745D01*
X005147Y026745D01*
X005147Y026844D02*
X004287Y026844D01*
X004277Y026864D02*
X004240Y026915D01*
X004194Y026961D01*
X004142Y026999D01*
X004085Y027028D01*
X004024Y027047D01*
X003961Y027057D01*
X003700Y027057D01*
X003700Y026700D01*
X003700Y026745D02*
X003600Y026745D01*
X003600Y026844D02*
X003700Y026844D01*
X003700Y026942D02*
X003600Y026942D01*
X003600Y027041D02*
X003700Y027041D01*
X004045Y027041D02*
X005205Y027041D01*
X005156Y026942D02*
X004213Y026942D01*
X004277Y026864D02*
X004306Y026806D01*
X004326Y026745D01*
X004181Y027139D02*
X005347Y027139D01*
X003700Y026548D02*
X003600Y026548D01*
X003600Y026450D02*
X003700Y026450D01*
X003700Y026351D02*
X003600Y026351D01*
X003600Y026253D02*
X003700Y026253D01*
X003700Y024972D02*
X003600Y024972D01*
X003600Y024874D02*
X003700Y024874D01*
X003700Y024775D02*
X003600Y024775D01*
X003121Y024972D02*
X003060Y024972D01*
X003060Y024915D02*
X003060Y024915D01*
X003060Y024381D02*
X003064Y024381D01*
X003060Y024283D02*
X003195Y024283D01*
X004321Y014039D02*
X006114Y014039D01*
X006114Y013940D02*
X004279Y013940D01*
X004197Y013842D02*
X006114Y013842D01*
X006114Y013546D02*
X000440Y013546D01*
X000440Y013448D02*
X006114Y013448D01*
X006114Y013349D02*
X000440Y013349D01*
X000440Y013251D02*
X006045Y013251D01*
X004866Y012069D02*
X004148Y012069D01*
X004060Y011970D02*
X004866Y011970D01*
X004866Y011872D02*
X004060Y011872D01*
X004060Y011773D02*
X004866Y011773D01*
X004866Y011675D02*
X004149Y011675D01*
X004307Y011576D02*
X004866Y011576D01*
X004866Y011478D02*
X004406Y011478D01*
X004449Y011379D02*
X004866Y011379D01*
X004866Y011281D02*
X004490Y011281D01*
X004497Y011182D02*
X004866Y011182D01*
X004866Y011084D02*
X004497Y011084D01*
X004476Y010985D02*
X004866Y010985D01*
X004866Y010887D02*
X004435Y010887D01*
X004371Y010788D02*
X004866Y010788D01*
X004866Y010690D02*
X004273Y010690D01*
X004065Y010591D02*
X004866Y010591D01*
X004866Y010493D02*
X004151Y010493D01*
X004142Y010499D02*
X004085Y010528D01*
X004024Y010547D01*
X003961Y010557D01*
X003700Y010557D01*
X003700Y010200D01*
X003600Y010200D01*
X003600Y010557D01*
X003339Y010557D01*
X003276Y010547D01*
X003215Y010528D01*
X003158Y010499D01*
X003106Y010461D01*
X003060Y010415D01*
X003023Y010364D01*
X002994Y010306D01*
X002974Y010245D01*
X002967Y010200D01*
X003600Y010200D01*
X003600Y010100D01*
X003700Y010100D01*
X003700Y010200D01*
X004333Y010200D01*
X004326Y010245D01*
X004306Y010306D01*
X004277Y010364D01*
X004240Y010415D01*
X004194Y010461D01*
X004142Y010499D01*
X004255Y010394D02*
X004866Y010394D01*
X004866Y010296D02*
X004310Y010296D01*
X004333Y010100D02*
X003700Y010100D01*
X003700Y009743D01*
X003961Y009743D01*
X004024Y009753D01*
X004085Y009772D01*
X004142Y009801D01*
X004194Y009839D01*
X004240Y009885D01*
X004277Y009936D01*
X004306Y009994D01*
X004326Y010055D01*
X004333Y010100D01*
X004333Y010099D02*
X004866Y010099D01*
X004866Y010197D02*
X003700Y010197D01*
X003700Y010099D02*
X003600Y010099D01*
X003600Y010100D02*
X003600Y009743D01*
X003339Y009743D01*
X003276Y009753D01*
X003215Y009772D01*
X003158Y009801D01*
X003106Y009839D01*
X003060Y009885D01*
X003023Y009936D01*
X002994Y009994D01*
X002974Y010055D01*
X002967Y010100D01*
X003600Y010100D01*
X003600Y010197D02*
X000440Y010197D01*
X000440Y010099D02*
X002967Y010099D01*
X002992Y010000D02*
X000440Y010000D01*
X000440Y009902D02*
X003048Y009902D01*
X003156Y009803D02*
X000440Y009803D01*
X000440Y009705D02*
X003224Y009705D01*
X003023Y009606D02*
X000440Y009606D01*
X000440Y009508D02*
X002924Y009508D01*
X002863Y009409D02*
X000440Y009409D01*
X000440Y009311D02*
X002822Y009311D01*
X002803Y009212D02*
X000440Y009212D01*
X000440Y009114D02*
X002803Y009114D01*
X002812Y009015D02*
X000440Y009015D01*
X000440Y008917D02*
X002852Y008917D01*
X002899Y008818D02*
X000440Y008818D01*
X000440Y008720D02*
X002997Y008720D01*
X003162Y008621D02*
X000440Y008621D01*
X000440Y008523D02*
X003205Y008523D01*
X003069Y008424D02*
X000440Y008424D01*
X000440Y008326D02*
X003003Y008326D01*
X003600Y008326D02*
X003700Y008326D01*
X003700Y008424D02*
X003600Y008424D01*
X003600Y008523D02*
X003700Y008523D01*
X003700Y008030D02*
X003600Y008030D01*
X003600Y007932D02*
X003700Y007932D01*
X003700Y007833D02*
X003600Y007833D01*
X004277Y009606D02*
X004866Y009606D01*
X004858Y009508D02*
X004866Y009508D01*
X004866Y009705D02*
X004076Y009705D01*
X004144Y009803D02*
X004866Y009803D01*
X004866Y009902D02*
X004252Y009902D01*
X004308Y010000D02*
X004866Y010000D01*
X004798Y012167D02*
X004247Y012167D01*
X003875Y012955D02*
X000440Y012955D01*
X000440Y012857D02*
X003777Y012857D01*
X003678Y012758D02*
X000440Y012758D01*
X000440Y012660D02*
X003580Y012660D01*
X003481Y012561D02*
X000440Y012561D01*
X000440Y012463D02*
X003383Y012463D01*
X003295Y012364D02*
X000440Y012364D01*
X000440Y012266D02*
X003254Y012266D01*
X003240Y012167D02*
X000440Y012167D01*
X000440Y012069D02*
X003240Y012069D01*
X003240Y011970D02*
X000440Y011970D01*
X000440Y011872D02*
X003240Y011872D01*
X003240Y011773D02*
X000440Y011773D01*
X000440Y011675D02*
X003151Y011675D01*
X002993Y011576D02*
X000440Y011576D01*
X000440Y011478D02*
X002894Y011478D01*
X002851Y011379D02*
X000440Y011379D01*
X000440Y011281D02*
X002810Y011281D01*
X002803Y011182D02*
X000440Y011182D01*
X000440Y011084D02*
X002803Y011084D01*
X002824Y010985D02*
X000440Y010985D01*
X000440Y010887D02*
X002865Y010887D01*
X002929Y010788D02*
X000440Y010788D01*
X000440Y010690D02*
X003027Y010690D01*
X003235Y010591D02*
X000440Y010591D01*
X000440Y010493D02*
X003149Y010493D01*
X003045Y010394D02*
X000440Y010394D01*
X000440Y010296D02*
X002990Y010296D01*
X003600Y010296D02*
X003700Y010296D01*
X003700Y010394D02*
X003600Y010394D01*
X003600Y010493D02*
X003700Y010493D01*
X003700Y010000D02*
X003600Y010000D01*
X003600Y009902D02*
X003700Y009902D01*
X003700Y009803D02*
X003600Y009803D01*
X004053Y013054D02*
X000440Y013054D01*
X000440Y013152D02*
X004817Y013152D01*
X008190Y010690D02*
X009530Y010690D01*
X009530Y010591D02*
X008265Y010591D01*
X008305Y010493D02*
X009519Y010493D01*
X009415Y010394D02*
X009385Y010394D01*
X009385Y010296D02*
X009415Y010296D01*
X009415Y010197D02*
X009385Y010197D01*
X009385Y010099D02*
X009415Y010099D01*
X009415Y010000D02*
X009385Y010000D01*
X009385Y009925D02*
X009159Y009925D01*
X008915Y009925D01*
X008915Y009955D01*
X008885Y009955D01*
X008885Y009925D01*
X008915Y009925D01*
X008915Y009411D01*
X009047Y009411D01*
X009080Y009420D01*
X009109Y009437D01*
X009133Y009461D01*
X009150Y009490D01*
X009167Y009461D01*
X009191Y009437D01*
X009220Y009420D01*
X009253Y009411D01*
X009385Y009411D01*
X009385Y009925D01*
X009385Y009902D02*
X009415Y009902D01*
X009415Y009803D02*
X009385Y009803D01*
X009385Y009705D02*
X009415Y009705D01*
X009415Y009606D02*
X009385Y009606D01*
X009385Y009508D02*
X009415Y009508D01*
X009510Y009409D02*
X008310Y009409D01*
X008310Y009311D02*
X009589Y009311D01*
X009150Y009490D02*
X009150Y009490D01*
X009150Y009490D01*
X008915Y009508D02*
X008885Y009508D01*
X008885Y009411D02*
X008885Y009925D01*
X008641Y009925D01*
X008415Y009925D01*
X008415Y009411D01*
X008547Y009411D01*
X008580Y009420D01*
X008609Y009437D01*
X008633Y009461D01*
X008650Y009490D01*
X008667Y009461D01*
X008691Y009437D01*
X008720Y009420D01*
X008753Y009411D01*
X008885Y009411D01*
X008885Y009606D02*
X008915Y009606D01*
X008915Y009705D02*
X008885Y009705D01*
X008885Y009803D02*
X008915Y009803D01*
X008915Y009902D02*
X008885Y009902D01*
X008885Y010000D02*
X008915Y010000D01*
X008915Y010099D02*
X008885Y010099D01*
X008885Y010197D02*
X008915Y010197D01*
X008915Y010296D02*
X008885Y010296D01*
X008885Y010394D02*
X008915Y010394D01*
X009147Y010394D02*
X009153Y010394D01*
X009150Y010390D02*
X009150Y010390D01*
X009150Y010390D01*
X008653Y010394D02*
X008647Y010394D01*
X008650Y010390D02*
X008650Y010390D01*
X008650Y010390D01*
X008415Y010394D02*
X008385Y010394D01*
X008385Y010296D02*
X008415Y010296D01*
X008415Y010197D02*
X008385Y010197D01*
X008385Y010099D02*
X008415Y010099D01*
X008415Y010000D02*
X008385Y010000D01*
X008385Y009902D02*
X008415Y009902D01*
X008415Y009803D02*
X008385Y009803D01*
X008385Y009705D02*
X008415Y009705D01*
X008415Y009606D02*
X008385Y009606D01*
X008385Y009508D02*
X008415Y009508D01*
X008650Y009490D02*
X008650Y009490D01*
X008650Y009490D01*
X010099Y011675D02*
X010201Y011675D01*
X010599Y011675D02*
X010701Y011675D01*
X010885Y010394D02*
X010915Y010394D01*
X010915Y010296D02*
X010885Y010296D01*
X010885Y010197D02*
X010915Y010197D01*
X010915Y010099D02*
X010885Y010099D01*
X010885Y010000D02*
X010915Y010000D01*
X010915Y009902D02*
X010885Y009902D01*
X010885Y009803D02*
X010915Y009803D01*
X010915Y009705D02*
X010885Y009705D01*
X010885Y009606D02*
X010915Y009606D01*
X010915Y009508D02*
X010885Y009508D01*
X013763Y004287D02*
X000440Y004287D01*
X000440Y004189D02*
X013814Y004189D01*
X014470Y002908D02*
X000440Y002908D01*
X000440Y002810D02*
X014410Y002810D01*
X014370Y002711D02*
X000440Y002711D01*
X000440Y002613D02*
X014329Y002613D01*
X014310Y002514D02*
X000440Y002514D01*
X000440Y002416D02*
X014310Y002416D01*
X014310Y002317D02*
X000440Y002317D01*
X000440Y002219D02*
X014316Y002219D01*
X014357Y002120D02*
X000440Y002120D01*
X000440Y002022D02*
X014398Y002022D01*
X014439Y001923D02*
X000440Y001923D01*
X000440Y001825D02*
X014538Y001825D01*
X014636Y001726D02*
X000440Y001726D01*
X000440Y001628D02*
X014820Y001628D01*
X014569Y003007D02*
X000440Y003007D01*
X000440Y003105D02*
X014667Y003105D01*
X014895Y003204D02*
X000440Y003204D01*
X000440Y003302D02*
X015852Y003302D01*
X015852Y003204D02*
X015405Y003204D01*
X015633Y003105D02*
X015852Y003105D01*
X015852Y003007D02*
X015731Y003007D01*
X015830Y002908D02*
X015852Y002908D01*
X015852Y003401D02*
X000440Y003401D01*
X000440Y003499D02*
X015852Y003499D01*
X015852Y003598D02*
X000440Y003598D01*
X000440Y003696D02*
X015852Y003696D01*
X015852Y003795D02*
X000440Y003795D01*
X000440Y003893D02*
X015852Y003893D01*
X015852Y001825D02*
X015762Y001825D01*
X015852Y001726D02*
X015664Y001726D01*
X015480Y001628D02*
X015852Y001628D01*
X015852Y001529D02*
X000440Y001529D01*
X000440Y001431D02*
X015852Y001431D01*
X015852Y001332D02*
X000440Y001332D01*
X000440Y001234D02*
X015852Y001234D01*
X015852Y001135D02*
X000440Y001135D01*
X000440Y001037D02*
X015852Y001037D01*
X015852Y000938D02*
X000440Y000938D01*
X000440Y000840D02*
X015852Y000840D01*
X015852Y000741D02*
X000440Y000741D01*
X000440Y000643D02*
X015852Y000643D01*
X015852Y000544D02*
X000440Y000544D01*
X000440Y000446D02*
X015852Y000446D01*
D22*
X009900Y009940D02*
X009900Y010900D01*
X009650Y011150D01*
X007900Y011150D01*
X007400Y011650D01*
X007400Y012360D01*
X007900Y012360D02*
X007900Y013900D01*
X008400Y013900D02*
X008400Y012360D01*
X008900Y012360D02*
X008900Y013900D01*
X010650Y015650D01*
X010650Y020150D01*
X010150Y021150D02*
X010150Y021650D01*
X010650Y022150D01*
X012400Y022150D01*
X012650Y021900D01*
X012650Y020650D01*
X010150Y021150D02*
X009650Y020650D01*
X009290Y021790D02*
X009400Y021900D01*
X008650Y021650D02*
X007150Y021650D01*
X006900Y021400D01*
X006900Y020400D01*
X006524Y019774D01*
X006900Y019400D02*
X006900Y013900D01*
X007150Y013650D01*
X008400Y013900D02*
X009800Y015300D01*
X009400Y016650D02*
X009290Y016760D01*
X008520Y015280D02*
X008650Y015150D01*
X009400Y013400D02*
X009400Y012360D01*
X008010Y018540D02*
X007900Y018650D01*
X007500Y019760D02*
X007260Y019760D01*
X006900Y019400D01*
X006400Y020400D02*
X006400Y023900D01*
X006900Y025400D02*
X006900Y026400D01*
X008150Y025024D02*
X009024Y025024D01*
X009150Y025150D01*
X010150Y025150D01*
X009400Y025650D02*
X009400Y026400D01*
X008650Y026150D02*
X008650Y026940D01*
X006400Y020400D02*
X005900Y019900D01*
X005900Y019150D01*
M02*
