%
M48
M72
T01C0.0236
T02C0.0320
T03C0.0360
T04C0.0400
T05C0.1100
%
T01
X7150Y13650
X8100Y16150
X8650Y15150
X9150Y15650
X9400Y16650
X10150Y18650
X8400Y20900
X7400Y20650
X7900Y18650
X9400Y21900
X8150Y23400
X9400Y25650
X10150Y25150
X11150Y23650
X10650Y22650
X8650Y26150
X6900Y25400
X5650Y26650
X5650Y29150
X5150Y33400
X2150Y34150
X2150Y36150
X8150Y30150
X13150Y30150
X5900Y19150
X5650Y16150
X9400Y13400
X10900Y4400
X1650Y16650
X1150Y19650
X1650Y21650
T02
X5900Y20650
X5900Y23650
X8150Y14650
X11150Y14650
X11150Y15650
X11150Y18650
X12650Y20650
X12650Y23650
X11650Y25650
X11650Y26650
X12400Y26150
T03
X14150Y26400
X14150Y25400
X14150Y24400
X14150Y23400
X14150Y22400
X14150Y21400
X14150Y20400
X14150Y19400
X14150Y18400
X14150Y17400
X14150Y16400
X14150Y15400
X14150Y14400
X14150Y13400
X14150Y12400
X14150Y11400
X14150Y10400
X14150Y9400
X14150Y8400
X14150Y7400
X14150Y6400
X14150Y5400
X14150Y4400
X14150Y27400
X14150Y28400
X14150Y29400
X14150Y30400
X14150Y31400
X14150Y32400
X14150Y33400
X14150Y34400
X14150Y35400
T04
X3650Y8150
X3650Y9150
X3650Y10150
X3650Y11150
X3650Y14150
X3650Y15150
X3650Y24650
X3650Y25650
X3650Y26650
X3650Y27650
X3650Y28650
X3650Y29650
X3650Y30650
X3650Y31650
T05
X15150Y37400
X15150Y2400
M30
