G75*
%MOIN*%
%OFA0B0*%
%FSLAX25Y25*%
%IPPOS*%
%LPD*%
%AMOC8*
5,1,8,0,0,1.08239X$1,22.5*
%
%ADD10R,0.04800X0.04800*%
%ADD11R,0.03162X0.09461*%
%ADD12R,0.03950X0.04343*%
%ADD13C,0.09461*%
%ADD14R,0.04134X0.06201*%
%ADD15C,0.13398*%
%ADD16C,0.06737*%
%ADD17R,0.05918X0.09816*%
%ADD18R,0.04737X0.06312*%
%ADD19OC8,0.07400*%
%ADD20R,0.03900X0.04300*%
%ADD21R,0.15800X0.08800*%
%ADD22C,0.03600*%
%ADD23C,0.03778*%
D10*
X0032000Y0051000D03*
X0032000Y0058000D03*
X0032000Y0066000D03*
X0032000Y0073000D03*
X0039500Y0073000D03*
X0039500Y0066000D03*
X0039500Y0058000D03*
X0039500Y0051000D03*
X0051000Y0042000D03*
X0058000Y0042000D03*
X0039500Y0081000D03*
X0039500Y0088000D03*
X0032000Y0088000D03*
X0032000Y0081000D03*
X0041000Y0102000D03*
X0041000Y0108250D03*
X0048000Y0108250D03*
X0048000Y0102000D03*
X0059500Y0101000D03*
X0066000Y0102000D03*
X0066000Y0108250D03*
X0059500Y0108000D03*
X0073000Y0108250D03*
X0073000Y0102000D03*
X0091000Y0082000D03*
X0091000Y0074500D03*
X0098000Y0074500D03*
X0098000Y0082000D03*
X0106000Y0082000D03*
X0113000Y0082000D03*
X0132000Y0065500D03*
X0132000Y0058500D03*
X0114500Y0043000D03*
X0114500Y0036000D03*
X0156000Y0082000D03*
X0163000Y0082000D03*
X0169500Y0081000D03*
X0169500Y0088000D03*
X0177000Y0088250D03*
X0184000Y0088250D03*
X0184750Y0095750D03*
X0183500Y0104500D03*
X0190500Y0104500D03*
X0191750Y0095750D03*
X0182000Y0065500D03*
X0182000Y0058500D03*
X0181000Y0051750D03*
X0188000Y0051750D03*
X0164500Y0043000D03*
X0164500Y0036000D03*
X0166000Y0170750D03*
X0173000Y0170750D03*
X0202000Y0183500D03*
X0202000Y0190500D03*
X0197000Y0206000D03*
X0197000Y0213000D03*
X0189500Y0213000D03*
X0189500Y0206000D03*
X0208500Y0228750D03*
X0208500Y0235750D03*
X0209500Y0263500D03*
X0209500Y0270500D03*
X0197000Y0289750D03*
X0197000Y0296750D03*
X0189250Y0295500D03*
X0189250Y0288250D03*
X0182250Y0288250D03*
X0182250Y0295500D03*
X0170750Y0273000D03*
X0170750Y0266000D03*
X0179500Y0263500D03*
X0179500Y0270500D03*
X0167000Y0249500D03*
X0160000Y0249500D03*
X0152000Y0250500D03*
X0152000Y0243500D03*
X0149500Y0291000D03*
X0149500Y0298000D03*
X0159500Y0298000D03*
X0159500Y0291000D03*
X0110000Y0258250D03*
X0110000Y0251250D03*
X0093000Y0233250D03*
X0086000Y0233250D03*
X0077000Y0233250D03*
X0070000Y0233250D03*
X0073000Y0211750D03*
X0073000Y0204750D03*
X0045500Y0171000D03*
X0045500Y0164750D03*
X0038500Y0164750D03*
X0038500Y0171000D03*
X0032500Y0177000D03*
X0025500Y0177000D03*
X0025500Y0184500D03*
X0032500Y0184500D03*
X0057000Y0251000D03*
X0057000Y0258000D03*
X0083250Y0276000D03*
X0083250Y0283000D03*
X0090750Y0283000D03*
X0090750Y0276000D03*
D11*
X0092000Y0264736D03*
X0087000Y0264736D03*
X0082000Y0264736D03*
X0077000Y0264736D03*
X0072000Y0264736D03*
X0067000Y0264736D03*
X0067000Y0244264D03*
X0072000Y0244264D03*
X0077000Y0244264D03*
X0082000Y0244264D03*
X0087000Y0244264D03*
X0092000Y0244264D03*
X0097000Y0244264D03*
X0102000Y0244264D03*
X0102000Y0264736D03*
X0097000Y0264736D03*
X0147000Y0259264D03*
X0152000Y0259264D03*
X0157000Y0259264D03*
X0162000Y0259264D03*
X0162000Y0279736D03*
X0157000Y0279736D03*
X0152000Y0279736D03*
X0147000Y0279736D03*
X0187000Y0277236D03*
X0192000Y0277236D03*
X0197000Y0277236D03*
X0202000Y0277236D03*
X0202000Y0256764D03*
X0197000Y0256764D03*
X0192000Y0256764D03*
X0187000Y0256764D03*
X0187000Y0242236D03*
X0192000Y0242236D03*
X0197000Y0242236D03*
X0202000Y0242236D03*
X0202000Y0221764D03*
X0197000Y0221764D03*
X0192000Y0221764D03*
X0187000Y0221764D03*
X0184500Y0197236D03*
X0179500Y0197236D03*
X0189500Y0197236D03*
X0194500Y0197236D03*
X0194500Y0176764D03*
X0189500Y0176764D03*
X0184500Y0176764D03*
X0179500Y0176764D03*
X0174500Y0072236D03*
X0169500Y0072236D03*
X0164500Y0072236D03*
X0159500Y0072236D03*
X0159500Y0051764D03*
X0164500Y0051764D03*
X0169500Y0051764D03*
X0174500Y0051764D03*
X0124500Y0051764D03*
X0119500Y0051764D03*
X0114500Y0051764D03*
X0109500Y0051764D03*
X0109500Y0072236D03*
X0114500Y0072236D03*
X0119500Y0072236D03*
X0124500Y0072236D03*
X0069500Y0118890D03*
X0064500Y0118890D03*
X0059500Y0118890D03*
X0054500Y0118890D03*
X0049500Y0118890D03*
X0044500Y0118890D03*
X0039500Y0118890D03*
X0034500Y0118890D03*
X0034500Y0155110D03*
X0039500Y0155110D03*
X0044500Y0155110D03*
X0049500Y0155110D03*
X0054500Y0155110D03*
X0059500Y0155110D03*
X0064500Y0155110D03*
X0069500Y0155110D03*
D12*
X0047000Y0250919D03*
X0043260Y0259187D03*
X0050740Y0259187D03*
X0117010Y0250063D03*
X0124490Y0250063D03*
X0120750Y0258331D03*
X0159500Y0103831D03*
X0155760Y0095563D03*
X0163240Y0095563D03*
D13*
X0032500Y0201248D02*
X0032500Y0201248D01*
X0032500Y0207154D01*
X0032500Y0207154D01*
X0032500Y0201248D01*
D14*
X0032500Y0192675D03*
X0026594Y0192675D03*
X0038406Y0192675D03*
D15*
X0017000Y0017000D03*
X0017000Y0312000D03*
X0237000Y0312000D03*
X0237000Y0017000D03*
D16*
X0164500Y0017469D02*
X0164500Y0011531D01*
X0154500Y0011531D02*
X0154500Y0017469D01*
X0114500Y0017469D02*
X0114500Y0011531D01*
X0104500Y0011531D02*
X0104500Y0017469D01*
X0059500Y0017469D02*
X0059500Y0011531D01*
X0049500Y0011531D02*
X0049500Y0017469D01*
X0017469Y0054500D02*
X0011531Y0054500D01*
X0011531Y0064500D02*
X0017469Y0064500D01*
X0017469Y0074500D02*
X0011531Y0074500D01*
X0011531Y0084500D02*
X0017469Y0084500D01*
X0092000Y0096531D02*
X0092000Y0102469D01*
X0102000Y0102469D02*
X0102000Y0096531D01*
X0112000Y0096531D02*
X0112000Y0102469D01*
X0122000Y0102469D02*
X0122000Y0096531D01*
X0117000Y0311531D02*
X0117000Y0317469D01*
X0127000Y0317469D02*
X0127000Y0311531D01*
X0149500Y0311531D02*
X0149500Y0317469D01*
X0159500Y0317469D02*
X0159500Y0311531D01*
X0189500Y0311531D02*
X0189500Y0317469D01*
X0199500Y0317469D02*
X0199500Y0311531D01*
X0102000Y0311531D02*
X0102000Y0317469D01*
X0092000Y0317469D02*
X0092000Y0311531D01*
X0077000Y0311531D02*
X0077000Y0317469D01*
X0067000Y0317469D02*
X0067000Y0311531D01*
X0052000Y0311531D02*
X0052000Y0317469D01*
X0042000Y0317469D02*
X0042000Y0311531D01*
D17*
X0164500Y0159520D03*
X0174500Y0159520D03*
X0184500Y0159520D03*
X0194500Y0159520D03*
X0194500Y0114480D03*
X0184500Y0114480D03*
X0174500Y0114480D03*
X0164500Y0114480D03*
D18*
X0173250Y0103831D03*
X0169510Y0095169D03*
X0176990Y0095169D03*
D19*
X0166000Y0184500D03*
X0166000Y0194500D03*
X0166000Y0204500D03*
D20*
X0080700Y0218000D03*
X0076900Y0226000D03*
X0073100Y0218000D03*
D21*
X0237000Y0147000D03*
X0237000Y0127000D03*
D22*
X0069500Y0127250D03*
X0054500Y0127250D03*
X0059500Y0147250D03*
X0044500Y0147250D03*
X0034500Y0127250D03*
D23*
X0049500Y0127250D03*
X0045750Y0088000D03*
X0045750Y0050750D03*
X0109500Y0059500D03*
X0109500Y0064500D03*
X0119500Y0059500D03*
X0149500Y0049500D03*
X0170750Y0043250D03*
X0181000Y0046250D03*
X0194500Y0051750D03*
X0199500Y0064500D03*
X0184500Y0082000D03*
X0190000Y0088250D03*
X0202000Y0114500D03*
X0184500Y0124500D03*
X0163000Y0088250D03*
X0155750Y0090750D03*
X0157000Y0114500D03*
X0199500Y0177000D03*
X0202000Y0206000D03*
X0208500Y0221750D03*
X0207000Y0257000D03*
X0182250Y0301750D03*
X0147000Y0269500D03*
X0172000Y0249500D03*
X0237000Y0154500D03*
X0237000Y0119500D03*
X0097000Y0284500D03*
X0087000Y0288250D03*
X0092000Y0252000D03*
X0080750Y0213250D03*
X0040000Y0205000D03*
X0040000Y0200750D03*
M02*
