%
M48
M72
T01C0.01200
T02C0.01378
T03C0.03200
T04C0.03937
T05C0.12598
%
T01
X34500Y127250
X44500Y147250
X59500Y147250
X54500Y127250
X69500Y127250
T02
X49500Y127250
X45750Y88000
X45750Y50750
X109500Y59500
X109500Y64500
X119500Y59500
X149500Y49500
X170750Y43250
X181000Y46250
X194500Y51750
X199500Y64500
X184500Y82000
X190000Y88250
X202000Y114500
X184500Y124500
X163000Y88250
X155750Y90750
X157000Y114500
X199500Y177000
X202000Y206000
X208500Y221750
X207000Y257000
X182250Y301750
X147000Y269500
X172000Y249500
X237000Y154500
X237000Y119500
X97000Y284500
X87000Y288250
X92000Y252000
X80750Y213250
X40000Y205000
X40000Y200750
T03
X166000Y204500
X166000Y194500
X166000Y184500
T04
X122000Y99500
X112000Y99500
X102000Y99500
X92000Y99500
X104500Y14500
X114500Y14500
X154500Y14500
X164500Y14500
X59500Y14500
X49500Y14500
X14500Y54500
X14500Y64500
X14500Y74500
X14500Y84500
X42000Y314500
X52000Y314500
X67000Y314500
X77000Y314500
X92000Y314500
X102000Y314500
X117000Y314500
X127000Y314500
X149500Y314500
X159500Y314500
X189500Y314500
X199500Y314500
T05
X17000Y17000
X17000Y312000
X237000Y312000
X237000Y17000
M30
