<?xml version="1.0" encoding="UTF-8" standalone="no"?>
<!-- Created with Inkscape (http://www.inkscape.org/) -->

<svg
   xmlns:dc="http://purl.org/dc/elements/1.1/"
   xmlns:cc="http://creativecommons.org/ns#"
   xmlns:rdf="http://www.w3.org/1999/02/22-rdf-syntax-ns#"
   xmlns:svg="http://www.w3.org/2000/svg"
   xmlns="http://www.w3.org/2000/svg"
   xmlns:sodipodi="http://sodipodi.sourceforge.net/DTD/sodipodi-0.dtd"
   xmlns:inkscape="http://www.inkscape.org/namespaces/inkscape"
   width="242.42361mm"
   height="249.83223mm"
   viewBox="0 0 242.42361 249.83223"
   version="1.1"
   id="svg8"
   inkscape:version="0.92.4 (5da689c313, 2019-01-14)"
   sodipodi:docname="ccm.svg"
   inkscape:export-filename="/home/alex/Desktop/ccm.png"
   inkscape:export-xdpi="96"
   inkscape:export-ydpi="96">
  <defs
     id="defs2">
    <inkscape:path-effect
       effect="perspective-envelope"
       up_left_point="-1258.3922,424.43573"
       up_right_point="-1056.4103,427.74988"
       down_left_point="-1271.858,510.55448"
       down_right_point="-1060.5111,484.22316"
       id="path-effect999"
       is_visible="true"
       deform_type="perspective"
       horizontal_mirror="false"
       vertical_mirror="false"
       overflow_perspective="false" />
    <inkscape:path-effect
       effect="envelope"
       id="path-effect967"
       is_visible="true"
       yy="true"
       xx="true"
       bendpath1="m -1283.8002,431.66204 193.1379,-1.99688"
       bendpath2="m -1054.1106,430.95922 c 16.5347,23.6152 27.7014,52.24901 0.4472,69.56612"
       bendpath3="m -1271.3237,508.70104 186.5969,-3.20691"
       bendpath4="m -1258.2463,432.48793 c 27.4664,23.07246 28.4102,48.19695 1.7035,73.09604"
       bendpath1-nodetypes="cc"
       bendpath3-nodetypes="cc"
       bendpath2-nodetypes="cc"
       bendpath4-nodetypes="cc" />
    <inkscape:path-effect
       effect="envelope"
       id="path-effect965"
       is_visible="true"
       yy="false"
       xx="false"
       bendpath1="M 0,0 H 1"
       bendpath2="m -1015.0774,423.3455 5.2855,81.21897"
       bendpath3="M 0,0 H 1"
       bendpath4="m -1336.0707,428.71921 c 29.7157,20.37089 47.9874,42.21446 -3.3273,73.01276"
       bendpath4-nodetypes="cc"
       bendpath2-nodetypes="cc"
       bendpath1-nodetypes="cc"
       bendpath3-nodetypes="cc" />
  </defs>
  <sodipodi:namedview
     id="base"
     pagecolor="#ffffff"
     bordercolor="#666666"
     borderopacity="1.0"
     inkscape:pageopacity="0.0"
     inkscape:pageshadow="2"
     inkscape:zoom="0.71624579"
     inkscape:cx="120.78683"
     inkscape:cy="416.9683"
     inkscape:document-units="mm"
     inkscape:current-layer="layer1"
     showgrid="false"
     inkscape:window-width="1920"
     inkscape:window-height="1051"
     inkscape:window-x="0"
     inkscape:window-y="0"
     inkscape:window-maximized="1"
     fit-margin-top="0"
     fit-margin-left="0"
     fit-margin-right="0"
     fit-margin-bottom="0" />
  <metadata
     id="metadata5">
    <rdf:RDF>
      <cc:Work
         rdf:about="">
        <dc:format>image/svg+xml</dc:format>
        <dc:type
           rdf:resource="http://purl.org/dc/dcmitype/StillImage" />
        <dc:title></dc:title>
      </cc:Work>
    </rdf:RDF>
  </metadata>
  <g
     inkscape:label="Layer 1"
     inkscape:groupmode="layer"
     id="layer1"
     transform="translate(-5.0016667,-41.748502)">
    <circle
       id="path3754"
       cx="132.18065"
       cy="175.68044"
       r="30.049107"
       style="opacity:0;stroke:#000000;stroke-width:0.26499999;stroke-miterlimit:4;stroke-dasharray:none;stroke-opacity:0.79452054" />
    <circle
       style="opacity:1;fill:none;stroke:#000000;stroke-width:1.10000002;stroke-miterlimit:4;stroke-dasharray:none;stroke-dashoffset:0;stroke-opacity:1"
       id="path4561"
       cx="124.99911"
       cy="163.58519"
       r="40.804661" />
    <path
       style="fill:none;stroke:#000000;stroke-width:1;stroke-linecap:butt;stroke-linejoin:miter;stroke-miterlimit:4;stroke-dasharray:none;stroke-opacity:1"
       d="M 96.692937,133.96652 212.96274,42.140888"
       id="path4563"
       inkscape:connector-curvature="0"
       sodipodi:nodetypes="cc" />
    <path
       style="fill:none;stroke:#000000;stroke-width:1.07961452;stroke-linecap:butt;stroke-linejoin:miter;stroke-miterlimit:4;stroke-dasharray:none;stroke-opacity:1"
       d="M 156.47782,189.69399 247.00483,77.270063"
       id="path4565"
       inkscape:connector-curvature="0"
       sodipodi:nodetypes="cc" />
    <rect
       style="opacity:1;fill:none;stroke:#000000;stroke-width:1;stroke-miterlimit:4;stroke-dasharray:none;stroke-dashoffset:0;stroke-opacity:0.79452054"
       id="rect4569"
       width="4.1793175"
       height="63.212177"
       x="113.88641"
       y="135.57385" />
    <rect
       style="opacity:1;fill:none;stroke:#000000;stroke-width:1;stroke-miterlimit:4;stroke-dasharray:none;stroke-dashoffset:0;stroke-opacity:0.79452054"
       id="rect4571"
       width="4.5711284"
       height="63.603989"
       x="121.85323"
       y="135.57385" />
    <path
       style="fill:none;stroke:#000000;stroke-width:1;stroke-linecap:butt;stroke-linejoin:miter;stroke-miterlimit:4;stroke-dasharray:none;stroke-opacity:1"
       d="M 113.88641,135.57385 C 126.29375,123.1665 126.29375,123.1665 126.29375,123.1665"
       id="path4573"
       inkscape:connector-curvature="0" />
    <path
       style="fill:none;stroke:#000000;stroke-width:1;stroke-linecap:butt;stroke-linejoin:miter;stroke-miterlimit:4;stroke-dasharray:none;stroke-opacity:1"
       d="m 118.06572,135.57385 12.14614,-12.14614"
       id="path4575"
       inkscape:connector-curvature="0" />
    <path
       style="fill:none;stroke:#000000;stroke-width:1;stroke-linecap:butt;stroke-linejoin:miter;stroke-miterlimit:4;stroke-dasharray:none;stroke-opacity:1"
       d="m 121.85323,135.57385 11.62373,-11.62373"
       id="path4577"
       inkscape:connector-curvature="0" />
    <path
       style="fill:none;stroke:#000000;stroke-width:1;stroke-linecap:butt;stroke-linejoin:miter;stroke-miterlimit:4;stroke-dasharray:none;stroke-opacity:1"
       d="m 126.42436,135.57385 10.7095,-10.7095"
       id="path4579"
       inkscape:connector-curvature="0" />
    <path
       style="fill:none;stroke:#000000;stroke-width:1.05387712;stroke-linecap:butt;stroke-linejoin:miter;stroke-miterlimit:4;stroke-dasharray:none;stroke-opacity:1"
       d="M 126.44341,199.15879 164.9558,155.47476"
       id="path4581"
       inkscape:connector-curvature="0" />
    <path
       style="fill:none;stroke:#000000;stroke-width:1.89675367;stroke-linecap:butt;stroke-linejoin:miter;stroke-miterlimit:4;stroke-dasharray:none;stroke-opacity:1"
       d="M 121.75955,164.71649 5.6878924,286.39426"
       id="path27"
       inkscape:connector-curvature="0"
       sodipodi:nodetypes="cc" />
    <path
       style="fill:none;stroke:#000000;stroke-width:1;stroke-linecap:butt;stroke-linejoin:miter;stroke-miterlimit:4;stroke-dasharray:none;stroke-opacity:1"
       d="M 77.761034,211.54115 98.475171,201.3981 85.676012,214.19727 99.520003,231.17574 Z"
       id="path839"
       inkscape:connector-curvature="0" />
    <path
       style="fill:none;stroke:#000000;stroke-width:1;stroke-linecap:butt;stroke-linejoin:miter;stroke-miterlimit:4;stroke-dasharray:none;stroke-opacity:1"
       d="m 77.761034,211.54115 -20.295416,6.31302 16.570342,3.91811 -3.656903,13.97459 8.505565,-11.10131 c 0,0 13.321574,17.50089 12.276745,16.19486 -1.04483,-1.30604 -13.400333,-29.29927 -13.400333,-29.29927 z"
       id="path841"
       inkscape:connector-curvature="0"
       sodipodi:nodetypes="ccccccc" />
    <path
       style="fill:none;stroke:#000000;stroke-width:1;stroke-linecap:butt;stroke-linejoin:miter;stroke-miterlimit:4;stroke-dasharray:none;stroke-opacity:1"
       d="m 77.761034,211.54115 -21.610075,-13.48321 13.483209,5.17164 -1.477611,-20.68656 6.464552,13.85261 8.126865,-8.31157 z"
       id="path881"
       inkscape:connector-curvature="0" />
    <path
       style="fill:none;stroke:#000000;stroke-width:1;stroke-linecap:butt;stroke-linejoin:miter;stroke-miterlimit:4;stroke-dasharray:none;stroke-opacity:1"
       d="m 136.08903,210.61346 h -12.46485 l -3.192,3.19199 v 6.05237 l -4.99204,4.99205 h -9.59427 l -6.325867,6.32587 v 16.58667 l 5.746557,5.74657 h 9.27287 l 5.55065,-5.55066 v -13.25627 l 8.06478,-8.06478 h 13.55013"
       id="path883"
       inkscape:connector-curvature="0" />
    <path
       style="fill:none;stroke:#000000;stroke-width:1;stroke-linecap:butt;stroke-linejoin:miter;stroke-miterlimit:4;stroke-dasharray:none;stroke-opacity:1"
       d="m 99.520003,247.76241 -7.901525,7.90152 v 10.77481 c 0,0 -3.261461,3.96985 -3.820157,3.82015 -0.558696,-0.1497 -10.742151,0 -10.742151,0 l -6.677113,-6.67711 v -15.29695"
       id="path885"
       inkscape:connector-curvature="0" />
    <path
       style="fill:none;stroke:#000000;stroke-width:1;stroke-linecap:butt;stroke-linejoin:miter;stroke-miterlimit:4;stroke-dasharray:none;stroke-opacity:1"
       d="m 91.406249,240.90571 c -0.653019,0.13061 -6.399581,5.94248 -6.399581,5.94248 h -9.403463 l -5.224148,-5.22415 v 6.66079"
       id="path887"
       inkscape:connector-curvature="0"
       sodipodi:nodetypes="ccccc" />
    <path
       style="fill:none;stroke:#000000;stroke-width:1;stroke-linecap:butt;stroke-linejoin:miter;stroke-miterlimit:4;stroke-dasharray:none;stroke-opacity:1"
       d="m 105.26656,253.50898 8.35864,8.35863 v 10.8401 l 5.02824,5.02825 v 10.51359"
       id="path889"
       inkscape:connector-curvature="0" />
    <path
       style="fill:none;stroke:#000000;stroke-width:1;stroke-linecap:butt;stroke-linejoin:miter;stroke-miterlimit:4;stroke-dasharray:none;stroke-opacity:1"
       d="m 120.09008,247.95832 6.26898,6.26897 h 12.99506"
       id="path891"
       inkscape:connector-curvature="0" />
    <path
       style="fill:none;stroke:#000000;stroke-width:1;stroke-linecap:butt;stroke-linejoin:miter;stroke-miterlimit:4;stroke-dasharray:none;stroke-opacity:1"
       d="m 118.65344,277.73596 7.64031,-7.1179 0.0653,-16.39077"
       id="path893"
       inkscape:connector-curvature="0"
       sodipodi:nodetypes="ccc" />
    <path
       style="fill:none;stroke:#000000;stroke-width:1;stroke-linecap:butt;stroke-linejoin:miter;stroke-miterlimit:4;stroke-dasharray:none;stroke-opacity:1"
       d="m 123.68168,250.8969 c 0,-1.95905 0,-14.2358 0,-14.2358 l 5.61596,-5.61596 h 12.14614"
       id="path895"
       inkscape:connector-curvature="0" />
    <path
       style="fill:none;stroke:#000000;stroke-width:1;stroke-linecap:butt;stroke-linejoin:miter;stroke-miterlimit:4;stroke-dasharray:none;stroke-opacity:1"
       d="m 126.35906,254.22729 v -15.21533 l 3.95076,-3.95076 h 10.74215"
       id="path897"
       inkscape:connector-curvature="0" />
    <path
       style="fill:none;stroke:#000000;stroke-width:1;stroke-linecap:butt;stroke-linejoin:miter;stroke-miterlimit:4;stroke-dasharray:none;stroke-opacity:1"
       d="m 126.29375,270.61806 6.72609,6.72608 h 8.29334"
       id="path899"
       inkscape:connector-curvature="0" />
    <path
       style="fill:none;stroke-width:1;stroke-miterlimit:4;stroke-dasharray:none"
       d="m 133.01984,277.34414 v 11.55843"
       id="path901"
       inkscape:connector-curvature="0" />
    <path
       style="fill:none;stroke:none;stroke-width:1;stroke-miterlimit:4;stroke-dasharray:none"
       d="m 133.01984,277.34414 2.54678,6.53018 4.50582,0.65302"
       id="path903"
       inkscape:connector-curvature="0" />
    <path
       style="opacity:1;vector-effect:none;fill:none;fill-opacity:1;stroke:#000000;stroke-width:1;stroke-linecap:butt;stroke-linejoin:miter;stroke-miterlimit:4;stroke-dasharray:none;stroke-dashoffset:0;stroke-opacity:1"
       d="m 133.01984,277.34414 v 11.55843"
       id="path905"
       inkscape:connector-curvature="0" />
    <path
       style="opacity:1;vector-effect:none;fill:none;fill-opacity:1;stroke:#000000;stroke-width:1;stroke-linecap:butt;stroke-linejoin:miter;stroke-miterlimit:4;stroke-dasharray:none;stroke-dashoffset:0;stroke-opacity:1"
       d="m 113.6252,272.70771 -5.84932,-5.94168 -16.157402,-0.32729"
       id="path907"
       inkscape:connector-curvature="0"
       sodipodi:nodetypes="ccc" />
    <path
       style="opacity:1;vector-effect:none;fill:none;fill-opacity:1;stroke:#000000;stroke-width:1;stroke-linecap:butt;stroke-linejoin:miter;stroke-miterlimit:4;stroke-dasharray:none;stroke-dashoffset:0;stroke-opacity:1"
       d="m 120.09008,234.70205 v -7.11791 l 6.1121,-6.1121 v -6.51391 l 4.08493,-4.08493"
       id="path909"
       inkscape:connector-curvature="0"
       sodipodi:nodetypes="cc" />
    <path
       style="opacity:1;vector-effect:none;fill:none;fill-opacity:1;stroke:#000000;stroke-width:1;stroke-linecap:butt;stroke-linejoin:miter;stroke-miterlimit:4;stroke-dasharray:none;stroke-dashoffset:0;stroke-opacity:1"
       d="m 75.603205,246.84819 5.885326,5.88533 v 10.83194 l 6.534266,6.53425"
       id="path911"
       inkscape:connector-curvature="0" />
    <path
       style="opacity:1;vector-effect:none;fill:none;fill-opacity:1;stroke:#000000;stroke-width:1;stroke-linecap:butt;stroke-linejoin:miter;stroke-miterlimit:4;stroke-dasharray:none;stroke-dashoffset:0;stroke-opacity:1"
       d="m 70.379057,235.74687 -10.739095,6.39004 v 19.33889 l 16.087212,16.0872 h 12.822119 l 3.18831,3.18831 v 7.49824"
       id="path913"
       inkscape:connector-curvature="0"
       sodipodi:nodetypes="ccccccc" />
    <path
       style="opacity:1;vector-effect:none;fill:none;fill-opacity:1;stroke:#000000;stroke-width:1;stroke-linecap:butt;stroke-linejoin:miter;stroke-miterlimit:4;stroke-dasharray:none;stroke-dashoffset:0;stroke-opacity:1"
       d="m 70.379057,241.62404 v -5.87717"
       id="path915"
       inkscape:connector-curvature="0" />
    <path
       style="opacity:1;vector-effect:none;fill:none;fill-opacity:1;stroke:#000000;stroke-width:1;stroke-linecap:butt;stroke-linejoin:miter;stroke-miterlimit:4;stroke-dasharray:none;stroke-dashoffset:0;stroke-opacity:1"
       d="M 59.639962,261.4758 45.818931,275.29682 H 33.956955 l -5.03972,5.03973 v 6.34577"
       id="path917"
       inkscape:connector-curvature="0" />
    <path
       style="opacity:1;vector-effect:none;fill:none;fill-opacity:1;stroke:#000000;stroke-width:1;stroke-linecap:butt;stroke-linejoin:miter;stroke-miterlimit:4;stroke-dasharray:none;stroke-dashoffset:0;stroke-opacity:1"
       d="m 45.818931,275.29682 4.79,4.78999 v 6.46488"
       id="path919"
       inkscape:connector-curvature="0" />
    <path
       style="opacity:1;vector-effect:none;fill:none;fill-opacity:1;stroke:#000000;stroke-width:1;stroke-linecap:butt;stroke-linejoin:miter;stroke-miterlimit:4;stroke-dasharray:none;stroke-dashoffset:0;stroke-opacity:1"
       d="m 75.727174,277.563 -4.025761,4.02577 v 5.61594"
       id="path921"
       inkscape:connector-curvature="0" />
    <path
       style="opacity:1;vector-effect:none;fill:none;fill-opacity:1;stroke:#000000;stroke-width:1;stroke-linecap:butt;stroke-linejoin:miter;stroke-miterlimit:4;stroke-dasharray:none;stroke-dashoffset:0;stroke-opacity:1"
       d="m 73.007456,274.79737 -6.203675,6.20368 v 6.46488"
       id="path923"
       inkscape:connector-curvature="0" />
    <path
       style="opacity:1;vector-effect:none;fill:none;fill-opacity:1;stroke:#000000;stroke-width:1;stroke-linecap:butt;stroke-linejoin:miter;stroke-miterlimit:4;stroke-dasharray:none;stroke-dashoffset:0;stroke-opacity:1"
       d="m 69.742364,271.53227 -9.729974,9.72998 v 6.33428"
       id="path925"
       inkscape:connector-curvature="0" />
    <path
       style="opacity:1;vector-effect:none;fill:none;fill-opacity:1;stroke:#000000;stroke-width:1;stroke-linecap:butt;stroke-linejoin:miter;stroke-miterlimit:4;stroke-dasharray:none;stroke-dashoffset:0;stroke-opacity:1"
       d="m 65.040632,267.74476 -10.382993,10.38299 v 9.8606"
       id="path927"
       inkscape:connector-curvature="0" />
    <path
       style="opacity:1;vector-effect:none;fill:none;fill-opacity:1;stroke:#000000;stroke-width:1;stroke-linecap:butt;stroke-linejoin:miter;stroke-miterlimit:4;stroke-dasharray:none;stroke-dashoffset:0;stroke-opacity:1"
       d="m 88.549293,277.563 h 12.484127 l 4.02173,4.02172 v 6.05346"
       id="path929"
       inkscape:connector-curvature="0" />
    <path
       style="opacity:1;vector-effect:none;fill:none;fill-opacity:1;stroke:#000000;stroke-width:1;stroke-linecap:butt;stroke-linejoin:miter;stroke-miterlimit:4;stroke-dasharray:none;stroke-dashoffset:0;stroke-opacity:1"
       d="m 101.03342,277.563 h 11.22062 l 6.44593,6.44594"
       id="path931"
       inkscape:connector-curvature="0" />
    <path
       style="opacity:1;vector-effect:none;fill:none;fill-opacity:1;stroke:#000000;stroke-width:1;stroke-linecap:butt;stroke-linejoin:miter;stroke-miterlimit:4;stroke-dasharray:none;stroke-dashoffset:0;stroke-opacity:1"
       d="m 98.475171,201.3981 8.423939,8.42394 0.78363,0.78362 h 17.43558"
       id="path933"
       inkscape:connector-curvature="0" />
    <path
       style="opacity:1;vector-effect:none;fill:none;fill-opacity:1;stroke:#000000;stroke-width:1;stroke-linecap:butt;stroke-linejoin:miter;stroke-miterlimit:4;stroke-dasharray:none;stroke-dashoffset:0;stroke-opacity:1"
       d="m 107.68274,210.60566 3.33039,3.33039 v 3.52631 2.08966 l -5.94247,5.94247"
       id="path935"
       inkscape:connector-curvature="0" />
    <path
       style="opacity:1;vector-effect:none;fill:none;fill-opacity:1;stroke:#000000;stroke-width:1;stroke-linecap:butt;stroke-linejoin:miter;stroke-miterlimit:4;stroke-dasharray:none;stroke-dashoffset:0;stroke-opacity:1"
       d="M 98.475171,201.3981 Z"
       id="path937"
       inkscape:connector-curvature="0" />
    <path
       style="opacity:1;vector-effect:none;fill:none;fill-opacity:1;stroke:#000000;stroke-width:1;stroke-linecap:butt;stroke-linejoin:miter;stroke-miterlimit:4;stroke-dasharray:none;stroke-dashoffset:0;stroke-opacity:1"
       d="m 98.475171,201.3981 h 5.224149 l 9.33817,9.33816"
       id="path939"
       inkscape:connector-curvature="0" />
    <g
       aria-label="CCM"
       transform="matrix(0.43348452,-0.35686056,0.53343531,0.53928417,447.83576,-564.23337)"
       style="font-style:normal;font-weight:normal;font-size:40px;line-height:1.25;font-family:sans-serif;letter-spacing:0px;word-spacing:0px;fill:#000000;fill-opacity:1;stroke:none"
       id="flowRoot941"
       inkscape:path-effect="#path-effect967;#path-effect999"
       inkscape:export-xdpi="96"
       inkscape:export-ydpi="96">
      <path
         d="m -1201.2433,481.1398 c 4.9919,-0.33826 10.1554,-0.76544 15.352,-1.23279 -1.3207,1.81564 -2.8599,3.37333 -4.5359,4.77037 -0.4958,0.40233 -0.9986,0.79365 -1.5072,1.17586 0,0 0,0 0,0 -4.1205,3.61558 -10.5844,8.27604 -16.9566,12.32694 -10.3813,6.59954 -19.499,10.80129 -29.5355,12.07454 -5.4054,0.68575 -9.5917,0.20339 -12.0789,-1.30832 -2.535,-1.54081 -3.1831,-4.03618 -1.5326,-7.62007 1.5158,-3.25781 4.2792,-6.58852 8.1266,-11.12706 0.5346,-0.61633 1.09,-1.25824 1.6512,-1.91389 4.2875,-5.01207 9.7468,-11.93117 11.7935,-19.14869 0.1508,-0.53168 0.2804,-1.06278 0.3883,-1.59319 0.1268,-0.62718 0.2228,-1.25319 0.287,-1.87788 0.1537,-1.56099 0.1076,-3.09695 -0.1293,-4.60747 -1.0179,-6.48988 -5.0433,-11.9202 -8.7061,-16.08328 -0.1434,-0.1627 -0.2868,-0.32437 -0.4301,-0.48496 -4.2848,-4.78348 -8.3914,-8.66888 -11.1484,-12.30372 -5.4078,-7.13476 -2.5021,-10.73797 7.7768,-10.66024 9.7336,0.0736 20.4265,2.7771 30.9475,7.50993 7.5051,3.36575 15.4351,7.76728 21.6159,13.56811 0.1713,0.16426 0.3417,0.3296 0.5111,0.49602 1.9962,1.99243 3.7844,4.17666 5.2215,6.55949 -5.1381,0.14901 -10.0595,0.28404 -14.978,0.41505 -1.5721,-2.61814 -3.538,-4.84534 -5.5547,-6.67283 -0.1924,-0.17149 -0.3851,-0.34 -0.578,-0.50555 -2.0222,-1.70228 -4.108,-3.08364 -6.1066,-4.16335 -4.1938,-2.28215 -8.6699,-3.32559 -12.7866,-3.20851 -4.0446,0.11504 -4.2613,1.98205 -1.7933,5.84205 0.4139,0.64729 0.9073,1.3558 1.4824,2.16083 0.1172,0.16723 0.2374,0.33757 0.3607,0.51159 2.6381,3.73344 7.6978,10.63212 8.163,19.28305 0.06,1.12063 0.037,2.25263 -0.07,3.39584 -0.093,0.68846 -0.2159,1.37057 -0.3674,2.04621 -0.038,0.16002 -0.077,0.31968 -0.1173,0.47895 -2.2144,8.71164 -8.1351,15.74164 -10.2192,18.56061 -0.4008,0.54262 -0.7392,1.02725 -1.0164,1.4654 -0.017,0.0308 -0.033,0.0614 -0.049,0.0919 -1.7133,3.26635 -0.5021,4.6801 4.2647,4.12838 5.1439,-0.59536 10.414,-2.76052 14.9763,-5.90814 0.6627,-0.40593 1.3245,-0.8404 1.9807,-1.30507 1.8691,-1.35952 3.7138,-3.03616 5.2987,-5.13608 0,0 -3e-4,10e-6 -3e-4,10e-6 z"
         style="font-style:normal;font-variant:normal;font-weight:900;font-stretch:normal;font-size:96px;font-family:Roboto;-inkscape-font-specification:'Roboto Heavy'"
         id="path958"
         inkscape:original-d="m -1219.6523,478.84624 h 16.4062 c -0.3437,7.15625 -3.0312,12.95312 -8.0625,17.39062 -5.0313,4.4375 -11.75,6.65625 -20.1562,6.65625 -9.125,0 -16.2344,-2.96875 -21.3282,-8.90625 -5.0625,-5.9375 -7.4562,-13.2445 -7.5688,-23.49417 l -0.062,-5.67083 c -0.1129,-10.28092 2.6468,-17.21 7.8655,-23.1475 5.25,-5.96875 12.2031,-8.95312 20.8594,-8.95312 8.9063,0 15.7344,2.32812 20.4844,6.98437 4.75,4.625 7.4375,10.48438 8.0625,17.57813 h -16.4063 c -0.125,-3.84375 -1.0937,-6.75 -2.9062,-8.71875 -1.7813,-1.96875 -4.8594,-2.95313 -9.2344,-2.95313 -4.0625,0 -7.0782,1.5625 -9.0469,4.6875 -1.9687,3.125 -2.9531,8.32813 -2.9531,15.60938 v 3.79687 c 0,7.25 0.9219,12.45313 2.7656,15.60938 1.8437,3.125 5,4.6875 9.4688,4.6875 7.6562,0 11.5937,-3.71875 11.8125,-11.15625 z"
         inkscape:connector-curvature="0"
         sodipodi:nodetypes="ccsscsscsccccsssscsc" />
      <path
         d="m -1141.1232,475.52072 c 3.924,-0.38751 12.2476,-1.20374 15.975,-1.57189 -1.0074,1.54949 -2.2283,2.87199 -3.6028,4.07024 -0.4071,0.34407 -0.8235,0.67968 -1.2488,1.00912 0,0 0,0 0,0 -3.427,3.08964 -9.1815,7.29597 -14.8349,11.05554 -9.2096,6.12448 -17.6525,10.56627 -26.2322,11.78074 -9.4617,1.33932 -13.5255,-2.70359 -13.437,-9.09415 0.051,-2.69894 0.798,-5.28632 1.7955,-7.9285 0.1814,-0.33823 0.3789,-0.68684 0.5935,-1.05024 1.9193,-3.21126 4.7962,-8.05153 6.5567,-15.61341 0.035,-0.15249 0.07,-0.30573 0.1042,-0.45971 0.134,-0.66534 0.2455,-1.34351 0.3342,-2.03444 0.071,-1.09564 0.08,-2.183 0.028,-3.26183 -0.3789,-7.88302 -3.4074,-14.38614 -6.2252,-19.46216 0.01,0.0182 -0.2824,-0.51028 -0.2722,-0.49202 -2.8411,-4.98138 -4.78,-8.25144 -5.259,-11.22017 -0.9006,-5.60468 4.4347,-7.996 13.6661,-7.82986 8.9836,0.16168 17.8238,2.12353 26.5687,6.12545 6.2662,2.857 12.7442,6.65473 17.785,11.79694 0.1391,0.14487 0.2774,0.2907 0.4147,0.43749 1.619,1.75887 3.062,3.68711 4.2158,5.78914 1.3057,-0.0513 -17.2381,0.66677 -15.8338,0.61162 -1.205,-2.35377 -2.7415,-4.34789 -4.3543,-5.98246 -0.1534,-0.15286 -0.3075,-0.30304 -0.462,-0.45055 -1.6215,-1.51695 -3.325,-2.73908 -5.0141,-3.69609 -3.5327,-2.01944 -7.6317,-2.93367 -11.9265,-2.90387 -4.1439,0.0288 -5.4746,1.56528 -4.4302,5.05518 0.1756,0.5867 0.4258,1.24299 0.7458,1.98689 0.065,0.15557 0.1319,0.31441 0.2023,0.47669 1.4917,3.40178 5.1475,10.3821 5.6094,18.71581 0.06,1.09049 0.06,2.18947 -0,3.29664 -0.08,0.66804 -0.1806,1.32329 -0.3019,1.96568 -0.031,0.14849 -0.062,0.29624 -0.095,0.44325 -1.6663,7.60386 -5.1138,13.45865 -5.7256,14.9236 -0.1447,0.36281 -0.2447,0.68827 -0.3008,0.98188 -0,0.0214 -0,0.0427 -0,0.0639 -0.078,2.30806 1.6725,3.5148 6.2078,2.97904 4.9233,-0.58158 9.5437,-2.5257 13.2412,-5.1943 0.5345,-0.33887 1.06,-0.69882 1.5725,-1.08117 1.4657,-1.12995 2.8379,-2.50173 3.9451,-4.23806 z"
         style="font-style:normal;font-variant:normal;font-weight:900;font-stretch:normal;font-size:96px;font-family:Roboto;-inkscape-font-specification:'Roboto Heavy'"
         id="path960"
         inkscape:original-d="m -1156.6523,478.84624 h 16.4062 c -0.3437,7.15625 -3.0312,12.95312 -8.0625,17.39062 -5.0313,4.4375 -11.75,6.65625 -20.1562,6.65625 -9.125,0 -16.2344,-2.96875 -21.3282,-8.90625 -5.0625,-5.9375 -7.5937,-14.03125 -7.5937,-24.28125 v -3.70312 c 0,-10.28125 2.6094,-18.39063 7.8281,-24.32813 5.25,-5.96875 12.2031,-8.95312 20.8594,-8.95312 8.9063,0 15.7344,2.32812 20.4844,6.98437 4.75,4.625 7.4375,10.48438 8.0625,17.57813 h -16.4063 c -0.125,-3.84375 -1.0937,-6.75 -2.9062,-8.71875 -1.7813,-1.96875 -4.8594,-2.95313 -9.2344,-2.95313 -4.0625,0 -7.0782,1.5625 -9.0469,4.6875 -1.9687,3.125 -2.9531,8.32813 -2.9531,15.60938 v 3.79687 c 0,7.25 0.9219,12.45313 2.7656,15.60938 1.8437,3.125 5,4.6875 9.4688,4.6875 7.6562,0 11.5937,-3.71875 11.8125,-11.15625 z"
         inkscape:connector-curvature="0"
         sodipodi:nodetypes="ccsscsscsccccsssscsc" />
      <path
         d="m -1082.7837,471.13184 c 3.4902,-3.23553 6.1585,-7.04893 7.959,-11.6101 0.1917,-0.51586 0.3679,-1.03821 0.5285,-1.56695 0,0 0,0 0,0 1.6744,-6.38311 0.9553,-12.04932 -1.0975,-17.2177 0,0 0,0 0,0 -0.05,-0.12719 -0.1009,-0.25412 -0.1521,-0.3808 0,0 -10e-5,0 -10e-5,0 -2.4289,-5.85297 -6.0008,-10.5971 -9.4107,-15.63964 6.8843,0.2939 13.9737,0.76936 21.2336,1.54825 5.5619,5.20412 10.75,9.77384 14.581,14.63104 0.082,0.10371 0.1632,0.20749 0.2437,0.31136 3.1432,4.04998 5.1968,8.15791 5.4901,12.60931 0,0 0,0 0,0 0.025,0.36764 0.039,0.73763 0.04,1.11013 0.015,4.19874 -1.6371,8.57251 -4.9138,12.9368 0,0 0,0 0,0 -0.3226,0.43006 -0.6599,0.85865 -1.0118,1.28606 -4.3835,5.28847 -10.2053,9.48352 -16.0037,14.65973 -4.7798,0.59743 -9.6598,1.29077 -14.5529,2.03534 4.9397,-5.27965 10.2074,-9.58649 13.919,-13.73172 0.1949,-0.20538 0.3862,-0.41037 0.5737,-0.61508 0,0 0,-10e-6 0,-10e-6 0.3507,-0.35642 0.692,-0.71675 1.024,-1.08201 0,0 0,0 0,0 3.4365,-3.82432 5.5172,-8.12551 6.121,-13.03447 0,0 0,-10e-6 0,-10e-6 0.052,-0.44754 0.09,-0.89817 0.1137,-1.35192 0.1334,-5.14441 -1.5566,-9.85682 -4.4321,-14.33017 1.5119,4.47348 1.9167,9.35392 0.3809,14.85539 0,0 0,0 0,0 -0.1509,0.48713 -0.3165,0.97122 -0.4971,1.45206 0,0 0,0 0,0 -2.0863,5.31143 -5.5694,9.79477 -10.3579,13.62365 0,0 0,10e-6 0,10e-6 -0.4615,0.36089 -0.9294,0.71482 -1.4042,1.06347 0,0 0,0 0,0 -5.6269,4.5056 -12.2544,8.85088 -19.1227,15.33756 -3.3965,0.56347 -6.8347,1.14553 -10.2435,1.72726 3.1444,-6.16123 6.2586,-10.81679 7.5962,-14.44789 0,0 0,0 0,0 0.1439,-0.28705 0.2836,-0.57801 0.4194,-0.87482 0,0 0,0 0,0 1.4942,-3.21254 2.0688,-7.28704 1.3875,-12.93985 0,0 0,0 0,0 -0.064,-0.53211 -0.1444,-1.07508 -0.2406,-1.62887 0,0 0,0 0,0 -1.4528,-6.33189 -5.0793,-12.17904 -10.2939,-17.61488 3.8296,5.48716 6.1432,11.43623 6.1767,17.95759 0,0 0,0 0,0 -0.028,0.57235 -0.073,1.13406 -0.1348,1.68514 0,0 0,0 0,0 -0.7401,5.92133 -2.6978,10.11142 -5.5722,13.51414 0,0 0,0 0,0 -0.2694,0.31235 -0.5413,0.61858 -0.8165,0.92138 0,0 0,0 0,0 -0.135,0.18053 -0.2737,0.36351 -0.416,0.54908 -3.3157,4.0023 -7.5883,8.48521 -12.4319,15.33531 -5.4346,0.93053 -10.7066,1.82562 -16.105,2.71906 5.2627,-7.86016 9.4744,-12.49112 12.8549,-16.84261 0.2963,-0.31382 0.5902,-0.63003 0.883,-0.952 0,0 0,0 0,0 3.1269,-3.51468 5.4093,-7.7857 6.5049,-13.99331 0.092,-0.57629 0.1669,-1.1641 0.2243,-1.7634 0.2802,-7.30713 -2.2123,-13.86364 -6.3863,-19.82949 -0.1023,-0.14479 -0.205,-0.28922 -0.3081,-0.43329 0,0 0,0 0,0 -4.8364,-6.5937 -10.7878,-11.72206 -15.2467,-16.72421 6.5752,-0.0444 14.4557,-0.11781 21.1357,-0.13765 7.0258,5.2667 13.9628,9.66812 20.861,16.25675 0,0 0,0 0,0 0.1387,0.13492 0.277,0.27006 0.4147,0.40542 5.5211,5.52654 9.3889,11.44097 10.9116,17.8458 0,0 0,0 0,0 0.098,0.52478 0.181,1.03995 0.2487,1.54558 0,0 0,10e-6 0,10e-6 0.5886,4.37847 0.3281,7.90866 -0.6748,10.82017 z"
         style="font-style:normal;font-variant:normal;font-weight:900;font-stretch:normal;font-size:96px;font-family:Roboto;-inkscape-font-specification:'Roboto Heavy'"
         id="path962"
         inkscape:original-d="m -1095.668,481.18999 15.2344,-47.48438 h 21.6094 v 68.25 h -16.5 v -15.9375 l 1.5937,-32.625 -16.5,48.5625 h -10.875 l -16.5,-48.5625 1.5938,32.625 v 15.9375 h -16.4531 v -68.25 h 21.5625 z"
         inkscape:connector-curvature="0"
         sodipodi:nodetypes="cccccccccccccccc" />
    </g>
    <path
       style="opacity:1;vector-effect:none;fill:none;fill-opacity:1;stroke:#000000;stroke-width:1.5;stroke-linecap:butt;stroke-linejoin:miter;stroke-miterlimit:4;stroke-dasharray:none;stroke-dashoffset:0;stroke-opacity:1"
       d="m 39.052944,245.54215 -6.015926,12.28642 11.498836,-6.5001"
       id="path1001"
       inkscape:connector-curvature="0"
       sodipodi:nodetypes="ccc" />
    <path
       style="opacity:1;vector-effect:none;fill:none;fill-opacity:1;stroke:#000000;stroke-width:1.5;stroke-linecap:butt;stroke-linejoin:miter;stroke-miterlimit:4;stroke-dasharray:none;stroke-dashoffset:0;stroke-opacity:1"
       d="m 106.08691,174.90726 -6.01592,12.28642 11.49883,-6.5001"
       id="path1001-6"
       inkscape:connector-curvature="0"
       sodipodi:nodetypes="ccc" />
    <ellipse
       style="fill:none;stroke:none;stroke-width:100;stroke-miterlimit:4;stroke-dasharray:none"
       id="path1022"
       cx="143.37624"
       cy="209.44017"
       rx="7.2495337"
       ry="4.732976" />
    <circle
       style="opacity:1;fill:none;stroke:#000000;stroke-width:0.59506142;stroke-miterlimit:4;stroke-dasharray:none;stroke-dashoffset:0;stroke-opacity:1"
       id="path4561-8"
       cx="137.16652"
       cy="210.60564"
       r="1.2378567" />
    <circle
       style="opacity:1;fill:none;stroke:#000000;stroke-width:0.59506142;stroke-miterlimit:4;stroke-dasharray:none;stroke-dashoffset:0;stroke-opacity:0.98630138"
       id="path4561-8-7"
       cx="142.88043"
       cy="226.53932"
       r="1.2378567" />
    <circle
       style="opacity:1;fill:none;stroke:#000000;stroke-width:0.59506142;stroke-miterlimit:4;stroke-dasharray:none;stroke-dashoffset:0;stroke-opacity:1"
       id="path4561-8-7-8"
       cx="142.61922"
       cy="230.91454"
       r="1.2378567" />
    <circle
       style="opacity:1;fill:none;stroke:#000000;stroke-width:0.59506142;stroke-miterlimit:4;stroke-dasharray:none;stroke-dashoffset:0;stroke-opacity:1"
       id="path4561-8-7-8-5"
       cx="142.0968"
       cy="234.96326"
       r="1.2378567" />
    <circle
       style="opacity:1;fill:none;stroke:#000000;stroke-width:0.59506142;stroke-miterlimit:4;stroke-dasharray:none;stroke-dashoffset:0;stroke-opacity:1"
       id="path4561-8-7-8-5-9"
       cx="140.52956"
       cy="254.2926"
       r="1.2378567" />
    <circle
       style="opacity:1;fill:none;stroke:#000000;stroke-width:0.59506142;stroke-miterlimit:4;stroke-dasharray:none;stroke-dashoffset:0;stroke-opacity:1"
       id="path4561-8-7-8-5-9-8"
       cx="142.39066"
       cy="277.34415"
       r="1.2378567" />
    <circle
       style="opacity:1;fill:none;stroke:#000000;stroke-width:0.59506142;stroke-miterlimit:4;stroke-dasharray:none;stroke-dashoffset:0;stroke-opacity:1"
       id="path4561-8-7-8-5-9-8-3"
       cx="132.9872"
       cy="290.04535"
       r="1.2378567" />
    <circle
       style="opacity:1;fill:none;stroke:#000000;stroke-width:0.59506142;stroke-miterlimit:4;stroke-dasharray:none;stroke-dashoffset:0;stroke-opacity:1"
       id="path4561-8-7-8-5-9-8-3-6"
       cx="118.58814"
       cy="289.29437"
       r="1.2378567" />
    <circle
       style="opacity:1;fill:none;stroke:#000000;stroke-width:0.59506142;stroke-miterlimit:4;stroke-dasharray:none;stroke-dashoffset:0;stroke-opacity:1"
       id="path4561-8-7-8-5-9-8-3-6-4"
       cx="105.07066"
       cy="289.00052"
       r="1.2378567" />
    <circle
       style="opacity:1;fill:none;stroke:#000000;stroke-width:0.59506142;stroke-miterlimit:4;stroke-dasharray:none;stroke-dashoffset:0;stroke-opacity:1"
       id="path4561-8-7-8-5-9-8-3-6-4-7"
       cx="91.618477"
       cy="289.19641"
       r="1.2378567" />
    <circle
       style="opacity:1;fill:none;stroke:#000000;stroke-width:0.59506142;stroke-miterlimit:4;stroke-dasharray:none;stroke-dashoffset:0;stroke-opacity:1"
       id="path4561-8-7-8-5-9-8-3-6-4-7-1"
       cx="71.73407"
       cy="288.31485"
       r="1.2378567" />
    <circle
       style="opacity:1;fill:none;stroke:#000000;stroke-width:0.59506142;stroke-miterlimit:4;stroke-dasharray:none;stroke-dashoffset:0;stroke-opacity:1"
       id="path4561-8-7-8-5-9-8-3-6-4-7-1-5"
       cx="66.771133"
       cy="288.64136"
       r="1.2378567" />
    <circle
       style="opacity:1;fill:none;stroke:#000000;stroke-width:0.59506142;stroke-miterlimit:4;stroke-dasharray:none;stroke-dashoffset:0;stroke-opacity:1"
       id="path4561-8-7-8-5-9-8-3-6-4-7-1-5-9"
       cx="60.04504"
       cy="288.86993"
       r="1.2378567" />
    <circle
       style="opacity:1;fill:none;stroke:#000000;stroke-width:0.59506142;stroke-miterlimit:4;stroke-dasharray:none;stroke-dashoffset:0;stroke-opacity:1"
       id="path4561-8-7-8-5-9-8-3-6-4-7-1-5-9-4"
       cx="54.820892"
       cy="289.00052"
       r="1.2378567" />
    <circle
       style="opacity:1;fill:none;stroke:#000000;stroke-width:0.59506142;stroke-miterlimit:4;stroke-dasharray:none;stroke-dashoffset:0;stroke-opacity:1"
       id="path4561-8-7-8-5-9-8-3-6-4-7-1-5-9-4-4"
       cx="50.641575"
       cy="287.66183"
       r="1.2378567" />
    <circle
       style="opacity:1;fill:none;stroke:#000000;stroke-width:0.59506142;stroke-miterlimit:4;stroke-dasharray:none;stroke-dashoffset:0;stroke-opacity:1"
       id="path4561-8-7-8-5-9-8-3-6-4-7-1-5-9-4-4-2"
       cx="28.90749"
       cy="287.7305"
       r="1.2378567" />
    <path
       style="opacity:1;vector-effect:none;fill:none;fill-opacity:1;stroke:#000000;stroke-width:1;stroke-linecap:butt;stroke-linejoin:miter;stroke-miterlimit:4;stroke-dasharray:none;stroke-dashoffset:0;stroke-opacity:1"
       d="m 118.06573,198.78602 3.62425,-4.47316"
       id="path1286"
       inkscape:connector-curvature="0" />
  </g>
</svg>
