%
M48
M72
T01C0.0100
T02C0.0197
T03C0.0320
T04C0.0394
T05C0.0520
%
T01
X505Y6480
T02
X4605Y2880
X6305Y3630
X7555Y2530
X10255Y4580
X9705Y5530
X8255Y6780
X7355Y6680
X6655Y6680
X5005Y7030
X5005Y7980
X5705Y8130
X6605Y8680
X7755Y9880
X7255Y10880
X4755Y9230
X10255Y10880
X4605Y5380
T03
X9755Y6480
X10755Y6480
T04
X9805Y3230
X9805Y2230
T05
X12155Y4480
X13855Y4480
X14055Y6480
X11955Y6480
X12155Y8480
X13855Y8480
M30
