%
M48
M72
T01C0.03600
T02C0.04724
T03C0.05512
T04C0.11000
%
T01
X1553800Y356300
X1563800Y356300
X1563800Y346300
X1553800Y346300
X1553800Y336300
X1563800Y336300
X1563800Y326300
X1553800Y326300
X1553800Y316300
X1563800Y316300
X1563800Y306300
X1553800Y306300
X1553800Y296300
X1563800Y296300
X1563800Y286300
X1553800Y286300
X1553800Y276300
X1563800Y276300
X1563800Y266300
X1553800Y266300
X1553800Y256300
X1563800Y256300
X1563800Y246300
X1553800Y246300
X1553800Y236300
X1563800Y236300
X1563800Y226300
X1553800Y226300
X1553800Y216300
X1563800Y216300
X1563800Y206300
X1553800Y206300
X1553800Y196300
X1563800Y196300
X1563800Y186300
X1553800Y186300
X1553800Y176300
X1563800Y176300
X1563800Y166300
X1553800Y166300
X1553800Y156300
X1563800Y156300
X1563800Y146300
X1553800Y146300
X1553800Y136300
X1563800Y136300
X1563800Y126300
X1553800Y126300
X1553800Y116300
X1563800Y116300
X1563800Y106300
X1553800Y106300
X1553800Y96300
X1563800Y96300
X1563800Y86300
X1553800Y86300
X1553800Y76300
X1563800Y76300
X1563800Y66300
X1553800Y66300
X1553800Y56300
X1563800Y56300
X1563800Y46300
X1553800Y46300
X1483800Y46300
X1473800Y46300
X1473800Y56300
X1483800Y56300
X1483800Y66300
X1473800Y66300
X1473800Y76300
X1483800Y76300
X1483800Y86300
X1473800Y86300
X1473800Y96300
X1483800Y96300
X1483800Y106300
X1473800Y106300
X1473800Y116300
X1483800Y116300
X1483800Y126300
X1473800Y126300
X1473800Y136300
X1483800Y136300
X1483800Y146300
X1473800Y146300
X1473800Y156300
X1483800Y156300
X1483800Y166300
X1473800Y166300
X1473800Y176300
X1483800Y176300
X1483800Y186300
X1473800Y186300
X1473800Y196300
X1483800Y196300
X1483800Y206300
X1473800Y206300
X1473800Y216300
X1483800Y216300
X1483800Y226300
X1473800Y226300
X1473800Y236300
X1483800Y236300
X1483800Y246300
X1473800Y246300
X1473800Y256300
X1483800Y256300
X1483800Y266300
X1473800Y266300
X1473800Y276300
X1483800Y276300
X1483800Y286300
X1473800Y286300
X1473800Y296300
X1483800Y296300
X1483800Y306300
X1473800Y306300
X1473800Y316300
X1483800Y316300
X1483800Y326300
X1473800Y326300
X1473800Y336300
X1483800Y336300
X1483800Y346300
X1473800Y346300
X1473800Y356300
X1483800Y356300
X1403800Y356300
X1393800Y356300
X1393800Y346300
X1403800Y346300
X1403800Y336300
X1393800Y336300
X1393800Y326300
X1403800Y326300
X1403800Y316300
X1393800Y316300
X1393800Y306300
X1403800Y306300
X1403800Y296300
X1393800Y296300
X1393800Y286300
X1403800Y286300
X1403800Y276300
X1393800Y276300
X1393800Y266300
X1403800Y266300
X1403800Y256300
X1393800Y256300
X1393800Y246300
X1403800Y246300
X1403800Y236300
X1393800Y236300
X1393800Y226300
X1403800Y226300
X1403800Y216300
X1393800Y216300
X1393800Y206300
X1403800Y206300
X1403800Y196300
X1393800Y196300
X1393800Y186300
X1403800Y186300
X1403800Y176300
X1393800Y176300
X1393800Y166300
X1403800Y166300
X1403800Y156300
X1393800Y156300
X1393800Y146300
X1403800Y146300
X1403800Y136300
X1393800Y136300
X1393800Y126300
X1403800Y126300
X1403800Y116300
X1393800Y116300
X1393800Y106300
X1403800Y106300
X1403800Y96300
X1393800Y96300
X1393800Y86300
X1403800Y86300
X1403800Y76300
X1393800Y76300
X1393800Y66300
X1403800Y66300
X1403800Y56300
X1393800Y56300
X1393800Y46300
X1403800Y46300
X1323800Y46300
X1313800Y46300
X1313800Y56300
X1323800Y56300
X1323800Y66300
X1313800Y66300
X1313800Y76300
X1323800Y76300
X1323800Y86300
X1313800Y86300
X1313800Y96300
X1323800Y96300
X1323800Y106300
X1313800Y106300
X1313800Y116300
X1323800Y116300
X1323800Y126300
X1313800Y126300
X1313800Y136300
X1323800Y136300
X1323800Y146300
X1313800Y146300
X1313800Y156300
X1323800Y156300
X1323800Y166300
X1313800Y166300
X1313800Y176300
X1323800Y176300
X1323800Y186300
X1313800Y186300
X1313800Y196300
X1323800Y196300
X1323800Y206300
X1313800Y206300
X1313800Y216300
X1323800Y216300
X1323800Y226300
X1313800Y226300
X1313800Y236300
X1323800Y236300
X1323800Y246300
X1313800Y246300
X1313800Y256300
X1323800Y256300
X1323800Y266300
X1313800Y266300
X1313800Y276300
X1323800Y276300
X1323800Y286300
X1313800Y286300
X1313800Y296300
X1323800Y296300
X1323800Y306300
X1313800Y306300
X1313800Y316300
X1323800Y316300
X1323800Y326300
X1313800Y326300
X1313800Y336300
X1323800Y336300
X1323800Y346300
X1313800Y346300
X1313800Y356300
X1323800Y356300
X1243800Y356300
X1233800Y356300
X1233800Y346300
X1243800Y346300
X1243800Y336300
X1233800Y336300
X1233800Y326300
X1243800Y326300
X1243800Y316300
X1233800Y316300
X1233800Y306300
X1243800Y306300
X1243800Y296300
X1233800Y296300
X1233800Y286300
X1243800Y286300
X1243800Y276300
X1233800Y276300
X1233800Y266300
X1243800Y266300
X1243800Y256300
X1233800Y256300
X1233800Y246300
X1243800Y246300
X1243800Y236300
X1233800Y236300
X1233800Y226300
X1243800Y226300
X1243800Y216300
X1233800Y216300
X1233800Y206300
X1243800Y206300
X1243800Y196300
X1233800Y196300
X1233800Y186300
X1243800Y186300
X1243800Y176300
X1233800Y176300
X1233800Y166300
X1243800Y166300
X1243800Y156300
X1233800Y156300
X1233800Y146300
X1243800Y146300
X1243800Y136300
X1233800Y136300
X1233800Y126300
X1243800Y126300
X1243800Y116300
X1233800Y116300
X1233800Y106300
X1243800Y106300
X1243800Y96300
X1233800Y96300
X1233800Y86300
X1243800Y86300
X1243800Y76300
X1233800Y76300
X1233800Y66300
X1243800Y66300
X1243800Y56300
X1233800Y56300
X1233800Y46300
X1243800Y46300
X1163800Y46300
X1153800Y46300
X1153800Y56300
X1163800Y56300
X1163800Y66300
X1153800Y66300
X1153800Y76300
X1163800Y76300
X1163800Y86300
X1153800Y86300
X1153800Y96300
X1163800Y96300
X1163800Y106300
X1153800Y106300
X1153800Y116300
X1163800Y116300
X1163800Y126300
X1153800Y126300
X1153800Y136300
X1163800Y136300
X1163800Y146300
X1153800Y146300
X1153800Y156300
X1163800Y156300
X1163800Y166300
X1153800Y166300
X1153800Y176300
X1163800Y176300
X1163800Y186300
X1153800Y186300
X1153800Y196300
X1163800Y196300
X1163800Y206300
X1153800Y206300
X1153800Y216300
X1163800Y216300
X1163800Y226300
X1153800Y226300
X1153800Y236300
X1163800Y236300
X1163800Y246300
X1153800Y246300
X1153800Y256300
X1163800Y256300
X1163800Y266300
X1153800Y266300
X1153800Y276300
X1163800Y276300
X1163800Y286300
X1153800Y286300
X1153800Y296300
X1163800Y296300
X1163800Y306300
X1153800Y306300
X1153800Y316300
X1163800Y316300
X1163800Y326300
X1153800Y326300
X1153800Y336300
X1163800Y336300
X1163800Y346300
X1153800Y346300
X1153800Y356300
X1163800Y356300
X1083800Y356300
X1073800Y356300
X1073800Y346300
X1083800Y346300
X1083800Y336300
X1073800Y336300
X1073800Y326300
X1083800Y326300
X1083800Y316300
X1073800Y316300
X1073800Y306300
X1083800Y306300
X1083800Y296300
X1073800Y296300
X1073800Y286300
X1083800Y286300
X1083800Y276300
X1073800Y276300
X1073800Y266300
X1083800Y266300
X1083800Y256300
X1073800Y256300
X1073800Y246300
X1083800Y246300
X1083800Y236300
X1073800Y236300
X1073800Y226300
X1083800Y226300
X1083800Y216300
X1073800Y216300
X1073800Y206300
X1083800Y206300
X1083800Y196300
X1073800Y196300
X1073800Y186300
X1083800Y186300
X1083800Y176300
X1073800Y176300
X1073800Y166300
X1083800Y166300
X1083800Y156300
X1073800Y156300
X1073800Y146300
X1083800Y146300
X1083800Y136300
X1073800Y136300
X1073800Y126300
X1083800Y126300
X1083800Y116300
X1073800Y116300
X1073800Y106300
X1083800Y106300
X1083800Y96300
X1073800Y96300
X1073800Y86300
X1083800Y86300
X1083800Y76300
X1073800Y76300
X1073800Y66300
X1083800Y66300
X1083800Y56300
X1073800Y56300
X1073800Y46300
X1083800Y46300
X1003800Y46300
X993800Y46300
X993800Y56300
X1003800Y56300
X1003800Y66300
X993800Y66300
X993800Y76300
X1003800Y76300
X1003800Y86300
X993800Y86300
X993800Y96300
X1003800Y96300
X1003800Y106300
X993800Y106300
X993800Y116300
X1003800Y116300
X1003800Y126300
X993800Y126300
X993800Y136300
X1003800Y136300
X1003800Y146300
X993800Y146300
X993800Y156300
X1003800Y156300
X1003800Y166300
X993800Y166300
X993800Y176300
X1003800Y176300
X1003800Y186300
X993800Y186300
X993800Y196300
X1003800Y196300
X1003800Y206300
X993800Y206300
X993800Y216300
X1003800Y216300
X1003800Y226300
X993800Y226300
X993800Y236300
X1003800Y236300
X1003800Y246300
X993800Y246300
X993800Y256300
X1003800Y256300
X1003800Y266300
X993800Y266300
X993800Y276300
X1003800Y276300
X1003800Y286300
X993800Y286300
X993800Y296300
X1003800Y296300
X1003800Y306300
X993800Y306300
X993800Y316300
X1003800Y316300
X1003800Y326300
X993800Y326300
X993800Y336300
X1003800Y336300
X1003800Y346300
X993800Y346300
X993800Y356300
X1003800Y356300
X923800Y356300
X913800Y356300
X913800Y346300
X923800Y346300
X923800Y336300
X913800Y336300
X913800Y326300
X923800Y326300
X923800Y316300
X913800Y316300
X913800Y306300
X923800Y306300
X923800Y296300
X913800Y296300
X913800Y286300
X923800Y286300
X923800Y276300
X913800Y276300
X913800Y266300
X923800Y266300
X923800Y256300
X913800Y256300
X913800Y246300
X923800Y246300
X923800Y236300
X913800Y236300
X913800Y226300
X923800Y226300
X923800Y216300
X913800Y216300
X913800Y206300
X923800Y206300
X923800Y196300
X913800Y196300
X913800Y186300
X923800Y186300
X923800Y176300
X913800Y176300
X913800Y166300
X923800Y166300
X923800Y156300
X913800Y156300
X913800Y146300
X923800Y146300
X923800Y136300
X913800Y136300
X913800Y126300
X923800Y126300
X923800Y116300
X913800Y116300
X913800Y106300
X923800Y106300
X923800Y96300
X913800Y96300
X913800Y86300
X923800Y86300
X923800Y76300
X913800Y76300
X913800Y66300
X923800Y66300
X923800Y56300
X913800Y56300
X913800Y46300
X923800Y46300
X843800Y46300
X833800Y46300
X833800Y56300
X843800Y56300
X843800Y66300
X833800Y66300
X833800Y76300
X843800Y76300
X843800Y86300
X833800Y86300
X833800Y96300
X843800Y96300
X843800Y106300
X833800Y106300
X833800Y116300
X843800Y116300
X843800Y126300
X833800Y126300
X833800Y136300
X843800Y136300
X843800Y146300
X833800Y146300
X833800Y156300
X843800Y156300
X843800Y166300
X833800Y166300
X833800Y176300
X843800Y176300
X843800Y186300
X833800Y186300
X833800Y196300
X843800Y196300
X843800Y206300
X833800Y206300
X833800Y216300
X843800Y216300
X843800Y226300
X833800Y226300
X833800Y236300
X843800Y236300
X843800Y246300
X833800Y246300
X833800Y256300
X843800Y256300
X843800Y266300
X833800Y266300
X833800Y276300
X843800Y276300
X843800Y286300
X833800Y286300
X833800Y296300
X843800Y296300
X843800Y306300
X833800Y306300
X833800Y316300
X843800Y316300
X843800Y326300
X833800Y326300
X833800Y336300
X843800Y336300
X843800Y346300
X833800Y346300
X833800Y356300
X843800Y356300
X763800Y356300
X753800Y356300
X753800Y346300
X763800Y346300
X763800Y336300
X753800Y336300
X753800Y326300
X763800Y326300
X763800Y316300
X753800Y316300
X753800Y306300
X763800Y306300
X763800Y296300
X753800Y296300
X753800Y286300
X763800Y286300
X763800Y276300
X753800Y276300
X753800Y266300
X763800Y266300
X763800Y256300
X753800Y256300
X753800Y246300
X763800Y246300
X763800Y236300
X753800Y236300
X753800Y226300
X763800Y226300
X763800Y216300
X753800Y216300
X753800Y206300
X763800Y206300
X763800Y196300
X753800Y196300
X753800Y186300
X763800Y186300
X763800Y176300
X753800Y176300
X753800Y166300
X763800Y166300
X763800Y156300
X753800Y156300
X753800Y146300
X763800Y146300
X763800Y136300
X753800Y136300
X753800Y126300
X763800Y126300
X763800Y116300
X753800Y116300
X753800Y106300
X763800Y106300
X763800Y96300
X753800Y96300
X753800Y86300
X763800Y86300
X763800Y76300
X753800Y76300
X753800Y66300
X763800Y66300
X763800Y56300
X753800Y56300
X753800Y46300
X763800Y46300
X683800Y46300
X673800Y46300
X673800Y56300
X683800Y56300
X683800Y66300
X673800Y66300
X673800Y76300
X683800Y76300
X683800Y86300
X673800Y86300
X673800Y96300
X683800Y96300
X683800Y106300
X673800Y106300
X673800Y116300
X683800Y116300
X683800Y126300
X673800Y126300
X673800Y136300
X683800Y136300
X683800Y146300
X673800Y146300
X673800Y156300
X683800Y156300
X683800Y166300
X673800Y166300
X673800Y176300
X683800Y176300
X683800Y186300
X673800Y186300
X673800Y196300
X683800Y196300
X683800Y206300
X673800Y206300
X673800Y216300
X683800Y216300
X683800Y226300
X673800Y226300
X673800Y236300
X683800Y236300
X683800Y246300
X673800Y246300
X673800Y256300
X683800Y256300
X683800Y266300
X673800Y266300
X673800Y276300
X683800Y276300
X683800Y286300
X673800Y286300
X673800Y296300
X683800Y296300
X683800Y306300
X673800Y306300
X673800Y316300
X683800Y316300
X683800Y326300
X673800Y326300
X673800Y336300
X683800Y336300
X683800Y346300
X673800Y346300
X673800Y356300
X683800Y356300
X603800Y356300
X593800Y356300
X593800Y346300
X603800Y346300
X603800Y336300
X593800Y336300
X593800Y326300
X603800Y326300
X603800Y316300
X593800Y316300
X593800Y306300
X603800Y306300
X603800Y296300
X593800Y296300
X593800Y286300
X603800Y286300
X603800Y276300
X593800Y276300
X593800Y266300
X603800Y266300
X603800Y256300
X593800Y256300
X593800Y246300
X603800Y246300
X603800Y236300
X593800Y236300
X593800Y226300
X603800Y226300
X603800Y216300
X593800Y216300
X593800Y206300
X603800Y206300
X603800Y196300
X593800Y196300
X593800Y186300
X603800Y186300
X603800Y176300
X593800Y176300
X593800Y166300
X603800Y166300
X603800Y156300
X593800Y156300
X593800Y146300
X603800Y146300
X603800Y136300
X593800Y136300
X593800Y126300
X603800Y126300
X603800Y116300
X593800Y116300
X593800Y106300
X603800Y106300
X603800Y96300
X593800Y96300
X593800Y86300
X603800Y86300
X603800Y76300
X593800Y76300
X593800Y66300
X603800Y66300
X603800Y56300
X593800Y56300
X593800Y46300
X603800Y46300
X523800Y46300
X513800Y46300
X513800Y56300
X523800Y56300
X523800Y66300
X513800Y66300
X513800Y76300
X523800Y76300
X523800Y86300
X513800Y86300
X513800Y96300
X523800Y96300
X523800Y106300
X513800Y106300
X513800Y116300
X523800Y116300
X523800Y126300
X513800Y126300
X513800Y136300
X523800Y136300
X523800Y146300
X513800Y146300
X513800Y156300
X523800Y156300
X523800Y166300
X513800Y166300
X513800Y176300
X523800Y176300
X523800Y186300
X513800Y186300
X513800Y196300
X523800Y196300
X523800Y206300
X513800Y206300
X513800Y216300
X523800Y216300
X523800Y226300
X513800Y226300
X513800Y236300
X523800Y236300
X523800Y246300
X513800Y246300
X513800Y256300
X523800Y256300
X523800Y266300
X513800Y266300
X513800Y276300
X523800Y276300
X523800Y286300
X513800Y286300
X513800Y296300
X523800Y296300
X523800Y306300
X513800Y306300
X513800Y316300
X523800Y316300
X523800Y326300
X513800Y326300
X513800Y336300
X523800Y336300
X523800Y346300
X513800Y346300
X513800Y356300
X523800Y356300
X443800Y356300
X433800Y356300
X433800Y346300
X443800Y346300
X443800Y336300
X433800Y336300
X433800Y326300
X443800Y326300
X443800Y316300
X433800Y316300
X433800Y306300
X443800Y306300
X443800Y296300
X433800Y296300
X433800Y286300
X443800Y286300
X443800Y276300
X433800Y276300
X433800Y266300
X443800Y266300
X443800Y256300
X433800Y256300
X433800Y246300
X443800Y246300
X443800Y236300
X433800Y236300
X433800Y226300
X443800Y226300
X443800Y216300
X433800Y216300
X433800Y206300
X443800Y206300
X443800Y196300
X433800Y196300
X433800Y186300
X443800Y186300
X443800Y176300
X433800Y176300
X433800Y166300
X443800Y166300
X443800Y156300
X433800Y156300
X433800Y146300
X443800Y146300
X443800Y136300
X433800Y136300
X433800Y126300
X443800Y126300
X443800Y116300
X433800Y116300
X433800Y106300
X443800Y106300
X443800Y96300
X433800Y96300
X433800Y86300
X443800Y86300
X443800Y76300
X433800Y76300
X433800Y66300
X443800Y66300
X443800Y56300
X433800Y56300
X433800Y46300
X443800Y46300
X363800Y46300
X353800Y46300
X353800Y56300
X363800Y56300
X363800Y66300
X353800Y66300
X353800Y76300
X363800Y76300
X363800Y86300
X353800Y86300
X353800Y96300
X363800Y96300
X363800Y106300
X353800Y106300
X353800Y116300
X363800Y116300
X363800Y126300
X353800Y126300
X353800Y136300
X363800Y136300
X363800Y146300
X353800Y146300
X353800Y156300
X363800Y156300
X363800Y166300
X353800Y166300
X353800Y176300
X363800Y176300
X363800Y186300
X353800Y186300
X353800Y196300
X363800Y196300
X363800Y206300
X353800Y206300
X353800Y216300
X363800Y216300
X363800Y226300
X353800Y226300
X353800Y236300
X363800Y236300
X363800Y246300
X353800Y246300
X353800Y256300
X363800Y256300
X363800Y266300
X353800Y266300
X353800Y276300
X363800Y276300
X363800Y286300
X353800Y286300
X353800Y296300
X363800Y296300
X363800Y306300
X353800Y306300
X353800Y316300
X363800Y316300
X363800Y326300
X353800Y326300
X353800Y336300
X363800Y336300
X363800Y346300
X353800Y346300
X353800Y356300
X363800Y356300
X283800Y356300
X273800Y356300
X273800Y346300
X283800Y346300
X283800Y336300
X273800Y336300
X273800Y326300
X283800Y326300
X283800Y316300
X273800Y316300
X273800Y306300
X283800Y306300
X283800Y296300
X273800Y296300
X273800Y286300
X283800Y286300
X283800Y276300
X273800Y276300
X273800Y266300
X283800Y266300
X283800Y256300
X273800Y256300
X273800Y246300
X283800Y246300
X283800Y236300
X273800Y236300
X273800Y226300
X283800Y226300
X283800Y216300
X273800Y216300
X273800Y206300
X283800Y206300
X283800Y196300
X273800Y196300
X273800Y186300
X283800Y186300
X283800Y176300
X273800Y176300
X273800Y166300
X283800Y166300
X283800Y156300
X273800Y156300
X273800Y146300
X283800Y146300
X283800Y136300
X273800Y136300
X273800Y126300
X283800Y126300
X283800Y116300
X273800Y116300
X273800Y106300
X283800Y106300
X283800Y96300
X273800Y96300
X273800Y86300
X283800Y86300
X283800Y76300
X273800Y76300
X273800Y66300
X283800Y66300
X283800Y56300
X273800Y56300
X273800Y46300
X283800Y46300
X203800Y46300
X193800Y46300
X193800Y56300
X203800Y56300
X203800Y66300
X193800Y66300
X193800Y76300
X203800Y76300
X203800Y86300
X193800Y86300
X193800Y96300
X203800Y96300
X203800Y106300
X193800Y106300
X193800Y116300
X203800Y116300
X203800Y126300
X193800Y126300
X193800Y136300
X203800Y136300
X203800Y146300
X193800Y146300
X193800Y156300
X203800Y156300
X203800Y166300
X193800Y166300
X193800Y176300
X203800Y176300
X203800Y186300
X193800Y186300
X193800Y196300
X203800Y196300
X203800Y206300
X193800Y206300
X193800Y216300
X203800Y216300
X203800Y226300
X193800Y226300
X193800Y236300
X203800Y236300
X203800Y246300
X193800Y246300
X193800Y256300
X203800Y256300
X203800Y266300
X193800Y266300
X193800Y276300
X203800Y276300
X203800Y286300
X193800Y286300
X193800Y296300
X203800Y296300
X203800Y306300
X193800Y306300
X193800Y316300
X203800Y316300
X203800Y326300
X193800Y326300
X193800Y336300
X203800Y336300
X203800Y346300
X193800Y346300
X193800Y356300
X203800Y356300
X123800Y356300
X113800Y356300
X113800Y346300
X123800Y346300
X123800Y336300
X113800Y336300
X113800Y326300
X123800Y326300
X123800Y316300
X113800Y316300
X113800Y306300
X123800Y306300
X123800Y296300
X113800Y296300
X113800Y286300
X123800Y286300
X123800Y276300
X113800Y276300
X113800Y266300
X123800Y266300
X123800Y256300
X113800Y256300
X113800Y246300
X123800Y246300
X123800Y236300
X113800Y236300
X113800Y226300
X123800Y226300
X123800Y216300
X113800Y216300
X113800Y206300
X123800Y206300
X123800Y196300
X113800Y196300
X113800Y186300
X123800Y186300
X123800Y176300
X113800Y176300
X113800Y166300
X123800Y166300
X123800Y156300
X113800Y156300
X113800Y146300
X123800Y146300
X123800Y136300
X113800Y136300
X113800Y126300
X123800Y126300
X123800Y116300
X113800Y116300
X113800Y106300
X123800Y106300
X123800Y96300
X113800Y96300
X113800Y86300
X123800Y86300
X123800Y76300
X113800Y76300
X113800Y66300
X123800Y66300
X123800Y56300
X113800Y56300
X113800Y46300
X123800Y46300
X43800Y46300
X33800Y46300
X33800Y56300
X43800Y56300
X43800Y66300
X33800Y66300
X33800Y76300
X43800Y76300
X43800Y86300
X33800Y86300
X33800Y96300
X43800Y96300
X43800Y106300
X33800Y106300
X33800Y116300
X43800Y116300
X43800Y126300
X33800Y126300
X33800Y136300
X43800Y136300
X43800Y146300
X33800Y146300
X33800Y156300
X43800Y156300
X43800Y166300
X33800Y166300
X33800Y176300
X43800Y176300
X43800Y186300
X33800Y186300
X33800Y196300
X43800Y196300
X43800Y206300
X33800Y206300
X33800Y216300
X43800Y216300
X43800Y226300
X33800Y226300
X33800Y236300
X43800Y236300
X43800Y246300
X33800Y246300
X33800Y256300
X43800Y256300
X43800Y266300
X33800Y266300
X33800Y276300
X43800Y276300
X43800Y286300
X33800Y286300
X33800Y296300
X43800Y296300
X43800Y306300
X33800Y306300
X33800Y316300
X43800Y316300
X43800Y326300
X33800Y326300
X33800Y336300
X43800Y336300
X43800Y346300
X33800Y346300
X33800Y356300
X43800Y356300
T02
X1588800Y148957
X1588800Y168643
T03
X1588800Y211143
X1588800Y191457
T04
X42600Y24100
X122600Y24100
X202600Y24100
X282600Y24100
X362600Y24100
X442600Y24100
X522600Y24100
X602600Y24100
X682600Y24100
X762600Y24100
X842600Y24100
X922600Y24100
X1002600Y24100
X1082600Y24100
X1162600Y24100
X1242600Y24100
X1322600Y24100
X1402600Y24100
X1482600Y24100
X1562600Y24100
X1562600Y378500
X1482600Y378500
X1402600Y378500
X1322600Y378500
X1242600Y378500
X1162600Y378500
X1082600Y378500
X1002600Y378500
X922600Y378500
X842600Y378500
X762600Y378500
X682600Y378500
X602600Y378500
X522600Y378500
X442600Y378500
X362600Y378500
X282600Y378500
X202600Y378500
X122600Y378500
X42600Y378500
M30
