G75*
%MOIN*%
%OFA0B0*%
%FSLAX25Y25*%
%IPPOS*%
%LPD*%
%AMOC8*
5,1,8,0,0,1.08239X$1,22.5*
%
%ADD10C,0.06737*%
%ADD11C,0.06343*%
%ADD12C,0.08674*%
%ADD13C,0.03600*%
D10*
X0026500Y0118288D02*
X0026500Y0124225D01*
X0036500Y0124225D02*
X0036500Y0118288D01*
X0046500Y0118288D02*
X0046500Y0124225D01*
X0136500Y0121725D02*
X0136500Y0115788D01*
X0146500Y0115788D02*
X0146500Y0121725D01*
X0156500Y0121725D02*
X0156500Y0115788D01*
X0144000Y0343038D02*
X0144000Y0348975D01*
X0134000Y0348975D02*
X0134000Y0343038D01*
X0121500Y0343038D02*
X0121500Y0348975D01*
X0111500Y0348975D02*
X0111500Y0343038D01*
X0099000Y0343038D02*
X0099000Y0348975D01*
X0089000Y0348975D02*
X0089000Y0343038D01*
X0076500Y0343038D02*
X0076500Y0348975D01*
X0066500Y0348975D02*
X0066500Y0343038D01*
D11*
X0091500Y0133506D03*
X0101500Y0133506D03*
D12*
X0111500Y0113506D03*
X0071500Y0113506D03*
D13*
X0066500Y0182256D03*
X0076500Y0203506D03*
X0086500Y0182256D03*
X0091500Y0203506D03*
X0101500Y0182256D03*
X0117750Y0201756D03*
X0120250Y0232256D03*
X0126500Y0236006D03*
X0118000Y0274756D03*
X0102750Y0277256D03*
X0087750Y0277256D03*
X0082750Y0257256D03*
X0072750Y0274756D03*
X0064000Y0236006D03*
X0054000Y0216006D03*
X0050250Y0257506D03*
X0060250Y0312506D03*
X0095250Y0312506D03*
X0039000Y0166006D03*
M02*
