G75*
%MOIN*%
%OFA0B0*%
%FSLAX24Y24*%
%IPPOS*%
%LPD*%
%AMOC8*
5,1,8,0,0,1.08239X$1,22.5*
%
%ADD10C,0.0634*%
%ADD11C,0.0867*%
%ADD12R,0.0320X0.0950*%
%ADD13R,0.0316X0.0946*%
%ADD14R,0.0946X0.0316*%
%ADD15R,0.0480X0.0480*%
%ADD16R,0.1580X0.0880*%
%ADD17C,0.0680*%
%ADD18R,0.0631X0.0631*%
%ADD19R,0.0631X0.0474*%
%ADD20C,0.0640*%
%ADD21R,0.0880X0.1580*%
%ADD22C,0.0830*%
%ADD23C,0.1130*%
%ADD24C,0.0674*%
%ADD25R,0.0580X0.0659*%
%ADD26R,0.0595X0.0595*%
%ADD27C,0.0595*%
%ADD28C,0.1300*%
%ADD29R,0.1300X0.1300*%
%ADD30C,0.1261*%
%ADD31C,0.0437*%
D10*
X003671Y013375D03*
X004671Y013375D03*
X013671Y013375D03*
X014671Y013375D03*
D11*
X001671Y011375D03*
X005671Y011375D03*
X011671Y011375D03*
X015671Y011375D03*
D12*
X057796Y035595D03*
X058296Y035595D03*
X058796Y035595D03*
X059296Y035595D03*
X059296Y037655D03*
X058796Y037655D03*
X058296Y037655D03*
X057796Y037655D03*
X064546Y037655D03*
X065046Y037655D03*
X065546Y037655D03*
X066046Y037655D03*
X066046Y035595D03*
X065546Y035595D03*
X065046Y035595D03*
X064546Y035595D03*
D13*
X064421Y032649D03*
X064921Y032649D03*
X065421Y032649D03*
X065921Y032649D03*
X065921Y030601D03*
X065421Y030601D03*
X064921Y030601D03*
X064421Y030601D03*
X059171Y030851D03*
X058671Y030851D03*
X058171Y030851D03*
X057671Y030851D03*
X057671Y032899D03*
X058171Y032899D03*
X058671Y032899D03*
X059171Y032899D03*
X060796Y020899D03*
X061296Y020899D03*
X061796Y020899D03*
X062296Y020899D03*
X062296Y018851D03*
X061796Y018851D03*
X061296Y018851D03*
X060796Y018851D03*
X065921Y018851D03*
X066421Y018851D03*
X066921Y018851D03*
X067421Y018851D03*
X067421Y020899D03*
X066921Y020899D03*
X066421Y020899D03*
X065921Y020899D03*
X016921Y019399D03*
X016421Y019399D03*
X015921Y019399D03*
X015421Y019399D03*
X015421Y017351D03*
X015921Y017351D03*
X016421Y017351D03*
X016921Y017351D03*
X012421Y017351D03*
X011921Y017351D03*
X011421Y017351D03*
X010921Y017351D03*
X010921Y019399D03*
X011421Y019399D03*
X011921Y019399D03*
X012421Y019399D03*
X012671Y023101D03*
X013171Y023101D03*
X013671Y023101D03*
X014171Y023101D03*
X014171Y025149D03*
X013671Y025149D03*
X013171Y025149D03*
X012671Y025149D03*
X006921Y028351D03*
X006421Y028351D03*
X005921Y028351D03*
X005421Y028351D03*
X005421Y030399D03*
X005921Y030399D03*
X006421Y030399D03*
X006921Y030399D03*
X007921Y034351D03*
X008421Y034351D03*
X008921Y034351D03*
X009421Y034351D03*
X009421Y036399D03*
X008921Y036399D03*
X008421Y036399D03*
X007921Y036399D03*
X003921Y036399D03*
X003421Y036399D03*
X002921Y036399D03*
X002421Y036399D03*
X002421Y034351D03*
X002921Y034351D03*
X003421Y034351D03*
X003921Y034351D03*
X003671Y018449D03*
X003171Y018449D03*
X004171Y018449D03*
X004671Y018449D03*
X004671Y016401D03*
X004171Y016401D03*
X003671Y016401D03*
X003171Y016401D03*
D14*
X021648Y019125D03*
X021648Y019625D03*
X021648Y020125D03*
X021648Y020625D03*
X023695Y020625D03*
X023695Y020125D03*
X023695Y019625D03*
X023695Y019125D03*
X028648Y019125D03*
X028648Y019625D03*
X028648Y020125D03*
X028648Y020625D03*
X030695Y020625D03*
X030695Y020125D03*
X030695Y019625D03*
X030695Y019125D03*
X040398Y019125D03*
X040398Y019625D03*
X040398Y020125D03*
X040398Y020625D03*
X042445Y020625D03*
X042445Y020125D03*
X042445Y019625D03*
X042445Y019125D03*
X054648Y019125D03*
X054648Y019625D03*
X054648Y020125D03*
X054648Y020625D03*
X056695Y020625D03*
X056695Y020125D03*
X056695Y019625D03*
X056695Y019125D03*
D15*
X057571Y020125D03*
X058271Y020125D03*
X061296Y021900D03*
X062046Y021900D03*
X062046Y022600D03*
X061296Y022600D03*
X062046Y023375D03*
X062046Y024075D03*
X066421Y022600D03*
X067171Y022600D03*
X067171Y021900D03*
X066421Y021900D03*
X067171Y023375D03*
X067171Y024075D03*
X065421Y028900D03*
X065421Y029600D03*
X066696Y029625D03*
X067396Y029625D03*
X067396Y030600D03*
X066696Y030600D03*
X066671Y031275D03*
X066671Y031975D03*
X065546Y033775D03*
X065546Y034475D03*
X064796Y034475D03*
X064796Y033775D03*
X066696Y034875D03*
X067396Y034875D03*
X067396Y035600D03*
X066696Y035600D03*
X063896Y037875D03*
X063196Y037875D03*
X063196Y038625D03*
X063896Y038625D03*
X065546Y038650D03*
X065546Y039350D03*
X065171Y040025D03*
X065171Y040725D03*
X065921Y040725D03*
X065921Y040025D03*
X060771Y035625D03*
X060071Y035625D03*
X060071Y034875D03*
X060771Y034875D03*
X058796Y034475D03*
X058796Y033775D03*
X058046Y033775D03*
X058046Y034475D03*
X059796Y032250D03*
X059796Y031550D03*
X059821Y030875D03*
X060521Y030875D03*
X060196Y029850D03*
X060896Y029850D03*
X059421Y029850D03*
X058671Y029850D03*
X057921Y029850D03*
X057921Y029150D03*
X058671Y029150D03*
X059421Y029150D03*
X058671Y027975D03*
X058671Y027275D03*
X053771Y019125D03*
X053071Y019125D03*
X055671Y017725D03*
X055671Y017025D03*
X055671Y016225D03*
X055671Y015525D03*
X051046Y016275D03*
X051046Y016975D03*
X050296Y016975D03*
X050296Y016275D03*
X049546Y016275D03*
X049546Y016975D03*
X048796Y016975D03*
X048796Y016275D03*
X048071Y016275D03*
X048071Y016975D03*
X047296Y016975D03*
X047296Y016275D03*
X046546Y016275D03*
X046546Y016975D03*
X045796Y016975D03*
X045796Y016275D03*
X045046Y016275D03*
X045046Y016975D03*
X044296Y016975D03*
X044296Y016275D03*
X043546Y016275D03*
X043546Y016975D03*
X042771Y018125D03*
X042071Y018125D03*
X041421Y018125D03*
X040721Y018125D03*
X041421Y017225D03*
X041421Y016525D03*
X038796Y016275D03*
X038796Y016975D03*
X038046Y016975D03*
X038046Y016275D03*
X037296Y016275D03*
X037296Y016975D03*
X036546Y016975D03*
X036546Y016275D03*
X035796Y016275D03*
X035796Y016975D03*
X035046Y016975D03*
X035046Y016275D03*
X034296Y016275D03*
X034296Y016975D03*
X033546Y016975D03*
X033546Y016275D03*
X032796Y016275D03*
X032796Y016975D03*
X032046Y016975D03*
X032046Y016275D03*
X031296Y016275D03*
X031296Y016975D03*
X029421Y017225D03*
X029421Y017775D03*
X029421Y018475D03*
X027521Y018875D03*
X026821Y018875D03*
X026821Y019625D03*
X027521Y019625D03*
X025271Y020125D03*
X024571Y020125D03*
X020771Y019125D03*
X020071Y019125D03*
X019821Y020125D03*
X020521Y020125D03*
X020521Y020875D03*
X019821Y020875D03*
X018421Y018725D03*
X018421Y018025D03*
X017671Y018025D03*
X017671Y018725D03*
X016271Y020375D03*
X015571Y020375D03*
X015221Y021125D03*
X015921Y021125D03*
X015921Y021875D03*
X015221Y021875D03*
X014171Y021525D03*
X014171Y022225D03*
X014921Y023150D03*
X014921Y023850D03*
X014921Y024525D03*
X014921Y025225D03*
X013171Y026025D03*
X013171Y026725D03*
X011671Y025225D03*
X011671Y024525D03*
X011671Y023875D03*
X011671Y023175D03*
X011421Y021875D03*
X010721Y021875D03*
X010721Y021125D03*
X011421Y021125D03*
X011071Y020375D03*
X011771Y020375D03*
X013171Y018725D03*
X013171Y018025D03*
X013921Y018025D03*
X013921Y018725D03*
X014671Y018725D03*
X014671Y018025D03*
X013771Y016875D03*
X013071Y016875D03*
X013071Y016125D03*
X013771Y016125D03*
X013671Y015225D03*
X012896Y015225D03*
X012196Y015225D03*
X012196Y014500D03*
X012896Y014500D03*
X013671Y014525D03*
X014671Y014525D03*
X015446Y014500D03*
X016146Y014500D03*
X016146Y015225D03*
X015446Y015225D03*
X014671Y015225D03*
X016921Y015775D03*
X016921Y016475D03*
X017671Y016475D03*
X017671Y015775D03*
X022671Y015525D03*
X022671Y016225D03*
X029421Y016525D03*
X031821Y020125D03*
X032521Y020125D03*
X038571Y020375D03*
X039271Y020375D03*
X039271Y019625D03*
X038571Y019625D03*
X038571Y018875D03*
X039271Y018875D03*
X043571Y020125D03*
X044271Y020125D03*
X059921Y011625D03*
X059921Y010925D03*
X063296Y010775D03*
X063296Y011475D03*
X064046Y010100D03*
X064046Y009400D03*
X068171Y010925D03*
X068171Y011625D03*
X067421Y017150D03*
X067421Y017850D03*
X062296Y017850D03*
X062296Y017150D03*
X057146Y037875D03*
X056446Y037875D03*
X056446Y038625D03*
X057146Y038625D03*
X058796Y038650D03*
X058796Y039350D03*
X058421Y040025D03*
X058421Y040725D03*
X059171Y040725D03*
X059171Y040025D03*
X016421Y044400D03*
X016421Y045100D03*
X016421Y045675D03*
X016421Y046375D03*
X015171Y044725D03*
X014471Y044725D03*
X013871Y044725D03*
X013171Y044725D03*
X013171Y044000D03*
X013871Y044000D03*
X014471Y044000D03*
X015171Y044000D03*
X011921Y044350D03*
X011921Y045050D03*
X011921Y045675D03*
X011921Y046375D03*
X009521Y046375D03*
X008821Y046375D03*
X003521Y046375D03*
X002821Y046375D03*
X004821Y040125D03*
X005521Y040125D03*
X005521Y039375D03*
X004821Y039375D03*
X004821Y038625D03*
X005521Y038625D03*
X005821Y037625D03*
X006521Y037625D03*
X006821Y038625D03*
X007521Y038625D03*
X007521Y039375D03*
X006821Y039375D03*
X006821Y040125D03*
X007521Y040125D03*
X007321Y036375D03*
X006621Y036375D03*
X006621Y035625D03*
X007321Y035625D03*
X005421Y035725D03*
X004671Y035725D03*
X004671Y035025D03*
X005421Y035025D03*
X003771Y033375D03*
X003071Y033375D03*
X003421Y032625D03*
X004121Y032625D03*
X004121Y031875D03*
X003421Y031875D03*
X005421Y031975D03*
X005421Y031275D03*
X004671Y030225D03*
X004671Y029525D03*
X004671Y028725D03*
X004671Y028025D03*
X006421Y027475D03*
X006421Y026775D03*
X008171Y028025D03*
X008171Y028725D03*
X008171Y029525D03*
X008171Y030225D03*
X008921Y031825D03*
X009621Y031825D03*
X009621Y032625D03*
X008921Y032625D03*
X008571Y033375D03*
X009271Y033375D03*
X010171Y035025D03*
X010871Y035025D03*
X010871Y035725D03*
X010171Y035725D03*
X001771Y035625D03*
X001071Y035625D03*
X001071Y036375D03*
X001771Y036375D03*
X002921Y020275D03*
X002921Y019575D03*
X003671Y019575D03*
X003671Y020275D03*
X003671Y015275D03*
X004421Y015275D03*
X004421Y014575D03*
X003671Y014575D03*
D16*
X014921Y027125D03*
X014921Y028375D03*
D17*
X030171Y014925D02*
X030171Y014325D01*
X029171Y011925D02*
X029171Y011325D01*
X030171Y009925D02*
X030171Y009325D01*
X041421Y011325D02*
X041421Y011925D01*
X042421Y009925D02*
X042421Y009325D01*
X042421Y014325D02*
X042421Y014925D01*
X053671Y011925D02*
X053671Y011325D01*
X054671Y009925D02*
X054671Y009325D01*
X061171Y011325D02*
X061171Y011925D01*
X062171Y009925D02*
X062171Y009325D01*
X066171Y011325D02*
X066171Y011925D01*
X067171Y009925D02*
X067171Y009325D01*
X067171Y014325D02*
X067171Y014925D01*
X062171Y014925D02*
X062171Y014325D01*
X054671Y014325D02*
X054671Y014925D01*
D18*
X065421Y026627D03*
X065421Y028123D03*
X057921Y028373D03*
X057921Y026877D03*
X057669Y040025D03*
X056173Y040025D03*
X059923Y040025D03*
X061419Y040025D03*
X062923Y040025D03*
X064419Y040025D03*
X066673Y040025D03*
X068169Y040025D03*
D19*
X064063Y011499D03*
X064063Y010751D03*
X064929Y011125D03*
D20*
X063826Y023375D02*
X063266Y023375D01*
X063266Y024375D02*
X063826Y024375D01*
X068516Y024375D02*
X069076Y024375D01*
X069076Y023375D02*
X068516Y023375D01*
X007921Y043845D02*
X007921Y044405D01*
X006921Y044405D02*
X006921Y043845D01*
X005421Y043845D02*
X005421Y044405D01*
X004421Y044405D02*
X004421Y043845D01*
D21*
X063546Y021900D03*
X068796Y021900D03*
D22*
X066796Y044125D03*
X060046Y044275D03*
D23*
X059042Y043271D03*
X061050Y043271D03*
X061050Y045279D03*
X059042Y045279D03*
X065792Y045129D03*
X067800Y045129D03*
X067800Y043121D03*
X065792Y043121D03*
D24*
X015171Y042422D02*
X015171Y041828D01*
X014171Y041828D02*
X014171Y042422D01*
X013171Y042422D02*
X013171Y041828D01*
X007671Y041578D02*
X007671Y042172D01*
X006671Y042172D02*
X006671Y041578D01*
X005671Y041578D02*
X005671Y042172D01*
X004671Y042172D02*
X004671Y041578D01*
X004671Y046078D02*
X004671Y046672D01*
X005671Y046672D02*
X005671Y046078D01*
X006671Y046078D02*
X006671Y046672D01*
X007671Y046672D02*
X007671Y046078D01*
X013171Y046078D02*
X013171Y046672D01*
X014171Y046672D02*
X014171Y046078D01*
X015171Y046078D02*
X015171Y046672D01*
D25*
X059175Y041900D03*
X060868Y041900D03*
X065925Y041875D03*
X067618Y041875D03*
D26*
X051796Y013375D03*
X039546Y013375D03*
D27*
X038796Y013375D03*
X038046Y013375D03*
X037296Y013375D03*
X036546Y013375D03*
X035796Y013375D03*
X035046Y013375D03*
X034296Y013375D03*
X033546Y013375D03*
X032796Y013375D03*
X032046Y013375D03*
X031296Y013375D03*
X038421Y012275D03*
X043546Y013375D03*
X044296Y013375D03*
X045046Y013375D03*
X045796Y013375D03*
X046546Y013375D03*
X047296Y013375D03*
X048046Y013375D03*
X048796Y013375D03*
X049546Y013375D03*
X050296Y013375D03*
X051046Y013375D03*
X050671Y012275D03*
D28*
X023671Y012125D03*
X023671Y010125D03*
D29*
X023671Y014125D03*
D30*
X057546Y013375D03*
X057546Y014875D03*
X057546Y016375D03*
D31*
X055671Y018375D03*
X053771Y018500D03*
X052546Y019125D03*
X057571Y020750D03*
X058921Y020125D03*
X060046Y020750D03*
X062921Y018850D03*
X062921Y017850D03*
X062296Y016625D03*
X067421Y016625D03*
X067921Y018850D03*
X065046Y020750D03*
X066421Y023125D03*
X061296Y023125D03*
X059421Y025125D03*
X059421Y026625D03*
X059421Y028600D03*
X061046Y030875D03*
X061671Y031250D03*
X064921Y031750D03*
X067921Y030600D03*
X068421Y031250D03*
X064671Y028875D03*
X066171Y028625D03*
X064421Y026875D03*
X058171Y031975D03*
X057546Y034475D03*
X060771Y034250D03*
X064271Y034475D03*
X065046Y036875D03*
X063196Y037375D03*
X061796Y037475D03*
X058296Y036875D03*
X056446Y037400D03*
X067171Y037950D03*
X067396Y034375D03*
X044796Y020125D03*
X043571Y020750D03*
X039271Y018250D03*
X037921Y018875D03*
X037921Y020375D03*
X033046Y020125D03*
X031821Y020725D03*
X027521Y018250D03*
X026296Y018875D03*
X025796Y020125D03*
X024571Y020725D03*
X022421Y019625D03*
X021646Y018250D03*
X019546Y019125D03*
X017546Y017350D03*
X015921Y018625D03*
X014296Y016875D03*
X013546Y017475D03*
X011421Y018625D03*
X010171Y021125D03*
X013546Y022225D03*
X014671Y021125D03*
X017421Y022875D03*
X014921Y025750D03*
X013171Y027250D03*
X014921Y029250D03*
X010171Y032625D03*
X008921Y031125D03*
X005421Y032625D03*
X004671Y032625D03*
X003421Y031125D03*
X004671Y027375D03*
X006421Y026125D03*
X003671Y022875D03*
X001671Y022225D03*
X002421Y020275D03*
X004171Y017625D03*
X003171Y017250D03*
X011671Y014500D03*
X016921Y015225D03*
X008421Y035525D03*
X006621Y035125D03*
X007321Y036875D03*
X008921Y038375D03*
X008171Y039375D03*
X006371Y038625D03*
X004171Y039375D03*
X003521Y040125D03*
X001771Y036875D03*
X001071Y035125D03*
X011921Y043875D03*
X010171Y046375D03*
X016421Y043875D03*
X014171Y040125D03*
X002171Y046375D03*
X059921Y010375D03*
X063546Y009400D03*
X064071Y012125D03*
X068171Y010375D03*
M02*
