G75*
%MOIN*%
%OFA0B0*%
%FSLAX24Y24*%
%IPPOS*%
%LPD*%
%AMOC8*
5,1,8,0,0,1.08239X$1,22.5*
%
%ADD10C,0.0030*%
%ADD11R,0.0180X0.0300*%
%ADD12C,0.0020*%
%ADD13C,0.0080*%
%ADD14R,0.0300X0.0340*%
%ADD15R,0.0098X0.0098*%
%ADD16C,0.0220*%
%ADD17C,0.0050*%
%ADD18C,0.0060*%
%ADD19C,0.0100*%
%ADD20C,0.0000*%
%ADD21R,0.0300X1.0550*%
%ADD22R,0.0200X1.5450*%
%ADD23R,0.2850X0.0320*%
%ADD24R,0.1850X0.0320*%
%ADD25R,0.0300X0.0180*%
%ADD26C,0.0040*%
%ADD27C,0.0992*%
D10*
X014191Y019520D02*
X014288Y019520D01*
X014337Y019568D01*
X014438Y019568D02*
X014486Y019520D01*
X014583Y019520D01*
X014631Y019568D01*
X014631Y019762D01*
X014583Y019810D01*
X014486Y019810D01*
X014438Y019762D01*
X014438Y019568D01*
X014337Y019762D02*
X014288Y019810D01*
X014191Y019810D01*
X014143Y019762D01*
X014143Y019568D01*
X014191Y019520D01*
X014732Y019520D02*
X014732Y019810D01*
X014926Y019520D01*
X014926Y019810D01*
X015027Y019810D02*
X015221Y019810D01*
X015124Y019810D02*
X015124Y019520D01*
X015322Y019520D02*
X015322Y019810D01*
X015467Y019810D01*
X015515Y019762D01*
X015515Y019665D01*
X015467Y019617D01*
X015322Y019617D01*
X015418Y019617D02*
X015515Y019520D01*
X015616Y019568D02*
X015665Y019520D01*
X015761Y019520D01*
X015810Y019568D01*
X015810Y019762D01*
X015761Y019810D01*
X015665Y019810D01*
X015616Y019762D01*
X015616Y019568D01*
X015911Y019520D02*
X016104Y019520D01*
X015911Y019520D02*
X015911Y019810D01*
X015538Y019955D02*
X015345Y019955D01*
X015442Y019955D02*
X015442Y020245D01*
X015345Y020148D01*
X015244Y020100D02*
X015195Y020052D01*
X015050Y020052D01*
X015050Y019955D02*
X015050Y020245D01*
X015195Y020245D01*
X015244Y020197D01*
X015244Y020100D01*
X014949Y020245D02*
X014756Y020245D01*
X014852Y020245D02*
X014852Y019955D01*
X016360Y021245D02*
X016457Y021245D01*
X016408Y021245D02*
X016408Y021535D01*
X016360Y021535D02*
X016457Y021535D01*
X016556Y021487D02*
X016556Y021293D01*
X016605Y021245D01*
X016701Y021245D01*
X016750Y021293D01*
X016851Y021390D02*
X016996Y021535D01*
X016996Y021245D01*
X017044Y021390D02*
X016851Y021390D01*
X016750Y021487D02*
X016701Y021535D01*
X016605Y021535D01*
X016556Y021487D01*
X019416Y023578D02*
X019729Y023892D01*
X019572Y023892D02*
X019572Y023578D01*
X019729Y023578D02*
X019416Y023892D01*
X019416Y023735D02*
X019729Y023735D01*
X022997Y028635D02*
X022997Y028925D01*
X023142Y028925D01*
X023191Y028877D01*
X023191Y028780D01*
X023142Y028732D01*
X022997Y028732D01*
X023292Y028683D02*
X023340Y028635D01*
X023437Y028635D01*
X023486Y028683D01*
X023486Y028877D01*
X023437Y028925D01*
X023340Y028925D01*
X023292Y028877D01*
X023292Y028683D01*
X023587Y028635D02*
X023683Y028732D01*
X023780Y028635D01*
X023780Y028925D01*
X023881Y028925D02*
X023881Y028635D01*
X024075Y028635D01*
X024176Y028635D02*
X024176Y028925D01*
X024321Y028925D01*
X024369Y028877D01*
X024369Y028780D01*
X024321Y028732D01*
X024176Y028732D01*
X024273Y028732D02*
X024369Y028635D01*
X024075Y028925D02*
X023881Y028925D01*
X023881Y028780D02*
X023978Y028780D01*
X023587Y028925D02*
X023587Y028635D01*
X025382Y028192D02*
X025382Y027998D01*
X025430Y027950D01*
X025527Y027950D01*
X025575Y027998D01*
X025575Y028095D01*
X025478Y028095D01*
X025382Y028192D02*
X025430Y028240D01*
X025527Y028240D01*
X025575Y028192D01*
X025676Y028240D02*
X025870Y027950D01*
X025870Y028240D01*
X025971Y028240D02*
X026116Y028240D01*
X026164Y028192D01*
X026164Y027998D01*
X026116Y027950D01*
X025971Y027950D01*
X025971Y028240D01*
X025676Y028240D02*
X025676Y027950D01*
X025845Y030645D02*
X026039Y030645D01*
X025942Y030645D02*
X025942Y030935D01*
X025845Y030838D01*
X025744Y030790D02*
X025551Y030790D01*
X025647Y030887D02*
X025647Y030693D01*
X026140Y030693D02*
X026188Y030645D01*
X026285Y030645D01*
X026333Y030693D01*
X026333Y030790D01*
X026285Y030838D01*
X026237Y030838D01*
X026140Y030790D01*
X026140Y030935D01*
X026333Y030935D01*
X026435Y030935D02*
X026435Y030742D01*
X026531Y030645D01*
X026628Y030742D01*
X026628Y030935D01*
X020063Y031983D02*
X020063Y032177D01*
X020015Y032225D01*
X019870Y032225D01*
X019870Y031935D01*
X020015Y031935D01*
X020063Y031983D01*
X019769Y031935D02*
X019769Y032225D01*
X019575Y032225D02*
X019769Y031935D01*
X019575Y031935D02*
X019575Y032225D01*
X019474Y032177D02*
X019426Y032225D01*
X019329Y032225D01*
X019281Y032177D01*
X019281Y031983D01*
X019329Y031935D01*
X019426Y031935D01*
X019474Y031983D01*
X019474Y032080D01*
X019377Y032080D01*
X019368Y034200D02*
X019368Y034490D01*
X019272Y034490D02*
X019465Y034490D01*
X019566Y034490D02*
X019711Y034490D01*
X019760Y034442D01*
X019760Y034345D01*
X019711Y034297D01*
X019566Y034297D01*
X019566Y034200D02*
X019566Y034490D01*
X019861Y034442D02*
X019909Y034490D01*
X020006Y034490D01*
X020054Y034442D01*
X020054Y034393D01*
X019861Y034200D01*
X020054Y034200D01*
X018619Y035615D02*
X018496Y035738D01*
X018557Y035738D02*
X018372Y035738D01*
X018372Y035615D02*
X018372Y035985D01*
X018557Y035985D01*
X018619Y035924D01*
X018619Y035800D01*
X018557Y035738D01*
X018251Y035615D02*
X018004Y035615D01*
X018004Y035985D01*
X018251Y035985D01*
X018127Y035800D02*
X018004Y035800D01*
X017883Y035615D02*
X017636Y035615D01*
X017636Y035985D01*
X017267Y035985D02*
X017267Y035615D01*
X017514Y035615D01*
X017146Y035677D02*
X017146Y035924D01*
X017084Y035985D01*
X016961Y035985D01*
X016899Y035924D01*
X016899Y035677D01*
X016961Y035615D01*
X017084Y035615D01*
X017146Y035677D01*
X016778Y035615D02*
X016654Y035738D01*
X016716Y035738D02*
X016531Y035738D01*
X016531Y035615D02*
X016531Y035985D01*
X016716Y035985D01*
X016778Y035924D01*
X016778Y035800D01*
X016716Y035738D01*
X016409Y035985D02*
X016162Y035985D01*
X016041Y035985D02*
X016041Y035615D01*
X015794Y035985D01*
X015794Y035615D01*
X015673Y035677D02*
X015673Y035924D01*
X015611Y035985D01*
X015488Y035985D01*
X015426Y035924D01*
X015426Y035677D01*
X015488Y035615D01*
X015611Y035615D01*
X015673Y035677D01*
X015304Y035677D02*
X015243Y035615D01*
X015119Y035615D01*
X015057Y035677D01*
X015057Y035924D01*
X015119Y035985D01*
X015243Y035985D01*
X015304Y035924D01*
X014568Y035985D02*
X014568Y035615D01*
X014444Y035738D01*
X014321Y035615D01*
X014321Y035985D01*
X014199Y035924D02*
X014138Y035985D01*
X014014Y035985D01*
X013953Y035924D01*
X013953Y035677D01*
X014014Y035615D01*
X014138Y035615D01*
X014199Y035677D01*
X014199Y035924D01*
X013831Y035615D02*
X013584Y035615D01*
X013584Y035985D01*
X013463Y035985D02*
X013216Y035985D01*
X013216Y035615D01*
X013216Y035800D02*
X013339Y035800D01*
X012726Y035800D02*
X012479Y035800D01*
X012479Y035862D02*
X012479Y035615D01*
X012358Y035677D02*
X012358Y035924D01*
X012111Y035677D01*
X012173Y035615D01*
X012296Y035615D01*
X012358Y035677D01*
X012479Y035862D02*
X012603Y035985D01*
X012726Y035862D01*
X012726Y035615D01*
X012358Y035924D02*
X012296Y035985D01*
X012173Y035985D01*
X012111Y035924D01*
X012111Y035677D01*
X011990Y035677D02*
X011928Y035615D01*
X011804Y035615D01*
X011743Y035677D01*
X011743Y035800D02*
X011866Y035862D01*
X011928Y035862D01*
X011990Y035800D01*
X011990Y035677D01*
X011743Y035800D02*
X011743Y035985D01*
X011990Y035985D01*
X011928Y036215D02*
X011804Y036215D01*
X011743Y036277D01*
X011990Y036524D01*
X011990Y036277D01*
X011928Y036215D01*
X012111Y036277D02*
X012173Y036215D01*
X012296Y036215D01*
X012358Y036277D01*
X012358Y036400D01*
X012296Y036462D01*
X012234Y036462D01*
X012111Y036400D01*
X012111Y036585D01*
X012358Y036585D01*
X011990Y036524D02*
X011928Y036585D01*
X011804Y036585D01*
X011743Y036524D01*
X011743Y036277D01*
X011621Y036277D02*
X011559Y036215D01*
X011436Y036215D01*
X011374Y036277D01*
X011621Y036524D01*
X011621Y036277D01*
X011621Y036524D02*
X011559Y036585D01*
X011436Y036585D01*
X011374Y036524D01*
X011374Y036277D01*
X011253Y036277D02*
X011191Y036215D01*
X011068Y036215D01*
X011006Y036277D01*
X011253Y036524D01*
X011253Y036277D01*
X011253Y036524D02*
X011191Y036585D01*
X011068Y036585D01*
X011006Y036524D01*
X011006Y036277D01*
X010885Y036153D02*
X010638Y036153D01*
X010516Y036215D02*
X010516Y036585D01*
X010393Y036462D01*
X010269Y036585D01*
X010269Y036215D01*
X010148Y036277D02*
X010086Y036215D01*
X009963Y036215D01*
X009901Y036277D01*
X009901Y036524D01*
X009963Y036585D01*
X010086Y036585D01*
X010148Y036524D01*
X009780Y036524D02*
X009718Y036585D01*
X009594Y036585D01*
X009533Y036524D01*
X009533Y036277D01*
X009594Y036215D01*
X009718Y036215D01*
X009780Y036277D01*
X009780Y035985D02*
X009656Y035862D01*
X009533Y035985D01*
X009533Y035615D01*
X009533Y035385D02*
X009718Y035385D01*
X009780Y035324D01*
X009780Y035200D01*
X009718Y035138D01*
X009533Y035138D01*
X009533Y035015D02*
X009533Y035385D01*
X009656Y035138D02*
X009780Y035015D01*
X009901Y035077D02*
X009901Y035200D01*
X009963Y035262D01*
X010086Y035262D01*
X010148Y035200D01*
X010148Y035138D01*
X009901Y035138D01*
X009901Y035077D02*
X009963Y035015D01*
X010086Y035015D01*
X010269Y035262D02*
X010393Y035015D01*
X010516Y035262D01*
X010455Y035615D02*
X010331Y035615D01*
X010269Y035677D01*
X010148Y035615D02*
X009963Y035800D01*
X009901Y035738D02*
X010148Y035985D01*
X010269Y035924D02*
X010269Y035862D01*
X010331Y035800D01*
X010455Y035800D01*
X010516Y035738D01*
X010516Y035677D01*
X010455Y035615D01*
X010516Y035924D02*
X010455Y035985D01*
X010331Y035985D01*
X010269Y035924D01*
X009901Y035985D02*
X009901Y035615D01*
X009780Y035615D02*
X009780Y035985D01*
X009780Y034785D02*
X009780Y034415D01*
X009533Y034785D01*
X009533Y034415D01*
X009533Y034185D02*
X009780Y033815D01*
X009780Y034185D01*
X009533Y034185D02*
X009533Y033815D01*
X009901Y033815D02*
X009901Y033877D01*
X009963Y033877D01*
X009963Y033815D01*
X009901Y033815D01*
X010454Y033815D02*
X010454Y034185D01*
X010700Y034185D01*
X010822Y034062D02*
X010884Y034062D01*
X010884Y033815D01*
X010945Y033815D02*
X010822Y033815D01*
X010577Y034000D02*
X010454Y034000D01*
X010393Y034415D02*
X010516Y034662D01*
X010269Y034662D02*
X010393Y034415D01*
X010148Y034477D02*
X010148Y034600D01*
X010086Y034662D01*
X009963Y034662D01*
X009901Y034600D01*
X009901Y034477D01*
X009963Y034415D01*
X010086Y034415D01*
X010148Y034477D01*
X010884Y034247D02*
X010884Y034185D01*
X011067Y034062D02*
X011191Y034062D01*
X011129Y034124D02*
X011129Y033877D01*
X011191Y033815D01*
X011313Y033877D02*
X011375Y033815D01*
X011560Y033815D01*
X011681Y033815D02*
X011681Y034185D01*
X011743Y034062D02*
X011866Y034062D01*
X011928Y034000D01*
X011928Y033815D01*
X011681Y034000D02*
X011743Y034062D01*
X011560Y034062D02*
X011375Y034062D01*
X011313Y034000D01*
X011313Y033877D01*
X011253Y034415D02*
X011006Y034415D01*
X011253Y034662D01*
X011253Y034724D01*
X011191Y034785D01*
X011068Y034785D01*
X011006Y034724D01*
X011006Y035015D02*
X011006Y035262D01*
X011129Y035385D01*
X011253Y035262D01*
X011253Y035015D01*
X011253Y035200D02*
X011006Y035200D01*
X011068Y035615D02*
X011006Y035677D01*
X011006Y035924D01*
X011068Y035985D01*
X011191Y035985D01*
X011253Y035924D01*
X011253Y035800D02*
X011129Y035800D01*
X011253Y035800D02*
X011253Y035677D01*
X011191Y035615D01*
X011068Y035615D01*
X011374Y035615D02*
X011374Y035985D01*
X011621Y035985D01*
X011498Y035800D02*
X011374Y035800D01*
X011374Y035615D02*
X011621Y035615D01*
X011559Y034785D02*
X011621Y034724D01*
X011374Y034477D01*
X011436Y034415D01*
X011559Y034415D01*
X011621Y034477D01*
X011621Y034724D01*
X011559Y034785D02*
X011436Y034785D01*
X011374Y034724D01*
X011374Y034477D01*
X011743Y034415D02*
X011990Y034415D01*
X011866Y034415D02*
X011866Y034785D01*
X011743Y034662D01*
X012111Y034600D02*
X012234Y034662D01*
X012296Y034662D01*
X012358Y034600D01*
X012358Y034477D01*
X012296Y034415D01*
X012173Y034415D01*
X012111Y034477D01*
X012111Y034600D02*
X012111Y034785D01*
X012358Y034785D01*
X016286Y035615D02*
X016286Y035985D01*
X018041Y016730D02*
X018234Y016440D01*
X018335Y016488D02*
X018384Y016440D01*
X018480Y016440D01*
X018529Y016488D01*
X018529Y016585D01*
X018480Y016633D01*
X018432Y016633D01*
X018335Y016585D01*
X018335Y016730D01*
X018529Y016730D01*
X018234Y016730D02*
X018041Y016440D01*
X019085Y015504D02*
X019134Y015553D01*
X019231Y015553D01*
X019279Y015504D01*
X019279Y015359D01*
X019376Y015359D02*
X019085Y015359D01*
X019085Y015504D01*
X019085Y015258D02*
X019279Y015258D01*
X019376Y015161D01*
X019279Y015065D01*
X019085Y015065D01*
X019085Y014770D02*
X019376Y014770D01*
X019376Y014963D01*
X020085Y014955D02*
X020085Y014858D01*
X020134Y014810D01*
X020327Y014810D01*
X020376Y014858D01*
X020376Y014955D01*
X020327Y015003D01*
X020376Y015105D02*
X020376Y015298D01*
X020376Y015399D02*
X020085Y015399D01*
X020231Y015448D02*
X020376Y015593D01*
X020279Y015399D02*
X020085Y015593D01*
X020085Y015105D02*
X020376Y015105D01*
X020134Y015003D02*
X020085Y014955D01*
X021090Y014886D02*
X021187Y014983D01*
X021381Y014983D01*
X021236Y014983D02*
X021236Y014790D01*
X021187Y014790D02*
X021090Y014886D01*
X021187Y014790D02*
X021381Y014790D01*
X021332Y014688D02*
X021139Y014688D01*
X021090Y014640D01*
X021090Y014495D01*
X021381Y014495D01*
X021381Y014640D01*
X021332Y014688D01*
X021090Y015084D02*
X021090Y015278D01*
X021090Y015181D02*
X021381Y015181D01*
X021381Y015379D02*
X021187Y015379D01*
X021090Y015476D01*
X021187Y015572D01*
X021381Y015572D01*
X021236Y015572D02*
X021236Y015379D01*
X022090Y015399D02*
X022090Y015544D01*
X022139Y015593D01*
X022332Y015593D01*
X022381Y015544D01*
X022381Y015399D01*
X022090Y015399D01*
X022090Y015298D02*
X022381Y015298D01*
X022090Y015105D01*
X022381Y015105D01*
X022332Y015003D02*
X022381Y014955D01*
X022381Y014858D01*
X022332Y014810D01*
X022139Y014810D01*
X022090Y014858D01*
X022090Y014955D01*
X022139Y015003D01*
X022236Y015003D02*
X022236Y014907D01*
X022236Y015003D02*
X022332Y015003D01*
X023105Y015070D02*
X023251Y015070D01*
X023202Y015166D01*
X023202Y015215D01*
X023251Y015263D01*
X023347Y015263D01*
X023396Y015215D01*
X023396Y015118D01*
X023347Y015070D01*
X023251Y014968D02*
X023251Y014775D01*
X023347Y014872D02*
X023154Y014872D01*
X023105Y015070D02*
X023105Y015263D01*
X023105Y015364D02*
X023299Y015364D01*
X023396Y015461D01*
X023299Y015558D01*
X023105Y015558D01*
X024126Y015614D02*
X024126Y014435D01*
X024185Y014450D02*
X024282Y014547D01*
X024185Y014643D01*
X024476Y014643D01*
X024427Y014745D02*
X024234Y014745D01*
X024185Y014793D01*
X024185Y014890D01*
X024234Y014938D01*
X024185Y015039D02*
X024476Y015039D01*
X024476Y015233D01*
X024476Y015334D02*
X024185Y015334D01*
X024185Y015479D01*
X024234Y015527D01*
X024331Y015527D01*
X024379Y015479D01*
X024379Y015334D01*
X024379Y015431D02*
X024476Y015527D01*
X024427Y014938D02*
X024476Y014890D01*
X024476Y014793D01*
X024427Y014745D01*
X024476Y014450D02*
X024185Y014450D01*
X021076Y003495D02*
X020979Y003495D01*
X020931Y003447D01*
X020830Y003447D02*
X020781Y003495D01*
X020685Y003495D01*
X020636Y003447D01*
X020636Y003253D01*
X020685Y003205D01*
X020781Y003205D01*
X020830Y003253D01*
X020931Y003205D02*
X021124Y003398D01*
X021124Y003447D01*
X021076Y003495D01*
X021124Y003205D02*
X020931Y003205D01*
X020537Y003205D02*
X020440Y003205D01*
X020488Y003205D02*
X020488Y003495D01*
X020440Y003495D02*
X020537Y003495D01*
X014836Y003506D02*
X014545Y003506D01*
X014642Y003410D01*
X014545Y003308D02*
X014836Y003115D01*
X014836Y003308D02*
X014545Y003115D01*
X014836Y003410D02*
X014836Y003603D01*
X014706Y010895D02*
X014415Y011088D01*
X014464Y011190D02*
X014415Y011238D01*
X014415Y011335D01*
X014464Y011383D01*
X014512Y011383D01*
X014706Y011190D01*
X014706Y011383D01*
X014706Y011088D02*
X014415Y010895D01*
X014477Y014490D02*
X014477Y014780D01*
X014671Y014780D01*
X014772Y014780D02*
X014772Y014490D01*
X014965Y014490D01*
X015066Y014538D02*
X015115Y014490D01*
X015211Y014490D01*
X015260Y014538D01*
X015260Y014732D01*
X015211Y014780D01*
X015115Y014780D01*
X015066Y014732D01*
X015066Y014538D01*
X015361Y014490D02*
X015361Y014780D01*
X015554Y014780D02*
X015554Y014490D01*
X015458Y014587D01*
X015361Y014490D01*
X014574Y014635D02*
X014477Y014635D01*
X014762Y016045D02*
X014762Y016335D01*
X014666Y016335D02*
X014859Y016335D01*
X014960Y016335D02*
X014960Y016045D01*
X014960Y016142D02*
X015105Y016142D01*
X015154Y016190D01*
X015154Y016287D01*
X015105Y016335D01*
X014960Y016335D01*
X015255Y016287D02*
X015303Y016335D01*
X015400Y016335D01*
X015448Y016287D01*
X015448Y016238D01*
X015400Y016190D01*
X015448Y016142D01*
X015448Y016093D01*
X015400Y016045D01*
X015303Y016045D01*
X015255Y016093D01*
X015352Y016190D02*
X015400Y016190D01*
D11*
X014971Y005850D03*
X017731Y004850D03*
X014076Y027955D03*
X013586Y028615D03*
X012866Y027960D03*
X013586Y030215D03*
X022516Y029955D03*
X022981Y036235D03*
D12*
X022987Y036595D02*
X023133Y036742D01*
X023133Y036778D01*
X023097Y036815D01*
X023023Y036815D01*
X022987Y036778D01*
X022912Y036778D02*
X022912Y036705D01*
X022876Y036668D01*
X022766Y036668D01*
X022766Y036595D02*
X022766Y036815D01*
X022876Y036815D01*
X022912Y036778D01*
X022839Y036668D02*
X022912Y036595D01*
X022987Y036595D02*
X023133Y036595D01*
X023208Y036595D02*
X023354Y036742D01*
X023354Y036778D01*
X023318Y036815D01*
X023244Y036815D01*
X023208Y036778D01*
X023208Y036595D02*
X023354Y036595D01*
X023807Y036555D02*
X023953Y036555D01*
X024028Y036555D02*
X024028Y036775D01*
X024174Y036775D01*
X024249Y036775D02*
X024359Y036775D01*
X024395Y036738D01*
X024395Y036592D01*
X024359Y036555D01*
X024249Y036555D01*
X024249Y036775D01*
X024101Y036665D02*
X024028Y036665D01*
X024028Y036555D02*
X024174Y036555D01*
X024470Y036555D02*
X024616Y036555D01*
X024543Y036555D02*
X024543Y036775D01*
X024470Y036702D01*
X023807Y036775D02*
X023807Y036555D01*
X024734Y035326D02*
X024698Y035290D01*
X024698Y035143D01*
X024734Y035106D01*
X024808Y035106D01*
X024844Y035143D01*
X024919Y035106D02*
X025065Y035106D01*
X024992Y035106D02*
X024992Y035326D01*
X024919Y035253D01*
X024844Y035290D02*
X024808Y035326D01*
X024734Y035326D01*
X025140Y035253D02*
X025213Y035326D01*
X025213Y035106D01*
X025140Y035106D02*
X025286Y035106D01*
X024327Y033295D02*
X024266Y033235D01*
X024202Y033265D02*
X024172Y033295D01*
X024112Y033295D01*
X024082Y033265D01*
X024082Y033145D01*
X024112Y033115D01*
X024172Y033115D01*
X024202Y033145D01*
X024266Y033115D02*
X024387Y033115D01*
X024327Y033115D02*
X024327Y033295D01*
X024020Y033295D02*
X023960Y033295D01*
X023990Y033295D02*
X023990Y033115D01*
X023960Y033115D02*
X024020Y033115D01*
X024754Y031166D02*
X024718Y031130D01*
X024718Y030983D01*
X024754Y030946D01*
X024828Y030946D01*
X024864Y030983D01*
X024939Y030946D02*
X025085Y030946D01*
X025012Y030946D02*
X025012Y031166D01*
X024939Y031093D01*
X024864Y031130D02*
X024828Y031166D01*
X024754Y031166D01*
X025160Y031130D02*
X025160Y030983D01*
X025306Y031130D01*
X025306Y030983D01*
X025270Y030946D01*
X025196Y030946D01*
X025160Y030983D01*
X025160Y031130D02*
X025196Y031166D01*
X025270Y031166D01*
X025306Y031130D01*
X024260Y029650D02*
X024186Y029650D01*
X024150Y029613D01*
X024075Y029613D02*
X024039Y029650D01*
X023929Y029650D01*
X023929Y029430D01*
X024039Y029430D01*
X024075Y029467D01*
X024075Y029613D01*
X024260Y029650D02*
X024296Y029613D01*
X024296Y029577D01*
X024150Y029430D01*
X024296Y029430D01*
X023854Y029430D02*
X023708Y029430D01*
X023708Y029650D01*
X023854Y029650D01*
X023781Y029540D02*
X023708Y029540D01*
X023633Y029430D02*
X023487Y029430D01*
X023487Y029650D01*
X022794Y029603D02*
X022758Y029640D01*
X022684Y029640D01*
X022648Y029603D01*
X022573Y029603D02*
X022573Y029567D01*
X022537Y029530D01*
X022573Y029493D01*
X022573Y029457D01*
X022537Y029420D01*
X022463Y029420D01*
X022427Y029457D01*
X022352Y029420D02*
X022279Y029493D01*
X022316Y029493D02*
X022206Y029493D01*
X022206Y029420D02*
X022206Y029640D01*
X022316Y029640D01*
X022352Y029603D01*
X022352Y029530D01*
X022316Y029493D01*
X022427Y029603D02*
X022463Y029640D01*
X022537Y029640D01*
X022573Y029603D01*
X022537Y029530D02*
X022500Y029530D01*
X022648Y029420D02*
X022794Y029567D01*
X022794Y029603D01*
X022794Y029420D02*
X022648Y029420D01*
X020612Y024765D02*
X020412Y024765D01*
X020412Y024615D01*
X020512Y024665D01*
X020562Y024665D01*
X020612Y024615D01*
X020612Y024515D01*
X020562Y024465D01*
X020462Y024465D01*
X020412Y024515D01*
X020317Y024515D02*
X020267Y024465D01*
X020167Y024465D01*
X020117Y024515D01*
X020117Y024715D01*
X020167Y024765D01*
X020267Y024765D01*
X020317Y024715D01*
X020021Y024765D02*
X019921Y024765D01*
X019971Y024765D02*
X019971Y024465D01*
X019921Y024465D02*
X020021Y024465D01*
X018632Y021590D02*
X018558Y021590D01*
X018522Y021553D01*
X018447Y021553D02*
X018411Y021590D01*
X018337Y021590D01*
X018301Y021553D01*
X018301Y021407D01*
X018337Y021370D01*
X018411Y021370D01*
X018447Y021407D01*
X018522Y021370D02*
X018668Y021517D01*
X018668Y021553D01*
X018632Y021590D01*
X018668Y021370D02*
X018522Y021370D01*
X014210Y027465D02*
X014136Y027465D01*
X014100Y027502D01*
X014025Y027465D02*
X013879Y027465D01*
X013952Y027465D02*
X013952Y027685D01*
X013879Y027612D01*
X013804Y027648D02*
X013804Y027575D01*
X013768Y027538D01*
X013658Y027538D01*
X013658Y027465D02*
X013658Y027685D01*
X013768Y027685D01*
X013804Y027648D01*
X013731Y027538D02*
X013804Y027465D01*
X014100Y027648D02*
X014136Y027685D01*
X014210Y027685D01*
X014246Y027648D01*
X014246Y027612D01*
X014210Y027575D01*
X014246Y027538D01*
X014246Y027502D01*
X014210Y027465D01*
X014210Y027575D02*
X014173Y027575D01*
X013076Y027502D02*
X013040Y027465D01*
X012966Y027465D01*
X012930Y027502D01*
X013076Y027648D01*
X013076Y027502D01*
X012930Y027502D02*
X012930Y027648D01*
X012966Y027685D01*
X013040Y027685D01*
X013076Y027648D01*
X012855Y027465D02*
X012709Y027465D01*
X012782Y027465D02*
X012782Y027685D01*
X012709Y027612D01*
X012634Y027648D02*
X012634Y027575D01*
X012598Y027538D01*
X012488Y027538D01*
X012488Y027465D02*
X012488Y027685D01*
X012598Y027685D01*
X012634Y027648D01*
X012561Y027538D02*
X012634Y027465D01*
X012604Y028940D02*
X012604Y029160D01*
X012714Y029160D01*
X012750Y029123D01*
X012750Y029050D01*
X012714Y029013D01*
X012604Y029013D01*
X012677Y029013D02*
X012750Y028940D01*
X012825Y028977D02*
X012861Y028940D01*
X012935Y028940D01*
X012971Y028977D01*
X012971Y029123D01*
X012935Y029160D01*
X012861Y029160D01*
X012825Y029123D01*
X012825Y029087D01*
X012861Y029050D01*
X012971Y029050D01*
X012922Y029295D02*
X012848Y029295D01*
X012812Y029332D01*
X012812Y029405D02*
X012885Y029442D01*
X012922Y029442D01*
X012958Y029405D01*
X012958Y029332D01*
X012922Y029295D01*
X012812Y029405D02*
X012812Y029515D01*
X012958Y029515D01*
X012737Y029478D02*
X012701Y029515D01*
X012627Y029515D01*
X012591Y029478D01*
X012591Y029332D01*
X012627Y029295D01*
X012701Y029295D01*
X012737Y029332D01*
X012710Y030305D02*
X012637Y030378D01*
X012674Y030378D02*
X012564Y030378D01*
X012564Y030305D02*
X012564Y030525D01*
X012674Y030525D01*
X012710Y030488D01*
X012710Y030415D01*
X012674Y030378D01*
X012785Y030378D02*
X012821Y030415D01*
X012895Y030415D01*
X012931Y030378D01*
X012931Y030342D01*
X012895Y030305D01*
X012821Y030305D01*
X012785Y030342D01*
X012785Y030378D01*
X012821Y030415D02*
X012785Y030452D01*
X012785Y030488D01*
X012821Y030525D01*
X012895Y030525D01*
X012931Y030488D01*
X012931Y030452D01*
X012895Y030415D01*
X012897Y030745D02*
X012933Y030782D01*
X012933Y030818D01*
X012897Y030855D01*
X012787Y030855D01*
X012787Y030782D01*
X012823Y030745D01*
X012897Y030745D01*
X012787Y030855D02*
X012860Y030928D01*
X012933Y030965D01*
X012712Y030928D02*
X012676Y030965D01*
X012602Y030965D01*
X012566Y030928D01*
X012566Y030782D01*
X012602Y030745D01*
X012676Y030745D01*
X012712Y030782D01*
X014961Y031020D02*
X015034Y031020D01*
X014997Y031020D02*
X014997Y031240D01*
X014961Y031240D02*
X015034Y031240D01*
X015108Y031203D02*
X015108Y031057D01*
X015145Y031020D01*
X015218Y031020D01*
X015255Y031057D01*
X015329Y031057D02*
X015366Y031020D01*
X015439Y031020D01*
X015476Y031057D01*
X015476Y031093D01*
X015439Y031130D01*
X015402Y031130D01*
X015439Y031130D02*
X015476Y031167D01*
X015476Y031203D01*
X015439Y031240D01*
X015366Y031240D01*
X015329Y031203D01*
X015255Y031203D02*
X015218Y031240D01*
X015145Y031240D01*
X015108Y031203D01*
X010188Y031187D02*
X010152Y031150D01*
X010078Y031150D01*
X010042Y031187D01*
X009967Y031150D02*
X009821Y031370D01*
X009967Y031370D02*
X009821Y031150D01*
X010042Y031333D02*
X010078Y031370D01*
X010152Y031370D01*
X010188Y031333D01*
X010188Y031297D01*
X010152Y031260D01*
X010188Y031223D01*
X010188Y031187D01*
X010152Y031260D02*
X010115Y031260D01*
X024529Y018980D02*
X024639Y018980D01*
X024675Y018943D01*
X024675Y018870D01*
X024639Y018833D01*
X024529Y018833D01*
X024529Y018760D02*
X024529Y018980D01*
X024602Y018833D02*
X024675Y018760D01*
X024750Y018797D02*
X024786Y018760D01*
X024860Y018760D01*
X024896Y018797D01*
X024896Y018833D01*
X024860Y018870D01*
X024823Y018870D01*
X024860Y018870D02*
X024896Y018907D01*
X024896Y018943D01*
X024860Y018980D01*
X024786Y018980D01*
X024750Y018943D01*
X025232Y019489D02*
X025196Y019525D01*
X025196Y019672D01*
X025232Y019709D01*
X025306Y019709D01*
X025342Y019672D01*
X025417Y019672D02*
X025453Y019709D01*
X025527Y019709D01*
X025563Y019672D01*
X025563Y019635D01*
X025417Y019489D01*
X025563Y019489D01*
X025638Y019599D02*
X025784Y019599D01*
X025748Y019709D02*
X025638Y019599D01*
X025748Y019489D02*
X025748Y019709D01*
X025342Y019525D02*
X025306Y019489D01*
X025232Y019489D01*
X025767Y021230D02*
X025841Y021230D01*
X025877Y021267D01*
X025952Y021230D02*
X026098Y021230D01*
X026025Y021230D02*
X026025Y021450D01*
X025952Y021377D01*
X025877Y021413D02*
X025841Y021450D01*
X025767Y021450D01*
X025731Y021413D01*
X025731Y021267D01*
X025767Y021230D01*
X025778Y021625D02*
X025814Y021662D01*
X025778Y021625D02*
X025704Y021625D01*
X025668Y021662D01*
X025668Y021808D01*
X025704Y021845D01*
X025778Y021845D01*
X025814Y021808D01*
X025889Y021772D02*
X025962Y021845D01*
X025962Y021625D01*
X025889Y021625D02*
X026035Y021625D01*
X026110Y021662D02*
X026146Y021625D01*
X026220Y021625D01*
X026256Y021662D01*
X026256Y021735D01*
X026220Y021772D01*
X026183Y021772D01*
X026110Y021735D01*
X026110Y021845D01*
X026256Y021845D01*
X025841Y022525D02*
X025695Y022525D01*
X025768Y022525D02*
X025768Y022745D01*
X025695Y022672D01*
X025620Y022708D02*
X025620Y022562D01*
X025584Y022525D01*
X025510Y022525D01*
X025474Y022562D01*
X025474Y022708D01*
X025510Y022745D01*
X025584Y022745D01*
X025620Y022708D01*
X025547Y022598D02*
X025620Y022525D01*
X025714Y023435D02*
X025678Y023472D01*
X025678Y023618D01*
X025714Y023655D01*
X025788Y023655D01*
X025824Y023618D01*
X025899Y023618D02*
X025935Y023655D01*
X026009Y023655D01*
X026045Y023618D01*
X026045Y023582D01*
X025899Y023435D01*
X026045Y023435D01*
X026120Y023435D02*
X026266Y023582D01*
X026266Y023618D01*
X026230Y023655D01*
X026156Y023655D01*
X026120Y023618D01*
X026120Y023435D02*
X026266Y023435D01*
X025824Y023472D02*
X025788Y023435D01*
X025714Y023435D01*
X017261Y008286D02*
X017261Y008139D01*
X017261Y008212D02*
X017040Y008212D01*
X017114Y008139D01*
X017187Y008065D02*
X017040Y008065D01*
X017040Y007918D02*
X017187Y007918D01*
X017261Y007991D01*
X017187Y008065D01*
X017187Y007844D02*
X017224Y007844D01*
X017261Y007807D01*
X017261Y007734D01*
X017224Y007697D01*
X017151Y007734D02*
X017151Y007807D01*
X017187Y007844D01*
X017077Y007844D02*
X017040Y007807D01*
X017040Y007734D01*
X017077Y007697D01*
X017114Y007697D01*
X017151Y007734D01*
X017589Y005360D02*
X017699Y005360D01*
X017735Y005323D01*
X017735Y005250D01*
X017699Y005213D01*
X017589Y005213D01*
X017589Y005140D02*
X017589Y005360D01*
X017662Y005213D02*
X017735Y005140D01*
X017810Y005140D02*
X017956Y005140D01*
X017883Y005140D02*
X017883Y005360D01*
X017810Y005287D01*
X017842Y003640D02*
X017878Y003603D01*
X017878Y003567D01*
X017842Y003530D01*
X017878Y003493D01*
X017878Y003457D01*
X017842Y003420D01*
X017768Y003420D01*
X017732Y003457D01*
X017657Y003457D02*
X017621Y003420D01*
X017547Y003420D01*
X017511Y003457D01*
X017511Y003603D01*
X017547Y003640D01*
X017621Y003640D01*
X017657Y003603D01*
X017732Y003603D02*
X017768Y003640D01*
X017842Y003640D01*
X017842Y003530D02*
X017805Y003530D01*
X015256Y005320D02*
X015110Y005320D01*
X015256Y005467D01*
X015256Y005503D01*
X015220Y005540D01*
X015146Y005540D01*
X015110Y005503D01*
X015035Y005503D02*
X015035Y005430D01*
X014999Y005393D01*
X014889Y005393D01*
X014889Y005320D02*
X014889Y005540D01*
X014999Y005540D01*
X015035Y005503D01*
X014962Y005393D02*
X015035Y005320D01*
D13*
X000140Y003921D02*
X000140Y007779D01*
X005002Y007779D01*
X005042Y008370D02*
X008457Y008370D01*
X008486Y008714D02*
X008486Y002986D01*
X014057Y002986D01*
X014057Y008714D01*
X008486Y008714D01*
X005042Y008370D02*
X005042Y003330D01*
X008447Y003330D01*
X004992Y003921D02*
X000140Y003921D01*
X014352Y028906D02*
X016320Y028906D01*
X016320Y030474D01*
X014352Y030474D01*
X014352Y028906D01*
X016320Y029490D02*
X016293Y029492D01*
X016266Y029497D01*
X016240Y029507D01*
X016216Y029519D01*
X016194Y029535D01*
X016174Y029553D01*
X016157Y029575D01*
X016142Y029598D01*
X016132Y029623D01*
X016124Y029649D01*
X016120Y029676D01*
X016120Y029704D01*
X016124Y029731D01*
X016132Y029757D01*
X016142Y029782D01*
X016157Y029805D01*
X016174Y029827D01*
X016194Y029845D01*
X016216Y029861D01*
X016240Y029873D01*
X016266Y029883D01*
X016293Y029888D01*
X016320Y029890D01*
X021121Y031920D02*
X023481Y031920D01*
X023481Y034500D01*
X021121Y034500D01*
X022621Y034763D02*
X022621Y035707D01*
X023212Y035707D01*
X023999Y035707D02*
X024432Y035707D01*
X024590Y035550D01*
X024590Y034920D01*
X024432Y034763D01*
X023999Y034763D01*
X023212Y034763D02*
X022621Y034763D01*
X022621Y031582D02*
X023212Y031582D01*
X023999Y031582D02*
X024432Y031582D01*
X024590Y031425D01*
X024590Y030795D01*
X024432Y030638D01*
X023999Y030638D01*
X023212Y030638D02*
X022621Y030638D01*
X022621Y031582D01*
X024814Y020752D02*
X024656Y020595D01*
X024656Y019965D01*
X024814Y019808D01*
X025247Y019808D01*
X026034Y019808D02*
X026625Y019808D01*
X026625Y020752D01*
X026034Y020752D01*
X025247Y020752D02*
X024814Y020752D01*
D14*
X023671Y033210D03*
D15*
X024281Y036235D03*
X023816Y029955D03*
D16*
X025986Y023157D02*
X025986Y023133D01*
X025986Y022137D02*
X025986Y022113D01*
X025061Y021342D02*
X025061Y021318D01*
X018451Y021838D02*
X018451Y021862D01*
X013586Y029203D02*
X013586Y029227D01*
X013586Y030828D02*
X013586Y030852D01*
X018149Y003570D02*
X018173Y003570D01*
D17*
X016606Y004040D02*
X016155Y004040D01*
X016380Y003815D01*
X016380Y004115D01*
X016305Y008365D02*
X016155Y008515D01*
X016606Y008515D01*
X016606Y008365D02*
X016606Y008665D01*
X013696Y013505D02*
X013696Y013805D01*
X013696Y013655D02*
X013245Y013655D01*
X013395Y013505D01*
X012696Y013580D02*
X012621Y013505D01*
X012696Y013580D02*
X012696Y013730D01*
X012621Y013805D01*
X012320Y013805D01*
X012245Y013730D01*
X012245Y013580D01*
X012320Y013505D01*
X012395Y013505D01*
X012470Y013580D01*
X012470Y013805D01*
X014171Y014940D02*
X014171Y015940D01*
X015871Y015940D01*
X015871Y014940D01*
X014171Y014940D01*
X014261Y020340D02*
X014261Y021340D01*
X015961Y021340D01*
X015961Y020340D01*
X014261Y020340D01*
X013621Y022505D02*
X013546Y022505D01*
X013470Y022580D01*
X013470Y022730D01*
X013546Y022805D01*
X013621Y022805D01*
X013696Y022730D01*
X013696Y022580D01*
X013621Y022505D01*
X013470Y022580D02*
X013395Y022505D01*
X013320Y022505D01*
X013245Y022580D01*
X013245Y022730D01*
X013320Y022805D01*
X013395Y022805D01*
X013470Y022730D01*
X012696Y022655D02*
X012245Y022655D01*
X012395Y022505D01*
X012696Y022505D02*
X012696Y022805D01*
X012621Y022965D02*
X012696Y023040D01*
X012696Y023191D01*
X012621Y023266D01*
X012470Y023266D01*
X012395Y023191D01*
X012395Y023116D01*
X012470Y022965D01*
X012245Y022965D01*
X012245Y023266D01*
X011760Y025155D02*
X011760Y025605D01*
X011535Y025380D01*
X011835Y025380D01*
X011375Y025380D02*
X011375Y025230D01*
X011300Y025155D01*
X011150Y025155D01*
X011075Y025230D01*
X011075Y025380D02*
X011225Y025455D01*
X011300Y025455D01*
X011375Y025380D01*
X011375Y025605D02*
X011075Y025605D01*
X011075Y025380D01*
X010918Y025230D02*
X010843Y025230D01*
X010843Y025155D01*
X010918Y025155D01*
X010918Y025230D01*
X010918Y025155D02*
X010768Y025005D01*
X010608Y025155D02*
X010308Y025155D01*
X010608Y025455D01*
X010608Y025530D01*
X010533Y025605D01*
X010383Y025605D01*
X010308Y025530D01*
X009521Y014726D02*
X009370Y014726D01*
X009295Y014651D01*
X009295Y014576D01*
X009370Y014426D01*
X009145Y014426D01*
X009145Y014726D01*
X009521Y014726D02*
X009596Y014651D01*
X009596Y014501D01*
X009521Y014426D01*
X009596Y014266D02*
X009596Y013965D01*
X009596Y014116D02*
X009145Y014116D01*
X009295Y013965D01*
X009145Y013805D02*
X009145Y013505D01*
X009596Y013505D01*
X009370Y013505D02*
X009370Y013655D01*
X019181Y032390D02*
X020181Y032390D01*
X020181Y034090D01*
X019181Y034090D01*
X019181Y032390D01*
D18*
X014021Y025830D02*
X014221Y025630D01*
X014221Y023680D01*
X014021Y023480D01*
X009971Y023480D01*
X009971Y023830D01*
X009971Y025830D01*
X010021Y025830D01*
X014021Y025830D01*
X012321Y024690D02*
X012323Y024740D01*
X012329Y024790D01*
X012339Y024840D01*
X012352Y024888D01*
X012369Y024936D01*
X012390Y024982D01*
X012414Y025026D01*
X012442Y025068D01*
X012473Y025108D01*
X012507Y025145D01*
X012544Y025180D01*
X012583Y025211D01*
X012624Y025240D01*
X012668Y025265D01*
X012714Y025287D01*
X012761Y025305D01*
X012809Y025319D01*
X012858Y025330D01*
X012908Y025337D01*
X012958Y025340D01*
X013009Y025339D01*
X013059Y025334D01*
X013109Y025325D01*
X013157Y025313D01*
X013205Y025296D01*
X013251Y025276D01*
X013296Y025253D01*
X013339Y025226D01*
X013379Y025196D01*
X013417Y025163D01*
X013452Y025127D01*
X013485Y025088D01*
X013514Y025047D01*
X013540Y025004D01*
X013563Y024959D01*
X013582Y024912D01*
X013597Y024864D01*
X013609Y024815D01*
X013617Y024765D01*
X013621Y024715D01*
X013621Y024665D01*
X013617Y024615D01*
X013609Y024565D01*
X013597Y024516D01*
X013582Y024468D01*
X013563Y024421D01*
X013540Y024376D01*
X013514Y024333D01*
X013485Y024292D01*
X013452Y024253D01*
X013417Y024217D01*
X013379Y024184D01*
X013339Y024154D01*
X013296Y024127D01*
X013251Y024104D01*
X013205Y024084D01*
X013157Y024067D01*
X013109Y024055D01*
X013059Y024046D01*
X013009Y024041D01*
X012958Y024040D01*
X012908Y024043D01*
X012858Y024050D01*
X012809Y024061D01*
X012761Y024075D01*
X012714Y024093D01*
X012668Y024115D01*
X012624Y024140D01*
X012583Y024169D01*
X012544Y024200D01*
X012507Y024235D01*
X012473Y024272D01*
X012442Y024312D01*
X012414Y024354D01*
X012390Y024398D01*
X012369Y024444D01*
X012352Y024492D01*
X012339Y024540D01*
X012329Y024590D01*
X012323Y024640D01*
X012321Y024690D01*
X010271Y023380D02*
X009971Y023380D01*
X009971Y023480D01*
X009971Y023380D02*
X009971Y012830D01*
X010271Y012830D01*
X010271Y023380D01*
X009971Y023530D02*
X009969Y023560D01*
X009964Y023590D01*
X009955Y023619D01*
X009942Y023646D01*
X009927Y023672D01*
X009908Y023696D01*
X009887Y023717D01*
X009863Y023736D01*
X009837Y023751D01*
X009810Y023764D01*
X009781Y023773D01*
X009751Y023778D01*
X009721Y023780D01*
X008771Y023780D01*
X008771Y023830D01*
X008571Y023830D01*
X008571Y024830D01*
X008571Y025830D01*
X008771Y025830D01*
X009971Y025830D01*
X008571Y025830D02*
X008371Y025830D01*
X008371Y022780D01*
X008371Y013430D01*
X008371Y010380D01*
X008571Y010380D01*
X008571Y011380D01*
X008571Y012380D01*
X008571Y023830D01*
X008371Y023180D02*
X008369Y023150D01*
X008364Y023120D01*
X008355Y023091D01*
X008342Y023064D01*
X008327Y023038D01*
X008308Y023014D01*
X008287Y022993D01*
X008263Y022974D01*
X008237Y022959D01*
X008210Y022946D01*
X008181Y022937D01*
X008151Y022932D01*
X008121Y022930D01*
X006121Y022930D01*
X006095Y022928D01*
X006069Y022923D01*
X006044Y022915D01*
X006021Y022903D01*
X005999Y022889D01*
X005980Y022871D01*
X005962Y022852D01*
X005948Y022830D01*
X005936Y022807D01*
X005928Y022782D01*
X005923Y022756D01*
X005921Y022730D01*
X005921Y022630D01*
X005921Y013580D01*
X005921Y013480D01*
X005923Y013454D01*
X005928Y013428D01*
X005936Y013403D01*
X005948Y013380D01*
X005962Y013358D01*
X005980Y013339D01*
X005999Y013321D01*
X006021Y013307D01*
X006044Y013295D01*
X006069Y013287D01*
X006095Y013282D01*
X006121Y013280D01*
X008121Y013280D01*
X008151Y013278D01*
X008181Y013273D01*
X008210Y013264D01*
X008237Y013251D01*
X008263Y013236D01*
X008287Y013217D01*
X008308Y013196D01*
X008327Y013172D01*
X008342Y013146D01*
X008355Y013119D01*
X008364Y013090D01*
X008369Y013060D01*
X008371Y013030D01*
X008571Y012380D02*
X008771Y012380D01*
X008771Y012430D01*
X009721Y012430D01*
X009751Y012432D01*
X009781Y012437D01*
X009810Y012446D01*
X009837Y012459D01*
X009863Y012474D01*
X009887Y012493D01*
X009908Y012514D01*
X009927Y012538D01*
X009942Y012564D01*
X009955Y012591D01*
X009964Y012620D01*
X009969Y012650D01*
X009971Y012680D01*
X009971Y012730D02*
X014021Y012730D01*
X014221Y012530D01*
X014221Y010630D01*
X013971Y010380D01*
X010021Y010380D01*
X009971Y010380D01*
X008771Y010380D01*
X008571Y010380D01*
X009971Y010380D02*
X009971Y012380D01*
X009971Y012730D01*
X009971Y012830D01*
X012321Y011570D02*
X012323Y011620D01*
X012329Y011670D01*
X012339Y011720D01*
X012352Y011768D01*
X012369Y011816D01*
X012390Y011862D01*
X012414Y011906D01*
X012442Y011948D01*
X012473Y011988D01*
X012507Y012025D01*
X012544Y012060D01*
X012583Y012091D01*
X012624Y012120D01*
X012668Y012145D01*
X012714Y012167D01*
X012761Y012185D01*
X012809Y012199D01*
X012858Y012210D01*
X012908Y012217D01*
X012958Y012220D01*
X013009Y012219D01*
X013059Y012214D01*
X013109Y012205D01*
X013157Y012193D01*
X013205Y012176D01*
X013251Y012156D01*
X013296Y012133D01*
X013339Y012106D01*
X013379Y012076D01*
X013417Y012043D01*
X013452Y012007D01*
X013485Y011968D01*
X013514Y011927D01*
X013540Y011884D01*
X013563Y011839D01*
X013582Y011792D01*
X013597Y011744D01*
X013609Y011695D01*
X013617Y011645D01*
X013621Y011595D01*
X013621Y011545D01*
X013617Y011495D01*
X013609Y011445D01*
X013597Y011396D01*
X013582Y011348D01*
X013563Y011301D01*
X013540Y011256D01*
X013514Y011213D01*
X013485Y011172D01*
X013452Y011133D01*
X013417Y011097D01*
X013379Y011064D01*
X013339Y011034D01*
X013296Y011007D01*
X013251Y010984D01*
X013205Y010964D01*
X013157Y010947D01*
X013109Y010935D01*
X013059Y010926D01*
X013009Y010921D01*
X012958Y010920D01*
X012908Y010923D01*
X012858Y010930D01*
X012809Y010941D01*
X012761Y010955D01*
X012714Y010973D01*
X012668Y010995D01*
X012624Y011020D01*
X012583Y011049D01*
X012544Y011080D01*
X012507Y011115D01*
X012473Y011152D01*
X012442Y011192D01*
X012414Y011234D01*
X012390Y011278D01*
X012369Y011324D01*
X012352Y011372D01*
X012339Y011420D01*
X012329Y011470D01*
X012323Y011520D01*
X012321Y011570D01*
X015881Y008100D02*
X015881Y007600D01*
X016131Y007350D01*
X015881Y007100D01*
X015881Y006600D01*
X016131Y006350D01*
X015881Y006100D01*
X015881Y005600D01*
X016131Y005350D01*
X015881Y005100D01*
X015881Y004600D01*
X016131Y004350D01*
X016631Y004350D01*
X016881Y004600D01*
X016881Y005100D01*
X016631Y005350D01*
X016881Y005600D01*
X016881Y006100D01*
X016631Y006350D01*
X016881Y006600D01*
X016881Y007100D01*
X016631Y007350D01*
X016881Y007600D01*
X016881Y008100D01*
X016631Y008350D01*
X016131Y008350D01*
X015881Y008100D01*
X025376Y022625D02*
X025374Y022664D01*
X025368Y022703D01*
X025359Y022741D01*
X025346Y022778D01*
X025329Y022814D01*
X025309Y022847D01*
X025285Y022879D01*
X025259Y022908D01*
X024576Y022625D02*
X024578Y022586D01*
X024584Y022547D01*
X024593Y022509D01*
X024606Y022472D01*
X024623Y022436D01*
X024643Y022403D01*
X024667Y022371D01*
X024693Y022342D01*
X024576Y022625D02*
X024578Y022664D01*
X024584Y022703D01*
X024593Y022741D01*
X024606Y022778D01*
X024623Y022814D01*
X024643Y022847D01*
X024667Y022879D01*
X024693Y022908D01*
X025376Y022625D02*
X025374Y022586D01*
X025368Y022547D01*
X025359Y022509D01*
X025346Y022472D01*
X025329Y022436D01*
X025309Y022403D01*
X025285Y022371D01*
X025259Y022342D01*
D19*
X024731Y018180D02*
X024731Y016430D01*
X018731Y016430D01*
X018731Y018180D01*
X024731Y018180D01*
X024731Y016430D02*
X024731Y015680D01*
X018731Y015680D01*
X018731Y016430D01*
X024561Y028435D02*
X024561Y030435D01*
X026311Y030435D01*
X026311Y028435D01*
X024561Y028435D01*
X026311Y028435D02*
X027061Y028435D01*
X027061Y030435D01*
X026311Y030435D01*
D20*
X023541Y024215D02*
X023361Y024215D01*
X023361Y023825D01*
X023541Y023825D01*
X023541Y024215D01*
X023231Y024215D02*
X023231Y023825D01*
X023051Y023825D01*
X023051Y024215D01*
X023231Y024215D01*
X022911Y024215D02*
X022911Y023825D01*
X022731Y023825D01*
X022731Y024215D01*
X022911Y024215D01*
X022601Y024215D02*
X022601Y023825D01*
X022421Y023825D01*
X022421Y024215D01*
X022601Y024215D01*
X022281Y024215D02*
X022281Y023825D01*
X022101Y023825D01*
X022101Y024215D01*
X022281Y024215D01*
X021971Y024215D02*
X021971Y023825D01*
X021791Y023825D01*
X021791Y024215D01*
X021971Y024215D01*
X021661Y024215D02*
X021661Y023825D01*
X021481Y023825D01*
X021481Y024215D01*
X021661Y024215D01*
X021341Y024215D02*
X021341Y023825D01*
X021161Y023825D01*
X021161Y024215D01*
X021341Y024215D01*
X021031Y024215D02*
X021031Y023825D01*
X020851Y023825D01*
X020851Y024215D01*
X021031Y024215D01*
X020711Y024215D02*
X020711Y023825D01*
X020531Y023825D01*
X020531Y024215D01*
X020711Y024215D01*
X020401Y024215D02*
X020401Y023825D01*
X020221Y023825D01*
X020221Y024215D01*
X020401Y024215D01*
X020411Y023825D02*
X019911Y023325D01*
X019911Y023335D02*
X019521Y023335D01*
X019521Y023515D01*
X019911Y023515D01*
X019911Y023335D01*
X019911Y023205D02*
X019521Y023205D01*
X019521Y023025D01*
X019911Y023025D01*
X019911Y023205D01*
X019911Y022885D02*
X019521Y022885D01*
X019521Y022705D01*
X019911Y022705D01*
X019911Y022885D01*
X019911Y022575D02*
X019521Y022575D01*
X019521Y022395D01*
X019911Y022395D01*
X019911Y022575D01*
X019911Y022255D02*
X019521Y022255D01*
X019521Y022075D01*
X019911Y022075D01*
X019911Y022255D01*
X019911Y021945D02*
X019521Y021945D01*
X019521Y021765D01*
X019911Y021765D01*
X019911Y021945D01*
X019911Y021635D02*
X019521Y021635D01*
X019521Y021455D01*
X019911Y021455D01*
X019911Y021635D01*
X019911Y021315D02*
X019521Y021315D01*
X019521Y021135D01*
X019911Y021135D01*
X019911Y021315D01*
X019911Y021005D02*
X019521Y021005D01*
X019521Y020825D01*
X019911Y020825D01*
X019911Y021005D01*
X019911Y020685D02*
X019521Y020685D01*
X019521Y020505D01*
X019911Y020505D01*
X019911Y020685D01*
X019911Y020375D02*
X019521Y020375D01*
X019521Y020195D01*
X019911Y020195D01*
X019911Y020375D01*
X019911Y019885D02*
X019911Y023825D01*
X023851Y023825D01*
X023851Y019885D01*
X019911Y019885D01*
X020221Y019885D02*
X020221Y019495D01*
X020401Y019495D01*
X020401Y019885D01*
X020221Y019885D01*
X020531Y019885D02*
X020531Y019495D01*
X020711Y019495D01*
X020711Y019885D01*
X020531Y019885D01*
X020851Y019885D02*
X020851Y019495D01*
X021031Y019495D01*
X021031Y019885D01*
X020851Y019885D01*
X021161Y019885D02*
X021161Y019495D01*
X021341Y019495D01*
X021341Y019885D01*
X021161Y019885D01*
X021481Y019885D02*
X021481Y019495D01*
X021661Y019495D01*
X021661Y019885D01*
X021481Y019885D01*
X021791Y019885D02*
X021791Y019495D01*
X021971Y019495D01*
X021971Y019885D01*
X021791Y019885D01*
X022101Y019885D02*
X022101Y019495D01*
X022281Y019495D01*
X022281Y019885D01*
X022101Y019885D01*
X022421Y019885D02*
X022421Y019495D01*
X022601Y019495D01*
X022601Y019885D01*
X022421Y019885D01*
X022731Y019885D02*
X022731Y019495D01*
X022911Y019495D01*
X022911Y019885D01*
X022731Y019885D01*
X023051Y019885D02*
X023051Y019495D01*
X023231Y019495D01*
X023231Y019885D01*
X023051Y019885D01*
X023361Y019885D02*
X023361Y019495D01*
X023541Y019495D01*
X023541Y019885D01*
X023361Y019885D01*
X023851Y020195D02*
X023851Y020375D01*
X024241Y020375D01*
X024241Y020195D01*
X023851Y020195D01*
X023851Y020505D02*
X024241Y020505D01*
X024241Y020685D01*
X023851Y020685D01*
X023851Y020505D01*
X023851Y020825D02*
X024241Y020825D01*
X024241Y021005D01*
X023851Y021005D01*
X023851Y020825D01*
X023851Y021135D02*
X024241Y021135D01*
X024241Y021315D01*
X023851Y021315D01*
X023851Y021135D01*
X023851Y021455D02*
X024241Y021455D01*
X024241Y021635D01*
X023851Y021635D01*
X023851Y021455D01*
X023851Y021765D02*
X024241Y021765D01*
X024241Y021945D01*
X023851Y021945D01*
X023851Y021765D01*
X023851Y022075D02*
X024241Y022075D01*
X024241Y022255D01*
X023851Y022255D01*
X023851Y022075D01*
X023851Y022395D02*
X024241Y022395D01*
X024241Y022575D01*
X023851Y022575D01*
X023851Y022395D01*
X023851Y022705D02*
X024241Y022705D01*
X024241Y022885D01*
X023851Y022885D01*
X023851Y022705D01*
X023851Y023025D02*
X024241Y023025D01*
X024241Y023205D01*
X023851Y023205D01*
X023851Y023025D01*
X023851Y023335D02*
X024241Y023335D01*
X024241Y023515D01*
X023851Y023515D01*
X023851Y023335D01*
D21*
X010121Y018105D03*
D22*
X008471Y018105D03*
D23*
X011696Y017590D03*
X011696Y018670D03*
X011696Y019750D03*
X011696Y020830D03*
X011696Y021910D03*
X011696Y016510D03*
X011696Y015430D03*
X011696Y014350D03*
D24*
X011196Y014890D03*
X011196Y015970D03*
X011196Y017050D03*
X011196Y018130D03*
X011196Y019210D03*
X011196Y020290D03*
X011196Y021370D03*
D25*
X024221Y018870D03*
D26*
X011505Y027678D02*
X011505Y027927D01*
X011053Y027927D01*
X011053Y027681D01*
X010767Y027475D02*
X009709Y027475D01*
X009625Y027825D02*
X009625Y027907D01*
X008685Y028009D01*
X008685Y028213D01*
X009625Y028316D01*
X009625Y028397D01*
X008542Y028295D01*
X008523Y028291D01*
X008504Y028285D01*
X008487Y028275D01*
X008471Y028263D01*
X008458Y028248D01*
X008447Y028231D01*
X008440Y028213D01*
X008440Y027989D02*
X008447Y027971D01*
X008458Y027954D01*
X008471Y027939D01*
X008487Y027927D01*
X008504Y027917D01*
X008523Y027911D01*
X008542Y027907D01*
X009625Y027825D01*
X010136Y028581D02*
X008542Y028500D01*
X008542Y028499D02*
X008526Y028501D01*
X008511Y028505D01*
X008496Y028513D01*
X008484Y028523D01*
X008474Y028535D01*
X008466Y028550D01*
X008462Y028565D01*
X008460Y028581D01*
X008462Y028597D01*
X008466Y028612D01*
X008474Y028627D01*
X008484Y028639D01*
X008496Y028649D01*
X008511Y028657D01*
X008526Y028661D01*
X008542Y028663D01*
X009891Y028745D01*
X009891Y029235D01*
X008542Y029317D01*
X008526Y029319D01*
X008511Y029323D01*
X008496Y029331D01*
X008484Y029341D01*
X008474Y029353D01*
X008466Y029368D01*
X008462Y029383D01*
X008460Y029399D01*
X008460Y029399D01*
X008462Y029415D01*
X008466Y029430D01*
X008474Y029445D01*
X008484Y029457D01*
X008496Y029467D01*
X008511Y029475D01*
X008526Y029479D01*
X008542Y029481D01*
X010136Y029399D01*
X010154Y029396D01*
X010171Y029389D01*
X010186Y029380D01*
X010199Y029367D01*
X010208Y029352D01*
X010215Y029335D01*
X010218Y029317D01*
X010218Y028663D01*
X010215Y028645D01*
X010208Y028628D01*
X010199Y028613D01*
X010186Y028600D01*
X010171Y028591D01*
X010154Y028584D01*
X010136Y028581D01*
X009625Y029583D02*
X009625Y029664D01*
X008685Y029767D01*
X008685Y029971D01*
X009625Y030073D01*
X009625Y030155D01*
X008542Y030073D01*
X008542Y030074D02*
X008523Y030070D01*
X008504Y030064D01*
X008487Y030054D01*
X008471Y030042D01*
X008458Y030027D01*
X008447Y030010D01*
X008440Y029992D01*
X008440Y029767D02*
X008447Y029749D01*
X008458Y029732D01*
X008471Y029717D01*
X008487Y029705D01*
X008504Y029695D01*
X008523Y029689D01*
X008542Y029685D01*
X009625Y029583D01*
X009729Y030505D02*
X010728Y030505D01*
X011053Y030299D02*
X011053Y030013D01*
X011498Y030013D01*
X011498Y030299D01*
X008440Y029991D02*
X008431Y029954D01*
X008425Y029917D01*
X008423Y029879D01*
X008425Y029841D01*
X008431Y029804D01*
X008440Y029767D01*
X008603Y030502D02*
X008011Y030502D01*
X008011Y027478D01*
X008603Y027478D01*
X008440Y027989D02*
X008431Y028026D01*
X008425Y028063D01*
X008423Y028101D01*
X008425Y028139D01*
X008431Y028176D01*
X008440Y028213D01*
X008011Y027478D02*
X008011Y027478D01*
X008009Y027475D02*
X008009Y030505D01*
D27*
X001925Y005850D03*
M02*
