%
M48
M72
T01C0.0197
T02C0.0236
T03C0.0320
T04C0.0354
T05C0.0394
T06C0.0400
T07C0.0787
T08C0.1260
T09C0.1300
%
T01
X14411Y29215
X13916Y31410
X20631Y32510
X20631Y33010
X21131Y33010
X21131Y32510
X21631Y32510
X21631Y33010
X22131Y33010
X22631Y33010
X22631Y32510
X22131Y32510
X22131Y33510
X22631Y33510
X22631Y34010
X22131Y34010
X21631Y34010
X21631Y33510
X21131Y33510
X21131Y34010
X20631Y34010
X20631Y33510
X22156Y36235
X21541Y29955
T02
X8851Y9000
X15621Y17590
X18781Y22410
X18321Y22890
X17951Y23410
X16121Y22920
X14961Y27950
X13241Y29700
X12311Y30060
X12591Y28520
X20621Y23410
X20441Y21850
X22241Y22890
X22831Y22400
X23441Y22380
X22721Y18660
X21791Y15440
X26191Y19500
X26321Y22615
X20211Y5350
X18161Y2720
X22721Y4850
T03
X24976Y22125
X24976Y23125
T04
X13351Y5850
X13351Y4850
X10341Y28124
X10341Y29856
T05
X19231Y16930
X20231Y16930
X21231Y16930
X22231Y16930
X23231Y16930
X24231Y16930
X25811Y28935
X25811Y29935
T06
X13471Y21910
X13471Y20830
X13471Y19750
X13471Y18670
X13471Y17590
X13471Y16510
X13471Y15430
X13471Y14350
X12471Y14890
X12471Y15970
X12471Y17050
X12471Y18130
X12471Y19210
X12471Y20290
X12471Y21370
X16381Y7850
X16381Y6850
X16381Y5850
X16381Y4850
T07
X11351Y3850
X11351Y7850
T08
X9461Y1150
X26461Y1150
X26461Y38650
X9461Y38650
T09
X12971Y24690
X12971Y11570
M30
