G75*
%MOIN*%
%OFA0B0*%
%FSLAX24Y24*%
%IPPOS*%
%LPD*%
%AMOC8*
5,1,8,0,0,1.08239X$1,22.5*
%
%ADD10C,0.0100*%
%ADD11C,0.0000*%
D10*
X008461Y000150D02*
X008461Y039650D01*
X027461Y039650D01*
X027461Y000150D01*
X008461Y000150D01*
D11*
X008831Y001150D02*
X008833Y001200D01*
X008839Y001250D01*
X008849Y001299D01*
X008863Y001347D01*
X008880Y001394D01*
X008901Y001439D01*
X008926Y001483D01*
X008954Y001524D01*
X008986Y001563D01*
X009020Y001600D01*
X009057Y001634D01*
X009097Y001664D01*
X009139Y001691D01*
X009183Y001715D01*
X009229Y001736D01*
X009276Y001752D01*
X009324Y001765D01*
X009374Y001774D01*
X009423Y001779D01*
X009474Y001780D01*
X009524Y001777D01*
X009573Y001770D01*
X009622Y001759D01*
X009670Y001744D01*
X009716Y001726D01*
X009761Y001704D01*
X009804Y001678D01*
X009845Y001649D01*
X009884Y001617D01*
X009920Y001582D01*
X009952Y001544D01*
X009982Y001504D01*
X010009Y001461D01*
X010032Y001417D01*
X010051Y001371D01*
X010067Y001323D01*
X010079Y001274D01*
X010087Y001225D01*
X010091Y001175D01*
X010091Y001125D01*
X010087Y001075D01*
X010079Y001026D01*
X010067Y000977D01*
X010051Y000929D01*
X010032Y000883D01*
X010009Y000839D01*
X009982Y000796D01*
X009952Y000756D01*
X009920Y000718D01*
X009884Y000683D01*
X009845Y000651D01*
X009804Y000622D01*
X009761Y000596D01*
X009716Y000574D01*
X009670Y000556D01*
X009622Y000541D01*
X009573Y000530D01*
X009524Y000523D01*
X009474Y000520D01*
X009423Y000521D01*
X009374Y000526D01*
X009324Y000535D01*
X009276Y000548D01*
X009229Y000564D01*
X009183Y000585D01*
X009139Y000609D01*
X009097Y000636D01*
X009057Y000666D01*
X009020Y000700D01*
X008986Y000737D01*
X008954Y000776D01*
X008926Y000817D01*
X008901Y000861D01*
X008880Y000906D01*
X008863Y000953D01*
X008849Y001001D01*
X008839Y001050D01*
X008833Y001100D01*
X008831Y001150D01*
X010957Y003850D02*
X010959Y003889D01*
X010965Y003928D01*
X010975Y003966D01*
X010988Y004003D01*
X011005Y004038D01*
X011025Y004072D01*
X011049Y004103D01*
X011076Y004132D01*
X011105Y004158D01*
X011137Y004181D01*
X011171Y004201D01*
X011207Y004217D01*
X011244Y004229D01*
X011283Y004238D01*
X011322Y004243D01*
X011361Y004244D01*
X011400Y004241D01*
X011439Y004234D01*
X011476Y004223D01*
X011513Y004209D01*
X011548Y004191D01*
X011581Y004170D01*
X011612Y004145D01*
X011640Y004118D01*
X011665Y004088D01*
X011687Y004055D01*
X011706Y004021D01*
X011721Y003985D01*
X011733Y003947D01*
X011741Y003909D01*
X011745Y003870D01*
X011745Y003830D01*
X011741Y003791D01*
X011733Y003753D01*
X011721Y003715D01*
X011706Y003679D01*
X011687Y003645D01*
X011665Y003612D01*
X011640Y003582D01*
X011612Y003555D01*
X011581Y003530D01*
X011548Y003509D01*
X011513Y003491D01*
X011476Y003477D01*
X011439Y003466D01*
X011400Y003459D01*
X011361Y003456D01*
X011322Y003457D01*
X011283Y003462D01*
X011244Y003471D01*
X011207Y003483D01*
X011171Y003499D01*
X011137Y003519D01*
X011105Y003542D01*
X011076Y003568D01*
X011049Y003597D01*
X011025Y003628D01*
X011005Y003662D01*
X010988Y003697D01*
X010975Y003734D01*
X010965Y003772D01*
X010959Y003811D01*
X010957Y003850D01*
X010957Y007850D02*
X010959Y007889D01*
X010965Y007928D01*
X010975Y007966D01*
X010988Y008003D01*
X011005Y008038D01*
X011025Y008072D01*
X011049Y008103D01*
X011076Y008132D01*
X011105Y008158D01*
X011137Y008181D01*
X011171Y008201D01*
X011207Y008217D01*
X011244Y008229D01*
X011283Y008238D01*
X011322Y008243D01*
X011361Y008244D01*
X011400Y008241D01*
X011439Y008234D01*
X011476Y008223D01*
X011513Y008209D01*
X011548Y008191D01*
X011581Y008170D01*
X011612Y008145D01*
X011640Y008118D01*
X011665Y008088D01*
X011687Y008055D01*
X011706Y008021D01*
X011721Y007985D01*
X011733Y007947D01*
X011741Y007909D01*
X011745Y007870D01*
X011745Y007830D01*
X011741Y007791D01*
X011733Y007753D01*
X011721Y007715D01*
X011706Y007679D01*
X011687Y007645D01*
X011665Y007612D01*
X011640Y007582D01*
X011612Y007555D01*
X011581Y007530D01*
X011548Y007509D01*
X011513Y007491D01*
X011476Y007477D01*
X011439Y007466D01*
X011400Y007459D01*
X011361Y007456D01*
X011322Y007457D01*
X011283Y007462D01*
X011244Y007471D01*
X011207Y007483D01*
X011171Y007499D01*
X011137Y007519D01*
X011105Y007542D01*
X011076Y007568D01*
X011049Y007597D01*
X011025Y007628D01*
X011005Y007662D01*
X010988Y007697D01*
X010975Y007734D01*
X010965Y007772D01*
X010959Y007811D01*
X010957Y007850D01*
X010164Y028124D02*
X010166Y028150D01*
X010172Y028176D01*
X010182Y028201D01*
X010195Y028224D01*
X010211Y028244D01*
X010231Y028262D01*
X010253Y028277D01*
X010276Y028289D01*
X010302Y028297D01*
X010328Y028301D01*
X010354Y028301D01*
X010380Y028297D01*
X010406Y028289D01*
X010430Y028277D01*
X010451Y028262D01*
X010471Y028244D01*
X010487Y028224D01*
X010500Y028201D01*
X010510Y028176D01*
X010516Y028150D01*
X010518Y028124D01*
X010516Y028098D01*
X010510Y028072D01*
X010500Y028047D01*
X010487Y028024D01*
X010471Y028004D01*
X010451Y027986D01*
X010429Y027971D01*
X010406Y027959D01*
X010380Y027951D01*
X010354Y027947D01*
X010328Y027947D01*
X010302Y027951D01*
X010276Y027959D01*
X010252Y027971D01*
X010231Y027986D01*
X010211Y028004D01*
X010195Y028024D01*
X010182Y028047D01*
X010172Y028072D01*
X010166Y028098D01*
X010164Y028124D01*
X010164Y029856D02*
X010166Y029882D01*
X010172Y029908D01*
X010182Y029933D01*
X010195Y029956D01*
X010211Y029976D01*
X010231Y029994D01*
X010253Y030009D01*
X010276Y030021D01*
X010302Y030029D01*
X010328Y030033D01*
X010354Y030033D01*
X010380Y030029D01*
X010406Y030021D01*
X010430Y030009D01*
X010451Y029994D01*
X010471Y029976D01*
X010487Y029956D01*
X010500Y029933D01*
X010510Y029908D01*
X010516Y029882D01*
X010518Y029856D01*
X010516Y029830D01*
X010510Y029804D01*
X010500Y029779D01*
X010487Y029756D01*
X010471Y029736D01*
X010451Y029718D01*
X010429Y029703D01*
X010406Y029691D01*
X010380Y029683D01*
X010354Y029679D01*
X010328Y029679D01*
X010302Y029683D01*
X010276Y029691D01*
X010252Y029703D01*
X010231Y029718D01*
X010211Y029736D01*
X010195Y029756D01*
X010182Y029779D01*
X010172Y029804D01*
X010166Y029830D01*
X010164Y029856D01*
X008831Y038650D02*
X008833Y038700D01*
X008839Y038750D01*
X008849Y038799D01*
X008863Y038847D01*
X008880Y038894D01*
X008901Y038939D01*
X008926Y038983D01*
X008954Y039024D01*
X008986Y039063D01*
X009020Y039100D01*
X009057Y039134D01*
X009097Y039164D01*
X009139Y039191D01*
X009183Y039215D01*
X009229Y039236D01*
X009276Y039252D01*
X009324Y039265D01*
X009374Y039274D01*
X009423Y039279D01*
X009474Y039280D01*
X009524Y039277D01*
X009573Y039270D01*
X009622Y039259D01*
X009670Y039244D01*
X009716Y039226D01*
X009761Y039204D01*
X009804Y039178D01*
X009845Y039149D01*
X009884Y039117D01*
X009920Y039082D01*
X009952Y039044D01*
X009982Y039004D01*
X010009Y038961D01*
X010032Y038917D01*
X010051Y038871D01*
X010067Y038823D01*
X010079Y038774D01*
X010087Y038725D01*
X010091Y038675D01*
X010091Y038625D01*
X010087Y038575D01*
X010079Y038526D01*
X010067Y038477D01*
X010051Y038429D01*
X010032Y038383D01*
X010009Y038339D01*
X009982Y038296D01*
X009952Y038256D01*
X009920Y038218D01*
X009884Y038183D01*
X009845Y038151D01*
X009804Y038122D01*
X009761Y038096D01*
X009716Y038074D01*
X009670Y038056D01*
X009622Y038041D01*
X009573Y038030D01*
X009524Y038023D01*
X009474Y038020D01*
X009423Y038021D01*
X009374Y038026D01*
X009324Y038035D01*
X009276Y038048D01*
X009229Y038064D01*
X009183Y038085D01*
X009139Y038109D01*
X009097Y038136D01*
X009057Y038166D01*
X009020Y038200D01*
X008986Y038237D01*
X008954Y038276D01*
X008926Y038317D01*
X008901Y038361D01*
X008880Y038406D01*
X008863Y038453D01*
X008849Y038501D01*
X008839Y038550D01*
X008833Y038600D01*
X008831Y038650D01*
X025831Y038650D02*
X025833Y038700D01*
X025839Y038750D01*
X025849Y038799D01*
X025863Y038847D01*
X025880Y038894D01*
X025901Y038939D01*
X025926Y038983D01*
X025954Y039024D01*
X025986Y039063D01*
X026020Y039100D01*
X026057Y039134D01*
X026097Y039164D01*
X026139Y039191D01*
X026183Y039215D01*
X026229Y039236D01*
X026276Y039252D01*
X026324Y039265D01*
X026374Y039274D01*
X026423Y039279D01*
X026474Y039280D01*
X026524Y039277D01*
X026573Y039270D01*
X026622Y039259D01*
X026670Y039244D01*
X026716Y039226D01*
X026761Y039204D01*
X026804Y039178D01*
X026845Y039149D01*
X026884Y039117D01*
X026920Y039082D01*
X026952Y039044D01*
X026982Y039004D01*
X027009Y038961D01*
X027032Y038917D01*
X027051Y038871D01*
X027067Y038823D01*
X027079Y038774D01*
X027087Y038725D01*
X027091Y038675D01*
X027091Y038625D01*
X027087Y038575D01*
X027079Y038526D01*
X027067Y038477D01*
X027051Y038429D01*
X027032Y038383D01*
X027009Y038339D01*
X026982Y038296D01*
X026952Y038256D01*
X026920Y038218D01*
X026884Y038183D01*
X026845Y038151D01*
X026804Y038122D01*
X026761Y038096D01*
X026716Y038074D01*
X026670Y038056D01*
X026622Y038041D01*
X026573Y038030D01*
X026524Y038023D01*
X026474Y038020D01*
X026423Y038021D01*
X026374Y038026D01*
X026324Y038035D01*
X026276Y038048D01*
X026229Y038064D01*
X026183Y038085D01*
X026139Y038109D01*
X026097Y038136D01*
X026057Y038166D01*
X026020Y038200D01*
X025986Y038237D01*
X025954Y038276D01*
X025926Y038317D01*
X025901Y038361D01*
X025880Y038406D01*
X025863Y038453D01*
X025849Y038501D01*
X025839Y038550D01*
X025833Y038600D01*
X025831Y038650D01*
X025831Y001150D02*
X025833Y001200D01*
X025839Y001250D01*
X025849Y001299D01*
X025863Y001347D01*
X025880Y001394D01*
X025901Y001439D01*
X025926Y001483D01*
X025954Y001524D01*
X025986Y001563D01*
X026020Y001600D01*
X026057Y001634D01*
X026097Y001664D01*
X026139Y001691D01*
X026183Y001715D01*
X026229Y001736D01*
X026276Y001752D01*
X026324Y001765D01*
X026374Y001774D01*
X026423Y001779D01*
X026474Y001780D01*
X026524Y001777D01*
X026573Y001770D01*
X026622Y001759D01*
X026670Y001744D01*
X026716Y001726D01*
X026761Y001704D01*
X026804Y001678D01*
X026845Y001649D01*
X026884Y001617D01*
X026920Y001582D01*
X026952Y001544D01*
X026982Y001504D01*
X027009Y001461D01*
X027032Y001417D01*
X027051Y001371D01*
X027067Y001323D01*
X027079Y001274D01*
X027087Y001225D01*
X027091Y001175D01*
X027091Y001125D01*
X027087Y001075D01*
X027079Y001026D01*
X027067Y000977D01*
X027051Y000929D01*
X027032Y000883D01*
X027009Y000839D01*
X026982Y000796D01*
X026952Y000756D01*
X026920Y000718D01*
X026884Y000683D01*
X026845Y000651D01*
X026804Y000622D01*
X026761Y000596D01*
X026716Y000574D01*
X026670Y000556D01*
X026622Y000541D01*
X026573Y000530D01*
X026524Y000523D01*
X026474Y000520D01*
X026423Y000521D01*
X026374Y000526D01*
X026324Y000535D01*
X026276Y000548D01*
X026229Y000564D01*
X026183Y000585D01*
X026139Y000609D01*
X026097Y000636D01*
X026057Y000666D01*
X026020Y000700D01*
X025986Y000737D01*
X025954Y000776D01*
X025926Y000817D01*
X025901Y000861D01*
X025880Y000906D01*
X025863Y000953D01*
X025849Y001001D01*
X025839Y001050D01*
X025833Y001100D01*
X025831Y001150D01*
M02*
