G75*
%MOIN*%
%OFA0B0*%
%FSLAX24Y24*%
%IPPOS*%
%LPD*%
%AMOC8*
5,1,8,0,0,1.08239X$1,22.5*
%
%ADD10C,0.0520*%
%ADD11C,0.0594*%
%ADD12OC8,0.0600*%
%ADD13C,0.2000*%
%ADD14C,0.0554*%
%ADD15C,0.0600*%
%ADD16C,0.0357*%
%ADD17C,0.0396*%
%ADD18C,0.0160*%
%ADD19C,0.0240*%
D10*
X024976Y022125D03*
X024976Y023125D03*
D11*
X025514Y028935D02*
X026107Y028935D01*
X026107Y029935D02*
X025514Y029935D01*
X024231Y017227D02*
X024231Y016633D01*
X023231Y016633D02*
X023231Y017227D01*
X022231Y017227D02*
X022231Y016633D01*
X021231Y016633D02*
X021231Y017227D01*
X020231Y017227D02*
X020231Y016633D01*
X019231Y016633D02*
X019231Y017227D01*
D12*
X013471Y017590D03*
X013471Y018670D03*
X013471Y019750D03*
X013471Y020830D03*
X013471Y021910D03*
X012471Y021370D03*
X012471Y020290D03*
X012471Y019210D03*
X012471Y018130D03*
X012471Y017050D03*
X012471Y015970D03*
X012471Y014890D03*
X013471Y014350D03*
X013471Y015430D03*
X013471Y016510D03*
D13*
X012971Y011570D03*
X012971Y024690D03*
D14*
X013351Y005850D03*
X013351Y004850D03*
D15*
X016081Y004850D02*
X016681Y004850D01*
X016681Y005850D02*
X016081Y005850D01*
X016081Y006850D02*
X016681Y006850D01*
X016681Y007850D02*
X016081Y007850D01*
D16*
X014411Y029215D03*
X013916Y031410D03*
X020631Y032510D03*
X020631Y033010D03*
X021131Y033010D03*
X021131Y032510D03*
X021631Y032510D03*
X021631Y033010D03*
X022131Y033010D03*
X022631Y033010D03*
X022631Y032510D03*
X022131Y032510D03*
X022131Y033510D03*
X022631Y033510D03*
X022631Y034010D03*
X022131Y034010D03*
X021631Y034010D03*
X021631Y033510D03*
X021131Y033510D03*
X021131Y034010D03*
X020631Y034010D03*
X020631Y033510D03*
X022156Y036235D03*
X021541Y029955D03*
D17*
X020621Y023410D03*
X020441Y021850D03*
X018781Y022410D03*
X018321Y022890D03*
X017951Y023410D03*
X016121Y022920D03*
X014961Y027950D03*
X013241Y029700D03*
X012311Y030060D03*
X012591Y028520D03*
X015621Y017590D03*
X021791Y015440D03*
X022721Y018660D03*
X022831Y022400D03*
X023441Y022380D03*
X022241Y022890D03*
X026191Y019500D03*
X026321Y022615D03*
X020211Y005350D03*
X018161Y002720D03*
X022721Y004850D03*
X008851Y009000D03*
D18*
X008711Y008670D02*
X008711Y001914D01*
X008979Y002117D01*
X009361Y002225D01*
X009756Y002189D01*
X010111Y002012D01*
X010379Y001719D01*
X010522Y001348D01*
X010522Y000952D01*
X010379Y000581D01*
X010213Y000400D01*
X025692Y000400D01*
X025663Y000422D01*
X025454Y000760D01*
X025381Y001150D01*
X025454Y001540D01*
X025663Y001878D01*
X025979Y002117D01*
X026361Y002225D01*
X026756Y002189D01*
X027111Y002012D01*
X027211Y001903D01*
X027211Y027336D01*
X027188Y027281D01*
X027109Y027203D01*
X025919Y026013D01*
X025816Y025970D01*
X016647Y025970D01*
X015111Y024434D01*
X015111Y021454D01*
X015068Y021351D01*
X014989Y021273D01*
X014309Y020593D01*
X014206Y020550D01*
X013841Y020550D01*
X013661Y020370D01*
X013280Y020370D01*
X013011Y020639D01*
X013011Y021021D01*
X013280Y021290D01*
X013661Y021290D01*
X013841Y021110D01*
X014035Y021110D01*
X014551Y021626D01*
X014551Y024606D01*
X014593Y024709D01*
X016293Y026409D01*
X016372Y026487D01*
X016475Y026530D01*
X025645Y026530D01*
X026671Y027556D01*
X026671Y029504D01*
X026515Y029660D01*
X026479Y029660D01*
X026366Y029548D01*
X026198Y029478D01*
X025423Y029478D01*
X025255Y029548D01*
X025126Y029676D01*
X025057Y029844D01*
X025057Y030026D01*
X025126Y030194D01*
X025255Y030322D01*
X025423Y030392D01*
X026198Y030392D01*
X026366Y030322D01*
X026469Y030220D01*
X026686Y030220D01*
X026789Y030177D01*
X026868Y030099D01*
X027188Y029779D01*
X027211Y029724D01*
X027211Y037897D01*
X027111Y037788D01*
X026756Y037611D01*
X026361Y037575D01*
X025979Y037683D01*
X025663Y037922D01*
X025454Y038260D01*
X025381Y038650D01*
X025454Y039040D01*
X025663Y039378D01*
X025692Y039400D01*
X010213Y039400D01*
X010379Y039219D01*
X010522Y038848D01*
X010522Y038452D01*
X010379Y038081D01*
X010111Y037788D01*
X009756Y037611D01*
X009361Y037575D01*
X008979Y037683D01*
X008718Y037880D01*
X008711Y032924D01*
X008711Y009330D01*
X008779Y009358D01*
X008922Y009358D01*
X009053Y009304D01*
X009117Y009240D01*
X011438Y009240D01*
X011527Y009203D01*
X011594Y009136D01*
X012640Y008090D01*
X015682Y008090D01*
X015691Y008111D01*
X015820Y008240D01*
X015989Y008310D01*
X016772Y008310D01*
X016941Y008240D01*
X017071Y008111D01*
X017141Y007941D01*
X017141Y007758D01*
X017140Y007758D02*
X022481Y007758D01*
X022481Y007600D02*
X017075Y007600D01*
X017071Y007589D02*
X017141Y007758D01*
X017141Y007917D02*
X022481Y007917D01*
X022481Y008075D02*
X017085Y008075D01*
X016948Y008234D02*
X022481Y008234D01*
X022481Y008392D02*
X012338Y008392D01*
X012180Y008551D02*
X022481Y008551D01*
X022481Y008709D02*
X012021Y008709D01*
X011863Y008868D02*
X022481Y008868D01*
X022481Y009026D02*
X011704Y009026D01*
X011546Y009185D02*
X022481Y009185D01*
X022481Y009343D02*
X008958Y009343D01*
X008743Y009343D02*
X008711Y009343D01*
X008711Y009502D02*
X022481Y009502D01*
X022481Y009660D02*
X008711Y009660D01*
X008711Y009819D02*
X022481Y009819D01*
X022481Y009977D02*
X008711Y009977D01*
X008711Y010136D02*
X022481Y010136D01*
X022481Y010294D02*
X008711Y010294D01*
X008711Y010453D02*
X012659Y010453D01*
X012523Y010489D02*
X012818Y010410D01*
X013123Y010410D01*
X013418Y010489D01*
X013683Y010642D01*
X013899Y010858D01*
X014052Y011122D01*
X014131Y011417D01*
X014131Y011723D01*
X014052Y012018D01*
X013899Y012282D01*
X013683Y012498D01*
X013418Y012651D01*
X013123Y012730D01*
X012818Y012730D01*
X012523Y012651D01*
X012258Y012498D01*
X012042Y012282D01*
X011890Y012018D01*
X011811Y011723D01*
X011811Y011417D01*
X011890Y011122D01*
X012042Y010858D01*
X012258Y010642D01*
X012523Y010489D01*
X012312Y010611D02*
X008711Y010611D01*
X008711Y010770D02*
X012131Y010770D01*
X012002Y010928D02*
X008711Y010928D01*
X008711Y011087D02*
X011910Y011087D01*
X011857Y011245D02*
X008711Y011245D01*
X008711Y011404D02*
X011814Y011404D01*
X011811Y011562D02*
X008711Y011562D01*
X008711Y011721D02*
X011811Y011721D01*
X011853Y011879D02*
X008711Y011879D01*
X008711Y012038D02*
X011901Y012038D01*
X011993Y012196D02*
X008711Y012196D01*
X008711Y012355D02*
X012115Y012355D01*
X012284Y012513D02*
X008711Y012513D01*
X008711Y012672D02*
X012600Y012672D01*
X013342Y012672D02*
X022481Y012672D01*
X022481Y012830D02*
X008711Y012830D01*
X008711Y012989D02*
X022481Y012989D01*
X022481Y013147D02*
X008711Y013147D01*
X008711Y013306D02*
X022481Y013306D01*
X022481Y013464D02*
X008711Y013464D01*
X008711Y013623D02*
X022481Y013623D01*
X022481Y013781D02*
X008711Y013781D01*
X008711Y013940D02*
X013231Y013940D01*
X013280Y013890D02*
X013011Y014159D01*
X013011Y014541D01*
X013280Y014810D01*
X013661Y014810D01*
X013931Y014541D01*
X013931Y014159D01*
X013661Y013890D01*
X013280Y013890D01*
X013072Y014098D02*
X008711Y014098D01*
X008711Y014257D02*
X013011Y014257D01*
X013011Y014415D02*
X008711Y014415D01*
X008711Y014574D02*
X012137Y014574D01*
X012011Y014699D02*
X012280Y014430D01*
X012661Y014430D01*
X012931Y014699D01*
X012931Y015081D01*
X012661Y015350D01*
X012280Y015350D01*
X012011Y015081D01*
X012011Y014699D01*
X012011Y014732D02*
X008711Y014732D01*
X008711Y014891D02*
X012011Y014891D01*
X012011Y015049D02*
X008711Y015049D01*
X008711Y015208D02*
X012138Y015208D01*
X012280Y015510D02*
X012011Y015779D01*
X012011Y016161D01*
X012280Y016430D01*
X012661Y016430D01*
X012931Y016161D01*
X012931Y015779D01*
X012661Y015510D01*
X012280Y015510D01*
X012266Y015525D02*
X008711Y015525D01*
X008711Y015683D02*
X012107Y015683D01*
X012011Y015842D02*
X008711Y015842D01*
X008711Y016000D02*
X012011Y016000D01*
X012011Y016159D02*
X008711Y016159D01*
X008711Y016317D02*
X012167Y016317D01*
X012272Y016570D02*
X011991Y016851D01*
X011991Y017030D01*
X012451Y017030D01*
X012491Y017030D01*
X012491Y017070D01*
X012951Y017070D01*
X012951Y017249D01*
X012669Y017530D01*
X012491Y017530D01*
X012491Y017070D01*
X012451Y017070D01*
X012451Y017530D01*
X012272Y017530D01*
X011991Y017249D01*
X011991Y017070D01*
X012451Y017070D01*
X012451Y017030D01*
X012451Y016570D01*
X012272Y016570D01*
X012208Y016634D02*
X008711Y016634D01*
X008711Y016476D02*
X013011Y016476D01*
X013011Y016319D02*
X013280Y016050D01*
X013661Y016050D01*
X013931Y016319D01*
X013931Y016701D01*
X013661Y016970D01*
X013280Y016970D01*
X013011Y016701D01*
X013011Y016319D01*
X013013Y016317D02*
X012774Y016317D01*
X012931Y016159D02*
X013172Y016159D01*
X012931Y016000D02*
X022481Y016000D01*
X022481Y015842D02*
X013710Y015842D01*
X013661Y015890D02*
X013280Y015890D01*
X013011Y015621D01*
X013011Y015239D01*
X013280Y014970D01*
X013661Y014970D01*
X013931Y015239D01*
X013931Y015621D01*
X013661Y015890D01*
X013770Y016159D02*
X022179Y016159D01*
X022193Y016156D02*
X022212Y016156D01*
X022212Y016912D01*
X021754Y016912D01*
X021754Y016596D01*
X021766Y016521D01*
X021789Y016450D01*
X021823Y016383D01*
X021867Y016323D01*
X021920Y016269D01*
X021981Y016225D01*
X022048Y016191D01*
X022119Y016168D01*
X022193Y016156D01*
X022212Y016159D02*
X022249Y016159D01*
X022249Y016156D02*
X022268Y016156D01*
X022342Y016168D01*
X022414Y016191D01*
X022481Y016225D01*
X022481Y015680D01*
X022057Y015680D01*
X021993Y015744D01*
X021862Y015798D01*
X021719Y015798D01*
X021588Y015744D01*
X021487Y015643D01*
X021433Y015511D01*
X021433Y015369D01*
X021487Y015237D01*
X021588Y015136D01*
X021719Y015082D01*
X021862Y015082D01*
X021993Y015136D01*
X022057Y015200D01*
X022481Y015200D01*
X022481Y005116D01*
X022417Y005053D01*
X022363Y004921D01*
X022363Y004779D01*
X022417Y004647D01*
X022518Y004546D01*
X022649Y004492D01*
X022792Y004492D01*
X022923Y004546D01*
X023024Y004647D01*
X023079Y004779D01*
X023079Y004921D01*
X023024Y005053D01*
X022961Y005116D01*
X022961Y016257D01*
X022972Y016246D01*
X023140Y016176D01*
X023322Y016176D01*
X023489Y016246D01*
X023618Y016374D01*
X023687Y016542D01*
X023687Y017318D01*
X023618Y017486D01*
X023489Y017614D01*
X023322Y017684D01*
X023140Y017684D01*
X022972Y017614D01*
X022961Y017603D01*
X022961Y018394D01*
X023024Y018457D01*
X023079Y018589D01*
X023079Y018731D01*
X023024Y018863D01*
X022923Y018964D01*
X022792Y019018D01*
X022649Y019018D01*
X022518Y018964D01*
X022417Y018863D01*
X022363Y018731D01*
X022363Y018589D01*
X022417Y018457D01*
X022481Y018394D01*
X022481Y017635D01*
X022481Y017635D01*
X022414Y017669D01*
X022342Y017692D01*
X022268Y017704D01*
X022249Y017704D01*
X022249Y016948D01*
X022212Y016948D01*
X022212Y016912D01*
X022249Y016912D01*
X022249Y016156D01*
X022282Y016159D02*
X022481Y016159D01*
X022481Y016225D02*
X022481Y016225D01*
X022249Y016317D02*
X022212Y016317D01*
X022212Y016476D02*
X022249Y016476D01*
X022249Y016634D02*
X022212Y016634D01*
X022212Y016793D02*
X022249Y016793D01*
X022249Y016951D02*
X022212Y016951D01*
X022212Y016948D02*
X022212Y017704D01*
X022193Y017704D01*
X022119Y017692D01*
X022048Y017669D01*
X021981Y017635D01*
X021920Y017591D01*
X021867Y017537D01*
X021823Y017477D01*
X021789Y017410D01*
X021766Y017339D01*
X021754Y017264D01*
X021754Y016948D01*
X022212Y016948D01*
X022212Y017110D02*
X022249Y017110D01*
X022249Y017268D02*
X022212Y017268D01*
X022212Y017427D02*
X022249Y017427D01*
X022249Y017585D02*
X022212Y017585D01*
X021914Y017585D02*
X021519Y017585D01*
X021489Y017614D02*
X021322Y017684D01*
X021140Y017684D01*
X020972Y017614D01*
X020843Y017486D01*
X020774Y017318D01*
X020774Y016542D01*
X020843Y016374D01*
X020972Y016246D01*
X021140Y016176D01*
X021322Y016176D01*
X021489Y016246D01*
X021618Y016374D01*
X021687Y016542D01*
X021687Y017318D01*
X021618Y017486D01*
X021489Y017614D01*
X021642Y017427D02*
X021797Y017427D01*
X021754Y017268D02*
X021687Y017268D01*
X021687Y017110D02*
X021754Y017110D01*
X021754Y016951D02*
X021687Y016951D01*
X021687Y016793D02*
X021754Y016793D01*
X021754Y016634D02*
X021687Y016634D01*
X021660Y016476D02*
X021780Y016476D01*
X021872Y016317D02*
X021561Y016317D01*
X021527Y015683D02*
X013868Y015683D01*
X013931Y015525D02*
X021438Y015525D01*
X021434Y015366D02*
X013931Y015366D01*
X013899Y015208D02*
X021517Y015208D01*
X021791Y015440D02*
X022671Y015440D01*
X022721Y015490D01*
X022721Y004850D01*
X022965Y004588D02*
X027211Y004588D01*
X027211Y004430D02*
X016868Y004430D01*
X016941Y004460D02*
X017071Y004589D01*
X017141Y004758D01*
X017141Y004941D01*
X017071Y005111D01*
X016941Y005240D01*
X016772Y005310D01*
X015989Y005310D01*
X015820Y005240D01*
X015691Y005111D01*
X015621Y004941D01*
X015621Y004758D01*
X015691Y004589D01*
X015820Y004460D01*
X015989Y004390D01*
X016772Y004390D01*
X016941Y004460D01*
X017069Y004588D02*
X022476Y004588D01*
X022376Y004747D02*
X017136Y004747D01*
X017141Y004905D02*
X022363Y004905D01*
X022428Y005064D02*
X020459Y005064D01*
X020452Y005056D02*
X020504Y005109D01*
X020546Y005171D01*
X020574Y005240D01*
X020589Y005313D01*
X020589Y005350D01*
X020589Y005387D01*
X020574Y005460D01*
X020546Y005529D01*
X020504Y005591D01*
X020452Y005644D01*
X020390Y005685D01*
X020321Y005714D01*
X020248Y005728D01*
X020211Y005728D01*
X020211Y005350D01*
X020589Y005350D01*
X020211Y005350D01*
X020211Y005350D01*
X020211Y004972D01*
X020248Y004972D01*
X020321Y004986D01*
X020390Y005015D01*
X020452Y005056D01*
X020567Y005222D02*
X022481Y005222D01*
X022481Y005381D02*
X020589Y005381D01*
X020539Y005539D02*
X022481Y005539D01*
X022481Y005698D02*
X020360Y005698D01*
X020211Y005698D02*
X020211Y005698D01*
X020211Y005728D02*
X020173Y005728D01*
X020100Y005714D01*
X020032Y005685D01*
X019970Y005644D01*
X019917Y005591D01*
X019876Y005529D01*
X019847Y005460D01*
X019833Y005387D01*
X019833Y005350D01*
X019833Y005313D01*
X019847Y005240D01*
X019876Y005171D01*
X019917Y005109D01*
X019970Y005056D01*
X020032Y005015D01*
X020100Y004986D01*
X020173Y004972D01*
X020211Y004972D01*
X020211Y005350D01*
X020211Y005350D01*
X020211Y005350D01*
X020211Y005728D01*
X020062Y005698D02*
X017115Y005698D01*
X017141Y005758D02*
X017071Y005589D01*
X016941Y005460D01*
X016772Y005390D01*
X015989Y005390D01*
X015820Y005460D01*
X015691Y005589D01*
X015621Y005758D01*
X015621Y005941D01*
X015691Y006111D01*
X015820Y006240D01*
X015989Y006310D01*
X016772Y006310D01*
X016941Y006240D01*
X017071Y006111D01*
X017141Y005941D01*
X017141Y005758D01*
X017141Y005856D02*
X022481Y005856D01*
X022481Y006015D02*
X017110Y006015D01*
X017008Y006173D02*
X022481Y006173D01*
X022481Y006332D02*
X008711Y006332D01*
X008711Y006490D02*
X015790Y006490D01*
X015820Y006460D02*
X015989Y006390D01*
X016772Y006390D01*
X016941Y006460D01*
X017071Y006589D01*
X017141Y006758D01*
X017141Y006941D01*
X017071Y007111D01*
X016941Y007240D01*
X016772Y007310D01*
X015989Y007310D01*
X015820Y007240D01*
X015691Y007111D01*
X015621Y006941D01*
X015621Y006758D01*
X015691Y006589D01*
X015820Y006460D01*
X015666Y006649D02*
X008711Y006649D01*
X008711Y006807D02*
X015621Y006807D01*
X015631Y006966D02*
X008711Y006966D01*
X008711Y007124D02*
X015704Y007124D01*
X015923Y007283D02*
X011532Y007283D01*
X011469Y007256D02*
X011687Y007347D01*
X011854Y007514D01*
X011944Y007732D01*
X011944Y007968D01*
X011854Y008186D01*
X011687Y008353D01*
X011469Y008444D01*
X011233Y008444D01*
X011014Y008353D01*
X010847Y008186D01*
X010757Y007968D01*
X010757Y007732D01*
X010847Y007514D01*
X011014Y007347D01*
X011233Y007256D01*
X011469Y007256D01*
X011169Y007283D02*
X008711Y007283D01*
X008711Y007441D02*
X010920Y007441D01*
X010812Y007600D02*
X008711Y007600D01*
X008711Y007758D02*
X010757Y007758D01*
X010757Y007917D02*
X008711Y007917D01*
X008711Y008075D02*
X010801Y008075D01*
X010895Y008234D02*
X008711Y008234D01*
X008711Y008392D02*
X011108Y008392D01*
X011342Y008709D02*
X009066Y008709D01*
X009053Y008696D02*
X009117Y008760D01*
X011291Y008760D01*
X012405Y007647D01*
X012493Y007610D01*
X015682Y007610D01*
X015691Y007589D01*
X015820Y007460D01*
X015989Y007390D01*
X016772Y007390D01*
X016941Y007460D01*
X017071Y007589D01*
X016895Y007441D02*
X022481Y007441D01*
X022481Y007283D02*
X016838Y007283D01*
X017057Y007124D02*
X022481Y007124D01*
X022481Y006966D02*
X017131Y006966D01*
X017141Y006807D02*
X022481Y006807D01*
X022481Y006649D02*
X017095Y006649D01*
X016971Y006490D02*
X022481Y006490D01*
X022961Y006490D02*
X027211Y006490D01*
X027211Y006332D02*
X022961Y006332D01*
X022961Y006173D02*
X027211Y006173D01*
X027211Y006015D02*
X022961Y006015D01*
X022961Y005856D02*
X027211Y005856D01*
X027211Y005698D02*
X022961Y005698D01*
X022961Y005539D02*
X027211Y005539D01*
X027211Y005381D02*
X022961Y005381D01*
X022961Y005222D02*
X027211Y005222D01*
X027211Y005064D02*
X023014Y005064D01*
X023079Y004905D02*
X027211Y004905D01*
X027211Y004747D02*
X023065Y004747D01*
X022961Y006649D02*
X027211Y006649D01*
X027211Y006807D02*
X022961Y006807D01*
X022961Y006966D02*
X027211Y006966D01*
X027211Y007124D02*
X022961Y007124D01*
X022961Y007283D02*
X027211Y007283D01*
X027211Y007441D02*
X022961Y007441D01*
X022961Y007600D02*
X027211Y007600D01*
X027211Y007758D02*
X022961Y007758D01*
X022961Y007917D02*
X027211Y007917D01*
X027211Y008075D02*
X022961Y008075D01*
X022961Y008234D02*
X027211Y008234D01*
X027211Y008392D02*
X022961Y008392D01*
X022961Y008551D02*
X027211Y008551D01*
X027211Y008709D02*
X022961Y008709D01*
X022961Y008868D02*
X027211Y008868D01*
X027211Y009026D02*
X022961Y009026D01*
X022961Y009185D02*
X027211Y009185D01*
X027211Y009343D02*
X022961Y009343D01*
X022961Y009502D02*
X027211Y009502D01*
X027211Y009660D02*
X022961Y009660D01*
X022961Y009819D02*
X027211Y009819D01*
X027211Y009977D02*
X022961Y009977D01*
X022961Y010136D02*
X027211Y010136D01*
X027211Y010294D02*
X022961Y010294D01*
X022961Y010453D02*
X027211Y010453D01*
X027211Y010611D02*
X022961Y010611D01*
X022961Y010770D02*
X027211Y010770D01*
X027211Y010928D02*
X022961Y010928D01*
X022961Y011087D02*
X027211Y011087D01*
X027211Y011245D02*
X022961Y011245D01*
X022961Y011404D02*
X027211Y011404D01*
X027211Y011562D02*
X022961Y011562D01*
X022961Y011721D02*
X027211Y011721D01*
X027211Y011879D02*
X022961Y011879D01*
X022961Y012038D02*
X027211Y012038D01*
X027211Y012196D02*
X022961Y012196D01*
X022961Y012355D02*
X027211Y012355D01*
X027211Y012513D02*
X022961Y012513D01*
X022961Y012672D02*
X027211Y012672D01*
X027211Y012830D02*
X022961Y012830D01*
X022961Y012989D02*
X027211Y012989D01*
X027211Y013147D02*
X022961Y013147D01*
X022961Y013306D02*
X027211Y013306D01*
X027211Y013464D02*
X022961Y013464D01*
X022961Y013623D02*
X027211Y013623D01*
X027211Y013781D02*
X022961Y013781D01*
X022961Y013940D02*
X027211Y013940D01*
X027211Y014098D02*
X022961Y014098D01*
X022961Y014257D02*
X027211Y014257D01*
X027211Y014415D02*
X022961Y014415D01*
X022961Y014574D02*
X027211Y014574D01*
X027211Y014732D02*
X022961Y014732D01*
X022961Y014891D02*
X027211Y014891D01*
X027211Y015049D02*
X022961Y015049D01*
X022961Y015208D02*
X027211Y015208D01*
X027211Y015366D02*
X022961Y015366D01*
X022961Y015525D02*
X027211Y015525D01*
X027211Y015683D02*
X022961Y015683D01*
X022961Y015842D02*
X027211Y015842D01*
X027211Y016000D02*
X022961Y016000D01*
X022961Y016159D02*
X027211Y016159D01*
X027211Y016317D02*
X024561Y016317D01*
X024618Y016374D02*
X024489Y016246D01*
X024322Y016176D01*
X024140Y016176D01*
X023972Y016246D01*
X023843Y016374D01*
X023774Y016542D01*
X023774Y017318D01*
X023843Y017486D01*
X023972Y017614D01*
X024140Y017684D01*
X024322Y017684D01*
X024489Y017614D01*
X024618Y017486D01*
X024687Y017318D01*
X024687Y016542D01*
X024618Y016374D01*
X024660Y016476D02*
X027211Y016476D01*
X027211Y016634D02*
X024687Y016634D01*
X024687Y016793D02*
X027211Y016793D01*
X027211Y016951D02*
X024687Y016951D01*
X024687Y017110D02*
X027211Y017110D01*
X027211Y017268D02*
X024687Y017268D01*
X024642Y017427D02*
X027211Y017427D01*
X027211Y017585D02*
X024519Y017585D01*
X023943Y017585D02*
X023519Y017585D01*
X023642Y017427D02*
X023819Y017427D01*
X023774Y017268D02*
X023687Y017268D01*
X023687Y017110D02*
X023774Y017110D01*
X023774Y016951D02*
X023687Y016951D01*
X023687Y016793D02*
X023774Y016793D01*
X023774Y016634D02*
X023687Y016634D01*
X023660Y016476D02*
X023801Y016476D01*
X023901Y016317D02*
X023561Y016317D01*
X022721Y015490D02*
X022721Y018660D01*
X023057Y018536D02*
X027211Y018536D01*
X027211Y018378D02*
X022961Y018378D01*
X022961Y018219D02*
X027211Y018219D01*
X027211Y018061D02*
X022961Y018061D01*
X022961Y017902D02*
X027211Y017902D01*
X027211Y017744D02*
X022961Y017744D01*
X022481Y017744D02*
X015945Y017744D01*
X015924Y017793D02*
X015823Y017894D01*
X015692Y017948D01*
X015549Y017948D01*
X015418Y017894D01*
X015354Y017830D01*
X013881Y017830D01*
X013661Y018050D01*
X013280Y018050D01*
X013011Y017781D01*
X013011Y017399D01*
X013280Y017130D01*
X013661Y017130D01*
X013881Y017350D01*
X015354Y017350D01*
X015418Y017286D01*
X015549Y017232D01*
X015692Y017232D01*
X015823Y017286D01*
X015924Y017387D01*
X015979Y017519D01*
X015979Y017661D01*
X015924Y017793D01*
X015803Y017902D02*
X022481Y017902D01*
X022481Y018061D02*
X012951Y018061D01*
X012951Y018110D02*
X012491Y018110D01*
X012491Y018150D01*
X012951Y018150D01*
X012951Y018329D01*
X012669Y018610D01*
X012491Y018610D01*
X012491Y018150D01*
X012451Y018150D01*
X012451Y018610D01*
X012272Y018610D01*
X011991Y018329D01*
X011991Y018150D01*
X012451Y018150D01*
X012451Y018110D01*
X012491Y018110D01*
X012491Y017650D01*
X012669Y017650D01*
X012951Y017931D01*
X012951Y018110D01*
X012951Y018219D02*
X013243Y018219D01*
X013272Y018190D02*
X012991Y018471D01*
X012991Y018650D01*
X013451Y018650D01*
X013491Y018650D01*
X013491Y018690D01*
X013951Y018690D01*
X013951Y018869D01*
X013669Y019150D01*
X013491Y019150D01*
X013491Y018690D01*
X013451Y018690D01*
X013451Y019150D01*
X013272Y019150D01*
X012991Y018869D01*
X012991Y018690D01*
X013451Y018690D01*
X013451Y018650D01*
X013451Y018190D01*
X013272Y018190D01*
X013451Y018219D02*
X013491Y018219D01*
X013491Y018190D02*
X013669Y018190D01*
X013951Y018471D01*
X013951Y018650D01*
X013491Y018650D01*
X013491Y018190D01*
X013491Y018378D02*
X013451Y018378D01*
X013451Y018536D02*
X013491Y018536D01*
X013491Y018695D02*
X013451Y018695D01*
X013451Y018853D02*
X013491Y018853D01*
X013491Y019012D02*
X013451Y019012D01*
X013133Y019012D02*
X012923Y019012D01*
X012931Y019019D02*
X012661Y018750D01*
X012280Y018750D01*
X012011Y019019D01*
X012011Y019401D01*
X012280Y019670D01*
X012661Y019670D01*
X012931Y019401D01*
X012931Y019019D01*
X012931Y019170D02*
X026004Y019170D01*
X026012Y019165D02*
X026080Y019136D01*
X026153Y019122D01*
X026191Y019122D01*
X026228Y019122D01*
X026301Y019136D01*
X026370Y019165D01*
X026432Y019206D01*
X026484Y019259D01*
X026526Y019321D01*
X026554Y019390D01*
X026569Y019463D01*
X026569Y019500D01*
X026569Y019537D01*
X026554Y019610D01*
X026526Y019679D01*
X026484Y019741D01*
X026432Y019794D01*
X026370Y019835D01*
X026301Y019864D01*
X026228Y019878D01*
X026191Y019878D01*
X026191Y019500D01*
X026569Y019500D01*
X026191Y019500D01*
X026191Y019500D01*
X026191Y019122D01*
X026191Y019500D01*
X026191Y019500D01*
X026191Y019500D01*
X026191Y019878D01*
X026153Y019878D01*
X026080Y019864D01*
X026012Y019835D01*
X025950Y019794D01*
X025897Y019741D01*
X025856Y019679D01*
X025827Y019610D01*
X025813Y019537D01*
X025813Y019500D01*
X025813Y019463D01*
X025827Y019390D01*
X025856Y019321D01*
X025897Y019259D01*
X025950Y019206D01*
X026012Y019165D01*
X026191Y019170D02*
X026191Y019170D01*
X026191Y019329D02*
X026191Y019329D01*
X026191Y019487D02*
X026191Y019487D01*
X026191Y019500D02*
X025813Y019500D01*
X026191Y019500D01*
X026191Y019500D01*
X026191Y019646D02*
X026191Y019646D01*
X026191Y019804D02*
X026191Y019804D01*
X026416Y019804D02*
X027211Y019804D01*
X027211Y019646D02*
X026540Y019646D01*
X026569Y019487D02*
X027211Y019487D01*
X027211Y019329D02*
X026529Y019329D01*
X026377Y019170D02*
X027211Y019170D01*
X027211Y019012D02*
X022808Y019012D01*
X022634Y019012D02*
X013808Y019012D01*
X013951Y018853D02*
X022413Y018853D01*
X022363Y018695D02*
X013951Y018695D01*
X013951Y018536D02*
X022384Y018536D01*
X022481Y018378D02*
X013857Y018378D01*
X013698Y018219D02*
X022481Y018219D01*
X023079Y018695D02*
X027211Y018695D01*
X027211Y018853D02*
X023028Y018853D01*
X024738Y021769D02*
X024892Y021705D01*
X025059Y021705D01*
X025214Y021769D01*
X025332Y021887D01*
X025396Y022041D01*
X025396Y022209D01*
X025332Y022363D01*
X025214Y022481D01*
X025059Y022545D01*
X024892Y022545D01*
X024738Y022481D01*
X024620Y022363D01*
X024556Y022209D01*
X024556Y022041D01*
X024620Y021887D01*
X024738Y021769D01*
X024642Y021865D02*
X020819Y021865D01*
X020819Y021850D02*
X020819Y021887D01*
X020804Y021960D01*
X020776Y022029D01*
X020734Y022091D01*
X020682Y022144D01*
X020642Y022170D01*
X022554Y022170D01*
X022628Y022096D01*
X022759Y022042D01*
X022902Y022042D01*
X023033Y022096D01*
X023119Y022181D01*
X023147Y022139D01*
X023200Y022086D01*
X023262Y022045D01*
X023330Y022016D01*
X023403Y022002D01*
X023441Y022002D01*
X023478Y022002D01*
X023551Y022016D01*
X023620Y022045D01*
X023682Y022086D01*
X023734Y022139D01*
X023776Y022201D01*
X023804Y022270D01*
X023819Y022343D01*
X023819Y022380D01*
X023819Y022417D01*
X023804Y022490D01*
X023776Y022559D01*
X023734Y022621D01*
X023682Y022674D01*
X023620Y022715D01*
X023551Y022744D01*
X023478Y022758D01*
X023441Y022758D01*
X023441Y022380D01*
X023819Y022380D01*
X023441Y022380D01*
X023441Y022380D01*
X023441Y022380D01*
X023441Y022002D01*
X023441Y022380D01*
X023441Y022380D01*
X023441Y022758D01*
X023403Y022758D01*
X023330Y022744D01*
X023262Y022715D01*
X023200Y022674D01*
X023147Y022621D01*
X023134Y022602D01*
X023134Y022603D01*
X023033Y022704D01*
X022902Y022758D01*
X022759Y022758D01*
X022628Y022704D01*
X022574Y022650D01*
X022507Y022650D01*
X022544Y022687D01*
X022599Y022819D01*
X022599Y022961D01*
X022544Y023093D01*
X022443Y023194D01*
X022312Y023248D01*
X022169Y023248D01*
X022038Y023194D01*
X021974Y023130D01*
X020847Y023130D01*
X020924Y023207D01*
X020979Y023339D01*
X020979Y023481D01*
X020924Y023613D01*
X020823Y023714D01*
X020692Y023768D01*
X020549Y023768D01*
X020418Y023714D01*
X020354Y023650D01*
X018217Y023650D01*
X018153Y023714D01*
X018022Y023768D01*
X017879Y023768D01*
X017748Y023714D01*
X017647Y023613D01*
X017593Y023481D01*
X017593Y023339D01*
X017647Y023207D01*
X017748Y023106D01*
X017879Y023052D01*
X018000Y023052D01*
X017963Y022961D01*
X017963Y022819D01*
X018017Y022687D01*
X018118Y022586D01*
X018249Y022532D01*
X018392Y022532D01*
X018454Y022558D01*
X018423Y022481D01*
X018423Y022339D01*
X018477Y022207D01*
X018578Y022106D01*
X018709Y022052D01*
X018852Y022052D01*
X018983Y022106D01*
X019047Y022170D01*
X020239Y022170D01*
X020200Y022144D01*
X020147Y022091D01*
X020106Y022029D01*
X020077Y021960D01*
X020063Y021887D01*
X020063Y021850D01*
X020063Y021813D01*
X020077Y021740D01*
X020106Y021671D01*
X020147Y021609D01*
X020200Y021556D01*
X020262Y021515D01*
X020330Y021486D01*
X020403Y021472D01*
X020441Y021472D01*
X020478Y021472D01*
X020551Y021486D01*
X020620Y021515D01*
X020682Y021556D01*
X020734Y021609D01*
X020776Y021671D01*
X020804Y021740D01*
X020819Y021813D01*
X020819Y021850D01*
X020441Y021850D01*
X020441Y021850D01*
X020819Y021850D01*
X020790Y021706D02*
X024890Y021706D01*
X025062Y021706D02*
X027211Y021706D01*
X027211Y021548D02*
X020669Y021548D01*
X020441Y021548D02*
X020441Y021548D01*
X020441Y021472D02*
X020441Y021850D01*
X020441Y021850D01*
X020441Y021472D01*
X020441Y021706D02*
X020441Y021706D01*
X020441Y021850D02*
X020063Y021850D01*
X020441Y021850D01*
X020441Y021850D01*
X020213Y021548D02*
X015111Y021548D01*
X015111Y021706D02*
X020091Y021706D01*
X020063Y021865D02*
X015111Y021865D01*
X015111Y022023D02*
X020103Y022023D01*
X020778Y022023D02*
X023314Y022023D01*
X023441Y022023D02*
X023441Y022023D01*
X023567Y022023D02*
X024563Y022023D01*
X024556Y022182D02*
X023763Y022182D01*
X023818Y022340D02*
X024610Y022340D01*
X024780Y022499D02*
X023801Y022499D01*
X023698Y022657D02*
X025943Y022657D01*
X025943Y022652D02*
X025943Y022615D01*
X025943Y022578D01*
X025957Y022505D01*
X025986Y022436D01*
X026027Y022374D01*
X026080Y022321D01*
X026142Y022280D01*
X026210Y022251D01*
X026283Y022237D01*
X026321Y022237D01*
X026358Y022237D01*
X026431Y022251D01*
X026500Y022280D01*
X026562Y022321D01*
X026614Y022374D01*
X026656Y022436D01*
X026684Y022505D01*
X026699Y022578D01*
X026699Y022615D01*
X026699Y022652D01*
X026684Y022725D01*
X026656Y022794D01*
X026614Y022856D01*
X026562Y022909D01*
X026500Y022950D01*
X026431Y022979D01*
X026358Y022993D01*
X026321Y022993D01*
X026321Y022615D01*
X026699Y022615D01*
X026321Y022615D01*
X026321Y022615D01*
X026321Y022237D01*
X026321Y022615D01*
X026321Y022615D01*
X026321Y022615D01*
X026321Y022993D01*
X026283Y022993D01*
X026210Y022979D01*
X026142Y022950D01*
X026080Y022909D01*
X026027Y022856D01*
X025986Y022794D01*
X025957Y022725D01*
X025943Y022652D01*
X025943Y022615D02*
X026321Y022615D01*
X025943Y022615D01*
X025960Y022499D02*
X025171Y022499D01*
X025341Y022340D02*
X026061Y022340D01*
X026321Y022340D02*
X026321Y022340D01*
X026321Y022499D02*
X026321Y022499D01*
X026321Y022615D02*
X026321Y022615D01*
X026321Y022657D02*
X026321Y022657D01*
X026321Y022816D02*
X026321Y022816D01*
X026321Y022974D02*
X026321Y022974D01*
X026442Y022974D02*
X027211Y022974D01*
X027211Y022816D02*
X026641Y022816D01*
X026698Y022657D02*
X027211Y022657D01*
X027211Y022499D02*
X026682Y022499D01*
X026580Y022340D02*
X027211Y022340D01*
X027211Y022182D02*
X025396Y022182D01*
X025388Y022023D02*
X027211Y022023D01*
X027211Y021865D02*
X025309Y021865D01*
X025059Y022705D02*
X025214Y022769D01*
X025332Y022887D01*
X025396Y023041D01*
X025396Y023209D01*
X025332Y023363D01*
X025214Y023481D01*
X025059Y023545D01*
X024892Y023545D01*
X024738Y023481D01*
X024620Y023363D01*
X024556Y023209D01*
X024556Y023041D01*
X024620Y022887D01*
X024738Y022769D01*
X024892Y022705D01*
X025059Y022705D01*
X025260Y022816D02*
X026000Y022816D01*
X026199Y022974D02*
X025368Y022974D01*
X025396Y023133D02*
X027211Y023133D01*
X027211Y023291D02*
X025361Y023291D01*
X025245Y023450D02*
X027211Y023450D01*
X027211Y023608D02*
X020926Y023608D01*
X020979Y023450D02*
X024706Y023450D01*
X024590Y023291D02*
X020959Y023291D01*
X020850Y023133D02*
X021977Y023133D01*
X022241Y022890D02*
X018321Y022890D01*
X018047Y022657D02*
X016392Y022657D01*
X016414Y022679D02*
X016456Y022741D01*
X016484Y022810D01*
X016499Y022883D01*
X016499Y022920D01*
X016499Y022957D01*
X016484Y023030D01*
X016456Y023099D01*
X016414Y023161D01*
X016362Y023214D01*
X016300Y023255D01*
X016231Y023284D01*
X016158Y023298D01*
X016121Y023298D01*
X016121Y022920D01*
X016499Y022920D01*
X016121Y022920D01*
X016121Y022920D01*
X016121Y022542D01*
X016158Y022542D01*
X016231Y022556D01*
X016300Y022585D01*
X016362Y022626D01*
X016414Y022679D01*
X016485Y022816D02*
X017964Y022816D01*
X017968Y022974D02*
X016495Y022974D01*
X016433Y023133D02*
X017722Y023133D01*
X017612Y023291D02*
X016193Y023291D01*
X016121Y023291D02*
X016121Y023291D01*
X016121Y023298D02*
X016083Y023298D01*
X016010Y023284D01*
X015942Y023255D01*
X015880Y023214D01*
X015827Y023161D01*
X015786Y023099D01*
X015757Y023030D01*
X015743Y022957D01*
X015743Y022920D01*
X015743Y022883D01*
X015757Y022810D01*
X015786Y022741D01*
X015827Y022679D01*
X015880Y022626D01*
X015942Y022585D01*
X016010Y022556D01*
X016083Y022542D01*
X016121Y022542D01*
X016121Y022920D01*
X016121Y022920D01*
X016121Y022920D01*
X016121Y023298D01*
X016048Y023291D02*
X015111Y023291D01*
X015111Y023133D02*
X015808Y023133D01*
X015746Y022974D02*
X015111Y022974D01*
X015111Y022816D02*
X015756Y022816D01*
X015743Y022920D02*
X016121Y022920D01*
X016121Y022920D01*
X015743Y022920D01*
X015849Y022657D02*
X015111Y022657D01*
X015111Y022499D02*
X018430Y022499D01*
X018423Y022340D02*
X015111Y022340D01*
X015111Y022182D02*
X018503Y022182D01*
X018781Y022410D02*
X022831Y022410D01*
X022831Y022400D01*
X023080Y022657D02*
X023183Y022657D01*
X023441Y022657D02*
X023441Y022657D01*
X023441Y022499D02*
X023441Y022499D01*
X023441Y022340D02*
X023441Y022340D01*
X023441Y022182D02*
X023441Y022182D01*
X022581Y022657D02*
X022514Y022657D01*
X022597Y022816D02*
X024691Y022816D01*
X024584Y022974D02*
X022593Y022974D01*
X022505Y023133D02*
X024556Y023133D01*
X025854Y025986D02*
X027211Y025986D01*
X027211Y026144D02*
X026051Y026144D01*
X026209Y026303D02*
X027211Y026303D01*
X027211Y026461D02*
X026368Y026461D01*
X026526Y026620D02*
X027211Y026620D01*
X027211Y026778D02*
X026685Y026778D01*
X026843Y026937D02*
X027211Y026937D01*
X027211Y027095D02*
X027002Y027095D01*
X027160Y027254D02*
X027211Y027254D01*
X026671Y027571D02*
X008711Y027571D01*
X008711Y027729D02*
X014654Y027729D01*
X014667Y027709D02*
X014720Y027656D01*
X014782Y027615D01*
X014850Y027586D01*
X014923Y027572D01*
X014961Y027572D01*
X014998Y027572D01*
X015071Y027586D01*
X015140Y027615D01*
X015202Y027656D01*
X015254Y027709D01*
X015296Y027771D01*
X015324Y027840D01*
X015339Y027913D01*
X015339Y027950D01*
X015339Y027987D01*
X015324Y028060D01*
X015296Y028129D01*
X015254Y028191D01*
X015202Y028244D01*
X015140Y028285D01*
X015071Y028314D01*
X014998Y028328D01*
X014961Y028328D01*
X014961Y027950D01*
X015339Y027950D01*
X014961Y027950D01*
X014961Y027950D01*
X014961Y027572D01*
X014961Y027950D01*
X014961Y027950D01*
X014961Y027950D01*
X014961Y028328D01*
X014923Y028328D01*
X014850Y028314D01*
X014782Y028285D01*
X014720Y028244D01*
X014667Y028191D01*
X014626Y028129D01*
X014597Y028060D01*
X014583Y027987D01*
X014583Y027950D01*
X014583Y027913D01*
X014597Y027840D01*
X014626Y027771D01*
X014667Y027709D01*
X014588Y027888D02*
X010638Y027888D01*
X010660Y027910D02*
X010718Y028049D01*
X010718Y028199D01*
X010660Y028338D01*
X010554Y028444D01*
X010416Y028501D01*
X010266Y028501D01*
X010127Y028444D01*
X010021Y028338D01*
X009963Y028199D01*
X009963Y028049D01*
X010021Y027910D01*
X010127Y027804D01*
X010266Y027747D01*
X010416Y027747D01*
X010554Y027804D01*
X010660Y027910D01*
X010717Y028046D02*
X014594Y028046D01*
X014583Y027950D02*
X014961Y027950D01*
X014583Y027950D01*
X014680Y028205D02*
X012799Y028205D01*
X012770Y028185D02*
X012832Y028226D01*
X012884Y028279D01*
X012926Y028341D01*
X012954Y028410D01*
X012969Y028483D01*
X012969Y028520D01*
X012969Y028557D01*
X012954Y028630D01*
X012926Y028699D01*
X012884Y028761D01*
X012832Y028814D01*
X012770Y028855D01*
X012701Y028884D01*
X012628Y028898D01*
X012591Y028898D01*
X012591Y028520D01*
X012969Y028520D01*
X012591Y028520D01*
X012591Y028520D01*
X012591Y028142D01*
X012628Y028142D01*
X012701Y028156D01*
X012770Y028185D01*
X012591Y028205D02*
X012591Y028205D01*
X012591Y028142D02*
X012591Y028520D01*
X012591Y028520D01*
X012591Y028520D01*
X012591Y028898D01*
X012553Y028898D01*
X012480Y028884D01*
X012412Y028855D01*
X012350Y028814D01*
X012297Y028761D01*
X012256Y028699D01*
X012227Y028630D01*
X012213Y028557D01*
X012213Y028520D01*
X012213Y028483D01*
X012227Y028410D01*
X012256Y028341D01*
X012297Y028279D01*
X012350Y028226D01*
X012412Y028185D01*
X012480Y028156D01*
X012553Y028142D01*
X012591Y028142D01*
X012382Y028205D02*
X010715Y028205D01*
X010635Y028363D02*
X012246Y028363D01*
X012213Y028520D02*
X012591Y028520D01*
X012591Y028520D01*
X012213Y028520D01*
X012213Y028522D02*
X008711Y028522D01*
X008711Y028680D02*
X012248Y028680D01*
X012387Y028839D02*
X008711Y028839D01*
X008711Y028997D02*
X014125Y028997D01*
X014132Y028987D02*
X014182Y028937D01*
X014241Y028897D01*
X014306Y028870D01*
X014375Y028857D01*
X014411Y028857D01*
X014446Y028857D01*
X014515Y028870D01*
X014580Y028897D01*
X014639Y028937D01*
X014689Y028987D01*
X014728Y029045D01*
X014755Y029110D01*
X014769Y029180D01*
X014769Y029215D01*
X014769Y029250D01*
X014755Y029320D01*
X014728Y029385D01*
X014689Y029443D01*
X014639Y029493D01*
X014580Y029533D01*
X014515Y029560D01*
X014446Y029573D01*
X014411Y029573D01*
X014411Y029215D01*
X014769Y029215D01*
X014411Y029215D01*
X014411Y029215D01*
X014411Y028857D01*
X014411Y029215D01*
X014411Y029215D01*
X014411Y029215D01*
X014411Y029573D01*
X014375Y029573D01*
X014306Y029560D01*
X014241Y029533D01*
X014182Y029493D01*
X014132Y029443D01*
X014093Y029385D01*
X014066Y029320D01*
X014052Y029250D01*
X014052Y029215D01*
X014052Y029180D01*
X014066Y029110D01*
X014093Y029045D01*
X014132Y028987D01*
X014057Y029156D02*
X008711Y029156D01*
X008711Y029314D02*
X014065Y029314D01*
X014052Y029215D02*
X014411Y029215D01*
X014052Y029215D01*
X014161Y029473D02*
X013520Y029473D01*
X013544Y029497D02*
X013443Y029396D01*
X013312Y029342D01*
X013169Y029342D01*
X013038Y029396D01*
X012974Y029460D01*
X012263Y029460D01*
X012175Y029497D01*
X012107Y029564D01*
X012071Y029652D01*
X012071Y029794D01*
X012007Y029857D01*
X011953Y029989D01*
X011953Y030131D01*
X012007Y030263D01*
X012108Y030364D01*
X012239Y030418D01*
X012382Y030418D01*
X012513Y030364D01*
X012614Y030263D01*
X012669Y030131D01*
X012669Y029989D01*
X012649Y029940D01*
X012974Y029940D01*
X013038Y030004D01*
X013169Y030058D01*
X013312Y030058D01*
X013443Y030004D01*
X013544Y029903D01*
X013599Y029771D01*
X013599Y029629D01*
X013544Y029497D01*
X013599Y029631D02*
X021386Y029631D01*
X021371Y029637D02*
X021436Y029610D01*
X021505Y029597D01*
X021541Y029597D01*
X021576Y029597D01*
X021645Y029610D01*
X021710Y029637D01*
X021769Y029677D01*
X021819Y029727D01*
X021858Y029785D01*
X021885Y029850D01*
X021899Y029920D01*
X021899Y029955D01*
X021899Y029990D01*
X021885Y030060D01*
X021858Y030125D01*
X021819Y030183D01*
X021769Y030233D01*
X021710Y030273D01*
X021645Y030300D01*
X021576Y030313D01*
X021541Y030313D01*
X021541Y029955D01*
X021899Y029955D01*
X021541Y029955D01*
X021541Y029955D01*
X021541Y029597D01*
X021541Y029955D01*
X021541Y029955D01*
X021541Y029955D01*
X021541Y030313D01*
X021505Y030313D01*
X021436Y030300D01*
X021371Y030273D01*
X021312Y030233D01*
X021262Y030183D01*
X021223Y030125D01*
X021196Y030060D01*
X021182Y029990D01*
X021182Y029955D01*
X021182Y029920D01*
X021196Y029850D01*
X021223Y029785D01*
X021262Y029727D01*
X021312Y029677D01*
X021371Y029637D01*
X021541Y029631D02*
X021541Y029631D01*
X021695Y029631D02*
X025172Y029631D01*
X025080Y029790D02*
X021860Y029790D01*
X021899Y029948D02*
X025057Y029948D01*
X025090Y030107D02*
X021866Y030107D01*
X021722Y030265D02*
X025198Y030265D01*
X025402Y029400D02*
X025331Y029377D01*
X025264Y029343D01*
X025203Y029299D01*
X025150Y029246D01*
X025106Y029185D01*
X025072Y029118D01*
X025049Y029047D01*
X025037Y028973D01*
X025037Y028953D01*
X025792Y028953D01*
X025792Y028917D01*
X025037Y028917D01*
X025037Y028897D01*
X025049Y028823D01*
X025072Y028752D01*
X025106Y028685D01*
X025150Y028624D01*
X025203Y028571D01*
X025264Y028527D01*
X025331Y028493D01*
X025402Y028470D01*
X025476Y028458D01*
X025792Y028458D01*
X025792Y028917D01*
X025829Y028917D01*
X025829Y028953D01*
X026584Y028953D01*
X026584Y028973D01*
X026573Y029047D01*
X026549Y029118D01*
X026515Y029185D01*
X026471Y029246D01*
X026418Y029299D01*
X026357Y029343D01*
X026291Y029377D01*
X026219Y029400D01*
X026145Y029412D01*
X025829Y029412D01*
X025829Y028953D01*
X025792Y028953D01*
X025792Y029412D01*
X025476Y029412D01*
X025402Y029400D01*
X025224Y029314D02*
X014756Y029314D01*
X014764Y029156D02*
X025091Y029156D01*
X025041Y028997D02*
X014696Y028997D01*
X014411Y028997D02*
X014411Y028997D01*
X014411Y029156D02*
X014411Y029156D01*
X014411Y029215D02*
X014411Y029215D01*
X014411Y029314D02*
X014411Y029314D01*
X014411Y029473D02*
X014411Y029473D01*
X014660Y029473D02*
X026671Y029473D01*
X026671Y029314D02*
X026397Y029314D01*
X026530Y029156D02*
X026671Y029156D01*
X026671Y028997D02*
X026580Y028997D01*
X026584Y028917D02*
X025829Y028917D01*
X025829Y028458D01*
X026145Y028458D01*
X026219Y028470D01*
X026291Y028493D01*
X026357Y028527D01*
X026418Y028571D01*
X026471Y028624D01*
X026515Y028685D01*
X026549Y028752D01*
X026573Y028823D01*
X026584Y028897D01*
X026584Y028917D01*
X026575Y028839D02*
X026671Y028839D01*
X026671Y028680D02*
X026512Y028680D01*
X026671Y028522D02*
X026346Y028522D01*
X026671Y028363D02*
X012935Y028363D01*
X012969Y028522D02*
X025275Y028522D01*
X025110Y028680D02*
X012934Y028680D01*
X012794Y028839D02*
X025046Y028839D01*
X025792Y028839D02*
X025829Y028839D01*
X025829Y028997D02*
X025792Y028997D01*
X025792Y029156D02*
X025829Y029156D01*
X025829Y029314D02*
X025792Y029314D01*
X025792Y028680D02*
X025829Y028680D01*
X025829Y028522D02*
X025792Y028522D01*
X026671Y028205D02*
X015241Y028205D01*
X015327Y028046D02*
X026671Y028046D01*
X026671Y027888D02*
X015334Y027888D01*
X015268Y027729D02*
X026671Y027729D01*
X026527Y027412D02*
X008711Y027412D01*
X008711Y027254D02*
X026368Y027254D01*
X026210Y027095D02*
X008711Y027095D01*
X008711Y026937D02*
X026051Y026937D01*
X025893Y026778D02*
X008711Y026778D01*
X008711Y026620D02*
X025734Y026620D01*
X027211Y025827D02*
X016504Y025827D01*
X016345Y025669D02*
X027211Y025669D01*
X027211Y025510D02*
X016187Y025510D01*
X016028Y025352D02*
X027211Y025352D01*
X027211Y025193D02*
X015870Y025193D01*
X015711Y025035D02*
X027211Y025035D01*
X027211Y024876D02*
X015553Y024876D01*
X015394Y024718D02*
X027211Y024718D01*
X027211Y024559D02*
X015236Y024559D01*
X015111Y024401D02*
X027211Y024401D01*
X027211Y024242D02*
X015111Y024242D01*
X015111Y024084D02*
X027211Y024084D01*
X027211Y023925D02*
X015111Y023925D01*
X015111Y023767D02*
X017876Y023767D01*
X018026Y023767D02*
X020546Y023767D01*
X020696Y023767D02*
X027211Y023767D01*
X027211Y021389D02*
X015084Y021389D01*
X014947Y021231D02*
X027211Y021231D01*
X027211Y021072D02*
X014789Y021072D01*
X014630Y020914D02*
X027211Y020914D01*
X027211Y020755D02*
X014472Y020755D01*
X014313Y020597D02*
X027211Y020597D01*
X027211Y020438D02*
X013729Y020438D01*
X013661Y020210D02*
X013280Y020210D01*
X013011Y019941D01*
X013011Y019559D01*
X013280Y019290D01*
X013661Y019290D01*
X013931Y019559D01*
X013931Y019941D01*
X013661Y020210D01*
X013750Y020121D02*
X027211Y020121D01*
X027211Y019963D02*
X013909Y019963D01*
X013931Y019804D02*
X025965Y019804D01*
X025842Y019646D02*
X013931Y019646D01*
X013858Y019487D02*
X025813Y019487D01*
X025852Y019329D02*
X013700Y019329D01*
X013242Y019329D02*
X012931Y019329D01*
X012844Y019487D02*
X013083Y019487D01*
X013011Y019646D02*
X012686Y019646D01*
X012661Y019830D02*
X012931Y020099D01*
X012931Y020481D01*
X012661Y020750D01*
X012280Y020750D01*
X012011Y020481D01*
X012011Y020099D01*
X012280Y019830D01*
X012661Y019830D01*
X012794Y019963D02*
X013033Y019963D01*
X013011Y019804D02*
X008711Y019804D01*
X008711Y019646D02*
X012256Y019646D01*
X012097Y019487D02*
X008711Y019487D01*
X008711Y019329D02*
X012011Y019329D01*
X012011Y019170D02*
X008711Y019170D01*
X008711Y019012D02*
X012019Y019012D01*
X012177Y018853D02*
X008711Y018853D01*
X008711Y018695D02*
X012991Y018695D01*
X012991Y018853D02*
X012764Y018853D01*
X012743Y018536D02*
X012991Y018536D01*
X012902Y018378D02*
X013084Y018378D01*
X013132Y017902D02*
X012921Y017902D01*
X013011Y017744D02*
X012763Y017744D01*
X012491Y017744D02*
X012451Y017744D01*
X012451Y017650D02*
X012451Y018110D01*
X011991Y018110D01*
X011991Y017931D01*
X012272Y017650D01*
X012451Y017650D01*
X012451Y017427D02*
X012491Y017427D01*
X012491Y017268D02*
X012451Y017268D01*
X012451Y017110D02*
X012491Y017110D01*
X012491Y017030D02*
X012951Y017030D01*
X012951Y016851D01*
X012669Y016570D01*
X012491Y016570D01*
X012491Y017030D01*
X012491Y016951D02*
X012451Y016951D01*
X012451Y016793D02*
X012491Y016793D01*
X012491Y016634D02*
X012451Y016634D01*
X012733Y016634D02*
X013011Y016634D01*
X013103Y016793D02*
X012892Y016793D01*
X012951Y016951D02*
X013261Y016951D01*
X013142Y017268D02*
X012931Y017268D01*
X012951Y017110D02*
X018774Y017110D01*
X018774Y017268D02*
X015779Y017268D01*
X015941Y017427D02*
X018819Y017427D01*
X018843Y017486D02*
X018774Y017318D01*
X018774Y016542D01*
X018843Y016374D01*
X018972Y016246D01*
X019140Y016176D01*
X019322Y016176D01*
X019489Y016246D01*
X019618Y016374D01*
X019687Y016542D01*
X019687Y017318D01*
X019618Y017486D01*
X019489Y017614D01*
X019322Y017684D01*
X019140Y017684D01*
X018972Y017614D01*
X018843Y017486D01*
X018943Y017585D02*
X015979Y017585D01*
X015621Y017590D02*
X013471Y017590D01*
X013799Y017268D02*
X015462Y017268D01*
X015438Y017902D02*
X013809Y017902D01*
X013680Y016951D02*
X018774Y016951D01*
X018774Y016793D02*
X013839Y016793D01*
X013931Y016634D02*
X018774Y016634D01*
X018801Y016476D02*
X013931Y016476D01*
X013928Y016317D02*
X018901Y016317D01*
X019561Y016317D02*
X019901Y016317D01*
X019843Y016374D02*
X019972Y016246D01*
X020140Y016176D01*
X020322Y016176D01*
X020489Y016246D01*
X020618Y016374D01*
X020687Y016542D01*
X020687Y017318D01*
X020618Y017486D01*
X020489Y017614D01*
X020322Y017684D01*
X020140Y017684D01*
X019972Y017614D01*
X019843Y017486D01*
X019774Y017318D01*
X019774Y016542D01*
X019843Y016374D01*
X019801Y016476D02*
X019660Y016476D01*
X019687Y016634D02*
X019774Y016634D01*
X019774Y016793D02*
X019687Y016793D01*
X019687Y016951D02*
X019774Y016951D01*
X019774Y017110D02*
X019687Y017110D01*
X019687Y017268D02*
X019774Y017268D01*
X019819Y017427D02*
X019642Y017427D01*
X019519Y017585D02*
X019943Y017585D01*
X020519Y017585D02*
X020943Y017585D01*
X020819Y017427D02*
X020642Y017427D01*
X020687Y017268D02*
X020774Y017268D01*
X020774Y017110D02*
X020687Y017110D01*
X020687Y016951D02*
X020774Y016951D01*
X020774Y016793D02*
X020687Y016793D01*
X020687Y016634D02*
X020774Y016634D01*
X020801Y016476D02*
X020660Y016476D01*
X020561Y016317D02*
X020901Y016317D01*
X022054Y015683D02*
X022481Y015683D01*
X022481Y015049D02*
X013740Y015049D01*
X013739Y014732D02*
X022481Y014732D01*
X022481Y014574D02*
X013898Y014574D01*
X013931Y014415D02*
X022481Y014415D01*
X022481Y014257D02*
X013931Y014257D01*
X013869Y014098D02*
X022481Y014098D01*
X022481Y013940D02*
X013711Y013940D01*
X013044Y014574D02*
X012805Y014574D01*
X012931Y014732D02*
X013202Y014732D01*
X012931Y014891D02*
X022481Y014891D01*
X022481Y012513D02*
X013657Y012513D01*
X013827Y012355D02*
X022481Y012355D01*
X022481Y012196D02*
X013949Y012196D01*
X014040Y012038D02*
X022481Y012038D01*
X022481Y011879D02*
X014089Y011879D01*
X014131Y011721D02*
X022481Y011721D01*
X022481Y011562D02*
X014131Y011562D01*
X014127Y011404D02*
X022481Y011404D01*
X022481Y011245D02*
X014084Y011245D01*
X014031Y011087D02*
X022481Y011087D01*
X022481Y010928D02*
X013939Y010928D01*
X013811Y010770D02*
X022481Y010770D01*
X022481Y010611D02*
X013630Y010611D01*
X013282Y010453D02*
X022481Y010453D01*
X020211Y005539D02*
X020211Y005539D01*
X020211Y005381D02*
X020211Y005381D01*
X020211Y005350D02*
X020211Y005350D01*
X019833Y005350D01*
X020211Y005350D01*
X020211Y005222D02*
X020211Y005222D01*
X020211Y005064D02*
X020211Y005064D01*
X019962Y005064D02*
X017090Y005064D01*
X016959Y005222D02*
X019854Y005222D01*
X019833Y005381D02*
X008711Y005381D01*
X008711Y005539D02*
X013043Y005539D01*
X013103Y005479D02*
X013264Y005413D01*
X013438Y005413D01*
X013598Y005479D01*
X013721Y005602D01*
X013788Y005763D01*
X013788Y005937D01*
X013721Y006098D01*
X013598Y006221D01*
X013438Y006287D01*
X013264Y006287D01*
X013103Y006221D01*
X012980Y006098D01*
X012913Y005937D01*
X012913Y005763D01*
X012980Y005602D01*
X013103Y005479D01*
X013175Y005274D02*
X013111Y005241D01*
X013053Y005199D01*
X013002Y005148D01*
X012960Y005090D01*
X012927Y005025D01*
X012905Y004957D01*
X012893Y004886D01*
X012893Y004859D01*
X013342Y004859D01*
X013342Y005307D01*
X013315Y005307D01*
X013244Y005296D01*
X013175Y005274D01*
X013085Y005222D02*
X008711Y005222D01*
X008711Y005064D02*
X012946Y005064D01*
X012896Y004905D02*
X008711Y004905D01*
X008711Y004747D02*
X012904Y004747D01*
X012905Y004743D02*
X012927Y004675D01*
X012960Y004610D01*
X013002Y004552D01*
X013053Y004501D01*
X013111Y004459D01*
X013175Y004426D01*
X013244Y004404D01*
X013315Y004393D01*
X013342Y004393D01*
X013342Y004841D01*
X013359Y004841D01*
X013359Y004393D01*
X013387Y004393D01*
X013458Y004404D01*
X013526Y004426D01*
X013590Y004459D01*
X013648Y004501D01*
X013699Y004552D01*
X013742Y004610D01*
X013774Y004675D01*
X013797Y004743D01*
X013808Y004814D01*
X013808Y004841D01*
X013359Y004841D01*
X013359Y004859D01*
X013342Y004859D01*
X013342Y004841D01*
X012893Y004841D01*
X012893Y004814D01*
X012905Y004743D01*
X012976Y004588D02*
X008711Y004588D01*
X008711Y004430D02*
X011198Y004430D01*
X011233Y004444D02*
X011014Y004353D01*
X010847Y004186D01*
X010757Y003968D01*
X010757Y003732D01*
X010847Y003514D01*
X011014Y003347D01*
X011233Y003256D01*
X011469Y003256D01*
X011687Y003347D01*
X011854Y003514D01*
X011944Y003732D01*
X011944Y003968D01*
X011854Y004186D01*
X011687Y004353D01*
X011469Y004444D01*
X011233Y004444D01*
X011503Y004430D02*
X013169Y004430D01*
X013342Y004430D02*
X013359Y004430D01*
X013342Y004588D02*
X013359Y004588D01*
X013342Y004747D02*
X013359Y004747D01*
X013359Y004859D02*
X013808Y004859D01*
X013808Y004886D01*
X013797Y004957D01*
X013774Y005025D01*
X013742Y005090D01*
X013699Y005148D01*
X013648Y005199D01*
X013590Y005241D01*
X013526Y005274D01*
X013458Y005296D01*
X013387Y005307D01*
X013359Y005307D01*
X013359Y004859D01*
X013359Y004905D02*
X013342Y004905D01*
X013342Y005064D02*
X013359Y005064D01*
X013342Y005222D02*
X013359Y005222D01*
X013616Y005222D02*
X015802Y005222D01*
X015671Y005064D02*
X013755Y005064D01*
X013805Y004905D02*
X015621Y004905D01*
X015626Y004747D02*
X013797Y004747D01*
X013725Y004588D02*
X015692Y004588D01*
X015894Y004430D02*
X013532Y004430D01*
X013658Y005539D02*
X015741Y005539D01*
X015646Y005698D02*
X013761Y005698D01*
X013788Y005856D02*
X015621Y005856D01*
X015651Y006015D02*
X013756Y006015D01*
X013646Y006173D02*
X015753Y006173D01*
X015866Y007441D02*
X011781Y007441D01*
X011889Y007600D02*
X015686Y007600D01*
X015814Y008234D02*
X012497Y008234D01*
X012541Y007850D02*
X011391Y009000D01*
X008851Y009000D01*
X008711Y008670D02*
X008779Y008642D01*
X008922Y008642D01*
X009053Y008696D01*
X008711Y008551D02*
X011501Y008551D01*
X011594Y008392D02*
X011659Y008392D01*
X011807Y008234D02*
X011818Y008234D01*
X011900Y008075D02*
X011976Y008075D01*
X011944Y007917D02*
X012135Y007917D01*
X012293Y007758D02*
X011944Y007758D01*
X012541Y007850D02*
X016381Y007850D01*
X017020Y005539D02*
X019882Y005539D01*
X018340Y003055D02*
X018271Y003084D01*
X018198Y003098D01*
X018161Y003098D01*
X018161Y002720D01*
X018539Y002720D01*
X018539Y002757D01*
X018524Y002830D01*
X018496Y002899D01*
X018454Y002961D01*
X018402Y003014D01*
X018340Y003055D01*
X018412Y003003D02*
X027211Y003003D01*
X027211Y002845D02*
X018518Y002845D01*
X018539Y002720D02*
X018161Y002720D01*
X018161Y002720D01*
X018161Y002342D01*
X018198Y002342D01*
X018271Y002356D01*
X018340Y002385D01*
X018402Y002426D01*
X018454Y002479D01*
X018496Y002541D01*
X018524Y002610D01*
X018539Y002683D01*
X018539Y002720D01*
X018539Y002686D02*
X027211Y002686D01*
X027211Y002528D02*
X018487Y002528D01*
X018301Y002369D02*
X027211Y002369D01*
X027211Y002211D02*
X026522Y002211D01*
X026309Y002211D02*
X009522Y002211D01*
X009309Y002211D02*
X008711Y002211D01*
X008711Y002369D02*
X018020Y002369D01*
X018050Y002356D02*
X018123Y002342D01*
X018161Y002342D01*
X018161Y002720D01*
X018161Y002720D01*
X018161Y002720D01*
X018161Y003098D01*
X018123Y003098D01*
X018050Y003084D01*
X017982Y003055D01*
X017920Y003014D01*
X017867Y002961D01*
X017826Y002899D01*
X017797Y002830D01*
X017783Y002757D01*
X017783Y002720D01*
X017783Y002683D01*
X017797Y002610D01*
X017826Y002541D01*
X017867Y002479D01*
X017920Y002426D01*
X017982Y002385D01*
X018050Y002356D01*
X018161Y002369D02*
X018161Y002369D01*
X018161Y002528D02*
X018161Y002528D01*
X018161Y002686D02*
X018161Y002686D01*
X018161Y002720D02*
X017783Y002720D01*
X018161Y002720D01*
X018161Y002720D01*
X018161Y002845D02*
X018161Y002845D01*
X018161Y003003D02*
X018161Y003003D01*
X017909Y003003D02*
X008711Y003003D01*
X008711Y002845D02*
X017803Y002845D01*
X017783Y002686D02*
X008711Y002686D01*
X008711Y002528D02*
X017835Y002528D01*
X013055Y006173D02*
X008711Y006173D01*
X008711Y006015D02*
X012946Y006015D01*
X012913Y005856D02*
X008711Y005856D01*
X008711Y005698D02*
X012941Y005698D01*
X011769Y004271D02*
X027211Y004271D01*
X027211Y004113D02*
X011885Y004113D01*
X011944Y003954D02*
X027211Y003954D01*
X027211Y003796D02*
X011944Y003796D01*
X011905Y003637D02*
X027211Y003637D01*
X027211Y003479D02*
X011819Y003479D01*
X011623Y003320D02*
X027211Y003320D01*
X027211Y003162D02*
X008711Y003162D01*
X008711Y003320D02*
X011079Y003320D01*
X010883Y003479D02*
X008711Y003479D01*
X008711Y003637D02*
X010796Y003637D01*
X010757Y003796D02*
X008711Y003796D01*
X008711Y003954D02*
X010757Y003954D01*
X010817Y004113D02*
X008711Y004113D01*
X008711Y004271D02*
X010932Y004271D01*
X010031Y002052D02*
X025893Y002052D01*
X025684Y001894D02*
X010219Y001894D01*
X010364Y001735D02*
X025574Y001735D01*
X025476Y001577D02*
X010434Y001577D01*
X010495Y001418D02*
X025431Y001418D01*
X025401Y001260D02*
X010522Y001260D01*
X010522Y001101D02*
X025390Y001101D01*
X025419Y000943D02*
X010519Y000943D01*
X010457Y000784D02*
X025449Y000784D01*
X025537Y000626D02*
X010396Y000626D01*
X010275Y000467D02*
X025635Y000467D01*
X027031Y002052D02*
X027211Y002052D01*
X027211Y020280D02*
X012931Y020280D01*
X012931Y020438D02*
X013212Y020438D01*
X013054Y020597D02*
X012815Y020597D01*
X013011Y020755D02*
X008711Y020755D01*
X008711Y020597D02*
X012127Y020597D01*
X012011Y020438D02*
X008711Y020438D01*
X008711Y020280D02*
X012011Y020280D01*
X012011Y020121D02*
X008711Y020121D01*
X008711Y019963D02*
X012148Y019963D01*
X012280Y020910D02*
X012661Y020910D01*
X012931Y021179D01*
X012931Y021561D01*
X012661Y021830D01*
X012280Y021830D01*
X012011Y021561D01*
X012011Y021179D01*
X012280Y020910D01*
X012277Y020914D02*
X008711Y020914D01*
X008711Y021072D02*
X012118Y021072D01*
X012011Y021231D02*
X008711Y021231D01*
X008711Y021389D02*
X012011Y021389D01*
X012011Y021548D02*
X008711Y021548D01*
X008711Y021706D02*
X012156Y021706D01*
X012785Y021706D02*
X013024Y021706D01*
X013011Y021719D02*
X013280Y021450D01*
X013661Y021450D01*
X013931Y021719D01*
X013931Y022101D01*
X013661Y022370D01*
X013280Y022370D01*
X013011Y022101D01*
X013011Y021719D01*
X013011Y021865D02*
X008711Y021865D01*
X008711Y022023D02*
X013011Y022023D01*
X013092Y022182D02*
X008711Y022182D01*
X008711Y022340D02*
X013250Y022340D01*
X013691Y022340D02*
X014551Y022340D01*
X014551Y022182D02*
X013850Y022182D01*
X013931Y022023D02*
X014551Y022023D01*
X014551Y021865D02*
X013931Y021865D01*
X013917Y021706D02*
X014551Y021706D01*
X014472Y021548D02*
X013759Y021548D01*
X013721Y021231D02*
X014155Y021231D01*
X014314Y021389D02*
X012931Y021389D01*
X012931Y021231D02*
X013221Y021231D01*
X013062Y021072D02*
X012823Y021072D01*
X012665Y020914D02*
X013011Y020914D01*
X012931Y021548D02*
X013183Y021548D01*
X013191Y020121D02*
X012931Y020121D01*
X012491Y018536D02*
X012451Y018536D01*
X012451Y018378D02*
X012491Y018378D01*
X012491Y018219D02*
X012451Y018219D01*
X012451Y018061D02*
X012491Y018061D01*
X012491Y017902D02*
X012451Y017902D01*
X012178Y017744D02*
X008711Y017744D01*
X008711Y017902D02*
X012020Y017902D01*
X011991Y018061D02*
X008711Y018061D01*
X008711Y018219D02*
X011991Y018219D01*
X012039Y018378D02*
X008711Y018378D01*
X008711Y018536D02*
X012198Y018536D01*
X012168Y017427D02*
X008711Y017427D01*
X008711Y017585D02*
X013011Y017585D01*
X013011Y017427D02*
X012773Y017427D01*
X012010Y017268D02*
X008711Y017268D01*
X008711Y017110D02*
X011991Y017110D01*
X011991Y016951D02*
X008711Y016951D01*
X008711Y016793D02*
X012049Y016793D01*
X012931Y015842D02*
X013232Y015842D01*
X013073Y015683D02*
X012834Y015683D01*
X012676Y015525D02*
X013011Y015525D01*
X013011Y015366D02*
X008711Y015366D01*
X012804Y015208D02*
X013043Y015208D01*
X012931Y015049D02*
X013201Y015049D01*
X014551Y022499D02*
X008711Y022499D01*
X008711Y022657D02*
X014551Y022657D01*
X014551Y022816D02*
X008711Y022816D01*
X008711Y022974D02*
X014551Y022974D01*
X014551Y023133D02*
X008711Y023133D01*
X008711Y023291D02*
X014551Y023291D01*
X014551Y023450D02*
X008711Y023450D01*
X008711Y023608D02*
X012527Y023608D01*
X012523Y023609D02*
X012818Y023530D01*
X013123Y023530D01*
X013418Y023609D01*
X013683Y023762D01*
X013899Y023978D01*
X014052Y024242D01*
X014131Y024537D01*
X014131Y024843D01*
X014052Y025138D01*
X013899Y025402D01*
X013683Y025618D01*
X013418Y025771D01*
X013123Y025850D01*
X012818Y025850D01*
X012523Y025771D01*
X012258Y025618D01*
X012042Y025402D01*
X011890Y025138D01*
X011811Y024843D01*
X011811Y024537D01*
X011890Y024242D01*
X008711Y024242D01*
X008711Y024084D02*
X011981Y024084D01*
X012042Y023978D02*
X012258Y023762D01*
X012523Y023609D01*
X012254Y023767D02*
X008711Y023767D01*
X008711Y023925D02*
X012095Y023925D01*
X012042Y023978D02*
X011890Y024242D01*
X011847Y024401D02*
X008711Y024401D01*
X008711Y024559D02*
X011811Y024559D01*
X011811Y024718D02*
X008711Y024718D01*
X008711Y024876D02*
X011820Y024876D01*
X011862Y025035D02*
X008711Y025035D01*
X008711Y025193D02*
X011922Y025193D01*
X012013Y025352D02*
X008711Y025352D01*
X008711Y025510D02*
X012150Y025510D01*
X012346Y025669D02*
X008711Y025669D01*
X008711Y025827D02*
X012732Y025827D01*
X013209Y025827D02*
X015712Y025827D01*
X015870Y025986D02*
X008711Y025986D01*
X008711Y026144D02*
X016029Y026144D01*
X016187Y026303D02*
X008711Y026303D01*
X008711Y026461D02*
X016346Y026461D01*
X015553Y025669D02*
X013596Y025669D01*
X013791Y025510D02*
X015395Y025510D01*
X015236Y025352D02*
X013928Y025352D01*
X014020Y025193D02*
X015078Y025193D01*
X014919Y025035D02*
X014079Y025035D01*
X014122Y024876D02*
X014761Y024876D01*
X014602Y024718D02*
X014131Y024718D01*
X014131Y024559D02*
X014551Y024559D01*
X014551Y024401D02*
X014094Y024401D01*
X014051Y024242D02*
X014551Y024242D01*
X014551Y024084D02*
X013960Y024084D01*
X013846Y023925D02*
X014551Y023925D01*
X014551Y023767D02*
X013688Y023767D01*
X013415Y023608D02*
X014551Y023608D01*
X015111Y023608D02*
X017645Y023608D01*
X017593Y023450D02*
X015111Y023450D01*
X016121Y023133D02*
X016121Y023133D01*
X016121Y022974D02*
X016121Y022974D01*
X016121Y022816D02*
X016121Y022816D01*
X016121Y022657D02*
X016121Y022657D01*
X017951Y023410D02*
X020621Y023410D01*
X021221Y029790D02*
X013591Y029790D01*
X013499Y029948D02*
X021182Y029948D01*
X021182Y029955D02*
X021541Y029955D01*
X021541Y029955D01*
X021182Y029955D01*
X021215Y030107D02*
X012669Y030107D01*
X012652Y029948D02*
X012982Y029948D01*
X013241Y029700D02*
X012311Y029700D01*
X012311Y030060D01*
X011969Y029948D02*
X010711Y029948D01*
X010718Y029931D02*
X010660Y030070D01*
X010554Y030176D01*
X010416Y030233D01*
X010266Y030233D01*
X010127Y030176D01*
X010021Y030070D01*
X009963Y029931D01*
X009963Y029781D01*
X010021Y029642D01*
X010127Y029536D01*
X010266Y029479D01*
X010416Y029479D01*
X010554Y029536D01*
X010660Y029642D01*
X010718Y029781D01*
X010718Y029931D01*
X010718Y029790D02*
X012071Y029790D01*
X012079Y029631D02*
X010649Y029631D01*
X010624Y030107D02*
X011953Y030107D01*
X012009Y030265D02*
X008711Y030265D01*
X008711Y030107D02*
X010058Y030107D01*
X009970Y029948D02*
X008711Y029948D01*
X008711Y029790D02*
X009963Y029790D01*
X010032Y029631D02*
X008711Y029631D01*
X008711Y029473D02*
X012233Y029473D01*
X012591Y028839D02*
X012591Y028839D01*
X012591Y028680D02*
X012591Y028680D01*
X012591Y028522D02*
X012591Y028522D01*
X012591Y028363D02*
X012591Y028363D01*
X012612Y030265D02*
X021360Y030265D01*
X021541Y030265D02*
X021541Y030265D01*
X021541Y030107D02*
X021541Y030107D01*
X021541Y029948D02*
X021541Y029948D01*
X021541Y029790D02*
X021541Y029790D01*
X021595Y032152D02*
X021526Y032165D01*
X021461Y032192D01*
X021402Y032232D01*
X021381Y032253D01*
X021359Y032232D01*
X021300Y032192D01*
X021235Y032165D01*
X021166Y032152D01*
X021131Y032152D01*
X021131Y032510D01*
X021272Y032510D01*
X021631Y032510D01*
X022131Y032510D01*
X022489Y032510D01*
X022631Y032510D01*
X022989Y032510D01*
X022989Y032545D01*
X022975Y032615D01*
X022948Y032680D01*
X022909Y032738D01*
X022888Y032760D01*
X022909Y032782D01*
X022948Y032840D01*
X022975Y032905D01*
X022989Y032975D01*
X022989Y033010D01*
X022989Y033045D01*
X022975Y033115D01*
X022948Y033180D01*
X022909Y033238D01*
X022888Y033260D01*
X022909Y033282D01*
X022948Y033340D01*
X022975Y033405D01*
X022989Y033475D01*
X022989Y033510D01*
X022989Y033545D01*
X022975Y033615D01*
X022948Y033680D01*
X022909Y033738D01*
X022888Y033760D01*
X022909Y033782D01*
X022948Y033840D01*
X022975Y033905D01*
X022989Y033975D01*
X022989Y034010D01*
X022989Y034045D01*
X022975Y034115D01*
X022948Y034180D01*
X022909Y034238D01*
X022859Y034288D01*
X022800Y034328D01*
X022735Y034355D01*
X022666Y034368D01*
X022631Y034368D01*
X022631Y034010D01*
X022989Y034010D01*
X022631Y034010D01*
X022631Y034010D01*
X022631Y034010D01*
X022631Y033510D01*
X022989Y033510D01*
X022631Y033510D01*
X022631Y033510D01*
X022631Y033510D01*
X022631Y033010D01*
X022989Y033010D01*
X022631Y033010D01*
X022631Y033010D01*
X022631Y032510D01*
X022631Y032510D01*
X022989Y032510D01*
X022989Y032475D01*
X022975Y032405D01*
X022948Y032340D01*
X022909Y032282D01*
X022859Y032232D01*
X022800Y032192D01*
X022735Y032165D01*
X022666Y032152D01*
X022631Y032152D01*
X022631Y032510D01*
X022631Y032510D01*
X022631Y032510D01*
X022631Y032152D01*
X022595Y032152D01*
X022526Y032165D01*
X022461Y032192D01*
X022402Y032232D01*
X022381Y032253D01*
X022359Y032232D01*
X022300Y032192D01*
X022235Y032165D01*
X022166Y032152D01*
X022131Y032152D01*
X022131Y032510D01*
X022131Y032510D01*
X022631Y032510D01*
X022631Y032652D01*
X022631Y033010D01*
X022631Y033010D01*
X022631Y033010D01*
X022631Y033152D01*
X022631Y033510D01*
X022631Y033510D01*
X022631Y033868D01*
X022631Y034010D01*
X022631Y034010D01*
X022631Y034368D01*
X022595Y034368D01*
X022526Y034355D01*
X022461Y034328D01*
X022402Y034288D01*
X022381Y034267D01*
X022359Y034288D01*
X022300Y034328D01*
X022235Y034355D01*
X022166Y034368D01*
X022131Y034368D01*
X022131Y034010D01*
X022272Y034010D01*
X022631Y034010D01*
X022131Y034010D01*
X022131Y034010D01*
X022131Y034010D01*
X022131Y033510D01*
X022272Y033510D01*
X022631Y033510D01*
X022131Y033510D01*
X022131Y033510D01*
X022131Y033010D01*
X022489Y033010D01*
X022631Y033010D01*
X022131Y033010D01*
X022131Y033010D01*
X022131Y033010D01*
X022131Y032510D01*
X022131Y032510D01*
X022131Y032510D01*
X022131Y032152D01*
X022095Y032152D01*
X022026Y032165D01*
X021961Y032192D01*
X021902Y032232D01*
X021881Y032253D01*
X021859Y032232D01*
X021800Y032192D01*
X021735Y032165D01*
X021666Y032152D01*
X021631Y032152D01*
X021631Y032510D01*
X021631Y032510D01*
X021772Y032510D01*
X022131Y032510D01*
X022131Y032868D01*
X022131Y033010D01*
X022131Y033010D01*
X022131Y033368D01*
X022131Y033510D01*
X022131Y033510D01*
X022131Y033510D01*
X022131Y033868D01*
X022131Y034010D01*
X022131Y034010D01*
X022131Y034368D01*
X022095Y034368D01*
X022026Y034355D01*
X021961Y034328D01*
X021902Y034288D01*
X021881Y034267D01*
X021859Y034288D01*
X021800Y034328D01*
X021735Y034355D01*
X021666Y034368D01*
X021631Y034368D01*
X021631Y034010D01*
X021772Y034010D01*
X022131Y034010D01*
X021631Y034010D01*
X021631Y034010D01*
X021631Y034010D01*
X021631Y033868D01*
X021631Y033510D01*
X021989Y033510D01*
X022131Y033510D01*
X021631Y033510D01*
X021631Y033510D01*
X021631Y033510D01*
X021631Y033152D01*
X021631Y033010D01*
X022131Y033010D01*
X021772Y033010D01*
X021631Y033010D01*
X021631Y033010D01*
X021631Y033010D01*
X021631Y032510D01*
X021631Y032510D01*
X021631Y032510D01*
X021631Y032152D01*
X021595Y032152D01*
X021631Y032167D02*
X021631Y032167D01*
X021739Y032167D02*
X022022Y032167D01*
X022131Y032167D02*
X022131Y032167D01*
X022239Y032167D02*
X022522Y032167D01*
X022631Y032167D02*
X022631Y032167D01*
X022739Y032167D02*
X027211Y032167D01*
X027211Y032009D02*
X008711Y032009D01*
X008711Y032167D02*
X020522Y032167D01*
X020526Y032165D02*
X020595Y032152D01*
X020631Y032152D01*
X020666Y032152D01*
X020735Y032165D01*
X020800Y032192D01*
X020859Y032232D01*
X020881Y032253D01*
X020902Y032232D01*
X020961Y032192D01*
X021026Y032165D01*
X021095Y032152D01*
X021131Y032152D01*
X021131Y032510D01*
X021131Y032510D01*
X021631Y032510D01*
X021631Y032868D01*
X021631Y033010D01*
X021631Y033010D01*
X021631Y033510D01*
X021631Y033510D01*
X021631Y034010D01*
X021631Y034010D01*
X021631Y034368D01*
X021595Y034368D01*
X021526Y034355D01*
X021461Y034328D01*
X021402Y034288D01*
X021381Y034267D01*
X021359Y034288D01*
X021300Y034328D01*
X021235Y034355D01*
X021166Y034368D01*
X021131Y034368D01*
X021131Y034010D01*
X021272Y034010D01*
X021631Y034010D01*
X021131Y034010D01*
X021131Y034010D01*
X021131Y034010D01*
X021131Y033510D01*
X021272Y033510D01*
X021631Y033510D01*
X021131Y033510D01*
X021131Y033510D01*
X021131Y033510D01*
X021131Y033010D01*
X021272Y033010D01*
X021631Y033010D01*
X021131Y033010D01*
X021131Y033010D01*
X021131Y033010D01*
X021131Y032510D01*
X021131Y032510D01*
X021131Y032510D01*
X021131Y032868D01*
X021131Y033010D01*
X021131Y033010D01*
X021131Y033368D01*
X021131Y033510D01*
X021131Y033510D01*
X021131Y033868D01*
X021131Y034010D01*
X021131Y034010D01*
X021131Y034368D01*
X021095Y034368D01*
X021026Y034355D01*
X020961Y034328D01*
X020902Y034288D01*
X020881Y034267D01*
X020859Y034288D01*
X020800Y034328D01*
X020735Y034355D01*
X020666Y034368D01*
X020631Y034368D01*
X020631Y034010D01*
X020989Y034010D01*
X021131Y034010D01*
X020631Y034010D01*
X020631Y034010D01*
X020631Y034010D01*
X020631Y033510D01*
X020989Y033510D01*
X021131Y033510D01*
X020631Y033510D01*
X020631Y033510D01*
X020631Y033010D01*
X020772Y033010D01*
X021131Y033010D01*
X020631Y033010D01*
X020631Y033010D01*
X020631Y032510D01*
X020772Y032510D01*
X021131Y032510D01*
X020631Y032510D01*
X020631Y032510D01*
X020631Y032152D01*
X020631Y032510D01*
X020631Y032510D01*
X020631Y032510D01*
X020631Y032652D01*
X020631Y033010D01*
X020631Y033010D01*
X020631Y033010D01*
X020631Y033368D01*
X020631Y033510D01*
X020631Y033510D01*
X020631Y033510D01*
X020631Y033868D01*
X020631Y034010D01*
X020631Y034010D01*
X020631Y034368D01*
X020595Y034368D01*
X020526Y034355D01*
X020461Y034328D01*
X020402Y034288D01*
X020352Y034238D01*
X020313Y034180D01*
X020286Y034115D01*
X020272Y034045D01*
X020272Y034010D01*
X020272Y033975D01*
X020286Y033905D01*
X020313Y033840D01*
X020352Y033782D01*
X020374Y033760D01*
X020352Y033738D01*
X020313Y033680D01*
X020286Y033615D01*
X020272Y033545D01*
X020272Y033510D01*
X020272Y033475D01*
X020286Y033405D01*
X020313Y033340D01*
X020352Y033282D01*
X020374Y033260D01*
X020352Y033238D01*
X020313Y033180D01*
X020286Y033115D01*
X020272Y033045D01*
X020272Y033010D01*
X020272Y032975D01*
X020286Y032905D01*
X020313Y032840D01*
X020352Y032782D01*
X020374Y032760D01*
X020352Y032738D01*
X020313Y032680D01*
X020286Y032615D01*
X020272Y032545D01*
X020272Y032510D01*
X020272Y032475D01*
X020286Y032405D01*
X020313Y032340D01*
X020352Y032282D01*
X020402Y032232D01*
X020461Y032192D01*
X020526Y032165D01*
X020631Y032167D02*
X020631Y032167D01*
X020739Y032167D02*
X021022Y032167D01*
X021131Y032167D02*
X021131Y032167D01*
X021239Y032167D02*
X021522Y032167D01*
X021631Y032326D02*
X021631Y032326D01*
X021631Y032484D02*
X021631Y032484D01*
X021631Y032510D02*
X021631Y032510D01*
X021631Y032643D02*
X021631Y032643D01*
X021631Y032801D02*
X021631Y032801D01*
X021631Y032960D02*
X021631Y032960D01*
X021631Y033010D02*
X021631Y033010D01*
X021631Y033118D02*
X021631Y033118D01*
X021631Y033277D02*
X021631Y033277D01*
X021631Y033435D02*
X021631Y033435D01*
X021631Y033510D02*
X021631Y033510D01*
X021631Y033594D02*
X021631Y033594D01*
X021631Y033752D02*
X021631Y033752D01*
X021631Y033911D02*
X021631Y033911D01*
X021631Y034010D02*
X021631Y034010D01*
X021631Y034069D02*
X021631Y034069D01*
X021631Y034228D02*
X021631Y034228D01*
X022131Y034228D02*
X022131Y034228D01*
X022131Y034069D02*
X022131Y034069D01*
X022131Y034010D02*
X022131Y034010D01*
X022131Y033911D02*
X022131Y033911D01*
X022131Y033752D02*
X022131Y033752D01*
X022131Y033594D02*
X022131Y033594D01*
X022131Y033510D02*
X022131Y033510D01*
X022131Y033435D02*
X022131Y033435D01*
X022131Y033277D02*
X022131Y033277D01*
X022131Y033118D02*
X022131Y033118D01*
X022131Y033010D02*
X022131Y033010D01*
X022131Y032960D02*
X022131Y032960D01*
X022131Y032801D02*
X022131Y032801D01*
X022131Y032643D02*
X022131Y032643D01*
X022131Y032510D02*
X022131Y032510D01*
X022131Y032484D02*
X022131Y032484D01*
X022131Y032326D02*
X022131Y032326D01*
X022631Y032326D02*
X022631Y032326D01*
X022631Y032484D02*
X022631Y032484D01*
X022631Y032510D02*
X022631Y032510D01*
X022631Y032643D02*
X022631Y032643D01*
X022631Y032801D02*
X022631Y032801D01*
X022631Y032960D02*
X022631Y032960D01*
X022631Y033010D02*
X022631Y033010D01*
X022631Y033118D02*
X022631Y033118D01*
X022631Y033277D02*
X022631Y033277D01*
X022631Y033435D02*
X022631Y033435D01*
X022631Y033510D02*
X022631Y033510D01*
X022631Y033594D02*
X022631Y033594D01*
X022631Y033752D02*
X022631Y033752D01*
X022631Y033911D02*
X022631Y033911D01*
X022631Y034010D02*
X022631Y034010D01*
X022631Y034069D02*
X022631Y034069D01*
X022631Y034228D02*
X022631Y034228D01*
X022916Y034228D02*
X027211Y034228D01*
X027211Y034386D02*
X008713Y034386D01*
X008713Y034228D02*
X020345Y034228D01*
X020277Y034069D02*
X008712Y034069D01*
X008712Y033911D02*
X020285Y033911D01*
X020272Y034010D02*
X020631Y034010D01*
X020631Y034010D01*
X020272Y034010D01*
X020366Y033752D02*
X008712Y033752D01*
X008712Y033594D02*
X020282Y033594D01*
X020272Y033510D02*
X020631Y033510D01*
X020272Y033510D01*
X020280Y033435D02*
X008711Y033435D01*
X008711Y033277D02*
X020357Y033277D01*
X020287Y033118D02*
X008711Y033118D01*
X008711Y032960D02*
X020275Y032960D01*
X020272Y033010D02*
X020631Y033010D01*
X020631Y033010D01*
X020272Y033010D01*
X020339Y032801D02*
X008711Y032801D01*
X008711Y032643D02*
X020298Y032643D01*
X020272Y032510D02*
X020631Y032510D01*
X020272Y032510D01*
X020272Y032484D02*
X008711Y032484D01*
X008711Y032326D02*
X020323Y032326D01*
X020631Y032326D02*
X020631Y032326D01*
X020631Y032484D02*
X020631Y032484D01*
X020631Y032510D02*
X020631Y032510D01*
X020631Y032643D02*
X020631Y032643D01*
X020631Y032801D02*
X020631Y032801D01*
X020631Y032960D02*
X020631Y032960D01*
X020631Y033118D02*
X020631Y033118D01*
X020631Y033277D02*
X020631Y033277D01*
X020631Y033435D02*
X020631Y033435D01*
X020631Y033510D02*
X020631Y033510D01*
X020631Y033594D02*
X020631Y033594D01*
X020631Y033752D02*
X020631Y033752D01*
X020631Y033911D02*
X020631Y033911D01*
X020631Y034069D02*
X020631Y034069D01*
X020631Y034228D02*
X020631Y034228D01*
X021131Y034228D02*
X021131Y034228D01*
X021131Y034069D02*
X021131Y034069D01*
X021131Y034010D02*
X021131Y034010D01*
X021131Y033911D02*
X021131Y033911D01*
X021131Y033752D02*
X021131Y033752D01*
X021131Y033594D02*
X021131Y033594D01*
X021131Y033510D02*
X021131Y033510D01*
X021131Y033435D02*
X021131Y033435D01*
X021131Y033277D02*
X021131Y033277D01*
X021131Y033118D02*
X021131Y033118D01*
X021131Y033010D02*
X021131Y033010D01*
X021131Y032960D02*
X021131Y032960D01*
X021131Y032801D02*
X021131Y032801D01*
X021131Y032643D02*
X021131Y032643D01*
X021131Y032510D02*
X021131Y032510D01*
X021131Y032484D02*
X021131Y032484D01*
X021131Y032326D02*
X021131Y032326D01*
X022904Y033277D02*
X027211Y033277D01*
X027211Y033435D02*
X022981Y033435D01*
X022979Y033594D02*
X027211Y033594D01*
X027211Y033752D02*
X022895Y033752D01*
X022976Y033911D02*
X027211Y033911D01*
X027211Y034069D02*
X022984Y034069D01*
X022974Y033118D02*
X027211Y033118D01*
X027211Y032960D02*
X022986Y032960D01*
X022922Y032801D02*
X027211Y032801D01*
X027211Y032643D02*
X022964Y032643D01*
X022989Y032484D02*
X027211Y032484D01*
X027211Y032326D02*
X022938Y032326D01*
X022260Y035890D02*
X022325Y035917D01*
X022384Y035957D01*
X022434Y036007D01*
X022473Y036065D01*
X022500Y036130D01*
X027211Y036130D01*
X027211Y036288D02*
X022511Y036288D01*
X022514Y036270D02*
X022500Y036340D01*
X022473Y036405D01*
X022434Y036463D01*
X022384Y036513D01*
X022325Y036553D01*
X022260Y036580D01*
X022191Y036593D01*
X022156Y036593D01*
X022156Y036235D01*
X022514Y036235D01*
X022514Y036270D01*
X022514Y036235D02*
X022156Y036235D01*
X022156Y036235D01*
X022156Y035877D01*
X022191Y035877D01*
X022260Y035890D01*
X022156Y035877D02*
X022156Y036235D01*
X022156Y036235D01*
X022156Y036235D01*
X022156Y036593D01*
X022120Y036593D01*
X022051Y036580D01*
X021986Y036553D01*
X021927Y036513D01*
X021877Y036463D01*
X021838Y036405D01*
X021811Y036340D01*
X021797Y036270D01*
X021797Y036235D01*
X021797Y036200D01*
X021811Y036130D01*
X021838Y036065D01*
X021877Y036007D01*
X021927Y035957D01*
X021986Y035917D01*
X022051Y035890D01*
X022120Y035877D01*
X022156Y035877D01*
X022156Y035971D02*
X022156Y035971D01*
X022156Y036130D02*
X022156Y036130D01*
X022156Y036235D02*
X021797Y036235D01*
X022156Y036235D01*
X022156Y036235D01*
X022156Y036288D02*
X022156Y036288D01*
X022156Y036447D02*
X022156Y036447D01*
X022445Y036447D02*
X027211Y036447D01*
X027211Y036605D02*
X008716Y036605D01*
X008716Y036447D02*
X021866Y036447D01*
X021801Y036288D02*
X008716Y036288D01*
X008716Y036130D02*
X021811Y036130D01*
X021913Y035971D02*
X008715Y035971D01*
X008715Y035813D02*
X027211Y035813D01*
X027211Y035971D02*
X022399Y035971D01*
X022500Y036130D02*
X022514Y036200D01*
X022514Y036235D01*
X025384Y038666D02*
X010522Y038666D01*
X010522Y038824D02*
X025413Y038824D01*
X025443Y038983D02*
X010470Y038983D01*
X010409Y039141D02*
X025516Y039141D01*
X025614Y039300D02*
X010305Y039300D01*
X010522Y038507D02*
X025407Y038507D01*
X025437Y038349D02*
X010482Y038349D01*
X010421Y038190D02*
X025497Y038190D01*
X025595Y038032D02*
X010333Y038032D01*
X010189Y037873D02*
X025728Y037873D01*
X025938Y037715D02*
X009964Y037715D01*
X008938Y037715D02*
X008718Y037715D01*
X008718Y037873D02*
X008728Y037873D01*
X008718Y037556D02*
X027211Y037556D01*
X027211Y037398D02*
X008717Y037398D01*
X008717Y037239D02*
X027211Y037239D01*
X027211Y037081D02*
X008717Y037081D01*
X008717Y036922D02*
X027211Y036922D01*
X027211Y036764D02*
X008717Y036764D01*
X008715Y035654D02*
X027211Y035654D01*
X027211Y035496D02*
X008715Y035496D01*
X008714Y035337D02*
X027211Y035337D01*
X027211Y035179D02*
X008714Y035179D01*
X008714Y035020D02*
X027211Y035020D01*
X027211Y034862D02*
X008714Y034862D01*
X008713Y034703D02*
X027211Y034703D01*
X027211Y034545D02*
X008713Y034545D01*
X008711Y031850D02*
X027211Y031850D01*
X027211Y031692D02*
X014139Y031692D01*
X014144Y031688D02*
X014085Y031728D01*
X014020Y031755D01*
X013951Y031768D01*
X013916Y031768D01*
X013916Y031410D01*
X014274Y031410D01*
X014274Y031445D01*
X014260Y031515D01*
X014233Y031580D01*
X014194Y031638D01*
X014144Y031688D01*
X014253Y031533D02*
X027211Y031533D01*
X027211Y031375D02*
X014274Y031375D01*
X014274Y031410D01*
X013916Y031410D01*
X013916Y031410D01*
X013916Y031052D01*
X013951Y031052D01*
X014020Y031065D01*
X014085Y031092D01*
X014144Y031132D01*
X014194Y031182D01*
X014233Y031240D01*
X014260Y031305D01*
X014274Y031375D01*
X014217Y031216D02*
X027211Y031216D01*
X027211Y031058D02*
X013981Y031058D01*
X013916Y031058D02*
X013916Y031058D01*
X013916Y031052D02*
X013916Y031410D01*
X013916Y031410D01*
X013916Y031410D01*
X013916Y031768D01*
X013880Y031768D01*
X013811Y031755D01*
X013746Y031728D01*
X013687Y031688D01*
X013637Y031638D01*
X013598Y031580D01*
X013571Y031515D01*
X013557Y031445D01*
X013557Y031410D01*
X013557Y031375D01*
X013571Y031305D01*
X013598Y031240D01*
X013637Y031182D01*
X013687Y031132D01*
X013746Y031092D01*
X013811Y031065D01*
X013880Y031052D01*
X013916Y031052D01*
X013850Y031058D02*
X008711Y031058D01*
X008711Y031216D02*
X013614Y031216D01*
X013557Y031375D02*
X008711Y031375D01*
X008711Y031533D02*
X013579Y031533D01*
X013557Y031410D02*
X013916Y031410D01*
X013557Y031410D01*
X013692Y031692D02*
X008711Y031692D01*
X008711Y030899D02*
X027211Y030899D01*
X027211Y030741D02*
X008711Y030741D01*
X008711Y030582D02*
X027211Y030582D01*
X027211Y030424D02*
X008711Y030424D01*
X008711Y028363D02*
X010046Y028363D01*
X009966Y028205D02*
X008711Y028205D01*
X008711Y028046D02*
X009965Y028046D01*
X010044Y027888D02*
X008711Y027888D01*
X013916Y031216D02*
X013916Y031216D01*
X013916Y031375D02*
X013916Y031375D01*
X013916Y031410D02*
X013916Y031410D01*
X013916Y031533D02*
X013916Y031533D01*
X013916Y031692D02*
X013916Y031692D01*
X014961Y028205D02*
X014961Y028205D01*
X014961Y028046D02*
X014961Y028046D01*
X014961Y027950D02*
X014961Y027950D01*
X014961Y027888D02*
X014961Y027888D01*
X014961Y027729D02*
X014961Y027729D01*
X026450Y029631D02*
X026544Y029631D01*
X027019Y029948D02*
X027211Y029948D01*
X027211Y029790D02*
X027177Y029790D01*
X027211Y030107D02*
X026860Y030107D01*
X027211Y030265D02*
X026424Y030265D01*
X026964Y037715D02*
X027211Y037715D01*
X027211Y037873D02*
X027189Y037873D01*
X008893Y002052D02*
X008711Y002052D01*
D19*
X013471Y020830D02*
X014151Y020830D01*
X014831Y021510D01*
X014831Y024550D01*
X016531Y026250D01*
X025761Y026250D01*
X026951Y027440D01*
X026951Y029620D01*
X026631Y029940D01*
X025816Y029940D01*
X025811Y029935D01*
M02*
