G75*
%MOIN*%
%OFA0B0*%
%FSLAX24Y24*%
%IPPOS*%
%LPD*%
%AMOC8*
5,1,8,0,0,1.08239X$1,22.5*
%
%ADD10C,0.1340*%
%ADD11C,0.0600*%
%ADD12C,0.0674*%
%ADD13OC8,0.0680*%
%ADD14C,0.2080*%
%ADD15C,0.0434*%
%ADD16C,0.0634*%
%ADD17C,0.0867*%
%ADD18C,0.0680*%
%ADD19C,0.0437*%
%ADD20C,0.0476*%
D10*
X009461Y001150D03*
X026461Y001150D03*
X026461Y038650D03*
X009461Y038650D03*
D11*
X024976Y023125D03*
X024976Y022125D03*
D12*
X024231Y017227D02*
X024231Y016633D01*
X023231Y016633D02*
X023231Y017227D01*
X022231Y017227D02*
X022231Y016633D01*
X021231Y016633D02*
X021231Y017227D01*
X020231Y017227D02*
X020231Y016633D01*
X019231Y016633D02*
X019231Y017227D01*
X025514Y028935D02*
X026107Y028935D01*
X026107Y029935D02*
X025514Y029935D01*
D13*
X013471Y021910D03*
X013471Y020830D03*
X013471Y019750D03*
X013471Y018670D03*
X013471Y017590D03*
X013471Y016510D03*
X013471Y015430D03*
X013471Y014350D03*
X012471Y014890D03*
X012471Y015970D03*
X012471Y017050D03*
X012471Y018130D03*
X012471Y019210D03*
X012471Y020290D03*
X012471Y021370D03*
D14*
X012971Y024690D03*
X012971Y011570D03*
D15*
X010341Y028124D03*
X010341Y029856D03*
D16*
X013351Y005850D03*
X013351Y004850D03*
D17*
X011351Y003850D03*
X011351Y007850D03*
D18*
X016081Y007850D02*
X016681Y007850D01*
X016681Y006850D02*
X016081Y006850D01*
X016081Y005850D02*
X016681Y005850D01*
X016681Y004850D02*
X016081Y004850D01*
D19*
X014411Y029215D03*
X013916Y031410D03*
X020631Y032510D03*
X020631Y033010D03*
X021131Y033010D03*
X021131Y032510D03*
X021631Y032510D03*
X021631Y033010D03*
X022131Y033010D03*
X022631Y033010D03*
X022631Y032510D03*
X022131Y032510D03*
X022131Y033510D03*
X022631Y033510D03*
X022631Y034010D03*
X022131Y034010D03*
X021631Y034010D03*
X021631Y033510D03*
X021131Y033510D03*
X021131Y034010D03*
X020631Y034010D03*
X020631Y033510D03*
X022156Y036235D03*
X021541Y029955D03*
D20*
X008851Y009000D03*
X015621Y017590D03*
X018781Y022410D03*
X018321Y022890D03*
X017951Y023410D03*
X016121Y022920D03*
X014961Y027950D03*
X013241Y029700D03*
X012311Y030060D03*
X012591Y028520D03*
X020621Y023410D03*
X020441Y021850D03*
X022241Y022890D03*
X022831Y022400D03*
X023441Y022380D03*
X022721Y018660D03*
X021791Y015440D03*
X026191Y019500D03*
X026321Y022615D03*
X020211Y005350D03*
X018161Y002720D03*
X022721Y004850D03*
M02*
