G75*
%MOIN*%
%OFA0B0*%
%FSLAX24Y24*%
%IPPOS*%
%LPD*%
%AMOC8*
5,1,8,0,0,1.08239X$1,22.5*
%
%ADD10C,0.1340*%
%ADD11R,0.0513X0.0474*%
%ADD12R,0.2521X0.2206*%
%ADD13R,0.0710X0.0474*%
%ADD14R,0.0395X0.0395*%
%ADD15R,0.0240X0.0440*%
%ADD16R,0.0631X0.0710*%
%ADD17R,0.0880X0.1580*%
%ADD18C,0.0600*%
%ADD19C,0.0674*%
%ADD20R,0.0660X0.0280*%
%ADD21R,0.0280X0.0660*%
%ADD22OC8,0.0680*%
%ADD23C,0.2080*%
%ADD24R,0.0474X0.0513*%
%ADD25R,0.1064X0.0867*%
%ADD26R,0.1379X0.0867*%
%ADD27R,0.1300X0.0277*%
%ADD28C,0.0434*%
%ADD29C,0.0634*%
%ADD30C,0.0867*%
%ADD31R,0.0946X0.0316*%
%ADD32R,0.1580X0.0880*%
%ADD33C,0.0680*%
%ADD34C,0.0437*%
%ADD35C,0.0476*%
D10*
X009461Y001150D03*
X026461Y001150D03*
X026461Y038650D03*
X009461Y038650D03*
D11*
X013251Y030840D03*
X013251Y030215D03*
X013251Y029215D03*
X013251Y028615D03*
X013200Y027960D03*
X013741Y027955D03*
X013920Y028615D03*
X013920Y029215D03*
X013920Y030215D03*
X013920Y030840D03*
X014410Y027955D03*
X012531Y027960D03*
X018116Y021850D03*
X018785Y021850D03*
X024726Y021330D03*
X025395Y021330D03*
X025651Y022125D03*
X026320Y022125D03*
X026320Y023145D03*
X025651Y023145D03*
X022850Y029955D03*
X022181Y029955D03*
X022646Y036235D03*
X023315Y036235D03*
X015305Y005850D03*
X014636Y005850D03*
X017396Y004850D03*
X018065Y004850D03*
D12*
X021646Y033210D03*
D13*
X024520Y032312D03*
X024520Y034108D03*
D14*
X024626Y036235D03*
X024035Y036235D03*
X024161Y029955D03*
X023570Y029955D03*
D15*
X016211Y030760D03*
X015961Y030760D03*
X015711Y030760D03*
X015461Y030760D03*
X015211Y030760D03*
X014961Y030760D03*
X014711Y030760D03*
X014461Y030760D03*
X014461Y028620D03*
X014711Y028620D03*
X014961Y028620D03*
X015211Y028620D03*
X015461Y028620D03*
X015711Y028620D03*
X015961Y028620D03*
X016211Y028620D03*
D16*
X023054Y031110D03*
X024157Y031110D03*
X024157Y035235D03*
X023054Y035235D03*
X025089Y020280D03*
X026192Y020280D03*
D17*
X019681Y033240D03*
D18*
X024976Y023125D03*
X024976Y022125D03*
D19*
X024231Y017227D02*
X024231Y016633D01*
X023231Y016633D02*
X023231Y017227D01*
X022231Y017227D02*
X022231Y016633D01*
X021231Y016633D02*
X021231Y017227D01*
X020231Y017227D02*
X020231Y016633D01*
X019231Y016633D02*
X019231Y017227D01*
X025514Y028935D02*
X026107Y028935D01*
X026107Y029935D02*
X025514Y029935D01*
D20*
X024091Y023425D03*
X024091Y023115D03*
X024091Y022795D03*
X024091Y022485D03*
X024091Y022165D03*
X024091Y021855D03*
X024091Y021545D03*
X024091Y021225D03*
X024091Y020915D03*
X024091Y020595D03*
X024091Y020285D03*
X019671Y020285D03*
X019671Y020595D03*
X019671Y020915D03*
X019671Y021225D03*
X019671Y021545D03*
X019671Y021855D03*
X019671Y022165D03*
X019671Y022485D03*
X019671Y022795D03*
X019671Y023115D03*
X019671Y023425D03*
D21*
X020311Y024065D03*
X020621Y024065D03*
X020941Y024065D03*
X021251Y024065D03*
X021571Y024065D03*
X021881Y024065D03*
X022191Y024065D03*
X022511Y024065D03*
X022821Y024065D03*
X023141Y024065D03*
X023451Y024065D03*
X023451Y019645D03*
X023141Y019645D03*
X022821Y019645D03*
X022511Y019645D03*
X022191Y019645D03*
X021881Y019645D03*
X021571Y019645D03*
X021251Y019645D03*
X020941Y019645D03*
X020621Y019645D03*
X020311Y019645D03*
D22*
X013471Y019750D03*
X013471Y018670D03*
X013471Y017590D03*
X013471Y016510D03*
X013471Y015430D03*
X013471Y014350D03*
X012471Y014890D03*
X012471Y015970D03*
X012471Y017050D03*
X012471Y018130D03*
X012471Y019210D03*
X012471Y020290D03*
X012471Y021370D03*
X013471Y020830D03*
X013471Y021910D03*
D23*
X012971Y024690D03*
X012971Y011570D03*
D24*
X018161Y003905D03*
X018161Y003235D03*
X024221Y018535D03*
X024221Y019205D03*
D25*
X009160Y027238D03*
X009160Y030742D03*
D26*
X011482Y030742D03*
X011482Y027238D03*
D27*
X011522Y028360D03*
X011522Y028675D03*
X011522Y028990D03*
X011522Y029305D03*
X011522Y029620D03*
D28*
X010341Y029856D03*
X010341Y028124D03*
D29*
X013351Y005850D03*
X013351Y004850D03*
D30*
X011351Y003850D03*
X011351Y007850D03*
D31*
X019087Y005350D03*
X019087Y004850D03*
X019087Y004350D03*
X019087Y003850D03*
X021134Y003850D03*
X021134Y004350D03*
X021134Y004850D03*
X021134Y005350D03*
X017144Y021910D03*
X017144Y022410D03*
X017144Y022910D03*
X017144Y023410D03*
X015097Y023410D03*
X015097Y022910D03*
X015097Y022410D03*
X015097Y021910D03*
D32*
X015111Y020840D03*
X015021Y015440D03*
D33*
X016081Y007850D02*
X016681Y007850D01*
X016681Y006850D02*
X016081Y006850D01*
X016081Y005850D02*
X016681Y005850D01*
X016681Y004850D02*
X016081Y004850D01*
D34*
X014411Y029215D03*
X013916Y031410D03*
X020631Y032510D03*
X020631Y033010D03*
X021131Y033010D03*
X021131Y032510D03*
X021631Y032510D03*
X021631Y033010D03*
X022131Y033010D03*
X022631Y033010D03*
X022631Y032510D03*
X022131Y032510D03*
X022131Y033510D03*
X022631Y033510D03*
X022631Y034010D03*
X022131Y034010D03*
X021631Y034010D03*
X021631Y033510D03*
X021131Y033510D03*
X021131Y034010D03*
X020631Y034010D03*
X020631Y033510D03*
X022156Y036235D03*
X021541Y029955D03*
D35*
X008851Y009000D03*
X015621Y017590D03*
X018781Y022410D03*
X018321Y022890D03*
X017951Y023410D03*
X016121Y022920D03*
X014961Y027950D03*
X013241Y029700D03*
X012311Y030060D03*
X012591Y028520D03*
X020621Y023410D03*
X020441Y021850D03*
X022241Y022890D03*
X022831Y022400D03*
X023441Y022380D03*
X022721Y018660D03*
X021791Y015440D03*
X026191Y019500D03*
X026321Y022615D03*
X020211Y005350D03*
X018161Y002720D03*
X022721Y004850D03*
M02*
